<svg xmlns="http://www.w3.org/2000/svg" viewBox="0 0 268.43 250.61"><defs><style>.cls-1{fill:none;stroke:#000;stroke-miterlimit:10;}</style></defs><title>clippath1_2</title><g id="Layer_2" data-name="Layer 2"><g id="Layer_1-2" data-name="Layer 1"><path class="cls-1" d="M251.74,63c1.23,8-2.92,27.25.08,35.46,6.16,16.92,16.94,23.29,16.06,41-.67,13.54-3.36,27-9.92,38.37-7.49,12.95-18.24,22.14-30.22,30.23l-.8.53a35,35,0,0,0-3.43,2.62c-40.48,34.86-98.1,47.23-152,33.23a52,52,0,0,1-6.79-1.91c-.92-.28-1.84-.54-2.76-.83a26,26,0,0,1-8.08-4.41c-1.2-.75-2.38-1.54-3.53-2.38-15.65-11.54-28.86-26.75-39.06-43.67C.39,173.1-5.75,148.14,10.18,131.43,17.24,124,26.6,94.06,42.59,55.82c23-55,77.5-70.51,139.37-39.64h0c10,5,19.81,7.38,28.66,6.79a28.56,28.56,0,0,1,18.16,5.23c.53.28,1.06.54,1.58.86C243.06,36.63,249.64,49.41,251.74,63Z"/></g></g></svg>