<svg xmlns="http://www.w3.org/2000/svg" viewBox="0 0 316.42 295.42"><defs><style>.cls-1{fill:none;stroke:#000;stroke-miterlimit:10;stroke-width:1.18px;}</style></defs><title>clippath4</title><g id="Layer_2" data-name="Layer 2"><g id="Layer_1-2" data-name="Layer 1"><path class="cls-1" d="M296.75,74.28c1.46,9.42-3.44,32.12.09,41.8,7.26,19.94,20,27.45,18.93,48.34-.79,16-4,31.86-11.7,45.23-8.83,15.26-21.5,26.1-35.62,35.63l-.94.63a41.28,41.28,0,0,0-4,3.08c-47.72,41.09-115.64,55.67-179.13,39.17a61.31,61.31,0,0,1-8-2.26c-1.08-.33-2.17-.63-3.25-1a30.7,30.7,0,0,1-9.52-5.2c-1.41-.89-2.8-1.81-4.16-2.81-18.45-13.6-34-31.53-46-51.48C.46,204-6.77,174.63,12,154.92c8.32-8.73,19.36-44,38.2-89.13C77.31.95,141.56-17.32,214.49,19.07h0c11.78,5.88,23.35,8.7,33.79,8a33.66,33.66,0,0,1,21.41,6.17c.62.33,1.25.64,1.87,1C286.52,43.18,294.27,58.24,296.75,74.28Z"/></g></g></svg>