<svg xmlns="http://www.w3.org/2000/svg" viewBox="0 0 358.24 219.34"><defs><style>.cls-1{fill:none;stroke:#000;stroke-miterlimit:10;}</style></defs><title>clippath2</title><g id="Layer_2" data-name="Layer 2"><g id="Layer_1-2" data-name="Layer 1"><path class="cls-1" d="M334.51,171.25c-12,9.71-20.5,7-28.54,4A70.22,70.22,0,0,0,286.81,171a71,71,0,0,0-13.33,3.74c-6,2.37-10.21,4.37-15.89,10a75.8,75.8,0,0,1-5.79,5.16c-3.88,3.84-7.79,7.62-11.82,11-2,1.66-4,3.24-6,4.76a22.41,22.41,0,0,1-3.82,2.8c-2.51,1.81-5,3.57-7.5,5.33a14.56,14.56,0,0,1-7.75,3,30.43,30.43,0,0,1-13.35,2c-11.52-1.1-21.92-6-31.82-10.11s-19-9.83-28.56-14.75c-18.74-9.69-39.92-15.23-61-20.93C69.37,170,58.56,167,48.08,163.5s-21.21-7.06-30-13.38C6.28,141.6-1.63,125.34,1,104.07a48.44,48.44,0,0,1,8.53-31,29.1,29.1,0,0,1,3.11-5.52C28.74,44.76,49.7,34.1,67.8,29.94c8.65-2,17-2.8,25.91-5.7,8.25-2.69,16.61-8.57,25-13.8C129,4.08,138.32.5,147.25.5c8.71,0,16.16,3.41,23,6.94A69.28,69.28,0,0,1,189.7,22.73c5.7,6.31,10,14,14.79,21.36,9.13,14.2,25.87,16.19,43.14,17.15,17.73,1,36.27.18,53.29,2.74,15.7,2.36,30.36,7.72,40.78,18.61A56.37,56.37,0,0,1,357,131.49C354.87,145.13,346.82,161.3,334.51,171.25Z"/></g></g></svg>