<svg xmlns="http://www.w3.org/2000/svg" viewBox="0 0 432.29 403.6"><defs><style>.cls-1{fill:none;stroke:#000;stroke-miterlimit:10;stroke-width:1.61px;}</style></defs><title>clippath3</title><g id="Layer_2" data-name="Layer 2"><g id="Layer_1-2" data-name="Layer 1"><path class="cls-1" d="M405.42,101.49c2,12.86-4.69,43.88.12,57.11,9.92,27.25,27.28,37.5,25.86,66-1.08,21.8-5.41,43.53-16,61.79-12.06,20.85-29.37,35.65-48.67,48.68l-1.28.86a56.4,56.4,0,0,0-5.53,4.21c-65.2,56.14-158,76.06-244.73,53.51a83.77,83.77,0,0,1-10.94-3.08c-1.48-.45-3-.86-4.44-1.34a41.94,41.94,0,0,1-13-7.1c-1.93-1.21-3.83-2.48-5.68-3.84C56,359.75,34.68,335.26,18.25,308,.62,278.77-9.25,238.58,16.4,211.66c11.37-11.93,26.44-60.18,52.19-121.76C105.62,1.3,193.41-23.67,293,26.06h0c16.1,8,31.9,11.89,46.16,10.93a46,46,0,0,1,29.25,8.43c.85.45,1.71.87,2.55,1.38C391.45,59,402,79.57,405.42,101.49Z"/></g></g></svg>