<?xml version="1.0" encoding="UTF-8" standalone="no"?>
<svg xmlns="http://www.w3.org/2000/svg" viewBox="0 0 153.06 82.29">
<defs>
<style>.cls-1{fill:#fff;}</style>
</defs>
<title>cloud2</title>
<g data-name="Layer 2">
<g id="HOME">
<path d="m0 70.9a22.4 22.4 0 0 1 22.4 -23.8c0.56 0 1.11 0 1.66 0.06a17.9 17.9 0 0 1 26.8 -21.4v-0.73a25.1 25.1 0 1 1 47.2 11.6 17.9 17.9 0 0 1 17.6 17.9 17.4 17.4 0 0 1 -0.13 2.11 13 13 0 0 1 20.5 9.47 13 13 0 0 1 17 12.9 3.32 3.32 0 0 1 -3.35 3.11h-144a3.35 3.35 0 0 1 -3 -1.6 22 22 0 0 1 -3 -9.7z" class="cls-1"/>
</g>
</g>
</svg>
