<svg xmlns="http://www.w3.org/2000/svg" viewBox="0 0 153.06 82.29"><defs><style>.cls-1{fill:#fff;}</style></defs><title>cloud2</title><g id="Layer_2" data-name="Layer 2"><g id="HOME"><path id="cloud2" class="cls-1" d="M0,70.88A22.37,22.37,0,0,1,22.37,47.11c.56,0,1.11,0,1.66.06A17.94,17.94,0,0,1,50.89,25.8c0-.25,0-.49,0-.73A25.07,25.07,0,1,1,98.14,36.73a17.94,17.94,0,0,1,17.59,17.93,17.37,17.37,0,0,1-.13,2.11,13,13,0,0,1,20.5,9.47,13,13,0,0,1,17,12.9v0a3.32,3.32,0,0,1-3.35,3.11H5.91A3.35,3.35,0,0,1,3,80.65,22,22,0,0,1,0,70.88Z"/></g></g></svg>