<?xml version="1.0" encoding="UTF-8" standalone="no"?>
<svg xmlns="http://www.w3.org/2000/svg" viewBox="0 0 153.06 82.29">
<defs>
<style>.cls-1{fill:#fff;}</style>
</defs>
<title>cloud 1</title>
<g data-name="Layer 2">
<g id="HOME">
<path d="m153 70.9a22.4 22.4 0 0 0 -22.3 -23.8c-0.56 0-1.11 0-1.66 0.06a17.9 17.9 0 0 0 -27 -21.4v-0.73a25.1 25.1 0 1 0 -47.1 11.6 17.9 17.9 0 0 0 -17.6 18 17.4 17.4 0 0 0 0.13 2.11 13 13 0 0 0 -20.4 9.4 13 13 0 0 0 -17 13 3.32 3.32 0 0 0 3.35 3.11h144a3.35 3.35 0 0 0 3 -1.7 22 22 0 0 0 3 -9.7z" class="cls-1" data-name="cloud 1"/>
</g>
</g>
</svg>
