<svg xmlns="http://www.w3.org/2000/svg" viewBox="0 0 153.06 82.29"><defs><style>.cls-1{fill:#fff;}</style></defs><title>cloud 1</title><g id="Layer_2" data-name="Layer 2"><g id="HOME"><path id="cloud_1" data-name="cloud 1" class="cls-1" d="M153,70.88a22.37,22.37,0,0,0-22.32-23.77c-.56,0-1.11,0-1.66.06A17.94,17.94,0,0,0,102.17,25.8c0-.25,0-.49,0-.73A25.07,25.07,0,1,0,54.92,36.73,17.94,17.94,0,0,0,37.33,54.67a17.37,17.37,0,0,0,.13,2.11A13,13,0,0,0,17,66.25,13,13,0,0,0,0,79.15v0a3.32,3.32,0,0,0,3.35,3.11H147.15A3.35,3.35,0,0,0,150,80.65,22,22,0,0,0,153,70.88Z"/></g></g></svg>