<svg xmlns="http://www.w3.org/2000/svg" xmlns:xlink="http://www.w3.org/1999/xlink" viewBox="0 0 543.57 325.63"><defs><style>.cls-1,.cls-6{fill:none;}.cls-10,.cls-2,.cls-9{fill:#fff;}.cls-3{fill:#ef8269;}.cls-4{fill:url(#New_Pattern_2);}.cls-10,.cls-5,.cls-6,.cls-7,.cls-8,.cls-9{stroke:#000;}.cls-10,.cls-11,.cls-5{stroke-miterlimit:10;}.cls-5,.cls-6,.cls-7{stroke-width:3.45px;}.cls-6,.cls-7,.cls-8,.cls-9{stroke-linecap:round;stroke-linejoin:round;}.cls-8,.cls-9{stroke-width:1.42px;}.cls-10{stroke-width:0.71px;}.cls-11{stroke:#fff;stroke-width:0.17px;}</style><pattern id="New_Pattern_2" data-name="New Pattern 2" width="105" height="70" patternUnits="userSpaceOnUse" viewBox="0 0 105 70"><rect class="cls-1" width="105" height="70"/><path class="cls-2" d="M81.45,68.86V69h.41a1.3,1.3,0,0,1,.2-.57h-.2Q81.45,68.54,81.45,68.86Z"/><path class="cls-2" d="M99,68.94h1.3v-.38l-.46-.31H99Z"/><path d="M102,62.87c0-.46-.22-.69-.65-.69l-.37.69v.37h1Z"/><path class="cls-2" d="M100.31,68.25h-.46l.46.31Z"/><path d="M95.8,68.64l.2-.53v-.24h-.73v.24C95.3,68.46,95.48,68.64,95.8,68.64Z"/><path d="M2.53,56.77h1q-.28-1.3-2-1.3H1.23Q1.23,56,2.53,56.77Z"/><polygon points="5.52 68.25 4.87 67.93 4.22 68.94 4.87 69.31 5.52 68.25"/><path d="M8.16,67.93q-.29,0-.29.33a4.17,4.17,0,0,0-2-.61q0,.81,2.6,1.3h.69Q9.18,68.46,8.16,67.93Z"/><path d="M27.26,68.44a2.77,2.77,0,0,1,1.06-.32v-.7l-.86.3Z"/><rect class="cls-2" x="15.03" y="64.49" width="0.45" height="0.81"/><path class="cls-2" d="M7.79,68.39c0,.33.19.49.49.49h.24V68.6a1.89,1.89,0,0,1-.24-.73A.47.47,0,0,0,7.79,68.39Z"/><path class="cls-2" d="M16.82,60.91v-.29h-.53v.73C16.64,61.36,16.82,61.21,16.82,60.91Z"/><path class="cls-2" d="M12.18,58.07h.49v-.29q0-.36-.77-.81h-.53Q11.82,58.07,12.18,58.07Z"/><path class="cls-2" d="M12.18,61.36h-.53l-.28,1.1Q11.82,62.46,12.18,61.36Z"/><path class="cls-2" d="M19.13,62.17v-.24H18.4q-.41,0-.81.77l.53.24Q19.13,62.54,19.13,62.17Z"/><path class="cls-2" d="M7,57.78v.53q.37,0,.81-.77v-.28H7.51C7.16,57.34,7,57.51,7,57.78Z"/><path class="cls-2" d="M2.59,61.93H1.82v.77Q2.22,62.7,2.59,61.93Z"/><path class="cls-2" d="M8,61.93H6.49v.24q.16,0,1.54.29Z"/><path class="cls-2" d="M4.66,61.65q0,.37.77.81h.24a.47.47,0,0,0,.53-.53l-.53-.28Z"/><path d="M21,62.7h.73l1.3-.24v-.53q0-.24-1.79-1.58c0,.19-.08.28-.24.28l.24.53v1Z"/><path d="M27.67,62.95h.24a1.87,1.87,0,0,1,.77-.24v-.53h-.24Q28.08,62.17,27.67,62.95Z"/><path class="cls-2" d="M88.49,2.6q0-.49-1-1.06V2.6a3.14,3.14,0,0,1,1,.24Z"/><path class="cls-2" d="M90.42,16.32l.37-.69v-.33h-1v.33Q89.89,16.32,90.42,16.32Z"/><path class="cls-2" d="M103.28,3.21c0-.33-.43-.65-1.3-1q-2,.77-2,1.3a2.11,2.11,0,0,1,1,.37A19.92,19.92,0,0,1,103.28,3.21Z"/><path class="cls-1" d="M104.62,3.54l.6-.12-.46-.59h-.15Z"/><path class="cls-1" d="M103.61,6.83a2.78,2.78,0,0,1,1-.33.58.58,0,0,0-.65-.65c-.46.05-.69.27-.69.65A.29.29,0,0,1,103.61,6.83Z"/><path class="cls-2" d="M89.5,12.11a2.07,2.07,0,0,1,.94-.37q0-.73-2.93-1.3v.37A2.16,2.16,0,0,0,89.5,12.11Z"/><path class="cls-1" d="M83.44,4.53v.61h.61q0-1,.69-1V3.84h-1Z"/><path class="cls-2" d="M88.18,15.63v-.33H87.12v1h.37A.61.61,0,0,0,88.18,15.63Z"/><path class="cls-2" d="M88.81,6.5c.08.43.31.65.69.65l1.63-.33a2.5,2.5,0,0,0,1,.33V6.83l-.33-.69A14.86,14.86,0,0,1,88.81,6.5Z"/><path d="M99.48,10h.65q.45,0,1-1.06l-.37-.61A1.6,1.6,0,0,0,99.48,10Z"/><path d="M89.95,8q-.61.12-.61.65v.65l2,.33.28-.69L90.27,8Z"/><path d="M106.29,3.21,106,2.6a3.77,3.77,0,0,1-1.2.23l.46.59Z"/><path class="cls-2" d="M104.26,6.65H104c-.38,0-.57.2-.57.53v.49h.28c.35,0,.53-.16.53-.49a.22.22,0,0,1-.24-.24C104.18,6.93,104.26,6.84,104.26,6.65Z"/><path class="cls-2" d="M102.71,2.78l-.28.49h.77A.43.43,0,0,0,102.71,2.78Z"/><path class="cls-2" d="M102.18,12.58l.24-.53v-1.3l1-.24V10a4.42,4.42,0,0,0-3.29,1.75A6.07,6.07,0,0,0,102.18,12.58Z"/><path class="cls-2" d="M36,37.6q0-.49-1-1.06V37.6a3.14,3.14,0,0,1,1,.24Z"/><path class="cls-2" d="M29,33.86V34h.41a1.3,1.3,0,0,1,.2-.57h-.2Q29,33.54,29,33.86Z"/><path class="cls-2" d="M67,53.35q0,.28.57.61l.2-.41-.41-.2Z"/><path class="cls-2" d="M63.22,54l.41-.61-1.75-.16A1.3,1.3,0,0,0,63.22,54Z"/><path class="cls-2" d="M37.92,51.32l.37-.69v-.33h-1v.33Q37.39,51.32,37.92,51.32Z"/><path class="cls-2" d="M46.51,33.94h1.3v-.38l-.46-.31h-.84Z"/><path class="cls-2" d="M50.78,38.21c0-.33-.43-.65-1.3-1q-2,.77-2,1.3a2.11,2.11,0,0,1,1,.37A19.92,19.92,0,0,1,50.78,38.21Z"/><path class="cls-1" d="M52.12,38.54l.6-.12-.46-.59h-.15Z"/><path class="cls-1" d="M51.11,41.83a2.78,2.78,0,0,1,1-.33.58.58,0,0,0-.65-.65c-.46.05-.69.27-.69.65A.29.29,0,0,1,51.11,41.83Z"/><path class="cls-2" d="M37,47.11a2.07,2.07,0,0,1,.94-.37q0-.73-2.93-1.3v.37A2.16,2.16,0,0,0,37,47.11Z"/><path class="cls-1" d="M30.94,39.53v.61h.61q0-1,.69-1v-.33h-1Z"/><path class="cls-2" d="M66.47,51v.33a.66.66,0,0,0,.69.61h.93q.69,0,.69-.61l-1.38-.69A2.07,2.07,0,0,1,66.47,51Z"/><path class="cls-2" d="M35.68,50.63v-.33H34.62v1H35A.61.61,0,0,0,35.68,50.63Z"/><path class="cls-2" d="M36.31,41.5c.08.43.31.65.69.65l1.63-.33a2.5,2.5,0,0,0,1,.33v-.33l-.33-.69A14.86,14.86,0,0,1,36.31,41.5Z"/><rect x="56.53" y="47.73" width="1.3" height="0.61"/><path d="M47,45h.65q.45,0,1-1.06l-.37-.61A1.6,1.6,0,0,0,47,45Z"/><path d="M37.45,43q-.61.12-.61.65v.65l2,.33.28-.69L37.77,43Z"/><path d="M67.31,44.88l-.69-.37h-.28c-.46.11-.69.34-.69.69v.28a2.26,2.26,0,0,1,1,.33Z"/><path d="M55,21.77h1q-.28-1.3-2-1.3h-.33Q53.73,21,55,21.77Z"/><polygon points="58.02 33.25 57.37 32.93 56.72 33.94 57.37 34.31 58.02 33.25"/><path d="M49.54,27.87c0-.46-.22-.69-.65-.69l-.37.69v.37h1Z"/><path d="M60.66,32.93q-.29,0-.29.33a4.17,4.17,0,0,0-2-.61q0,.81,2.6,1.3h.69Q61.68,33.46,60.66,32.93Z"/><path d="M79.76,33.44a2.77,2.77,0,0,1,1.06-.32v-.7l-.86.3Z"/><path d="M63.67,36.91l-.37.69h1Q64.28,36.91,63.67,36.91Z"/><path class="cls-2" d="M47.81,33.25h-.46l.46.31Z"/><path d="M53.79,38.21l-.33-.61a3.77,3.77,0,0,1-1.2.23l.46.59Z"/><rect class="cls-2" x="67.53" y="29.49" width="0.45" height="0.81"/><path class="cls-2" d="M60.29,33.39c0,.33.19.49.49.49H61V33.6a1.89,1.89,0,0,1-.24-.73A.47.47,0,0,0,60.29,33.39Z"/><path class="cls-2" d="M69.32,25.91v-.29h-.53v.73C69.14,26.36,69.32,26.21,69.32,25.91Z"/><path class="cls-2" d="M52.53,54.29v.28c.05.35.23.53.53.53v-.29A.47.47,0,0,0,52.53,54.29Z"/><path class="cls-2" d="M64.68,23.07h.49v-.29q0-.36-.77-.81h-.53Q64.32,23.07,64.68,23.07Z"/><path class="cls-2" d="M64.68,26.36h-.53l-.28,1.1Q64.32,27.46,64.68,26.36Z"/><path class="cls-2" d="M51.76,41.65h-.24c-.38,0-.57.2-.57.53v.49h.28c.35,0,.53-.16.53-.49a.22.22,0,0,1-.24-.24C51.68,41.93,51.76,41.84,51.76,41.65Z"/><path class="cls-2" d="M71.63,27.17v-.24H70.9q-.41,0-.81.77l.53.24Q71.63,27.54,71.63,27.17Z"/><path class="cls-2" d="M50.21,37.78l-.28.49h.77A.43.43,0,0,0,50.21,37.78Z"/><path class="cls-2" d="M49.68,47.58l.24-.53v-1.3l1-.24V45a4.42,4.42,0,0,0-3.29,1.75A6.07,6.07,0,0,0,49.68,47.58Z"/><path class="cls-2" d="M59.48,22.78v.53q.37,0,.81-.77v-.28H60C59.66,22.34,59.48,22.51,59.48,22.78Z"/><path class="cls-2" d="M67.24,43.68l-.29.53v.53h.29a.53.53,0,0,0,0-1.06Z"/><path class="cls-2" d="M64.4,47.87q-.16,0-1.26-1.3c-.38.05-.57.22-.57.49v.53q.61,0,1.58,1h.24l-.24-.53C64.32,48.07,64.4,48,64.4,47.87Z"/><path class="cls-2" d="M72.16,45q0,.37.77.73h.77L74,44.49h-.24A2.18,2.18,0,0,1,72.16,45Z"/><path class="cls-2" d="M59.77,48.07v.29q.08.53.53.53h.49v-1a1.69,1.69,0,0,1-.77-.29Z"/><path class="cls-2" d="M76,44.74l-.24.49a.54.54,0,0,0,.37.5v-1Z"/><path class="cls-2" d="M55.62,49.41l-.53.73v.28l.24.49a1.4,1.4,0,0,0,1.1-1Z"/><path class="cls-2" d="M55.09,26.93h-.77v.77Q54.72,27.7,55.09,26.93Z"/><path class="cls-2" d="M55.09,35.71H54.6q-.57,0-.81,1.26h.81l.73-.53A1.88,1.88,0,0,1,55.09,35.71Z"/><path class="cls-2" d="M57.94,54.57v.53h-.77l-1-.81v.28a3.69,3.69,0,0,0,2,1,.25.25,0,0,1,.29-.28,1.69,1.69,0,0,1-.29-.73Z"/><path class="cls-2" d="M60.54,26.93H59v.24q.16,0,1.54.29Z"/><path class="cls-2" d="M57.16,26.65q0,.37.77.81h.24a.47.47,0,0,0,.53-.53l-.53-.28Z"/><path d="M43.3,33.64l.2-.53v-.24h-.73v.24C42.8,33.46,43,33.64,43.3,33.64Z"/><path d="M77.85,54v.28a1.9,1.9,0,0,1,1,.53h.28q.45,0,.45-.53L78.34,54Z"/><path d="M76.15,45.73l.16,0c.33,0,.49-.18.49-.53h-.49V45H77v-.28h-.89Z"/><path d="M73.46,27.7h.73l1.3-.24v-.53q0-.24-1.79-1.58c0,.19-.08.28-.24.28l.24.53v1Z"/><path d="M80.17,27.95h.24a1.87,1.87,0,0,1,.77-.24v-.53h-.24Q80.58,27.17,80.17,27.95Z"/><path class="cls-2" d="M14.46,18.35q0,.28.57.61l.2-.41-.41-.2Z"/><path class="cls-2" d="M10.72,19l.41-.61-1.75-.16A1.3,1.3,0,0,0,10.72,19Z"/><path class="cls-1" d="M-.38,3.54l.6-.12-.46-.59H-.38Z"/><path class="cls-2" d="M14,16v.33a.66.66,0,0,0,.69.61h.93q.69,0,.69-.61l-1.38-.69A2.07,2.07,0,0,1,14,16Z"/><rect x="4.03" y="12.73" width="1.3" height="0.61"/><path d="M14.81,9.88l-.69-.37h-.28c-.46.11-.69.34-.69.69v.28a2.26,2.26,0,0,1,1,.33Z"/><path d="M11.17,1.91l-.37.69h1Q11.78,1.91,11.17,1.91Z"/><path d="M1.29,3.21,1,2.6a3.77,3.77,0,0,1-1.2.23l.46.59Z"/><path class="cls-2" d="M0,19.29v.28c.05.35.23.53.53.53v-.29A.47.47,0,0,0,0,19.29Z"/><path class="cls-2" d="M14.74,8.68l-.29.53v.53h.29a.47.47,0,0,0,.53-.53A.47.47,0,0,0,14.74,8.68Z"/><path class="cls-2" d="M11.9,12.87q-.16,0-1.26-1.3c-.38.05-.57.22-.57.49v.53q.61,0,1.58,1h.24l-.24-.53C11.82,13.07,11.9,13,11.9,12.87Z"/><path class="cls-2" d="M19.66,10q0,.37.77.73h.77l.24-1.26h-.24A2.18,2.18,0,0,1,19.66,10Z"/><path class="cls-2" d="M7.27,13.07v.29q.08.53.53.53h.49v-1a1.69,1.69,0,0,1-.77-.29Z"/><path class="cls-2" d="M23.53,9.74l-.24.49a.54.54,0,0,0,.37.5v-1Z"/><path class="cls-2" d="M3.12,14.41l-.53.73v.28l.24.49a1.4,1.4,0,0,0,1.1-1Z"/><path class="cls-2" d="M2.59.71H2.1Q1.53.71,1.29,2H2.1l.73-.53A1.88,1.88,0,0,1,2.59.71Z"/><path class="cls-2" d="M5.44,19.57v.53H4.66l-1-.81v.28a3.69,3.69,0,0,0,2,1A.25.25,0,0,1,6,20.31a1.69,1.69,0,0,1-.29-.73Z"/><path d="M25.35,19v.28a1.9,1.9,0,0,1,1,.53h.28q.45,0,.45-.53L25.84,19Z"/><path d="M23.65,10.73l.16,0c.33,0,.49-.18.49-.53h-.49V10h.73V9.74h-.89Z"/></pattern></defs><title>cosy-vast</title><g id="Layer_2" data-name="Layer 2"><g id="PROGRAMMA"><g id="dj-bg"><path class="cls-3" d="M228.44,214.44c54.51,14.27,72.67,110.23,130.21,99.33,45.22-8.57,136-80.56,107.16-164-22.34-64.59-51.67-17.21-143.36-93.11C267.82,11.4,206,37,140.67,22.51,96.1,12.62,40.56-13.58,16.61,73.43-12.43,179,78.29,261.51,123.54,243.25,164.16,226.87,200.48,207.12,228.44,214.44Z"/><path class="cls-4" d="M80.53,0A73.78,73.78,0,0,0,59.68,2.79l3.07,10.56h0l.06,0h0l.06,0h0l.06,0h0l.06,0h0l.06,0h0l.06,0h0l.06,0h0l.2-.06h0l.07,0h0l.06,0h0A62.4,62.4,0,0,1,78.32,11h2.21V0ZM41.13,11.76A70.2,70.2,0,0,0,26,26.69l8.78,6.63a60.85,60.85,0,0,1,10-10.5h0l.1-.08h0l0,0h0l.36-.29h0l.13-.1h0l.13-.1h0l.13-.1h0q.93-.73,1.87-1.4l-6.39-9ZM16.1,43A146.33,146.33,0,0,0,8.85,61.09L19.3,64.54q.72-2.19,1.47-4.26h0l0-.06h0l0-.05v0l0,0v-.25l.08-.22h0l0-.05h0l0-.05h0l0-.05h0l0-.05h0Q23.42,53.12,26,47.85L16.1,43ZM4,78.51a166.87,166.87,0,0,0-3.13,19l10.94,1.15c0-.36.08-.73.12-1.09h0v-.07h0v-.06h0v-.06h0V97h0V97h0a155.49,155.49,0,0,1,2.73-16L4,78.51Zm7,37.13-11,.1A157.84,157.84,0,0,0,1.36,135l10.9-1.45q-.22-1.66-.4-3.33h0v-.12h0l0-.3h0v-.49h0v-.07h0v-.13h0V129h0v-.06h0c-.43-4.34-.68-8.77-.72-13.26Zm4.48,34.63L4.82,153a158.59,158.59,0,0,0,5.9,18.41l10.25-4a147.31,147.31,0,0,1-4.7-14.17h0l0-.06h0l0-.05h0V153h0l0-.13v-.25l0-.14h0v-.11h0v0h0l-.06-.22h0q-.24-.91-.47-1.82ZM28,182.86,18.31,188a158.94,158.94,0,0,0,10.05,16.51l9-6.28A147.53,147.53,0,0,1,28,182.86ZM47.9,211.57l-8.22,7.31A142.76,142.76,0,0,0,53.6,232.54l7.14-8.37q-1.52-1.29-3-2.66h0l0,0h0l-.09-.09h0l0,0h0l-.05,0h0l0,0,0,0,0,0,0,0h0l0,0h0l-.09-.09h0l-.15-.14h0c-3.12-2.88-6.18-6-9.14-9.32Zm26.53,22.65-5.8,9.35a98,98,0,0,0,18.18,8.92l3.74-10.34a86.91,86.91,0,0,1-16.13-7.93Zm50.27,8.56-1.16.47a36.75,36.75,0,0,1-13.82,2.54h-1.44l-1.16-.05-.63,11c1.08.06,2.17.09,3.23.09a47.72,47.72,0,0,0,17.94-3.34l1.18-.48-4.14-10.19ZM157,229.2q-3.73,1.56-7.53,3.18h0l-.14.06-5.6,2.39-3.28,1.4,4.31,10.12,4.75-2c4.07-1.73,7.91-3.37,11.76-5L157,229.2Zm32.82-12.11-2.63.78h0l-.07,0H187l-.06,0h-.05l-.05,0h-.08l-.06,0h0l-.06,0h0c-4.14,1.28-8.37,2.76-12.69,4.38h0l-.05,0h0l-.05,0h-.05l-1,.37,3.9,10.29c6.07-2.3,11.37-4.1,16.19-5.49l-3-10.57Zm25.76-4.21h-.21q-1.54,0-3.1.09h-1.84l-.19,0h-.08q-1.58.13-3.18.33h-.56l1.42,10.91a60.4,60.4,0,0,1,7.74-.53h0a42.86,42.86,0,0,1,7,.54l1.8-10.85-1.31-.2h-3.07q-2-.16-4.14-.17h-.26Zm24.79,6.18-5.07,9.76a65.63,65.63,0,0,1,12.66,8.77l7.19-8.33q-2-1.72-4.05-3.31h0l-.06,0h0l-.05,0h0l0,0h0l0,0,0,0,0,0,0,0,0,0,0,0,0,0,0,0,0,0,0,0,0,0,0,0h0l0,0,0,0,0,0h0l0,0h0l0,0h0l0,0h0l0,0h0l0,0h0l0,0h0l0,0h0l-.05,0h0l-.11-.08h0l-.06,0h0l-.06,0h0a71.19,71.19,0,0,0-9-5.7h0l-.06,0h0l-.06,0h0l-.06,0h0l-.06,0h0l-.05,0h0l-.05,0Zm26.8,22.21-8.22,7.31c3.31,3.72,6.78,8,10.93,13.32l8.71-6.72q-1.93-2.5-3.89-5h0l0-.05h0l0,0h0l0,0h0l0,0h0l0,0h0l0,0v0l0,0,0,0,0,0,0,0,0,0,0,0v0l0,0h0l0-.05h0l0,0h0l0-.06h0l0-.05h0l0,0h0l0,0h0l-.13-.16h0c-2.18-2.7-4.39-5.33-6.65-7.87Zm21.66,27.48-8.8,6.6c3.35,4.47,7.26,9.65,11.26,14.58l8.54-6.93-1.7-2.11h0l-.07-.08,0,0-.06-.07,0-.05,0,0-.05-.07,0,0-.06-.07,0,0-.06-.08,0,0-.07-.09v0l-.07-.09h0l-.08-.1h0l-.08-.11h0c-2.85-3.61-5.67-7.34-8.49-11.1Zm22.29,26.94-7.78,7.78a91.53,91.53,0,0,0,15.8,12.91l5.88-9.3h0l0,0h0l0,0h0l0,0h0l0,0,0,0,0,0,0,0,0,0,0,0,0,0,0,0,0,0h0l0,0h0l0,0h0l0,0h0l0,0,0,0,0,0,0,0,0,0,0,0,0,0,0,0,0,0,0,0,0,0,0,0,0,0,0,0,0,0,0,0,0,0,0,0,0,0,0,0,0,0,0,0h0l0,0h0l0,0,0,0,0,0,0,0,0,0,0,0,0,0,0,0,0,0,0,0,0,0,0,0,0,0,0,0,0,0,0,0,0,0,0,0,0,0,0,0,0,0,0,0,0,0,0,0,0,0,0,0,0,0,0,0,0,0,0,0,0,0,0,0,0,0,0,0,0,0,0,0,0,0,0,0,0,0,0,0,0,0,0,0,0,0,0,0,0,0,0,0,0,0,0,0,0,0,0,0,0,0,0,0,0,0,0,0,0,0,0,0,0,0,0,0,0,0,0,0,0,0,0,0,0,0,0,0,0,0,0,0,0,0,0,0,0,0,0,0,0,0,0,0,0,0,0,0,0,0,0,0,0,0,0,0,0,0,0,0,0,0,0,0,0,0,0,0,0,0,0,0,0,0,0,0,0,0,0,0,0,0,0,0h0l0,0h0l0,0h0l0,0h0l0,0h0l0,0h0l0,0h0l0,0h0l0,0h0l0,0h0l0,0h0l0,0h0l0,0h0l0,0h0l0,0h0l0,0h0l0,0h0l0,0h0l0,0h0l0,0h0l0,0h0l0,0h0l0,0h0l0,0h0l0,0h0l0,0h0l0,0h0l0,0h0l0,0h0l0,0h0l0,0h0l0,0h0l-.05,0h0l-.05,0h0l-.05,0h0l0,0h0l0,0h0l0,0h0l0,0h0l0,0h0l-.05,0h0l-.16-.13h0l-.05,0h0l-.05,0h0l-.05,0h0l-.05,0h0a95.1,95.1,0,0,1-7.37-6.69Zm29.47,18-2.35,10.75a54.13,54.13,0,0,0,11.52,1.24,59,59,0,0,0,10.7-1l-2-10.82a48.17,48.17,0,0,1-7.49.8h-3.53a42.69,42.69,0,0,1-6.86-.92Zm50.26-12.71a142,142,0,0,1-14.2,7.1h0l-.11,0h0l-.11,0h0l-.05,0h0l0,0h0l0,0h-.08l0,0H376l0,0h-.07l-.06,0h0l-1.18.49L378.82,319a149.93,149.93,0,0,0,17.44-8.54l-5.44-9.56Zm28.51-20.21q-2.14,1.84-4.31,3.6h0l-.16.13h0l0,0h0l-.07.06h0l0,0h0l0,0h0l-.11.09h0l0,0h0l-.11.09h0l0,0h0l-.11.09h0l0,0h0l-.11.09h0l0,0h0l-.12.09h0l0,0h0l0,0h0l-.06.05h0l0,0h0l0,0h0l-.07.06h0l0,0h0l0,0h0l-.07.06h0l0,0h0l0,0h0l-.11.09h0l0,0h0L413,286h0q-3.89,3.06-7.82,5.84l6.35,9c5.14-3.63,10.19-7.58,15-11.72l-7.18-8.34Zm24.19-25.22q-1.93,2.46-3.95,4.85h0l-.36.43h0L439,261h0l0,0h0l-.14.16h0l0,0h0l-.1.12h0l0,0h0l0,0h0l-.14.16h0l0,0h0l-.1.12h0l0,0h0l0,0,0,0-.13.15h0l0,0h0l-.1.11h0l0,0h0l0,0h0l-.14.16h0l0,0v0l0,0,0,0,0,0h0l0,0h0l0,0v0l-.13.15v0l0,0h0l-.1.11h0l0,0h0l0,0h0l-.14.15h0l0,0h0l0,0h0l-.1.12h0l0,0h0l-.14.15h0l0,0h0l-.1.11h0l0,0h0l0,0h0l-.18.2h0l-.15.16h0l0,0h0l-.14.15h0l0,0h0l-.15.16h0l0,0h0l-.15.16h0l-.19.2h0l0,0h0l-.14.16h0q-1.69,1.85-3.42,3.64l7.91,7.65a184.45,184.45,0,0,0,12.58-14.42l-8.66-6.78Zm18.18-29.81a134.1,134.1,0,0,1-8.44,15.88l9.35,5.79a145.58,145.58,0,0,0,9.13-17.19l-10-4.48Zm9.16-33.62q-.24,2.41-.6,4.8h0v0h0l0,.21h0v.11h0v.29l0,.14v.73h0l0,.13h0v.12h0l0,.13h0v.06h0V199h0l0,.2h0v.07h0c-.44,2.51-1,5-1.59,7.48h0l0,.07h0l-.05.2h0v.06h0v.05h0l0,.13v.45l0,.13h0v.1h0l-.06.21h0q-.2.76-.41,1.51l10.59,3a115.12,115.12,0,0,0,3.72-19.53l-10.94-1.1Zm7.9-37.49-10.64,2.79q.92,3.49,1.56,7h0v.05h0v.05h0v.05h0l0,.23h0V165h0l0,.11h0V166h0v.41h0v.07h0v.06h0v.12h0v.06h0l0,.2h0V167h0v.06h0v.06h0l0,.27h0v.06h0v.06h0q.58,3.8.86,7.56l11-.81a110,110,0,0,0-3.3-19.7Zm-16.29-35.66-8.69,6.74c.32.41.63.83.95,1.26h0l0,0h0l0,0h0v0h0v0h0v0h0v0h0v0h.05v0h0v0h0l0,0h0v0h0l0,0h0l.11.16h0l0,0h0l0,0h0l0,0h0l0,0h0v0h0v0h0l0,0h0l0,0h0l0,0h0l0,.05h0l0,.05h0a74.57,74.57,0,0,1,7.23,13.49L472.72,137a80.33,80.33,0,0,0-10.24-18.09ZM427,97.88l-2.92,10.6c2,.55,3.9,1.1,5.74,1.68h0l.05,0h0l.07,0h0l0,0h.67l0,0h.09l0,0h0l0,0h0l.05,0h0l.05,0h0l.06,0h0l.05,0h0l.06,0h0l.06,0h0l.06,0h0l.06,0h0l.06,0h0l.06,0h0l.06,0h0l.06,0h0l.06,0h0l.06,0h0l.06,0h0l.13,0h0l.13,0h0l.13,0h0l.13,0h0l.13,0h0l.13,0h0a56.71,56.71,0,0,1,8.17,3.56L446.2,105c-6.19-3.35-12.87-5.42-19.16-7.16Zm-32.48-9.77-3.94,10.27c5.08,1.95,9.81,3.51,14.24,4.84h0l.11,0h0l.07,0h0l.07,0h.05l.06,0h.42l.05,0h0l.05,0h.14l.05,0h0l.05,0h.07l.05,0h0l.12,0h0l.12,0h0l.12,0h0l1.17.34,3-10.57c-5.93-1.7-11.07-3.41-16.18-5.37ZM364.89,73.55,359.24,83l.36.22h0l.32.19h0l.32.19h0l0,0h0l0,0h0l.15.09h0l0,0h0l.1.06h0l.2.12h0l0,0h0l0,0h0l.15.09h0l0,0h0l0,0h0l0,0,0,0,0,0h0l.09.05h0l0,0,0,0,0,0,0,0,0,0,0,0,0,0,.05,0h0l.05,0h0l0,0,0,0h0l0,0,0,0,0,0,0,0h0l.06,0h0l0,0h0l0,0h0l.05,0h0l.12.07h0l.05,0h0l0,0h0l.05,0h0l.12.07h0l.06,0h0l.06,0h0l.06,0h0c4.2,2.41,8.22,4.53,12.07,6.42l4.84-9.88c-4.94-2.42-10-5.17-15-8.17ZM337.25,54.42l-6.77,8.67,2.28,1.77h0l.05,0h0l0,0,0,0,0,0,0,0,0,0,0,0,0,0,0,0,0,0,0,0h0l.05,0h0q6.07,4.64,11.74,8.56l6.26-9c-4.58-3.17-9.28-6.63-14-10.3ZM307,33.18l-5.1,9.75a115.28,115.28,0,0,1,15.23,9.56l6.55-8.84A127,127,0,0,0,307,33.18ZM271.13,20.75,269,31.54a131.43,131.43,0,0,1,16.34,4.32h0l0,0h0l0,0h0l.14,0h.17l.06,0h.08l0,0h0l.06,0h0l.07,0h0l.06,0h0l.06,0h0l.13,0L290,25.81a140.54,140.54,0,0,0-18.83-5.06ZM234.55,17l-.34,11c6,.19,12,.52,18,1.1l1.07-10.95c-5.69-.56-11.8-.93-18.69-1.15Zm-35.28-.28-.06,11q4.65,0,9.26,0h8.74l0-11h-7.8c-3.38,0-6.77,0-10.17,0Zm-33.93-1.47-1.09,10.95c6,.6,12,1,18,1.19l.41-11c-6.27-.24-11.92-.61-17.28-1.14Zm-32.78-6-2.7,10.66c3.56.9,7.07,1.77,10.52,2.54h.07l.08,0h.07l.07,0,.1,0h0l2.95.63h0l.1,0h0l.08,0h0l.09,0h.29l.11,0h0l3,.57,2-10.82c-2.14-.39-4.27-.82-6.34-1.28-3.72-.83-7.56-1.78-10.49-2.52ZM97.35,1.34,95.73,12.22c4.23.63,8.49,1.46,12.73,2.4h.25l.14,0h.66l3.85.9,2.56-10.7c-7.21-1.72-13.12-2.9-18.59-3.72Z"/></g><ellipse class="cls-5" cx="441.73" cy="119.84" rx="4.89" ry="2.65" transform="translate(44.64 347.45) rotate(-45)"/><polyline class="cls-6" points="407.96 151.68 407.96 127.51 424.65 120.03 424.65 141.32"/><ellipse class="cls-5" cx="421.01" cy="144.01" rx="4.89" ry="2.65" transform="translate(21.49 339.88) rotate(-45)"/><ellipse class="cls-5" cx="404.33" cy="153.79" rx="4.89" ry="2.65" transform="translate(9.68 330.94) rotate(-45)"/><polyline class="cls-6" points="460.33 157.44 460.33 133.26 477.02 125.78 477.02 147.08"/><ellipse class="cls-5" cx="473.38" cy="149.76" rx="4.89" ry="2.65" transform="translate(32.75 378.6) rotate(-45)"/><ellipse class="cls-5" cx="456.69" cy="159.54" rx="4.89" ry="2.65" transform="translate(20.95 369.66) rotate(-45)"/><line class="cls-7" x1="445.62" y1="118.18" x2="445.37" y2="95.86"/><ellipse class="cls-5" cx="488.34" cy="85.31" rx="4.89" ry="2.65" transform="translate(82.71 370.3) rotate(-45)"/><polyline class="cls-6" points="492.23 83.65 491.98 61.33 498.89 56.73"/><polygon class="cls-8" points="351.25 250.44 351.25 228.4 446.44 285.15 446.44 307.2 351.25 250.44"/><polygon class="cls-8" points="542.86 258.3 542.86 236.25 446.44 285.15 446.44 307.2 542.86 258.3"/><path class="cls-9" d="M541.26,238.62,448.88,284a5.09,5.09,0,0,1-4.78-.16l-91.29-52.7a3.11,3.11,0,0,1,.18-5.48l91.14-44.72a6.86,6.86,0,0,1,6.45.22l90.85,52.45A2.87,2.87,0,0,1,541.26,238.62Z"/><path d="M446.21,260.28c-36.56,0-66.31-12.94-66.31-28.84s29.75-28.84,66.31-28.84,66.31,12.94,66.31,28.84S482.78,260.28,446.21,260.28Z"/><path class="cls-2" d="M446.21,203.3c17.71,0,34.34,3,46.82,8.54,12.11,5.34,18.78,12.3,18.78,19.6S505.14,245.69,493,251c-12.48,5.5-29.11,8.54-46.82,8.54s-34.34-3-46.82-8.54c-12.11-5.34-18.78-12.3-18.78-19.6s6.67-14.26,18.78-19.6c12.48-5.5,29.11-8.54,46.82-8.54m0-1.42c-37,0-67,13.23-67,29.56s30,29.56,67,29.56,67-13.23,67-29.56-30-29.56-67-29.56Z"/><path d="M445.31,260.28c-36.56,0-66.31-12.94-66.31-28.84s29.75-28.84,66.31-28.84,66.31,12.94,66.31,28.84S481.88,260.28,445.31,260.28Z"/><path class="cls-2" d="M445.31,203.3c17.71,0,34.34,3,46.82,8.54,12.11,5.34,18.78,12.3,18.78,19.6s-6.67,14.26-18.78,19.6c-12.48,5.5-29.11,8.54-46.82,8.54s-34.34-3-46.82-8.54c-12.11-5.34-18.78-12.3-18.78-19.6s6.67-14.26,18.78-19.6c12.48-5.5,29.11-8.54,46.82-8.54m0-1.42c-37,0-67,13.23-67,29.56s30,29.56,67,29.56,67-13.23,67-29.56-30-29.56-67-29.56Z"/><path d="M446.21,260.28c-36.56,0-66.31-12.94-66.31-28.84s29.75-28.84,66.31-28.84,66.31,12.94,66.31,28.84S482.78,260.28,446.21,260.28Z"/><path class="cls-2" d="M446.21,203.3c17.71,0,34.34,3,46.82,8.54,12.11,5.34,18.78,12.3,18.78,19.6S505.14,245.69,493,251c-12.48,5.5-29.11,8.54-46.82,8.54s-34.34-3-46.82-8.54c-12.11-5.34-18.78-12.3-18.78-19.6s6.67-14.26,18.78-19.6c12.48-5.5,29.11-8.54,46.82-8.54m0-1.42c-37,0-67,13.23-67,29.56s30,29.56,67,29.56,67-13.23,67-29.56-30-29.56-67-29.56Z"/><path d="M446.21,255.37c-32.62,0-59.15-11-59.15-24.5s26.54-24.5,59.15-24.5,59.15,11,59.15,24.5S478.83,255.37,446.21,255.37Z"/><path class="cls-2" d="M446.21,207c15.8,0,30.65,2.58,41.79,7.26,10.64,4.47,16.75,10.53,16.75,16.62S498.64,243,488,247.49c-11.14,4.68-26,7.26-41.79,7.26s-30.65-2.58-41.79-7.26C393.78,243,387.68,237,387.68,230.88s6.1-12.15,16.75-16.62c11.14-4.68,26-7.26,41.79-7.26m0-1.24c-33,0-59.77,11.24-59.77,25.12S413.2,256,446.21,256,506,244.75,506,230.88s-26.76-25.12-59.77-25.12Z"/><ellipse class="cls-10" cx="446.92" cy="229.12" rx="34.81" ry="12.15"/><ellipse class="cls-11" cx="447.63" cy="229.12" rx="9.37" ry="2.47"/><path class="cls-2" d="M211.79,114.1l.14.19c.17.23.38.25.64.06-.1-.13-.09-.23,0-.31a1.83,1.83,0,0,1,.62.43l.19-.14-.14-.19A1.09,1.09,0,0,0,211.79,114.1Z"/><path class="cls-2" d="M261.29,91l.68.92q1-1.18-.14-2.76l-.23-.31Q261.1,89.19,261.29,91Z"/><path class="cls-2" d="M201,75.16a3.26,3.26,0,0,1,1,.77l.66-.49c-.3-.19-.59-.39-.89-.6Z"/><path class="cls-2" d="M213.43,55.85a6.73,6.73,0,0,1,.35-2.1q-.48-.48-.86-.2l-.5.37a3.12,3.12,0,0,1,.15,2.21l.17.23.33-.6C213.18,55.92,213.3,55.95,213.43,55.85Z"/><path class="cls-2" d="M72.38,190.84l-.19.14c-.23.17-.25.38-.06.64.13-.1.23-.09.31,0a1.83,1.83,0,0,1-.43.62l.14.19.19-.14A1.09,1.09,0,0,0,72.38,190.84Z"/><path class="cls-2" d="M95.51,240.33l-.92.68q1.18,1,2.76-.14l.31-.23Q97.28,240.15,95.51,240.33Z"/><path class="cls-2" d="M111.32,180.09a3.26,3.26,0,0,1-.77,1l.49.66c.19-.3.39-.59.6-.89Z"/><path class="cls-2" d="M130.63,192.48a6.73,6.73,0,0,1,2.1.35q.48-.48.2-.86l-.37-.5a3.12,3.12,0,0,1-2.21.15l-.23.17.6.33C130.56,192.23,130.53,192.35,130.63,192.48Z"/><path class="cls-2" d="M283.19,203.15l.71-.9q-1.41-.69-2.63.85l-.24.3Q281.53,203.79,283.19,203.15Z"/><path class="cls-2" d="M307.71,247.57a3.26,3.26,0,0,1,.47-1.21l-.65-.51c-.1.34-.22.67-.34,1Z"/><path class="cls-2" d="M365.48,164.24q.34.46,1.66.32l-.74-1a3.69,3.69,0,0,1-1.09.45Z"/><path class="cls-2" d="M367.61,112.19l-.11-.15-.38.28a1.53,1.53,0,0,1,.21.68l.19-.14Q367.84,112.5,367.61,112.19Z"/><path class="cls-1" d="M225,118.8a3.27,3.27,0,0,1-.73,1,.68.68,0,0,0,1.07.16q.6-.56.2-1.1A.34.34,0,0,1,225,118.8Z"/><path class="cls-1" d="M245.71,106.84l-.43-.58-.58.43q.68.92,0,1.41l.23.31.92-.68Z"/><rect class="cls-2" x="233.5" y="117.69" width="0.53" height="0.96" transform="translate(-24.41 162.4) rotate(-36.54)"/><path class="cls-2" d="M249.34,142.1l.18.64.17.23.69-.51-.17-.23A.58.58,0,0,0,249.34,142.1Z"/><path class="cls-2" d="M280.49,151.82l-.2-.27a2.24,2.24,0,0,1-1.33.21l-.27.2q-.42.31-.05.81l1.39-.61Z"/><path class="cls-2" d="M122.23,57.5l-.2-.27a2.24,2.24,0,0,1-1.33.21l-.27.2q-.42.31-.05.81l1.39-.61Z"/><path class="cls-2" d="M51.23,107.5l-.2-.27a2.24,2.24,0,0,1-1.33.21l-.27.2q-.42.31-.05.81l1.39-.61Z"/><path class="cls-2" d="M299.65,107l.54-.4q-.26-.35-1.34-.2l.1.7Z"/><path class="cls-2" d="M108.65,107l.54-.4q-.26-.35-1.34-.2l.1.7Z"/><path class="cls-2" d="M379.65,207l.54-.4q-.26-.35-1.34-.2l.1.7Z"/><path class="cls-2" d="M160.15,116.18q-.46.34-.32,1.66l1-.74a3.69,3.69,0,0,1-.45-1.09Z"/><path class="cls-2" d="M183.81,182.38l.15-.11-.28-.38a1.53,1.53,0,0,1-.68.21l.14.19Q183.5,182.61,183.81,182.38Z"/><path class="cls-2" d="M151.17,162.32l.4.54q.35-.26.2-1.34l-.7.1Z"/></g></g></svg>