<?xml version="1.0" encoding="UTF-8" standalone="no"?>
<svg xmlns="http://www.w3.org/2000/svg" xmlns:xlink="http://www.w3.org/1999/xlink" viewBox="0 0 543.57 325.63">
<defs>
<style>.cls-1,.cls-6{fill:none;}.cls-10,.cls-2,.cls-9{fill:#fff;}.cls-3{fill:#ef8269;}.cls-4{fill:url(#a);}.cls-10,.cls-5,.cls-6,.cls-7,.cls-8,.cls-9{stroke:#000;}.cls-10,.cls-11,.cls-5{stroke-miterlimit:10;}.cls-5,.cls-6,.cls-7{stroke-width:3.45px;}.cls-6,.cls-7,.cls-8,.cls-9{stroke-linecap:round;stroke-linejoin:round;}.cls-8,.cls-9{stroke-width:1.42px;}.cls-10{stroke-width:0.71px;}.cls-11{stroke:#fff;stroke-width:0.17px;}</style>
<pattern id="a" data-name="New Pattern 2" height="70" width="105" patternUnits="userSpaceOnUse" viewBox="0 0 105 70">
<rect width="105" class="cls-1" height="70"/>
<path class="cls-2" d="m81.4 68.9v0.1h0.41a1.3 1.3 0 0 1 0.2 -0.57h-0.2q-0.4 0.1-0.4 0.5z"/>
<path class="cls-2" d="m99 68.9h1.3v-0.38l-0.46-0.31h-0.5z"/>
<path d="m102 62.9c0-0.46-0.22-0.69-0.65-0.69l-0.37 0.69v0.37h1z"/>
<path class="cls-2" d="m100 68.2h-0.46l0.46 0.31z"/>
<path d="m95.8 68.6l0.2-0.53v-0.24h-0.73v0.24c0 0.4 0.2 0.5 0.5 0.5z"/>
<path d="m2.53 56.8h1q-0.28-1.3-2-1.3h-0.3q0 0.5 1.3 1.3z"/>
<polygon points="5.52 68.2 4.87 67.9 4.22 68.9 4.87 69.3"/>
<path d="m8.16 67.9q-0.29 0-0.29 0.33a4.17 4.17 0 0 0 -2 -0.61q0 0.81 2.6 1.3h0.69q0.02-0.4-1-1z"/>
<path d="m27.3 68.4a2.77 2.77 0 0 1 1.06 -0.32v-0.7l-0.86 0.3z"/>
<rect y="64.5" x="15" height=".81" class="cls-2" width=".45"/>
<path class="cls-2" d="m7.79 68.4c0 0.33 0.19 0.49 0.49 0.49h0.24v-0.3a1.89 1.89 0 0 1 -0.24 -0.73 0.47 0.47 0 0 0 -0.49 0.5z"/>
<path class="cls-2" d="m16.8 60.9v-0.29h-0.53v0.73c0.3 0.1 0.5-0.1 0.5-0.4z"/>
<path class="cls-2" d="m12.2 58.1h0.49v-0.29q0-0.36-0.77-0.81h-0.53q0.4 1.1 0.8 1.1z"/>
<path class="cls-2" d="m12.2 61.4h-0.53l-0.28 1.1q0.4 0 0.8-1.1z"/>
<path class="cls-2" d="m19.1 62.2v-0.24h-0.7q-0.41 0-0.81 0.77l0.53 0.24q1-0.5 1-0.8z"/>
<path class="cls-2" d="m7 57.8v0.53q0.37 0 0.81-0.77v-0.28h-0.3c-0.35 0.1-0.51 0.3-0.51 0.6z"/>
<path class="cls-2" d="m2.59 61.9h-0.77v0.77q0.4 0 0.77-0.8z"/>
<path class="cls-2" d="m8 61.9h-1.51v0.24q0.16 0 1.54 0.29z"/>
<path class="cls-2" d="m4.66 61.6q0 0.37 0.77 0.81h0.24a0.47 0.47 0 0 0 0.53 -0.53l-0.53-0.28z"/>
<path d="m21 62.7h0.73l1.3-0.24v-0.53q0-0.24-1.79-1.58c0 0.19-0.08 0.28-0.24 0.28l0.24 0.53v1z"/>
<path d="m27.7 63h0.24a1.87 1.87 0 0 1 0.77 -0.24v-0.53h-0.24q-0.4-0.1-0.8 0.7z"/>
<path class="cls-2" d="m88.5 2.6q0-0.49-1-1.06v1.06a3.14 3.14 0 0 1 1 0.24z"/>
<path class="cls-2" d="m90.4 16.3l0.37-0.69v-0.33h-1v0.33q0.1 0.7 0.6 0.7z"/>
<path class="cls-2" d="m103 3.21c0-0.33-0.43-0.65-1.3-1q-2 0.77-2 1.3a2.11 2.11 0 0 1 1 0.37 19.9 19.9 0 0 1 2 -0.67z"/>
<path class="cls-1" d="m105 3.54l0.6-0.12-0.46-0.59h-0.15z"/>
<path class="cls-1" d="m104 6.83a2.78 2.78 0 0 1 1 -0.33 0.58 0.58 0 0 0 -0.65 -0.65c-0.46 0.05-0.69 0.27-0.69 0.65a0.29 0.29 0 0 1 1 0.33z"/>
<path class="cls-2" d="m89.5 12.1a2.07 2.07 0 0 1 0.94 -0.37q0-0.73-2.93-1.3v0.37a2.16 2.16 0 0 0 2 1.3z"/>
<path class="cls-1" d="m83.4 4.53v0.61h0.61q0-1 0.69-1v-0.3h-1z"/>
<path class="cls-2" d="m88.2 15.6v-0.33h-1.1v1h0.37a0.61 0.61 0 0 0 0.7 -0.7z"/>
<path class="cls-2" d="m88.8 6.5c0.08 0.43 0.31 0.65 0.69 0.65l1.63-0.33a2.5 2.5 0 0 0 1 0.33v-0.32l-0.33-0.69a14.9 14.9 0 0 1 -3 0.36z"/>
<path d="m99.5 10h0.65q0.45 0 1-1.06l-0.37-0.61a1.6 1.6 0 0 0 -1.5 1.67z"/>
<path d="m90 8q-0.61 0.12-0.61 0.65v0.65l2 0.33 0.28-0.69-1.4-0.94z"/>
<path d="m106 3.21v-0.61a3.77 3.77 0 0 1 -1.2 0.23l0.46 0.59z"/>
<path class="cls-2" d="m104 6.65c-0.38 0-0.57 0.2-0.57 0.53v0.49h0.28c0.35 0 0.53-0.16 0.53-0.49a0.22 0.22 0 0 1 -0.24 -0.24v-0.29z"/>
<path class="cls-2" d="m103 2.78l-0.28 0.49h0.77a0.43 0.43 0 0 0 -1 -0.49z"/>
<path class="cls-2" d="m102 12.6l0.24-0.53v-1.3l1-0.24v-0.6a4.42 4.42 0 0 0 -3.29 1.75 6.07 6.07 0 0 0 2.3 0.8z"/>
<path class="cls-2" d="m36 37.6q0-0.49-1-1.06v1.1a3.14 3.14 0 0 1 1 0.24z"/>
<path class="cls-2" d="m29 33.9v0.1h0.41a1.3 1.3 0 0 1 0.2 -0.57h-0.2q-0.4 0.1-0.4 0.5z"/>
<path class="cls-2" d="m67 53.4q0 0.28 0.57 0.61l0.2-0.41-0.41-0.2z"/>
<path class="cls-2" d="m63.2 54l0.41-0.61-1.75-0.16a1.3 1.3 0 0 0 1.3 0.8z"/>
<path class="cls-2" d="m37.9 51.3l0.37-0.69v-0.33h-1v0.33q0.1 0.7 0.6 0.7z"/>
<path class="cls-2" d="m46.5 33.9h1.3v-0.38l-0.46-0.31h-0.84z"/>
<path class="cls-2" d="m50.8 38.2c0-0.33-0.43-0.65-1.3-1q-2 0.77-2 1.3a2.11 2.11 0 0 1 1 0.37 19.9 19.9 0 0 1 2.3 -0.7z"/>
<path class="cls-1" d="m52.1 38.5l0.6-0.12-0.46-0.59h-0.15z"/>
<path class="cls-1" d="m51.1 41.8a2.78 2.78 0 0 1 1 -0.33 0.58 0.58 0 0 0 -0.65 -0.65c-0.46 0.05-0.69 0.27-0.69 0.65a0.29 0.29 0 0 1 0.4 0.4z"/>
<path class="cls-2" d="m37 47.1a2.07 2.07 0 0 1 0.94 -0.37q0-0.73-2.93-1.3v0.37a2.16 2.16 0 0 0 2 1.3z"/>
<path class="cls-1" d="m30.9 39.5v0.61h0.61q0-1 0.69-1v-0.33h-1z"/>
<path class="cls-2" d="m66.5 51v0.33a0.66 0.66 0 0 0 0.69 0.61h0.93q0.69 0 0.69-0.61l-1.38-0.69a2.07 2.07 0 0 1 -0.9 0.4z"/>
<path class="cls-2" d="m35.7 50.6v-0.33h-1.1v1h0.4a0.61 0.61 0 0 0 0.7 -0.7z"/>
<path class="cls-2" d="m36.3 41.5c0.08 0.43 0.31 0.65 0.69 0.65l1.63-0.33a2.5 2.5 0 0 0 1 0.33v-0.33l-0.33-0.69a14.9 14.9 0 0 1 -3 0.3z"/>
<rect y="47.7" x="56.5" height=".61" width="1.3"/>
<path d="m47 45h0.65q0.45 0 1-1.06l-0.37-0.61a1.6 1.6 0 0 0 -1.2 1.7z"/>
<path d="m37.4 43q-0.61 0.12-0.61 0.65v0.65l2 0.33 0.28-0.69-1.3-0.8z"/>
<path d="m67.3 44.9l-0.69-0.37h-0.28c-0.46 0.11-0.69 0.34-0.69 0.69v0.28a2.26 2.26 0 0 1 1 0.33z"/>
<path d="m55 21.8h1q-0.28-1.3-2-1.3h-0.33q0 0.5 1.3 1.3z"/>
<polygon points="58 33.2 57.4 32.9 56.7 33.9 57.4 34.3"/>
<path d="m49.5 27.9c0-0.46-0.22-0.69-0.65-0.69l-0.37 0.69v0.37h1z"/>
<path d="m60.7 32.9q-0.29 0-0.29 0.33a4.17 4.17 0 0 0 -2 -0.61q0 0.81 2.6 1.3h0.69q0-0.4-1-1z"/>
<path d="m79.8 33.4a2.77 2.77 0 0 1 1.06 -0.32v-0.7l-0.86 0.3z"/>
<path d="m63.7 36.9l-0.37 0.69h1q0-0.7-0.6-0.7z"/>
<path class="cls-2" d="m47.8 33.2h-0.46l0.46 0.31z"/>
<path d="m53.8 38.2l-0.33-0.61a3.77 3.77 0 0 1 -1.2 0.23l0.46 0.59z"/>
<rect y="29.5" x="67.5" height=".81" class="cls-2" width=".45"/>
<path class="cls-2" d="m60.3 33.4c0 0.33 0.19 0.49 0.49 0.49h0.2v-0.3a1.89 1.89 0 0 1 -0.24 -0.73 0.47 0.47 0 0 0 -0.5 0.5z"/>
<path class="cls-2" d="m69.3 25.9v-0.29h-0.53v0.73c0.3 0.1 0.5-0.1 0.5-0.4z"/>
<path class="cls-2" d="m52.5 54.3v0.28c0.05 0.35 0.23 0.53 0.53 0.53v-0.29a0.47 0.47 0 0 0 -0.5 -0.5z"/>
<path class="cls-2" d="m64.7 23.1h0.49v-0.29q0-0.36-0.77-0.81h-0.53q0.4 1.1 0.8 1.1z"/>
<path class="cls-2" d="m64.7 26.4h-0.53l-0.28 1.1q0.4 0 0.8-1.1z"/>
<path class="cls-2" d="m51.8 41.6h-0.24c-0.38 0-0.57 0.2-0.57 0.53v0.49h0.28c0.35 0 0.53-0.16 0.53-0.49a0.22 0.22 0 0 1 -0.24 -0.24c0.1 0 0.2-0.1 0.2-0.3z"/>
<path class="cls-2" d="m71.6 27.2v-0.24h-0.7q-0.41 0-0.81 0.77l0.53 0.24q1-0.5 1-0.8z"/>
<path class="cls-2" d="m50.2 37.8l-0.28 0.49h0.77a0.43 0.43 0 0 0 -0.5 -0.5z"/>
<path class="cls-2" d="m49.7 47.6l0.24-0.53v-1.3l1-0.24v-0.6a4.42 4.42 0 0 0 -3.29 1.75 6.07 6.07 0 0 0 2.1 0.8z"/>
<path class="cls-2" d="m59.5 22.8v0.53q0.37 0 0.81-0.77v-0.28h-0.3c-0.3 0.1-0.5 0.3-0.5 0.6z"/>
<path class="cls-2" d="m67.2 43.7l-0.29 0.53v0.53h0.29a0.53 0.53 0 0 0 0 -1.06z"/>
<path class="cls-2" d="m64.4 47.9q-0.16 0-1.26-1.3c-0.38 0.05-0.57 0.22-0.57 0.49v0.53q0.61 0 1.58 1h0.24l-0.24-0.53c0.2 0 0.3-0.1 0.3-0.2z"/>
<path class="cls-2" d="m72.2 45q0 0.37 0.77 0.73h0.77l0.2-1.2h-0.24a2.18 2.18 0 0 1 -1.6 0.5z"/>
<path class="cls-2" d="m59.8 48.1v0.29q0.08 0.53 0.53 0.53h0.49v-1a1.69 1.69 0 0 1 -0.77 -0.29z"/>
<path class="cls-2" d="m76 44.7l-0.24 0.49a0.54 0.54 0 0 0 0.37 0.5v-1z"/>
<path class="cls-2" d="m55.6 49.4l-0.53 0.73v0.28l0.24 0.49a1.4 1.4 0 0 0 1.1 -1z"/>
<path class="cls-2" d="m55.1 26.9h-0.77v0.77q0.4 0 0.8-0.8z"/>
<path class="cls-2" d="m55.1 35.7h-0.5q-0.57 0-0.81 1.26h0.81l0.73-0.53a1.88 1.88 0 0 1 -0.2 -0.8z"/>
<path class="cls-2" d="m57.9 54.6v0.53h-0.77l-1-0.81v0.28a3.69 3.69 0 0 0 2 1 0.25 0.25 0 0 1 0.29 -0.28 1.69 1.69 0 0 1 -0.29 -0.73z"/>
<path class="cls-2" d="m60.5 26.9h-1.5v0.24q0.16 0 1.54 0.29z"/>
<path class="cls-2" d="m57.2 26.6q0 0.37 0.77 0.81h0.24a0.47 0.47 0 0 0 0.53 -0.53l-0.53-0.28z"/>
<path d="m43.3 33.6l0.2-0.53v-0.24h-0.73v0.24c0 0.4 0.2 0.5 0.5 0.5z"/>
<path d="m77.8 54v0.28a1.9 1.9 0 0 1 1 0.53h0.28q0.45 0 0.45-0.53l-1.3-0.3z"/>
<path d="m76.2 45.7h0.16c0.33 0 0.49-0.18 0.49-0.53h-0.49v-0.2h0.6v-0.28h-0.89z"/>
<path d="m73.5 27.7h0.73l1.3-0.24v-0.53q0-0.24-1.79-1.58c0 0.19-0.08 0.28-0.24 0.28l0.24 0.53v1z"/>
<path d="m80.2 28h0.24a1.87 1.87 0 0 1 0.77 -0.24v-0.53h-0.24q-0.4-0.1-0.8 0.7z"/>
<path class="cls-2" d="m14.5 18.4q0 0.28 0.57 0.61l0.2-0.41-0.41-0.2z"/>
<path class="cls-2" d="m10.7 19l0.41-0.61-1.75-0.16a1.3 1.3 0 0 0 1.34 0.8z"/>
<path class="cls-1" d="m-0.38 3.54l0.6-0.12-0.46-0.59h-0.14z"/>
<path class="cls-2" d="m14 16v0.33a0.66 0.66 0 0 0 0.69 0.61h0.93q0.69 0 0.69-0.61l-1.38-0.69a2.07 2.07 0 0 1 -0.9 0.4z"/>
<rect y="12.7" x="4.03" height=".61" width="1.3"/>
<path d="m14.8 9.88l-0.69-0.37h-0.28c-0.46 0.11-0.69 0.34-0.69 0.69v0.28a2.26 2.26 0 0 1 1 0.33z"/>
<path d="m11.2 1.91l-0.37 0.69h1q0-0.69-0.6-0.69z"/>
<path d="m1.29 3.21-0.29-0.61a3.77 3.77 0 0 1 -1.2 0.23l0.46 0.59z"/>
<path class="cls-2" d="m0 19.3v0.28c0.05 0.35 0.23 0.53 0.53 0.53v-0.29a0.47 0.47 0 0 0 -0.53 -0.5z"/>
<path class="cls-2" d="m14.7 8.68l-0.29 0.53v0.53h0.29a0.47 0.47 0 0 0 0.53 -0.53 0.47 0.47 0 0 0 -0.5 -0.53z"/>
<path class="cls-2" d="m11.9 12.9q-0.16 0-1.26-1.3c-0.38 0.05-0.57 0.22-0.57 0.49v0.53q0.61 0 1.58 1h0.24l-0.24-0.53c0.2 0 0.3-0.1 0.3-0.2z"/>
<path class="cls-2" d="m19.7 10q0 0.37 0.77 0.73h0.77l0.24-1.26h-0.24a2.18 2.18 0 0 1 -1.6 0.56z"/>
<path class="cls-2" d="m7.27 13.1v0.29q0.08 0.53 0.53 0.53h0.49v-1a1.69 1.69 0 0 1 -0.77 -0.29z"/>
<path class="cls-2" d="m23.5 9.74l-0.24 0.49a0.54 0.54 0 0 0 0.37 0.5v-1z"/>
<path class="cls-2" d="m3.12 14.4l-0.53 0.73v0.28l0.24 0.49a1.4 1.4 0 0 0 1.1 -1z"/>
<path class="cls-2" d="m2.59 0.71h-0.49q-0.57 0-0.81 1.29h0.81l0.73-0.53a1.88 1.88 0 0 1 -0.24 -0.76z"/>
<path class="cls-2" d="m5.44 19.6v0.53h-0.78l-1-0.81v0.28a3.69 3.69 0 0 0 2 1 0.25 0.25 0 0 1 0.34 -0.3 1.69 1.69 0 0 1 -0.29 -0.73z"/>
<path d="m25.4 19v0.28a1.9 1.9 0 0 1 1 0.53h0.28q0.45 0 0.45-0.53l-1.4-0.3z"/>
<path d="m23.6 10.7h0.16c0.33 0 0.49-0.18 0.49-0.53h-0.49v-0.2h0.73v-0.26h-0.89z"/>
</pattern>
</defs>
<title>cosy-vast</title>
<g data-name="Layer 2">
<g id="PROGRAMMA">
<g id="dj-bg">
<path class="cls-3" d="m228 214c54.5 14.3 72.7 110 130 99.3 45.2-8.57 136-80.6 107-164-22.3-64.6-51.7-17.2-143-93.1-54-44.6-116-19-181-33.5-44.9-9.9-100-36.1-124 50.9-29.4 106 61.3 189 107 170 40-16 76-36 104-29z"/>
<path class="cls-4" d="m80.5 0a73.8 73.8 0 0 0 -20.8 2.79l3.07 10.6h0.06 0.06 0.06 0.06 0.06 0.06 0.06l0.2-0.06h0.07 0.06a62.4 62.4 0 0 1 14.4 -2.3h2.21v-11zm-39.4 11.8a70.2 70.2 0 0 0 -15.1 14.9l8.78 6.63a60.8 60.8 0 0 1 10 -10.5l0.1-0.08 0.36-0.29 0.13-0.1 0.13-0.1 0.13-0.1q0.93-0.73 1.87-1.4l-6.39-9zm-25 31.2a146 146 0 0 0 -7.25 18.1l10.4 3.4q0.72-2.19 1.47-4.26v-0.06-0.05-0.25l0.08-0.22v-0.05-0.05-0.05-0.05q2.6-6.5 5.2-11.8l-9.9-4.8zm-12.1 35.5a167 167 0 0 0 -3.13 19l10.9 1.15c0-0.36 0.08-0.73 0.12-1.09v-0.39a155 155 0 0 1 2.73 -16l-10.6-2.5zm7 37.1-11 0.1a158 158 0 0 0 1.36 19l10.9-1.45q-0.22-1.66-0.4-3.33v-0.12-0.3-2.75c-0.43-4.34-0.68-8.77-0.72-13.3zm4.48 34.6l-10.7 2a159 159 0 0 0 5.9 18.4l10.2-4a147 147 0 0 1 -4.7 -14.2v-0.06-0.05-0.13-0.25-0.14-0.11l-0.06-0.22q-0.24-0.91-0.47-1.82zm12.5 32-9.7 5a159 159 0 0 0 10 16.5l9-6.28a148 148 0 0 1 -9.3 -15zm19.9 29l-8.22 7.31a143 143 0 0 0 13.9 14l7.14-8.37q-1.52-1.29-3-2.66l-0.09-0.09h-0.05l-0.09-0.09-0.15-0.14c-3.12-2.88-6.18-6-9.14-9.32zm26.5 22.6-5.8 9.35a98 98 0 0 0 18.2 8.92l3.74-10.3a86.9 86.9 0 0 1 -16.1 -7.93zm50.3 8.56-1.16 0.47a36.8 36.8 0 0 1 -13.8 2.54h-1.44l-1.16-0.05-0.63 11c1.08 0.06 2.17 0.09 3.23 0.09a47.7 47.7 0 0 0 17.9 -3.34l1.18-0.48-4.14-10.2zm32-15q-3.73 1.56-7.53 3.18l-0.14 0.06-5.6 2.39-3.28 1.4 4.31 10.1 4.75-2c4.07-1.73 7.91-3.37 11.8-5l-4-10zm32.8-12.1-2.63 0.78h-0.07-0.06-0.05-0.05-0.08-0.06-0.06c-4.14 1.28-8.37 2.76-12.7 4.38h-0.05-0.05-0.05l-1 0.37 3.9 10.3c6.07-2.3 11.4-4.1 16.2-5.49l-3-10.6zm25.8-4.21h-0.21q-1.54 0-3.1 0.09h-1.84-0.19-0.08q-1.58 0.13-3.18 0.33h-0.56l1.42 10.9a60.4 60.4 0 0 1 7.74 -0.53 42.9 42.9 0 0 1 7 0.54l1.8-10.8-1.31-0.2h-3.07q-2-0.16-4.14-0.17h-0.26zm24.8 6.18-5.07 9.76a65.6 65.6 0 0 1 12.7 8.77l7.19-8.33q-2-1.72-4.05-3.31h-0.06-0.05-0.05l-0.11-0.08h-0.06-0.06a71.2 71.2 0 0 0 -9 -5.7h-0.06-0.06-0.06-0.06-0.05-0.05zm26.8 22.2-8.22 7.31c3.31 3.72 6.78 8 10.9 13.3l8.71-6.72q-1.93-2.5-3.89-5v-0.05-0.05-0.06-0.05l-0.13-0.16c-2.18-2.7-4.39-5.33-6.65-7.87zm21.7 27.5-8.8 6.6c3.35 4.47 7.26 9.65 11.3 14.6l8.54-6.93-1.7-2.11-0.07-0.08-0.06-0.07v-0.05l-0.05-0.07-0.06-0.07-0.06-0.08-0.07-0.09-0.07-0.09-0.08-0.1-0.08-0.11c-2.85-3.61-5.67-7.34-8.49-11.1zm22.3 26.9-7.78 7.78a91.5 91.5 0 0 0 15.8 12.9l5.88-9.3h-0.05-0.05-0.05-0.05l-0.16-0.13h-0.05-0.05-0.05-0.05a95.1 95.1 0 0 1 -7.37 -6.69zm29.5 18-2.35 10.8a54.1 54.1 0 0 0 11.5 1.24 59 59 0 0 0 10.7 -1l-2-10.8a48.2 48.2 0 0 1 -7.49 0.8h-3.53a42.7 42.7 0 0 1 -6.86 -0.92zm50.3-12.7a142 142 0 0 1 -14.2 7.1h-0.11-0.11-0.05-2.15-0.06l-1.18 0.49 4 12a150 150 0 0 0 17.4 -8.54l-5.44-9.56zm28.5-20.2q-2.14 1.84-4.31 3.6l-0.16 0.13-0.07 0.06-0.11 0.09-0.11 0.09-0.11 0.09-0.11 0.09-0.12 0.09-0.06 0.05-0.07 0.06-0.07 0.06-0.11 0.09-3 2q-3.89 3.06-7.82 5.84l6.35 9c5.14-3.63 10.2-7.58 15-11.7l-7.18-8.34zm24.2-25.2q-1.93 2.46-3.95 4.85l-0.36 0.43-1 1-0.14 0.16-0.1 0.12-0.14 0.16-0.1 0.12-0.13 0.15-0.1 0.11-0.14 0.16-0.13 0.15-0.1 0.11-0.14 0.15-0.1 0.12-0.14 0.15-0.1 0.11-0.18 0.2-0.15 0.16-0.14 0.15-0.15 0.16-0.15 0.16-0.19 0.2-0.14 0.16q-1.69 1.85-3.42 3.64l7.91 7.65a184 184 0 0 0 12.6 -14.4l-8.66-6.78zm18.2-29.8a134 134 0 0 1 -8.44 15.9l9.35 5.79a146 146 0 0 0 9.13 -17.2l-10-4.48zm9.16-33.6q-0.24 2.41-0.6 4.8v0.21 0.4 0.14 0.73 0.13 0.12 0.13 2.06 0.2 0.07c-0.44 2.51-1 5-1.59 7.48v0.07l-0.05 0.2v0.11 0.13 0.45 0.13 0.1l-0.06 0.21q-0.2 0.76-0.41 1.51l10.6 3a115 115 0 0 0 3.72 -19.5l-10.9-1.1zm7.9-37.5-10.6 2.79q0.92 3.49 1.56 7v0.15 0.23 1 0.11 1.72 0.2 1.12 0.27 0.12q0.58 3.8 0.86 7.56l11-0.81a110 110 0 0 0 -3.3 -19.7zm-16.3-35.7-8.69 6.74c0.32 0.41 0.63 0.83 0.95 1.26h0.05l0.11 0.16v0.05 0.05a74.6 74.6 0 0 1 7.23 13.5l11-3a80.3 80.3 0 0 0 -10.2 -18.1zm-36-20.1l-2.92 10.6c2 0.55 3.9 1.1 5.74 1.68h0.05 0.07 0.76 0.05 0.05 0.06 0.05 0.06 0.06 0.06 0.06 0.06 0.06 0.06 0.06 0.06 0.06 0.06 0.13 0.13 0.13 0.13 0.13 0.13a56.7 56.7 0 0 1 8.17 3.56l7-9c-6.19-3.35-12.9-5.42-19.2-7.16zm-32.5-9.77-3.94 10.3c5.08 1.95 9.81 3.51 14.2 4.84h0.11 0.07 0.07 0.05 0.06 0.42 0.05 0.05 0.14 0.05 0.05 0.07 0.05 0.12 0.12 0.12l1.17 0.34 3-10.6c-5.93-1.7-11.1-3.41-16.2-5.37zm-29-14.5-6 9.4l0.36 0.22 0.32 0.19 0.32 0.19 0.15 0.09 0.1 0.06 0.2 0.12 0.15 0.09 0.09 0.05h0.05 0.05 0.06 0.05l0.12 0.07h0.05 0.05l0.12 0.07h0.06 0.06 0.06c4.2 2.41 8.22 4.53 12.1 6.42l4.84-9.88c-4.94-2.42-10-5.17-15-8.17zm-28-19.2l-6.77 8.67 2.28 1.77h0.05 0.05q6.07 4.64 11.7 8.56l6.26-9c-4.58-3.17-9.28-6.63-14-10.3zm-30-21.2l-5.1 9.75a115 115 0 0 1 15.2 9.56l6.55-8.84a127 127 0 0 0 -17 -10.6zm-36-12.4-2 10.7a131 131 0 0 1 16.3 4.32h0.14 0.17 0.06 0.08 0.06 0.07 0.06 0.06 0.13l5-10a141 141 0 0 0 -18.8 -5.06zm-36-3.8l-0.34 11c6 0.19 12 0.52 18 1.1l1.07-11c-5.69-0.56-11.8-0.93-18.7-1.15zm-35.3-0.28-0.06 11q4.65 0 9.26 0h8.74v-11h-7.8-10.2zm-33.9-1.47-1.09 11c6 0.6 12 1 18 1.19l0.41-11c-6.27-0.24-11.9-0.61-17.3-1.14zm-32.8-6-2.7 10.7c3.56 0.9 7.07 1.77 10.5 2.54h0.07 0.08 0.07 0.07 0.1l2.95 0.63h0.1 0.08 0.09 0.29 0.11l3 0.57 2-10.8c-2.14-0.39-4.27-0.82-6.34-1.28-3.72-0.83-7.56-1.78-10.5-2.52zm-35.6-7.86-1.7 10.9c4.23 0.63 8.49 1.46 12.7 2.4h0.25 0.14 0.66l3.85 0.9 2.56-10.7c-7.21-1.72-13.1-2.9-18.6-3.72z"/>
</g>
<ellipse rx="4.89" transform="translate(44.6 347) rotate(-45)" ry="2.65" cy="120" cx="442" class="cls-5"/>
<polyline points="408 152 408 128 425 120 425 141" class="cls-6"/>
<ellipse rx="4.89" transform="translate(21.5 340) rotate(-45)" ry="2.65" cy="144" cx="421" class="cls-5"/>
<ellipse rx="4.89" transform="translate(9.68 331) rotate(-45)" ry="2.65" cy="154" cx="404" class="cls-5"/>
<polyline points="460 157 460 133 477 126 477 147" class="cls-6"/>
<ellipse rx="4.89" transform="translate(32.8 379) rotate(-45)" ry="2.65" cy="150" cx="473" class="cls-5"/>
<ellipse rx="4.89" transform="translate(21 370) rotate(-45)" ry="2.65" cy="160" cx="457" class="cls-5"/>
<line y1="118" x2="445" x1="446" y2="95.9" class="cls-7"/>
<ellipse rx="4.89" transform="translate(82.7 370) rotate(-45)" ry="2.65" cy="85.3" cx="488" class="cls-5"/>
<polyline points="492 83.6 492 61.3 499 56.7" class="cls-6"/>
<polygon points="351 250 351 228 446 285 446 307" class="cls-8"/>
<polygon points="543 258 543 236 446 285 446 307" class="cls-8"/>
<path class="cls-9" d="m541 239-92 45a5.09 5.09 0 0 1 -4.78 -0.16l-91.3-52.7a3.11 3.11 0 0 1 0.18 -5.48l91.1-44.7a6.86 6.86 0 0 1 6.45 0.22l90.8 52.4a2.87 2.87 0 0 1 0 6z"/>
<path d="m446 260c-36.6 0-66.3-12.9-66.3-28.8s29.8-28.8 66.3-28.8 66.3 12.9 66.3 28.8-30 29-67 29z"/>
<path class="cls-2" d="m446 203c17.7 0 34.3 3 46.8 8.54 12.1 5.34 18.8 12.3 18.8 19.6s-7 15-19 20c-12.5 5.5-29.1 8.54-46.8 8.54s-34.3-3-46.8-8.54c-12.1-5.34-18.8-12.3-18.8-19.6s6.67-14.3 18.8-19.6c12.5-5.5 29.1-8.54 46.8-8.54m0-1.42c-37 0-67 13.2-67 29.6s30 29.6 67 29.6 67-13.2 67-29.6-30-29.6-67-29.6z"/>
<path d="m445 260c-36.6 0-66.3-12.9-66.3-28.8s29.8-28.8 66.3-28.8 66.3 12.9 66.3 28.8-30 29-67 29z"/>
<path class="cls-2" d="m445 203c17.7 0 34.3 3 46.8 8.54 12.1 5.34 18.8 12.3 18.8 19.6s-6.67 14.3-18.8 19.6c-12.5 5.5-29.1 8.54-46.8 8.54s-34.3-3-46.8-8.54c-12.1-5.34-18.8-12.3-18.8-19.6s6.67-14.3 18.8-19.6c12.5-5.5 29.1-8.54 46.8-8.54m0-1.42c-37 0-67 13.2-67 29.6s30 29.6 67 29.6 67-13.2 67-29.6-30-29.6-67-29.6z"/>
<path d="m446 260c-36.6 0-66.3-12.9-66.3-28.8s29.8-28.8 66.3-28.8 66.3 12.9 66.3 28.8-30 29-67 29z"/>
<path class="cls-2" d="m446 203c17.7 0 34.3 3 46.8 8.54 12.1 5.34 18.8 12.3 18.8 19.6s-7 15-19 20c-12.5 5.5-29.1 8.54-46.8 8.54s-34.3-3-46.8-8.54c-12.1-5.34-18.8-12.3-18.8-19.6s6.67-14.3 18.8-19.6c12.5-5.5 29.1-8.54 46.8-8.54m0-1.42c-37 0-67 13.2-67 29.6s30 29.6 67 29.6 67-13.2 67-29.6-30-29.6-67-29.6z"/>
<path d="m446 255c-32.6 0-59.2-11-59.2-24.5s26.5-24.5 59.2-24.5 59.2 11 59.2 24.5-26 25-59 25z"/>
<path class="cls-2" d="m446 207c15.8 0 30.6 2.58 41.8 7.26 10.6 4.47 16.8 10.5 16.8 16.6s-6 12-17 16c-11.1 4.68-26 7.26-41.8 7.26s-30.6-2.58-41.8-7.26c-10-4-16-10-16-16s6.1-12.2 16.8-16.6c11.1-4.68 26-7.26 41.8-7.26m0-1.24c-33 0-59.8 11.2-59.8 25.1s26 25 59 25 60-11 60-25-26.8-25.1-59.8-25.1z"/>
<ellipse cy="229" cx="447" rx="34.8" class="cls-10" ry="12.2"/>
<ellipse cy="229" cx="448" rx="9.37" class="cls-11" ry="2.47"/>
<path class="cls-2" d="m212 114l0.14 0.19c0.17 0.23 0.38 0.25 0.64 0.06-0.1-0.13-0.09-0.23 0-0.31a1.83 1.83 0 0 1 0.62 0.43l0.19-0.14-0.14-0.19a1.09 1.09 0 0 0 -2 0z"/>
<path class="cls-2" d="m261 91l0.68 0.92q1-1.18-0.14-2.76l-0.23-0.31q-1 0.4-1 2.2z"/>
<path class="cls-2" d="m201 75.2a3.26 3.26 0 0 1 1 0.77l0.66-0.49c-0.3-0.19-0.59-0.39-0.89-0.6z"/>
<path class="cls-2" d="m213 55.8a6.73 6.73 0 0 1 0.35 -2.1q-0.48-0.48-0.86-0.2l-0.5 0.37a3.12 3.12 0 0 1 0.15 2.21l0.17 0.23 0.33-0.6c1 0.2 1 0.3 1 0.1z"/>
<path class="cls-2" d="m72.4 191l-0.19 0.14c-0.23 0.17-0.25 0.38-0.06 0.64 0.13-0.1 0.23-0.09 0.31 0a1.83 1.83 0 0 1 -0.43 0.62l0.14 0.19 0.19-0.14a1.09 1.09 0 0 0 0.1 -2z"/>
<path class="cls-2" d="m95.5 240l-0.92 0.68q1.18 1 2.76-0.14l0.31-0.23q-0.4-1-2.2-1z"/>
<path class="cls-2" d="m111 180a3.26 3.26 0 0 1 -0.77 1l0.49 0.66c0.19-0.3 0.39-0.59 0.6-0.89z"/>
<path class="cls-2" d="m131 192a6.73 6.73 0 0 1 2.1 0.35q0.48-0.48 0.2-0.86l-0.37-0.5a3.12 3.12 0 0 1 -2.21 0.15l-0.23 0.17 0.6 0.33v2z"/>
<path class="cls-2" d="m283 203l0.71-0.9q-1.41-0.69-2.63 0.85l-0.24 0.3q1 1 2 0z"/>
<path class="cls-2" d="m308 248a3.26 3.26 0 0 1 0.47 -1.21l-0.65-0.51c-0.1 0.34-0.22 0.67-0.34 1z"/>
<path class="cls-2" d="m365 164q0.34 0.46 1.66 0.32l-0.74-1a3.69 3.69 0 0 1 -1.09 0.45z"/>
<path class="cls-2" d="m368 112l-0.11-0.15-0.38 0.28a1.53 1.53 0 0 1 0.21 0.68l0.19-0.14q0-1 0-1z"/>
<path class="cls-1" d="m225 119a3.27 3.27 0 0 1 -0.73 1 0.68 0.68 0 0 0 1.07 0.16q0.6-0.56 0.2-1.1z"/>
<path class="cls-1" d="m246 107l-0.43-0.58-0.58 0.43q0.68 0.92 0 1.41l0.23 0.31 0.92-0.68z"/>
<rect transform="translate(-24.4 162) rotate(-36.5)" height=".96" width=".53" y="118" x="234" class="cls-2"/>
<path class="cls-2" d="m249 142l0.18 0.64 0.17 0.23 0.69-0.51-0.17-0.23a0.58 0.58 0 0 0 -1 0z"/>
<path class="cls-2" d="m280 152l-0.2-0.27a2.24 2.24 0 0 1 -1.33 0.21l-0.27 0.2q-0.42 0.31-0.05 0.81l1.39-0.61z"/>
<path class="cls-2" d="m122 57.5l-0.2-0.27a2.24 2.24 0 0 1 -1.33 0.21l-0.27 0.2q-0.42 0.31-0.05 0.81l1.39-0.61z"/>
<path class="cls-2" d="m51.2 108l-0.2-0.27a2.24 2.24 0 0 1 -1.33 0.21l-0.27 0.2q-0.42 0.31-0.05 0.81l1.39-0.61z"/>
<path class="cls-2" d="m300 107l0.54-0.4q-0.26-0.35-1.34-0.2l0.1 0.7z"/>
<path class="cls-2" d="m109 107l0.54-0.4q-0.26-0.35-1.34-0.2l0.1 0.7z"/>
<path class="cls-2" d="m380 207l0.54-0.4q-0.26-0.35-1.34-0.2l0.1 0.7z"/>
<path class="cls-2" d="m160 116q-0.46 0.34-0.32 1.66l1-0.74a3.69 3.69 0 0 1 -0.45 -1.09z"/>
<path class="cls-2" d="m184 182l0.15-0.11-0.28-0.38a1.53 1.53 0 0 1 -0.68 0.21l0.14 0.19q1 1 1 0z"/>
<path class="cls-2" d="m151 162l0.4 0.54q0.35-0.26 0.2-1.34l-0.7 0.1z"/>
</g>
</g>
</svg>
