<?xml version="1.0" encoding="UTF-8" standalone="no"?>
<svg xmlns="http://www.w3.org/2000/svg" viewBox="0 0 179.6 67.35">
<title>Asset 1</title>
<g data-name="Layer 2">
<g id="HOME">
<g id="logo">
<path d="m85.4 7.39a34.1 34.1 0 0 1 12.5 2.08 25.3 25.3 0 0 1 7.52 4.35 26.4 26.4 0 0 1 6.3 7.8 28.2 28.2 0 0 1 3 8.86c0.22 1.39 0.39 2.78 0.52 4.18a25.2 25.2 0 0 1 0.13 3.54 37.4 37.4 0 0 1 -1.3 8.37 30.1 30.1 0 0 1 -4.36 9.25 26 26 0 0 1 -8.25 7.55 26.6 26.6 0 0 1 -8 2.7 41.8 41.8 0 0 1 -4.79 0.76 39.1 39.1 0 0 1 -5 0.26 32 32 0 0 1 -15.2 -3.7 24.4 24.4 0 0 1 -6.76 -5.53 27.3 27.3 0 0 1 -3.8 -5.85 31.8 31.8 0 0 1 -2.67 -8.66 36 36 0 0 1 -0.5 -7.55 30.2 30.2 0 0 1 1.31 -8.1 52.4 52.4 0 0 1 2.17 -5.65 24.4 24.4 0 0 1 3.81 -5.61 25.6 25.6 0 0 1 9.2 -6.6 25.9 25.9 0 0 1 7.22 -2.1c2.1-0.24 6.5-0.56 6.5-0.51zm12.1 29.4c-0.06-0.72-0.17-1.43-0.18-2.15a16.1 16.1 0 0 0 -1.21 -5.8 11 11 0 0 0 -8.29 -7 11.9 11.9 0 0 0 -7.32 0.74c-3.9 1.78-5.88 5.07-6.82 9.09a26.6 26.6 0 0 0 -0.56 6.7 21.2 21.2 0 0 0 1.4 7.6 11 11 0 0 0 3.18 4.62 12 12 0 0 0 10 2.27c4-0.7 6.61-3.31 8.17-7a24.3 24.3 0 0 0 1.6 -9z"/>
<path d="m0 9.38h18.8c2.41 0 4.83 0 7.24 0.14 2 0.08 4 0.18 5.93 0.4a27.3 27.3 0 0 1 10.6 3.08 21.2 21.2 0 0 1 5.75 5 24.6 24.6 0 0 1 4.89 10.4 39.5 39.5 0 0 1 0.7 4.74 31.8 31.8 0 0 1 0.26 4.11 43.7 43.7 0 0 1 -1 9.16 30.2 30.2 0 0 1 -2.7 7.44 21.2 21.2 0 0 1 -6.58 7.51 22.5 22.5 0 0 1 -9.2 3.7 30.7 30.7 0 0 1 -4.93 0.41c-9.87 0.08-19.8 0.11-29.6 0.15zm17.9 13.2v30.1c3-0.13 6-0.17 9-0.41 3.3-0.26 5.48-2.26 7-5a20.6 20.6 0 0 0 2.23 -9.49 24.4 24.4 0 0 0 -0.25 -3.44 18 18 0 0 0 -2.22 -7.17 7.51 7.51 0 0 0 -4.92 -3.9 26 26 0 0 0 -4.41 -0.64c-2.1-0.2-4.2-0.1-6.4-0.1z"/>
<path d="m176 0a3.71 3.71 0 0 1 0.37 1.28c-0.09 0.95 0.51 1.53 1 2.2a25.3 25.3 0 0 0 1.54 2.08c0.56 0.68 0.16 1.35 0 2-0.95 2.9-2 5.78-3 8.66-0.24 0.71-0.44 1.44-0.71 2.14a8.3 8.3 0 0 0 -0.51 2.79 4.75 4.75 0 0 0 0.27 2.27 0.67 0.67 0 0 1 -0.17 0.63 11.2 11.2 0 0 1 -1.57 0.68c-0.09 0-0.25-0.06-0.36-0.12a1.86 1.86 0 0 1 -0.19 -2.75 0.76 0.76 0 0 0 0.32 -0.42c0.07-0.74 0.11-1.48 0.15-2.22 0.13-2.44 0.26-4.88 0.4-7.32 0.07-1.24 0.19-2.47 0.25-3.71a3.28 3.28 0 0 0 -0.24 -0.87l-12 14.2c0.74 0.52 0.45 0.92 0 1.39a21.3 21.3 0 0 0 -1.39 1.66l-0.93-0.24c-1 1.19-1.95 2.39-2.95 3.56-0.66 0.77-1.39 1.48-2.07 2.23a0.52 0.52 0 0 0 0 0.48q3.22 5.37 6.48 10.7l5.2 8.64 6 9.6c1.12 1.86 2.22 3.73 3.4 5.7h-0.7-18.7a1 1 0 0 1 -1 -0.58l-2.16-3.91q-2.7-4.87-5.39-9.73c-1-1.87-2-3.75-3.07-5.62-0.43-0.79-0.89-1.57-1.36-2.4l-3 3.41-1.45 1.6c-1.07 1.16-2.16 2.29-3.19 3.48a1.93 1.93 0 0 0 -0.46 1.14v12.5h-19v-55.9h17.6v20.4l1.73-1.93a3.24 3.24 0 0 0 0.2 -0.26 1.15 1.15 0 0 1 1.6 -0.43c1 0.43 2 0.73 3 1.08a0.69 0.69 0 0 0 0.85 -0.16c0.71-0.74 1.53-1.38 2.22-2.14 1.05-1.16 2-2.38 3-3.57 0.24-0.28 0.47-0.57 0.73-0.83a4.3 4.3 0 0 0 1 -2.29c0.06-0.31 0.4-0.56 0.29-1a1.52 1.52 0 0 1 0.08 -0.58c0-0.13 0-0.3 0.07-0.37 0.25-0.26 0.54-0.49 0.86-0.76l0.45 0.68 1.76-1.39c0.2-0.16 0.45-0.26 0.64-0.44s0.64-0.28 0.47-0.77c0-0.1 0.23-0.35 0.41-0.47l9.62-6.79q4.44-3.14 8.86-6.3c0.12-0.09 0.22-0.2 0.37-0.2a11.4 11.4 0 0 0 3 -0.89zm-5 8.39l-0.09-0.07-16.2 9.89 1 1.87-0.61 0.31c0.3 0.47 0.19 0.78-0.33 0.88l0.29 0.58-0.47 0.11c0 0.19 0 0.48-0.08 0.49-0.42 0.08-0.86 0.11-1.19 0.14 0 0.16-0.08 0.36-0.14 0.57-0.23 0.78-0.94 1.43-0.46 2.4 0.4 0.8 0.49 0.9 1.29 0.41-0.35-0.57-0.31-0.81 0.14-1.3 0.69-0.76 1.35-1.54 2-2.29a2.73 2.73 0 0 1 0.78 -0.68c0.21-0.1 0.2-0.21 0.3-0.35 0.58-0.8 1.23-1.55 1.89-2.29 0.08-0.09 0.35-0.06 0.5 0 0.33 0.12 0.65 0.29 1 0.46zm8.16-1.92h-2.36c-0.41 0-0.65 0.08-0.32 0.56 0.09 0.13-0.05 0.42-0.12 0.63s-0.17 0.23-0.18 0.35c-0.19 1.87-0.35 3.75-0.54 5.63-0.07 0.71-0.19 1.41-0.25 2.12s-0.08 1.46-0.12 2.2h0.1zm-2.43-3.92l-1 3.45h2.73z"/>
</g>
</g>
</g>
</svg>
