<svg xmlns="http://www.w3.org/2000/svg" viewBox="0 0 297.8 163.58"><defs><style>.cls-1{fill:#88aeea;}.cls-10,.cls-11,.cls-12,.cls-13,.cls-2,.cls-3,.cls-4,.cls-5,.cls-6,.cls-7,.cls-9{stroke:#000;}.cls-11,.cls-13,.cls-2,.cls-4,.cls-5,.cls-6,.cls-7{stroke-linecap:round;}.cls-2,.cls-5,.cls-6,.cls-9{stroke-linejoin:round;}.cls-10,.cls-11,.cls-12,.cls-13,.cls-2,.cls-4,.cls-5,.cls-6,.cls-7,.cls-9{stroke-width:1.37px;}.cls-10,.cls-11,.cls-3,.cls-6,.cls-8,.cls-9{fill:#fff;}.cls-10,.cls-11,.cls-12,.cls-13,.cls-3,.cls-4,.cls-7{stroke-miterlimit:10;}.cls-3{stroke-width:0.23px;}.cls-4,.cls-5{fill:none;}.cls-7{fill:#873309;}.cls-14{font-size:21.7px;fill:#7a92c2;font-family:HereJustNow-Out, Here Just Now;}</style></defs><title>dok-markt</title><g id="Layer_2" data-name="Layer 2"><g id="HOME"><path class="cls-1" d="M13.63,127.94C42.26,102.09,100.7,79.32,157.57,98.7c30.51,10.4,34.58,24.08,58.49,22.85,25.74-1.33,40.33-18.19,60.77-10.05,8.12,3.23,18.07,10.78,17.82,18.73-.51,16.12-42.66,26.46-50.26,28.33-47.28,11.61-57.22-4.8-123.37-.91-14.58.86-39.49,3.15-75.85,2.28-28-.66-42.3-2.71-44.78-10.05S8.64,132.45,13.63,127.94Z"/><path class="cls-2" d="M193.87,109.85c-2.73-6.27-17.46-40.82-7-48.85,4.18-3.21,13.87-3.33,17.56,1.17,2,2.45,1.77,5.68,1.6,7.6-1.82,20.68-6.24,24.41-5.38,33.47,1.09,11.56,9,12.62,9.4,26.81.13,4.28.28,9-2.73,13-7.73,10.43-30.4,8.48-33.14,1.56-1.88-4.74,6.68-9,5.55-17.94-.85-6.68-6.06-7.23-6.25-13.17-.26-8.18,9.52-10.45,9.58-18.05.06-8.29-11.55-9.88-12.24-19.94-.48-7,4.73-12.46,5.59-13.36,6.26-6.53,16.45-5.52,26.18-1.74"/><path class="cls-3" d="M192.39,100.46c-.65,4-2.33,5.05-4,9.31-1.54,4-1.51,7-2,6.94s-.62-2.33-.48-4.3c.2-2.94,1.28-4.21,3.2-8.57,2.07-4.68,2.69-7.3,3.13-7.19S192.66,98.79,192.39,100.46Z"/><path class="cls-4" d="M133.8,121.09V32.67a2.75,2.75,0,0,1,2.74-2.74H166.7a2.75,2.75,0,0,1,2.74,2.74v88.42"/><polygon class="cls-5" points="157.34 35.41 143.86 42.72 170.82 42.72 157.34 35.41"/><path class="cls-5" d="M157.34,35V32.67s-1.83-1.37-1.14-3a2.1,2.1,0,0,1,3.66-.46,2,2,0,0,1,0,2.06"/><polygon class="cls-5" points="145.46 35.41 131.98 42.72 158.94 42.72 145.46 35.41"/><path class="cls-5" d="M145.46,35V32.67s-1.83-1.37-1.14-3a2.1,2.1,0,0,1,3.66-.46,2,2,0,0,1,0,2.06"/><path class="cls-5" d="M125.58,129.2v-5.37a2.58,2.58,0,0,1,2.36-2.74h9.23a2.58,2.58,0,0,1,2.36,2.74v5.37"/><path class="cls-5" d="M161.68,129.2v-5.37a2.58,2.58,0,0,1,2.36-2.74h9.23a2.58,2.58,0,0,1,2.36,2.74v5.37"/><polygon class="cls-6" points="127.64 80.65 114.84 80.65 114.84 62.83 127.64 58.26 127.64 80.65"/><rect class="cls-7" x="114.84" y="63.06" width="15.31" height="22.39"/><path class="cls-8" d="M106.54,87.49a19.72,19.72,0,0,1-8.41-1.93c-7.27-3.41-9.6-8.57-10.28-12.3a16.38,16.38,0,0,1,.22-6.84l7.4,2.52a8.68,8.68,0,0,0,.08,3.25c.6,2.66,2.57,4.79,5.87,6.34a12,12,0,0,0,5.1,1.17c5.89,0,10-4.57,10.06-4.62a3.88,3.88,0,1,1,5.81,5.16,24.08,24.08,0,0,1-6.85,5.05A20.2,20.2,0,0,1,106.54,87.49Z"/><path d="M88.57,67.31l6.15,2.09a9.27,9.27,0,0,0,.16,2.93c.65,2.88,2.75,5.17,6.25,6.81a12.63,12.63,0,0,0,5.39,1.24c6.19,0,10.4-4.65,10.58-4.85a3.2,3.2,0,0,1,4.78,4.25,23.25,23.25,0,0,1-6.64,4.9,19.52,19.52,0,0,1-8.7,2.12,19,19,0,0,1-8.12-1.87c-7-3.29-9.25-8.23-9.9-11.81a15.81,15.81,0,0,1,0-5.82m-1-1.77a16.75,16.75,0,0,0-.44,7.84c.71,3.89,3.13,9.27,10.66,12.8a20.38,20.38,0,0,0,8.7,2,20.88,20.88,0,0,0,9.31-2.27,24.74,24.74,0,0,0,7.06-5.21,4.57,4.57,0,0,0-6.83-6.07c0,.06-4,4.39-9.55,4.39a11.23,11.23,0,0,1-4.81-1.11c-3.1-1.45-4.95-3.43-5.49-5.87a7.85,7.85,0,0,1,.06-3.62l0,.06-8.65-2.94Z"/><path class="cls-9" d="M77.18,132.23v8.43c0,.82,0,1.64-.07,2.46-.08,1.24,0,3.82,1.84,4.63,1.6.71,10.38,3.35,12,2.72,2.45-1,2.86-3,1.77-3.81a53,53,0,0,0-6.24-2.9.93.93,0,0,1-.57-.86V132.23"/><path class="cls-9" d="M77.18,131.91v8.43c0,.82,0,1.64-.07,2.46-.08,1.24,0,3.82,1.84,4.63,2.45,1.09,9.53,3.68,12,2.72s2.86-3,1.77-3.81a53,53,0,0,0-6.24-2.9.93.93,0,0,1-.57-.86V131.91"/><path class="cls-8" d="M81.5,132.9c-2.57,0-4.07-.56-4.42-.86.36-.31,1.85-.86,4.42-.86s4.07.56,4.42.86C85.56,132.35,84.07,132.9,81.5,132.9Z"/><path d="M81.5,131.86a14,14,0,0,1,2.28.18,14.83,14.83,0,0,1-4.56,0,14,14,0,0,1,2.28-.18m0-1.37c-2.85,0-5.16.69-5.16,1.55s2.31,1.55,5.16,1.55,5.16-.69,5.16-1.55-2.31-1.55-5.16-1.55Z"/><path class="cls-9" d="M68.27,133.37v8.43c0,.82,0,1.64-.07,2.46-.08,1.24,0,3.82,1.84,4.63,1.6.71,10.38,3.35,12,2.72,2.45-1,2.86-3,1.77-3.81a53,53,0,0,0-6.24-2.9A.93.93,0,0,1,77,144V133.37"/><path class="cls-9" d="M68.27,133.05v8.43c0,.82,0,1.64-.07,2.46-.08,1.24,0,3.82,1.84,4.63,2.45,1.09,9.53,3.68,12,2.72s2.86-3,1.77-3.81a53,53,0,0,0-6.24-2.9.93.93,0,0,1-.57-.86V133.05"/><path class="cls-8" d="M72.59,134c-2.57,0-4.07-.56-4.42-.86.36-.31,1.85-.86,4.42-.86s4.07.56,4.42.86C76.65,133.49,75.16,134,72.59,134Z"/><path d="M72.59,133a14,14,0,0,1,2.28.18,14.83,14.83,0,0,1-4.56,0,14,14,0,0,1,2.28-.18m0-1.37c-2.85,0-5.16.69-5.16,1.55s2.31,1.55,5.16,1.55,5.16-.69,5.16-1.55-2.31-1.55-5.16-1.55Z"/><rect x="69.6" y="108.29" width="5.48" height="24.67"/><path d="M74.4,109v23.3H70.29V109H74.4m1.37-1.37H68.92v26h6.85v-26Z"/><rect x="78.74" y="108.29" width="5.48" height="23.76"/><path d="M83.54,109v22.39H79.43V109h4.11m1.37-1.37H78.06v25.13h6.85V107.61Z"/><path class="cls-6" d="M63.5,113.18s19.58,11,46.32-2.86l-13.05-39A15.47,15.47,0,0,0,82.18,60.71h-.46a10.55,10.55,0,0,0-9.94,8.65Z"/><path class="cls-10" d="M97.08,57.63c3.55-2.93,6.59-7.73,10.62-7.28.63.07,2,.35,2.74-.41,1.07-1.07.27-3.49-.14-4.66-4.18-12.14-6.27-18.2-10.83-20.43a13.37,13.37,0,0,0-8.36-1.37C82.2,25.2,74.78,38,78.5,48.29c2.39,6.6,9.55,12.54,14.81,11.38a9.18,9.18,0,0,0,3.78-2"/><path class="cls-4" d="M102.89,42s-3.7,2.67-6.85,0"/><path class="cls-4" d="M96.72,57a2.86,2.86,0,1,1,4-4"/><rect class="cls-11" x="78.54" y="66.32" width="9.14" height="42.65" rx="4.57" ry="4.57" transform="translate(169.03 172.53) rotate(178.13)"/><path class="cls-2" d="M96.55,20.84c3.85.32,10.52,5.48,10.91,7.14.75,3.17-17.64,4.94-21.62,15.12C83,50.35,91.66,57,86.6,60.3s-13.24,1.88-22.32-2C52.89,53.41,53.11,49.14,41.1,40,28,30.1,17.23,35.53,9.24,25.92,2.27,17.54,2.72,4,8.1,1.17c4.43-2.35,8.79,4.33,24.27,9.28,18.7,6,24.06,0,36.41,7.22,6.42,3.76,13.55,2.62,20.53,2.94C93.07,20.79,90.09,20.31,96.55,20.84Z"/><path class="cls-8" d="M88.62,44.68c0-.2-3.3-3-4.88-2.5a1.46,1.46,0,0,0-.74.46c-.83,1-.13,3.1,1.7,4.27,1.67,1.06,4,.71,4,.3C89,44.83,88.38,46,88.62,44.68Z"/><path class="cls-11" d="M84.88,44.39a6.72,6.72,0,0,1,1.86,1.09"/><path class="cls-11" d="M76.24,25.26c-.32-.89,8.88-4.81,17.33-3.3,1.84.33,5.55,1.25,5.51,2.3,0,.6-1.25,1.16-2.36,1.29-2,.25-2.75-1.08-5.12-1.58-3-.63-4.17,1-9.84,1.44C80.92,25.48,76.45,25.85,76.24,25.26Z"/><path class="cls-11" d="M15.68,27.88c-.58.69-5.71-1.93-8.1-6.74C5.52,17,6.24,12.66,6.48,12.66s-.33,3.24,1.59,6.23c2,3.18,5.13,3.41,7.17,7.45C15.56,27,15.87,27.64,15.68,27.88Z"/><path class="cls-11" d="M199.65,134.77c-1.31-4.23-.2-5.59-1.22-9.19-.81-2.85-2.17-4.34-1.63-5,.39-.46,1.53-.19,2.33.39,2.22,1.58,2.24,5.72,2.27,11.1,0,1.71,0,5.11-.55,5.13C199.42,137.28,199.86,135.47,199.65,134.77Z"/><path class="cls-9" d="M211.1,133.41v7.91c0,.77,0,1.54.06,2.31.07,1.16,0,3.58-1.73,4.35-1.51.67-9.75,3.14-11.25,2.56-2.3-.9-2.69-2.81-1.66-3.58a49.74,49.74,0,0,1,5.86-2.72.87.87,0,0,0,.54-.81v-10"/><path class="cls-9" d="M211.1,133.12V141c0,.77,0,1.54.06,2.31.07,1.16,0,3.58-1.73,4.35-2.3,1-9,3.45-11.25,2.56s-2.69-2.81-1.66-3.58a49.74,49.74,0,0,1,5.86-2.72.87.87,0,0,0,.54-.81v-10"/><path class="cls-8" d="M207.05,134a8.25,8.25,0,0,1-4.08-.77,11.25,11.25,0,0,1,8.17,0A8.26,8.26,0,0,1,207.05,134Z"/><path d="M207.05,133.16a13.81,13.81,0,0,1,1.53.08,14.29,14.29,0,0,1-3.06,0,13.81,13.81,0,0,1,1.53-.08m0-1.37c-2.68,0-4.85.65-4.85,1.45s2.17,1.45,4.85,1.45,4.85-.65,4.85-1.45-2.17-1.45-4.85-1.45Z"/><path class="cls-9" d="M221.62,134.49v7.91c0,.77,0,1.54.06,2.31.07,1.16,0,3.58-1.73,4.35-1.51.67-9.75,3.14-11.25,2.56-2.3-.9-2.69-2.81-1.66-3.58a49.74,49.74,0,0,1,5.86-2.72.87.87,0,0,0,.54-.81v-10"/><path class="cls-9" d="M221.62,134.19v7.91c0,.77,0,1.54.06,2.31.07,1.16,0,3.58-1.73,4.35-2.3,1-9,3.45-11.25,2.56s-2.69-2.81-1.66-3.58a49.74,49.74,0,0,1,5.86-2.72.87.87,0,0,0,.54-.81v-10"/><path class="cls-8" d="M217.56,135.08a8.25,8.25,0,0,1-4.09-.77,11.26,11.26,0,0,1,8.17,0A8.24,8.24,0,0,1,217.56,135.08Z"/><path d="M217.56,134.23a13.81,13.81,0,0,1,1.53.08,14.29,14.29,0,0,1-3.06,0,13.81,13.81,0,0,1,1.53-.08m0-1.37c-2.68,0-4.85.65-4.85,1.45s2.17,1.45,4.85,1.45,4.85-.65,4.85-1.45-2.17-1.45-4.85-1.45Z"/><rect class="cls-8" x="215.26" y="110.98" width="5.07" height="23.09"/><path d="M219.64,111.66v21.72h-3.7V111.66h3.7m1.37-1.37h-6.44v24.46H221V110.29Z"/><rect class="cls-8" x="204.53" y="110.98" width="5.07" height="22.23"/><path d="M208.91,111.66v20.86h-3.69V111.66h3.69m1.37-1.37h-6.44v23.6h6.44v-23.6Z"/><path class="cls-10" d="M200.32,86.76s17.5-4.72,20.9,5.58,2.17,32.83,2.17,32.83-12.85,6.65-26.94,0c0,0-.62-24.24,0-29.39"/><path class="cls-12" d="M198.72,41.85c-8.83-9.13-28-8.74-32.4-1.5-3.52,5.83-2.66,13.05,4.72,28.32,1.24,2.57,4.78,6.8,9.78,10.69a15.93,15.93,0,0,0,23.54-4.44q.32-.55.58-1.1c4.22-9,.06-19.69-1.29-23.17S201.26,44.47,198.72,41.85Z"/><path class="cls-3" d="M179.48,73.74c-.56,1,4.24,5.7,10.36,6.61,1.42.21,5.21.77,8.26-1.38,2.65-1.87,3.66-5,3.3-5.23-.19-.12-.79.63-2.4,1.93a17.46,17.46,0,0,1-4.5,3c-3.35,1.23-8.93,0-11.11-2.89-.58-.76-1.38-2.23-2.78-2.35C180.53,73.45,179.68,73.39,179.48,73.74Z"/><path class="cls-6" d="M192.09,105.78S207.15,101.29,216,82l-23-11.4c-3.7-1.84-8.65-1-12.22,2.23l-.24.23c-2.59,2.46-3.32,6.11-1.84,8.75Z"/><path class="cls-10" d="M175.92,74.3c-3.33-2.75-6.19-7.26-10-6.84-.59.07-1.86.33-2.57-.39-1-1-.25-3.28.13-4.38,3.93-11.4,5.89-17.1,10.17-19.18a12.56,12.56,0,0,1,7.85-1.29c8.37,1.62,15.34,13.67,11.84,23.3-2.25,6.2-9,11.77-13.9,10.69a8.62,8.62,0,0,1-3.55-1.92"/><path class="cls-4" d="M171.33,57.52s3.48,2.51,6.44,0"/><path class="cls-13" d="M195.2,60.38s-17.77-4-26.36-15c-1.93-3.19,13.8-5.22,13.8-5.22l13.31,10Z"/><path class="cls-8" d="M191.81,60c0-.19,3.1-2.77,4.58-2.35a1.37,1.37,0,0,1,.69.43c.78.93.12,2.91-1.6,4-1.57,1-3.71.67-3.76.28C191.42,60.14,192,61.28,191.81,60Z"/><path class="cls-11" d="M195.32,59.72a6.31,6.31,0,0,0-1.75,1"/><path class="cls-4" d="M175.19,73.34a8.39,8.39,0,0,0,3.74-2.47c.17-.18.32-.35.46-.53"/><path class="cls-8" d="M176.24,93.93a18.94,18.94,0,0,1-8.44-2.06,22.45,22.45,0,0,1-6.42-4.74,3.61,3.61,0,0,1,5.39-4.79s3.9,4.35,9.48,4.35a11.27,11.27,0,0,0,4.81-1.11c3.11-1.46,5-3.47,5.54-6a5.67,5.67,0,0,1,.44-1.2,3.45,3.45,0,0,1,3.19-2A3.78,3.78,0,0,1,193,77.6a3.29,3.29,0,0,1,.78,2.65c0,.08-.05.34-.05.34-.63,3.49-2.82,8.33-9.63,11.52a18.47,18.47,0,0,1-7.88,1.81Z"/><path d="M190.24,75.7v1.37a3.09,3.09,0,0,1,2.29,1,2.59,2.59,0,0,1,.61,2.12c0,.06,0,.13,0,.19l0,.11c-.61,3.34-2.7,8-9.25,11a17.79,17.79,0,0,1-7.59,1.75,18.24,18.24,0,0,1-8.14-2,21.74,21.74,0,0,1-6.21-4.58,2.92,2.92,0,1,1,4.37-3.88c.17.19,4.15,4.58,10,4.58a12,12,0,0,0,5.1-1.17c3.31-1.55,5.3-3.72,5.91-6.45a5,5,0,0,1,.39-1,2.75,2.75,0,0,1,2.57-1.64V75.7m0,0a4.14,4.14,0,0,0-3.81,2.41,6.32,6.32,0,0,0-.5,1.34c-.51,2.29-2.25,4.15-5.16,5.51a10.54,10.54,0,0,1-4.52,1c-5.23,0-8.92-4.07-9-4.12a4.29,4.29,0,1,0-6.41,5.7,23.24,23.24,0,0,0,6.63,4.9,19.6,19.6,0,0,0,8.74,2.13,19.14,19.14,0,0,0,8.17-1.88c7.08-3.32,9.35-8.37,10-12l0-.12q0-.13,0-.26a4.12,4.12,0,0,0-4.26-4.63Z"/><path class="cls-3" d="M178,51.19c2.05,1.59,3,1.24,5.36,2.46S187,56.23,187.08,56s-1-1.43-1.93-2.31c-1.44-1.31-2.31-1.37-4.83-2.48-2.72-1.2-4.1-2.14-4.16-1.86S177.1,50.53,178,51.19Z"/><path d="M218.71,12.67h5.23c.67,0,1.35,0,2,0s1.1,0,1.65.11a7.62,7.62,0,0,1,3,.86,5.91,5.91,0,0,1,1.6,1.38A6.85,6.85,0,0,1,233.54,18a11,11,0,0,1,.2,1.32,8.88,8.88,0,0,1,.07,1.14,12.18,12.18,0,0,1-.28,2.55,8.42,8.42,0,0,1-.75,2.07,5.92,5.92,0,0,1-1.83,2.09,6.28,6.28,0,0,1-2.59,1,8.56,8.56,0,0,1-1.38.11l-8.26,0Zm5,3.68v8.39c.85,0,1.68,0,2.52-.11a2.43,2.43,0,0,0,2-1.4,5.74,5.74,0,0,0,.62-2.65,6.79,6.79,0,0,0-.07-1,5,5,0,0,0-.62-2,2.09,2.09,0,0,0-1.37-1.09,7.26,7.26,0,0,0-1.23-.18C224.91,16.33,224.31,16.35,223.7,16.35Z"/><path d="M267.9,10.06a1,1,0,0,1,.1.36c0,.26.14.43.27.61a7.05,7.05,0,0,0,.43.58c.16.19,0,.38,0,.54-.26.81-.55,1.61-.82,2.42-.07.2-.12.4-.2.6a2.31,2.31,0,0,0-.14.78,1.32,1.32,0,0,0,.07.63.19.19,0,0,1,0,.18,3.11,3.11,0,0,1-.44.19s-.07,0-.1,0a.52.52,0,0,1-.05-.77.21.21,0,0,0,.09-.12c0-.21,0-.41,0-.62,0-.68.07-1.36.11-2,0-.35.05-.69.07-1a.91.91,0,0,0-.07-.24l-3.34,4c.21.15.13.26,0,.39a5.94,5.94,0,0,0-.39.46l-.26-.07c-.27.33-.54.67-.82,1s-.39.41-.58.62a.14.14,0,0,0,0,.13l1.81,3L265.06,24l1.61,2.67.95,1.59h-5.41a.29.29,0,0,1-.29-.16l-.6-1.09-1.5-2.71L259,22.76l-.38-.67-.84,1-.4.45c-.3.32-.6.64-.89,1a.54.54,0,0,0-.13.32c0,1.16,0,2.32,0,3.49h-5V12.68h4.92v5.68l.48-.54.06-.07a.32.32,0,0,1,.45-.12c.27.12.56.2.85.3a.19.19,0,0,0,.24,0c.2-.21.43-.38.62-.6s.57-.66.85-1l.2-.23a1.2,1.2,0,0,0,.29-.64c0-.09.11-.16.08-.27a.42.42,0,0,1,0-.16s0-.08,0-.1l.24-.21.13.19.49-.39c.06,0,.13-.07.18-.12s.18-.08.13-.21.07-.1.11-.13l2.68-1.89,2.47-1.76s.06-.06.1-.06a3.17,3.17,0,0,0,.85-.25Zm-1.52,2.34,0,0-4.5,2.76.28.52-.17.09c.08.13.05.22-.09.25l.08.16-.13,0c0,.05,0,.13,0,.14l-.33,0s0,.1,0,.16c-.06.22-.26.4-.13.67s.14.25.36.12c-.1-.16-.09-.22,0-.36l.57-.64a.76.76,0,0,1,.22-.19c.06,0,.06-.06.08-.1.16-.22.34-.43.53-.64,0,0,.1,0,.14,0l.28.13Zm2.27-.53H268c-.11,0-.18,0-.09.16s0,.12,0,.18,0,.06,0,.1c-.05.52-.1,1-.15,1.57,0,.2-.05.39-.07.59s0,.41,0,.61h0ZM268,10.77l-.1,1h.76Z"/><path d="M242.51,12.12a9.5,9.5,0,0,1,3.5.58,7.06,7.06,0,0,1,2.1,1.21,7.37,7.37,0,0,1,1.76,2.17,7.86,7.86,0,0,1,.85,2.47c.06.39.11.78.14,1.17a7,7,0,0,1,0,1,10.42,10.42,0,0,1-.36,2.33,8.38,8.38,0,0,1-1.21,2.58,7.26,7.26,0,0,1-2.3,2.1,7.42,7.42,0,0,1-2.1.82,11.64,11.64,0,0,1-1.33.21,10.91,10.91,0,0,1-1.4.07,8.91,8.91,0,0,1-4.23-1,6.79,6.79,0,0,1-1.89-1.54A7.62,7.62,0,0,1,235,24.61a8.86,8.86,0,0,1-.75-2.41,10,10,0,0,1-.14-2.11,8.4,8.4,0,0,1,.37-2.26,14.62,14.62,0,0,1,.61-1.57,6.79,6.79,0,0,1,1.06-1.56,7.12,7.12,0,0,1,2.55-1.84,7.21,7.21,0,0,1,2-.58C241.3,12.19,242.51,12.1,242.51,12.12Zm3.39,8.2c0-.2,0-.4-.05-.6a4.49,4.49,0,0,0-.34-1.62,3.05,3.05,0,0,0-2.31-1.95,3.32,3.32,0,0,0-2,.21,3.44,3.44,0,0,0-1.9,2.54,7.42,7.42,0,0,0-.16,1.87,5.92,5.92,0,0,0,.37,2.09,3.05,3.05,0,0,0,.89,1.29,3.34,3.34,0,0,0,2.79.63,3,3,0,0,0,2.28-1.94A6.78,6.78,0,0,0,245.9,20.32Z"/><text class="cls-14" transform="translate(217.32 48.74)">MARKT</text><path class="cls-4" d="M272,159.93V115.38a2.75,2.75,0,0,0-2.74-2.74h-32.9a2.75,2.75,0,0,0-2.74,2.74v44.55"/><path class="cls-4" d="M257.18,151.7l-.46-37.89a1.87,1.87,0,0,0-1.86-1.86H253.1a1.87,1.87,0,0,0-1.86,1.86V162.9"/><ellipse class="cls-11" cx="252.84" cy="111.95" rx="18.05" ry="4.34"/><polygon class="cls-8" points="169.22 116.52 122.45 116.52 116.77 110.92 163.53 110.92 169.22 116.52"/><line class="cls-4" x1="121.47" y1="143.48" x2="116.44" y2="137.99"/><line class="cls-4" x1="121.92" y1="117.2" x2="116.44" y2="111.26"/><polygon class="cls-4" points="169.22 117.2 169.22 143.48 121.92 143.48 121.92 137.54 121.92 117.2 163.73 117.2 169.22 117.2"/><polyline class="cls-4" points="163.73 117.66 163.73 137.54 121.92 137.54 116.44 137.54 116.44 111.26 164.19 111.26"/><line class="cls-4" x1="164.19" y1="111.26" x2="169.22" y2="116.75"/><line class="cls-4" x1="169.22" y1="143.48" x2="163.73" y2="137.54"/><rect class="cls-10" x="130.75" y="100.73" width="5.78" height="21.36" rx="2.89" ry="2.89" transform="translate(22.23 245.04) rotate(-90)"/><line class="cls-4" x1="139.44" y1="108.52" x2="145.46" y2="108.52"/><line class="cls-4" x1="139.44" y1="114.29" x2="145.46" y2="114.23"/><rect class="cls-10" x="129.95" y="93.99" width="5.09" height="21.36" rx="2.54" ry="2.54" transform="translate(27.82 237.16) rotate(-90)"/><line class="cls-10" x1="126.69" y1="102.13" x2="120.67" y2="102.13"/><line class="cls-10" x1="126.69" y1="107.21" x2="120.67" y2="107.16"/><rect class="cls-10" x="126.52" y="87.59" width="5.09" height="21.36" rx="2.54" ry="2.54" transform="translate(30.79 227.34) rotate(-90)"/><line class="cls-4" x1="134.87" y1="95.73" x2="140.89" y2="95.73"/><line class="cls-4" x1="134.87" y1="100.81" x2="140.89" y2="100.76"/><rect class="cls-10" x="128.58" y="81.2" width="5.09" height="21.36" rx="2.54" ry="2.54" transform="translate(39.25 223) rotate(-90)"/><line class="cls-4" x1="125.32" y1="89.33" x2="119.3" y2="89.34"/><line class="cls-4" x1="125.09" y1="94.42" x2="119.07" y2="94.36"/><rect class="cls-10" x="159.42" y="101.07" width="5.09" height="21.36" rx="2.54" ry="2.54" transform="translate(50.21 273.72) rotate(-90)"/><line class="cls-10" x1="156.16" y1="109.21" x2="150.14" y2="109.21"/><line class="cls-10" x1="155.93" y1="114.29" x2="149.92" y2="114.24"/><rect class="cls-10" x="133.91" y="131.12" width="5.09" height="21.36" rx="2.54" ry="2.54" transform="translate(-46.21 68.59) rotate(-24.26)"/><line class="cls-10" x1="136.39" y1="135.46" x2="133.91" y2="129.98"/><line class="cls-10" x1="131.66" y1="137.34" x2="129.23" y2="131.83"/><rect class="cls-10" x="141.98" y="131.06" width="5.09" height="21.36" rx="2.54" ry="2.54" transform="translate(-51.08 89.63) rotate(-29.53)"/><line class="cls-4" x1="143.87" y1="135.43" x2="140.9" y2="130.2"/><line class="cls-4" x1="139.33" y1="137.74" x2="136.42" y2="132.48"/><rect class="cls-10" x="156.76" y="133.11" width="5.09" height="21.36" rx="2.54" ry="2.54" transform="translate(-46.31 205.21) rotate(-58.7)"/><line class="cls-4" x1="155.66" y1="138.6" x2="150.52" y2="135.48"/><line class="cls-4" x1="152.83" y1="142.82" x2="147.71" y2="139.65"/><rect class="cls-10" x="116.47" y="136.26" width="5.09" height="21.36" rx="2.54" ry="2.54" transform="translate(-27.92 265.95) rotate(-90)"/><line class="cls-4" x1="113.21" y1="144.39" x2="107.19" y2="144.4"/><line class="cls-4" x1="113.21" y1="149.48" x2="107.19" y2="149.43"/><rect class="cls-10" x="116.7" y="129.86" width="5.09" height="21.36" rx="2.54" ry="2.54" transform="translate(-21.3 259.78) rotate(-90)"/><line class="cls-4" x1="125.05" y1="137.99" x2="131.06" y2="138"/><line class="cls-4" x1="125.05" y1="143.08" x2="131.06" y2="143.03"/><path class="cls-6" d="M125,59.3s3.5.33,2.36,3.75"/></g></g></svg>