<svg xmlns="http://www.w3.org/2000/svg" viewBox="0 0 296.67 207.78"><defs><style>.cls-1,.cls-2{fill:#e0a4c7;}.cls-2{font-size:21.7px;font-family:HereJustNow-Out, Here Just Now;}.cls-10,.cls-13,.cls-3,.cls-4,.cls-5,.cls-6,.cls-7,.cls-8,.cls-9{stroke:#000;}.cls-13,.cls-3,.cls-4,.cls-6,.cls-7,.cls-8,.cls-9{stroke-linecap:round;}.cls-10,.cls-13,.cls-3,.cls-4,.cls-5,.cls-9{stroke-miterlimit:10;}.cls-10,.cls-3,.cls-4,.cls-5,.cls-6,.cls-7,.cls-8,.cls-9{stroke-width:1.37px;}.cls-11,.cls-13,.cls-4,.cls-5,.cls-8{fill:#fff;}.cls-6,.cls-7,.cls-8{stroke-linejoin:round;}.cls-7,.cls-9{fill:none;}.cls-12{fill:#f1f2c0;}.cls-13{stroke-width:0.91px;}</style></defs><title>dok-box</title><g id="Layer_2" data-name="Layer 2"><g id="HOME"><polygon class="cls-1" points="32.07 152.34 244 152.34 276.9 195.52 0 195.52 32.07 152.34"/><path d="M197.09,39h5.23c.67,0,1.35,0,2,0s1.1,0,1.65.11a7.62,7.62,0,0,1,3,.86,5.91,5.91,0,0,1,1.6,1.38,6.85,6.85,0,0,1,1.36,2.89,11,11,0,0,1,.2,1.32,8.88,8.88,0,0,1,.07,1.14,12.18,12.18,0,0,1-.28,2.55,8.42,8.42,0,0,1-.75,2.07,5.92,5.92,0,0,1-1.83,2.09,6.28,6.28,0,0,1-2.59,1,8.56,8.56,0,0,1-1.38.11l-8.26,0Zm5,3.68v8.39c.85,0,1.68,0,2.52-.11a2.43,2.43,0,0,0,2-1.4,5.74,5.74,0,0,0,.62-2.65,6.79,6.79,0,0,0-.07-1,5,5,0,0,0-.62-2,2.09,2.09,0,0,0-1.37-1.09,7.26,7.26,0,0,0-1.23-.18C203.28,42.65,202.68,42.67,202.07,42.67Z"/><path d="M246.28,36.38a1,1,0,0,1,.1.36c0,.26.14.43.27.61a7.05,7.05,0,0,0,.43.58c.16.19,0,.38,0,.54-.26.81-.55,1.61-.82,2.42-.07.2-.12.4-.2.6a2.31,2.31,0,0,0-.14.78,1.32,1.32,0,0,0,.07.63.19.19,0,0,1,0,.18,3.11,3.11,0,0,1-.44.19s-.07,0-.1,0a.52.52,0,0,1-.05-.77.21.21,0,0,0,.09-.12c0-.21,0-.41,0-.62,0-.68.07-1.36.11-2,0-.35.05-.69.07-1a.91.91,0,0,0-.07-.24l-3.34,4c.21.15.13.26,0,.39a5.94,5.94,0,0,0-.39.46l-.26-.07c-.27.33-.54.67-.82,1s-.39.41-.58.62a.14.14,0,0,0,0,.13l1.81,3,1.45,2.41L245,53,246,54.6h-5.41a.29.29,0,0,1-.29-.16l-.6-1.09-1.5-2.71-.85-1.57-.38-.67-.84,1-.4.45c-.3.32-.6.64-.89,1a.54.54,0,0,0-.13.32c0,1.16,0,2.32,0,3.49h-5V39h4.92v5.68l.48-.54.06-.07a.32.32,0,0,1,.45-.12c.27.12.56.2.85.3a.19.19,0,0,0,.24,0c.2-.21.43-.38.62-.6s.57-.66.85-1l.2-.23a1.2,1.2,0,0,0,.29-.64c0-.09.11-.16.08-.27a.42.42,0,0,1,0-.16s0-.08,0-.1L239,41l.13.19.49-.39c.06,0,.13-.07.18-.12s.18-.08.13-.21.07-.1.11-.13l2.68-1.89,2.47-1.76s.06-.06.1-.06a3.17,3.17,0,0,0,.85-.25Zm-1.52,2.34,0,0-4.5,2.76.28.52-.17.09c.08.13.05.22-.09.25l.08.16-.13,0c0,.05,0,.13,0,.14l-.33,0s0,.1,0,.16c-.06.22-.26.4-.13.67s.14.25.36.12c-.1-.16-.09-.22,0-.36l.57-.64a.76.76,0,0,1,.22-.19c.06,0,.06-.06.08-.1.16-.22.34-.43.53-.64,0,0,.1,0,.14,0l.28.13Zm2.27-.53h-.66c-.11,0-.18,0-.09.16s0,.12,0,.18,0,.06,0,.1c-.05.52-.1,1-.15,1.57,0,.2-.05.39-.07.59s0,.41,0,.61h0Zm-.68-1.09-.1,1H247Z"/><path d="M220.89,38.44a9.5,9.5,0,0,1,3.5.58,7.06,7.06,0,0,1,2.1,1.21,7.37,7.37,0,0,1,1.76,2.17,7.86,7.86,0,0,1,.85,2.47c.06.39.11.78.14,1.17a7,7,0,0,1,0,1,10.42,10.42,0,0,1-.36,2.33,8.38,8.38,0,0,1-1.21,2.58,7.26,7.26,0,0,1-2.3,2.1,7.42,7.42,0,0,1-2.1.82,11.64,11.64,0,0,1-1.33.21,10.91,10.91,0,0,1-1.4.07,8.91,8.91,0,0,1-4.23-1,6.79,6.79,0,0,1-1.89-1.54,7.62,7.62,0,0,1-1.06-1.63,8.86,8.86,0,0,1-.75-2.41,10,10,0,0,1-.14-2.11,8.4,8.4,0,0,1,.37-2.26,14.62,14.62,0,0,1,.61-1.57A6.79,6.79,0,0,1,214.52,41a7.12,7.12,0,0,1,2.55-1.84,7.21,7.21,0,0,1,2-.58C219.68,38.51,220.89,38.42,220.89,38.44Zm3.39,8.2c0-.2,0-.4-.05-.6a4.49,4.49,0,0,0-.34-1.62,3.05,3.05,0,0,0-2.31-1.95,3.32,3.32,0,0,0-2,.21,3.44,3.44,0,0,0-1.9,2.54,7.42,7.42,0,0,0-.16,1.87,5.92,5.92,0,0,0,.37,2.09,3.05,3.05,0,0,0,.89,1.29,3.34,3.34,0,0,0,2.79.63,3,3,0,0,0,2.28-1.94A6.78,6.78,0,0,0,224.28,46.64Z"/><text class="cls-2" transform="translate(195.69 75.05)">BOX</text><path class="cls-3" d="M150.19,89.42c-9.33-3.88-11.29-6.13-11.06-7.5.36-2.11,5.81-1.72,8.1-5.92,1.62-3,.18-5.51,1.78-6.52,2-1.23,4.33,2.45,8.29,2.17,5.13-.36,6.77-6.91,10.07-6.32s2.79,6.88,6.71,8.1c3.73,1.15,7.55-3.47,9.08-2.17,1.33,1.13-1.62,4.56-.2,7.5,1.89,3.9,9.38,2.61,10.07,5.13.49,1.77-5.52,2.65-6.32,6.52-.49,2.34,1.34,3.42.59,5.33-1,2.52-10,4.74-14.59,5"/><line class="cls-4" x1="217.5" y1="86.32" x2="187.96" y2="103.57"/><line class="cls-4" x1="114.46" y1="85.4" x2="146.29" y2="104.71"/><path class="cls-5" d="M175.51,116a1.24,1.24,0,0,1,.07-1.83l5.94-5.09,0,0a51.2,51.2,0,0,0,5.33,4.68h0a1.24,1.24,0,0,0,1.87-.46,25,25,0,0,0,1.86-6.74,61.87,61.87,0,0,0,.73-7.82,4.57,4.57,0,1,1,9.14.15,70.6,70.6,0,0,1-.93,9.62c-1.34,7.8-3.86,12.5-7.73,14.34-2.3,1.1-6,1.66-10.6-1.93l0,0C178.18,118.5,176.45,116.92,175.51,116Zm12.29-1.38h0Z"/><path class="cls-5" d="M151.06,121l0,0c-4.93,3.11-8.56,2.18-10.74.86-3.66-2.22-5.71-7.14-6.26-15a70.6,70.6,0,0,1,0-9.66,4.57,4.57,0,1,1,9.11.76,61.87,61.87,0,0,0-.05,7.85,25,25,0,0,0,1.18,6.89,1.24,1.24,0,0,0,1.82.64h0a51.2,51.2,0,0,0,5.78-4.12l0,0,5.41,5.66a1.24,1.24,0,0,1-.12,1.82C156.12,117.55,154.24,119,151.06,121Zm-6-6.89h0Z"/><path class="cls-5" d="M182.77,125.16V111.45a2.68,2.68,0,0,0-2.59-2.74h-26.8a2.68,2.68,0,0,0-2.59,2.74v14.34"/><path class="cls-5" d="M150.79,125.78v13.08a2.68,2.68,0,0,0,2.59,2.74h26.8a2.68,2.68,0,0,0,2.59-2.74V125.16"/><path class="cls-6" d="M181.15,164c1.25,1.34,5.19,1.87,9.68,1.16,5.27-.83,9.29-3,9-4.93a1.32,1.32,0,0,0-.12-.37l-1.42-10.17c-.42,1.76-4.19,3.65-9,4.4a21.84,21.84,0,0,1-6.42.14,16.4,16.4,0,0,1,.13,2.07,16.69,16.69,0,0,1-.62,4.52A16.46,16.46,0,0,1,181.15,164Z"/><polyline class="cls-7" points="190.18 165.49 190.18 173.03 184.32 180.4"/><polyline class="cls-7" points="196.03 180.4 190.18 173.03 190.18 179.1"/><polyline class="cls-7" points="137.76 128.78 129.09 160.01 129.09 173.03 134.94 180.4"/><path class="cls-6" d="M152,164c-1.25,1.34-5.19,1.87-9.68,1.16-5.27-.83-9.29-3-9-4.93a1.32,1.32,0,0,1,.12-.37l1.42-10.17c.42,1.76,4.19,3.65,9,4.4a21.84,21.84,0,0,0,6.42.14,16.4,16.4,0,0,0-.13,2.07,16.69,16.69,0,0,0,.62,4.52A16.46,16.46,0,0,0,152,164Z"/><path class="cls-8" d="M150.74,160.85c1.15.78,1.77,1.62,1.65,2.41a1.46,1.46,0,0,1-.4.77"/><path class="cls-8" d="M183,160.38a16.4,16.4,0,0,1-1.58,4,1.75,1.75,0,0,1-.84-1.14C180.46,162.3,181.39,161.27,183,160.38Z"/><line class="cls-7" x1="134.94" y1="149.17" x2="134.87" y2="149.71"/><line class="cls-7" x1="133.44" y1="159.87" x2="133.42" y2="160.01"/><polyline class="cls-7" points="123.23 180.4 129.09 173.03 129.09 179.1"/><polyline class="cls-7" points="142.97 165.49 142.97 173.03 148.82 180.4"/><polyline class="cls-7" points="137.11 180.4 142.97 173.03 142.97 179.1"/><polyline class="cls-7" points="195.45 128.78 204.13 160.01 204.13 173.03 198.27 180.4"/><polyline class="cls-7" points="209.99 180.4 204.13 173.03 204.13 179.1"/><line class="cls-7" x1="176.64" y1="171.15" x2="180.49" y2="180.41"/><line class="cls-7" x1="156.41" y1="171.15" x2="152.78" y2="180.41"/><path class="cls-5" d="M147.72,97.78c4.18-12.14,6.27-18.2,10.83-20.43A13.37,13.37,0,0,1,166.91,76c8.91,1.72,16.33,14.56,12.61,24.81-2.39,6.6-9.55,12.54-14.81,11.38s-9-9.93-14.39-9.32c-.63.07-2,.35-2.74-.41C146.51,101.37,147.32,99,147.72,97.78Z"/><path class="cls-9" d="M153.76,93.41s3.7,2.67,6.85,0"/><path class="cls-9" d="M158.9,108.19a8.93,8.93,0,0,0,4-2.63c.18-.19.34-.38.49-.56"/><path class="cls-10" d="M169.3,89.52c-11.85-.42-17.78-.63-18.73-3.1-1.32-3.4,4-13.52,11.42-15.83,7.61-2.39,13.72,4.68,15.31,6.52,1,1.17,12.34,17.44,11,20.18-4.93,9.86-16.67,3.2-17.36.93-.49-1.6,3.59-4.53,3-6.83C173.4,89.65,170.6,89.56,169.3,89.52Z"/><path class="cls-4" d="M179.82,90c.23,5.56-5.37,9.56-5,9.82s6.36-3.13,7.28-8.68c1-5.82-4.13-11.35-4.52-11.19-.14.06.29.88,1,3.66A37.42,37.42,0,0,1,179.82,90Z"/><path class="cls-4" d="M174.1,90.22c2.83,1.88,1.34,7.81,1.68,7.63s2.37-6.21.26-9-8-.95-8.16-.58c-.06.13.6.1,2.38.56A15.26,15.26,0,0,1,174.1,90.22Z"/><path class="cls-4" d="M157.17,73.86C157,73,161.4,70.1,166,70.68c4,.5,6.7,3.42,6.59,3.62s-2.14-2-5.23-2c-3.28,0-5,2.48-8.89,2C157.85,74.23,157.24,74.16,157.17,73.86Z"/><path class="cls-11" d="M169.72,96.81c-.06-.2,2.95-3.3,4.57-3a1.46,1.46,0,0,1,.78.37c.94.89.47,3.07-1.21,4.43s-3.85,1.15-3.95.74C169.33,97,170.12,98.14,169.72,96.81Z"/><path class="cls-4" d="M173.63,96.1a6.72,6.72,0,0,0-1.73,1.29"/><rect class="cls-8" x="156.73" y="108.25" width="1.37" height="51.63" rx="0.69" ry="0.69"/><rect class="cls-8" x="175.92" y="108.02" width="1.37" height="51.18" rx="0.69" ry="0.69"/><path class="cls-6" d="M150.17,132.7h33a.07.07,0,0,1,.07.07v10.79a16.56,16.56,0,0,1-16.56,16.56h0a16.56,16.56,0,0,1-16.56-16.56V132.76a.07.07,0,0,1,.07-.07Z"/><path class="cls-8" d="M153.91,152.19c-.16,1-1.57,1.75-3.66,2.06a21.84,21.84,0,0,1-6.42-.14c-4.78-.76-8.54-2.64-9-4.4a1.38,1.38,0,0,1,0-.53c.3-1.89,4.81-2.75,10.07-1.92a20.63,20.63,0,0,1,6.71,2.14C153.18,150.27,154.06,151.27,153.91,152.19Z"/><path class="cls-8" d="M179.23,152.19c.16,1,1.57,1.75,3.66,2.06a21.84,21.84,0,0,0,6.42-.14c4.78-.76,8.54-2.64,9-4.4a1.38,1.38,0,0,0,0-.53c-.3-1.89-4.81-2.75-10.07-1.92a20.63,20.63,0,0,0-6.71,2.14C180,150.27,179.09,151.27,179.23,152.19Z"/><path class="cls-8" d="M183.53,157.64a16.65,16.65,0,0,1-.5,4.05,16.4,16.4,0,0,1-1.58,4,16.74,16.74,0,0,1-4.81,5.45h0a16.69,16.69,0,0,1-26.51-13.52,16.73,16.73,0,0,1,1.5-6.93,16.7,16.7,0,0,1,31.9,6.93Z"/><path class="cls-12" d="M146,136.16a49.82,49.82,0,0,1-9.39-1,44.2,44.2,0,0,1-11.49-3.75c-3.11-1.62-4.05-3-3.91-3.77.21-1.06,2.67-2.13,7.71-2.13a49.79,49.79,0,0,1,9.39,1,44.2,44.2,0,0,1,11.49,3.75c3.11,1.62,4.05,3,3.91,3.77C153.47,135.09,151,136.16,146,136.16Z"/><path d="M128.9,124.83v1.37a49.1,49.1,0,0,1,9.26,1,43.5,43.5,0,0,1,11.3,3.69c3.12,1.63,3.59,2.81,3.55,3-.1.49-2,1.57-7,1.57a49.11,49.11,0,0,1-9.26-1,43.5,43.5,0,0,1-11.31-3.69c-3.12-1.63-3.59-2.81-3.55-3,.1-.49,2-1.57,7-1.57v-1.37m0,0c-4.73,0-8,.94-8.38,2.68-.54,2.76,6.59,6.49,15.94,8.33a50.41,50.41,0,0,0,9.52,1c4.73,0,8-.94,8.38-2.68.54-2.76-6.59-6.49-15.94-8.33a50.41,50.41,0,0,0-9.52-1Z"/><line class="cls-7" x1="137.54" y1="129.65" x2="137.11" y2="130.95"/><path class="cls-12" d="M187.68,138.33c-5,0-7.5-1.07-7.71-2.13-.15-.76.8-2.15,3.91-3.77a44.21,44.21,0,0,1,11.49-3.75,49.79,49.79,0,0,1,9.39-1c5,0,7.5,1.07,7.71,2.13.15.76-.8,2.15-3.91,3.77a44.2,44.2,0,0,1-11.49,3.75,49.78,49.78,0,0,1-9.39,1Z"/><path d="M204.75,128.37c5,0,6.94,1.08,7,1.57.17.88-4,4.58-14.86,6.72a49.1,49.1,0,0,1-9.26,1c-5,0-6.94-1.08-7-1.57,0-.23.43-1.4,3.55-3a43.51,43.51,0,0,1,11.31-3.69,49.1,49.1,0,0,1,9.26-1m0-1.37a50.41,50.41,0,0,0-9.52,1c-9.34,1.84-16.48,5.56-15.94,8.33.34,1.74,3.65,2.68,8.38,2.68a50.41,50.41,0,0,0,9.52-1c9.34-1.84,16.48-5.56,15.94-8.33-.34-1.74-3.65-2.68-8.38-2.68Z"/><line class="cls-7" x1="196.1" y1="131.82" x2="196.54" y2="133.12"/><rect class="cls-11" x="156.5" y="132.92" width="1.83" height="2.97" rx="0.91" ry="0.91"/><rect class="cls-11" x="175.69" y="132.92" width="1.83" height="2.97" rx="0.91" ry="0.91"/><path class="cls-4" d="M69.45,93h0a13.48,13.48,0,0,1,13.48,13.48V124a9.56,9.56,0,0,1-9.56,9.56H66.21A10.23,10.23,0,0,1,56,123.38V106.52A13.48,13.48,0,0,1,69.45,93Z"/><path class="cls-5" d="M75.46,97.11C79,94.18,82,89.38,86.07,89.83c.63.07,2,.35,2.74-.41,1.07-1.07.27-3.49-.14-4.66-4.18-12.14-6.27-18.2-10.83-20.43A13.37,13.37,0,0,0,69.49,63c-8.91,1.72-16.33,14.56-12.61,24.81,2.39,6.6,9.55,12.54,14.81,11.38a9.18,9.18,0,0,0,3.78-2"/><path class="cls-9" d="M81.27,81.53s-3.7,2.67-6.85,0"/><path class="cls-9" d="M75.09,96.45a2.86,2.86,0,1,1,4-4"/><path class="cls-6" d="M70.24,44.64c-2.16-5.26-13.83-34.25-5.54-41,3.31-2.7,11-2.79,13.91,1C80.2,6.68,80,9.4,79.87,11c-1.44,17.35-4.94,20.49-4.26,28.09.87,9.7,9,11.09,9.38,23,.46,5.25.23,6.17-4.09,10.44C62.37,87.46,62.14,90.43,54.15,75,52.38,71.47,59.94,66.27,59,58.8c-.67-5.61-4.8-6.07-5-11.05-.21-6.87,7.54-8.77,7.59-15.15,0-7-9.15-8.29-9.7-16.73C51.6,10,55.73,5.42,56.41,4.66c5-5.48,13-4.63,20.74-1.46"/><path class="cls-6" d="M56,68.67c-4.19,4.17-5.79,14.22-3,17.65.85,1.77,3.07,5,5.93,5s7.4-1.9,7.87-8.68c.14-2.05,2-3,3.68-4,1.41-.92,2.14-.68,2.14-.68"/><path class="cls-11" d="M68.76,85.91c.09-.19-2.32-3.77-4-3.79a1.46,1.46,0,0,0-.84.23c-1.08.71-1,2.94.42,4.58s3.59,1.81,3.76,1.43C69.11,86.17,68.13,87.15,68.76,85.91Z"/><path class="cls-4" d="M65.26,84.56a6.72,6.72,0,0,1,1.48,1.57"/><path class="cls-4" d="M80.89,63.7c.23,5.56-5.37,9.56-5,9.82s6.36-3.13,7.28-8.68c1-5.82-4.13-11.35-4.52-11.19-.14.06.29.88,1,3.66A37.42,37.42,0,0,1,80.89,63.7Z"/><path class="cls-4" d="M57.9,15c-.23,5.56,5.37,9.56,5,9.82s-6.36-3.13-7.28-8.68c-1-5.82,4.13-11.35,4.52-11.19.14.06-.29.88-1,3.66A37.42,37.42,0,0,0,57.9,15Z"/><path class="cls-3" d="M76,179.3H62.71a14.21,14.21,0,0,1-14.22-17.09l7-36.77c.65-3.42,5.29,3.14,10.37,3.14h7c5.07,0,9.71-6.57,10.36-3.14l7,36.77A14.22,14.22,0,0,1,76,179.3Z"/><path class="cls-4" d="M57.67,100.05c-.32.66-.29.64-.49,1s-2.51,5-5.17,6.27c-6.85,3.21-12.27-2.75-12.32-2.81a3.92,3.92,0,0,0-5.86,5.21,21.23,21.23,0,0,0,6.06,4.47,17.26,17.26,0,0,0,15.46.23c6.24-2.93,8.39-7.33,9.08-10.63"/><path class="cls-11" d="M65.44,119.89a20.19,20.19,0,0,1-9-2.2,23.84,23.84,0,0,1-6.85-5.05,3.88,3.88,0,1,1,5.8-5.16c.17.19,4.23,4.62,10.06,4.62a12,12,0,0,0,5.1-1.17c3.3-1.55,5.28-3.68,5.87-6.34a6,6,0,0,1,.48-1.28,3.72,3.72,0,0,1,3.44-2.18,4.07,4.07,0,0,1,3,1.31,3.55,3.55,0,0,1,.84,2.86c0,.08-.06.36-.06.36-.68,3.73-3,8.89-10.28,12.3a19.72,19.72,0,0,1-8.41,1.93Z"/><path d="M80.34,100.43v1.37a3.37,3.37,0,0,1,2.5,1.08,2.88,2.88,0,0,1,.67,2.33c0,.07,0,.14,0,.21l0,.12c-.65,3.57-2.89,8.52-9.9,11.81a19,19,0,0,1-8.12,1.87,19.52,19.52,0,0,1-8.7-2.12,23.25,23.25,0,0,1-6.64-4.9,3.2,3.2,0,1,1,4.78-4.25c.18.2,4.39,4.84,10.57,4.84a12.63,12.63,0,0,0,5.39-1.24c3.5-1.64,5.6-3.93,6.25-6.81a5.35,5.35,0,0,1,.42-1.13,3.05,3.05,0,0,1,2.82-1.8v-1.37m0,0A4.41,4.41,0,0,0,76.29,103a6.72,6.72,0,0,0-.53,1.43c-.55,2.44-2.4,4.42-5.49,5.87a11.23,11.23,0,0,1-4.81,1.11c-5.57,0-9.5-4.33-9.55-4.39a4.57,4.57,0,1,0-6.83,6.07,24.74,24.74,0,0,0,7.06,5.21,20.88,20.88,0,0,0,9.31,2.27,20.38,20.38,0,0,0,8.7-2c7.53-3.53,10-8.91,10.66-12.8l0-.12q0-.14,0-.28a4.39,4.39,0,0,0-4.53-4.94Z"/><path class="cls-6" d="M71.91,169.77l.17,8.8c0,.86,0,1.72,0,2.58-.05,1.3.08,4,2,4.8,2.58,1.09,10,3.65,12.58,2.6s2.93-3.19,1.77-4a55.34,55.34,0,0,0-6.57-2.9,1,1,0,0,1-.62-.88L81,169.6"/><path class="cls-6" d="M59.34,172.06l.17,8.8c0,.86,0,1.72,0,2.58-.05,1.3.08,4,2,4.8,2.58,1.09,10,3.65,12.58,2.6s2.93-3.19,1.77-4a55.34,55.34,0,0,0-6.57-2.9,1,1,0,0,1-.62-.88l-.22-11.16"/><polyline class="cls-7" points="105.09 75.35 105.09 65.75 111.72 62.78 111.72 71.24"/><ellipse class="cls-10" cx="110.28" cy="72.3" rx="1.94" ry="1.05" transform="translate(-18.83 99.16) rotate(-45)"/><ellipse class="cls-10" cx="118.5" cy="62.71" rx="1.94" ry="1.05" transform="translate(-9.63 102.16) rotate(-45)"/><ellipse class="cls-10" cx="103.65" cy="76.19" rx="1.94" ry="1.05" transform="translate(-23.51 95.61) rotate(-45)"/><polyline class="cls-7" points="125.89 77.63 125.89 68.04 132.51 65.07 132.51 73.52"/><ellipse class="cls-10" cx="131.07" cy="74.59" rx="1.94" ry="1.05" transform="translate(-14.35 114.53) rotate(-45)"/><ellipse class="cls-10" cx="124.44" cy="78.47" rx="1.94" ry="1.05" transform="translate(-19.04 110.98) rotate(-45)"/><line class="cls-6" x1="120.05" y1="62.05" x2="119.95" y2="53.19"/><ellipse class="cls-10" cx="137.01" cy="49" rx="1.94" ry="1.05" transform="translate(5.48 111.23) rotate(-45)"/><polyline class="cls-7" points="138.55 48.34 138.45 39.48 141.19 37.65"/><path class="cls-11" d="M101.44,98.2a5.26,5.26,0,0,1-5.25-5.25V89.06a5.25,5.25,0,1,1,10.51,0v3.88A5.26,5.26,0,0,1,101.44,98.2Z"/><path d="M101.44,84.49A4.57,4.57,0,0,1,106,89.06v3.88a4.57,4.57,0,1,1-9.14,0V89.06a4.57,4.57,0,0,1,4.57-4.57m0-1.37h0a6,6,0,0,0-5.94,5.94v3.88a6,6,0,0,0,5.94,5.94h0a6,6,0,0,0,5.94-5.94V89.06a6,6,0,0,0-5.94-5.94Z"/><line class="cls-9" x1="105.92" y1="94.77" x2="102.58" y2="94.77"/><line class="cls-9" x1="106.69" y1="92.26" x2="102.58" y2="92.26"/><line class="cls-9" x1="106.69" y1="89.74" x2="102.58" y2="89.74"/><line class="cls-9" x1="105.92" y1="87.23" x2="102.58" y2="87.23"/><line class="cls-9" x1="100.3" y1="94.77" x2="96.96" y2="94.77"/><line class="cls-9" x1="100.3" y1="92.26" x2="96.19" y2="92.26"/><line class="cls-9" x1="100.3" y1="89.74" x2="96.19" y2="89.74"/><line class="cls-9" x1="100.3" y1="87.23" x2="96.96" y2="87.23"/><circle class="cls-9" cx="103.27" cy="100.25" r="1.37" transform="translate(-40.64 102.38) rotate(-45)"/><circle class="cls-13" cx="103.27" cy="182.96" r="1.37" transform="translate(-99.12 126.61) rotate(-45)"/><line class="cls-5" x1="103.27" y1="101.62" x2="103.27" y2="181.59"/><line class="cls-4" x1="101.9" y1="183.87" x2="89.1" y2="192.33"/><line class="cls-4" x1="104.18" y1="184.33" x2="117.2" y2="192.78"/><line class="cls-4" x1="104.87" y1="182.96" x2="108.98" y2="181.82"/><path d="M154.53,189.56c-2.18-3.8-7.14-4.43-11.07-4-5.32.58-10.47,2-15.87,1.57-4.59-.37-9.39-2.19-12.19-6s-3.4-8.7-4.16-13.21c-1.81-10.69-3.33-21.51-3.06-32.38.08-3,.34-6.05.3-9.08a39.16,39.16,0,0,0-1-8.09c-1.27-5.56-3.24-11-2.93-16.82,0-.73-1.1-.73-1.14,0-.26,4.89,1.08,9.61,2.28,14.3a52.85,52.85,0,0,1,1.52,7.55,51.79,51.79,0,0,1,.06,7.93,155.85,155.85,0,0,0,2.06,31.61c.74,4.76,1.26,9.8,2.89,14.36a15.47,15.47,0,0,0,8,9.07c4.26,2,9,2.26,13.67,1.79,2.56-.26,5.09-.74,7.63-1.16a17.32,17.32,0,0,1,7.73,0c1.89.56,6.85,3.63,3.67,5.63-2,1.24-4.11,2.15-6,3.57-1.63,1.26-3.18,3-3.4,5.15a3.65,3.65,0,0,0,.66,2.62c.7.92,2.78,1.69,2.25,3.1-.26.69.84,1,1.1.3.84-2.2-1.73-2.83-2.59-4.31-1.33-2.29,1.29-5,3-6.18s3.61-2.1,5.41-3.17S155.55,191.33,154.53,189.56Z"/><path d="M296,188.75c-5.81,2-11.31-1.62-15-5.81-1.55-1.74-2.85-4.21-5-5.24a6.17,6.17,0,0,0-3.5-.36c-1.5.19-3,.44-4.51.61a94.11,94.11,0,0,1-18.72.22,59.34,59.34,0,0,1-8.84-1.28c-2.56-.62-5.27-1.71-6.85-3.93A7.71,7.71,0,0,1,232.2,170a23.4,23.4,0,0,0,5.54,1.53,52.21,52.21,0,0,0,14.84.32,20.52,20.52,0,0,0,4.33-.77,2.69,2.69,0,0,0,1.22-4.59c-1.75-2-4.68-3.07-7.2-3.61a38.3,38.3,0,0,0-8.21-.67c-4.28,0-10.8.14-11.69,5.58,0,.1,0,.19,0,.29a10.31,10.31,0,0,1-1.51-1.15c-2.22-2-3.39-4.91-5.71-6.89a20.51,20.51,0,0,0-6.69-3.73c-6.37-2.19-13.23-1.5-19.8-.81-.72.08-.73,1.22,0,1.14,6.58-.69,13.47-1.41,19.83.89a18,18,0,0,1,7.36,4.78c1.9,2.12,3,4.71,5.43,6.4a12.33,12.33,0,0,0,1,.66c.21,4.49,4.62,7.44,8.72,8.51a58.1,58.1,0,0,0,9.5,1.41,94.11,94.11,0,0,0,10.14.35,95.1,95.1,0,0,0,11.58-.95c2-.28,3.93-.71,5.58.74a32.44,32.44,0,0,1,3,3.58c4.07,4.8,10.23,9.05,16.79,6.83C297,189.62,296.68,188.51,296,188.75ZM232.8,166.27c1.38-2.15,4.13-2.67,6.49-2.83,4.94-.33,10.73-.41,15.25,1.88a7.16,7.16,0,0,1,3.12,2.45c1,1.86-1.37,2.37-2.64,2.59a50.55,50.55,0,0,1-9.39.74,46.79,46.79,0,0,1-9-.93,19.24,19.24,0,0,1-4.54-1.48A4.64,4.64,0,0,1,232.8,166.27Z"/><rect class="cls-4" x="114.49" y="84.29" width="0.69" height="2.66" rx="0.34" ry="0.34" transform="translate(246.4 28.98) rotate(120)"/><rect class="cls-4" x="217.99" y="84.52" width="0.69" height="2.66" rx="0.34" ry="0.34" transform="matrix(0.5, 0.87, -0.87, 0.5, 183.51, -146.16)"/></g></g></svg>