<svg xmlns="http://www.w3.org/2000/svg" viewBox="0 0 291.28 167.79"><defs><style>.cls-1{fill:#ef8269;}.cls-12,.cls-13,.cls-2,.cls-3,.cls-4,.cls-5,.cls-6{fill:#fff;}.cls-11,.cls-12,.cls-13,.cls-14,.cls-16,.cls-17,.cls-2,.cls-4,.cls-5,.cls-6,.cls-7,.cls-8,.cls-9{stroke:#000;}.cls-11,.cls-12,.cls-13,.cls-15,.cls-16,.cls-17,.cls-2,.cls-6,.cls-8,.cls-9{stroke-miterlimit:10;}.cls-14,.cls-15,.cls-16,.cls-17,.cls-2,.cls-5,.cls-6,.cls-7,.cls-8,.cls-9{stroke-width:1.37px;}.cls-14,.cls-4,.cls-5,.cls-6,.cls-7,.cls-8,.cls-9{stroke-linecap:round;}.cls-14,.cls-4,.cls-5,.cls-7{stroke-linejoin:round;}.cls-4{stroke-width:1.14px;}.cls-14,.cls-16,.cls-9{fill:none;}.cls-10{font-size:21.7px;fill:#c77a62;font-family:HereJustNow-Out, Here Just Now;}.cls-11,.cls-13{stroke-width:0.23px;}.cls-12{stroke-width:0.28px;}.cls-15,.cls-17{fill:#efe8c3;}.cls-15{stroke:#efe8c3;}</style></defs><title>dok-terras</title><g id="Layer_2" data-name="Layer 2"><g id="HOME"><path class="cls-1" d="M5.12,123.58c3.32-19,30.82-27.83,56.2-35.64,37-11.39,48-6.47,86.82-13.25C213.53,63.24,227,41.42,253.24,52.75c24.42,10.53,41.91,41.93,34.73,62.6-4.64,13.34-19.45,19.43-48.89,31.07S192,165,167.79,165.16c-49.67.23-61-28.71-99.61-19.65-21,4.92-31.3,16.66-45.24,10.51C11.36,150.91,3,136,5.12,123.58Z"/><path class="cls-2" d="M185.67,108.61l-.39,8.8c0,.86-.06,1.72,0,2.58,0,1.3-.18,4-2.13,4.75-2.61,1-10.12,3.4-12.64,2.29s-2.85-3.26-1.67-4.06a55.34,55.34,0,0,1,6.64-2.74,1,1,0,0,0,.64-.87l.49-11.15"/><path class="cls-3" d="M128,98.43a19.72,19.72,0,0,1-8.41-1.93c-7.27-3.41-9.6-8.57-10.28-12.3a16.49,16.49,0,0,1,.22-6.84l7.4,2.52a8.65,8.65,0,0,0,.08,3.25c.6,2.66,2.57,4.79,5.87,6.34a12,12,0,0,0,5.1,1.17c5.89,0,10-4.57,10.06-4.62a3.88,3.88,0,0,1,5.81,5.16A24,24,0,0,1,137,96.24,20.21,20.21,0,0,1,128,98.43Z"/><path d="M110,78.25l6.15,2.09a9.25,9.25,0,0,0,.17,2.93c.65,2.88,2.75,5.17,6.25,6.81a12.63,12.63,0,0,0,5.39,1.24c6.19,0,10.4-4.65,10.58-4.85a3.2,3.2,0,1,1,4.78,4.25,23.24,23.24,0,0,1-6.64,4.9,19.52,19.52,0,0,1-8.7,2.12,19,19,0,0,1-8.12-1.87c-7-3.29-9.25-8.23-9.9-11.81a15.81,15.81,0,0,1,0-5.82m-1-1.77a16.75,16.75,0,0,0-.44,7.84c.71,3.89,3.13,9.27,10.66,12.8a20.38,20.38,0,0,0,8.7,2,20.88,20.88,0,0,0,9.31-2.27,24.74,24.74,0,0,0,7.06-5.21,4.57,4.57,0,0,0-6.83-6.07c0,.06-4,4.39-9.55,4.39a11.23,11.23,0,0,1-4.81-1.11c-3.1-1.45-4.95-3.43-5.49-5.87a7.85,7.85,0,0,1,.06-3.62l0,.06L109,76.48Z"/><line class="cls-4" x1="201.86" y1="100.85" x2="201.4" y2="62.58"/><polygon class="cls-5" points="232.05 61.54 201.51 50.7 201.51 47.5 232.05 58.35 232.05 61.54"/><polygon class="cls-5" points="232.05 67.48 201.51 56.64 201.51 53.44 232.05 64.29 232.05 67.48"/><polygon class="cls-5" points="232.05 73.42 201.51 62.58 201.51 59.38 232.05 70.23 232.05 73.42"/><polygon class="cls-4" points="227.77 85.76 197.57 76.15 201.21 75.16 231.4 84.77 227.77 85.76"/><polygon class="cls-4" points="221.02 87.6 190.82 77.98 194.46 77 224.65 86.61 221.02 87.6"/><polygon class="cls-4" points="214.27 89.43 184.07 79.82 187.71 78.83 217.91 88.44 214.27 89.43"/><polygon class="cls-4" points="207.52 91.27 177.32 81.65 180.96 80.67 211.16 90.28 207.52 91.27"/><line class="cls-5" x1="232.13" y1="72.63" x2="232.13" y2="111.93"/><line class="cls-5" x1="207.68" y1="91.36" x2="207.68" y2="119.69"/><rect class="cls-6" x="114.35" y="108.3" width="25.44" height="9.14" rx="4.57" ry="4.57" transform="translate(-25.54 38.07) rotate(-15.5)"/><path class="cls-7" d="M127.84,130.33l-2,8.57c-.2.84-.41,1.67-.66,2.49-.37,1.24-.91,3.88.76,5.15,2.23,1.7,8.81,6,11.54,5.64s3.63-2.36,2.71-3.45a55.34,55.34,0,0,0-5.65-4.44,1,1,0,0,1-.38-1l2.56-10.86"/><path class="cls-3" d="M135.1,132.35a13.49,13.49,0,0,1-3-.39c-2.63-.62-4-1.56-4.19-1.94a3.44,3.44,0,0,1,1.6-.26,13.51,13.51,0,0,1,3,.39c2.63.62,4,1.56,4.19,1.94A3.43,3.43,0,0,1,135.1,132.35Z"/><path d="M129.73,130.45a13.42,13.42,0,0,1,2.63.37,13.25,13.25,0,0,1,2.52.85,13.42,13.42,0,0,1-2.63-.37,13.25,13.25,0,0,1-2.52-.85m-.23-1.37c-1.29,0-2.18.27-2.3.78-.2.87,1.91,2.11,4.73,2.78a14.22,14.22,0,0,0,3.17.41c1.29,0,2.18-.27,2.3-.78.2-.87-1.91-2.11-4.73-2.78a14.22,14.22,0,0,0-3.17-.41Z"/><path class="cls-5" d="M131.24,112.38c-.69.46-2.51,13.25-2.28,18l6.4,1.6s8.68-21.25,2.28-24.9"/><rect class="cls-6" x="124.4" y="112.41" width="25.44" height="9.14" rx="4.57" ry="4.57" transform="translate(-26.28 40.91) rotate(-15.5)"/><path class="cls-7" d="M137.89,134.44l-2,8.57c-.2.84-.41,1.67-.66,2.49-.37,1.24-.91,3.88.76,5.15,2.23,1.7,8.81,6,11.54,5.64s3.63-2.36,2.71-3.45a55.34,55.34,0,0,0-5.65-4.44,1,1,0,0,1-.38-1l2.56-10.86"/><path class="cls-2" d="M199.15,108.83l-.39,8.8c0,.86-.06,1.72,0,2.58,0,1.3-.18,4-2.13,4.75-2.61,1-10.12,3.4-12.64,2.29s-2.85-3.26-1.67-4.06a55.34,55.34,0,0,1,6.64-2.74,1,1,0,0,0,.64-.87l.49-11.15"/><line class="cls-5" x1="111.36" y1="119.47" x2="111.36" y2="145.74"/><polygon class="cls-4" points="137.84 129.63 107.64 120.01 111.28 119.03 141.48 128.64 137.84 129.63"/><polygon class="cls-4" points="131.09 131.46 100.89 121.85 104.53 120.86 134.73 130.47 131.09 131.46"/><polygon class="cls-4" points="124.34 133.3 94.14 123.68 97.78 122.7 127.98 132.31 124.34 133.3"/><polygon class="cls-4" points="117.59 135.13 87.4 125.52 91.03 124.53 121.23 134.15 117.59 135.13"/><line class="cls-5" x1="141.29" y1="129.06" x2="141.29" y2="155.33"/><path class="cls-8" d="M139.12,124.87l-30.17,8.42a2.61,2.61,0,0,1-.79.1,12.09,12.09,0,0,1-11.65-12V109.18a2.66,2.66,0,0,1,3.41-2.57l16.37,4.31a2.75,2.75,0,0,0,.64.09c1.36,0,4.89.21,7.18.34.83,0,9.61,5,15.64,8.49A2.75,2.75,0,0,1,139.12,124.87Z"/><path class="cls-6" d="M110,79.58h0a13.48,13.48,0,0,1,13.48,13.48v17.53a9.56,9.56,0,0,1-9.56,9.56h-7.17a10.23,10.23,0,0,1-10.23-10.23V93.06A13.48,13.48,0,0,1,110,79.58Z"/><line class="cls-5" x1="177.53" y1="81.77" x2="177.53" y2="110.33"/><path class="cls-2" d="M130.59,67.42c-4.18-12.14-6.27-18.2-10.83-20.43a13.37,13.37,0,0,0-8.36-1.37c-8.91,1.72-16.33,14.56-12.61,24.81,2.39,6.6,9.55,12.54,14.81,11.38s9-9.93,14.39-9.32c.63.07,2,.35,2.74-.41C131.79,71,131,68.59,130.59,67.42Z"/><path class="cls-9" d="M124.54,63s-3.7,2.67-6.85,0"/><path class="cls-9" d="M119.41,77.83a8.93,8.93,0,0,1-4-2.63c-.18-.19-.34-.38-.49-.56"/><path d="M1.39,9.76H6.62c.67,0,1.35,0,2,0s1.1,0,1.65.11a7.62,7.62,0,0,1,3,.86,5.91,5.91,0,0,1,1.6,1.38A6.85,6.85,0,0,1,16.22,15a11,11,0,0,1,.2,1.32,8.88,8.88,0,0,1,.07,1.14,12.18,12.18,0,0,1-.28,2.55,8.42,8.42,0,0,1-.75,2.07,5.92,5.92,0,0,1-1.83,2.09,6.28,6.28,0,0,1-2.59,1,8.56,8.56,0,0,1-1.38.11l-8.26,0Zm5,3.68v8.39c.85,0,1.68,0,2.52-.11a2.43,2.43,0,0,0,2-1.4,5.74,5.74,0,0,0,.62-2.65,6.79,6.79,0,0,0-.07-1,5,5,0,0,0-.62-2,2.09,2.09,0,0,0-1.37-1.09,7.26,7.26,0,0,0-1.23-.18C7.59,13.42,7,13.44,6.38,13.44Z"/><path d="M50.58,7.14a1,1,0,0,1,.1.36c0,.26.14.43.27.61a7.05,7.05,0,0,0,.43.58c.16.19,0,.38,0,.54-.26.81-.55,1.61-.82,2.42-.07.2-.12.4-.2.6a2.31,2.31,0,0,0-.14.78,1.32,1.32,0,0,0,.07.63.19.19,0,0,1,0,.18,3.11,3.11,0,0,1-.44.19s-.07,0-.1,0a.52.52,0,0,1-.05-.77.21.21,0,0,0,.09-.12c0-.21,0-.41,0-.62,0-.68.07-1.36.11-2,0-.35.05-.69.07-1a.91.91,0,0,0-.07-.24l-3.34,4c.21.15.13.26,0,.39a5.94,5.94,0,0,0-.39.46L45.9,14c-.27.33-.54.67-.82,1s-.39.41-.58.62a.14.14,0,0,0,0,.13l1.81,3,1.45,2.41,1.61,2.67.95,1.59H44.89a.29.29,0,0,1-.29-.16L44,24.12l-1.5-2.71-.85-1.57-.38-.67-.84,1-.4.45c-.3.32-.6.64-.89,1a.54.54,0,0,0-.13.32c0,1.16,0,2.32,0,3.49H34V9.77h4.92v5.68l.48-.54.06-.07a.32.32,0,0,1,.45-.12c.27.12.56.2.85.3A.19.19,0,0,0,41,15c.2-.21.43-.38.62-.6s.57-.66.85-1l.2-.23a1.2,1.2,0,0,0,.29-.64c0-.09.11-.16.08-.27a.42.42,0,0,1,0-.16s0-.08,0-.1l.24-.21.13.19.49-.39c.06,0,.13-.07.18-.12s.18-.08.13-.21.07-.1.11-.13L47.05,9.2l2.47-1.76s.06-.06.1-.06a3.17,3.17,0,0,0,.85-.25ZM49.07,9.48l0,0-4.5,2.76.28.52-.17.09c.08.13.05.22-.09.25l.08.16-.13,0c0,.05,0,.13,0,.14l-.33,0s0,.1,0,.16c-.06.22-.26.4-.13.67s.14.25.36.12c-.1-.16-.09-.22,0-.36l.57-.64a.76.76,0,0,1,.22-.19c.06,0,.06-.06.08-.1.16-.22.34-.43.53-.64,0,0,.1,0,.14,0l.28.13Zm2.27-.53h-.66c-.11,0-.18,0-.09.16s0,.12,0,.18,0,.06,0,.1c-.05.52-.1,1-.15,1.57,0,.2-.05.39-.07.59s0,.41,0,.61h0Zm-.68-1.09-.1,1h.76Z"/><path d="M25.19,9.2a9.5,9.5,0,0,1,3.5.58A7.06,7.06,0,0,1,30.79,11a7.37,7.37,0,0,1,1.76,2.17,7.86,7.86,0,0,1,.85,2.47c.06.39.11.78.14,1.17a7,7,0,0,1,0,1,10.42,10.42,0,0,1-.36,2.33A8.38,8.38,0,0,1,32,22.7a7.26,7.26,0,0,1-2.3,2.1,7.42,7.42,0,0,1-2.1.82,11.64,11.64,0,0,1-1.33.21,10.91,10.91,0,0,1-1.4.07,8.91,8.91,0,0,1-4.23-1,6.79,6.79,0,0,1-1.89-1.54,7.62,7.62,0,0,1-1.06-1.63,8.86,8.86,0,0,1-.75-2.41,10,10,0,0,1-.14-2.11,8.4,8.4,0,0,1,.37-2.26,14.62,14.62,0,0,1,.61-1.57,6.79,6.79,0,0,1,1.06-1.56,7.12,7.12,0,0,1,2.55-1.84,7.21,7.21,0,0,1,2-.58C24,9.28,25.19,9.19,25.19,9.2Zm3.39,8.2c0-.2,0-.4-.05-.6a4.49,4.49,0,0,0-.34-1.62,3.05,3.05,0,0,0-2.31-1.95,3.32,3.32,0,0,0-2,.21A3.44,3.44,0,0,0,21.94,16a7.42,7.42,0,0,0-.16,1.87,5.92,5.92,0,0,0,.37,2.09A3.05,3.05,0,0,0,23,21.22a3.34,3.34,0,0,0,2.79.63,3,3,0,0,0,2.28-1.94A6.78,6.78,0,0,0,28.58,17.4Z"/><text class="cls-10" transform="translate(0 45.59)">TERRAS</text><polygon class="cls-5" points="117.67 105.41 87.14 94.56 87.14 91.36 117.67 102.21 117.67 105.41"/><polygon class="cls-5" points="117.67 111.35 87.14 100.5 87.14 97.3 117.67 108.15 117.67 111.35"/><polygon class="cls-5" points="117.45 117.98 86.91 107.13 86.91 103.93 117.45 114.78 117.45 117.98"/><line class="cls-4" x1="87.49" y1="159.79" x2="87.03" y2="106.33"/><line class="cls-5" x1="117.41" y1="116.84" x2="117.41" y2="167.1"/><path class="cls-3" d="M145.15,136.47a13.48,13.48,0,0,1-3-.39c-2.63-.62-4-1.56-4.19-1.94a3.43,3.43,0,0,1,1.6-.26,13.49,13.49,0,0,1,3,.39c2.63.62,4,1.56,4.19,1.94A3.45,3.45,0,0,1,145.15,136.47Z"/><path d="M139.78,134.57a13.43,13.43,0,0,1,2.63.37,13.25,13.25,0,0,1,2.52.85,13.42,13.42,0,0,1-2.63-.37,13.25,13.25,0,0,1-2.52-.85m-.23-1.37c-1.29,0-2.18.27-2.3.78-.2.87,1.91,2.11,4.73,2.78a14.22,14.22,0,0,0,3.17.41c1.29,0,2.18-.27,2.3-.78.2-.87-1.91-2.11-4.73-2.78a14.22,14.22,0,0,0-3.17-.41Z"/><path class="cls-5" d="M141.29,116.5c-.69.46-2.51,13.25-2.28,18l6.4,1.6s8.68-21.25,2.28-24.9"/><path class="cls-11" d="M42,80.74"/><path class="cls-11" d="M128.38,49C126.1,55.15,115.13,59,110.79,64.29c-.88,1.06-1.42,2.45-2.46,4.08-1.19,24.25-4.16,17.4-6.91,26.54s4.11,8.91,2.51,18.51-8.07,12.85-13.71,14.85c-4.3,1.53-11.78,2.51-14.62-1.14-1.68-2.16-.7-4.59-.46-8.45C76,105,65.84,101.4,67.84,92.16c1.57-7.27,8.36-7.33,10.51-16a20.38,20.38,0,0,0-1.23-13.34c-1.51-3.34-1.74-8.13,3.05-11.33,3.2-1.6,2.89-.91,7.5-1.82s8.15-10.32,17.52-12.46C115.34,34.91,130.67,42.81,128.38,49Z"/><path class="cls-3" d="M110.82,66.65c.15-.15-1-4.32-2.52-4.87a1.46,1.46,0,0,0-.87-.05c-1.25.32-1.91,2.45-1.09,4.47.74,1.84,2.81,2.87,3.09,2.57C111.07,67,109.83,67.62,110.82,66.65Z"/><path class="cls-6" d="M107.95,64.24a6.72,6.72,0,0,1,.88,2"/><path class="cls-5" d="M124.63,44.6C119,41,118.8,39.83,108.49,39.31a44.78,44.78,0,0,0-6.47.31c-1.51.16-1.65.24-1.65.29,0,.35,5.14.35,11.83,1.92,3,.71,4.56,1.07,5.93,1.87,2.25,1.32,3.39,2.9,4.84,2.57C123.75,46.1,125.73,45.32,124.63,44.6Z"/><path class="cls-6" d="M94.72,105.72c-2.22-2,3-16.63,3.43-17.82,1.05-2.92,2.05-5.12,3.22-5.27a1.32,1.32,0,0,1,1.41,1c.53,2-3,4.4-4.62,9.84-1.65,5.63.11,10.15-1.68,11.91A1.33,1.33,0,0,1,94.72,105.72Z"/><path class="cls-3" d="M110.82,66.65c.15-.15-1-4.32-2.52-4.87a1.46,1.46,0,0,0-.87-.05c-1.25.32-1.91,2.45-1.09,4.47.74,1.84,2.81,2.87,3.09,2.57C111.07,67,109.83,67.62,110.82,66.65Z"/><path class="cls-6" d="M107.95,64.24a6.72,6.72,0,0,1,.88,2"/><path class="cls-8" d="M189.82,112.52a4,4,0,0,1-3.13,3.25c-3.89.84-11,1.88-14.39-.7-3.88-3,5.2-28.88,8.82-38.68A4,4,0,0,1,186.26,74l12.09,4.29a4,4,0,0,0,2.61,0l5-1.64a4,4,0,0,1,3.21.31l2.23,1.23a4,4,0,0,1,0,7.07A27.82,27.82,0,0,1,197.47,89a4.06,4.06,0,0,0-4.12,3.34Z"/><rect class="cls-2" x="175.24" y="65.55" width="39.07" height="8.22" rx="4.11" ry="4.11" transform="translate(48.57 215.99) rotate(-64.7)"/><path class="cls-6" d="M210.88,43.48h0A13.48,13.48,0,0,1,224.36,57V74.49a9.56,9.56,0,0,1-9.56,9.56h-7.17A10.23,10.23,0,0,1,197.4,73.82V57A13.48,13.48,0,0,1,210.88,43.48Z"/><path class="cls-8" d="M204.13,111.81a4,4,0,0,1-2.66,3.65c-3.73,1.36-10.64,3.36-14.35,1.27-4.25-2.4,1.21-29.32,3.46-39.52a4,4,0,0,1,4.76-3.09l12.56,2.6a4,4,0,0,0,2.59-.32l4.75-2.31a4,4,0,0,1,3.22-.14l2.37.92a4,4,0,0,1,1,7,27.82,27.82,0,0,1-13.3,5.6,4.06,4.06,0,0,0-3.63,3.87Z"/><path class="cls-2" d="M186.11,34.52c4.18-12.14,6.27-18.2,10.83-20.43a13.37,13.37,0,0,1,8.36-1.37c8.91,1.72,16.33,14.56,12.61,24.81-2.39,6.6-9.55,12.54-14.81,11.38s-9-9.93-14.39-9.32c-.63.07-2,.35-2.74-.41C184.9,38.11,185.7,35.69,186.11,34.52Z"/><path class="cls-9" d="M192.15,30.15s3.7,2.67,6.85,0"/><path class="cls-9" d="M197.29,44.93a8.93,8.93,0,0,0,4-2.63c.18-.19.34-.38.49-.56"/><path d="M226.4,47.34a37.42,37.42,0,0,1-9.93-1.73l-.2-.05c-10.56-2.82-15.94-15.78-19.49-24.35A56.07,56.07,0,0,0,193.95,15a2.79,2.79,0,0,1,0-3c2.23-3.91,12.8-7.61,21.75-7.61a22,22,0,0,1,4.83.48c6.31,1.44,9.86,5.11,13,8.36s5.61,5.81,9.89,5.81h.22c6.66-.14,11-5.51,15.13-10.69,1.28-1.59,2.6-3.23,4-4.68A11.31,11.31,0,0,1,271,.11a11.14,11.14,0,0,1,6.37,2c8.64,6,16.36,19.32,13.05,26.38-1.7,3.63-10.84,4.52-20.52,5.47-8.24.81-16.75,1.64-20.79,4.3C239.4,44.63,232.62,47.34,226.4,47.34Z"/><path d="M271,.23a11,11,0,0,1,6.31,2,36.84,36.84,0,0,1,11,12.75c2.81,5.37,3.55,10.29,2.05,13.49-1.67,3.57-11.2,4.5-20.42,5.41-8.25.81-16.78,1.65-20.85,4.32-9.65,6.35-16.42,9.06-22.61,9.06a37.33,37.33,0,0,1-9.9-1.73l-.2-.05c-10.51-2.8-15.87-15.73-19.42-24.29A56,56,0,0,0,194,14.94a2.68,2.68,0,0,1,0-2.86c2.21-3.88,12.74-7.56,21.65-7.56a21.92,21.92,0,0,1,4.81.48c6.28,1.43,9.81,5.09,12.94,8.32s5.65,5.85,10,5.85h.22c6.71-.15,11-5.53,15.22-10.74,1.28-1.59,2.59-3.23,3.95-4.67A11.2,11.2,0,0,1,271,.23M271,0a11.37,11.37,0,0,0-8.3,3.6c-5.74,6.12-10.35,15.15-19,15.34h-.22c-8.68,0-10.5-11.36-22.86-14.17a22.21,22.21,0,0,0-4.86-.48c-10.57,0-25,5.47-21.87,10.76,3.66,6.17,8.6,26.94,22.39,30.61a38.47,38.47,0,0,0,10.16,1.79c5.52,0,12.05-2.07,22.74-9.1,8.68-5.71,38.14-3,41.35-9.82C293.83,21.41,286,8,277.4,2A11.28,11.28,0,0,0,271,0Z"/><path class="cls-6" d="M217,6.79c2.7-1.24,14,9.48,14.91,10.35,2.24,2.14,3.85,3.95,3.51,5.08a1.32,1.32,0,0,1-1.51.87c-2.07-.34-2.79-4.55-7.12-8.21-4.48-3.79-9.32-4-10.21-6.36A1.33,1.33,0,0,1,217,6.79Z"/><path class="cls-6" d="M240.62,40.61C233,43,232.46,44,220,42.32a64.79,64.79,0,0,1-7.65-1.69c-1.76-.48-1.91-.59-1.9-.64.08-.34,6.22.76,14.61.66,3.81,0,5.72-.07,7.55-.56,3-.8,4.77-2.1,6.43-1.47C240,39,242.11,40.15,240.62,40.61Z"/><path class="cls-3" d="M203.23,35.12c-.15-.15,1-4.32,2.52-4.87a1.46,1.46,0,0,1,.87-.05c1.25.32,1.91,2.45,1.09,4.47-.74,1.84-2.81,2.87-3.09,2.57C203,35.48,204.22,36.09,203.23,35.12Z"/><path class="cls-6" d="M206.33,32.71a6.72,6.72,0,0,0-.88,2"/><path class="cls-12" d="M272.43,2.6s11.29,7.17,11.83,16.3c.39,6.47-2.75,7.82-5.46,10.53s-1.19-1,1.28-3.9c2-2.33,2.34-6.9.45-10.48s-7.88-9.89-8-10S268.83,2.49,272.43,2.6Z"/><path class="cls-13" d="M82.29,67.47c-.59,3.09.36,4.32.42,7.86.05,3.35-.74,5.5-.41,5.59s1.07-1.54,1.5-3c.63-2.2.18-3.42-.07-7.12-.27-4,0-6.05-.38-6.09S82.54,66.17,82.29,67.47Z"/><path class="cls-14" d="M161,102.9l-.1,26.62s-.46,8.91-10.05,8.91"/><path class="cls-14" d="M160.84,103l.1,26.62s.46,8.91,10.05,8.91"/><path class="cls-5" d="M130,106.62l44.62,11.79a39.83,39.83,0,0,0,4.16-1.47l-49.35-13A10,10,0,0,0,130,106.62Z"/><path class="cls-5" d="M133.47,111.75l31.82,8.41a51.5,51.5,0,0,0,5.37-.77l-39.5-10.44A15.5,15.5,0,0,0,133.47,111.75Z"/><path class="cls-14" d="M158.38,120.35l-20.83-5.5C142.8,118,150.15,120.07,158.38,120.35Z"/><path class="cls-5" d="M134.8,93.56l55,14.54a10.83,10.83,0,0,0,1-2.79L138,91.36A24.92,24.92,0,0,0,134.8,93.56Z"/><path class="cls-5" d="M161,86.11l22.64,6C178.18,88.53,170.09,86.24,161,86.11Z"/><path class="cls-5" d="M140.63,90l50.46,13.33s0-.07,0-.11a9.85,9.85,0,0,0-.44-2.88l-45.57-12A38.14,38.14,0,0,0,140.63,90Z"/><path class="cls-5" d="M154.5,86.41a50.67,50.67,0,0,0-5.6.9l40.77,10.77a14.72,14.72,0,0,0-2.27-3Z"/><path class="cls-5" d="M131.05,97.72l55.35,14.62a17,17,0,0,0,2.34-2.51l-55.65-14.7A15,15,0,0,0,131.05,97.72Z"/><path class="cls-5" d="M129.5,101.9l52,13.75a27.37,27.37,0,0,0,2.94-1.8L130.15,99.5A10.24,10.24,0,0,0,129.5,101.9Z"/><line class="cls-14" x1="160.94" y1="138.66" x2="160.94" y2="129.52"/><path class="cls-3" d="M136.65,106.89a19.72,19.72,0,0,1-8.41-1.93c-7.27-3.41-9.6-8.57-10.28-12.3a16.46,16.46,0,0,1,.22-6.84l7.4,2.52a8.66,8.66,0,0,0,.08,3.25c.6,2.66,2.57,4.79,5.87,6.34a12,12,0,0,0,5.1,1.17c5.83,0,9.89-4.42,10.06-4.61a3.88,3.88,0,1,1,5.81,5.16,24,24,0,0,1-6.85,5.05A20.19,20.19,0,0,1,136.65,106.89Z"/><path d="M118.67,86.71l6.15,2.09a9.27,9.27,0,0,0,.16,2.93c.65,2.88,2.75,5.17,6.25,6.81a12.63,12.63,0,0,0,5.39,1.24c6.19,0,10.4-4.65,10.58-4.85A3.2,3.2,0,1,1,152,99.18a23.24,23.24,0,0,1-6.64,4.9,19.52,19.52,0,0,1-8.7,2.12,19,19,0,0,1-8.12-1.87c-7-3.29-9.25-8.23-9.9-11.81a15.81,15.81,0,0,1,0-5.82m-1-1.77a16.75,16.75,0,0,0-.44,7.84c.71,3.89,3.13,9.27,10.66,12.8a20.38,20.38,0,0,0,8.7,2A20.88,20.88,0,0,0,146,105.3a24.74,24.74,0,0,0,7.06-5.21A4.57,4.57,0,0,0,146.18,94c0,.06-4,4.39-9.55,4.39a11.23,11.23,0,0,1-4.81-1.11c-3.1-1.45-4.95-3.43-5.49-5.87a7.85,7.85,0,0,1,.06-3.62l0,.06-8.65-2.94Z"/><path class="cls-6" d="M117.59,96.89s-6.75-6.21-.37-11.64c4.75-4,8.61,1.21,10.26,4.15a3.34,3.34,0,0,1-.25,3.67C125.83,94.91,122.93,97.34,117.59,96.89Z"/><ellipse class="cls-2" cx="185.26" cy="67.13" rx="3.03" ry="1.93"/><line class="cls-6" x1="185.26" y1="57.74" x2="185.26" y2="66.84"/><ellipse class="cls-15" cx="185.26" cy="55.27" rx="4.77" ry="3.03"/><ellipse class="cls-16" cx="185.26" cy="51.67" rx="4.77" ry="3.03"/><line class="cls-2" x1="190.03" y1="57.59" x2="190.03" y2="51.67"/><ellipse class="cls-17" cx="185.26" cy="57.98" rx="4.77" ry="3.03"/><line class="cls-2" x1="180.5" y1="51.67" x2="180.5" y2="57.59"/><ellipse class="cls-2" cx="156.34" cy="100.03" rx="3.03" ry="1.93"/><line class="cls-6" x1="156.34" y1="90.64" x2="156.34" y2="99.74"/><ellipse class="cls-15" cx="156.34" cy="88.17" rx="4.77" ry="3.03"/><ellipse class="cls-16" cx="156.34" cy="84.57" rx="4.77" ry="3.03"/><line class="cls-2" x1="161.1" y1="90.49" x2="161.1" y2="84.57"/><ellipse class="cls-17" cx="156.34" cy="90.88" rx="4.77" ry="3.03"/><line class="cls-2" x1="151.57" y1="84.57" x2="151.57" y2="90.49"/><path class="cls-3" d="M200.7,75.59a20.21,20.21,0,0,1-9-2.2,24,24,0,0,1-6.85-5.05,3.88,3.88,0,0,1,5.81-5.16s4.12,4.62,10.06,4.62a12,12,0,0,0,5.1-1.17c3.3-1.55,5.28-3.68,5.87-6.34a8.63,8.63,0,0,0,.08-3.25l7.4-2.52a16.43,16.43,0,0,1,.22,6.84c-.68,3.73-3,8.89-10.28,12.3a19.72,19.72,0,0,1-8.41,1.93Z"/><path d="M218.66,55.41a16,16,0,0,1,.05,5.82c-.65,3.57-2.89,8.52-9.9,11.81a19,19,0,0,1-8.12,1.87,19.52,19.52,0,0,1-8.7-2.12,23.24,23.24,0,0,1-6.64-4.9,3.2,3.2,0,1,1,4.78-4.25c.18.2,4.39,4.84,10.57,4.84a12.63,12.63,0,0,0,5.39-1.24c3.5-1.64,5.6-3.93,6.25-6.81a9.27,9.27,0,0,0,.16-2.93l6.15-2.09m1-1.78L211,56.57l0-.06a7.85,7.85,0,0,1,.06,3.62c-.55,2.44-2.4,4.42-5.49,5.87a11.23,11.23,0,0,1-4.81,1.11c-5.57,0-9.5-4.33-9.55-4.39a4.57,4.57,0,1,0-6.83,6.07A24.74,24.74,0,0,0,191.39,74a20.88,20.88,0,0,0,9.31,2.27,20.38,20.38,0,0,0,8.7-2c7.53-3.53,10-8.91,10.66-12.8a16.75,16.75,0,0,0-.44-7.84Z"/><path class="cls-6" d="M210.08,58.5s-2.54-7.92,4.92-9.35c5.56-1.06,6.24,4.8,6.23,7.86a3,3,0,0,1-1.84,2.78C217.46,60.62,214.09,61.25,210.08,58.5Z"/></g></g></svg>