<svg xmlns="http://www.w3.org/2000/svg" viewBox="0 0 179.6 67.35"><title>Asset 1</title><g id="Layer_2" data-name="Layer 2"><g id="HOME"><g id="logo"><path d="M85.37,7.39A34.08,34.08,0,0,1,97.92,9.47a25.34,25.34,0,0,1,7.52,4.35,26.45,26.45,0,0,1,6.3,7.8,28.19,28.19,0,0,1,3,8.86c.22,1.39.39,2.78.52,4.18a25.24,25.24,0,0,1,.13,3.54,37.37,37.37,0,0,1-1.3,8.37,30.07,30.07,0,0,1-4.36,9.25,26,26,0,0,1-8.25,7.55A26.63,26.63,0,0,1,94,66.32a41.75,41.75,0,0,1-4.79.76,39.14,39.14,0,0,1-5,.26A32,32,0,0,1,69,63.59a24.37,24.37,0,0,1-6.76-5.53,27.32,27.32,0,0,1-3.8-5.85,31.8,31.8,0,0,1-2.67-8.66,36,36,0,0,1-.5-7.55,30.15,30.15,0,0,1,1.31-8.1,52.45,52.45,0,0,1,2.17-5.65,24.37,24.37,0,0,1,3.81-5.61A25.55,25.55,0,0,1,71.66,10a25.87,25.87,0,0,1,7.22-2.1C81,7.66,85.37,7.34,85.37,7.39ZM97.53,36.81c-.06-.72-.17-1.43-.18-2.15a16.1,16.1,0,0,0-1.21-5.8,11,11,0,0,0-8.29-7,11.9,11.9,0,0,0-7.32.74c-3.9,1.78-5.88,5.07-6.82,9.09a26.63,26.63,0,0,0-.56,6.7A21.24,21.24,0,0,0,74.5,45.9a11,11,0,0,0,3.18,4.62,12,12,0,0,0,10,2.27c4-.7,6.61-3.31,8.17-7A24.31,24.31,0,0,0,97.53,36.81Z"/><path d="M0,9.38c6.25,0,12.5,0,18.75,0,2.41,0,4.83,0,7.24.14,2,.08,4,.18,5.93.4A27.33,27.33,0,0,1,42.53,13a21.19,21.19,0,0,1,5.75,5,24.57,24.57,0,0,1,4.89,10.37,39.52,39.52,0,0,1,.7,4.74,31.84,31.84,0,0,1,.26,4.11,43.7,43.7,0,0,1-1,9.16,30.19,30.19,0,0,1-2.7,7.44,21.24,21.24,0,0,1-6.58,7.51A22.54,22.54,0,0,1,34.56,65a30.72,30.72,0,0,1-4.93.41c-9.87.08-19.75.11-29.62.15ZM17.88,22.59v30.1c3-.13,6-.17,9-.41,3.3-.26,5.48-2.26,7-5a20.6,20.6,0,0,0,2.23-9.49,24.36,24.36,0,0,0-.25-3.44,18,18,0,0,0-2.22-7.17,7.51,7.51,0,0,0-4.92-3.9,26,26,0,0,0-4.41-.64C22.23,22.51,20.07,22.59,17.88,22.59Z"/><path d="M176.46,0a3.71,3.71,0,0,1,.37,1.28c-.09.95.51,1.53,1,2.2a25.29,25.29,0,0,0,1.54,2.08c.56.68.16,1.35,0,2-.95,2.9-2,5.78-3,8.66-.24.71-.44,1.44-.71,2.14a8.3,8.3,0,0,0-.51,2.79,4.75,4.75,0,0,0,.27,2.27.67.67,0,0,1-.17.63,11.15,11.15,0,0,1-1.57.68c-.09,0-.25-.06-.36-.12a1.86,1.86,0,0,1-.19-2.75.76.76,0,0,0,.32-.42c.07-.74.11-1.48.15-2.22.13-2.44.26-4.88.4-7.32.07-1.24.19-2.47.25-3.71a3.28,3.28,0,0,0-.24-.87L162,21.64c.74.52.45.92,0,1.39a21.3,21.3,0,0,0-1.39,1.66l-.93-.24c-1,1.19-1.95,2.39-2.95,3.56-.66.77-1.39,1.48-2.07,2.23a.52.52,0,0,0,0,.48q3.22,5.37,6.48,10.73l5.2,8.64L172,59.68c1.12,1.86,2.22,3.73,3.4,5.7h-.7c-6.23,0-12.46,0-18.69,0a1,1,0,0,1-1-.58l-2.16-3.91q-2.7-4.87-5.39-9.73c-1-1.87-2-3.75-3.07-5.62-.43-.79-.89-1.57-1.36-2.4l-3,3.41-1.45,1.6c-1.07,1.16-2.16,2.29-3.19,3.48a1.93,1.93,0,0,0-.46,1.14c0,4.16,0,8.32,0,12.53H117.07V9.42h17.64V29.79l1.73-1.93a3.24,3.24,0,0,0,.2-.26,1.15,1.15,0,0,1,1.6-.43c1,.43,2,.73,3,1.08a.69.69,0,0,0,.85-.16c.71-.74,1.53-1.38,2.22-2.14,1.05-1.16,2-2.38,3-3.57.24-.28.47-.57.73-.83a4.3,4.3,0,0,0,1-2.29c.06-.31.4-.56.29-1a1.52,1.52,0,0,1,.08-.58c0-.13,0-.3.07-.37.25-.26.54-.49.86-.76l.45.68,1.76-1.39c.2-.16.45-.26.64-.44s.64-.28.47-.77c0-.1.23-.35.41-.47l9.62-6.79q4.44-3.14,8.86-6.3c.12-.09.22-.2.37-.2a11.36,11.36,0,0,0,3-.89ZM171,8.39l-.09-.07-16.15,9.89,1,1.87-.61.31c.3.47.19.78-.33.88l.29.58-.47.11c0,.19,0,.48-.08.49-.42.08-.86.11-1.19.14,0,.16-.08.36-.14.57-.23.78-.94,1.43-.46,2.4.4.8.49.9,1.29.41-.35-.57-.31-.81.14-1.3.69-.76,1.35-1.54,2-2.29a2.73,2.73,0,0,1,.78-.68c.21-.1.2-.21.3-.35.58-.8,1.23-1.55,1.89-2.29.08-.09.35-.06.5,0,.33.12.65.29,1,.46Zm8.16-1.92h-2.36c-.41,0-.65.08-.32.56.09.13-.05.42-.12.63s-.17.23-.18.35c-.19,1.87-.35,3.75-.54,5.63-.07.71-.19,1.41-.25,2.12s-.08,1.46-.12,2.2l.1,0Zm-2.43-3.92L176.37,6h2.73Z"/></g></g></g></svg>