<svg xmlns="http://www.w3.org/2000/svg" viewBox="0 0 287.52 156.09"><defs><style>.cls-1,.cls-12{fill:#8adbd2;}.cls-2{fill:#ef5d84;}.cls-10,.cls-13,.cls-3,.cls-5,.cls-6{fill:#fff;}.cls-10,.cls-11,.cls-13,.cls-3,.cls-4,.cls-5,.cls-7,.cls-8,.cls-9{stroke:#000;}.cls-10,.cls-11,.cls-3,.cls-7,.cls-8,.cls-9{stroke-linecap:round;}.cls-3,.cls-7,.cls-9{stroke-linejoin:round;}.cls-10,.cls-11,.cls-3,.cls-4,.cls-5,.cls-7,.cls-8,.cls-9{stroke-width:1.37px;}.cls-4,.cls-8,.cls-9{fill:none;}.cls-10,.cls-11,.cls-13,.cls-4,.cls-5,.cls-8{stroke-miterlimit:10;}.cls-12{font-size:21.7px;font-family:HereJustNow-Out, Here Just Now;}.cls-13{stroke-width:0.23px;}</style></defs><title>dok-kantine_1</title><g id="Layer_2" data-name="Layer 2"><g id="HOME"><path class="cls-1" d="M12.76,110.17C10.9,95.25,18.94,80.88,31.28,77a157.89,157.89,0,0,1,28.13-6.22c77.16-9.69,103.12,46,177.28,40.58,9.9-.72,30.29-3.24,34.39,7.23,3.12,8-4.07,21-10.75,28.06-20.48,21.53-49.95.43-98.15-5.49-76-9.34-112.12,29.74-136.84,1.37C20.29,136.7,14.87,127.11,12.76,110.17Z"/><polygon class="cls-2" points="112.34 51.86 121.31 51.86 120.39 54.72 118.52 55.6 113.95 54.86 112.34 54.15 112.34 51.86"/><polygon class="cls-2" points="137.31 51.86 128.34 51.86 129.26 54.72 131.13 55.6 135.69 54.86 137.31 54.15 137.31 51.86"/><rect class="cls-3" x="70.08" y="63.28" width="128.63" height="17.36" rx="8.68" ry="8.68"/><path class="cls-4" d="M117.26,49c-2.43-.38-4.33-1.13-4.25-1.67l-.72,4.59A2.75,2.75,0,0,0,114.57,55l3.39.53a2.75,2.75,0,0,0,3.13-2.28l.72-4.59C121.73,49.23,119.69,49.36,117.26,49Z"/><ellipse class="cls-5" cx="117.41" cy="48" rx="0.99" ry="4.46" transform="translate(51.73 156.52) rotate(-81.05)"/><ellipse class="cls-5" cx="114.9" cy="64.67" rx="0.81" ry="3.66" transform="translate(33.15 168.12) rotate(-81.05)"/><path class="cls-5" d="M116.26,55.3c.11,0-1.35,8.58-1.35,8.58"/><path class="cls-4" d="M132.3,49c2.43-.38,4.33-1.13,4.25-1.67l.72,4.59A2.75,2.75,0,0,1,135,55l-3.39.53a2.75,2.75,0,0,1-3.13-2.28l-.72-4.59C127.83,49.23,129.86,49.36,132.3,49Z"/><ellipse class="cls-5" cx="132.14" cy="48" rx="4.46" ry="0.99" transform="translate(-5.86 21.13) rotate(-8.95)"/><ellipse class="cls-5" cx="134.65" cy="64.67" rx="3.66" ry="0.81" transform="translate(-8.42 21.73) rotate(-8.95)"/><path class="cls-5" d="M133.29,55.3c-.11,0,1.35,8.58,1.35,8.58"/><path class="cls-6" d="M87,112a13.48,13.48,0,0,1-3-.39c-2.63-.62-4-1.56-4.19-1.94a3.43,3.43,0,0,1,1.6-.26,13.49,13.49,0,0,1,3,.39c2.63.62,4,1.56,4.19,1.94A3.45,3.45,0,0,1,87,112Z"/><path d="M81.59,110.14a13.43,13.43,0,0,1,2.63.37,13.25,13.25,0,0,1,2.52.85,13.43,13.43,0,0,1-2.63-.37,13.25,13.25,0,0,1-2.52-.85m-.23-1.37c-1.29,0-2.18.27-2.3.78-.2.87,1.91,2.11,4.73,2.78a14.22,14.22,0,0,0,3.17.41c1.29,0,2.18-.27,2.3-.78.2-.87-1.91-2.11-4.73-2.78a14.22,14.22,0,0,0-3.17-.41Z"/><path class="cls-6" d="M100,110a13.51,13.51,0,0,1-3-.39c-2.63-.62-4-1.56-4.19-1.94a3.45,3.45,0,0,1,1.6-.26,13.49,13.49,0,0,1,3,.39c2.63.62,4,1.56,4.19,1.94A3.44,3.44,0,0,1,100,110Z"/><path d="M94.61,108.09a13.43,13.43,0,0,1,2.63.37,13.25,13.25,0,0,1,2.52.85,13.42,13.42,0,0,1-2.63-.37,13.25,13.25,0,0,1-2.52-.85m-.23-1.37c-1.29,0-2.18.27-2.3.78-.2.87,1.91,2.11,4.73,2.78a14.22,14.22,0,0,0,3.17.41c1.29,0,2.18-.27,2.3-.78.2-.87-1.91-2.11-4.73-2.78a14.22,14.22,0,0,0-3.17-.41Z"/><path d="M194.14,90h0M192,92v13.86l-5,4.77V96.82L192,92M193.31,89a.18.18,0,0,0-.13.05l-7.24,7a.81.81,0,0,0-.25.58V112a.81.81,0,0,0,.81.81.79.79,0,0,0,.55-.23l6.19-5.95a.5.5,0,0,0,.15-.58V89.18c.07-.11,0-.19-.09-.19Z"/><path d="M77.85,90h0m-2.1,2v13.86l-5,4.77V96.82l5-4.77M77,89a.18.18,0,0,0-.13.05l-7.24,7a.81.81,0,0,0-.25.58V112a.81.81,0,0,0,.81.81.79.79,0,0,0,.55-.23L77,106.63a.5.5,0,0,0,.15-.58V89.18c.07-.11,0-.19-.09-.19Z"/><path class="cls-3" d="M190.08,95.81H67.67c-1.83,0-2.39-1.27-1.26-2.83l.6-.82a7.54,7.54,0,0,1,5.38-2.83H194.8c1.83,0,2.39,1.27,1.26,2.83l-.6.82A7.54,7.54,0,0,1,190.08,95.81Z"/><path class="cls-6" d="M160.4,112a3.44,3.44,0,0,1-1.6-.26c.23-.38,1.56-1.32,4.19-1.94a13.48,13.48,0,0,1,3-.39,3.45,3.45,0,0,1,1.6.26c-.23.38-1.56,1.32-4.19,1.94a13.48,13.48,0,0,1-3,.39Z"/><path d="M165.77,110.14a13.25,13.25,0,0,1-2.52.85,13.43,13.43,0,0,1-2.63.37,13.25,13.25,0,0,1,2.52-.85,13.43,13.43,0,0,1,2.63-.37m.23-1.37a14.22,14.22,0,0,0-3.17.41c-2.82.66-4.94,1.91-4.73,2.78.12.51,1,.78,2.3.78a14.22,14.22,0,0,0,3.17-.41c2.82-.66,4.94-1.91,4.73-2.78-.12-.51-1-.78-2.3-.78Z"/><path class="cls-6" d="M163.19,112.95a2.73,2.73,0,0,1-2.3-1.25l-.11-.17c-1.65-2.69-3-7.06-.49-13a15.74,15.74,0,0,1,10.64-9.25,20.37,20.37,0,0,1,5.35-.72,14.12,14.12,0,0,1,1.51.07,3,3,0,0,1-.34,6.06l-.35,0a8.88,8.88,0,0,0-.9,0c-2.3,0-7.91.61-10.32,6.27-1.18,2.78-1.21,5.18-.11,7.16a4.79,4.79,0,0,1,.4,1,2.88,2.88,0,0,1-.45,2.62,3.24,3.24,0,0,1-2.53,1.28Z"/><path d="M176.29,89.21a13.42,13.42,0,0,1,1.43.07,2.36,2.36,0,0,1-.26,4.7l-.27,0a9.57,9.57,0,0,0-1,0c-2.44,0-8.38.65-10.95,6.69-1.27,3-1.29,5.59-.08,7.76a4.19,4.19,0,0,1,.34.86,2.22,2.22,0,0,1-.34,2,2.55,2.55,0,0,1-2,1,2.06,2.06,0,0,1-1.74-1l-.09-.13,0-.08c-1.52-2.47-2.82-6.62-.39-12.33a15.08,15.08,0,0,1,10.2-8.86,19.64,19.64,0,0,1,5.17-.7m0-1.37a21,21,0,0,0-5.54.75,16.41,16.41,0,0,0-11.09,9.64c-2.65,6.25-1.2,10.83.49,13.58l.05.09.13.19a3.43,3.43,0,0,0,2.86,1.54,3.75,3.75,0,0,0,3.65-4.77,5.49,5.49,0,0,0-.46-1.16c-1-1.78-.95-4,.14-6.56,2.26-5.32,7.63-5.86,9.69-5.86.5,0,.81,0,.82,0l.43,0a3.73,3.73,0,0,0,.42-7.43,14.75,14.75,0,0,0-1.59-.07Z"/><path class="cls-6" d="M150.85,110.89a2.73,2.73,0,0,1-2.3-1.25l-.16-.24c-1.6-2.61-3-7-.44-13a15.74,15.74,0,0,1,10.64-9.25,20.34,20.34,0,0,1,5.35-.72,14,14,0,0,1,1.51.07,3,3,0,0,1-.34,6.06l-.35,0a8.91,8.91,0,0,0-.9,0c-2.3,0-7.91.61-10.32,6.28-1.18,2.77-1.22,5.18-.11,7.16a4.78,4.78,0,0,1,.4,1,2.88,2.88,0,0,1-.45,2.62,3.24,3.24,0,0,1-2.53,1.28Z"/><path d="M164,87.15a13.42,13.42,0,0,1,1.43.07,2.36,2.36,0,0,1-.26,4.7l-.27,0a9.57,9.57,0,0,0-1,0c-2.44,0-8.38.65-10.95,6.69-1.27,3-1.29,5.59-.08,7.76a4.19,4.19,0,0,1,.34.86,2.22,2.22,0,0,1-.34,2,2.55,2.55,0,0,1-2,1,2.06,2.06,0,0,1-1.74-1l-.09-.13,0-.08c-1.52-2.47-2.82-6.62-.39-12.33a15.08,15.08,0,0,1,10.2-8.86,19.64,19.64,0,0,1,5.17-.7m0-1.37a21,21,0,0,0-5.54.75,16.41,16.41,0,0,0-11.09,9.64c-2.65,6.25-1.2,10.83.49,13.58l.05.09.13.19a3.43,3.43,0,0,0,2.86,1.54,3.75,3.75,0,0,0,3.65-4.77,5.49,5.49,0,0,0-.46-1.16c-1-1.78-.95-4,.14-6.56,2.26-5.32,7.63-5.86,9.69-5.86.5,0,.81,0,.82,0l.43,0a3.73,3.73,0,0,0,.42-7.43,14.75,14.75,0,0,0-1.59-.07Z"/><path class="cls-6" d="M93.81,121.59a3.1,3.1,0,0,1-2.66-1.67,2.92,2.92,0,0,1,.16-3.07A4.77,4.77,0,0,1,92,116c1.65-1.55,2.34-3.86,2-6.86-.74-7.69-8.74-9.31-8.82-9.33a3,3,0,0,1,.58-6,3.11,3.11,0,0,1,.58.06,19.42,19.42,0,0,1,6.35,2.69,15.74,15.74,0,0,1,7.37,12c.62,6.47-2,10.21-4.32,12.22l-.22.19A2.84,2.84,0,0,1,93.81,121.59Z"/><path d="M85.8,94.47h0a2.38,2.38,0,0,1,.45,0,18.69,18.69,0,0,1,6.11,2.59,15.08,15.08,0,0,1,7.06,11.52c.59,6.17-1.89,9.74-4.09,11.64l-.07.06-.12.1a2.17,2.17,0,0,1-1.33.49,2.45,2.45,0,0,1-2.06-1.31,2.22,2.22,0,0,1,.13-2.37,4.18,4.18,0,0,1,.58-.72c1.81-1.7,2.57-4.2,2.26-7.42-.78-8.15-9.28-9.92-9.37-9.93a2.36,2.36,0,0,1,.45-4.67m0-1.37a3.73,3.73,0,0,0-.71,7.39c.08,0,7.58,1.56,8.27,8.72.27,2.78-.35,4.9-1.84,6.3a5.48,5.48,0,0,0-.78,1,3.76,3.76,0,0,0,3.07,5.81,3.53,3.53,0,0,0,2.16-.77l.18-.15.08-.07c2.44-2.11,5.2-6,4.55-12.8A16.41,16.41,0,0,0,93.11,96a20.18,20.18,0,0,0-6.59-2.79,3.74,3.74,0,0,0-.72-.07Z"/><path class="cls-6" d="M80.79,122.51a3.1,3.1,0,0,1-2.66-1.67,2.92,2.92,0,0,1,.16-3.07,4.8,4.8,0,0,1,.68-.85c1.65-1.55,2.34-3.86,2-6.86-.74-7.67-8.74-9.31-8.82-9.33a3,3,0,0,1,.58-6,3.11,3.11,0,0,1,.58.06,19.4,19.4,0,0,1,6.35,2.69,15.74,15.74,0,0,1,7.36,12c.62,6.47-2,10.21-4.32,12.22l-.23.19A2.83,2.83,0,0,1,80.79,122.51Z"/><path d="M72.78,95.39h0a2.38,2.38,0,0,1,.45,0A18.69,18.69,0,0,1,79.34,98a15.08,15.08,0,0,1,7.06,11.52c.59,6.17-1.89,9.74-4.09,11.64l-.07.06-.12.1a2.17,2.17,0,0,1-1.33.49,2.45,2.45,0,0,1-2.06-1.31,2.22,2.22,0,0,1,.13-2.37,4.18,4.18,0,0,1,.58-.72c1.81-1.7,2.57-4.2,2.26-7.42-.78-8.15-9.28-9.92-9.37-9.93a2.36,2.36,0,0,1,.45-4.67m0-1.37a3.73,3.73,0,0,0-.71,7.39c.08,0,7.58,1.56,8.27,8.72.27,2.78-.35,4.9-1.84,6.3a5.48,5.48,0,0,0-.78,1,3.76,3.76,0,0,0,3.07,5.81,3.53,3.53,0,0,0,2.16-.77l.18-.15.08-.07c2.44-2.11,5.2-6,4.55-12.8a16.41,16.41,0,0,0-7.67-12.53,20.18,20.18,0,0,0-6.59-2.79,3.74,3.74,0,0,0-.72-.07Z"/><path class="cls-7" d="M68.08,104.88s15.33,7.86,36.26-2.05L94.13,74.95a12.06,12.06,0,0,0-11.42-7.61h-.36a8.06,8.06,0,0,0-7.78,6.19Z"/><path class="cls-6" d="M100.39,73.09A19.72,19.72,0,0,1,92,71.16c-7.27-3.41-9.6-8.57-10.28-12.3A16.45,16.45,0,0,1,81.92,52l7.4,2.52a8.66,8.66,0,0,0,.08,3.25c.6,2.66,2.57,4.79,5.87,6.34a12,12,0,0,0,5.1,1.17c5.83,0,9.89-4.42,10.06-4.61a3.88,3.88,0,0,1,5.49-.33,3.88,3.88,0,0,1,.32,5.48,24,24,0,0,1-6.85,5.05A20.19,20.19,0,0,1,100.39,73.09Z"/><path d="M82.42,52.91,88.57,55a9.27,9.27,0,0,0,.16,2.93c.65,2.88,2.75,5.17,6.25,6.81A12.63,12.63,0,0,0,100.37,66c6.18,0,10.4-4.65,10.58-4.85a3.2,3.2,0,0,1,4.78,4.25,23.25,23.25,0,0,1-6.64,4.9,19.52,19.52,0,0,1-8.7,2.12,19,19,0,0,1-8.12-1.87c-7-3.29-9.25-8.23-9.9-11.8a15.81,15.81,0,0,1,0-5.82m-1-1.77A16.75,16.75,0,0,0,81,59c.71,3.89,3.13,9.27,10.66,12.8a20.38,20.38,0,0,0,8.7,2,20.88,20.88,0,0,0,9.31-2.27,24.74,24.74,0,0,0,7.06-5.21,4.57,4.57,0,0,0-6.83-6.07c0,.06-4,4.39-9.55,4.39a11.23,11.23,0,0,1-4.81-1.11c-3.1-1.45-4.95-3.43-5.49-5.87A7.85,7.85,0,0,1,90.13,54l0,.06-8.65-2.94Z"/><path class="cls-6" d="M148.77,73.09a20.19,20.19,0,0,1-9-2.2,24,24,0,0,1-6.85-5.05,3.88,3.88,0,1,1,5.81-5.16s4.17,4.62,10.06,4.62a12,12,0,0,0,5.1-1.17c3.3-1.55,5.28-3.68,5.87-6.34a8.63,8.63,0,0,0,.08-3.25l7.4-2.52a16.38,16.38,0,0,1,.22,6.84c-.68,3.73-3,8.89-10.28,12.3a19.72,19.72,0,0,1-8.41,1.93Z"/><path d="M166.73,52.92a16,16,0,0,1,.05,5.82c-.65,3.57-2.89,8.52-9.9,11.8a19,19,0,0,1-8.12,1.87,19.52,19.52,0,0,1-8.7-2.12,23.24,23.24,0,0,1-6.64-4.9,3.2,3.2,0,1,1,4.78-4.25c.18.2,4.39,4.84,10.57,4.84a12.63,12.63,0,0,0,5.39-1.24c3.5-1.64,5.6-3.93,6.25-6.81a9.27,9.27,0,0,0,.16-2.93l6.15-2.09m1-1.78L159,54.08l0-.06a7.85,7.85,0,0,1,.06,3.62c-.55,2.44-2.4,4.42-5.49,5.87a11.23,11.23,0,0,1-4.81,1.11c-5.57,0-9.5-4.33-9.55-4.39a4.57,4.57,0,1,0-6.83,6.07,24.74,24.74,0,0,0,7.06,5.21,20.88,20.88,0,0,0,9.31,2.27,20.38,20.38,0,0,0,8.7-2c7.53-3.53,10-8.91,10.66-12.8a16.75,16.75,0,0,0-.44-7.84Z"/><path class="cls-3" d="M67.56,89.81S83.5,97,105.26,87.92L94.64,62.24c-1.71-4.14-6.47-7-11.87-7h-.37c-4,.1-7.35,2.51-8.09,5.7Z"/><path class="cls-3" d="M147.36,92.77s17.45,7.86,41.29-2.05L177,62.84c-1.88-4.5-7.09-7.62-13-7.61h-.41c-4.38.11-8,2.73-8.86,6.19Z"/><path class="cls-5" d="M102.78,43.68C98.6,31.54,96.51,25.47,92,23.25a13.37,13.37,0,0,0-8.36-1.37C74.67,23.6,67.25,36.43,71,46.69c2.39,6.6,9.55,12.54,14.81,11.38s9-9.93,14.39-9.32c.63.07,2,.35,2.74-.41C104,47.27,103.18,44.85,102.78,43.68Z"/><path class="cls-8" d="M96.74,39.31s-3.7,2.67-6.85,0"/><path class="cls-8" d="M91.6,54.09a8.93,8.93,0,0,1-4-2.63c-.18-.19-.34-.38-.49-.56"/><line class="cls-9" x1="203.5" y1="119.94" x2="182.96" y2="81.75"/><line class="cls-9" x1="73.73" y1="81.56" x2="53.86" y2="118.57"/><path d="M58.12,76.41a.07.07,0,0,1,.07.07l0,37.08L42.89,128.23a.07.07,0,0,1-.07-.07l0-37.08L58.09,76.43l0,0m0-1.37a1.4,1.4,0,0,0-1,.4L41.88,90.1a1.43,1.43,0,0,0-.44,1v37a1.43,1.43,0,0,0,1.44,1.44,1.4,1.4,0,0,0,1-.4l15.26-14.66a1.43,1.43,0,0,0,.44-1v-37A1.43,1.43,0,0,0,58.12,75Z"/><path d="M211.25,74.81h0m-1.81,1.74v36.78a1.37,1.37,0,0,0,.05.38l-14.36,13.8a.47.47,0,0,1-.33.14.5.5,0,0,1-.51-.51V91.32a.5.5,0,0,1,.15-.36l15-14.41m1.15-2.85a.43.43,0,0,0-.29.12L193.49,90a1.87,1.87,0,0,0-.58,1.35v35.82A1.87,1.87,0,0,0,194.8,129a1.83,1.83,0,0,0,1.28-.53l14.38-13.82a1.17,1.17,0,0,0,.35-1.35V74.14c.16-.26,0-.44-.22-.44Z"/><path class="cls-6" d="M57.74,75.87l.31-.31a7.62,7.62,0,0,1,4.5-2H209.69c.42,0,.59.09.61.13s0,.38-.6.93l-1.29,1.28Z"/><path d="M209.11,74.22l-1,1H59.69a6.45,6.45,0,0,1,2.87-1H209.11m.59-1.37H62.56a8.3,8.3,0,0,0-5,2.23l-1.49,1.48H208.69l1.49-1.48c1.23-1.22,1-2.23-.5-2.23Z"/><polygon class="cls-6" points="52.51 81.06 54.87 78.72 205.54 78.72 203.18 81.06 52.51 81.06"/><path d="M203.87,79.41l-1,1H54.17l1-1H203.87M207.2,78H54.58l-3.74,3.71H203.46L207.2,78Z"/><polygon class="cls-6" points="47.09 86.44 49.45 84.1 200.12 84.1 197.76 86.44 47.09 86.44"/><path d="M198.45,84.79l-1,1H48.75l1-1H198.45m3.33-1.37H49.16l-3.74,3.71H198l3.74-3.71Z"/><path class="cls-6" d="M153.92,83.39c-10.33,0-16.68-2.33-16.68-4s6.34-4,16.68-4,16.68,2.33,16.68,4S164.26,83.39,153.92,83.39Z"/><path d="M153.92,76.08c10.54,0,15.78,2.41,16,3.3-.21.92-5.45,3.33-16,3.33s-15.78-2.41-16-3.3c.21-.92,5.45-3.33,16-3.33m0-1.37c-9.59,0-17.36,2.1-17.36,4.68s7.77,4.68,17.36,4.68,17.36-2.1,17.36-4.68-7.77-4.68-17.36-4.68Z"/><path class="cls-6" d="M153.92,80.65c-5.42,0-8.59-.77-9.37-1.26.78-.49,4-1.26,9.37-1.26s8.59.77,9.37,1.26C162.52,79.88,159.34,80.65,153.92,80.65Z"/><path d="M153.92,78.82a38,38,0,0,1,7.08.57,44.13,44.13,0,0,1-14.16,0,38,38,0,0,1,7.08-.57m0-1.37c-5.62,0-10.18.87-10.18,1.94s4.56,1.94,10.18,1.94,10.18-.87,10.18-1.94-4.56-1.94-10.18-1.94Z"/><path class="cls-6" d="M96.35,82C86,82,79.67,79.69,79.67,78S86,74,96.35,74,113,76.35,113,78,106.68,82,96.35,82Z"/><path d="M96.35,74.71c10.54,0,15.78,2.41,16,3.3-.21.92-5.45,3.33-16,3.33s-15.78-2.41-16-3.3c.21-.92,5.45-3.33,16-3.33m0-1.37C86.76,73.34,79,75.43,79,78s7.77,4.68,17.36,4.68,17.36-2.1,17.36-4.68-7.77-4.68-17.36-4.68Z"/><path class="cls-6" d="M96.35,79.28c-5.42,0-8.59-.77-9.37-1.26.78-.49,4-1.26,9.37-1.26s8.59.77,9.37,1.26C104.94,78.51,101.77,79.28,96.35,79.28Z"/><path d="M96.35,77.45a38,38,0,0,1,7.08.57,38,38,0,0,1-7.08.57A38,38,0,0,1,89.27,78a38,38,0,0,1,7.08-.57m0-1.37c-5.62,0-10.18.87-10.18,1.94S90.73,80,96.35,80s10.18-.87,10.18-1.94S102,76.08,96.35,76.08Z"/><path class="cls-5" d="M146.29,43.68c4.18-12.14,6.27-18.2,10.83-20.43a13.37,13.37,0,0,1,8.36-1.37c8.91,1.72,16.33,14.56,12.61,24.81-2.39,6.6-9.55,12.54-14.81,11.38s-9-9.93-14.39-9.32c-.63.07-2,.35-2.74-.41C145.08,47.27,145.88,44.85,146.29,43.68Z"/><path class="cls-8" d="M152.33,39.31s3.7,2.67,6.85,0"/><path class="cls-8" d="M157.47,54.09a8.93,8.93,0,0,0,4-2.63c.18-.19.34-.38.49-.56"/><path d="M193.14,13.15h5.23c.67,0,1.35,0,2,0s1.1,0,1.65.11a7.62,7.62,0,0,1,3,.86,5.91,5.91,0,0,1,1.6,1.38A6.85,6.85,0,0,1,208,18.43a11,11,0,0,1,.2,1.32,8.88,8.88,0,0,1,.07,1.14,12.18,12.18,0,0,1-.28,2.55,8.42,8.42,0,0,1-.75,2.07,5.92,5.92,0,0,1-1.83,2.09,6.28,6.28,0,0,1-2.59,1,8.56,8.56,0,0,1-1.38.11l-8.26,0Zm5,3.68v8.39c.85,0,1.68,0,2.52-.11a2.43,2.43,0,0,0,2-1.4,5.74,5.74,0,0,0,.62-2.65,6.79,6.79,0,0,0-.07-1,5,5,0,0,0-.62-2A2.09,2.09,0,0,0,201.17,17a7.26,7.26,0,0,0-1.23-.18C199.34,16.81,198.74,16.83,198.12,16.83Z"/><path d="M242.33,10.54a1,1,0,0,1,.1.36c0,.26.14.43.27.61a7.05,7.05,0,0,0,.43.58c.16.19,0,.38,0,.54-.26.81-.55,1.61-.82,2.42-.07.2-.12.4-.2.6a2.31,2.31,0,0,0-.14.78,1.32,1.32,0,0,0,.07.63.19.19,0,0,1,0,.18,3.11,3.11,0,0,1-.44.19s-.07,0-.1,0a.52.52,0,0,1-.05-.77.21.21,0,0,0,.09-.12c0-.21,0-.41,0-.62,0-.68.07-1.36.11-2,0-.35.05-.69.07-1a.91.91,0,0,0-.07-.24l-3.34,4c.21.15.13.26,0,.39a5.94,5.94,0,0,0-.39.46l-.26-.07c-.27.33-.54.67-.82,1s-.39.41-.58.62a.14.14,0,0,0,0,.13l1.81,3,1.45,2.41,1.61,2.67.95,1.59h-5.41a.29.29,0,0,1-.29-.16l-.6-1.09-1.5-2.71-.85-1.57-.38-.67-.84,1-.4.45c-.3.32-.6.64-.89,1a.54.54,0,0,0-.13.32c0,1.16,0,2.32,0,3.49h-5V13.16h4.92v5.68l.48-.54.06-.07a.32.32,0,0,1,.45-.12c.27.12.56.2.85.3a.19.19,0,0,0,.24,0c.2-.21.43-.38.62-.6s.57-.66.85-1l.2-.23a1.2,1.2,0,0,0,.29-.64c0-.09.11-.16.08-.27a.42.42,0,0,1,0-.16s0-.08,0-.1l.24-.21.13.19.49-.39c.06,0,.13-.07.18-.12s.18-.08.13-.21.07-.1.11-.13l2.68-1.89,2.47-1.76s.06-.06.1-.06a3.17,3.17,0,0,0,.85-.25Zm-1.52,2.34,0,0-4.5,2.76.28.52-.17.09c.08.13.05.22-.09.25l.08.16-.13,0c0,.05,0,.13,0,.14l-.33,0s0,.1,0,.16c-.06.22-.26.4-.13.67s.14.25.36.12c-.1-.16-.09-.22,0-.36l.57-.64a.76.76,0,0,1,.22-.19c.06,0,.06-.06.08-.1.16-.22.34-.43.53-.64,0,0,.1,0,.14,0L238,16Zm2.27-.53h-.66c-.11,0-.18,0-.09.16s0,.12,0,.18,0,.06,0,.1c-.05.52-.1,1-.15,1.57,0,.2-.05.39-.07.59s0,.41,0,.61h0Zm-.68-1.09-.1,1h.76Z"/><path d="M216.94,12.6a9.5,9.5,0,0,1,3.5.58,7.06,7.06,0,0,1,2.1,1.21,7.37,7.37,0,0,1,1.76,2.17,7.86,7.86,0,0,1,.85,2.47c.06.39.11.78.14,1.17a7,7,0,0,1,0,1,10.42,10.42,0,0,1-.36,2.33,8.38,8.38,0,0,1-1.21,2.58,7.26,7.26,0,0,1-2.3,2.1,7.42,7.42,0,0,1-2.1.82,11.64,11.64,0,0,1-1.33.21,10.91,10.91,0,0,1-1.4.07,8.91,8.91,0,0,1-4.23-1,6.79,6.79,0,0,1-1.89-1.54,7.62,7.62,0,0,1-1.06-1.63,8.86,8.86,0,0,1-.75-2.41,10,10,0,0,1-.14-2.11,8.4,8.4,0,0,1,.37-2.26,14.62,14.62,0,0,1,.61-1.57,6.79,6.79,0,0,1,1.06-1.56,7.12,7.12,0,0,1,2.55-1.84,7.21,7.21,0,0,1,2-.58C215.73,12.67,216.94,12.58,216.94,12.6Zm3.39,8.2c0-.2,0-.4-.05-.6a4.49,4.49,0,0,0-.34-1.62,3.05,3.05,0,0,0-2.31-1.95,3.32,3.32,0,0,0-2,.21,3.44,3.44,0,0,0-1.9,2.54,7.42,7.42,0,0,0-.16,1.87,5.92,5.92,0,0,0,.37,2.09,3.05,3.05,0,0,0,.89,1.29,3.34,3.34,0,0,0,2.79.63,3,3,0,0,0,2.28-1.94A6.78,6.78,0,0,0,220.33,20.8Z"/><path class="cls-6" d="M168.62,40c-.12-.17,1.67-4.1,3.29-4.38a1.46,1.46,0,0,1,.86.09c1.18.53,1.47,2.73.34,4.58-1,1.69-3.24,2.37-3.47,2C168.32,40.33,169.44,41.14,168.62,40Z"/><path class="cls-10" d="M171.85,38.12a6.72,6.72,0,0,0-1.2,1.79"/><path class="cls-11" d="M89,18.92c4.47.26,9.17,3.68,9.43,6,.3,2.65-5.76,2-14.79,8.91-5.27,4-5.68,7.07-6.23,11.42-.86,6.81-.74,5.12-2.28,8.22-1.32,2.66-3.6,2.92-10.42,1.92-5.61-.82-11.39,2.76-13.14,2.35-8.9-2.1-8.33-11.31-14.26-13.52S18.9,46.8,14.39,42.5C2.59,31.23-2.2,13.93,2.42,10.64c4.36-3.1,13.06,9.17,26.49,7.57C44.05,16.4,49.53-1.19,57.32.85s5.95,16.89,14.59,18.8C77,20.77,79.92,18.38,89,18.92Z"/><path class="cls-6" d="M81.32,42c.15-.15-1-4.32-2.52-4.87a1.46,1.46,0,0,0-.87-.05c-1.25.32-1.91,2.45-1.09,4.47.74,1.84,2.81,2.87,3.09,2.57C81.56,42.36,80.33,43,81.32,42Z"/><path class="cls-10" d="M78.44,39.59a6.72,6.72,0,0,1,.88,2"/><text class="cls-12" transform="translate(191.74 49.21)">KANTINE</text><path class="cls-11" d="M170.15,34c-4.53,1.48-4.91,2.06-5,2.51-.52,2,2.88,5,6.4,5.94,3,.79,8.31.62,9.82-3a6.09,6.09,0,0,0-2.06-7.08C177.84,31.55,175.25,32.37,170.15,34Z"/><path class="cls-6" d="M165.92,42c-.15-.15,1-4.32,2.52-4.87a1.46,1.46,0,0,1,.87-.05c1.25.32,1.91,2.45,1.09,4.47-.74,1.84-2.81,2.87-3.09,2.57C165.68,42.36,166.91,43,165.92,42Z"/><path class="cls-10" d="M168.89,39.59a6.72,6.72,0,0,0-.88,2"/><path class="cls-13" d="M28.11,40.77c4,.81,5.55-.39,10.1-.4,4.31,0,7.06,1.05,7.18.63s-2-1.4-3.86-2c-2.82-.85-4.39-.29-9.15,0-5.11.28-7.78-.07-7.84.38S26.46,40.44,28.11,40.77Z"/><path class="cls-6" d="M30,35.76c-.46,0-1.53-.13-3.24-.33a66.33,66.33,0,0,1-7.62-1.17c-1-.21-1.78-.43-2.48-.63a19.06,19.06,0,0,0,2.74.26h1.09A29.67,29.67,0,0,1,30,35.76Z"/><path d="M18.33,34l1.05.05h1.09a31.38,31.38,0,0,1,8.78,1.58l-2.5-.27a66,66,0,0,1-7.61-1.17L18.33,34M14.1,32.91h0a30.2,30.2,0,0,0,5,1.47,66.4,66.4,0,0,0,7.63,1.17c1.8.2,2.9.33,3.33.33.13,0,.19,0,.2,0,.07-.33-5.64-2.06-9.78-2.06H19.39a19,19,0,0,1-5.28-.88Z"/><path class="cls-13" d="M65.52,50.44c-3.22-.21-4.77.37-8.23.81-4.64.58-7.69.27-7.76.72,0,.26,1,.55,1.35.66,3.23.91,6,.26,8.83-.24,5.75-1,8.87-1,8.87-1.37S65.83,50.46,65.52,50.44Z"/><path class="cls-6" d="M179.76,38.65c-2.35.29-2.34,1.71-3.84,1.86-1.89.18-3.37-1.93-3.33-2a4.89,4.89,0,0,0,2.57,1.13c1.52,0,2.12-1.44,4-1.19C179.41,38.44,180.32,38.59,179.76,38.65Z"/><path class="cls-6" d="M68.94,24.93c-3.53-1-3.25-2.35-5.51-2.92A6.76,6.76,0,0,0,58,23.06a9.71,9.71,0,0,1,4.12-.38c2.3.45,3,2,5.8,2.3C68.37,25,69.78,25.15,68.94,24.93Z"/><path class="cls-7" d="M92.72,108l-2,8.57c-.2.84-.41,1.67-.66,2.49-.37,1.24-.91,3.88.76,5.15,2.23,1.7,8.81,6,11.54,5.64s3.63-2.36,2.71-3.45a55.34,55.34,0,0,0-5.65-4.44,1,1,0,0,1-.38-1L101.59,110"/><path class="cls-7" d="M79.7,110l-2,8.57c-.2.84-.41,1.67-.66,2.49-.37,1.24-.91,3.88.76,5.15,2.23,1.7,8.81,6,11.54,5.64s3.63-2.36,2.71-3.45A55.34,55.34,0,0,0,86.38,124a1,1,0,0,1-.38-1l2.56-10.86"/><path class="cls-7" d="M155.33,108l2,8.57c.2.84.41,1.67.66,2.49.37,1.24.91,3.88-.76,5.15-2.23,1.7-8.81,6-11.54,5.64s-3.63-2.36-2.71-3.45a55.34,55.34,0,0,1,5.65-4.44,1,1,0,0,0,.38-1L146.47,110"/><path d="M148.06,110a3.45,3.45,0,0,1-1.6-.26c.23-.38,1.56-1.32,4.19-1.94a13.49,13.49,0,0,1,3-.39,3.45,3.45,0,0,1,1.6.26c-.22.38-1.56,1.32-4.19,1.94a13.51,13.51,0,0,1-3,.39Z"/><path d="M153.44,108.09a13.25,13.25,0,0,1-2.52.85,13.42,13.42,0,0,1-2.63.37,13.25,13.25,0,0,1,2.52-.85,13.43,13.43,0,0,1,2.63-.37m.23-1.37a14.22,14.22,0,0,0-3.17.41c-2.82.66-4.94,1.91-4.73,2.78.12.51,1,.78,2.3.78a14.22,14.22,0,0,0,3.17-.41c2.82-.66,4.94-1.91,4.73-2.78-.12-.51-1-.78-2.3-.78Z"/><path class="cls-7" d="M167.67,110l2,8.57c.2.84.41,1.67.66,2.49.37,1.24.91,3.88-.76,5.15-2.23,1.7-8.81,6-11.54,5.64s-3.63-2.36-2.71-3.45A55.34,55.34,0,0,1,161,124a1,1,0,0,0,.38-1L158.8,112.1"/><path class="cls-6" d="M43.31,91.26c-.42,0-.59-.09-.61-.13s0-.38.6-.93l.92-.91H194.88a7.63,7.63,0,0,1-4.44,2Z"/><path d="M192.61,90a5.6,5.6,0,0,1-2.17.6H43.89l.6-.6H192.61m3.94-1.37H43.93l-1.12,1.11c-1.23,1.22-1,2.23.5,2.23H190.44a8.3,8.3,0,0,0,5-2.23l1.12-1.11Z"/><path class="cls-6" d="M164.47,93.77a3.91,3.91,0,0,1-3.79-3,3.88,3.88,0,0,1,2.95-4.64c.1,0,9.73-2.26,10.38-11.58.25-3.63-.65-6.4-2.69-8.21a6,6,0,0,1-.89-1,3.73,3.73,0,0,1-.29-4,3.94,3.94,0,0,1,3.41-2.18,3.65,3.65,0,0,1,2.16.74l.29.23c2.93,2.41,6.31,7,5.76,15a19.45,19.45,0,0,1-8.69,15.1,23.91,23.91,0,0,1-7.75,3.53A3.91,3.91,0,0,1,164.47,93.77Z"/><path d="M173.54,59.8a3,3,0,0,1,1.76.61l.17.13.09.07c2.81,2.3,6,6.67,5.51,14.39a18.78,18.78,0,0,1-8.4,14.58A23.24,23.24,0,0,1,165.17,93a3.19,3.19,0,0,1-3.82-2.43,3.2,3.2,0,0,1,2.43-3.82c.1,0,10.24-2.41,10.91-12.2.27-3.86-.72-6.81-2.92-8.77a5.36,5.36,0,0,1-.78-.92,3,3,0,0,1-.24-3.26,3.25,3.25,0,0,1,2.8-1.81m0-1.37a4.6,4.6,0,0,0-3.68,7.22,6.73,6.73,0,0,0,1,1.16c1.87,1.67,2.7,4.24,2.46,7.65-.61,8.8-9.75,10.94-9.84,11a4.57,4.57,0,1,0,2,8.92,24.74,24.74,0,0,0,8-3.64,20.11,20.11,0,0,0,9-15.62c.57-8.3-3-13-6-15.54l-.1-.08-.23-.17a4.34,4.34,0,0,0-2.56-.87Z"/><path class="cls-6" d="M85.4,93.54a3.9,3.9,0,0,1-.85-.09,23.9,23.9,0,0,1-7.75-3.53,19.45,19.45,0,0,1-8.69-15.1c-.55-8,2.83-12.56,5.76-15l.29-.23a3.65,3.65,0,0,1,2.16-.74,3.94,3.94,0,0,1,3.41,2.18,3.73,3.73,0,0,1-.29,4,6,6,0,0,1-.89,1c-2,1.81-2.94,4.58-2.69,8.21.64,9.32,10.28,11.56,10.38,11.58a3.88,3.88,0,0,1-.84,7.68Z"/><path d="M76.33,59.57a3.29,3.29,0,0,1,2.8,1.81,3,3,0,0,1-.24,3.26,5.36,5.36,0,0,1-.78.92c-2.2,2-3.18,4.91-2.92,8.77C75.86,84.12,86,86.51,86.1,86.53a3.2,3.2,0,0,1,2.43,3.82,3.19,3.19,0,0,1-3.82,2.43,23.24,23.24,0,0,1-7.51-3.43,18.78,18.78,0,0,1-8.4-14.58c-.53-7.72,2.7-12.08,5.51-14.39l.09-.07.17-.13a3,3,0,0,1,1.76-.61m0-1.37a4.34,4.34,0,0,0-2.56.87l-.23.17-.1.08c-3.06,2.51-6.58,7.24-6,15.54a20.11,20.11,0,0,0,9,15.62,24.74,24.74,0,0,0,8,3.64,4.57,4.57,0,0,0,2-8.92c-.09,0-9.24-2.16-9.84-11-.24-3.41.59-6,2.46-7.65a6.73,6.73,0,0,0,1-1.16,4.6,4.6,0,0,0-3.68-7.22Z"/></g></g></svg>