<?xml version="1.0" encoding="UTF-8" standalone="no"?>
<svg xmlns="http://www.w3.org/2000/svg" viewBox="0 0 296.67 207.78">
<defs>
<style>.cls-1,.cls-2{fill:#e0a4c7;}.cls-2{font-size:21.7px;font-family:HereJustNow-Out, Here Just Now;}.cls-10,.cls-13,.cls-3,.cls-4,.cls-5,.cls-6,.cls-7,.cls-8,.cls-9{stroke:#000;}.cls-13,.cls-3,.cls-4,.cls-6,.cls-7,.cls-8,.cls-9{stroke-linecap:round;}.cls-10,.cls-13,.cls-3,.cls-4,.cls-5,.cls-9{stroke-miterlimit:10;}.cls-10,.cls-3,.cls-4,.cls-5,.cls-6,.cls-7,.cls-8,.cls-9{stroke-width:1.37px;}.cls-11,.cls-13,.cls-4,.cls-5,.cls-8{fill:#fff;}.cls-6,.cls-7,.cls-8{stroke-linejoin:round;}.cls-7,.cls-9{fill:none;}.cls-12{fill:#f1f2c0;}.cls-13{stroke-width:0.91px;}</style>
</defs>
<title>dok-box</title>
<g data-name="Layer 2">
<g id="HOME">
<polygon points="32.1 152 244 152 277 196 0 196" class="cls-1"/>
<path d="m197 39h5.23 2s1.1 0 1.65 0.11a7.62 7.62 0 0 1 3 0.86 5.91 5.91 0 0 1 1.6 1.38 6.85 6.85 0 0 1 1.36 2.89 11 11 0 0 1 0.2 1.32 8.88 8.88 0 0 1 0.07 1.14 12.2 12.2 0 0 1 -0.28 2.55 8.42 8.42 0 0 1 -0.75 2.07 5.92 5.92 0 0 1 -1.83 2.09 6.28 6.28 0 0 1 -2.59 1 8.56 8.56 0 0 1 -1.38 0.11h-8.26zm5 3.68v8.39c0.85 0 1.68 0 2.52-0.11a2.43 2.43 0 0 0 2 -1.4 5.74 5.74 0 0 0 0.62 -2.65 6.79 6.79 0 0 0 -0.07 -1 5 5 0 0 0 -0.62 -2 2.09 2.09 0 0 0 -1.37 -1.09 7.26 7.26 0 0 0 -1.23 -0.18c-1-0.1-1 0-2 0z"/>
<path d="m246 36.4a1 1 0 0 1 0.1 0.36c0 0.26 0.14 0.43 0.27 0.61a7.05 7.05 0 0 0 0.43 0.58c0.16 0.19 0 0.38 0 0.54-0.26 0.81-0.55 1.61-0.82 2.42-0.07 0.2-0.12 0.4-0.2 0.6a2.31 2.31 0 0 0 -0.14 0.78 1.32 1.32 0 0 0 0.07 0.63 0.19 0.19 0 0 1 0 0.18 3.11 3.11 0 0 1 -0.44 0.19s-0.07 0-0.1 0a0.52 0.52 0 0 1 -0.05 -0.77 0.21 0.21 0 0 0 0.09 -0.12v-0.62c0-0.68 0.07-1.36 0.11-2 0-0.35 0.05-0.69 0.07-1a0.91 0.91 0 0 0 -0.07 -0.24l-3.34 4c0.21 0.15 0.13 0.26 0 0.39a5.94 5.94 0 0 0 -0.39 0.46l-0.26-0.07c-0.27 0.33-0.54 0.67-0.82 1s-0.39 0.41-0.58 0.62a0.14 0.14 0 0 0 0 0.13l1.81 3 1.45 2.41 3 2.4 1 1.6h-5.41a0.29 0.29 0 0 1 -0.29 -0.16l-0.6-1.09-1.5-2.71-0.85-1.57-0.38-0.67-0.84 1-0.4 0.45c-0.3 0.32-0.6 0.64-0.89 1a0.54 0.54 0 0 0 -0.13 0.32v3.49h-5v-15.6h4.92v5.68l0.48-0.54 0.06-0.07a0.32 0.32 0 0 1 0.45 -0.12c0.27 0.12 0.56 0.2 0.85 0.3a0.19 0.19 0 0 0 0.24 0c0.2-0.21 0.43-0.38 0.62-0.6s0.57-0.66 0.85-1l0.2-0.23a1.2 1.2 0 0 0 0.29 -0.64c0-0.09 0.11-0.16 0.08-0.27a0.42 0.42 0 0 1 0 -0.16s0-0.08 0-0.1v-0.3l0.13 0.19 0.49-0.39c0.06 0 0.13-0.07 0.18-0.12s0.18-0.08 0.13-0.21 0.07-0.1 0.11-0.13l2.68-1.89 2.47-1.76s0.06-0.06 0.1-0.06a3.17 3.17 0 0 0 0.85 -0.25zm-1.52 2.34-4.5 2.76 0.28 0.52-0.17 0.09c0.08 0.13 0.05 0.22-0.09 0.25l0.08 0.16h-0.13v0.14h-0.33s0 0.1 0 0.16c-0.06 0.22-0.26 0.4-0.13 0.67s0.14 0.25 0.36 0.12c-0.1-0.16-0.09-0.22 0-0.36l0.57-0.64a0.76 0.76 0 0 1 0.22 -0.19c0.06 0 0.06-0.06 0.08-0.1 0.16-0.22 0.34-0.43 0.53-0.64h0.14l0.28 0.13zm2.27-0.53h-0.66c-0.11 0-0.18 0-0.09 0.16s0 0.12 0 0.18 0 0.06 0 0.1c-0.05 0.52-0.1 1-0.15 1.57 0 0.2-0.05 0.39-0.07 0.59s0 0.41 0 0.61zm-0.68-1.09-0.1 1h2z"/>
<path d="m221 38.4a9.5 9.5 0 0 1 3.5 0.58 7.06 7.06 0 0 1 2.1 1.21 7.37 7.37 0 0 1 1.76 2.17 7.86 7.86 0 0 1 0.85 2.47c0.06 0.39 0.11 0.78 0.14 1.17a7 7 0 0 1 0 1 10.4 10.4 0 0 1 -0.36 2.33 8.38 8.38 0 0 1 -1.21 2.58 7.26 7.26 0 0 1 -2.3 2.1 7.42 7.42 0 0 1 -2.1 0.82 11.6 11.6 0 0 1 -1.33 0.21 10.9 10.9 0 0 1 -1.4 0.07 8.91 8.91 0 0 1 -4.23 -1 6.79 6.79 0 0 1 -1.89 -1.54 7.62 7.62 0 0 1 -1.06 -1.63 8.86 8.86 0 0 1 -0.75 -2.41 10 10 0 0 1 -0.14 -2.11 8.4 8.4 0 0 1 0.37 -2.26 14.6 14.6 0 0 1 0.61 -1.57 6.79 6.79 0 0 1 2 -1.6 7.12 7.12 0 0 1 2.55 -1.84 7.21 7.21 0 0 1 2 -0.58c0-0.1 1-0.2 1-0.2zm3.39 8.2c0-0.2 0-0.4-0.05-0.6a4.49 4.49 0 0 0 -0.34 -1.62 3.05 3.05 0 0 0 -2.31 -1.95 3.32 3.32 0 0 0 -2 0.21 3.44 3.44 0 0 0 -1.9 2.54 7.42 7.42 0 0 0 -0.16 1.87 5.92 5.92 0 0 0 0.37 2.09 3.05 3.05 0 0 0 0.89 1.29 3.34 3.34 0 0 0 2.79 0.63 3 3 0 0 0 2.28 -1.94 6.78 6.78 0 0 0 0 -2.5z"/>
<text class="cls-2" transform="translate(196 75)">BOX</text>
<path class="cls-3" d="m150 89.4c-9.33-3.88-11.3-6.13-11.1-7.5 0.36-2.11 5.81-1.72 8.1-5.92 1.62-3 0.18-5.51 1.78-6.52 2-1.23 4.33 2.45 8.29 2.17 5.13-0.36 6.77-6.91 10.1-6.32s2.79 6.88 6.71 8.1c3.73 1.15 7.55-3.47 9.08-2.17 1.33 1.13-1.62 4.56-0.2 7.5 1.89 3.9 9.38 2.61 10.1 5.13 0.49 1.77-5.52 2.65-6.32 6.52-0.49 2.34 1.34 3.42 0.59 5.33-1 2.52-10 4.74-14.6 5"/>
<line y1="86.3" x2="188" x1="218" y2="104" class="cls-4"/>
<line y1="85.4" x2="146" x1="114" y2="105" class="cls-4"/>
<path class="cls-5" d="m176 116a1.24 1.24 0 0 1 0.07 -1.83l5.94-5.09a51.2 51.2 0 0 0 5.33 4.68 1.24 1.24 0 0 0 1.87 -0.46 25 25 0 0 0 1.86 -6.74 61.9 61.9 0 0 0 0.73 -7.82 4.57 4.57 0 1 1 9.14 0.15 70.6 70.6 0 0 1 -0.93 9.62c-1.34 7.8-3.86 12.5-7.73 14.3-2.3 1.1-6 1.66-10.6-1.93-4-3-6-4-6-5zm12.3-1.38z"/>
<path class="cls-5" d="m151 121c-4.93 3.11-8.56 2.18-10.7 0.86-3.66-2.22-5.71-7.14-6.26-15a70.6 70.6 0 0 1 0 -9.66 4.57 4.57 0 1 1 9.11 0.76 61.9 61.9 0 0 0 -0.05 7.85 25 25 0 0 0 1.18 6.89 1.24 1.24 0 0 0 1.82 0.64 51.2 51.2 0 0 0 5.78 -4.12l5.41 5.66a1.24 1.24 0 0 1 -0.12 1.82c-1 1-3 2-6 4zm-6-6.89z"/>
<path class="cls-5" d="m183 125v-14a2.68 2.68 0 0 0 -2.59 -2.74h-26.8a2.68 2.68 0 0 0 -2.59 2.74v14.3"/>
<path class="cls-5" d="m151 126v13.1a2.68 2.68 0 0 0 2.59 2.74h26.8a2.68 2.68 0 0 0 2.59 -2.74v-14"/>
<path class="cls-6" d="m181 164c1.25 1.34 5.19 1.87 9.68 1.16 5.27-0.83 9.29-3 9-4.93a1.32 1.32 0 0 0 -0.12 -0.37l-1.42-10.2c-0.42 1.76-4.19 3.65-9 4.4a21.8 21.8 0 0 1 -6.42 0.14 16.4 16.4 0 0 1 0.13 2.07 16.7 16.7 0 0 1 -0.62 4.52 16.5 16.5 0 0 1 -2 3z"/>
<polyline points="190 165 190 173 184 180" class="cls-7"/>
<polyline points="196 180 190 173 190 179" class="cls-7"/>
<polyline points="138 129 129 160 129 173 135 180" class="cls-7"/>
<path class="cls-6" d="m152 164c-1.25 1.34-5.19 1.87-9.68 1.16-5.27-0.83-9.29-3-9-4.93a1.32 1.32 0 0 1 0.12 -0.37l1.42-10.2c0.42 1.76 4.19 3.65 9 4.4a21.8 21.8 0 0 0 6.42 0.14 16.4 16.4 0 0 0 -0.13 2.07 16.7 16.7 0 0 0 0.62 4.52 16.5 16.5 0 0 0 2 3z"/>
<path class="cls-8" d="m151 161c1.15 0.78 1.77 1.62 1.65 2.41a1.46 1.46 0 0 1 -0.4 0.77"/>
<path class="cls-8" d="m183 160a16.4 16.4 0 0 1 -1.58 4 1.75 1.75 0 0 1 -0.84 -1.14c-1-1 0-2 2-3z"/>
<line y1="149" x2="135" x1="135" y2="150" class="cls-7"/>
<line y1="160" x2="133" x1="133" y2="160" class="cls-7"/>
<polyline points="123 180 129 173 129 179" class="cls-7"/>
<polyline points="143 165 143 173 149 180" class="cls-7"/>
<polyline points="137 180 143 173 143 179" class="cls-7"/>
<polyline points="195 129 204 160 204 173 198 180" class="cls-7"/>
<polyline points="210 180 204 173 204 179" class="cls-7"/>
<line y1="171" x2="180" x1="177" y2="180" class="cls-7"/>
<line y1="171" x2="153" x1="156" y2="180" class="cls-7"/>
<path class="cls-5" d="m148 97.8c4.18-12.1 6.27-18.2 10.8-20.4a13.4 13.4 0 0 1 8 -1.4c8.91 1.72 16.3 14.6 12.6 24.8-2.39 6.6-9.55 12.5-14.8 11.4s-9-9.93-14.4-9.32c-0.63 0.07-2 0.35-2.74-0.41-1-2-1-4 0-5.2z"/>
<path class="cls-9" d="m154 93.4s3.7 2.67 6.85 0"/>
<path class="cls-9" d="m159 108a8.93 8.93 0 0 0 4 -2.63c0.18-0.19 0.34-0.38 0.49-0.56"/>
<path class="cls-10" d="m169 89.5c-11.8-0.42-17.8-0.63-18.7-3.1-1.32-3.4 4-13.5 11.4-15.8 7.61-2.39 13.7 4.68 15.3 6.52 1 1.17 12.3 17.4 11 20.2-4.93 9.86-16.7 3.2-17.4 0.93-0.49-1.6 3.59-4.53 3-6.83-1-1.8-3-1.8-5-1.9z"/>
<path class="cls-4" d="m180 90c0.23 5.56-5.37 9.56-5 9.82s6.36-3.13 7.28-8.68c1-5.82-4.13-11.4-4.52-11.2-0.14 0.06 0.29 0.88 1 3.66a37.4 37.4 0 0 1 2 6.4z"/>
<path class="cls-4" d="m174 90.2c2.83 1.88 1.34 7.81 1.68 7.63s2.37-6.21 0.26-9-8-0.95-8.16-0.58c-0.06 0.13 0.6 0.1 2.38 0.56a15.3 15.3 0 0 1 4 1.4z"/>
<path class="cls-4" d="m157 73.9c0-0.9 4-3.8 9-3.2 4 0.5 6.7 3.42 6.59 3.62s-2.14-2-5.23-2c-3.28 0-5 2.48-8.89 2-1-0.1-2-0.1-2-0.4z"/>
<path class="cls-11" d="m170 96.8c-0.06-0.2 2.95-3.3 4.57-3a1.46 1.46 0 0 1 0.78 0.37c0.94 0.89 0.47 3.07-1.21 4.43s-3.85 1.15-3.95 0.74c-2-2.3-1-1.2-1-2.5z"/>
<path class="cls-4" d="m174 96.1a6.72 6.72 0 0 0 -1.73 1.29"/>
<rect rx=".69" ry=".69" height="51.6" width="1.37" y="108" x="157" class="cls-8"/>
<rect rx=".69" ry=".69" height="51.2" width="1.37" y="108" x="176" class="cls-8"/>
<path class="cls-6" d="m150 133h33a0.07 0.07 0 0 1 0.07 0.07v10.8a16.6 16.6 0 0 1 -16.6 16.6 16.6 16.6 0 0 1 -16.6 -16.6v-11a0.07 0.07 0 0 1 0.07 -0.07z"/>
<path class="cls-8" d="m154 152c-0.16 1-1.57 1.75-3.66 2.06a21.8 21.8 0 0 1 -6.42 -0.14c-4.78-0.76-8.54-2.64-9-4.4a1.38 1.38 0 0 1 0 -0.53c0.3-1.89 4.81-2.75 10.1-1.92a20.6 20.6 0 0 1 6.71 2.14c1 1 2 2 2 3z"/>
<path class="cls-8" d="m179 152c0.16 1 1.57 1.75 3.66 2.06a21.8 21.8 0 0 0 6.42 -0.14c4.78-0.76 8.54-2.64 9-4.4a1.38 1.38 0 0 0 0 -0.53c-0.3-1.89-4.81-2.75-10.1-1.92a20.6 20.6 0 0 0 -6.71 2.14c-1 1-2 2-2 3z"/>
<path class="cls-8" d="m184 158a16.6 16.6 0 0 1 -0.5 4.05 16.4 16.4 0 0 1 -1.58 4 16.7 16.7 0 0 1 -4.81 5.45 16.7 16.7 0 0 1 -26.5 -13.5 16.7 16.7 0 0 1 1.5 -6.93 16.7 16.7 0 0 1 31.9 6.93z"/>
<path class="cls-12" d="m146 136a49.8 49.8 0 0 1 -9.39 -1 44.2 44.2 0 0 1 -11.5 -3.75c-3.11-1.62-4.05-3-3.91-3.77 0.21-1.06 2.67-2.13 7.71-2.13a49.8 49.8 0 0 1 9.39 1 44.2 44.2 0 0 1 11.5 3.75c3.11 1.62 4.05 3 3.91 3.77-1 1-3 2-8 2z"/>
<path d="m129 125v1.37a49.1 49.1 0 0 1 9.26 1 43.5 43.5 0 0 1 11.3 3.69c3.12 1.63 3.59 2.81 3.55 3-0.1 0.49-2 1.57-7 1.57a49.1 49.1 0 0 1 -9.26 -1 43.5 43.5 0 0 1 -11.3 -3.69c-3.12-1.63-3.59-2.81-3.55-3 0.1-0.49 2-1.57 7-1.57v-1.37c-4.73 0-8 0.94-8.38 2.68-0.54 2.76 6.59 6.49 15.9 8.33a50.4 50.4 0 0 0 9.52 1c4.73 0 8-0.94 8.38-2.68 0.54-2.76-6.59-6.49-15.9-8.33a50.4 50.4 0 0 0 -9.52 -1z"/>
<line y1="130" x2="137" x1="138" y2="131" class="cls-7"/>
<path class="cls-12" d="m188 138c-5 0-7.5-1.07-7.71-2.13-0.15-0.76 0.8-2.15 3.91-3.77a44.2 44.2 0 0 1 11.5 -3.75 49.8 49.8 0 0 1 9.39 -1c5 0 7.5 1.07 7.71 2.13 0.15 0.76-0.8 2.15-3.91 3.77a44.2 44.2 0 0 1 -11.5 3.75 49.8 49.8 0 0 1 -9.39 1z"/>
<path d="m205 128c5 0 6.94 1.08 7 1.57 0.17 0.88-4 4.58-14.9 6.72a49.1 49.1 0 0 1 -9.26 1c-5 0-6.94-1.08-7-1.57 0-0.23 0.43-1.4 3.55-3a43.5 43.5 0 0 1 11.3 -3.69 49.1 49.1 0 0 1 9.26 -1m0-1.37a50.4 50.4 0 0 0 -9.52 1c-9.34 1.84-16.5 5.56-15.9 8.33 0.34 1.74 3.65 2.68 8.38 2.68a50.4 50.4 0 0 0 9.52 -1c9.34-1.84 16.5-5.56 15.9-8.33-0.34-1.74-3.65-2.68-8.38-2.68z"/>
<line y1="132" x2="197" x1="196" y2="133" class="cls-7"/>
<rect rx=".91" ry=".91" height="2.97" width="1.83" y="133" x="156" class="cls-11"/>
<rect rx=".91" ry=".91" height="2.97" width="1.83" y="133" x="176" class="cls-11"/>
<path class="cls-4" d="m69.4 93a13.5 13.5 0 0 1 13.5 13.5v18a9.56 9.56 0 0 1 -9.56 9.56h-7.1a10.2 10.2 0 0 1 -10.2 -11v-16a13.5 13.5 0 0 1 13.4 -14z"/>
<path class="cls-5" d="m75.5 97.1c3.5-2.9 6.5-7.7 10.6-7.3 0.63 0.07 2 0.35 2.74-0.41 1.07-1.07 0.27-3.49-0.14-4.66-4.18-12.1-6.27-18.2-10.8-20.4a13.4 13.4 0 0 0 -8.4 -1.3c-8.91 1.72-16.3 14.6-12.6 24.8 2.39 6.6 9.55 12.5 14.8 11.4a9.18 9.18 0 0 0 3.78 -2"/>
<path class="cls-9" d="m81.3 81.5s-3.7 2.67-6.85 0"/>
<path class="cls-9" d="m75.1 96.4a2.86 2.86 0 1 1 4 -4"/>
<path class="cls-6" d="m70.2 44.6c-2.16-5.26-13.8-34.2-5.54-41 3.31-2.7 11-2.79 13.9 1 1.6 2.08 1.4 4.8 1.3 6.4-1.44 17.4-4.94 20.5-4.26 28.1 0.87 9.7 9 11.1 9.38 23 0.46 5.25 0.23 6.17-4.09 10.4-18.5 15-18.8 17.9-26.7 2.5-1.8-3.5 5.7-8.7 4.8-16.2-0.67-5.61-4.8-6.07-5-11-0.21-6.87 7.54-8.77 7.59-15.2 0-7-9.15-8.29-9.7-16.7-0.3-5.9 3.8-10.5 4.5-11.2 5-5.48 13-4.63 20.7-1.46"/>
<path class="cls-6" d="m56 68.7c-4.19 4.17-5.79 14.2-3 17.6 0.85 1.77 3.07 5 5.93 5s7.4-1.9 7.87-8.68c0.14-2.05 2-3 3.68-4 1.41-0.92 2.14-0.68 2.14-0.68"/>
<path class="cls-11" d="m68.8 85.9c0.09-0.19-2.32-3.77-4-3.79a1.46 1.46 0 0 0 -0.84 0.23c-1.08 0.71-1 2.94 0.42 4.58s3.59 1.81 3.76 1.43c0.9-2.1-0.1-1.1 0.6-2.4z"/>
<path class="cls-4" d="m65.3 84.6a6.72 6.72 0 0 1 1.48 1.57"/>
<path class="cls-4" d="m80.9 63.7c0.23 5.56-5.37 9.56-5 9.82s6.36-3.13 7.28-8.68c1-5.82-4.13-11.4-4.52-11.2-0.14 0.06 0.29 0.88 1 3.66a37.4 37.4 0 0 1 1.2 6.4z"/>
<path class="cls-4" d="m57.9 15c-0.23 5.56 5.37 9.56 5 9.82s-6.36-3.13-7.28-8.68c-1-5.82 4.13-11.4 4.52-11.2 0.14 0.06-0.29 0.88-1 3.66a37.4 37.4 0 0 0 -1.2 6.44z"/>
<path class="cls-3" d="m76 179h-13.3a14.2 14.2 0 0 1 -14.2 -17.1l7-36.8c0.65-3.42 5.29 3.14 10.4 3.14h7c5.07 0 9.71-6.57 10.4-3.14l7 36.8a14.2 14.2 0 0 1 -14.3 17z"/>
<path class="cls-4" d="m57.7 100c-0.32 0.66-0.29 0.64-0.49 1s-2.51 5-5.17 6.27c-6.85 3.21-12.3-2.75-12.3-2.81a3.92 3.92 0 0 0 -5.86 5.21 21.2 21.2 0 0 0 6.06 4.47 17.3 17.3 0 0 0 15.5 0.23c6.24-2.93 8.39-7.33 9.08-10.6"/>
<path class="cls-11" d="m65.4 120a20.2 20.2 0 0 1 -9 -2.2 23.8 23.8 0 0 1 -6.85 -5.05 3.88 3.88 0 1 1 5.8 -5.16c0.17 0.19 4.23 4.62 10.1 4.62a12 12 0 0 0 5.1 -1.17c3.3-1.55 5.28-3.68 5.87-6.34a6 6 0 0 1 0.48 -1.28 3.72 3.72 0 0 1 3.44 -2.18 4.07 4.07 0 0 1 3 1.31 3.55 3.55 0 0 1 0.84 2.86c0 0.08-0.06 0.36-0.06 0.36-0.68 3.73-3 8.89-10.3 12.3a19.7 19.7 0 0 1 -8.41 1.93z"/>
<path d="m80.3 100v1.37a3.37 3.37 0 0 1 2.5 1.08 2.88 2.88 0 0 1 0.67 2.33v0.21 0.12c-0.65 3.57-2.89 8.52-9.9 11.8a19 19 0 0 1 -8.12 1.87 19.5 19.5 0 0 1 -8.7 -2.12 23.2 23.2 0 0 1 -6.64 -4.9 3.2 3.2 0 1 1 4.78 -4.25c0.18 0.2 4.39 4.84 10.6 4.84a12.6 12.6 0 0 0 5.39 -1.24c3.5-1.64 5.6-3.93 6.25-6.81a5.35 5.35 0 0 1 0.42 -1.13 3.05 3.05 0 0 1 2.82 -1.8v-1.37a4.41 4.41 0 0 0 -4.1 3.4 6.72 6.72 0 0 0 -0.53 1.43c-0.55 2.44-2.4 4.42-5.49 5.87a11.2 11.2 0 0 1 -4.81 1.11c-5.57 0-9.5-4.33-9.55-4.39a4.57 4.57 0 1 0 -6.83 6.07 24.7 24.7 0 0 0 7.06 5.21 20.9 20.9 0 0 0 9.31 2.27 20.4 20.4 0 0 0 8.7 -2c7.53-3.53 10-8.91 10.7-12.8v-0.12q0-0.14 0-0.28a4.39 4.39 0 0 0 -4.53 -4.94z"/>
<path class="cls-6" d="m71.9 170l0.17 8.8v2.58c-0.05 1.3 0.08 4 2 4.8 2.58 1.09 10 3.65 12.6 2.6s2.93-3.19 1.77-4a55.3 55.3 0 0 0 -6.57 -2.9 1 1 0 0 1 -0.62 -0.88l-0.3-11"/>
<path class="cls-6" d="m59.3 172l0.17 8.8v2.58c-0.05 1.3 0.08 4 2 4.8 2.58 1.09 10 3.65 12.6 2.6s2.93-3.19 1.77-4a55.3 55.3 0 0 0 -6.57 -2.9 1 1 0 0 1 -0.62 -0.88l-0.22-11.2"/>
<polyline points="105 75.4 105 65.8 112 62.8 112 71.2" class="cls-7"/>
<ellipse rx="1.94" transform="translate(-18.8 99.2) rotate(-45)" ry="1.05" cy="72.3" cx="110" class="cls-10"/>
<ellipse rx="1.94" transform="translate(-9.63 102) rotate(-45)" ry="1.05" cy="62.7" cx="118" class="cls-10"/>
<ellipse rx="1.94" transform="translate(-23.5 95.6) rotate(-45)" ry="1.05" cy="76.2" cx="104" class="cls-10"/>
<polyline points="126 77.6 126 68 133 65.1 133 73.5" class="cls-7"/>
<ellipse rx="1.94" transform="translate(-14.4 115) rotate(-45)" ry="1.05" cy="74.6" cx="131" class="cls-10"/>
<ellipse rx="1.94" transform="translate(-19 111) rotate(-45)" ry="1.05" cy="78.5" cx="124" class="cls-10"/>
<line y1="62" x2="120" x1="120" y2="53.2" class="cls-6"/>
<ellipse rx="1.94" transform="translate(5.48 111) rotate(-45)" ry="1.05" cy="49" cx="137" class="cls-10"/>
<polyline points="139 48.3 138 39.5 141 37.6" class="cls-7"/>
<path class="cls-11" d="m101 98.2a5.26 5.26 0 0 1 -5.25 -5.25v-3.9a5.25 5.25 0 1 1 10.5 0v3.88a5.26 5.26 0 0 1 -5 5.2z"/>
<path d="m101 84.5a4.57 4.57 0 0 1 5 4.6v3.88a4.57 4.57 0 1 1 -9.14 0v-3.9a4.57 4.57 0 0 1 4.57 -4.57m0-1.37a6 6 0 0 0 -5.94 5.94v3.88a6 6 0 0 0 5.94 5.94 6 6 0 0 0 5.94 -5.94v-3.8a6 6 0 0 0 -5.94 -5.94z"/>
<line y1="94.8" x2="103" x1="106" y2="94.8" class="cls-9"/>
<line y1="92.3" x2="103" x1="107" y2="92.3" class="cls-9"/>
<line y1="89.7" x2="103" x1="107" y2="89.7" class="cls-9"/>
<line y1="87.2" x2="103" x1="106" y2="87.2" class="cls-9"/>
<line y1="94.8" x2="97" x1="100" y2="94.8" class="cls-9"/>
<line y1="92.3" x2="96.2" x1="100" y2="92.3" class="cls-9"/>
<line y1="89.7" x2="96.2" x1="100" y2="89.7" class="cls-9"/>
<line y1="87.2" x2="97" x1="100" y2="87.2" class="cls-9"/>
<circle cy="100" cx="103" r="1.37" class="cls-9" transform="translate(-40.6 102) rotate(-45)"/>
<circle cy="183" cx="103" r="1.37" class="cls-13" transform="translate(-99.1 127) rotate(-45)"/>
<line y1="102" x2="103" x1="103" y2="182" class="cls-5"/>
<line y1="184" x2="89.1" x1="102" y2="192" class="cls-4"/>
<line y1="184" x2="117" x1="104" y2="193" class="cls-4"/>
<line y1="183" x2="109" x1="105" y2="182" class="cls-4"/>
<path d="m155 190c-2.18-3.8-7.14-4.43-11.1-4-5.32 0.58-10.5 2-15.9 1.57-4.59-0.37-9.39-2.19-12.2-6s-3.4-8.7-4.16-13.2c-1.81-10.7-3.33-21.5-3.06-32.4 0.08-3 0.34-6.05 0.3-9.08a39.2 39.2 0 0 0 -1 -8.09c-1.27-5.56-3.24-11-2.93-16.8 0-0.73-1.1-0.73-1.14 0-0.26 4.89 1.08 9.61 2.28 14.3a52.8 52.8 0 0 1 1.52 7.55 51.8 51.8 0 0 1 0.06 7.93 156 156 0 0 0 2.06 31.6c0.74 4.76 1.26 9.8 2.89 14.4a15.5 15.5 0 0 0 8 9.07c4.26 2 9 2.26 13.7 1.79 2.56-0.26 5.09-0.74 7.63-1.16a17.3 17.3 0 0 1 7.73 0c1.89 0.56 6.85 3.63 3.67 5.63-2 1.24-4.11 2.15-6 3.57-1.63 1.26-3.18 3-3.4 5.15a3.65 3.65 0 0 0 0.66 2.62c0.7 0.92 2.78 1.69 2.25 3.1-0.26 0.69 0.84 1 1.1 0.3 0.84-2.2-1.73-2.83-2.59-4.31-1.33-2.29 1.29-5 3-6.18s3.61-2.1 5.41-3.17 2-5 1-6z"/>
<path d="m296 189c-5.81 2-11.3-1.62-15-5.81-1.55-1.74-2.85-4.21-5-5.24a6.17 6.17 0 0 0 -3.5 -0.36c-1.5 0.19-3 0.44-4.51 0.61a94.1 94.1 0 0 1 -18.7 0.22 59.3 59.3 0 0 1 -8.84 -1.28c-2.56-0.62-5.27-1.71-6.85-3.93a7.71 7.71 0 0 1 -1 -4 23.4 23.4 0 0 0 5.54 1.53 52.2 52.2 0 0 0 14.8 0.32 20.5 20.5 0 0 0 4.33 -0.77 2.69 2.69 0 0 0 1.22 -4.59c-1.75-2-4.68-3.07-7.2-3.61a38.3 38.3 0 0 0 -8.21 -0.67c-4.28 0-10.8 0.14-11.7 5.58v0.29a10.3 10.3 0 0 1 -1.51 -1.15c-2.22-2-3.39-4.91-5.71-6.89a20.5 20.5 0 0 0 -6.69 -3.73c-6.37-2.19-13.2-1.5-19.8-0.81-0.72 0.08-0.73 1.22 0 1.14 6.58-0.69 13.5-1.41 19.8 0.89a18 18 0 0 1 7.36 4.78c1.9 2.12 3 4.71 5.43 6.4a12.3 12.3 0 0 0 1 0.66c0.21 4.49 4.62 7.44 8.72 8.51a58.1 58.1 0 0 0 9.5 1.41 94.1 94.1 0 0 0 10.1 0.35 95.1 95.1 0 0 0 11.6 -0.95c2-0.28 3.93-0.71 5.58 0.74a32.4 32.4 0 0 1 3 3.58c4.07 4.8 10.2 9.05 16.8 6.83 2 0 2-1 1-1zm-63-23c1.38-2.15 4.13-2.67 6.49-2.83 4.94-0.33 10.7-0.41 15.2 1.88a7.16 7.16 0 0 1 3.12 2.45c1 1.86-1.37 2.37-2.64 2.59a50.6 50.6 0 0 1 -9.39 0.74 46.8 46.8 0 0 1 -9 -0.93 19.2 19.2 0 0 1 -4.54 -1.48 4.64 4.64 0 0 1 1 -2z"/>
<rect transform="translate(246 29) rotate(120)" rx=".34" ry=".34" height="2.66" width=".69" y="84.3" x="114" class="cls-4"/>
<rect transform="matrix(.5 .87 -.87 .5 184 -146)" rx=".34" ry=".34" height="2.66" width=".69" y="84.5" x="218" class="cls-4"/>
</g>
</g>
</svg>
