<svg xmlns="http://www.w3.org/2000/svg" viewBox="0 0 318.29 173.62"><defs><style>.cls-1,.cls-2,.cls-4,.cls-6{fill:#fff;}.cls-1,.cls-2,.cls-3,.cls-5,.cls-6,.cls-7{stroke:#000;stroke-miterlimit:10;}.cls-1,.cls-3,.cls-5,.cls-7{stroke-linecap:round;}.cls-1,.cls-2,.cls-3,.cls-5{stroke-width:1.68px;}.cls-5,.cls-7{fill:none;}.cls-6{stroke-width:0.28px;}.cls-7{stroke-width:2px;}</style></defs><title>dokbewoner-bg</title><g id="Layer_2" data-name="Layer 2"><g id="HOME"><g id="member-asset"><path class="cls-1" d="M55.21,40.59h0A16.55,16.55,0,0,1,71.76,57.13V85.22a5.16,5.16,0,0,1-5.16,5.16H44.65a6,6,0,0,1-6-6V57.13A16.55,16.55,0,0,1,55.21,40.59Z" transform="translate(-29.77 76.22) rotate(-57.06)"/><path class="cls-2" d="M142,79.66,152.45,77c1-.26,2-.54,3-.86,1.52-.49,4.75-1.21,6.34.82,2.13,2.7,7.59,10.69,7.18,14s-2.82,4.5-4.18,3.41c-1.1-.88-4.35-5.19-5.57-6.83a1.19,1.19,0,0,0-1.25-.44l-13.28,3.38"/><path class="cls-3" d="M143.82,72.75a5,5,0,0,1,5.24,1.83c2.92,3.91,7.72,11.3,6.58,16.4-1.31,5.85-34.87,9-47.66,10a5,5,0,0,1-4.81-2.71,13.17,13.17,0,0,0-3.38-4.17L86.31,85.57c-1.14-1.19-3.67-4.7-4.42-5.5l-.58-5.58c-.93-1-.1-2.71,0-4.08l-1.19-2.46c.29-3.88,12.94,1.62,16.33,3.53,4.76,2.68,9.3,6.37,13.41,8.1,2.25.95,7.28.19,9.65-.43Z"/><path class="cls-4" d="M26.29,79.21a29,29,0,0,1-3.94-.28A23.86,23.86,0,0,1,4.58,67,29.45,29.45,0,0,1,.9,57.26a4.77,4.77,0,0,1,4.72-5.49,4.79,4.79,0,0,1,4.71,4c0,.12,2,12.11,13.33,13.67a19.24,19.24,0,0,0,2.59.19,10.55,10.55,0,0,0,7.69-2.8,10.61,10.61,0,0,0,2.25-3.29l9.31,2.35a20.21,20.21,0,0,1-4.33,7.19,19.71,19.71,0,0,1-14.86,6.09Z"/><path d="M5.62,52.61a4,4,0,0,1,3.87,3.34c0,.13,2.1,12.73,14,14.37a20,20,0,0,0,2.71.19,11.36,11.36,0,0,0,8.28-3,11.39,11.39,0,0,0,2.12-2.91l7.74,2a19.41,19.41,0,0,1-3.84,6,18.88,18.88,0,0,1-14.25,5.83,28.29,28.29,0,0,1-3.83-.27A23.06,23.06,0,0,1,5.3,66.61a28.53,28.53,0,0,1-3.58-9.48A3.93,3.93,0,0,1,5,52.65a4,4,0,0,1,.6,0m0-1.68A5.61,5.61,0,0,0,.07,57.38,30.37,30.37,0,0,0,3.86,67.46a24.69,24.69,0,0,0,18.38,12.3,29.83,29.83,0,0,0,4.05.29A20.37,20.37,0,0,0,46.55,65.32L35.67,62.58l0-.08a9.19,9.19,0,0,1-9.45,6.33,18.26,18.26,0,0,1-2.48-.18C13,67.18,11.17,55.8,11.15,55.69a5.61,5.61,0,0,0-5.54-4.76Z"/><path class="cls-1" d="M35.94,60.86s2.67-9.86,11.3-6.35c6.44,2.62,3.23,9.12,1.17,12.26a3.72,3.72,0,0,1-3.75,1.64C42.13,68,38.24,66.37,35.94,60.86Z"/><path class="cls-2" d="M8,34.21c6.3-14.44,9.46-21.66,15.25-23.93a16.41,16.41,0,0,1,10.37-.86c10.74,3,18.56,19.41,13,31.6-3.58,7.84-12.91,14.4-19.23,12.47-6.5-2-10.07-13-16.7-12.82-.78,0-2.46.23-3.31-.77C6.2,38.48,7.42,35.6,8,34.21Z"/><path class="cls-5" d="M15.85,29.45s4.27,3.64,8.39.67"/><path class="cls-5" d="M20.69,48a11,11,0,0,0,5.13-2.83c.24-.21.46-.43.66-.64"/><path d="M58.22,53.93c-5.17,0-9.32-1.47-14.13-3.17l-.24-.08C31.21,46.19,25.9,29.81,22.39,19a68.77,68.77,0,0,0-2.85-7.88,3.39,3.39,0,0,1,.21-3.47C22.54,3.15,34.46.14,43.84.14a31.81,31.81,0,0,1,9.24,1.19c7.58,2.37,11.56,7.22,15.08,11.5s6.4,7.79,11.8,8.1l.89,0C88.55,21,94.13,15,99.52,9.32c1.72-1.82,3.49-3.7,5.3-5.34a13.79,13.79,0,0,1,18-.5c10,8.16,18.12,25.25,13.39,33.56-2.43,4.27-13.71,4.47-25.64,4.69-10.16.18-20.66.37-25.87,3.23C73.4,51.17,65.23,53.93,58.22,53.93Z"/><path d="M43.84,0V.28A31.68,31.68,0,0,1,53,1.46c7.54,2.36,11.51,7.19,15,11.45s6.44,7.83,11.9,8.15l.9,0c7.76,0,13.36-5.93,18.77-11.67,1.72-1.82,3.49-3.7,5.29-5.33a13.65,13.65,0,0,1,17.82-.49A45.21,45.21,0,0,1,134.9,20.27c2.91,6.84,3.34,12.93,1.19,16.71-2.39,4.2-14.15,4.41-25.52,4.62-10.17.18-20.7.37-25.93,3.25-11.28,6.19-19.43,9-26.42,9-5.15,0-9.29-1.47-14.08-3.17l-.24-.09C31.32,46.08,26,29.74,22.52,18.93A68.72,68.72,0,0,0,19.66,11a3.26,3.26,0,0,1,.2-3.33C22.63,3.26,34.5.28,43.84.28V0m0,0C31.36,0,16.37,5,19.41,11.16c3.87,7.91,7.88,33.8,24.4,39.65,4.89,1.73,9.13,3.27,14.42,3.27,6.36,0,14.22-2.22,26.55-9,11.18-6.14,47,.11,51.56-8,4.78-8.39-3.44-25.58-13.42-33.74a13.93,13.93,0,0,0-18.19.5C97.32,10.61,91,20.81,80.85,20.81l-.88,0C69.1,20.15,68.09,5.88,53.12,1.19A31.91,31.91,0,0,0,43.84,0Z"/><path class="cls-1" d="M48.54,3.32c3.43-1.25,16.19,13,17.23,14.13,2.54,2.84,4.32,5.21,3.8,6.56a1.62,1.62,0,0,1-1.93.92c-2.5-.62-3-5.85-7.91-10.74-5.11-5.07-11-5.82-11.87-8.78A1.63,1.63,0,0,1,48.54,3.32Z"/><path class="cls-1" d="M74.13,47c-9.52,2.13-10.32,3.38-25.38.08a79.53,79.53,0,0,1-9.19-2.82c-2.11-.76-2.29-.9-2.26-1,.13-.41,7.54,1.54,17.81,2.24,4.67.32,7,.48,9.3.06,3.77-.69,6-2.11,8-1.17C73.47,44.92,76,46.58,74.13,47Z"/><path class="cls-4" d="M28.92,36.63c-.17-.19,1.61-5.19,3.56-5.71a1.79,1.79,0,0,1,1.07,0c1.5.52,2.09,3.19.9,5.57-1.09,2.17-3.71,3.24-4,2.84C28.59,37,30,37.91,28.92,36.63Z"/><path class="cls-1" d="M33,34a8.25,8.25,0,0,0-1.27,2.32"/><path class="cls-6" d="M123.23,9.27s8.82,10.05,6.78,19c-1.45,6.32-4.84,6.73-8.2,8.57s-.85-1.32,2.33-3.38c2.57-1.68,4.19-6,3.37-9.93s-4.79-11.7-4.85-11.89S119.81,8.15,123.23,9.27Z"/><path class="cls-7" d="M152.32,116.55s69.5,33.25,107.41,12.73c17.86-9.67,20.11-20.75,13.57-25.91a22.3,22.3,0,0,0-16.15-4.5c-8.57.9-17.89,6.47-16,16.36,3.65,19,36.82,57.39,76.13,57.39"/><path class="cls-2" d="M110.86,100.55l10.66-1.79c1-.17,2.08-.37,3.1-.61,1.55-.36,4.83-.81,6.25,1.34,1.9,2.87,6.67,11.28,6,14.58s-3.18,4.25-4.45,3c-1-1-3.9-5.53-5-7.27a1.19,1.19,0,0,0-1.21-.54l-13.51,2.27"/><path class="cls-3" d="M113.15,93.82a5,5,0,0,1,5.06,2.25c2.59,4.13,6.77,11.9,5.2,16.9-1.63,5.19-29.58,6-44.3,6a9,9,0,0,1-9-8.9l0-7a18.87,18.87,0,0,0-4-11.5l-2.4-2.07.92-2.84a31.86,31.86,0,0,0,1.47-3.28c1.73-4.75,12.75-18.28,15.52-15.86,3.26,2.84,5.24,12.44,4.34,20a44.07,44.07,0,0,0-.32,7.62l.07,1.35A1.63,1.63,0,0,0,87.58,98Z"/></g></g></g></svg>