<?xml version="1.0" encoding="UTF-8" standalone="no"?>
<svg xmlns="http://www.w3.org/2000/svg" viewBox="0 0 318.29 173.62">
<defs>
<style>.cls-1,.cls-2,.cls-4,.cls-6{fill:#fff;}.cls-1,.cls-2,.cls-3,.cls-5,.cls-6,.cls-7{stroke:#000;stroke-miterlimit:10;}.cls-1,.cls-3,.cls-5,.cls-7{stroke-linecap:round;}.cls-1,.cls-2,.cls-3,.cls-5{stroke-width:1.68px;}.cls-5,.cls-7{fill:none;}.cls-6{stroke-width:0.28px;}.cls-7{stroke-width:2px;}</style>
</defs>
<title>dokbewoner-bg</title>
<g data-name="Layer 2">
<g id="HOME">
<g id="member-asset">
<path transform="translate(-29.8 76.2) rotate(-57.1)" class="cls-1" d="m55.2 40.6a16.6 16.6 0 0 1 16.6 16.5v28.1a5.16 5.16 0 0 1 -5.16 5.16h-22a6 6 0 0 1 -6 -6v-27.3a16.6 16.6 0 0 1 16.6 -16.5z"/>
<path class="cls-2" d="m142 79.7 10-2.7c1-0.26 2-0.54 3-0.86 1.52-0.49 4.75-1.21 6.34 0.82 2.13 2.7 7.59 10.7 7.18 14s-2.82 4.5-4.18 3.41c-1.1-0.88-4.35-5.19-5.57-6.83a1.19 1.19 0 0 0 -1.25 -0.44l-13.3 3.38"/>
<path class="cls-3" d="m144 72.8a5 5 0 0 1 5.24 1.83c2.92 3.91 7.72 11.3 6.58 16.4-1.31 5.85-34.9 9-47.7 10a5 5 0 0 1 -4.81 -2.71 13.2 13.2 0 0 0 -3.38 -4.17l-13.5-8.5c-1.14-1.19-3.67-4.7-4.42-5.5l-0.58-5.58c-0.93-1-0.1-2.71 0-4.08l-1.19-2.46c0.29-3.88 12.9 1.62 16.3 3.53 4.76 2.68 9.3 6.37 13.4 8.1 2.25 0.95 7.28 0.19 9.65-0.43z"/>
<path class="cls-4" d="m26.3 79.2a29 29 0 0 1 -3.94 -0.28 23.9 23.9 0 0 1 -17.8 -11.9 29.4 29.4 0 0 1 -3.7 -9.7 4.77 4.77 0 0 1 4.72 -5.49 4.79 4.79 0 0 1 4.71 4c0 0.12 2 12.1 13.3 13.7a19.2 19.2 0 0 0 2.59 0.19 10.6 10.6 0 0 0 7.69 -2.8 10.6 10.6 0 0 0 2.25 -3.29l9.31 2.35a20.2 20.2 0 0 1 -4.33 7.19 19.7 19.7 0 0 1 -14.9 6.09z"/>
<path d="m5.62 52.6a4 4 0 0 1 3.87 3.34c0 0.13 2.1 12.7 14 14.4a20 20 0 0 0 2.71 0.19 11.4 11.4 0 0 0 8.28 -3 11.4 11.4 0 0 0 2.12 -2.91l7.74 2a19.4 19.4 0 0 1 -3.84 6 18.9 18.9 0 0 1 -14.2 5.83 28.3 28.3 0 0 1 -3.83 -0.27 23.1 23.1 0 0 1 -17.2 -11.5 28.5 28.5 0 0 1 -3.58 -9.48 3.93 3.93 0 0 1 3.28 -4.5 4 4 0 0 1 0.6 0m0-1.68a5.61 5.61 0 0 0 -5.53 6.5 30.4 30.4 0 0 0 3.79 10.1 24.7 24.7 0 0 0 18.4 12.3 29.8 29.8 0 0 0 4.05 0.29 20.4 20.4 0 0 0 20.3 -14.8l-10.9-2.7v-0.08a9.19 9.19 0 0 1 -9.45 6.33 18.3 18.3 0 0 1 -2.48 -0.18c-10.8-1.4-12.6-12.8-12.6-12.9a5.61 5.61 0 0 0 -5.54 -4.76z"/>
<path class="cls-1" d="m35.9 60.9s2.67-9.86 11.3-6.35c6.44 2.62 3.23 9.12 1.17 12.3a3.72 3.72 0 0 1 -3.75 1.64c-2.5-0.5-6.4-2.1-8.7-7.6z"/>
<path class="cls-2" d="m8 34.2c6.3-14.4 9.46-21.7 15.2-23.9a16.4 16.4 0 0 1 10.4 -0.86c10.7 3 18.6 19.4 13 31.6-3.58 7.84-12.9 14.4-19.2 12.5-6.5-2-10.1-13-16.7-12.8-0.78 0-2.46 0.23-3.31-0.77-1.2-1.4 0.02-4.3 0.6-5.7z"/>
<path class="cls-5" d="m15.8 29.4s4.27 3.64 8.39 0.67"/>
<path class="cls-5" d="m20.7 48a11 11 0 0 0 5.13 -2.83c0.24-0.21 0.46-0.43 0.66-0.64"/>
<path d="m58.2 53.9c-5.17 0-9.32-1.47-14.1-3.17l-0.24-0.08c-12.7-4.4-18-20.8-21.5-31.6a68.8 68.8 0 0 0 -2.85 -7.88 3.39 3.39 0 0 1 0.21 -3.47c2.7-4.45 14.7-7.46 24-7.46a31.8 31.8 0 0 1 9.24 1.19c7.58 2.37 11.6 7.22 15.1 11.5s6.4 7.79 11.8 8.1h0.89c7.8 0.1 13.3-5.9 18.7-11.6 1.72-1.82 3.49-3.7 5.3-5.34a13.8 13.8 0 0 1 18 -0.5c10 8.16 18.1 25.2 13.4 33.6-2.43 4.27-13.7 4.47-25.6 4.69-10.2 0.18-20.7 0.37-25.9 3.23-11.5 6.2-19.7 8.9-26.7 8.9z"/>
<path d="m43.8 0v0.28a31.7 31.7 0 0 1 9.2 1.18c7.54 2.36 11.5 7.19 15 11.4s6.44 7.83 11.9 8.15h0.9c7.76 0 13.4-5.93 18.8-11.7 1.72-1.82 3.49-3.7 5.29-5.33a13.6 13.6 0 0 1 17.8 -0.49 45.2 45.2 0 0 1 12 16.8c2.91 6.84 3.34 12.9 1.19 16.7-2.39 4.2-14.2 4.41-25.5 4.62-10.2 0.18-20.7 0.37-25.9 3.25-11.3 6.19-19.4 9-26.4 9-5.15 0-9.29-1.47-14.1-3.17l-0.24-0.09c-12.8-4.5-18.1-20.9-21.6-31.7a68.7 68.7 0 0 0 -2.8 -7.9 3.26 3.26 0 0 1 0.2 -3.33c2.7-4.41 14.6-7.39 23.9-7.39v-0.28c-12.4 0-27.4 5-24.4 11.2 3.87 7.91 7.88 33.8 24.4 39.6 4.89 1.73 9.13 3.27 14.4 3.27 6.36 0 14.2-2.22 26.6-9 11.2-6.14 47 0.11 51.6-8 4.78-8.39-3.44-25.6-13.4-33.7a13.9 13.9 0 0 0 -18.2 0.5c-7.7 6.7-14 16.9-24.2 16.9h-0.88c-10.8-0.6-11.8-14.9-26.8-19.6a31.9 31.9 0 0 0 -9.3 -1.2z"/>
<path class="cls-1" d="m48.5 3.32c3.43-1.25 16.2 13 17.2 14.1 2.54 2.84 4.32 5.21 3.8 6.56a1.62 1.62 0 0 1 -1.93 0.92c-2.5-0.62-3-5.85-7.91-10.7-5.11-5.07-11-5.82-11.9-8.78a1.63 1.63 0 0 1 0.7 -2.08z"/>
<path class="cls-1" d="m74.1 47c-9.52 2.13-10.3 3.38-25.4 0.08a79.5 79.5 0 0 1 -9.19 -2.82c-2.11-0.76-2.29-0.9-2.26-1 0.13-0.41 7.54 1.54 17.8 2.24 4.67 0.32 7 0.48 9.3 0.06 3.77-0.69 6-2.11 8-1.17 1.2 0.5 3.7 2.2 1.8 2.6z"/>
<path class="cls-4" d="m28.9 36.6c-0.17-0.19 1.61-5.19 3.56-5.71a1.79 1.79 0 0 1 1.07 0c1.5 0.52 2.09 3.19 0.9 5.57-1.09 2.17-3.71 3.24-4 2.84-1.9-2.3-0.5-1.4-1.6-2.7z"/>
<path class="cls-1" d="m33 34a8.25 8.25 0 0 0 -1.27 2.32"/>
<path class="cls-6" d="m123 9.27s8.82 10 6.78 19c-1.45 6.32-4.84 6.73-8.2 8.57s-0.85-1.32 2.33-3.38c2.57-1.68 4.19-6 3.37-9.93s-4.79-11.7-4.85-11.9-2-3.55 1-2.43z"/>
<path class="cls-7" d="m152 117s69.5 33.2 107 12.7c17.9-9.67 20.1-20.8 13.6-25.9a22.3 22.3 0 0 0 -16.2 -4.5c-8.57 0.9-17.9 6.47-16 16.4 3.65 19 36.8 57.4 76.1 57.4"/>
<path class="cls-2" d="m111 101l10.7-1.79c1-0.17 2.08-0.37 3.1-0.61 1.55-0.36 4.83-0.81 6.25 1.34 1.9 2.87 6.67 11.3 6 14.6s-3.18 4.25-4.45 3c-1-1-3.9-5.53-5-7.27a1.19 1.19 0 0 0 -1.21 -0.54l-13.5 2.27"/>
<path class="cls-3" d="m113 93.8a5 5 0 0 1 5.06 2.25c2.59 4.13 6.77 11.9 5.2 16.9-1.63 5.19-29.6 6-44.3 6a9 9 0 0 1 -9 -8.9v-7a18.9 18.9 0 0 0 -4 -11.5l-2.4-2.07 0.92-2.84a31.9 31.9 0 0 0 1.47 -3.28c1.73-4.75 12.8-18.3 15.5-15.9 3.26 2.84 5.24 12.4 4.34 20a44.1 44.1 0 0 0 -0.32 7.62l0.07 1.35a1.63 1.63 0 0 0 2.1 1.6z"/>
</g>
</g>
</g>
</svg>
