<?xml version="1.0" encoding="UTF-8" standalone="no"?>
<svg xmlns="http://www.w3.org/2000/svg" viewBox="0 0 287.52 156.09">
<defs>
<style>.cls-1,.cls-12{fill:#8adbd2;}.cls-2{fill:#ef5d84;}.cls-10,.cls-13,.cls-3,.cls-5,.cls-6{fill:#fff;}.cls-10,.cls-11,.cls-13,.cls-3,.cls-4,.cls-5,.cls-7,.cls-8,.cls-9{stroke:#000;}.cls-10,.cls-11,.cls-3,.cls-7,.cls-8,.cls-9{stroke-linecap:round;}.cls-3,.cls-7,.cls-9{stroke-linejoin:round;}.cls-10,.cls-11,.cls-3,.cls-4,.cls-5,.cls-7,.cls-8,.cls-9{stroke-width:1.37px;}.cls-4,.cls-8,.cls-9{fill:none;}.cls-10,.cls-11,.cls-13,.cls-4,.cls-5,.cls-8{stroke-miterlimit:10;}.cls-12{font-size:21.7px;font-family:HereJustNow-Out, Here Just Now;}.cls-13{stroke-width:0.23px;}</style>
</defs>
<title>dok-kantine_1</title>
<g data-name="Layer 2">
<g id="HOME">
<path class="cls-1" d="m12.8 110c-1.9-14.8 6.1-29.1 18.5-33a158 158 0 0 1 28.1 -6.22c77.2-9.69 103 46 177 40.6 9.9-0.72 30.3-3.24 34.4 7.23 3.12 8-4.07 21-10.8 28.1-20.5 21.5-50 0.43-98.2-5.49-76-9.34-112 29.7-137 1.37-4.1-6-9.5-16-11.6-33z"/>
<polygon points="112 51.9 121 51.9 120 54.7 119 55.6 114 54.9 112 54.2" class="cls-2"/>
<polygon points="137 51.9 128 51.9 129 54.7 131 55.6 136 54.9 137 54.2" class="cls-2"/>
<rect rx="8.68" ry="8.68" height="17.4" width="129" y="63.3" x="70.1" class="cls-3"/>
<path class="cls-4" d="m117 49c-2.43-0.38-4.33-1.13-4.25-1.67l-0.72 4.59a2.75 2.75 0 0 0 3 3.1l3.39 0.53a2.75 2.75 0 0 0 3.13 -2.28l0.72-4.59c0 0.6-2 0.8-5 0.4z"/>
<ellipse rx=".99" transform="translate(51.7 157) rotate(-81)" ry="4.46" cy="48" cx="117" class="cls-5"/>
<ellipse rx=".81" transform="translate(33.2 168) rotate(-81)" ry="3.66" cy="64.7" cx="115" class="cls-5"/>
<path class="cls-5" d="m116 55.3c0.11 0-1.35 8.58-1.35 8.58"/>
<path class="cls-4" d="m132 49c2.43-0.38 4.33-1.13 4.25-1.67l0.72 4.59a2.75 2.75 0 0 1 -2 3.1l-3.39 0.53a2.75 2.75 0 0 1 -3.13 -2.28l-0.72-4.59c0 0.6 2 0.8 4 0.4z"/>
<ellipse rx="4.46" transform="translate(-5.86 21.1) rotate(-8.95)" ry=".99" cy="48" cx="132" class="cls-5"/>
<ellipse rx="3.66" transform="translate(-8.42 21.7) rotate(-8.95)" ry=".81" cy="64.7" cx="135" class="cls-5"/>
<path class="cls-5" d="m133 55.3c-0.11 0 1.35 8.58 1.35 8.58"/>
<path class="cls-6" d="m87 112a13.5 13.5 0 0 1 -3 -0.39c-2.63-0.62-4-1.56-4.19-1.94a3.43 3.43 0 0 1 1.6 -0.26 13.5 13.5 0 0 1 3 0.39c2.63 0.62 4 1.56 4.19 1.94a3.45 3.45 0 0 1 -1.6 0z"/>
<path d="m81.6 110a13.4 13.4 0 0 1 2.63 0.37 13.2 13.2 0 0 1 2.52 0.85 13.4 13.4 0 0 1 -2.63 -0.37 13.2 13.2 0 0 1 -2.52 -0.85m-0.23-1.37c-1.29 0-2.18 0.27-2.3 0.78-0.2 0.87 1.91 2.11 4.73 2.78a14.2 14.2 0 0 0 3.17 0.41c1.29 0 2.18-0.27 2.3-0.78 0.2-0.87-1.91-2.11-4.73-2.78a14.2 14.2 0 0 0 -3.17 -0.41z"/>
<path class="cls-6" d="m100 110a13.5 13.5 0 0 1 -3 -0.39c-2.63-0.62-4-1.56-4.19-1.94a3.45 3.45 0 0 1 1.6 -0.26 13.5 13.5 0 0 1 3 0.39c2.63 0.62 4 1.56 4.19 1.94a3.44 3.44 0 0 1 -2 0z"/>
<path d="m94.6 108a13.4 13.4 0 0 1 2.63 0.37 13.2 13.2 0 0 1 2.52 0.85 13.4 13.4 0 0 1 -2.63 -0.37 13.2 13.2 0 0 1 -2.52 -0.85m-0.23-1.37c-1.29 0-2.18 0.27-2.3 0.78-0.2 0.87 1.91 2.11 4.73 2.78a14.2 14.2 0 0 0 3.17 0.41c1.29 0 2.18-0.27 2.3-0.78 0.2-0.87-1.91-2.11-4.73-2.78a14.2 14.2 0 0 0 -3.17 -0.41z"/>
<path d="m194 90m-2 2v13.9l-5 4.77v-14.2l5-4.8m1-3a0.18 0.18 0 0 0 -0.13 0.05l-7.24 7a0.81 0.81 0 0 0 -0.25 0.58v15.4a0.81 0.81 0 0 0 0.81 0.81 0.79 0.79 0 0 0 0.55 -0.23l6.19-5.95a0.5 0.5 0 0 0 0.15 -0.58v-16.8c0.07-0.11 0-0.19-0.09-0.19z"/>
<path d="m77.8 90m-2.1 2v13.9l-5 4.77v-14.2l5-4.77m1.3-3a0.18 0.18 0 0 0 -0.13 0.05l-7.24 7a0.81 0.81 0 0 0 -0.25 0.58v15.4a0.81 0.81 0 0 0 0.81 0.81 0.79 0.79 0 0 0 0.55 -0.23l6.2-6a0.5 0.5 0 0 0 0.15 -0.58v-16.8c0.07-0.11 0-0.19-0.09-0.19z"/>
<path class="cls-3" d="m190 95.8h-122c-1.83 0-2.39-1.27-1.26-2.83l0.6-0.82a7.54 7.54 0 0 1 5.38 -2.83h122c1.83 0 2.39 1.27 1.26 2.83l-0.6 0.82a7.54 7.54 0 0 1 -5 2.8z"/>
<path class="cls-6" d="m160 112a3.44 3.44 0 0 1 -1.6 -0.26c0.23-0.38 1.56-1.32 4.19-1.94a13.5 13.5 0 0 1 3 -0.39 3.45 3.45 0 0 1 1.6 0.26c-0.23 0.38-1.56 1.32-4.19 1.94a13.5 13.5 0 0 1 -3 0.39z"/>
<path d="m166 110a13.2 13.2 0 0 1 -2.52 0.85 13.4 13.4 0 0 1 -2.63 0.37 13.2 13.2 0 0 1 2.52 -0.85 13.4 13.4 0 0 1 2.63 -0.37m0.23-1.37a14.2 14.2 0 0 0 -3.17 0.41c-2.82 0.66-4.94 1.91-4.73 2.78 0.12 0.51 1 0.78 2.3 0.78a14.2 14.2 0 0 0 3.17 -0.41c2.82-0.66 4.94-1.91 4.73-2.78-0.12-0.51-1-0.78-2.3-0.78z"/>
<path class="cls-6" d="m163 113a2.73 2.73 0 0 1 -2.3 -1.25l-0.11-0.17c-1.65-2.69-3-7.06-0.49-13a15.7 15.7 0 0 1 10.6 -9.25 20.4 20.4 0 0 1 5.35 -0.72 14.1 14.1 0 0 1 1.51 0.07 3 3 0 0 1 -0.34 6.06h-0.35a8.88 8.88 0 0 0 -0.9 0c-2.3 0-7.91 0.61-10.3 6.27-1.18 2.78-1.21 5.18-0.11 7.16a4.79 4.79 0 0 1 0.4 1 2.88 2.88 0 0 1 -0.45 2.62 3.24 3.24 0 0 1 -2.53 1.28z"/>
<path d="m176 89.2a13.4 13.4 0 0 1 1.43 0.07 2.36 2.36 0 0 1 -0.26 4.7h-0.27a9.57 9.57 0 0 0 -1 0c-2.44 0-8.38 0.65-11 6.69-1.27 3-1.29 5.59-0.08 7.76a4.19 4.19 0 0 1 0.34 0.86 2.22 2.22 0 0 1 -0.34 2 2.55 2.55 0 0 1 -2 1 2.06 2.06 0 0 1 -1.74 -1l-0.09-0.13v-0.08c-1.52-2.47-2.82-6.62-0.39-12.3a15.1 15.1 0 0 1 10.2 -8.86 19.6 19.6 0 0 1 5.17 -0.7m0-1.37a21 21 0 0 0 -5.54 0.75 16.4 16.4 0 0 0 -11.1 9.64c-2.65 6.25-1.2 10.8 0.49 13.6l0.05 0.09 0.13 0.19a3.43 3.43 0 0 0 2.86 1.54 3.75 3.75 0 0 0 3.65 -4.77 5.49 5.49 0 0 0 -0.46 -1.16c-1-1.78-0.95-4 0.14-6.56 2.26-5.32 7.63-5.86 9.69-5.86h0.82 0.43a3.73 3.73 0 0 0 0.42 -7.43 14.8 14.8 0 0 0 -1.59 -0.07z"/>
<path class="cls-6" d="m151 111a2.73 2.73 0 0 1 -2.3 -1.25l-0.16-0.24c-1.6-2.61-3-7-0.44-13a15.7 15.7 0 0 1 10.6 -9.25 20.3 20.3 0 0 1 5.35 -0.72 14 14 0 0 1 1.51 0.07 3 3 0 0 1 -0.34 6.06h-0.35a8.91 8.91 0 0 0 -0.9 0c-2.3 0-7.91 0.61-10.3 6.28-1.18 2.77-1.22 5.18-0.11 7.16a4.78 4.78 0 0 1 0.4 1 2.88 2.88 0 0 1 -0.45 2.62 3.24 3.24 0 0 1 -2.53 1.28z"/>
<path d="m164 87.2a13.4 13.4 0 0 1 1.43 0.07 2.36 2.36 0 0 1 -0.26 4.7h-0.27a9.57 9.57 0 0 0 -1 0c-2.44 0-8.38 0.65-11 6.69-1.27 3-1.29 5.59-0.08 7.76a4.19 4.19 0 0 1 0.34 0.86 2.22 2.22 0 0 1 -0.34 2 2.55 2.55 0 0 1 -2 1 2.06 2.06 0 0 1 -1.74 -1l-0.09-0.13v-0.08c-1.52-2.47-2.82-6.62-0.39-12.3a15.1 15.1 0 0 1 10.2 -8.86 19.6 19.6 0 0 1 5.17 -0.7m0-1.37a21 21 0 0 0 -5.54 0.75 16.4 16.4 0 0 0 -11.1 9.64c-2.65 6.25-1.2 10.8 0.49 13.6l0.05 0.09 0.13 0.19a3.43 3.43 0 0 0 2.86 1.54 3.75 3.75 0 0 0 3.65 -4.77 5.49 5.49 0 0 0 -0.46 -1.16c-1-1.78-0.95-4 0.14-6.56 2.26-5.32 7.63-5.86 9.69-5.86h0.82 0.43a3.73 3.73 0 0 0 0.42 -7.43 14.8 14.8 0 0 0 -1.59 -0.07z"/>
<path class="cls-6" d="m93.8 122a3.1 3.1 0 0 1 -2.66 -1.67 2.92 2.92 0 0 1 0.16 -3.07 4.77 4.77 0 0 1 0.7 -1c1.65-1.55 2.34-3.86 2-6.86-0.74-7.69-8.74-9.31-8.82-9.33a3 3 0 0 1 0.58 -6 3.11 3.11 0 0 1 0.58 0.06 19.4 19.4 0 0 1 6.35 2.69 15.7 15.7 0 0 1 7.37 12c0.62 6.47-2 10.2-4.32 12.2l-0.22 0.19a2.84 2.84 0 0 1 -1.7 1z"/>
<path d="m85.8 94.5a2.38 2.38 0 0 1 0.45 0 18.7 18.7 0 0 1 6.11 2.59 15.1 15.1 0 0 1 7.06 11.5c0.59 6.17-1.89 9.74-4.09 11.6l-0.07 0.06-0.12 0.1a2.17 2.17 0 0 1 -1.33 0.49 2.45 2.45 0 0 1 -2.06 -1.31 2.22 2.22 0 0 1 0.13 -2.37 4.18 4.18 0 0 1 0.58 -0.72c1.81-1.7 2.57-4.2 2.26-7.42-0.78-8.15-9.28-9.92-9.37-9.93a2.36 2.36 0 0 1 0.45 -4.67m0-1.37a3.73 3.73 0 0 0 -0.71 7.39c0.08 0 7.58 1.56 8.27 8.72 0.27 2.78-0.35 4.9-1.84 6.3a5.48 5.48 0 0 0 -0.78 1 3.76 3.76 0 0 0 3.07 5.81 3.53 3.53 0 0 0 2.16 -0.77l0.18-0.15 0.08-0.07c2.44-2.11 5.2-6 4.55-12.8a16.4 16.4 0 0 0 -7.9 -13 20.2 20.2 0 0 0 -6.59 -2.79 3.74 3.74 0 0 0 -0.72 -0.07z"/>
<path class="cls-6" d="m80.8 123a3.1 3.1 0 0 1 -2.66 -1.67 2.92 2.92 0 0 1 0.16 -3.07 4.8 4.8 0 0 1 0.68 -0.85c1.65-1.55 2.34-3.86 2-6.86-0.74-7.67-8.74-9.31-8.82-9.33a3 3 0 0 1 0.58 -6 3.11 3.11 0 0 1 0.58 0.06 19.4 19.4 0 0 1 6.35 2.69 15.7 15.7 0 0 1 7.36 12c0.62 6.47-2 10.2-4.32 12.2l-0.23 0.19a2.83 2.83 0 0 1 -1.8 1z"/>
<path d="m72.8 95.4a2.38 2.38 0 0 1 0.45 0 18.7 18.7 0 0 1 6.1 2.6 15.1 15.1 0 0 1 7.06 11.5c0.59 6.17-1.89 9.74-4.09 11.6l-0.07 0.06-0.12 0.1a2.17 2.17 0 0 1 -1.33 0.49 2.45 2.45 0 0 1 -2.06 -1.31 2.22 2.22 0 0 1 0.13 -2.37 4.18 4.18 0 0 1 0.58 -0.72c1.81-1.7 2.57-4.2 2.26-7.42-0.78-8.15-9.28-9.92-9.37-9.93a2.36 2.36 0 0 1 0.45 -4.67m0-1.37a3.73 3.73 0 0 0 -0.71 7.39c0.08 0 7.58 1.56 8.27 8.72 0.27 2.78-0.35 4.9-1.84 6.3a5.48 5.48 0 0 0 -0.78 1 3.76 3.76 0 0 0 3.07 5.81 3.53 3.53 0 0 0 2.16 -0.77l0.18-0.15 0.08-0.07c2.44-2.11 5.2-6 4.55-12.8a16.4 16.4 0 0 0 -7.67 -12.5 20.2 20.2 0 0 0 -6.59 -2.79 3.74 3.74 0 0 0 -0.72 -0.07z"/>
<path class="cls-7" d="m68.1 105s15.3 7.86 36.3-2.05l-9.9-28a12.1 12.1 0 0 0 -11.4 -7.61h-0.36a8.06 8.06 0 0 0 -7.78 6.19z"/>
<path class="cls-6" d="m100 73.1a19.7 19.7 0 0 1 -8 -1.9c-7.27-3.41-9.6-8.57-10.3-12.3a16.4 16.4 0 0 1 0.2 -6.9l7.4 2.52a8.66 8.66 0 0 0 0.08 3.25c0.6 2.66 2.57 4.79 5.87 6.34a12 12 0 0 0 5.1 1.17c5.83 0 9.89-4.42 10.1-4.61a3.88 3.88 0 0 1 5.49 -0.33 3.88 3.88 0 0 1 0.32 5.48 24 24 0 0 1 -6.85 5.05 20.2 20.2 0 0 1 -9 2.2z"/>
<path d="m82.4 52.9 6.2 2.1a9.27 9.27 0 0 0 0.16 2.93c0.65 2.88 2.75 5.17 6.25 6.81a12.6 12.6 0 0 0 5 1.3c6.18 0 10.4-4.65 10.6-4.85a3.2 3.2 0 0 1 4.78 4.25 23.2 23.2 0 0 1 -6.64 4.9 19.5 19.5 0 0 1 -8.7 2.12 19 19 0 0 1 -8.12 -1.87c-7-3.29-9.25-8.23-9.9-11.8a15.8 15.8 0 0 1 0 -5.82m-1-1.77a16.8 16.8 0 0 0 -0.4 7.8c0.71 3.89 3.13 9.27 10.7 12.8a20.4 20.4 0 0 0 8.7 2 20.9 20.9 0 0 0 9.31 -2.27 24.7 24.7 0 0 0 7.06 -5.21 4.57 4.57 0 0 0 -6.83 -6.07c0 0.06-4 4.39-9.55 4.39a11.2 11.2 0 0 1 -4.81 -1.11c-3.1-1.45-4.95-3.43-5.49-5.87a7.85 7.85 0 0 1 0.4 -3.6v0.06l-8.65-2.94z"/>
<path class="cls-6" d="m149 73.1a20.2 20.2 0 0 1 -9 -2.2 24 24 0 0 1 -6.85 -5.05 3.88 3.88 0 1 1 5.81 -5.16s4.17 4.62 10.1 4.62a12 12 0 0 0 5.1 -1.17c3.3-1.55 5.28-3.68 5.87-6.34a8.63 8.63 0 0 0 0.08 -3.25l7.4-2.52a16.4 16.4 0 0 1 0.22 6.84c-0.68 3.73-3 8.89-10.3 12.3a19.7 19.7 0 0 1 -8.41 1.93z"/>
<path d="m167 52.9a16 16 0 0 1 0.05 5.82c-0.65 3.57-2.89 8.52-9.9 11.8a19 19 0 0 1 -8.12 1.87 19.5 19.5 0 0 1 -8.7 -2.12 23.2 23.2 0 0 1 -6.64 -4.9 3.2 3.2 0 1 1 4.78 -4.25c0.18 0.2 4.39 4.84 10.6 4.84a12.6 12.6 0 0 0 5.39 -1.24c3.5-1.64 5.6-3.93 6.25-6.81a9.27 9.27 0 0 0 0.16 -2.93l6.15-2.09m1-1.78l-8 3v-0.06a7.85 7.85 0 0 1 0.06 3.62c-0.55 2.44-2.4 4.42-5.49 5.87a11.2 11.2 0 0 1 -4.81 1.11c-5.57 0-9.5-4.33-9.55-4.39a4.57 4.57 0 1 0 -6.83 6.07 24.7 24.7 0 0 0 7.06 5.21 20.9 20.9 0 0 0 9.31 2.27 20.4 20.4 0 0 0 8.7 -2c7.53-3.53 10-8.91 10.7-12.8a16.8 16.8 0 0 0 -0.44 -7.84z"/>
<path class="cls-3" d="m67.6 89.8s15.9 7.2 37.4-1.9l-10.4-25.7c-1.71-4.14-6.47-7-11.9-7h-0.37c-4 0.1-7.35 2.51-8.09 5.7z"/>
<path class="cls-3" d="m147 92.8s17.4 7.86 41.3-2.05l-11-28c-1.88-4.5-7.09-7.62-13-7.61h-0.41c-4.38 0.11-8 2.73-8.86 6.19z"/>
<path class="cls-5" d="m103 43.7c-4.4-12.2-6.5-18.2-11-20.5a13.4 13.4 0 0 0 -8.36 -1.37c-8.9 1.8-16.4 14.6-12.6 24.9 2.39 6.6 9.55 12.5 14.8 11.4s9-9.93 14.4-9.32c0.63 0.07 2 0.35 2.74-0.41 1-1.1 0-3.6 0-4.7z"/>
<path class="cls-8" d="m96.7 39.3s-3.7 2.67-6.85 0"/>
<path class="cls-8" d="m91.6 54.1a8.93 8.93 0 0 1 -4 -2.63c-0.18-0.19-0.34-0.38-0.49-0.56"/>
<line y1="120" x2="183" x1="204" y2="81.8" class="cls-9"/>
<line y1="81.6" x2="53.9" x1="73.7" y2="119" class="cls-9"/>
<path d="m58.1 76.4a0.07 0.07 0 0 1 0.07 0.07v37.1l-15.3 14a0.07 0.07 0 0 1 -0.07 -0.07v-37.1l15.3-14.5m0-1.37a1.4 1.4 0 0 0 -1 0.4l-15.2 14.7a1.43 1.43 0 0 0 -0.44 1v37a1.43 1.43 0 0 0 1.44 1.44 1.4 1.4 0 0 0 1 -0.4l15.3-14.7a1.43 1.43 0 0 0 0.44 -1v-37a1.43 1.43 0 0 0 -1.5 -1z"/>
<path d="m211 74.8m-1.81 1.74v36.8a1.37 1.37 0 0 0 0.05 0.38l-14.4 13.8a0.47 0.47 0 0 1 -0.33 0.14 0.5 0.5 0 0 1 -0.51 -0.51v-35.7a0.5 0.5 0 0 1 0.15 -0.36l15-14.4m1.15-2.85a0.43 0.43 0 0 0 -0.29 0.12l-17 16.3a1.87 1.87 0 0 0 -0.58 1.35v35.8a1.87 1.87 0 0 0 3 2 1.83 1.83 0 0 0 1.28 -0.53l14.4-13.8a1.17 1.17 0 0 0 0.35 -1.35v-38.9c0.16-0.26 0-0.44-0.22-0.44z"/>
<path class="cls-6" d="m57.7 75.9l0.31-0.31a7.62 7.62 0 0 1 4.5 -2h148c0.42 0 0.59 0.09 0.61 0.13s0 0.38-0.6 0.93l-1.29 1.28z"/>
<path d="m209 74.2l-1 1h-148a6.45 6.45 0 0 1 2.87 -1h146m0.59-1.37h-147a8.3 8.3 0 0 0 -5 2.23l-1.49 1.48h152l1.49-1.48c1.23-1.22 1-2.23-0.5-2.23z"/>
<polygon points="52.5 81.1 54.9 78.7 206 78.7 203 81.1" class="cls-6"/>
<path d="m204 79.4l-1 1h-149l1-1h149m3-1.4h-152l-3.74 3.71h152l4-3.7z"/>
<polygon points="47.1 86.4 49.4 84.1 200 84.1 198 86.4" class="cls-6"/>
<path d="m198 84.8l-1 1h-148l1-1h148m3.33-1.37h-152l-3.74 3.71h153l3.74-3.71z"/>
<path class="cls-6" d="m154 83.4c-10.3 0-16.7-2.33-16.7-4s6.34-4 16.7-4 16.7 2.33 16.7 4-6 4-16 4z"/>
<path d="m154 76.1c10.5 0 15.8 2.41 16 3.3-0.21 0.92-5.45 3.33-16 3.33s-15.8-2.41-16-3.3c0.21-0.92 5.45-3.33 16-3.33m0-1.37c-9.59 0-17.4 2.1-17.4 4.68s7.77 4.68 17.4 4.68 17.4-2.1 17.4-4.68-7.77-4.68-17.4-4.68z"/>
<path class="cls-6" d="m154 80.6c-5.42 0-8.59-0.77-9.37-1.26 0.78-0.49 4-1.26 9.37-1.26s8.59 0.77 9.37 1.26c0 0.5-4 1.2-9 1.2z"/>
<path d="m154 78.8a38 38 0 0 1 7.08 0.57 44.1 44.1 0 0 1 -14.2 0 38 38 0 0 1 7.08 -0.57m0-1.37c-5.62 0-10.2 0.87-10.2 1.94s4.56 1.94 10.2 1.94 10.2-0.87 10.2-1.94-4.56-1.94-10.2-1.94z"/>
<path class="cls-6" d="m96.4 82c-10.4 0-16.7-2.3-16.7-4s6.3-4 16.7-4 16.6 2.4 16.6 4-6 4-16.6 4z"/>
<path d="m96.4 74.7c10.5 0 15.8 2.41 16 3.3-0.21 0.92-5.45 3.33-16 3.33s-15.8-2.41-16-3.3c0.21-0.92 5.45-3.33 16-3.33m0-1.37c-9.6 0-17.4 2.1-17.4 4.7s7.77 4.68 17.4 4.68 17.4-2.1 17.4-4.68-7.77-4.68-17.4-4.68z"/>
<path class="cls-6" d="m96.4 79.3c-5.42 0-8.59-0.77-9.37-1.26 0.78-0.49 4-1.26 9.37-1.26s8.59 0.77 9.37 1.26c-1 0.4-4 1.2-9.6 1.2z"/>
<path d="m96.4 77.4a38 38 0 0 1 7.08 0.57 38 38 0 0 1 -7.08 0.57 38 38 0 0 1 -7.1 -0.5 38 38 0 0 1 7.08 -0.57m0-1.37c-5.62 0-10.2 0.87-10.2 1.94s4.5 2.1 10.2 2.1 10.2-0.87 10.2-1.94-5-2-10.6-2z"/>
<path class="cls-5" d="m146 43.7c4.18-12.1 6.27-18.2 10.8-20.4a13.4 13.4 0 0 1 8.36 -1.37c8.91 1.72 16.3 14.6 12.6 24.8-2.39 6.6-9.55 12.5-14.8 11.4s-9-9.93-14.4-9.32c-0.63 0.07-2 0.35-2.74-0.41-1-1.1 0-3.6 0-4.7z"/>
<path class="cls-8" d="m152 39.3s3.7 2.67 6.85 0"/>
<path class="cls-8" d="m157 54.1a8.93 8.93 0 0 0 4 -2.63c0.18-0.19 0.34-0.38 0.49-0.56"/>
<path d="m193 13.2h5.23 2s1.1 0 1.65 0.11a7.62 7.62 0 0 1 3 0.86 5.91 5.91 0 0 1 1.6 1.38 6.85 6.85 0 0 1 1 2.9 11 11 0 0 1 0.2 1.32 8.88 8.88 0 0 1 0.07 1.14 12.2 12.2 0 0 1 -0.28 2.55 8.42 8.42 0 0 1 -0.75 2.07 5.92 5.92 0 0 1 -1.83 2.09 6.28 6.28 0 0 1 -2.59 1 8.56 8.56 0 0 1 -1.38 0.11h-8.26zm5 3.68v8.39c0.85 0 1.68 0 2.52-0.11a2.43 2.43 0 0 0 2 -1.4 5.74 5.74 0 0 0 0.62 -2.65 6.79 6.79 0 0 0 -0.07 -1 5 5 0 0 0 -0.62 -2 2.09 2.09 0 0 0 -2 -1.2 7.26 7.26 0 0 0 -1.23 -0.18h-2z"/>
<path d="m242 10.5a1 1 0 0 1 0.1 0.36c0 0.26 0.14 0.43 0.27 0.61a7.05 7.05 0 0 0 0.43 0.58c0.16 0.19 0 0.38 0 0.54-0.26 0.81-0.55 1.61-0.82 2.42-0.07 0.2-0.12 0.4-0.2 0.6a2.31 2.31 0 0 0 -0.14 0.78 1.32 1.32 0 0 0 0.07 0.63 0.19 0.19 0 0 1 0 0.18 3.11 3.11 0 0 1 -0.44 0.19s-0.07 0-0.1 0a0.52 0.52 0 0 1 -0.05 -0.77 0.21 0.21 0 0 0 0.09 -0.12v-0.62c0-0.68 0.07-1.36 0.11-2 0-0.35 0.05-0.69 0.07-1a0.91 0.91 0 0 0 -0.07 -0.24l-3.34 4c0.21 0.15 0.13 0.26 0 0.39a5.94 5.94 0 0 0 -0.39 0.46l-0.26-0.07c-0.27 0.33-0.54 0.67-0.82 1s-0.39 0.41-0.58 0.62a0.14 0.14 0 0 0 0 0.13l1.81 3 1.45 2.41 1.61 2.67 0.95 1.59h-5.41a0.29 0.29 0 0 1 -0.29 -0.16l-0.6-1.09-1.5-2.71-0.85-1.57-0.38-0.67-0.84 1-0.4 0.45c-0.3 0.32-0.6 0.64-0.89 1a0.54 0.54 0 0 0 -0.13 0.32v3.49h-5v-15.8h4.92v5.68l0.48-0.54 0.06-0.07a0.32 0.32 0 0 1 0.45 -0.12c0.27 0.12 0.56 0.2 0.85 0.3a0.19 0.19 0 0 0 0.24 0c0.2-0.21 0.43-0.38 0.62-0.6s0.57-0.66 0.85-1l0.2-0.23a1.2 1.2 0 0 0 0.29 -0.64c0-0.09 0.11-0.16 0.08-0.27a0.42 0.42 0 0 1 0 -0.16s0-0.08 0-0.1l0.24-0.21 0.13 0.19 0.49-0.39c0.06 0 0.13-0.07 0.18-0.12s0.18-0.08 0.13-0.21 0.07-0.1 0.11-0.13l2.68-1.89 2.47-1.76s0.06-0.06 0.1-0.06a3.17 3.17 0 0 0 0.85 -0.25zm-1.52 2.34-4.5 2.76 0.28 0.52-0.17 0.09c0.08 0.13 0.05 0.22-0.09 0.25l0.08 0.16h-0.13v0.14h-0.33s0 0.1 0 0.16c-0.06 0.22-0.26 0.4-0.13 0.67s0.14 0.25 0.36 0.12c-0.1-0.16-0.09-0.22 0-0.36l0.57-0.64a0.76 0.76 0 0 1 0.22 -0.19c0.06 0 0.06-0.06 0.08-0.1 0.16-0.22 0.34-0.43 0.53-0.64h0.14v0.2zm2.27-0.53h-0.66c-0.11 0-0.18 0-0.09 0.16s0 0.12 0 0.18 0 0.06 0 0.1c-0.05 0.52-0.1 1-0.15 1.57 0 0.2-0.05 0.39-0.07 0.59s0 0.41 0 0.61zm-0.68-1.09-0.1 1h0.76z"/>
<path d="m217 12.6a9.5 9.5 0 0 1 3.5 0.58 7.06 7.06 0 0 1 2.1 1.21 7.37 7.37 0 0 1 1.76 2.17 7.86 7.86 0 0 1 0.85 2.47c0.06 0.39 0.11 0.78 0.14 1.17a7 7 0 0 1 0 1 10.4 10.4 0 0 1 -0.36 2.33 8.38 8.38 0 0 1 -1.21 2.58 7.26 7.26 0 0 1 -2.3 2.1 7.42 7.42 0 0 1 -2.1 0.82 11.6 11.6 0 0 1 -1.33 0.21 10.9 10.9 0 0 1 -1.4 0.07 8.91 8.91 0 0 1 -4.23 -1 6.79 6.79 0 0 1 -1.89 -1.54 7.62 7.62 0 0 1 -1.06 -1.63 8.86 8.86 0 0 1 -0.75 -2.41 10 10 0 0 1 -0.14 -2.11 8.4 8.4 0 0 1 0.37 -2.26 14.6 14.6 0 0 1 0.61 -1.57 6.79 6.79 0 0 1 1.06 -1.56 7.12 7.12 0 0 1 2.55 -1.84 7.21 7.21 0 0 1 2 -0.58l2-0.2zm3.39 8.2c0-0.2 0-0.4-0.05-0.6a4.49 4.49 0 0 0 -0.34 -1.62 3.05 3.05 0 0 0 -2.31 -1.95 3.32 3.32 0 0 0 -2 0.21 3.44 3.44 0 0 0 -1.9 2.54 7.42 7.42 0 0 0 -0.16 1.87 5.92 5.92 0 0 0 0.37 2.09 3.05 3.05 0 0 0 0.89 1.29 3.34 3.34 0 0 0 2.79 0.63 3 3 0 0 0 2.28 -1.94 6.78 6.78 0 0 0 0 -2.5z"/>
<path class="cls-6" d="m169 40c-0.12-0.17 1.67-4.1 3.29-4.38a1.46 1.46 0 0 1 0.86 0.09c1.18 0.53 1.47 2.73 0.34 4.58-1 1.69-3.24 2.37-3.47 2-2-2-1-1.2-1-2.3z"/>
<path class="cls-10" d="m172 38.1a6.72 6.72 0 0 0 -1.2 1.79"/>
<path class="cls-11" d="m89 18.9c4.47 0.26 9.17 3.68 9.43 6 0.3 2.65-5.76 2-14.8 8.91-5.27 4-5.68 7.07-6.23 11.4-0.86 6.81-0.74 5.12-2.28 8.22-1.32 2.66-3.6 2.92-10.4 1.92-5.61-0.82-11.4 2.76-13.1 2.35-8.9-2.1-8.33-11.3-14.3-13.5s-18.4 2.6-22.9-1.7c-11.8-11.3-16.6-28.6-12-31.9 4.36-3.1 13.1 9.17 26.5 7.57 15.1-1.8 20.6-19.4 28.4-17.4s5.95 16.9 14.6 18.8c5.1 1.2 8-1.2 17.1-0.7z"/>
<path class="cls-6" d="m81.3 42c0.15-0.15-1-4.32-2.52-4.87a1.46 1.46 0 0 0 -0.87 -0.05c-1.25 0.32-1.91 2.45-1.09 4.47 0.74 1.84 2.81 2.87 3.09 2.57 1.7-1.6 0.4-1 1.4-2z"/>
<path class="cls-10" d="m78.4 39.6a6.72 6.72 0 0 1 0.88 2"/>
<text class="cls-12" transform="translate(192 49.2)">KANTINE</text>
<path class="cls-11" d="m170 34c-4.53 1.48-4.91 2.06-5 2.51-0.52 2 2.88 5 6.4 5.94 3 0.79 8.31 0.62 9.82-3a6.09 6.09 0 0 0 -2.06 -7.08c-1-0.7-4 0.1-9 1.7z"/>
<path class="cls-6" d="m166 42c-0.15-0.15 1-4.32 2.52-4.87a1.46 1.46 0 0 1 0.87 -0.05c1.25 0.32 1.91 2.45 1.09 4.47-0.74 1.84-2.81 2.87-3.09 2.57-2-1.6-1-1-2-2z"/>
<path class="cls-10" d="m169 39.6a6.72 6.72 0 0 0 -0.88 2"/>
<path class="cls-13" d="m28.1 40.8c4 0.81 5.55-0.39 10.1-0.4 4.31 0 7.06 1.05 7.18 0.63s-2-1.4-3.86-2c-2.82-0.85-4.39-0.29-9.15 0-5.11 0.28-7.78-0.07-7.84 0.38s2 1 3.6 1.4z"/>
<path class="cls-6" d="m30 35.8c-0.46 0-1.53-0.13-3.24-0.33a66.3 66.3 0 0 1 -7.62 -1.17c-1-0.21-1.78-0.43-2.48-0.63a19.1 19.1 0 0 0 2.74 0.26h1.09a29.7 29.7 0 0 1 9.5 1.8z"/>
<path d="m18.3 34l1.05 0.05h1.09a31.4 31.4 0 0 1 8.78 1.58l-2.5-0.27a66 66 0 0 1 -7.61 -1.17l-0.9-0.1m-4.2-1.1a30.2 30.2 0 0 0 5 1.47 66.4 66.4 0 0 0 7.63 1.17c1.8 0.2 2.9 0.33 3.33 0.33h0.2c0.07-0.33-5.64-2.06-9.78-2.06h-1a19 19 0 0 1 -5.28 -0.88z"/>
<path class="cls-13" d="m65.5 50.4c-3.22-0.21-4.77 0.37-8.23 0.81-4.64 0.58-7.69 0.27-7.76 0.72 0 0.26 1 0.55 1.35 0.66 3.23 0.91 6 0.26 8.83-0.24 5.75-1 8.87-1 8.87-1.37s-2.8-0.5-3.1-0.6z"/>
<path class="cls-6" d="m180 38.6c-2.35 0.29-2.34 1.71-3.84 1.86-1.89 0.18-3.37-1.93-3.33-2a4.89 4.89 0 0 0 2.57 1.13c1.52 0 2.12-1.44 4-1.19-1 0 0 0.2 0 0.2z"/>
<path class="cls-6" d="m68.9 24.9c-3.53-1-3.25-2.35-5.51-2.92a6.76 6.76 0 0 0 -5.4 1.1 9.71 9.71 0 0 1 4.12 -0.38c2.3 0.45 3 2 5.8 2.3 0.5 0 1.9 0.2 1-0.1z"/>
<path class="cls-7" d="m92.7 108l-2 8.57c-0.2 0.84-0.41 1.67-0.66 2.49-0.37 1.24-0.91 3.88 0.76 5.15 2.23 1.7 8.81 6 11.5 5.64s3.63-2.36 2.71-3.45a55.3 55.3 0 0 0 -5.65 -4.44 1 1 0 0 1 -0.38 -1l3-12"/>
<path class="cls-7" d="m79.7 110l-2 8.57c-0.2 0.84-0.41 1.67-0.66 2.49-0.37 1.24-0.91 3.88 0.76 5.15 2.23 1.7 8.81 6 11.5 5.64s3.63-2.36 2.71-3.45a55.3 55.3 0 0 0 -5.6 -5 1 1 0 0 1 -0.38 -1l2.56-10.9"/>
<path class="cls-7" d="m155 108l2 8.57c0.2 0.84 0.41 1.67 0.66 2.49 0.37 1.24 0.91 3.88-0.76 5.15-2.23 1.7-8.81 6-11.5 5.64s-3.63-2.36-2.71-3.45a55.3 55.3 0 0 1 5.65 -4.44 1 1 0 0 0 0.38 -1l-2-12"/>
<path d="m148 110a3.45 3.45 0 0 1 -1.6 -0.26c0.23-0.38 1.56-1.32 4.19-1.94a13.5 13.5 0 0 1 3 -0.39 3.45 3.45 0 0 1 1.6 0.26c-0.22 0.38-1.56 1.32-4.19 1.94a13.5 13.5 0 0 1 -3 0.39z"/>
<path d="m153 108a13.2 13.2 0 0 1 -2.52 0.85 13.4 13.4 0 0 1 -2.63 0.37 13.2 13.2 0 0 1 2.52 -0.85 13.4 13.4 0 0 1 2.63 -0.37m0.23-1.37a14.2 14.2 0 0 0 -3.17 0.41c-2.82 0.66-4.94 1.91-4.73 2.78 0.12 0.51 1 0.78 2.3 0.78a14.2 14.2 0 0 0 3.17 -0.41c2.82-0.66 4.94-1.91 4.73-2.78-0.12-0.51-1-0.78-2.3-0.78z"/>
<path class="cls-7" d="m168 110l2 8.57c0.2 0.84 0.41 1.67 0.66 2.49 0.37 1.24 0.91 3.88-0.76 5.15-2.23 1.7-8.81 6-11.5 5.64s-3.63-2.36-2.71-3.45a55.3 55.3 0 0 1 6 -5 1 1 0 0 0 0.38 -1l-2-11"/>
<path class="cls-6" d="m43.3 91.3c-0.42 0-0.59-0.09-0.61-0.13s0-0.38 0.6-0.93l0.92-0.91h151a7.63 7.63 0 0 1 -4.44 2z"/>
<path d="m193 90a5.6 5.6 0 0 1 -2.17 0.6h-147l0.6-0.6h148m3.94-1.37h-153l-1.12 1.11c-1.23 1.22-1 2.23 0.5 2.23h147a8.3 8.3 0 0 0 5 -2.23l1.12-1.11z"/>
<path class="cls-6" d="m164 93.8a3.91 3.91 0 0 1 -3.79 -3 3.88 3.88 0 0 1 2.95 -4.64c0.1 0 9.73-2.26 10.4-11.6 0.25-3.63-0.65-6.4-2.69-8.21a6 6 0 0 1 -0.89 -1 3.73 3.73 0 0 1 -0.29 -4 3.94 3.94 0 0 1 3.41 -2.18 3.65 3.65 0 0 1 2.16 0.74l0.29 0.23c2.93 2.41 6.31 7 5.76 15a19.4 19.4 0 0 1 -8.69 15.1 23.9 23.9 0 0 1 -7.75 3.53 3.91 3.91 0 0 1 -1 0z"/>
<path d="m174 59.8a3 3 0 0 1 1.76 0.61l0.17 0.13 0.09 0.07c2.81 2.3 6 6.67 5.51 14.4a18.8 18.8 0 0 1 -8.4 14.6 23.2 23.2 0 0 1 -9 3.4 3.19 3.19 0 0 1 -3.82 -2.43 3.2 3.2 0 0 1 2.43 -3.82c0.1 0 10.2-2.41 10.9-12.2 0.27-3.86-0.72-6.81-2.92-8.77a5.36 5.36 0 0 1 -0.78 -0.92 3 3 0 0 1 -0.24 -3.26 3.25 3.25 0 0 1 2.8 -1.81m0-1.37a4.6 4.6 0 0 0 -3.68 7.22 6.73 6.73 0 0 0 1 1.16c1.87 1.67 2.7 4.24 2.46 7.65-0.61 8.8-9.75 10.9-9.84 11a4.57 4.57 0 1 0 2 8.92 24.7 24.7 0 0 0 8 -3.64 20.1 20.1 0 0 0 9 -15.6c0.57-8.3-3-13-6-15.5l-0.1-0.08-0.23-0.17a4.34 4.34 0 0 0 -2.56 -0.87z"/>
<path class="cls-6" d="m85.4 93.5a3.9 3.9 0 0 1 -0.85 -0.09 23.9 23.9 0 0 1 -7.75 -3.53 19.4 19.4 0 0 1 -8.69 -15.1c-0.55-8 2.83-12.6 5.76-15l0.29-0.23a3.65 3.65 0 0 1 2.16 -0.74 3.94 3.94 0 0 1 3.41 2.18 3.73 3.73 0 0 1 -0.29 4 6 6 0 0 1 -0.89 1c-2 1.81-2.94 4.58-2.69 8.21 0.64 9.32 10.3 11.6 10.4 11.6a3.88 3.88 0 0 1 -0.84 7.68z"/>
<path d="m76.3 59.6a3.29 3.29 0 0 1 2.8 1.81 3 3 0 0 1 -0.24 3.26 5.36 5.36 0 0 1 -0.78 0.92c-2.2 2-3.18 4.91-2.92 8.77 0.7 9.7 10.8 12.1 10.9 12.1a3.2 3.2 0 0 1 2.43 3.82 3.19 3.19 0 0 1 -3.82 2.43 23.2 23.2 0 0 1 -7.51 -3.43 18.8 18.8 0 0 1 -8.4 -14.6c-0.53-7.72 2.7-12.1 5.51-14.4l0.09-0.07 0.17-0.13a3 3 0 0 1 1.76 -0.61m0-1.37a4.34 4.34 0 0 0 -2.56 0.87l-0.23 0.17-0.1 0.08c-3.06 2.51-6.58 7.24-6 15.5a20.1 20.1 0 0 0 9 15.6 24.7 24.7 0 0 0 8 3.64 4.57 4.57 0 0 0 2 -8.92c-0.09 0-9.24-2.16-9.84-11-0.24-3.41 0.59-6 2.46-7.65a6.73 6.73 0 0 0 1 -1.16 4.6 4.6 0 0 0 -3.68 -7.22z"/>
</g>
</g>
</svg>
