<?xml version="1.0" encoding="UTF-8" standalone="no"?>
<svg xmlns="http://www.w3.org/2000/svg" viewBox="0 0 297.8 163.58">
<defs>
<style>.cls-1{fill:#88aeea;}.cls-10,.cls-11,.cls-12,.cls-13,.cls-2,.cls-3,.cls-4,.cls-5,.cls-6,.cls-7,.cls-9{stroke:#000;}.cls-11,.cls-13,.cls-2,.cls-4,.cls-5,.cls-6,.cls-7{stroke-linecap:round;}.cls-2,.cls-5,.cls-6,.cls-9{stroke-linejoin:round;}.cls-10,.cls-11,.cls-12,.cls-13,.cls-2,.cls-4,.cls-5,.cls-6,.cls-7,.cls-9{stroke-width:1.37px;}.cls-10,.cls-11,.cls-3,.cls-6,.cls-8,.cls-9{fill:#fff;}.cls-10,.cls-11,.cls-12,.cls-13,.cls-3,.cls-4,.cls-7{stroke-miterlimit:10;}.cls-3{stroke-width:0.23px;}.cls-4,.cls-5{fill:none;}.cls-7{fill:#873309;}.cls-14{font-size:21.7px;fill:#7a92c2;font-family:HereJustNow-Out, Here Just Now;}</style>
</defs>
<title>dok-markt</title>
<g data-name="Layer 2">
<g id="HOME">
<path class="cls-1" d="m13.6 128c28.7-26 87.4-48.7 144-29.3 30.5 10.4 34.6 24.1 58.5 22.8 25.7-1.33 40.3-18.2 60.8-10 8.12 3.23 18.1 10.8 17.8 18.7-0.51 16.1-42.7 26.5-50.3 28.3-47.3 11.6-57.2-4.8-123-0.91-14.6 0.86-39.5 3.15-75.8 2.28-28-0.66-42.3-2.71-44.8-10s7.64-18 12.6-22z"/>
<path class="cls-2" d="m194 110c-2.73-6.27-17.5-40.8-7-48.8 4.18-3.21 13.9-3.33 17.6 1.17 2 2.45 1.77 5.68 1.6 7.6-1.82 20.7-6.24 24.4-5.38 33.5 1.09 11.6 9 12.6 9.4 26.8 0.13 4.28 0.28 9-2.73 13-7.73 10.4-30.4 8.48-33.1 1.56-1.88-4.74 6.68-9 5.55-17.9-0.85-6.68-6.06-7.23-6.25-13.2-0.26-8.18 9.52-10.4 9.58-18 0.06-8.29-11.6-9.88-12.2-19.9-0.48-7 4.73-12.5 5.59-13.4 6.26-6.53 16.4-5.52 26.2-1.74"/>
<path class="cls-3" d="m192 100c-0.65 4-2.33 5.05-4 9.31-1.54 4-1.51 7-2 6.94s-0.62-2.33-0.48-4.3c0.2-2.94 1.28-4.21 3.2-8.57 2.07-4.68 2.69-7.3 3.13-7.19s1 2.6 0 3.8z"/>
<path class="cls-4" d="m134 121v-88.3a2.75 2.75 0 0 1 2.74 -2.74h30a2.75 2.75 0 0 1 2.74 2.74v88.4"/>
<polygon points="157 35.4 144 42.7 171 42.7" class="cls-5"/>
<path class="cls-5" d="m157 35v-2.3s-1.83-1.37-1.14-3a2.1 2.1 0 0 1 3.66 -0.46 2 2 0 0 1 0 2.06"/>
<polygon points="145 35.4 132 42.7 159 42.7" class="cls-5"/>
<path class="cls-5" d="m145 35v-2.3s-1.83-1.37-1.14-3a2.1 2.1 0 0 1 3.66 -0.46 2 2 0 0 1 0 2.06"/>
<path class="cls-5" d="m126 129v-5.37a2.58 2.58 0 0 1 2.36 -2.74h9.23a2.58 2.58 0 0 1 2.36 2.74v5.37"/>
<path class="cls-5" d="m162 129v-5.37a2.58 2.58 0 0 1 2.36 -2.74h9.23a2.58 2.58 0 0 1 2.36 2.74v5.37"/>
<polygon points="128 80.6 115 80.6 115 62.8 128 58.3" class="cls-6"/>
<rect y="63.1" x="115" height="22.4" class="cls-7" width="15.3"/>
<path class="cls-8" d="m107 87.5a19.7 19.7 0 0 1 -8.41 -1.93c-7.27-3.41-9.6-8.57-10.3-12.3a16.4 16.4 0 0 1 0.22 -6.84l7.4 2.52a8.68 8.68 0 0 0 0.08 3.25c0.6 2.66 2.57 4.79 5.87 6.34a12 12 0 0 0 5.1 1.17c5.89 0 10-4.57 10.1-4.62a3.88 3.88 0 1 1 5.81 5.16 24.1 24.1 0 0 1 -6.85 5.05 20.2 20.2 0 0 1 -9 2.2z"/>
<path d="m88.6 67.3l6.15 2.09a9.27 9.27 0 0 0 0.16 2.93c0.65 2.88 2.75 5.17 6.25 6.81a12.6 12.6 0 0 0 5.39 1.24c6.19 0 10.4-4.65 10.6-4.85a3.2 3.2 0 0 1 4.78 4.25 23.2 23.2 0 0 1 -6.64 4.9 19.5 19.5 0 0 1 -8.7 2.12 19 19 0 0 1 -8.12 -1.87c-7-3.29-9.25-8.23-9.9-11.8a15.8 15.8 0 0 1 0 -5.82m-1-1.77a16.8 16.8 0 0 0 -0.44 7.84c0.71 3.89 3.13 9.27 10.7 12.8a20.4 20.4 0 0 0 8.7 2 20.9 20.9 0 0 0 9.31 -2.27 24.7 24.7 0 0 0 7.06 -5.21 4.57 4.57 0 0 0 -6.83 -6.07c0 0.06-4 4.39-9.55 4.39a11.2 11.2 0 0 1 -4.81 -1.11c-3.1-1.45-4.95-3.43-5.49-5.87a7.85 7.85 0 0 1 0.06 -3.62v0.06l-8.65-2.94z"/>
<path class="cls-9" d="m77.2 132v8.43c0 0.82 0 1.64-0.07 2.46-0.08 1.24 0 3.82 1.84 4.63 1.6 0.71 10.4 3.35 12 2.72 2.45-1 2.86-3 1.77-3.81a53 53 0 0 0 -6.24 -2.9 0.93 0.93 0 0 1 -0.57 -0.86v-10"/>
<path class="cls-9" d="m77.2 132v8.43c0 0.82 0 1.64-0.07 2.46-0.08 1.24 0 3.82 1.84 4.63 2.45 1.09 9.53 3.68 12 2.72s2.86-3 1.77-3.81a53 53 0 0 0 -6.24 -2.9 0.93 0.93 0 0 1 -0.57 -0.86v-10"/>
<path class="cls-8" d="m81.5 133c-2.57 0-4.07-0.56-4.42-0.86 0.36-0.31 1.85-0.86 4.42-0.86s4.07 0.56 4.42 0.86c-0.3 0-1.8 1-4.4 1z"/>
<path d="m81.5 132a14 14 0 0 1 2.28 0.18 14.8 14.8 0 0 1 -4.56 0 14 14 0 0 1 2.28 -0.18m0-1.37c-2.85 0-5.16 0.69-5.16 1.55s2.31 1.55 5.16 1.55 5.16-0.69 5.16-1.55-2.31-1.55-5.16-1.55z"/>
<path class="cls-9" d="m68.3 133v8.43c0 0.82 0 1.64-0.07 2.46-0.08 1.24 0 3.82 1.84 4.63 1.6 0.71 10.4 3.35 12 2.72 2.45-1 2.86-3 1.77-3.81a53 53 0 0 0 -6.24 -2.9 0.93 0.93 0 0 1 -0.7 0v-11"/>
<path class="cls-9" d="m68.3 133v8.43c0 0.82 0 1.64-0.07 2.46-0.08 1.24 0 3.82 1.84 4.63 2.45 1.09 9.53 3.68 12 2.72s2.86-3 1.77-3.81a53 53 0 0 0 -6.24 -2.9 0.93 0.93 0 0 1 -0.57 -0.86v-10"/>
<path class="cls-8" d="m72.6 134c-2.57 0-4.07-0.56-4.42-0.86 0.36-0.31 1.85-0.86 4.42-0.86s4.07 0.56 4.42 0.86c-0.4 0-1.8 1-4.4 1z"/>
<path d="m72.6 133a14 14 0 0 1 2.28 0.18 14.8 14.8 0 0 1 -4.56 0 14 14 0 0 1 2.28 -0.18m0-1.37c-2.85 0-5.16 0.69-5.16 1.55s2.31 1.55 5.16 1.55 5.16-0.69 5.16-1.55-2.31-1.55-5.16-1.55z"/>
<rect y="108" x="69.6" height="24.7" width="5.48"/>
<path d="m74.4 109v23.3h-4.1v-23h4.1m1.37-1.37h-6.9v26h6.85v-26z"/>
<rect y="108" x="78.7" height="23.8" width="5.48"/>
<path d="m83.5 109v22.4h-4.1v-22h4.11m1.37-1.37h-6.8v25.1h6.85v-25z"/>
<path class="cls-6" d="m63.5 113s19.6 11 46.3-2.86l-13-39a15.5 15.5 0 0 0 -14.8 -10.3h-0.46a10.6 10.6 0 0 0 -9.94 8.65z"/>
<path class="cls-10" d="m97.1 57.6c3.55-2.93 6.59-7.73 10.6-7.28 0.63 0.07 2 0.35 2.74-0.41 1.07-1.07 0.27-3.49-0.14-4.66-4.18-12.1-6.27-18.2-10.8-20.4a13.4 13.4 0 0 0 -8.36 -1.37c-8.9 1.8-16.3 14.6-12.6 24.9 2.39 6.6 9.55 12.5 14.8 11.4a9.18 9.18 0 0 0 3.78 -2"/>
<path class="cls-4" d="m103 42s-3.7 2.67-6.85 0"/>
<path class="cls-4" d="m96.7 57a2.86 2.86 0 1 1 4 -4"/>
<rect transform="translate(169 173) rotate(178)" rx="4.57" ry="4.57" height="42.6" width="9.14" y="66.3" x="78.5" class="cls-11"/>
<path class="cls-2" d="m96.6 20.8c3.85 0.32 10.5 5.48 10.9 7.14 0.75 3.17-17.6 4.94-21.6 15.1-2.9 7.4 5.8 14 0.7 17.3s-13.2 1.88-22.3-2c-11.4-4.9-11.2-9.2-23.2-18.3-13.1-9.9-23.9-4.5-31.9-14.1-6.93-8.4-6.48-21.9-1.1-24.7 4.43-2.35 8.79 4.33 24.3 9.28 18.7 6 24.1 0 36.4 7.22 6.42 3.76 13.6 2.62 20.5 2.94 3.8 0.2 0.8-0.3 7.3 0.2z"/>
<path class="cls-8" d="m88.6 44.7c0-0.2-3.3-3-4.88-2.5a1.46 1.46 0 0 0 -0.74 0.46c-0.83 1-0.13 3.1 1.7 4.27 1.67 1.06 4 0.71 4 0.3 0.3-2.5-0.3-1.3-0.1-2.6z"/>
<path class="cls-11" d="m84.9 44.4a6.72 6.72 0 0 1 1.86 1.09"/>
<path class="cls-11" d="m76.2 25.3c-0.32-0.89 8.88-4.81 17.3-3.3 1.84 0.33 5.55 1.25 5.51 2.3 0 0.6-1.25 1.16-2.36 1.29-2 0.25-2.75-1.08-5.12-1.58-3-0.63-4.17 1-9.84 1.44-0.8 0.1-5.3 0.4-5.5-0.1z"/>
<path class="cls-11" d="m15.7 27.9c-0.58 0.69-5.71-1.93-8.1-6.74-2.08-4.2-1.36-8.5-1.12-8.5s-0.33 3.24 1.59 6.23c2 3.18 5.13 3.41 7.17 7.45 0.4 0.6 0.7 1.2 0.5 1.5z"/>
<path class="cls-11" d="m200 135c-1.31-4.23-0.2-5.59-1.22-9.19-0.81-2.85-2.17-4.34-1.63-5 0.39-0.46 1.53-0.19 2.33 0.39 2.22 1.58 2.24 5.72 2.27 11.1 0 1.71 0 5.11-0.55 5.13-2 0-1-2-1-2z"/>
<path class="cls-9" d="m211 133v7.91c0 0.77 0 1.54 0.06 2.31 0.07 1.16 0 3.58-1.73 4.35-1.51 0.67-9.75 3.14-11.2 2.56-2.3-0.9-2.69-2.81-1.66-3.58a49.7 49.7 0 0 1 5.86 -2.72 0.87 0.87 0 0 0 0.54 -0.81v-10"/>
<path class="cls-9" d="m211 133v8c0 0.77 0 1.54 0.06 2.31 0.07 1.16 0 3.58-1.73 4.35-2.3 1-9 3.45-11.2 2.56s-2.69-2.81-1.66-3.58a49.7 49.7 0 0 1 5.86 -2.72 0.87 0.87 0 0 0 0.54 -0.81v-10"/>
<path class="cls-8" d="m207 134a8.25 8.25 0 0 1 -4.08 -0.77 11.2 11.2 0 0 1 8.17 0 8.26 8.26 0 0 1 -4 1z"/>
<path d="m207 133a13.8 13.8 0 0 1 1.53 0.08 14.3 14.3 0 0 1 -3.06 0 13.8 13.8 0 0 1 1.53 -0.08m0-1.37c-2.68 0-4.85 0.65-4.85 1.45s2.17 1.45 4.85 1.45 4.85-0.65 4.85-1.45-2.17-1.45-4.85-1.45z"/>
<path class="cls-9" d="m222 134v7.91c0 0.77 0 1.54 0.06 2.31 0.07 1.16 0 3.58-1.73 4.35-1.51 0.67-9.75 3.14-11.2 2.56-2.3-0.9-2.69-2.81-1.66-3.58a49.7 49.7 0 0 1 5.86 -2.72 0.87 0.87 0 0 0 0.54 -0.81v-10"/>
<path class="cls-9" d="m222 134v7.91c0 0.77 0 1.54 0.06 2.31 0.07 1.16 0 3.58-1.73 4.35-2.3 1-9 3.45-11.2 2.56s-2.69-2.81-1.66-3.58a49.7 49.7 0 0 1 5.86 -2.72 0.87 0.87 0 0 0 0.54 -0.81v-10"/>
<path class="cls-8" d="m218 135a8.25 8.25 0 0 1 -4.09 -0.77 11.3 11.3 0 0 1 8.17 0 8.24 8.24 0 0 1 -4 1z"/>
<path d="m218 134a13.8 13.8 0 0 1 1.53 0.08 14.3 14.3 0 0 1 -3.06 0 13.8 13.8 0 0 1 1.53 -0.08m0-1.37c-2.68 0-4.85 0.65-4.85 1.45s2.17 1.45 4.85 1.45 4.85-0.65 4.85-1.45-2.17-1.45-4.85-1.45z"/>
<rect y="111" x="215" height="23.1" class="cls-8" width="5.07"/>
<path d="m220 112v21.7h-3.7v-22h3.7m1.37-1.37h-6.44v24.5h6v-26z"/>
<rect y="111" x="205" height="22.2" class="cls-8" width="5.07"/>
<path d="m209 112v20.9h-3.69v-21h3.69m1.37-1.37h-6.44v23.6h6.44v-23.6z"/>
<path class="cls-10" d="m200 86.8s17.5-4.72 20.9 5.58 2.17 32.8 2.17 32.8-12.8 6.65-26.9 0-0.62-24.2 0-29.4"/>
<path class="cls-12" d="m199 41.8c-8.83-9.13-28-8.74-32.4-1.5-3.52 5.83-2.66 13 4.72 28.3 1.24 2.57 4.78 6.8 9.78 10.7a15.9 15.9 0 0 0 23.5 -4.44q0.32-0.55 0.58-1.1c4.22-9 0.06-19.7-1.29-23.2s-3-6.1-5-8.8z"/>
<path class="cls-3" d="m179 73.7c-0.56 1 4.24 5.7 10.4 6.61 1.42 0.21 5.21 0.77 8.26-1.38 2.65-1.87 3.66-5 3.3-5.23-0.19-0.12-0.79 0.63-2.4 1.93a17.5 17.5 0 0 1 -4.5 3c-3.35 1.23-8.93 0-11.1-2.89-0.58-0.76-1.38-2.23-2.78-2.35 1 0 0 0-1 0.3z"/>
<path class="cls-6" d="m192 106s15-5 24-24l-23-11.4c-3.7-1.84-8.65-1-12.2 2.23l-0.24 0.23c-2.59 2.46-3.32 6.11-1.84 8.75z"/>
<path class="cls-10" d="m176 74.3c-3.33-2.75-6.19-7.26-10-6.84-0.59 0.07-1.86 0.33-2.57-0.39-1-1-0.25-3.28 0.13-4.38 3.93-11.4 5.89-17.1 10.2-19.2a12.6 12.6 0 0 1 7.85 -1.29c8.37 1.62 15.3 13.7 11.8 23.3-2.25 6.2-9 11.8-13.9 10.7a8.62 8.62 0 0 1 -3.55 -1.92"/>
<path class="cls-4" d="m171 57.5s3.48 2.51 6.44 0"/>
<path class="cls-13" d="m195 60.4s-17.8-4-26.4-15c-1.93-3.19 13.8-5.22 13.8-5.22l13.3 10z"/>
<path class="cls-8" d="m192 60c0-0.19 3.1-2.77 4.58-2.35a1.37 1.37 0 0 1 0.69 0.43c0.78 0.93 0.12 2.91-1.6 4-1.57 1-3.71 0.67-3.76 0.28-2-2.2-1-1-1-2.3z"/>
<path class="cls-11" d="m195 59.7a6.31 6.31 0 0 0 -1.75 1"/>
<path class="cls-4" d="m175 73.3a8.39 8.39 0 0 0 3.74 -2.47c0.17-0.18 0.32-0.35 0.46-0.53"/>
<path class="cls-8" d="m176 93.9a18.9 18.9 0 0 1 -8.44 -2.06 22.4 22.4 0 0 1 -6.42 -4.74 3.61 3.61 0 0 1 5.39 -4.79s3.9 4.35 9.48 4.35a11.3 11.3 0 0 0 4.81 -1.11c3.11-1.46 5-3.47 5.54-6a5.67 5.67 0 0 1 0.44 -1.2 3.45 3.45 0 0 1 3.19 -2 3.78 3.78 0 0 1 3 1.3 3.29 3.29 0 0 1 0.78 2.65c0 0.08-0.05 0.34-0.05 0.34-0.63 3.49-2.82 8.33-9.63 11.5a18.5 18.5 0 0 1 -7.88 1.81z"/>
<path d="m190 75.7v1.37a3.09 3.09 0 0 1 2.29 1 2.59 2.59 0 0 1 0.61 2.12v0.19 0.11c-0.61 3.34-2.7 8-9.25 11a17.8 17.8 0 0 1 -7.59 1.75 18.2 18.2 0 0 1 -8.14 -2 21.7 21.7 0 0 1 -6.21 -4.58 2.92 2.92 0 1 1 4.37 -3.88c0.17 0.19 4.15 4.58 10 4.58a12 12 0 0 0 5.1 -1.17c3.31-1.55 5.3-3.72 5.91-6.45a5 5 0 0 1 0.39 -1 2.75 2.75 0 0 1 2.57 -1.64v-1.5a4.14 4.14 0 0 0 -3.81 2.41 6.32 6.32 0 0 0 -0.5 1.34c-0.51 2.29-2.25 4.15-5.16 5.51a10.5 10.5 0 0 1 -4.52 1c-5.23 0-8.92-4.07-9-4.12a4.29 4.29 0 1 0 -6.41 5.7 23.2 23.2 0 0 0 6.63 4.9 19.6 19.6 0 0 0 8.74 2.13 19.1 19.1 0 0 0 8.17 -1.88c7.08-3.32 9.35-8.37 10-12v-0.12q0-0.13 0-0.26a4.12 4.12 0 0 0 -4.26 -4.63z"/>
<path class="cls-3" d="m178 51.2c2.05 1.59 3 1.24 5.36 2.46s4 2.5 4 2.3-1-1.43-1.93-2.31c-1.44-1.31-2.31-1.37-4.83-2.48-2.72-1.2-4.1-2.14-4.16-1.86s1 1.1 2 1.8z"/>
<path d="m219 12.7h5.23 2s1.1 0 1.65 0.11a7.62 7.62 0 0 1 3 0.86 5.91 5.91 0 0 1 1.6 1.38 6.85 6.85 0 0 1 1 3 11 11 0 0 1 0.2 1.32 8.88 8.88 0 0 1 0.07 1.14 12.2 12.2 0 0 1 -0.28 2.55 8.42 8.42 0 0 1 -0.75 2.07 5.92 5.92 0 0 1 -1.83 2.09 6.28 6.28 0 0 1 -2.59 1 8.56 8.56 0 0 1 -1.38 0.11h-8.26zm5 3.68v8.39c0.85 0 1.68 0 2.52-0.11a2.43 2.43 0 0 0 2 -1.4 5.74 5.74 0 0 0 0.62 -2.65 6.79 6.79 0 0 0 -0.07 -1 5 5 0 0 0 -0.62 -2 2.09 2.09 0 0 0 -1.37 -1.09 7.26 7.26 0 0 0 -1.23 -0.18c-1-0.1-2 0-2 0z"/>
<path d="m268 10.1a1 1 0 0 1 0.1 0.36c0 0.26 0.14 0.43 0.27 0.61a7.05 7.05 0 0 0 0.43 0.58c0.16 0.19 0 0.38 0 0.54-0.26 0.81-0.55 1.61-0.82 2.42-0.07 0.2-0.12 0.4-0.2 0.6a2.31 2.31 0 0 0 -0.14 0.78 1.32 1.32 0 0 0 0.07 0.63 0.19 0.19 0 0 1 0 0.18 3.11 3.11 0 0 1 -0.44 0.19s-0.07 0-0.1 0a0.52 0.52 0 0 1 -0.05 -0.77 0.21 0.21 0 0 0 0.09 -0.12v-0.62c0-0.68 0.07-1.36 0.11-2 0-0.35 0.05-0.69 0.07-1a0.91 0.91 0 0 0 -0.07 -0.24l-3.34 4c0.21 0.15 0.13 0.26 0 0.39a5.94 5.94 0 0 0 -0.39 0.46l-0.26-0.07c-0.27 0.33-0.54 0.67-0.82 1s-0.39 0.41-0.58 0.62a0.14 0.14 0 0 0 0 0.13l1.81 3 2 2.1 1.61 2.67 0.95 1.59h-5.41a0.29 0.29 0 0 1 -0.29 -0.16l-0.6-1.09-1.5-2.71-2-1.5-0.38-0.67-0.84 1-0.4 0.45c-0.3 0.32-0.6 0.64-0.89 1a0.54 0.54 0 0 0 -0.13 0.32v3.49h-5v-15.7h4.92v5.68l0.48-0.54 0.06-0.07a0.32 0.32 0 0 1 0.45 -0.12c0.27 0.12 0.56 0.2 0.85 0.3a0.19 0.19 0 0 0 0.24 0c0.2-0.21 0.43-0.38 0.62-0.6s0.57-0.66 0.85-1l0.2-0.23a1.2 1.2 0 0 0 0.29 -0.64c0-0.09 0.11-0.16 0.08-0.27a0.42 0.42 0 0 1 0 -0.16s0-0.08 0-0.1l0.24-0.21 0.13 0.19 0.49-0.39c0.06 0 0.13-0.07 0.18-0.12s0.18-0.08 0.13-0.21 0.07-0.1 0.11-0.13l2.68-1.89 2.47-1.76s0.06-0.06 0.1-0.06a3.17 3.17 0 0 0 0.85 -0.25zm-1.52 2.34-4.5 2.76 0.28 0.52-0.17 0.09c0.08 0.13 0.05 0.22-0.09 0.25l0.08 0.16h-0.13v0.14h-0.33s0 0.1 0 0.16c-0.06 0.22-0.26 0.4-0.13 0.67s0.14 0.25 0.36 0.12c-0.1-0.16-0.09-0.22 0-0.36l0.57-0.64a0.76 0.76 0 0 1 0.22 -0.19c0.06 0 0.06-0.06 0.08-0.1 0.16-0.22 0.34-0.43 0.53-0.64h0.14l0.28 0.13zm2.27-0.53c-0.11 0-0.18 0-0.09 0.16s0 0.12 0 0.18 0 0.06 0 0.1c-0.05 0.52-0.1 1-0.15 1.57 0 0.2-0.05 0.39-0.07 0.59s0 0.41 0 0.61zm0-1.1l-0.1 1h0.76z"/>
<path d="m243 12.1a9.5 9.5 0 0 1 3.5 0.58 7.06 7.06 0 0 1 2.1 1.21 7.37 7.37 0 0 1 1.76 2.17 7.86 7.86 0 0 1 0.85 2.47c0.06 0.39 0.11 0.78 0.14 1.17a7 7 0 0 1 0 1 10.4 10.4 0 0 1 -0.36 2.33 8.38 8.38 0 0 1 -1.21 2.58 7.26 7.26 0 0 1 -2.3 2.1 7.42 7.42 0 0 1 -2.1 0.82 11.6 11.6 0 0 1 -1.33 0.21 10.9 10.9 0 0 1 -1.4 0.07 8.91 8.91 0 0 1 -4.23 -1 6.79 6.79 0 0 1 -1.89 -1.54 7.62 7.62 0 0 1 -1 -1.7 8.86 8.86 0 0 1 -0.75 -2.41 10 10 0 0 1 -0.14 -2.11 8.4 8.4 0 0 1 0.37 -2.26 14.6 14.6 0 0 1 0.61 -1.57 6.79 6.79 0 0 1 1.06 -1.56 7.12 7.12 0 0 1 2.55 -1.84 7.21 7.21 0 0 1 2 -0.58l2-0.1zm3.39 8.2c0-0.2 0-0.4-0.05-0.6a4.49 4.49 0 0 0 -0.34 -1.62 3.05 3.05 0 0 0 -2.31 -1.95 3.32 3.32 0 0 0 -2 0.21 3.44 3.44 0 0 0 -1.9 2.54 7.42 7.42 0 0 0 -0.16 1.87 5.92 5.92 0 0 0 0.37 2.09 3.05 3.05 0 0 0 0.89 1.29 3.34 3.34 0 0 0 2.79 0.63 3 3 0 0 0 2.28 -1.94 6.78 6.78 0 0 0 0 -2.5z"/>
<text class="cls-14" transform="translate(217 48.7)">MARKT</text>
<path class="cls-4" d="m272 160v-45a2.75 2.75 0 0 0 -2.74 -2.74h-32.9a2.75 2.75 0 0 0 -2.74 2.74v44.6"/>
<path class="cls-4" d="m257 152l-0.46-37.9a1.87 1.87 0 0 0 -1.86 -1.86h-2a1.87 1.87 0 0 0 -1.86 1.86v49"/>
<ellipse cy="112" cx="253" rx="18" class="cls-11" ry="4.34"/>
<polygon points="169 117 122 117 117 111 164 111" class="cls-8"/>
<line y1="143" x2="116" x1="121" y2="138" class="cls-4"/>
<line y1="117" x2="116" x1="122" y2="111" class="cls-4"/>
<polygon points="169 117 169 143 122 143 122 138 122 117 164 117" class="cls-4"/>
<polyline points="164 118 164 138 122 138 116 138 116 111 164 111" class="cls-4"/>
<line y1="111" x2="169" x1="164" y2="117" class="cls-4"/>
<line y1="143" x2="164" x1="169" y2="138" class="cls-4"/>
<rect transform="translate(22.2 245) rotate(-90)" rx="2.89" ry="2.89" height="21.4" width="5.78" y="101" x="131" class="cls-10"/>
<line y1="109" x2="145" x1="139" y2="109" class="cls-4"/>
<line y1="114" x2="145" x1="139" y2="114" class="cls-4"/>
<rect transform="translate(27.8 237) rotate(-90)" rx="2.54" ry="2.54" height="21.4" width="5.09" y="94" x="130" class="cls-10"/>
<line y1="102" x2="121" x1="127" y2="102" class="cls-10"/>
<line y1="107" x2="121" x1="127" y2="107" class="cls-10"/>
<rect transform="translate(30.8 227) rotate(-90)" rx="2.54" ry="2.54" height="21.4" width="5.09" y="87.6" x="127" class="cls-10"/>
<line y1="95.7" x2="141" x1="135" y2="95.7" class="cls-4"/>
<line y1="101" x2="141" x1="135" y2="101" class="cls-4"/>
<rect transform="translate(39.2 223) rotate(-90)" rx="2.54" ry="2.54" height="21.4" width="5.09" y="81.2" x="129" class="cls-10"/>
<line y1="89.3" x2="119" x1="125" y2="89.3" class="cls-4"/>
<line y1="94.4" x2="119" x1="125" y2="94.4" class="cls-4"/>
<rect transform="translate(50.2 274) rotate(-90)" rx="2.54" ry="2.54" height="21.4" width="5.09" y="101" x="159" class="cls-10"/>
<line y1="109" x2="150" x1="156" y2="109" class="cls-10"/>
<line y1="114" x2="150" x1="156" y2="114" class="cls-10"/>
<rect transform="translate(-46.2 68.6) rotate(-24.3)" rx="2.54" ry="2.54" height="21.4" width="5.09" y="131" x="134" class="cls-10"/>
<line y1="135" x2="134" x1="136" y2="130" class="cls-10"/>
<line y1="137" x2="129" x1="132" y2="132" class="cls-10"/>
<rect transform="translate(-51.1 89.6) rotate(-29.5)" rx="2.54" ry="2.54" height="21.4" width="5.09" y="131" x="142" class="cls-10"/>
<line y1="135" x2="141" x1="144" y2="130" class="cls-4"/>
<line y1="138" x2="136" x1="139" y2="132" class="cls-4"/>
<rect transform="translate(-46.3 205) rotate(-58.7)" rx="2.54" ry="2.54" height="21.4" width="5.09" y="133" x="157" class="cls-10"/>
<line y1="139" x2="151" x1="156" y2="135" class="cls-4"/>
<line y1="143" x2="148" x1="153" y2="140" class="cls-4"/>
<rect transform="translate(-27.9 266) rotate(-90)" rx="2.54" ry="2.54" height="21.4" width="5.09" y="136" x="116" class="cls-10"/>
<line y1="144" x2="107" x1="113" y2="144" class="cls-4"/>
<line y1="149" x2="107" x1="113" y2="149" class="cls-4"/>
<rect transform="translate(-21.3 260) rotate(-90)" rx="2.54" ry="2.54" height="21.4" width="5.09" y="130" x="117" class="cls-10"/>
<line y1="138" x2="131" x1="125" y2="138" class="cls-4"/>
<line y1="143" x2="131" x1="125" y2="143" class="cls-4"/>
<path class="cls-6" d="m125 59.3s3.5 0.33 2.36 3.75"/>
</g>
</g>
</svg>
