<?xml version="1.0" encoding="UTF-8" standalone="no"?>
<svg xmlns="http://www.w3.org/2000/svg" viewBox="0 0 293.81 169.43">
<defs>
<style>.cls-1{fill:#efe8aa;}.cls-12,.cls-13,.cls-14,.cls-2,.cls-8,.cls-9{fill:#fff;}.cls-10,.cls-11,.cls-13,.cls-15,.cls-16,.cls-17,.cls-2,.cls-3,.cls-5,.cls-6,.cls-7,.cls-8{stroke:#000;}.cls-10,.cls-11,.cls-12,.cls-13,.cls-14,.cls-17,.cls-2,.cls-3,.cls-4,.cls-5,.cls-6,.cls-7,.cls-8{stroke-miterlimit:10;}.cls-13,.cls-14,.cls-15,.cls-16,.cls-2,.cls-3,.cls-4,.cls-5,.cls-6,.cls-7{stroke-width:1.37px;}.cls-3{fill:#e3f2f0;}.cls-11,.cls-15,.cls-16,.cls-17,.cls-4,.cls-5,.cls-7{fill:none;}.cls-4{stroke:#aededa;}.cls-13,.cls-15,.cls-16,.cls-17,.cls-7{stroke-linecap:round;}.cls-12,.cls-8{stroke-width:0.23px;}.cls-10,.cls-18{fill:#dbcb85;}.cls-10,.cls-11{stroke-width:1.37px;}.cls-12,.cls-14{stroke:#fff;}.cls-15{stroke-linejoin:round;}.cls-16{stroke-linejoin:bevel;}.cls-17{stroke-width:2.72px;}.cls-18{font-size:21.7px;font-family:HereJustNow-Out, Here Just Now;}</style>
</defs>
<title>dok-strand</title>
<g data-name="Layer 2">
<g id="HOME">
<path class="cls-1" d="m268 119c-46.5-12.6-86.5-9.16-86.8-9.14-91.2 8-138-51.1-167-25.5-19.3 17-18.6 60.7 0.46 78.1 23.1 21 53.5-14 134-9 34.7 1.93 56.7 9.74 96 0.91 17.9-4 47.1-13.3 46.6-22.4 1-4-6-8-23-13z"/>
<ellipse cy="134" cx="199" rx="51.4" class="cls-2" ry="13.6"/>
<ellipse cy="128" cx="199" rx="51.4" class="cls-2" ry="13.6"/>
<ellipse cy="121" cx="199" rx="51.4" class="cls-2" ry="13.6"/>
<path class="cls-2" d="m249 118a5 5 0 0 0 1.77 -3.54c0-7.5-23-13.6-51.4-13.6s-51.4 6.08-51.4 13.6a5 5 0 0 0 1.77 3.54c5.89-5.78 25.9-10 49.6-10s42 4 48 10z"/>
<path class="cls-2" d="m248 118c-5.89 5.78-25.9 10-49.6 10s-43.7-4.25-49.6-10a5 5 0 0 0 -1.77 3.54c0 7.5 23 13.6 51.4 13.6s51.4-6.08 51.4-13.6a5 5 0 0 0 0 -4z"/>
<path class="cls-3" d="m248 118c-5.89-5.78-25.9-10-49.6-10s-43.7 4.25-49.6 10c5.89 5.78 25.9 10 49.6 10s45-5 50-10z"/>
<path class="cls-4" d="m228 119"/>
<path class="cls-4" d="m201 115"/>
<path class="cls-4" d="m174 117"/>
<path class="cls-5" d="m161 118c0-2 6.67-3.6 14.9-3.6s14.9 1.61 14.9 3.6"/>
<path class="cls-6" d="m219 103c-2.07 1.8-1.42 3.6-3.29 6.85-1.78 3.09-3.35 3.18-3.29 4.66 0.1 2.68 5.37 6 8.5 4.66 5.07-2.1 4.76-16.3 1.51-17.6-1-1-3 0-3 1z"/>
<path class="cls-2" d="m199 88.4c4.18-12.1 6.27-18.2 10.8-20.4a13.4 13.4 0 0 1 8.36 -1.37c8.91 1.72 16.3 14.6 12.6 24.8-2.39 6.6-9.55 12.5-14.8 11.4s-9-9.93-14.4-9.32c-0.63 0.07-2 0.35-2.74-0.41-1-1.3 0-3.7 0-4.9z"/>
<path class="cls-5" d="m203 117c0-2.38 8-4.3 17.8-4.3s17.8 1.93 17.8 4.3"/>
<path d="m289 87.9c4.58 4.17 6 13.2 1.92 19.1-4 5.72-11.9 6.58-17 5.76-12-1.92-13.9-14-23.2-14-8.88 0-11.7 11-18.2 9.73-6.76-1.33-5.06-13.2-16.3-25.8-7-8.6-13-8.9-13-13.2 0.2-7.18 17.4-12.9 30.3-13.7 6.45-0.42 18.1-1.18 22.8 5.48 4.42 6.35-1.77 13.4 2.88 18.4 2.62 2.82 5.46 1.51 21.8 5.07 6 1.2 7 1.8 8 3.1z"/>
<path class="cls-7" d="m205 84s3.7 2.67 6.85 0"/>
<path class="cls-8" d="m210 71.6c2 2.42 3.57 2.46 6.34 4.66s3.78 4.06 4.06 3.87-0.51-1.81-1.39-3.07c-1.3-1.89-2.53-2.31-5.55-4.46-3.25-2.31-4.7-3.81-5-3.57s1 1.5 2 2.5z"/>
<path class="cls-9" d="m220 88.6c-0.15-0.15 1-4.32 2.52-4.87a1.46 1.46 0 0 1 0.87 -0.05c1.25 0.32 1.91 2.45 1.09 4.47-0.74 1.84-2.81 2.87-3.09 2.57-2-1.7-1-1.1-2-2z"/>
<path class="cls-8" d="m228 60.2s12.8-4 20.7 0c5.6 2.84 4.83 5.55 5.45 8.64s-1.57 0.29-2.47-2.71c-0.73-2.43-4.32-4.85-8.43-5.31s-13 0.46-13.2 0.46-5 1.2-3-1.1z"/>
<path class="cls-8" d="m261 96.4c-0.71 1.29 5.42 7.29 13.2 8.45 1.82 0.27 6.66 1 10.6-1.76 3.38-2.38 4.68-6.41 4.22-6.69-0.25-0.15-1 0.8-3.07 2.46-2.4 1.94-4 3.23-5.76 3.87-4.29 1.57-11.4 0-14.2-3.7-0.74-1-1.76-2.86-3.55-3 0 0.1-1 0-1 0.4z"/>
<path class="cls-7" d="m210 98.8a8.93 8.93 0 0 0 4 -2.63c0.18-0.19 0.34-0.38 0.49-0.56"/>
<path class="cls-4" d="m174 117"/>
<path class="cls-4" d="m201 122"/>
<path class="cls-4" d="m228 119"/>
<path class="cls-4" d="m165 116"/>
<path class="cls-2" d="m84 112a1.74 1.74 0 0 0 1.37 -2.07l-14.3-68-3 2.67 13.8 66a1.74 1.74 0 0 0 2.1 1z"/>
<ellipse rx="2.97" transform="translate(1.21 14.4) rotate(-13.8)" ry="1.19" cy="2.17" cx="59.9" class="cls-10"/>
<path class="cls-9" d="m128 21.8c1 1.82-0.37 3.32-1.95 4.67-3.74 3.2-11.8 2.79-11.8 2.79s-23-33.8-53.8-26l-0.2 0.08v-0.07q1.94-0.47 3.92-0.87c28.5-5.67 55.1 2.83 64.1 19.4z"/>
<path class="cls-9" d="m60.2 3.33c30.8-7.87 53.8 25.9 53.8 25.9a23 23 0 0 1 -17.6 5.6s-23.4-33.7-36.2-31.5z"/>
<path class="cls-9" d="m60.2 3.33c12.8-2.24 36.4 31.5 36.4 31.5a28.8 28.8 0 0 1 -27.2 7.47z"/>
<path d="m60 3.38l0.26-0.05-1.08 0.3a5.6 5.6 0 0 1 0.8 -0.25z"/>
<path class="cls-9" d="m59.9 3.31v0.07a5.6 5.6 0 0 0 -0.82 0.24c-29.7 8.57-30 50.5-30 50.5-1.53 2.51-11 3.15-11 3.15a4.24 4.24 0 0 1 -5.27 -3c-0.13-0.5-0.24-1-0.35-1.51-4-20.4 17-41.9 47.5-49.4z"/>
<path class="cls-9" d="m59.1 3.62c-11.6 4.38-10.8 45-10.8 45a20.6 20.6 0 0 1 -19.2 5.5s0.3-41.9 30-50.5z"/>
<path class="cls-11" d="m60.2 3.33c12.8-2.24 36.4 31.5 36.4 31.5a28.8 28.8 0 0 1 -27.2 7.47l-9.17-39"/>
<path class="cls-11" d="m29.1 54.1a20.6 20.6 0 0 0 19.2 -5.5s-0.8-40.6 10.8-45"/>
<path class="cls-11" d="m114 29.2s8.05 0.41 11.8-2.79c1.58-1.35 2.94-2.85 1.95-4.67-9-16.5-35.4-25-64-19.3q-2 0.39-3.92 0.87c-30.5 7.44-51.5 29-47.5 49.4 0.1 0.51 0.22 1 0.35 1.51a4.24 4.24 0 0 0 5.27 3s9.49-0.64 11-3.15 0.31-41.9 30-50.5l1.08-0.3c30.7-7.74 53.7 26 53.7 26a23 23 0 0 1 -17.6 5.6"/>
<path class="cls-5" d="m48.3 48.6s17.2 0.9 21.9-6.6"/>
<path class="cls-12" d="m185 119c0 1.59-4.07 2.88-9.08 2.88a80.9 80.9 0 0 1 -8.37 -0.57c-2.55-0.42-0.94-1.09-0.28-2.3a15.2 15.2 0 0 1 8.64 -2.88c3 0 8 1 8 3z"/>
<path class="cls-13" d="m186 120s-0.81-14.1-7-19.3c-2.93-2.47-6.86 0-8.89 4.34-2.43 5.24-4.13 13.5-4 15.4"/>
<path class="cls-13" d="m176 108c0.46 5.44-1.89 13.2-1.89 13.2"/>
<path class="cls-5" d="m190 118c0 2-6.67 3.6-14.9 3.6a54.6 54.6 0 0 1 -7.45 -0.48c-4.45-0.62-7.44-1.79-7.44-3.12"/>
<path class="cls-14" d="m221 120c0.54 0.65 4.69 0.39 5.43 0 0.17 0.06 0.92-1.46 0.54-1.46h-6a1.3 1.3 0 0 0 0 1z"/>
<path class="cls-13" d="m221 121s-4.76-23.7 3.76-23.4 2.53 23.6 2.53 23.6"/>
<polygon points="95.4 139 42 106 77.2 86 131 118" class="cls-15"/>
<polyline points="46.1 74.1 82.2 53.2 119 128 83 149" class="cls-16"/>
<path class="cls-2" d="m50 76s3.9 50.3 45.8 60.2l34.2-20c-42-10-45.8-59.9-45.8-59.9z"/>
<path class="cls-17" d="m123 120c-42-9.94-45.8-60.2-45.8-60.2"/>
<path class="cls-17" d="m116 124c-42.1-10-46-59.9-46-59.9"/>
<path class="cls-17" d="m109 128c-42-9.94-45.8-60.2-45.8-60.2"/>
<path class="cls-17" d="m103 132c-42.1-10-46-59.9-46-59.9"/>
<line y1="149" x2="46.1" x1="83" y2="74.1" class="cls-7"/>
<line y1="110" x2="60" x1="48.9" y2="103" class="cls-16"/>
<path class="cls-2" d="m82.6 57.2-32.6 18.8l-2.12-3.66s33.7-19.8 34.6-19.8a2.29 2.29 0 0 1 2.28 2.29c0 1.2-2.2 2.4-2.2 2.4z"/>
<path class="cls-2" d="m131 121-33 19-2.1-4s33.8-19.9 34.6-19.9a2.29 2.29 0 0 1 2.28 2.29c1 2-1 3-1 3z"/>
<circle cy="139" cx="95.8" r="2.29" class="cls-2"/>
<circle cy="74.9" cx="47.8" r="2.29" class="cls-2"/>
<path class="cls-13" d="m223 86.2a6.72 6.72 0 0 0 -0.88 2"/>
<path class="cls-5" d="m239 117c0 2.38-8 4.3-17.8 4.3s-17.8-1.93-17.8-4.3"/>
<text class="cls-18" transform="translate(141 47.1)">STRAND</text>
<path d="m142 11.3h5.23 2s1.1 0 1.65 0.11a7.62 7.62 0 0 1 3 0.86 5.91 5.91 0 0 1 1.6 1.38 6.85 6.85 0 0 1 1.36 2.89 11 11 0 0 1 0.2 1.32 8.88 8.88 0 0 1 0.07 1.14 12.2 12.2 0 0 1 -0.28 2.55 8.42 8.42 0 0 1 -0.75 2.07 5.92 5.92 0 0 1 -1.83 2.09 6.28 6.28 0 0 1 -2.59 1 8.56 8.56 0 0 1 -1.38 0.11h-8.26zm5 3.68v8.39c0.85 0 1.68 0 2.52-0.11a2.43 2.43 0 0 0 2 -1.4 5.74 5.74 0 0 0 0.62 -2.65 6.79 6.79 0 0 0 -0.07 -1 5 5 0 0 0 -0.62 -2 2.09 2.09 0 0 0 -1.37 -1.09 7.26 7.26 0 0 0 -1.23 -0.18c0-0.1-1 0-2 0z"/>
<path d="m192 8.65a1 1 0 0 1 0.1 0.36c0 0.26 0.14 0.43 0.27 0.61a7.05 7.05 0 0 0 0.43 0.58c0.16 0.19 0 0.38 0 0.54-0.26 0.81-0.55 1.61-0.82 2.42-0.07 0.2-0.12 0.4-0.2 0.6a2.31 2.31 0 0 0 -0.14 0.78 1.32 1.32 0 0 0 0.07 0.63 0.19 0.19 0 0 1 0 0.18 3.11 3.11 0 0 1 -0.44 0.19s-0.07 0-0.1 0a0.52 0.52 0 0 1 -0.05 -0.77 0.21 0.21 0 0 0 0.09 -0.12v-0.62c0-0.68 0.07-1.36 0.11-2 0-0.35 0.05-0.69 0.07-1a0.91 0.91 0 0 0 -0.07 -0.24l-3.34 4c0.21 0.15 0.13 0.26 0 0.39a5.94 5.94 0 0 0 -0.39 0.46l-0.26-0.07c-0.27 0.33-0.54 0.67-0.82 1s-0.39 0.41-0.58 0.62a0.14 0.14 0 0 0 0 0.13l1.81 3 1.45 2.41 1.61 2.67 0.95 1.59h-5.41a0.29 0.29 0 0 1 -0.29 -0.16l-0.6-1.09-1.5-2.71-0.85-1.57-0.38-0.67-0.84 1-0.4 0.45c-0.3 0.32-0.6 0.64-0.89 1a0.54 0.54 0 0 0 -0.13 0.32v3.49h-5v-15.8h4.92v5.7l0.48-0.54 0.06-0.07a0.32 0.32 0 0 1 0.45 -0.12c0.27 0.12 0.56 0.2 0.85 0.3a0.19 0.19 0 0 0 0.24 0c0.2-0.21 0.43-0.38 0.62-0.6s0.57-0.66 0.85-1l0.2-0.23a1.2 1.2 0 0 0 0.29 -0.64c0-0.09 0.11-0.16 0.08-0.27a0.42 0.42 0 0 1 0 -0.16s0-0.08 0-0.1l0.24-0.21 0.13 0.19 0.49-0.39c0.06 0 0.13-0.07 0.18-0.12s0.18-0.08 0.13-0.21 0.07-0.1 0.11-0.13l3-2.1 2-1.7s0.06-0.06 0.1-0.06a3.17 3.17 0 0 0 0.85 -0.25zm-2 2.35l-4.5 2.76 0.28 0.52-0.17 0.09c0.08 0.13 0.05 0.22-0.09 0.25l0.08 0.16h-0.13v0.14h-0.33s0 0.1 0 0.16c-0.06 0.22-0.26 0.4-0.13 0.67s0.14 0.25 0.36 0.12c-0.1-0.16-0.09-0.22 0-0.36l0.57-0.64a0.76 0.76 0 0 1 0.22 -0.19c0.06 0 0.06-0.06 0.08-0.1 0.16-0.22 0.34-0.43 0.53-0.64h0.14l0.28 0.13zm2.27-0.53h-0.66c-0.11 0-0.18 0-0.09 0.16s0 0.12 0 0.18 0 0.06 0 0.1c-0.05 0.52-0.1 1-0.15 1.57 0 0.2-0.05 0.39-0.07 0.59s0 0.41 0 0.61zm-0.68-1.09-0.1 1h0.76z"/>
<path d="m166 10.7a9.5 9.5 0 0 1 3.5 0.58 7.06 7.06 0 0 1 2.1 1.21 7.37 7.37 0 0 1 1.76 2.17 7.86 7.86 0 0 1 0.85 2.47c0.06 0.39 0.11 0.78 0.14 1.17a7 7 0 0 1 0 1 10.4 10.4 0 0 1 -0.36 2.33 8.38 8.38 0 0 1 -1.21 2.58 7.26 7.26 0 0 1 -2.3 2.1 7.42 7.42 0 0 1 -2.1 0.82 11.6 11.6 0 0 1 -1.33 0.21 10.9 10.9 0 0 1 -1.4 0.07 8.91 8.91 0 0 1 -4.23 -1 6.79 6.79 0 0 1 -1.89 -1.54 7.62 7.62 0 0 1 -1.06 -1.63 8.86 8.86 0 0 1 -0.75 -2.41 10 10 0 0 1 -0.14 -2.11 8.4 8.4 0 0 1 0.37 -2.26 14.6 14.6 0 0 1 0.61 -1.57 6.79 6.79 0 0 1 1.06 -1.56 7.12 7.12 0 0 1 2.55 -1.84 7.21 7.21 0 0 1 2 -0.58l2-0.2zm3.39 8.2c0-0.2 0-0.4-0.05-0.6a4.49 4.49 0 0 0 -0.34 -1.62 3.05 3.05 0 0 0 -2.31 -1.95 3.32 3.32 0 0 0 -2 0.21 3.44 3.44 0 0 0 -1.9 2.54 7.42 7.42 0 0 0 -0.16 1.87 5.92 5.92 0 0 0 0.37 2.09 3.05 3.05 0 0 0 0.89 1.29 3.34 3.34 0 0 0 2.79 0.63 3 3 0 0 0 2.28 -1.94 6.78 6.78 0 0 0 1 -2.5z"/>
<path class="cls-9" d="m225 137h0.29a3.07 3.07 0 0 1 0.91 -0.19v-0.41h-0.29a1.28 1.28 0 0 0 -1 0z"/>
</g>
</g>
</svg>
