<svg xmlns="http://www.w3.org/2000/svg" viewBox="0 0 293.81 169.43"><defs><style>.cls-1{fill:#efe8aa;}.cls-12,.cls-13,.cls-14,.cls-2,.cls-8,.cls-9{fill:#fff;}.cls-10,.cls-11,.cls-13,.cls-15,.cls-16,.cls-17,.cls-2,.cls-3,.cls-5,.cls-6,.cls-7,.cls-8{stroke:#000;}.cls-10,.cls-11,.cls-12,.cls-13,.cls-14,.cls-17,.cls-2,.cls-3,.cls-4,.cls-5,.cls-6,.cls-7,.cls-8{stroke-miterlimit:10;}.cls-13,.cls-14,.cls-15,.cls-16,.cls-2,.cls-3,.cls-4,.cls-5,.cls-6,.cls-7{stroke-width:1.37px;}.cls-3{fill:#e3f2f0;}.cls-11,.cls-15,.cls-16,.cls-17,.cls-4,.cls-5,.cls-7{fill:none;}.cls-4{stroke:#aededa;}.cls-13,.cls-15,.cls-16,.cls-17,.cls-7{stroke-linecap:round;}.cls-12,.cls-8{stroke-width:0.23px;}.cls-10,.cls-18{fill:#dbcb85;}.cls-10,.cls-11{stroke-width:1.37px;}.cls-12,.cls-14{stroke:#fff;}.cls-15{stroke-linejoin:round;}.cls-16{stroke-linejoin:bevel;}.cls-17{stroke-width:2.72px;}.cls-18{font-size:21.7px;font-family:HereJustNow-Out, Here Just Now;}</style></defs><title>dok-strand</title><g id="Layer_2" data-name="Layer 2"><g id="HOME"><path class="cls-1" d="M267.77,119.25c-46.52-12.63-86.54-9.16-86.82-9.14C89.84,118,43.2,58.86,14.17,84.52c-19.28,17-18.64,60.74.46,78.14C37.57,183.56,68,149,149.42,153.52c34.67,1.93,56.73,9.74,96,.91,17.91-4,47.12-13.26,46.61-22.39C291.74,127.62,284.54,123.8,267.77,119.25Z"/><ellipse class="cls-2" cx="198.77" cy="134.19" rx="51.35" ry="13.57"/><ellipse class="cls-2" cx="198.77" cy="127.65" rx="51.35" ry="13.57"/><ellipse class="cls-2" cx="198.77" cy="121.12" rx="51.35" ry="13.57"/><path class="cls-2" d="M249,117.71a5,5,0,0,0,1.77-3.54c0-7.5-23-13.57-51.35-13.57s-51.35,6.08-51.35,13.57a5,5,0,0,0,1.77,3.54c5.89-5.78,25.86-10,49.58-10S243.12,111.93,249,117.71Z"/><path class="cls-2" d="M248.48,117.71c-5.89,5.78-25.86,10-49.58,10s-43.69-4.25-49.58-10a5,5,0,0,0-1.77,3.54c0,7.5,23,13.57,51.35,13.57s51.35-6.08,51.35-13.57A5,5,0,0,0,248.48,117.71Z"/><path class="cls-3" d="M248.48,117.71c-5.89-5.78-25.86-10-49.58-10s-43.69,4.25-49.58,10c5.89,5.78,25.86,10,49.58,10S242.59,123.48,248.48,117.71Z"/><path class="cls-4" d="M227.88,119.33"/><path class="cls-4" d="M201,114.58"/><path class="cls-4" d="M174,117"/><path class="cls-5" d="M160.65,118.05c0-2,6.67-3.6,14.89-3.6s14.89,1.61,14.89,3.6"/><path class="cls-6" d="M218.57,102.7c-2.07,1.8-1.42,3.6-3.29,6.85-1.78,3.09-3.35,3.18-3.29,4.66.1,2.68,5.37,6,8.5,4.66,5.07-2.1,4.76-16.32,1.51-17.55C220.71,100.84,218.93,102.38,218.57,102.7Z"/><path class="cls-2" d="M199.23,88.42c4.18-12.14,6.27-18.2,10.83-20.43a13.37,13.37,0,0,1,8.36-1.37c8.91,1.72,16.33,14.56,12.61,24.81-2.39,6.6-9.55,12.54-14.81,11.38s-9-9.93-14.39-9.32c-.63.07-2,.35-2.74-.41C198,92,198.82,89.6,199.23,88.42Z"/><path class="cls-5" d="M203.18,117.12c0-2.38,8-4.3,17.79-4.3s17.79,1.93,17.79,4.3"/><path d="M289.47,87.87c4.58,4.17,6,13.17,1.92,19.06-4,5.72-11.9,6.58-17,5.76-12-1.92-13.91-13.95-23.17-14-8.88,0-11.66,11-18.23,9.73-6.76-1.33-5.06-13.25-16.31-25.77C208.94,74.07,202.84,73.8,203,69.5c.2-7.18,17.4-12.87,30.3-13.71,6.45-.42,18.12-1.18,22.76,5.48,4.42,6.35-1.77,13.37,2.88,18.37,2.62,2.82,5.46,1.51,21.8,5.07C286.6,86,288,86.57,289.47,87.87Z"/><path class="cls-7" d="M205.27,84.05s3.7,2.67,6.85,0"/><path class="cls-8" d="M210.19,71.65c2,2.42,3.57,2.46,6.34,4.66s3.78,4.06,4.06,3.87-.51-1.81-1.39-3.07c-1.3-1.89-2.53-2.31-5.55-4.46-3.25-2.31-4.7-3.81-5-3.57S209.35,70.64,210.19,71.65Z"/><path class="cls-9" d="M220.13,88.58c-.15-.15,1-4.32,2.52-4.87a1.46,1.46,0,0,1,.87-.05c1.25.32,1.91,2.45,1.09,4.47-.74,1.84-2.81,2.87-3.09,2.57C219.89,88.94,221.12,89.54,220.13,88.58Z"/><path class="cls-8" d="M228.08,60.21s12.76-4,20.67,0c5.6,2.84,4.83,5.55,5.45,8.64s-1.57.29-2.47-2.71c-.73-2.43-4.32-4.85-8.43-5.31s-13,.46-13.16.46S225.82,62.53,228.08,60.21Z"/><path class="cls-8" d="M260.68,96.43c-.71,1.29,5.42,7.29,13.24,8.45,1.82.27,6.66,1,10.56-1.76,3.38-2.38,4.68-6.41,4.22-6.69-.25-.15-1,.8-3.07,2.46-2.4,1.94-4,3.23-5.76,3.87-4.29,1.57-11.41,0-14.2-3.7-.74-1-1.76-2.86-3.55-3C262,96.06,260.93,96,260.68,96.43Z"/><path class="cls-7" d="M210.41,98.83a8.93,8.93,0,0,0,4-2.63c.18-.19.34-.38.49-.56"/><path class="cls-4" d="M174,117"/><path class="cls-4" d="M200.93,122.38"/><path class="cls-4" d="M227.85,119.33"/><path class="cls-4" d="M164.89,116.37"/><path class="cls-2" d="M84,112h0a1.74,1.74,0,0,0,1.37-2.07L71.09,42l-3,2.67,13.85,66A1.74,1.74,0,0,0,84,112Z"/><ellipse class="cls-10" cx="59.93" cy="2.17" rx="2.97" ry="1.19" transform="translate(1.21 14.36) rotate(-13.8)"/><path class="cls-9" d="M127.85,21.76c1,1.82-.37,3.32-1.95,4.67-3.74,3.2-11.8,2.79-11.8,2.79S91-4.54,60.21,3.33L60,3.38l0-.07q1.94-.47,3.92-.87C92.41-3.23,118.86,5.27,127.85,21.76Z"/><path class="cls-9" d="M60.21,3.33C91-4.54,114.11,29.22,114.11,29.22a23,23,0,0,1-17.55,5.6S73,1.09,60.21,3.33Z"/><path class="cls-9" d="M60.21,3.33C73,1.09,96.55,34.82,96.55,34.82a28.77,28.77,0,0,1-27.17,7.47Z"/><path d="M60,3.38l.26-.05-1.08.3A5.6,5.6,0,0,1,60,3.38Z"/><path class="cls-9" d="M59.94,3.31l0,.07a5.6,5.6,0,0,0-.82.24c-29.72,8.57-30,50.48-30,50.48-1.53,2.51-11,3.15-11,3.15a4.24,4.24,0,0,1-5.27-3c-.13-.5-.24-1-.35-1.51C8.4,32.31,29.42,10.75,59.94,3.31Z"/><path class="cls-9" d="M59.14,3.62C47.48,8,48.33,48.6,48.33,48.6A20.64,20.64,0,0,1,29.1,54.1S29.41,12.19,59.14,3.62Z"/><path class="cls-11" d="M60.21,3.33C73,1.09,96.55,34.82,96.55,34.82a28.77,28.77,0,0,1-27.17,7.47l-9.17-39"/><path class="cls-11" d="M29.1,54.1A20.64,20.64,0,0,0,48.33,48.6S47.48,8,59.14,3.62"/><path class="cls-11" d="M114.11,29.22s8.05.41,11.8-2.79c1.58-1.35,2.94-2.85,1.95-4.67-9-16.49-35.44-25-64-19.32q-2,.39-3.92.87c-30.52,7.44-51.54,29-47.48,49.44.1.51.22,1,.35,1.51a4.24,4.24,0,0,0,5.27,3s9.49-.64,11-3.15c0,0,.31-41.91,30-50.48l1.08-.3C91-4.54,114.11,29.22,114.11,29.22a23,23,0,0,1-17.55,5.6"/><path class="cls-5" d="M48.33,48.6S65.47,49.47,70.2,42"/><path class="cls-12" d="M184.51,119c0,1.59-4.07,2.88-9.08,2.88a80.91,80.91,0,0,1-8.37-.57c-2.55-.42-.94-1.09-.28-2.3a15.19,15.19,0,0,1,8.64-2.88C180.45,116.14,184.51,117.43,184.51,119Z"/><path class="cls-13" d="M185.87,120.18s-.81-14.13-7-19.33c-2.93-2.47-6.86,0-8.89,4.34-2.43,5.24-4.13,13.48-4,15.43"/><path class="cls-13" d="M175.81,108.15c.46,5.44-1.89,13.18-1.89,13.18"/><path class="cls-5" d="M190.43,118.05c0,2-6.67,3.6-14.89,3.6a54.59,54.59,0,0,1-7.45-.48c-4.45-.62-7.44-1.79-7.44-3.12"/><path class="cls-14" d="M221.12,120c.54.65,4.69.39,5.43,0,.17.06.92-1.46.54-1.46h-6A1.3,1.3,0,0,0,221.12,120Z"/><path class="cls-13" d="M220.83,120.95s-4.76-23.67,3.76-23.42,2.53,23.56,2.53,23.56"/><polygon class="cls-15" points="95.43 138.78 42.03 106.25 77.18 85.95 130.58 118.48 95.43 138.78"/><polyline class="cls-16" points="46.08 74.09 82.24 53.22 119.2 128 83.05 148.88"/><path class="cls-2" d="M50,76s3.9,50.3,45.85,60.25L130,116.34C88.05,106.4,84.16,56.09,84.16,56.09Z"/><path class="cls-17" d="M123.3,120.11c-41.95-9.94-45.85-60.25-45.85-60.25"/><path class="cls-17" d="M115.85,124.34C73.91,114.4,70,64.09,70,64.09"/><path class="cls-17" d="M109.15,128.13c-41.95-9.94-45.85-60.25-45.85-60.25"/><path class="cls-17" d="M102.82,132.32C60.87,122.38,57,72.08,57,72.08"/><line class="cls-7" x1="83.05" y1="148.88" x2="46.08" y2="74.09"/><line class="cls-16" x1="48.9" y1="109.76" x2="60" y2="103.05"/><path class="cls-2" d="M82.62,57.21,50,76l-2.12-3.66S81.65,52.52,82.47,52.52a2.29,2.29,0,0,1,2.28,2.29C84.75,56,82.62,57.21,82.62,57.21Z"/><path class="cls-2" d="M130.67,120.86,98,139.7,95.93,136s33.77-19.86,34.59-19.86a2.29,2.29,0,0,1,2.28,2.29C132.8,119.7,130.67,120.86,130.67,120.86Z"/><circle class="cls-2" cx="95.84" cy="138.57" r="2.29"/><circle class="cls-2" cx="47.79" cy="74.92" r="2.29"/><path class="cls-13" d="M223,86.16a6.72,6.72,0,0,0-.88,2"/><path class="cls-5" d="M238.76,117.12c0,2.38-8,4.3-17.79,4.3s-17.79-1.93-17.79-4.3"/><text class="cls-18" transform="translate(141.19 47.1)">STRAND</text><path d="M142.33,11.26h5.23c.67,0,1.35,0,2,0s1.1,0,1.65.11a7.62,7.62,0,0,1,3,.86,5.91,5.91,0,0,1,1.6,1.38,6.85,6.85,0,0,1,1.36,2.89,11,11,0,0,1,.2,1.32,8.88,8.88,0,0,1,.07,1.14,12.18,12.18,0,0,1-.28,2.55,8.42,8.42,0,0,1-.75,2.07,5.92,5.92,0,0,1-1.83,2.09,6.28,6.28,0,0,1-2.59,1,8.56,8.56,0,0,1-1.38.11l-8.26,0Zm5,3.68v8.39c.85,0,1.68,0,2.52-.11a2.43,2.43,0,0,0,2-1.4,5.74,5.74,0,0,0,.62-2.65,6.79,6.79,0,0,0-.07-1,5,5,0,0,0-.62-2,2.09,2.09,0,0,0-1.37-1.09,7.26,7.26,0,0,0-1.23-.18C148.53,14.92,147.93,14.95,147.31,14.95Z"/><path d="M191.52,8.65a1,1,0,0,1,.1.36c0,.26.14.43.27.61a7.05,7.05,0,0,0,.43.58c.16.19,0,.38,0,.54-.26.81-.55,1.61-.82,2.42-.07.2-.12.4-.2.6a2.31,2.31,0,0,0-.14.78,1.32,1.32,0,0,0,.07.63.19.19,0,0,1,0,.18,3.11,3.11,0,0,1-.44.19s-.07,0-.1,0a.52.52,0,0,1-.05-.77.21.21,0,0,0,.09-.12c0-.21,0-.41,0-.62,0-.68.07-1.36.11-2,0-.35.05-.69.07-1a.91.91,0,0,0-.07-.24l-3.34,4c.21.15.13.26,0,.39a5.94,5.94,0,0,0-.39.46l-.26-.07c-.27.33-.54.67-.82,1s-.39.41-.58.62a.14.14,0,0,0,0,.13l1.81,3,1.45,2.41,1.61,2.67.95,1.59h-5.41a.29.29,0,0,1-.29-.16l-.6-1.09-1.5-2.71-.85-1.57-.38-.67-.84,1-.4.45c-.3.32-.6.64-.89,1a.54.54,0,0,0-.13.32c0,1.16,0,2.32,0,3.49h-5V11.28h4.92V17l.48-.54.06-.07a.32.32,0,0,1,.45-.12c.27.12.56.2.85.3a.19.19,0,0,0,.24,0c.2-.21.43-.38.62-.6s.57-.66.85-1l.2-.23a1.2,1.2,0,0,0,.29-.64c0-.09.11-.16.08-.27a.42.42,0,0,1,0-.16s0-.08,0-.1l.24-.21.13.19.49-.39c.06,0,.13-.07.18-.12s.18-.08.13-.21.07-.1.11-.13L188,10.71,190.46,9s.06-.06.1-.06a3.17,3.17,0,0,0,.85-.25ZM190,11l0,0-4.5,2.76.28.52-.17.09c.08.13.05.22-.09.25l.08.16-.13,0c0,.05,0,.13,0,.14l-.33,0s0,.1,0,.16c-.06.22-.26.4-.13.67s.14.25.36.12c-.1-.16-.09-.22,0-.36l.57-.64a.76.76,0,0,1,.22-.19c.06,0,.06-.06.08-.1.16-.22.34-.43.53-.64,0,0,.1,0,.14,0l.28.13Zm2.27-.53h-.66c-.11,0-.18,0-.09.16s0,.12,0,.18,0,.06,0,.1c-.05.52-.1,1-.15,1.57,0,.2-.05.39-.07.59s0,.41,0,.61h0Zm-.68-1.09-.1,1h.76Z"/><path d="M166.13,10.71a9.5,9.5,0,0,1,3.5.58,7.06,7.06,0,0,1,2.1,1.21,7.37,7.37,0,0,1,1.76,2.17,7.86,7.86,0,0,1,.85,2.47c.06.39.11.78.14,1.17a7,7,0,0,1,0,1,10.42,10.42,0,0,1-.36,2.33,8.38,8.38,0,0,1-1.21,2.58,7.26,7.26,0,0,1-2.3,2.1,7.42,7.42,0,0,1-2.1.82,11.64,11.64,0,0,1-1.33.21,10.91,10.91,0,0,1-1.4.07,8.91,8.91,0,0,1-4.23-1,6.79,6.79,0,0,1-1.89-1.54,7.62,7.62,0,0,1-1.06-1.63,8.86,8.86,0,0,1-.75-2.41,10,10,0,0,1-.14-2.11,8.4,8.4,0,0,1,.37-2.26,14.62,14.62,0,0,1,.61-1.57,6.79,6.79,0,0,1,1.06-1.56,7.12,7.12,0,0,1,2.55-1.84,7.21,7.21,0,0,1,2-.58C164.92,10.79,166.13,10.69,166.13,10.71Zm3.39,8.2c0-.2,0-.4-.05-.6a4.49,4.49,0,0,0-.34-1.62,3.05,3.05,0,0,0-2.31-1.95,3.32,3.32,0,0,0-2,.21,3.44,3.44,0,0,0-1.9,2.54,7.42,7.42,0,0,0-.16,1.87,5.92,5.92,0,0,0,.37,2.09,3.05,3.05,0,0,0,.89,1.29,3.34,3.34,0,0,0,2.79.63,3,3,0,0,0,2.28-1.94A6.78,6.78,0,0,0,169.52,18.91Z"/><path class="cls-9" d="M224.57,136.72h.29a3.07,3.07,0,0,1,.91-.19v-.41h-.29A1.28,1.28,0,0,0,224.57,136.72Z"/></g></g></svg>