<?xml version="1.0" encoding="UTF-8" standalone="no"?>
<svg xmlns="http://www.w3.org/2000/svg" viewBox="0 0 291.28 167.79">
<defs>
<style>.cls-1{fill:#ef8269;}.cls-12,.cls-13,.cls-2,.cls-3,.cls-4,.cls-5,.cls-6{fill:#fff;}.cls-11,.cls-12,.cls-13,.cls-14,.cls-16,.cls-17,.cls-2,.cls-4,.cls-5,.cls-6,.cls-7,.cls-8,.cls-9{stroke:#000;}.cls-11,.cls-12,.cls-13,.cls-15,.cls-16,.cls-17,.cls-2,.cls-6,.cls-8,.cls-9{stroke-miterlimit:10;}.cls-14,.cls-15,.cls-16,.cls-17,.cls-2,.cls-5,.cls-6,.cls-7,.cls-8,.cls-9{stroke-width:1.37px;}.cls-14,.cls-4,.cls-5,.cls-6,.cls-7,.cls-8,.cls-9{stroke-linecap:round;}.cls-14,.cls-4,.cls-5,.cls-7{stroke-linejoin:round;}.cls-4{stroke-width:1.14px;}.cls-14,.cls-16,.cls-9{fill:none;}.cls-10{font-size:21.7px;fill:#c77a62;font-family:HereJustNow-Out, Here Just Now;}.cls-11,.cls-13{stroke-width:0.23px;}.cls-12{stroke-width:0.28px;}.cls-15,.cls-17{fill:#efe8c3;}.cls-15{stroke:#efe8c3;}</style>
</defs>
<title>dok-terras</title>
<g data-name="Layer 2">
<g id="HOME">
<path class="cls-1" d="m5.12 124c3.32-19 30.8-27.8 56.2-35.6 37-11.4 48-6.47 86.8-13.2 66-12 79-33.8 105-22.4 24.4 10.5 41.9 41.9 34.7 62.6-4.64 13.3-19.4 19.4-48.9 31.1s-47 19-71 19c-49.7 0.23-61-28.7-99.6-19.6-21 4.92-31.3 16.7-45.2 10.5-11.6-5-20-20-17.9-32z"/>
<path class="cls-2" d="m186 109l-0.39 8.8c0 0.86-0.06 1.72 0 2.58 0 1.3-0.18 4-2.13 4.75-2.61 1-10.1 3.4-12.6 2.29s-2.85-3.26-1.67-4.06a55.3 55.3 0 0 1 6.64 -2.74 1 1 0 0 0 0.64 -0.87l0.49-11.2"/>
<path class="cls-3" d="m128 98.4a19.7 19.7 0 0 1 -8.41 -1.93c-7.27-3.41-9.6-8.57-10.3-12.3a16.5 16.5 0 0 1 0.22 -6.84l7.4 2.52a8.65 8.65 0 0 0 0.08 3.25c0.6 2.66 2.57 4.79 5.87 6.34a12 12 0 0 0 5.1 1.17c5.89 0 10-4.57 10.1-4.62a3.88 3.88 0 0 1 5.81 5.16 24 24 0 0 1 -7 4.9 20.2 20.2 0 0 1 -9 2.2z"/>
<path d="m110 78.2l6.15 2.09a9.25 9.25 0 0 0 0.17 2.93c0.65 2.88 2.75 5.17 6.25 6.81a12.6 12.6 0 0 0 5.39 1.24c6.19 0 10.4-4.65 10.6-4.85a3.2 3.2 0 1 1 4.78 4.25 23.2 23.2 0 0 1 -6.64 4.9 19.5 19.5 0 0 1 -8.7 2.12 19 19 0 0 1 -8.12 -1.87c-7-3.29-9.25-8.23-9.9-11.8a15.8 15.8 0 0 1 0 -5.82m-1-1.77a16.8 16.8 0 0 0 -0.44 7.84c0.71 3.89 3.13 9.27 10.7 12.8a20.4 20.4 0 0 0 8.7 2 20.9 20.9 0 0 0 9.31 -2.27 24.7 24.7 0 0 0 7.06 -5.21 4.57 4.57 0 0 0 -6.83 -6.07c0 0.06-4 4.39-9.55 4.39a11.2 11.2 0 0 1 -4.81 -1.11c-3.1-1.45-4.95-3.43-5.49-5.87a7.85 7.85 0 0 1 0.06 -3.62v0.06l-8-2.8z"/>
<line y1="101" x2="201" x1="202" y2="62.6" class="cls-4"/>
<polygon points="232 61.5 202 50.7 202 47.5 232 58.4" class="cls-5"/>
<polygon points="232 67.5 202 56.6 202 53.4 232 64.3" class="cls-5"/>
<polygon points="232 73.4 202 62.6 202 59.4 232 70.2" class="cls-5"/>
<polygon points="228 85.8 198 76.2 201 75.2 231 84.8" class="cls-4"/>
<polygon points="221 87.6 191 78 194 77 225 86.6" class="cls-4"/>
<polygon points="214 89.4 184 79.8 188 78.8 218 88.4" class="cls-4"/>
<polygon points="208 91.3 177 81.6 181 80.7 211 90.3" class="cls-4"/>
<line y1="72.6" x2="232" x1="232" y2="112" class="cls-5"/>
<line y1="91.4" x2="208" x1="208" y2="120" class="cls-5"/>
<rect transform="translate(-25.5 38.1) rotate(-15.5)" rx="4.57" ry="4.57" height="9.14" width="25.4" y="108" x="114" class="cls-6"/>
<path class="cls-7" d="m128 130l-2 8.57c-0.2 0.84-0.41 1.67-0.66 2.49-0.37 1.24-0.91 3.88 0.76 5.15 2.23 1.7 8.81 6 11.5 5.64s3.63-2.36 2.71-3.45a55.3 55.3 0 0 0 -5.65 -4.44 1 1 0 0 1 -0.38 -1l2.56-10.9"/>
<path class="cls-3" d="m135 132a13.5 13.5 0 0 1 -3 -0.39c-2.63-0.62-4-1.56-4.19-1.94a3.44 3.44 0 0 1 1.6 -0.26 13.5 13.5 0 0 1 3 0.39c2.63 0.62 4 1.56 4.19 1.94a3.43 3.43 0 0 1 -2 0z"/>
<path d="m130 130a13.4 13.4 0 0 1 2.63 0.37 13.2 13.2 0 0 1 2.52 0.85 13.4 13.4 0 0 1 -2.63 -0.37 13.2 13.2 0 0 1 -2.52 -0.85m-0.23-1.37c-1.29 0-2.18 0.27-2.3 0.78-0.2 0.87 1.91 2.11 4.73 2.78a14.2 14.2 0 0 0 3.17 0.41c1.29 0 2.18-0.27 2.3-0.78 0.2-0.87-1.91-2.11-4.73-2.78a14.2 14.2 0 0 0 -3.17 -0.41z"/>
<path class="cls-5" d="m131 112c-0.69 0.46-2.51 13.2-2.28 18l6.4 1.6s8.68-21.2 2.28-24.9"/>
<rect transform="translate(-26.3 40.9) rotate(-15.5)" rx="4.57" ry="4.57" height="9.14" width="25.4" y="112" x="124" class="cls-6"/>
<path class="cls-7" d="m138 134l-2 8.57c-0.2 0.84-0.41 1.67-0.66 2.49-0.37 1.24-0.91 3.88 0.76 5.15 2.23 1.7 8.81 6 11.5 5.64s3.63-2.36 2.71-3.45a55.3 55.3 0 0 0 -5.65 -4.44 1 1 0 0 1 -0.38 -1l2.56-10.9"/>
<path class="cls-2" d="m199 109l-0.39 8.8c0 0.86-0.06 1.72 0 2.58 0 1.3-0.18 4-2.13 4.75-2.61 1-10.1 3.4-12.6 2.29s-2.85-3.26-1.67-4.06a55.3 55.3 0 0 1 6.64 -2.74 1 1 0 0 0 0.64 -0.87l0.49-11.2"/>
<line y1="119" x2="111" x1="111" y2="146" class="cls-5"/>
<polygon points="138 130 108 120 111 119 141 129" class="cls-4"/>
<polygon points="131 131 101 122 105 121 135 130" class="cls-4"/>
<polygon points="124 133 94.1 124 97.8 123 128 132" class="cls-4"/>
<polygon points="118 135 87.4 126 91 125 121 134" class="cls-4"/>
<line y1="129" x2="141" x1="141" y2="155" class="cls-5"/>
<path class="cls-8" d="m139 125l-30.2 8.42a2.61 2.61 0 0 1 -0.79 0.1 12.1 12.1 0 0 1 -11.6 -12v-12a2.66 2.66 0 0 1 3.41 -2.57l16.4 4.31a2.75 2.75 0 0 0 0.64 0.09c1.36 0 4.89 0.21 7.18 0.34 0.83 0 9.61 5 15.6 8.49a2.75 2.75 0 0 1 -1 6z"/>
<path class="cls-6" d="m110 79.6a13.5 13.5 0 0 1 13.5 13.5v17.5a9.56 9.56 0 0 1 -9.56 9.56h-7.17a10.2 10.2 0 0 1 -10.2 -10.2v-17.9a13.5 13.5 0 0 1 13.2 -13.5z"/>
<line y1="81.8" x2="178" x1="178" y2="110" class="cls-5"/>
<path class="cls-2" d="m131 67.4c-4.18-12.1-6.27-18.2-10.8-20.4a13.4 13.4 0 0 0 -8.36 -1.37c-8.91 1.72-16.3 14.6-12.6 24.8 2.39 6.6 9.55 12.5 14.8 11.4s9-9.93 14.4-9.32c0.63 0.07 2 0.35 2.74-0.41 1-1.1 0-3.5 0-4.7z"/>
<path class="cls-9" d="m125 63s-3.7 2.67-6.85 0"/>
<path class="cls-9" d="m119 77.8a8.93 8.93 0 0 1 -4 -2.63c-0.18-0.19-0.34-0.38-0.49-0.56"/>
<path d="m1.39 9.76h5.23 2s1.1 0 1.65 0.11a7.62 7.62 0 0 1 3 0.86 5.91 5.91 0 0 1 1.6 1.38 6.85 6.85 0 0 1 1.3 2.9 11 11 0 0 1 0.2 1.32 8.88 8.88 0 0 1 0.07 1.14 12.2 12.2 0 0 1 -0.28 2.55 8.42 8.42 0 0 1 -0.75 2.07 5.92 5.92 0 0 1 -1.83 2.09 6.28 6.28 0 0 1 -2.59 1 8.56 8.56 0 0 1 -1.38 0.11h-8.26zm5 3.68v8.39c0.85 0 1.68 0 2.52-0.11a2.43 2.43 0 0 0 2 -1.4 5.74 5.74 0 0 0 0.62 -2.65 6.79 6.79 0 0 0 -0.07 -1 5 5 0 0 0 -0.62 -2 2.09 2.09 0 0 0 -1.37 -1.09 7.26 7.26 0 0 0 -1.23 -0.18h-1.86z"/>
<path d="m50.6 7.14a1 1 0 0 1 0.1 0.36c0 0.26 0.14 0.43 0.27 0.61a7.05 7.05 0 0 0 0.43 0.58c0.16 0.19 0 0.38 0 0.54-0.26 0.81-0.55 1.61-0.82 2.42-0.07 0.2-0.12 0.4-0.2 0.6a2.31 2.31 0 0 0 -0.14 0.78 1.32 1.32 0 0 0 0.07 0.63 0.19 0.19 0 0 1 0 0.18 3.11 3.11 0 0 1 -0.44 0.19s-0.07 0-0.1 0a0.52 0.52 0 0 1 -0.05 -0.77 0.21 0.21 0 0 0 0.09 -0.12v-0.62c0-0.68 0.07-1.36 0.11-2 0-0.35 0.05-0.69 0.07-1a0.91 0.91 0 0 0 -0.07 -0.24l-3.34 4c0.21 0.15 0.13 0.26 0 0.39a5.94 5.94 0 0 0 -0.39 0.46l-0.3-0.1c-0.27 0.33-0.54 0.67-0.82 1s-0.39 0.41-0.58 0.62a0.14 0.14 0 0 0 0 0.13l1.81 3 1.45 2.41 1.61 2.67 0.95 1.59h-5.4a0.29 0.29 0 0 1 -0.29 -0.16l-0.6-1.1-1.5-2.71-0.85-1.57-0.38-0.67-0.84 1-0.4 0.45c-0.3 0.32-0.6 0.64-0.89 1a0.54 0.54 0 0 0 -0.13 0.32v3.49h-5v-15.6h4.92v5.68l0.48-0.54 0.06-0.07a0.32 0.32 0 0 1 0.45 -0.12c0.27 0.12 0.56 0.2 0.85 0.3a0.19 0.19 0 0 0 0.4 -0.1c0.2-0.21 0.43-0.38 0.62-0.6s0.57-0.66 0.85-1l0.2-0.23a1.2 1.2 0 0 0 0.29 -0.64c0-0.09 0.11-0.16 0.08-0.27a0.42 0.42 0 0 1 0 -0.16s0-0.08 0-0.1l0.24-0.21 0.13 0.19 0.49-0.39c0.06 0 0.13-0.07 0.18-0.12s0.18-0.08 0.13-0.21 0.07-0.1 0.11-0.13l2.7-2 2.47-1.76s0.06-0.06 0.1-0.06a3.17 3.17 0 0 0 0.85 -0.25zm-1.5 2.34l-4.5 2.76 0.28 0.52-0.17 0.09c0.08 0.13 0.05 0.22-0.09 0.25l0.08 0.16h-0.13v0.14h-0.33s0 0.1 0 0.16c-0.06 0.22-0.26 0.4-0.13 0.67s0.14 0.25 0.36 0.12c-0.1-0.16-0.09-0.22 0-0.36l0.57-0.64a0.76 0.76 0 0 1 0.22 -0.19c0.06 0 0.06-0.06 0.08-0.1 0.16-0.22 0.34-0.43 0.53-0.64h0.14l0.28 0.13zm2.27-0.53h-0.66c-0.11 0-0.18 0-0.09 0.16s0 0.12 0 0.18 0 0.06 0 0.1c-0.05 0.52-0.1 1-0.15 1.57 0 0.2-0.05 0.39-0.07 0.59s0 0.41 0 0.61zm-0.68-1.09-0.1 1h0.76z"/>
<path d="m25.2 9.2a9.5 9.5 0 0 1 3.5 0.58 7.06 7.06 0 0 1 2.1 1.22 7.37 7.37 0 0 1 1.76 2.17 7.86 7.86 0 0 1 0.85 2.47c0.06 0.39 0.11 0.78 0.14 1.17a7 7 0 0 1 0 1 10.4 10.4 0 0 1 -0.36 2.33 8.38 8.38 0 0 1 -1.1 2.6 7.26 7.26 0 0 1 -2.3 2.1 7.42 7.42 0 0 1 -2.1 0.82 11.6 11.6 0 0 1 -1.33 0.21 10.9 10.9 0 0 1 -1.4 0.07 8.91 8.91 0 0 1 -4.23 -1 6.79 6.79 0 0 1 -1.89 -1.54 7.62 7.62 0 0 1 -1.06 -1.63 8.86 8.86 0 0 1 -0.75 -2.41 10 10 0 0 1 -0.14 -2.11 8.4 8.4 0 0 1 0.37 -2.26 14.6 14.6 0 0 1 0.61 -1.57 6.79 6.79 0 0 1 1.06 -1.56 7.12 7.12 0 0 1 2.55 -1.84 7.21 7.21 0 0 1 2 -0.58c0.6-0.12 1.8-0.21 1.8-0.2zm3.39 8.2c0-0.2 0-0.4-0.05-0.6a4.49 4.49 0 0 0 -0.34 -1.62 3.05 3.05 0 0 0 -2.31 -1.95 3.32 3.32 0 0 0 -2 0.21 3.44 3.44 0 0 0 -2.1 2.6 7.42 7.42 0 0 0 -0.16 1.87 5.92 5.92 0 0 0 0.37 2.09 3.05 3.05 0 0 0 0.9 1.2 3.34 3.34 0 0 0 2.79 0.63 3 3 0 0 0 2.28 -1.94 6.78 6.78 0 0 0 0.5 -2.5z"/>
<text class="cls-10" transform="translate(0 45.6)">TERRAS</text>
<polygon points="118 105 87.1 94.6 87.1 91.4 118 102" class="cls-5"/>
<polygon points="118 111 87.1 100 87.1 97.3 118 108" class="cls-5"/>
<polygon points="117 118 86.9 107 86.9 104 117 115" class="cls-5"/>
<line y1="160" x2="87" x1="87.5" y2="106" class="cls-4"/>
<line y1="117" x2="117" x1="117" y2="167" class="cls-5"/>
<path class="cls-3" d="m145 136a13.5 13.5 0 0 1 -3 -0.39c-2.63-0.62-4-1.56-4.19-1.94a3.43 3.43 0 0 1 1.6 -0.26 13.5 13.5 0 0 1 3 0.39c2.63 0.62 4 1.56 4.19 1.94a3.45 3.45 0 0 1 -2 0z"/>
<path d="m140 135a13.4 13.4 0 0 1 2.63 0.37 13.2 13.2 0 0 1 2.52 0.85 13.4 13.4 0 0 1 -2.63 -0.37 13.2 13.2 0 0 1 -2.52 -0.85m-0.23-1.37c-1.29 0-2.18 0.27-2.3 0.78-0.2 0.87 1.91 2.11 4.73 2.78a14.2 14.2 0 0 0 3.17 0.41c1.29 0 2.18-0.27 2.3-0.78 0.2-0.87-1.91-2.11-4.73-2.78a14.2 14.2 0 0 0 -3.17 -0.41z"/>
<path class="cls-5" d="m141 116c-0.69 0.46-2.51 13.2-2.28 18l6.4 1.6s8.68-21.2 2.28-24.9"/>
<path class="cls-11" d="m42 80.7"/>
<path class="cls-11" d="m128 49c-2 6.2-13 10-17 15.3-0.88 1.06-1.42 2.45-2.46 4.08-1.19 24.2-4.16 17.4-6.91 26.5s4.11 8.91 2.51 18.5-8.07 12.8-13.7 14.8c-4.3 1.53-11.8 2.51-14.6-1.14-1.68-2.16-0.7-4.59-0.46-8.45 0.3-13-9.9-17-7.9-25.8 1.57-7.27 8.36-7.33 10.5-16a20.4 20.4 0 0 0 -1.23 -13.3c-1.51-3.34-1.74-8.13 3.05-11.3 3.2-1.6 2.89-0.91 7.5-1.82s8.15-10.3 17.5-12.5c10-2.4 26 5.5 23 11.7z"/>
<path class="cls-3" d="m111 66.6c0.15-0.15-1-4.32-2.52-4.87a1.46 1.46 0 0 0 -0.87 -0.05c-1.25 0.32-1.91 2.45-1.09 4.47 0.74 1.84 2.81 2.87 3.09 2.57 2-1.6 1-1 2-2z"/>
<path class="cls-6" d="m108 64.2a6.72 6.72 0 0 1 0.88 2"/>
<path class="cls-5" d="m125 44.6c-6-3.6-6-4.8-17-5.3a44.8 44.8 0 0 0 -6.47 0.31c-1.51 0.16-1.65 0.24-1.65 0.29 0 0.35 5.14 0.35 11.8 1.92 3 0.71 4.56 1.07 5.93 1.87 2.25 1.32 3.39 2.9 4.84 2.57 1-0.1 3-0.9 2-1.6z"/>
<path class="cls-6" d="m94.7 106c-2.22-2 3-16.6 3.43-17.8 1.05-2.92 2.05-5.12 3.22-5.27a1.32 1.32 0 0 1 1.41 1c0.53 2-3 4.4-4.62 9.84-1.65 5.63 0.11 10.2-1.68 11.9a1.33 1.33 0 0 1 -1 0z"/>
<path class="cls-3" d="m111 66.6c0.15-0.15-1-4.32-2.52-4.87a1.46 1.46 0 0 0 -0.87 -0.05c-1.25 0.32-1.91 2.45-1.09 4.47 0.74 1.84 2.81 2.87 3.09 2.57 2-1.6 1-1 2-2z"/>
<path class="cls-6" d="m108 64.2a6.72 6.72 0 0 1 0.88 2"/>
<path class="cls-8" d="m190 113a4 4 0 0 1 -3.13 3.25c-3.89 0.84-11 1.88-14.4-0.7-3.88-3 5.2-28.9 8.82-38.7a4 4 0 0 1 5 -2.6l12.1 4.29a4 4 0 0 0 2.61 0l5-1.64a4 4 0 0 1 3.21 0.31l2.23 1.23a4 4 0 0 1 0 7.07 27.8 27.8 0 0 1 -14 3.7 4.06 4.06 0 0 0 -4.12 3.34z"/>
<rect transform="translate(48.6 216) rotate(-64.7)" rx="4.11" ry="4.11" height="8.22" width="39.1" y="65.6" x="175" class="cls-2"/>
<path class="cls-6" d="m211 43.5a13.5 13.5 0 0 1 13 13.5v17.5a9.56 9.56 0 0 1 -9.56 9.56h-7.17a10.2 10.2 0 0 1 -10 -10.3v-16.8a13.5 13.5 0 0 1 14 -13.5z"/>
<path class="cls-8" d="m204 112a4 4 0 0 1 -2.66 3.65c-3.73 1.36-10.6 3.36-14.4 1.27-4.25-2.4 1.21-29.3 3.46-39.5a4 4 0 0 1 4.76 -3.09l12.6 2.6a4 4 0 0 0 2.59 -0.32l4.75-2.31a4 4 0 0 1 3.22 -0.14l2.37 0.92a4 4 0 0 1 1 7 27.8 27.8 0 0 1 -13.3 5.6 4.06 4.06 0 0 0 -3.63 3.87z"/>
<path class="cls-2" d="m186 34.5c4.18-12.1 6.27-18.2 10.8-20.4a13.4 13.4 0 0 1 8.36 -1.37c8.91 1.72 16.3 14.6 12.6 24.8-2.39 6.6-9.55 12.5-14.8 11.4s-9-9.93-14.4-9.32c-0.63 0.07-2 0.35-2.74-0.41-1-1.1 0-3.5 0-4.7z"/>
<path class="cls-9" d="m192 30.2s3.7 2.67 6.85 0"/>
<path class="cls-9" d="m197 44.9a8.93 8.93 0 0 0 4 -2.63c0.18-0.19 0.34-0.38 0.49-0.56"/>
<path d="m226 47.3a37.4 37.4 0 0 1 -9.93 -1.73l-0.2-0.05c-10.6-2.82-15.9-15.8-19.5-24.4a56.1 56.1 0 0 0 -2 -6.2 2.79 2.79 0 0 1 0 -3c2.23-3.91 12.8-7.61 21.8-7.61a22 22 0 0 1 4.83 0.48c6.31 1.44 9.86 5.11 13 8.36s5.61 5.81 9.89 5.81h0.22c6.66-0.14 11-5.51 15.1-10.7 1.28-1.59 2.6-3.23 4-4.68a11.3 11.3 0 0 1 8 -3.49 11.1 11.1 0 0 1 6.37 2c8.64 6 16.4 19.3 13 26.4-1.7 3.63-10.8 4.52-20.5 5.47-8.24 0.81-16.8 1.64-20.8 4.3-10 6.3-16 9-23 9z"/>
<path d="m271 0.23a11 11 0 0 1 6.31 2 36.8 36.8 0 0 1 11 12.8c2.81 5.37 3.55 10.3 2.05 13.5-1.67 3.57-11.2 4.5-20.4 5.41-8.25 0.81-16.8 1.65-20.8 4.32-9.65 6.35-16.4 9.06-22.6 9.06a37.3 37.3 0 0 1 -9.9 -1.73l-0.2-0.05c-10.5-2.8-15.9-15.7-19.4-24.3a56 56 0 0 0 -3 -6.4 2.68 2.68 0 0 1 0 -2.86c2.21-3.88 12.7-7.56 21.6-7.56a21.9 21.9 0 0 1 4.81 0.48c6.28 1.43 9.81 5.09 12.9 8.32s5.65 5.85 10 5.85h0.22c6.71-0.15 11-5.53 15.2-10.7 1.28-1.59 2.59-3.23 3.95-4.67a11.2 11.2 0 0 1 8 -3.37m0-0.23a11.4 11.4 0 0 0 -8.3 3.6c-5.74 6.12-10.4 15.2-19 15.3h-0.22c-8.68 0-10.5-11.4-22.9-14.2a22.2 22.2 0 0 0 -4.86 -0.48c-10.6 0-25 5.47-21.9 10.8 3.66 6.17 8.6 26.9 22.4 30.6a38.5 38.5 0 0 0 10.2 1.79c5.52 0 12-2.07 22.7-9.1 8.68-5.71 38.1-3 41.4-9.82 4-7.1-4-20.5-13-26.5a11.3 11.3 0 0 0 -6 -2z"/>
<path class="cls-6" d="m217 6.79c2.7-1.24 14 9.48 14.9 10.4 2.24 2.14 3.85 3.95 3.51 5.08a1.32 1.32 0 0 1 -1.51 0.87c-2.07-0.34-2.79-4.55-7.12-8.21-4.48-3.79-9.32-4-10.2-6.36a1.33 1.33 0 0 1 1 -1.81z"/>
<path class="cls-6" d="m241 40.6c-8 2.4-9 3.4-21 1.7a64.8 64.8 0 0 1 -7.65 -1.69c-1.76-0.48-1.91-0.59-1.9-0.64 0.08-0.34 6.22 0.76 14.6 0.66 3.81 0 5.72-0.07 7.55-0.56 3-0.8 4.77-2.1 6.43-1.47 1 0.4 3 1.6 2 2z"/>
<path class="cls-3" d="m203 35.1c-0.15-0.15 1-4.32 2.52-4.87a1.46 1.46 0 0 1 0.87 -0.05c1.25 0.32 1.91 2.45 1.09 4.47-0.74 1.84-2.81 2.87-3.09 2.57-2-1.7-1-1.1-2-2.1z"/>
<path class="cls-6" d="m206 32.7a6.72 6.72 0 0 0 -0.88 2"/>
<path class="cls-12" d="m272 2.6s11.3 7.17 11.8 16.3c0.39 6.47-2.75 7.82-5.46 10.5s-1.19-1 1.28-3.9c2-2.33 2.34-6.9 0.45-10.5s-7.88-9.89-8-10-3-2.51 0-2.4z"/>
<path class="cls-13" d="m82.3 67.5c-0.59 3.09 0.36 4.32 0.42 7.86 0.05 3.35-0.74 5.5-0.41 5.59s1.07-1.54 1.5-3c0.63-2.2 0.18-3.42-0.07-7.12-0.27-4 0-6.05-0.38-6.09s-0.9 1.5-1.1 2.8z"/>
<path class="cls-14" d="m161 103l-0.1 26.6s-0.46 8.91-10 8.91"/>
<path class="cls-14" d="m161 103l0.1 26.6s0.46 8.91 10 8.91"/>
<path class="cls-5" d="m130 107l44.6 11.8a39.8 39.8 0 0 0 4.16 -1.47l-49.4-13a10 10 0 0 0 0 2z"/>
<path class="cls-5" d="m133 112l31.8 8.41a51.5 51.5 0 0 0 5.37 -0.77l-39.5-10.4a15.5 15.5 0 0 0 3 3z"/>
<path class="cls-14" d="m158 120l-20.8-5.5c6 4 13 6 21 6z"/>
<path class="cls-5" d="m135 93.6l55 14.5a10.8 10.8 0 0 0 1 -2.79l-53-13.6a24.9 24.9 0 0 0 -3 2.2z"/>
<path class="cls-5" d="m161 86.1l22.6 6c-6-3.6-14-5.9-23-6z"/>
<path class="cls-5" d="m141 90l50.5 13.3s0-0.07 0-0.11a9.85 9.85 0 0 0 -0.44 -2.88l-45.6-12a38.1 38.1 0 0 0 -5 2z"/>
<path class="cls-5" d="m154 86.4a50.7 50.7 0 0 0 -5.6 0.9l40.8 10.8a14.7 14.7 0 0 0 -2.27 -3z"/>
<path class="cls-5" d="m131 97.7l55.4 14.6a17 17 0 0 0 2.34 -2.51l-55.6-14.7a15 15 0 0 0 -1 3.4z"/>
<path class="cls-5" d="m130 102l52 13.8a27.4 27.4 0 0 0 2.94 -1.8l-55-14.5a10.2 10.2 0 0 0 0 2.5z"/>
<line y1="139" x2="161" x1="161" y2="130" class="cls-14"/>
<path class="cls-3" d="m137 107a19.7 19.7 0 0 1 -8.41 -1.93c-7.27-3.41-9.6-8.57-10.3-12.3a16.5 16.5 0 0 1 0.22 -6.84l7.4 2.52a8.66 8.66 0 0 0 0.08 3.25c0.6 2.66 2.57 4.79 5.87 6.34a12 12 0 0 0 5.1 1.17c5.83 0 9.89-4.42 10.1-4.61a3.88 3.88 0 1 1 5.81 5.16 24 24 0 0 1 -6.85 5.05 20.2 20.2 0 0 1 -9 2z"/>
<path d="m119 86.7l6.15 2.09a9.27 9.27 0 0 0 0.16 2.93c0.65 2.88 2.75 5.17 6.25 6.81a12.6 12.6 0 0 0 5.39 1.24c6.19 0 10.4-4.65 10.6-4.85a3.2 3.2 0 1 1 5 4.4 23.2 23.2 0 0 1 -6.64 4.9 19.5 19.5 0 0 1 -8.7 2.12 19 19 0 0 1 -8.12 -1.87c-7-3.29-9.25-8.23-9.9-11.8a15.8 15.8 0 0 1 0 -5.82m-1-1.77a16.8 16.8 0 0 0 -0.44 7.84c0.71 3.89 3.13 9.27 10.7 12.8a20.4 20.4 0 0 0 8.7 2 20.9 20.9 0 0 0 8 -2 24.7 24.7 0 0 0 7.06 -5.21 4.57 4.57 0 0 0 -7 -5.8c0 0.06-4 4.39-9.55 4.39a11.2 11.2 0 0 1 -4.81 -1.11c-3.1-1.45-4.95-3.43-5.49-5.87a7.85 7.85 0 0 1 0.06 -3.62v0.06l-8.65-2.94z"/>
<path class="cls-6" d="m118 96.9s-6.75-6.21-0.37-11.6c4.75-4 8.61 1.21 10.3 4.15a3.34 3.34 0 0 1 -0.25 3.67c-2 1.8-5 4.2-10 3.8z"/>
<ellipse cy="67.1" cx="185" rx="3.03" class="cls-2" ry="1.93"/>
<line y1="57.7" x2="185" x1="185" y2="66.8" class="cls-6"/>
<ellipse cy="55.3" cx="185" rx="4.77" class="cls-15" ry="3.03"/>
<ellipse cy="51.7" cx="185" rx="4.77" class="cls-16" ry="3.03"/>
<line y1="57.6" x2="190" x1="190" y2="51.7" class="cls-2"/>
<ellipse cy="58" cx="185" rx="4.77" class="cls-17" ry="3.03"/>
<line y1="51.7" x2="180" x1="180" y2="57.6" class="cls-2"/>
<ellipse cy="100" cx="156" rx="3.03" class="cls-2" ry="1.93"/>
<line y1="90.6" x2="156" x1="156" y2="99.7" class="cls-6"/>
<ellipse cy="88.2" cx="156" rx="4.77" class="cls-15" ry="3.03"/>
<ellipse cy="84.6" cx="156" rx="4.77" class="cls-16" ry="3.03"/>
<line y1="90.5" x2="161" x1="161" y2="84.6" class="cls-2"/>
<ellipse cy="90.9" cx="156" rx="4.77" class="cls-17" ry="3.03"/>
<line y1="84.6" x2="152" x1="152" y2="90.5" class="cls-2"/>
<path class="cls-3" d="m201 75.6a20.2 20.2 0 0 1 -9 -2.2 24 24 0 0 1 -6.85 -5.05 3.88 3.88 0 0 1 5.81 -5.16s4.12 4.62 10.1 4.62a12 12 0 0 0 5.1 -1.17c3.3-1.55 5.28-3.68 5.87-6.34a8.63 8.63 0 0 0 0.08 -3.25l7.4-2.52a16.4 16.4 0 0 1 0.22 6.84c-0.68 3.73-3 8.89-10.3 12.3a19.7 19.7 0 0 1 -8.41 1.93z"/>
<path d="m219 55.4a16 16 0 0 1 0.05 5.82c-0.65 3.57-2.89 8.52-9.9 11.8a19 19 0 0 1 -8.12 1.87 19.5 19.5 0 0 1 -8.7 -2.12 23.2 23.2 0 0 1 -6.64 -4.9 3.2 3.2 0 1 1 4.78 -4.25c0.18 0.2 4.39 4.84 10.6 4.84a12.6 12.6 0 0 0 5.39 -1.24c3.5-1.64 5.6-3.93 6.25-6.81a9.27 9.27 0 0 0 0.16 -2.93l6.15-2.09m1-1.78l-8 3v-0.06a7.85 7.85 0 0 1 0.06 3.62c-0.55 2.44-2.4 4.42-5.49 5.87a11.2 11.2 0 0 1 -4.81 1.11c-5.57 0-9.5-4.33-9.55-4.39a4.57 4.57 0 1 0 -6.83 6.07 24.7 24.7 0 0 0 7 5.2 20.9 20.9 0 0 0 9.31 2.27 20.4 20.4 0 0 0 8.7 -2c7.53-3.53 10-8.91 10.7-12.8a16.8 16.8 0 0 0 -0.44 -7.84z"/>
<path class="cls-6" d="m210 58.5s-2.54-7.92 4.92-9.35c5.56-1.06 6.24 4.8 6.23 7.86a3 3 0 0 1 -1.84 2.78c-2 0.7-5 1.3-9-1.4z"/>
</g>
</g>
</svg>
