<svg xmlns="http://www.w3.org/2000/svg" viewBox="0 0 262.39 168.12"><defs><style>.cls-1{fill:#80d692;}.cls-11,.cls-2,.cls-3,.cls-4,.cls-9{fill:#fff;}.cls-10,.cls-11,.cls-12,.cls-2,.cls-3,.cls-7,.cls-8,.cls-9{stroke:#000;}.cls-10,.cls-13,.cls-14,.cls-15,.cls-16,.cls-2,.cls-6,.cls-7,.cls-9{stroke-linecap:round;}.cls-10,.cls-13,.cls-14,.cls-15,.cls-16,.cls-2,.cls-3,.cls-5,.cls-6,.cls-8{stroke-linejoin:round;}.cls-10,.cls-11,.cls-12,.cls-13,.cls-14,.cls-15,.cls-16,.cls-2,.cls-3,.cls-5,.cls-6,.cls-7,.cls-8,.cls-9{stroke-width:1.4px;}.cls-13,.cls-14,.cls-15,.cls-16,.cls-5,.cls-6,.cls-7{fill:none;}.cls-5{stroke:#80d692;}.cls-6{stroke:#efd496;}.cls-11,.cls-12,.cls-7,.cls-9{stroke-miterlimit:10;}.cls-13,.cls-14,.cls-15,.cls-16{stroke:#bde2ef;}.cls-14{stroke-dasharray:0 2.38;}.cls-15{stroke-dasharray:0 2.42;}.cls-16{stroke-dasharray:0 2.4;}.cls-17{font-size:21.7px;fill:#7fc987;font-family:HereJustNow-Out, Here Just Now;}</style></defs><title>dok-voortuin</title><g id="Layer_2" data-name="Layer 2"><g id="HOME"><path class="cls-1" d="M.07,130.37C3,109.73,98.2,107.23,157.14,114.3c1.75.21,38.83,5,81.09,25.57,13.71,6.68,25,12.26,24.11,16.8-1.47,8-38,2.55-100.09,5.6-65.9,3.24-87.86,12.44-123.47-2.19C34,158.11-1.78,143.41.07,130.37Z"/><rect class="cls-2" x="15.17" y="85.68" width="115.11" height="10.16"/><rect class="cls-2" x="15.17" y="105.71" width="115.11" height="10.16"/><path d="M22.31,17.84h5.33c.69,0,1.37,0,2.06,0s1.13.05,1.69.11a7.77,7.77,0,0,1,3,.88A6,6,0,0,1,36,20.28a7,7,0,0,1,1.39,2.95,11.24,11.24,0,0,1,.2,1.35,9.05,9.05,0,0,1,.07,1.17,12.43,12.43,0,0,1-.29,2.61,8.58,8.58,0,0,1-.77,2.12,6,6,0,0,1-1.87,2.14,6.41,6.41,0,0,1-2.64,1,8.74,8.74,0,0,1-1.4.12l-8.42,0ZM27.4,21.6v8.56c.87,0,1.72,0,2.57-.12a2.48,2.48,0,0,0,2-1.43,5.86,5.86,0,0,0,.63-2.7,6.93,6.93,0,0,0-.07-1,5.12,5.12,0,0,0-.63-2,2.14,2.14,0,0,0-1.4-1.11,7.4,7.4,0,0,0-1.25-.18C28.63,21.58,28,21.6,27.4,21.6Z"/><path d="M72.49,15.18a1.05,1.05,0,0,1,.1.36c0,.27.14.44.27.62a7.19,7.19,0,0,0,.44.59c.16.19,0,.38,0,.55-.27.83-.56,1.64-.84,2.46-.07.2-.12.41-.2.61a2.36,2.36,0,0,0-.14.79,1.35,1.35,0,0,0,.08.64.19.19,0,0,1,0,.18,3.17,3.17,0,0,1-.45.19s-.07,0-.1,0a.53.53,0,0,1-.05-.78.22.22,0,0,0,.09-.12c0-.21,0-.42,0-.63,0-.69.07-1.39.11-2.08,0-.35.05-.7.07-1.06a.93.93,0,0,0-.07-.25l-3.4,4.08c.21.15.13.26,0,.4a6.06,6.06,0,0,0-.4.47l-.27-.07c-.28.34-.55.68-.84,1s-.4.42-.59.64a.15.15,0,0,0,0,.14L68.11,27l1.48,2.46,1.64,2.72,1,1.62H66.68a.29.29,0,0,1-.3-.16l-.61-1.11-1.53-2.77-.87-1.6L63,27.45l-.86,1-.41.46c-.3.33-.61.65-.91,1a.55.55,0,0,0-.13.33c0,1.18,0,2.37,0,3.56H55.6V17.85h5v5.79l.49-.55.06-.07a.33.33,0,0,1,.46-.12c.28.12.57.21.86.31a.2.2,0,0,0,.24,0c.2-.21.44-.39.63-.61s.58-.68.86-1l.21-.24a1.22,1.22,0,0,0,.29-.65c0-.09.11-.16.08-.28a.43.43,0,0,1,0-.16s0-.08,0-.11l.24-.22.13.19.5-.39c.06,0,.13-.08.18-.12s.18-.08.13-.22.07-.1.12-.13l2.73-1.93,2.52-1.79s.06-.06.1-.06a3.23,3.23,0,0,0,.86-.25Zm-1.55,2.39,0,0-4.59,2.81.28.53-.17.09c.08.13.05.22-.09.25l.08.16-.13,0c0,.06,0,.14,0,.14l-.34,0s0,.1,0,.16c-.06.22-.27.41-.13.68s.14.26.37.12c-.1-.16-.09-.23,0-.37l.58-.65a.78.78,0,0,1,.22-.19c.06,0,.06-.06.08-.1.16-.23.35-.44.54-.65,0,0,.1,0,.14,0l.29.13ZM73.26,17h-.67c-.12,0-.18,0-.09.16s0,.12,0,.18,0,.07-.05.1c-.05.53-.1,1.07-.15,1.6,0,.2-.05.4-.07.6s0,.42,0,.62h0Zm-.69-1.11-.1,1h.78Z"/><path d="M46.59,17.28a9.69,9.69,0,0,1,3.57.59,7.21,7.21,0,0,1,2.14,1.24,7.52,7.52,0,0,1,1.79,2.22,8,8,0,0,1,.86,2.52c.06.39.11.79.15,1.19a7.18,7.18,0,0,1,0,1,10.62,10.62,0,0,1-.37,2.38,8.55,8.55,0,0,1-1.24,2.63,7.4,7.4,0,0,1-2.35,2.15A7.57,7.57,0,0,1,49,34a11.87,11.87,0,0,1-1.36.22,11.13,11.13,0,0,1-1.43.07,9.09,9.09,0,0,1-4.32-1.07A6.93,6.93,0,0,1,40,31.68,7.77,7.77,0,0,1,38.92,30a9,9,0,0,1-.76-2.46A10.24,10.24,0,0,1,38,25.41a8.57,8.57,0,0,1,.37-2.3A14.91,14.91,0,0,1,39,21.5a6.93,6.93,0,0,1,1.08-1.59A7.27,7.27,0,0,1,42.69,18a7.36,7.36,0,0,1,2.05-.6C45.36,17.35,46.59,17.26,46.59,17.28ZM50,25.64c0-.2,0-.41-.05-.61a4.58,4.58,0,0,0-.34-1.65,3.11,3.11,0,0,0-2.36-2,3.38,3.38,0,0,0-2.08.21,3.5,3.5,0,0,0-1.94,2.59,7.57,7.57,0,0,0-.16,1.91,6,6,0,0,0,.38,2.13,3.11,3.11,0,0,0,.9,1.31,3.41,3.41,0,0,0,2.85.65,3.06,3.06,0,0,0,2.32-2A6.91,6.91,0,0,0,50,25.64Z"/><polygon class="cls-2" points="32.38 78.89 32.38 139 20.53 139 20.53 78.89 26.47 70.54 32.38 78.89"/><polygon class="cls-2" points="47.62 78.89 47.62 139 35.77 139 35.77 78.89 41.7 70.54 47.62 78.89"/><polygon class="cls-2" points="62.85 78.89 62.85 139 51 139 51 78.89 56.94 70.54 62.85 78.89"/><polygon class="cls-2" points="78.09 78.89 78.09 139 66.24 139 66.24 78.89 72.17 70.54 78.09 78.89"/><polygon class="cls-2" points="93.32 78.89 93.32 139 81.47 139 81.47 78.89 87.41 70.54 93.32 78.89"/><polygon class="cls-2" points="108.84 78.89 108.84 139 96.99 139 96.99 78.89 102.93 70.54 108.84 78.89"/><polygon class="cls-2" points="123.8 78.89 123.8 139 111.94 139 111.94 78.89 117.88 70.54 123.8 78.89"/><path class="cls-3" d="M85.2,86.75v9c0,.88,0,1.75-.07,2.63-.08,1.32,0,4.07,2,4.94,1.71.76,11.06,3.57,12.77,2.9,2.61-1,3-3.19,1.89-4.06A56.45,56.45,0,0,0,95.1,99a1,1,0,0,1-.61-.91V86.75"/><path class="cls-3" d="M85.2,86.41v9c0,.88,0,1.75-.07,2.63-.08,1.32,0,4.07,2,4.94,2.61,1.16,10.16,3.92,12.77,2.9s3-3.19,1.89-4.06a56.45,56.45,0,0,0-6.65-3.09,1,1,0,0,1-.61-.91V86.41"/><path class="cls-4" d="M89.8,87.5c-2.83,0-4.43-.62-4.76-1,.34-.33,1.93-1,4.76-1s4.42.62,4.76,1C94.22,86.88,92.63,87.5,89.8,87.5Z"/><path d="M89.8,86.3a14.38,14.38,0,0,1,2.78.25,15.56,15.56,0,0,1-5.57,0,14.38,14.38,0,0,1,2.78-.25m0-1.4c-3,0-5.5.74-5.5,1.65s2.46,1.65,5.5,1.65,5.5-.74,5.5-1.65-2.46-1.65-5.5-1.65Z"/><path class="cls-3" d="M115.67,92.67v9c0,.88,0,1.75-.07,2.63-.08,1.32,0,4.07,2,4.94,1.71.76,11.06,3.57,12.77,2.9,2.61-1,3-3.19,1.89-4.06a56.45,56.45,0,0,0-6.65-3.09,1,1,0,0,1-.61-.91V92.67"/><path class="cls-3" d="M115.67,92.34v9c0,.88,0,1.75-.07,2.63-.08,1.32,0,4.07,2,4.94,2.61,1.16,10.16,3.92,12.77,2.9s3-3.19,1.89-4.06a56.45,56.45,0,0,0-6.65-3.09,1,1,0,0,1-.61-.91V92.34"/><path class="cls-4" d="M120.27,93.42c-2.83,0-4.43-.62-4.76-1,.34-.33,1.93-.95,4.76-.95s4.42.62,4.76.95C124.69,92.8,123.1,93.42,120.27,93.42Z"/><path d="M120.27,92.22a14.39,14.39,0,0,1,2.78.25,15.55,15.55,0,0,1-5.57,0,14.39,14.39,0,0,1,2.78-.25m0-1.4c-3,0-5.5.74-5.5,1.65s2.46,1.65,5.5,1.65,5.5-.74,5.5-1.65-2.46-1.65-5.5-1.65Z"/><path class="cls-3" d="M70,96.06v9c0,.88,0,1.75-.07,2.63-.08,1.32,0,4.07,2,4.94,1.71.76,11.06,3.57,12.77,2.9,2.61-1,3-3.19,1.89-4.06a56.45,56.45,0,0,0-6.65-3.09,1,1,0,0,1-.61-.91V96.06"/><path class="cls-3" d="M70,95.72v9c0,.88,0,1.75-.07,2.63-.08,1.32,0,4.07,2,4.94,2.61,1.16,10.16,3.92,12.77,2.9s3-3.19,1.89-4.06A56.45,56.45,0,0,0,79.86,108a1,1,0,0,1-.61-.91V95.72"/><path class="cls-4" d="M74.56,96.81c-2.83,0-4.43-.62-4.76-1,.34-.33,1.93-1,4.76-1s4.42.62,4.76,1C79,96.19,77.39,96.81,74.56,96.81Z"/><path d="M74.56,95.61a14.39,14.39,0,0,1,2.78.25,15.55,15.55,0,0,1-5.57,0,14.39,14.39,0,0,1,2.78-.25m0-1.4c-3,0-5.5.74-5.5,1.65s2.46,1.65,5.5,1.65,5.5-.74,5.5-1.65-2.46-1.65-5.5-1.65Z"/><path class="cls-3" d="M39.21,83.64v9c0,.88,0,1.75-.07,2.63-.08,1.32,0,4.07,2,4.94,1.71.76,11.06,3.57,12.77,2.9,2.61-1,3-3.19,1.89-4.06a56.45,56.45,0,0,0-6.65-3.09A1,1,0,0,1,48.5,95V83.64"/><path class="cls-3" d="M39.21,83.31v9c0,.88,0,1.75-.07,2.63-.08,1.32,0,4.07,2,4.94,2.61,1.16,10.16,3.92,12.77,2.9s3-3.19,1.89-4.06a56.45,56.45,0,0,0-6.65-3.09,1,1,0,0,1-.61-.91V83.31"/><path class="cls-4" d="M43.81,84.4c-2.83,0-4.43-.62-4.76-1,.34-.33,1.93-1,4.76-1s4.42.62,4.76,1C48.23,83.77,46.64,84.4,43.81,84.4Z"/><path d="M43.81,83.19a14.38,14.38,0,0,1,2.78.25,15.56,15.56,0,0,1-5.57,0,14.38,14.38,0,0,1,2.78-.25m0-1.4c-3,0-5.5.74-5.5,1.65s2.46,1.65,5.5,1.65,5.5-.74,5.5-1.65-2.46-1.65-5.5-1.65Z"/><path class="cls-5" d="M44.42,83.71s-.85-15,4.8-15"/><path class="cls-5" d="M75.12,96.13s.85-15-4.8-15"/><path class="cls-5" d="M75.72,85.57s1.42-1.86,2-.73S75.72,85.57,75.72,85.57Z"/><path class="cls-5" d="M89.83,79.65s1.42-1.86,2-.73S89.83,79.65,89.83,79.65Z"/><path class="cls-5" d="M118.23,84.43s-1.42-1.86-2-.73S118.23,84.43,118.23,84.43Z"/><path class="cls-5" d="M45.81,76.83s1.42-1.86,2-.73S45.81,76.83,45.81,76.83Z"/><path class="cls-5" d="M43.67,76.51s-2.34.08-1.82-1.08S43.67,76.51,43.67,76.51Z"/><line class="cls-6" x1="46.61" y1="63.79" x2="51.75" y2="69.67"/><line class="cls-6" x1="52.12" y1="64.16" x2="46.25" y2="69.3"/><line class="cls-6" x1="49.44" y1="62.84" x2="48.92" y2="70.63"/><line class="cls-6" x1="53.44" y1="66.99" x2="45.66" y2="66.47"/><line class="cls-6" x1="67.21" y1="77.05" x2="72.35" y2="82.93"/><line class="cls-6" x1="72.72" y1="77.42" x2="66.84" y2="82.56"/><line class="cls-6" x1="70.04" y1="76.1" x2="69.52" y2="83.89"/><line class="cls-6" x1="74.04" y1="80.25" x2="66.25" y2="79.73"/><path class="cls-5" d="M88.12,86.9s1.16-6.34,0-9.16a26.27,26.27,0,0,0-4.23-6.21"/><path class="cls-5" d="M93.23,68.76s-5.16,5-4.84,9.55"/><path class="cls-5" d="M119.78,92.82c0-.49-1.7-7.06,0-10.47l1.7-3.41"/><path class="cls-7" d="M158.25,78.42a9.74,9.74,0,1,1,17.92-7.16"/><path class="cls-8" d="M211.14,127.88v8.59c0,.84,0,1.68.07,2.51.08,1.26,0,3.89-1.88,4.73-1.64.73-10.59,3.41-12.22,2.78-2.5-1-2.92-3.06-1.81-3.89a54,54,0,0,1,6.36-3,1,1,0,0,0,.59-.87V127.88"/><path class="cls-8" d="M211.14,127.56v8.59c0,.84,0,1.68.07,2.51.08,1.26,0,3.89-1.88,4.73-2.5,1.11-9.72,3.75-12.22,2.78s-2.92-3.06-1.81-3.89a54,54,0,0,1,6.36-3,1,1,0,0,0,.59-.87V127.56"/><path d="M206.73,128.57c-2.63,0-4.15-.57-4.51-.88.36-.31,1.89-.88,4.51-.88s4.15.57,4.51.88C210.88,128,209.36,128.57,206.73,128.57Z"/><path d="M206.73,127.51a14.24,14.24,0,0,1,2.33.18,15.13,15.13,0,0,1-4.65,0,14.24,14.24,0,0,1,2.33-.18m0-1.4c-2.91,0-5.26.71-5.26,1.58s2.36,1.58,5.26,1.58,5.26-.71,5.26-1.58-2.36-1.58-5.26-1.58Z"/><path class="cls-8" d="M223.56,127.88v8.59c0,.84,0,1.68.07,2.51.08,1.26,0,3.89-1.88,4.73-1.64.73-10.59,3.41-12.22,2.78-2.5-1-2.92-3.06-1.81-3.89a54,54,0,0,1,6.36-3,1,1,0,0,0,.59-.87V127.88"/><path class="cls-8" d="M223.56,127.56v8.59c0,.84,0,1.68.07,2.51.08,1.26,0,3.89-1.88,4.73-2.5,1.11-9.72,3.75-12.22,2.78s-2.92-3.06-1.81-3.89a54,54,0,0,1,6.36-3,1,1,0,0,0,.59-.87V127.56"/><path d="M219.15,128.57c-2.63,0-4.15-.57-4.51-.88.36-.31,1.89-.88,4.51-.88s4.15.57,4.51.88C223.3,128,221.78,128.57,219.15,128.57Z"/><path d="M219.15,127.51a14.24,14.24,0,0,1,2.33.18,15.13,15.13,0,0,1-4.65,0,14.25,14.25,0,0,1,2.33-.18m0-1.4c-2.91,0-5.26.71-5.26,1.58s2.36,1.58,5.26,1.58,5.26-.71,5.26-1.58-2.36-1.58-5.26-1.58Z"/><rect class="cls-9" x="203.96" y="90.8" width="5.6" height="37.26"/><rect class="cls-9" x="216.38" y="90.8" width="5.6" height="37.26"/><path d="M206.64,99.55a.35.35,0,0,0,0-.7.35.35,0,0,0,0,.7Z"/><path d="M207.25,107.71a.35.35,0,0,0,0-.7.35.35,0,0,0,0,.7Z"/><path d="M207.49,103.94a.35.35,0,0,0,0-.7.35.35,0,0,0,0,.7Z"/><path d="M206,114.41a.35.35,0,0,0,0-.7.35.35,0,0,0,0,.7Z"/><path d="M208.35,117.57a.35.35,0,0,0,0-.7.35.35,0,0,0,0,.7Z"/><path d="M206.15,122a.35.35,0,0,0,0-.7.35.35,0,0,0,0,.7Z"/><path d="M208,126.1a.35.35,0,0,0,0-.7.35.35,0,0,0,0,.7Z"/><path d="M208,111.49a.35.35,0,0,0,0-.7.35.35,0,0,0,0,.7Z"/><path d="M217.72,103.08a.35.35,0,0,0,0-.7.35.35,0,0,0,0,.7Z"/><path d="M221.74,106.62a.35.35,0,0,0,0-.7.35.35,0,0,0,0,.7Z"/><path d="M220.77,106.74a.35.35,0,0,0,0-.7.35.35,0,0,0,0,.7Z"/><path d="M218.7,113.31a.35.35,0,0,0,0-.7.35.35,0,0,0,0,.7Z"/><path d="M220.28,100.77a.35.35,0,0,0,0-.7.35.35,0,0,0,0,.7Z"/><path d="M218.94,109.66a.35.35,0,0,0,0-.7.35.35,0,0,0,0,.7Z"/><path d="M221,116.72a.35.35,0,0,0,0-.7.35.35,0,0,0,0,.7Z"/><path d="M218.7,121.47a.35.35,0,0,0,0-.7.35.35,0,0,0,0,.7Z"/><path d="M220,124.39a.35.35,0,0,0,0-.7.35.35,0,0,0,0,.7Z"/><path d="M218.82,117.21a.35.35,0,0,0,0-.7.35.35,0,0,0,0,.7Z"/><path d="M219.06,97.12a.35.35,0,0,0,0-.7.35.35,0,0,0,0,.7Z"/><path d="M208.47,96a.35.35,0,0,0,0-.7.35.35,0,0,0,0,.7Z"/><path d="M206.15,95.9a.35.35,0,0,0,0-.7.35.35,0,0,0,0,.7Z"/><path d="M205.3,109.9a.35.35,0,0,0,0-.7.35.35,0,0,0,0,.7Z"/><path d="M218.21,106.37a.35.35,0,0,0,0-.7.35.35,0,0,0,0,.7Z"/><path d="M219.79,103.57a.35.35,0,0,0,0-.7.35.35,0,0,0,0,.7Z"/><path d="M220.52,120.62a.35.35,0,0,0,0-.7.35.35,0,0,0,0,.7Z"/><path d="M205.79,103.82a.35.35,0,0,0,0-.7.35.35,0,0,0,0,.7Z"/><path d="M206,118.79a.35.35,0,0,0,0-.7.35.35,0,0,0,0,.7Z"/><path d="M208.35,122.08a.35.35,0,0,0,0-.7.35.35,0,0,0,0,.7Z"/><path d="M205.55,125.25a.35.35,0,0,0,0-.7.35.35,0,0,0,0,.7Z"/><path d="M218.09,126.34a.35.35,0,0,0,0-.7.35.35,0,0,0,0,.7Z"/><path d="M220.28,127.31a.35.35,0,0,0,0-.7.35.35,0,0,0,0,.7Z"/><path d="M217.36,99.07a.35.35,0,0,0,0-.7.35.35,0,0,0,0,.7Z"/><path d="M220.16,112.46a.35.35,0,0,0,0-.7.35.35,0,0,0,0,.7Z"/><path d="M220.52,95.29a.35.35,0,0,0,0-.7.35.35,0,0,0,0,.7Z"/><path d="M208.1,101.38a.35.35,0,0,0,0-.7.35.35,0,0,0,0,.7Z"/><path d="M204.94,97.85a.35.35,0,0,0,0-.7.35.35,0,0,0,0,.7Z"/><path d="M208.1,114.9a.35.35,0,0,0,0-.7.35.35,0,0,0,0,.7Z"/><path d="M220.77,110a.35.35,0,0,0,0-.7.35.35,0,0,0,0,.7Z"/><path d="M205.06,106.74a.35.35,0,0,0,0-.7.35.35,0,0,0,0,.7Z"/><path class="cls-10" d="M180.11,87.91l-13.65,5.22a2.93,2.93,0,0,1-3.77-1.69l-2.77-7.25-12.57-2.72a1.46,1.46,0,0,1,.31-2.89,1.48,1.48,0,0,1,.31,0l10.71,2.32-.24-.64a2.93,2.93,0,0,1,1.69-3.77l13.65-5.22A2.93,2.93,0,0,1,177.54,73l4.26,11.15A2.93,2.93,0,0,1,180.11,87.91Z"/><rect class="cls-2" x="214.19" y="86.91" width="10.47" height="14.12"/><rect class="cls-2" x="200.8" y="86.91" width="10.47" height="14.12"/><path class="cls-2" d="M194,89.34s20,11.2,47.24-2.92L227.91,46.68A15.78,15.78,0,0,0,213,35.83h-.47a10.76,10.76,0,0,0-10.14,8.82Z"/><path class="cls-11" d="M182.43,30C186.88,17,189.11,10.56,194,8.19a14.25,14.25,0,0,1,8.91-1.46c9.5,1.83,17.41,15.51,13.44,26.45-2.55,7-10.18,13.36-15.78,12.13-5.76-1.27-9.62-10.58-15.34-9.94-.67.08-2.11.37-2.92-.44C181.14,33.79,182,31.22,182.43,30Z"/><path class="cls-12" d="M184.72,9.79c-.7,4.33,2.92,9.36,7.31,10.53,5,1.33,9.55-2.77,11.45-1.1,1.67,1.47-1.68,4.79-.24,8.12,1.77,4.11,10.18,6.71,15.1,4.39,6.55-3.1,7.37-15.18,1.7-22.81-4.56-6.14-12.86-8.77-20-8.12C195.56,1.21,185.74,3.47,184.72,9.79Z"/><path class="cls-7" d="M188.87,25.31s3.95,2.85,7.31,0"/><path class="cls-4" d="M204.71,30.13c-.16-.15,1-4.6,2.69-5.19a1.55,1.55,0,0,1,.92-.06c1.34.35,2,2.62,1.16,4.76-.79,2-3,3.06-3.29,2.74C204.45,30.51,205.77,31.16,204.71,30.13Z"/><path class="cls-7" d="M194.34,41.06a9.52,9.52,0,0,0,4.24-2.81c.19-.2.37-.4.53-.6"/><path class="cls-9" d="M207.78,27.56a7.17,7.17,0,0,0-.94,2.1"/><path d="M199,42.63a.35.35,0,0,0,0-.7.35.35,0,0,0,0,.7Z"/><path d="M200.74,39.28a.35.35,0,0,0,0-.7.35.35,0,0,0,0,.7Z"/><path d="M202.26,38.37a.35.35,0,0,0,0-.7.35.35,0,0,0,0,.7Z"/><path d="M201.28,42.93a.35.35,0,0,0,0-.7.35.35,0,0,0,0,.7Z"/><path d="M202.26,41a.35.35,0,0,0,0-.7.35.35,0,0,0,0,.7Z"/><path d="M200.37,41.35a.35.35,0,0,0,0-.7.35.35,0,0,0,0,.7Z"/><path d="M203.66,42.81a.35.35,0,0,0,0-.7.35.35,0,0,0,0,.7Z"/><path d="M204,38.67a.35.35,0,0,0,0-.7.35.35,0,0,0,0,.7Z"/><path d="M204.08,40.32a.35.35,0,0,0,0-.7.35.35,0,0,0,0,.7Z"/><path d="M206.4,41.53a.35.35,0,0,0,0-.7.35.35,0,0,0,0,.7Z"/><path d="M205.73,40.32a.35.35,0,0,0,0-.7.35.35,0,0,0,0,.7Z"/><path d="M203.48,34.72a.35.35,0,0,0,0-.7.35.35,0,0,0,0,.7Z"/><path d="M205.91,31.92a.35.35,0,0,0,0-.7.35.35,0,0,0,0,.7Z"/><path d="M203.78,36.42a.35.35,0,0,0,0-.7.35.35,0,0,0,0,.7Z"/><path d="M205.36,36.79a.35.35,0,0,0,0-.7.35.35,0,0,0,0,.7Z"/><path d="M206.4,38.37a.35.35,0,0,0,0-.7.35.35,0,0,0,0,.7Z"/><path d="M206.58,36.36a.35.35,0,0,0,0-.7.35.35,0,0,0,0,.7Z"/><path d="M207.37,33.07a.35.35,0,0,0,0-.7.35.35,0,0,0,0,.7Z"/><path d="M205.42,43.12a.35.35,0,0,0,0-.7.35.35,0,0,0,0,.7Z"/><path d="M202.5,44.15a.35.35,0,0,0,0-.7.35.35,0,0,0,0,.7Z"/><path d="M201.28,37a.35.35,0,0,0,0-.7.35.35,0,0,0,0,.7Z"/><path d="M201.71,35.39a.35.35,0,0,0,0-.7.35.35,0,0,0,0,.7Z"/><path d="M205.42,34.17a.35.35,0,0,0,0-.7.35.35,0,0,0,0,.7Z"/><path class="cls-4" d="M219.84,15.73c-.31,0-1.47-1.93-2.6-3.78-.67-1.1-1-1.75-1.27-2.19a4.15,4.15,0,0,0-.81-1.17A4.76,4.76,0,0,0,213,7.34a7.79,7.79,0,0,1-2.36-1.14c-1.4-1-2.71-2.45-2.58-2.72,0,0,.12-.09.41-.09,1.91,0,8,2.38,10.39,7.73C219.79,13.27,220,15.53,219.84,15.73Z"/><path d="M208.43,3.5h0c1.89,0,7.92,2.36,10.29,7.66a11.72,11.72,0,0,1,1.08,4.42,25.52,25.52,0,0,1-2.46-3.68c-.67-1.1-1-1.75-1.27-2.18a4.2,4.2,0,0,0-.83-1.2A4.91,4.91,0,0,0,213,7.23a7.68,7.68,0,0,1-2.32-1.13,8.77,8.77,0,0,1-2.56-2.55.6.6,0,0,1,.32,0m0-.23c-.28,0-.46.05-.51.16-.2.41,1.36,2,2.62,2.86,2.09,1.49,3.05.91,4.54,2.39.63.63.49.77,2.06,3.34,1.33,2.17,2.34,3.83,2.7,3.83h0c.35-.19,0-2.71-1-4.77-2.44-5.45-8.65-7.8-10.5-7.8Z"/><path class="cls-11" d="M168.25,65.54a4.17,4.17,0,0,1-3.53-6.38c9.42-15,22.36-17.59,31.55-17.08a45.24,45.24,0,0,1,17.44,4.7,4.17,4.17,0,0,1-4,7.33h0a37.28,37.28,0,0,0-14.2-3.72c-10-.47-18,4-23.77,13.2A4.16,4.16,0,0,1,168.25,65.54Z"/><path class="cls-10" d="M144.57,75.12a4,4,0,1,1-1.87,7.75"/><ellipse class="cls-2" cx="143.52" cy="78.92" rx="3.99" ry="0.57" transform="translate(33.08 199.87) rotate(-76.41)"/><path class="cls-4" d="M144.11,77.16a.35.35,0,0,0,0-.7.35.35,0,0,0,0,.7Z"/><path class="cls-4" d="M143.9,78.25a.35.35,0,0,0,0-.7.35.35,0,0,0,0,.7Z"/><path class="cls-4" d="M143.28,80.55a.35.35,0,0,0,0-.7.35.35,0,0,0,0,.7Z"/><path class="cls-4" d="M143.08,81.9a.35.35,0,0,0,0-.7.35.35,0,0,0,0,.7Z"/><path class="cls-4" d="M143.56,79.38a.35.35,0,0,0,0-.7.35.35,0,0,0,0,.7Z"/><path class="cls-4" d="M180.59,84.51c.5,3.51-7.85,5.3-8,4.9,0-.06,5.49-1.7,6.28-4.31.63-2.09-1.26-4.87-1.15-6a.38.38,0,0,1,.61-.27C179.38,79.61,180.59,83.3,180.59,84.51Z"/><path d="M202.42,71.39c-.38-.32-1.6-1.59-3.95-4.24a.88.88,0,0,1-.2-.75L199.82,59a.87.87,0,0,1,.85-.69.85.85,0,0,1,.26,0,19.48,19.48,0,0,0,5.82.83q.58,0,1.2,0h0a.89.89,0,0,1,.7.3.85.85,0,0,1,.2.69l-1.14,8.11a.86.86,0,0,1-.42.63A30.25,30.25,0,0,1,202.42,71.39Z"/><path d="M200.66,59h.05a20.16,20.16,0,0,0,6,.86c.4,0,.81,0,1.25,0a.17.17,0,0,1,.13.06.16.16,0,0,1,0,.13L207,68.11a.17.17,0,0,1-.08.12,42.45,42.45,0,0,1-4.36,2.35c-.53-.52-1.64-1.68-3.59-3.9a.17.17,0,0,1,0-.14l1.54-7.42a.17.17,0,0,1,.16-.14m0-1.4a1.57,1.57,0,0,0-1.53,1.25l-1.54,7.42a1.56,1.56,0,0,0,.36,1.35,48.07,48.07,0,0,0,4.27,4.49l.1,0c.73,0,3.94-1.85,5.34-2.67a1.56,1.56,0,0,0,.75-1.13l1.14-8.11A1.57,1.57,0,0,0,208,58.42h-.08l-1.17,0a18.69,18.69,0,0,1-5.61-.79,1.57,1.57,0,0,0-.47-.07Z"/><line class="cls-6" x1="80.47" y1="67.46" x2="85.61" y2="73.34"/><line class="cls-6" x1="85.98" y1="67.83" x2="80.1" y2="72.97"/><line class="cls-6" x1="83.3" y1="66.5" x2="82.78" y2="74.29"/><line class="cls-6" x1="87.3" y1="70.66" x2="79.51" y2="70.14"/><line class="cls-6" x1="92.32" y1="64.36" x2="97.46" y2="70.23"/><line class="cls-6" x1="97.83" y1="64.73" x2="91.95" y2="69.87"/><line class="cls-6" x1="95.15" y1="63.4" x2="94.63" y2="71.19"/><line class="cls-6" x1="99.15" y1="67.55" x2="91.36" y2="67.04"/><line class="cls-6" x1="119.48" y1="75.4" x2="123.92" y2="80.47"/><polyline class="cls-6" points="124.24 75.71 122.7 77.06 119.17 80.15"/><polyline class="cls-6" points="121.92 74.57 121.65 78.72 121.48 81.29"/><line class="cls-6" x1="125.38" y1="78.16" x2="118.66" y2="77.71"/><line class="cls-13" x1="141.57" y1="75.39" x2="141.57" y2="75.39"/><path class="cls-14" d="M139.51,74.2a20.52,20.52,0,0,0-7-2.46c-9.5-.9-15.24,10.81-15.36,19"/><line class="cls-13" x1="117.22" y1="91.95" x2="117.22" y2="91.95"/><line class="cls-13" x1="140.32" y1="81.13" x2="140.32" y2="81.13"/><path class="cls-15" d="M138.81,79.25A10.19,10.19,0,0,0,134.47,77c-7.91-2.22-11.81,9-12.43,13.35"/><line class="cls-13" x1="121.95" y1="91.59" x2="121.95" y2="91.59"/><line class="cls-13" x1="141.06" y1="78.13" x2="141.06" y2="78.13"/><path class="cls-16" d="M139.08,76.79a18.13,18.13,0,0,0-6-2.67C124,72.74,120.16,85.8,119.6,90.39"/><line class="cls-13" x1="119.53" y1="91.59" x2="119.53" y2="91.59"/><text class="cls-17" transform="translate(20.66 54.4)">VOORTUIN</text></g></g></svg>