<?xml version="1.0" encoding="UTF-8" standalone="no"?>
<svg xmlns="http://www.w3.org/2000/svg" viewBox="0 0 262.39 168.12">
<defs>
<style>.cls-1{fill:#80d692;}.cls-11,.cls-2,.cls-3,.cls-4,.cls-9{fill:#fff;}.cls-10,.cls-11,.cls-12,.cls-2,.cls-3,.cls-7,.cls-8,.cls-9{stroke:#000;}.cls-10,.cls-13,.cls-14,.cls-15,.cls-16,.cls-2,.cls-6,.cls-7,.cls-9{stroke-linecap:round;}.cls-10,.cls-13,.cls-14,.cls-15,.cls-16,.cls-2,.cls-3,.cls-5,.cls-6,.cls-8{stroke-linejoin:round;}.cls-10,.cls-11,.cls-12,.cls-13,.cls-14,.cls-15,.cls-16,.cls-2,.cls-3,.cls-5,.cls-6,.cls-7,.cls-8,.cls-9{stroke-width:1.4px;}.cls-13,.cls-14,.cls-15,.cls-16,.cls-5,.cls-6,.cls-7{fill:none;}.cls-5{stroke:#80d692;}.cls-6{stroke:#efd496;}.cls-11,.cls-12,.cls-7,.cls-9{stroke-miterlimit:10;}.cls-13,.cls-14,.cls-15,.cls-16{stroke:#bde2ef;}.cls-14{stroke-dasharray:0 2.38;}.cls-15{stroke-dasharray:0 2.42;}.cls-16{stroke-dasharray:0 2.4;}.cls-17{font-size:21.7px;fill:#7fc987;font-family:HereJustNow-Out, Here Just Now;}</style>
</defs>
<title>dok-voortuin</title>
<g data-name="Layer 2">
<g id="HOME">
<path class="cls-1" d="m0.07 130c2.93-20 98.1-23 157-16 1.75 0.21 38.8 5 81.1 25.6 13.7 6.68 25 12.3 24.1 16.8-1.47 8-38 2.55-100 5.6-65.9 3.24-87.9 12.4-123-2.19-5-2-40.8-17-38.9-30z"/>
<rect y="85.7" x="15.2" height="10.2" class="cls-2" width="115"/>
<rect y="106" x="15.2" height="10.2" class="cls-2" width="115"/>
<path d="m22.3 17.8h5.33 2.06s1.13 0.05 1.69 0.11a7.77 7.77 0 0 1 3 0.88 6 6 0 0 1 1.6 1.5 7 7 0 0 1 1.39 2.95 11.2 11.2 0 0 1 0.2 1.35 9.05 9.05 0 0 1 0.07 1.17 12.4 12.4 0 0 1 -0.29 2.61 8.58 8.58 0 0 1 -0.77 2.12 6 6 0 0 1 -1.87 2.14 6.41 6.41 0 0 1 -2.64 1 8.74 8.74 0 0 1 -1.4 0.12h-8.42zm5.1 3.8v8.56c0.87 0 1.72 0 2.57-0.12a2.48 2.48 0 0 0 2 -1.43 5.86 5.86 0 0 0 0.63 -2.7 6.93 6.93 0 0 0 -0.07 -1 5.12 5.12 0 0 0 -0.63 -2 2.14 2.14 0 0 0 -1.4 -1.11 7.4 7.4 0 0 0 -1.25 -0.18c-0.7-0.1-1.3-0.1-1.9-0.1z"/>
<path d="m72.5 15.2a1.05 1.05 0 0 1 0.1 0.36c0 0.27 0.14 0.44 0.27 0.62a7.19 7.19 0 0 0 0.44 0.59c0.16 0.19 0 0.38 0 0.55-0.27 0.83-0.56 1.64-0.84 2.46-0.07 0.2-0.12 0.41-0.2 0.61a2.36 2.36 0 0 0 -0.14 0.79 1.35 1.35 0 0 0 0.08 0.64 0.19 0.19 0 0 1 0 0.18 3.17 3.17 0 0 1 -0.45 0.19s-0.07 0-0.1 0a0.53 0.53 0 0 1 -0.05 -0.78 0.22 0.22 0 0 0 0.09 -0.12v-0.63c0-0.69 0.07-1.39 0.11-2.08 0-0.35 0.05-0.7 0.07-1.06a0.93 0.93 0 0 0 -0.07 -0.25l-3.4 4.08c0.21 0.15 0.13 0.26 0 0.4a6.06 6.06 0 0 0 -0.4 0.47l-0.27-0.07c-0.28 0.34-0.55 0.68-0.84 1s-0.4 0.42-0.59 0.64a0.15 0.15 0 0 0 0 0.14l1.8 3.2 1.48 2.46 1.64 2.72 1 1.62h-5.5a0.29 0.29 0 0 1 -0.3 -0.16l-0.61-1.11-1.53-2.77-0.87-1.6-0.4-0.7-0.86 1-0.41 0.46c-0.3 0.33-0.61 0.65-0.91 1a0.55 0.55 0 0 0 -0.13 0.33v3.56h-5.1v-16h5v5.79l0.49-0.55 0.06-0.07a0.33 0.33 0 0 1 0.46 -0.12c0.28 0.12 0.57 0.21 0.86 0.31a0.2 0.2 0 0 0 0.24 0c0.2-0.21 0.44-0.39 0.63-0.61s0.58-0.68 0.86-1l0.21-0.24a1.22 1.22 0 0 0 0.29 -0.65c0-0.09 0.11-0.16 0.08-0.28a0.43 0.43 0 0 1 0 -0.16s0-0.08 0-0.11l0.24-0.22 0.13 0.19 0.5-0.39c0.06 0 0.13-0.08 0.18-0.12s0.18-0.08 0.13-0.22 0.07-0.1 0.12-0.13l2.73-1.93 2.52-1.79s0.06-0.06 0.1-0.06a3.23 3.23 0 0 0 0.86 -0.25zm-1.55 2.39-4.59 2.81 0.28 0.53-0.17 0.09c0.08 0.13 0.05 0.22-0.09 0.25l0.08 0.16h-0.13v0.14h-0.34s0 0.1 0 0.16c-0.06 0.22-0.27 0.41-0.13 0.68s0.14 0.26 0.37 0.12c-0.1-0.16-0.09-0.23 0-0.37l0.58-0.65a0.78 0.78 0 0 1 0.22 -0.19c0.06 0 0.06-0.06 0.08-0.1 0.16-0.23 0.35-0.44 0.54-0.65h0.14l0.29 0.13zm2.3-0.6h-0.67c-0.12 0-0.18 0-0.09 0.16s0 0.12 0 0.18 0 0.07-0.05 0.1c-0.05 0.53-0.1 1.07-0.15 1.6 0 0.2-0.05 0.4-0.07 0.6s0 0.42 0 0.62zm-0.69-1.11-0.1 1h0.78z"/>
<path d="m46.6 17.3a9.69 9.69 0 0 1 3.57 0.59 7.21 7.21 0 0 1 2.14 1.24 7.52 7.52 0 0 1 1.79 2.22 8 8 0 0 1 0.86 2.52c0.06 0.39 0.11 0.79 0.15 1.19a7.18 7.18 0 0 1 0 1 10.6 10.6 0 0 1 -0.37 2.38 8.55 8.55 0 0 1 -1.24 2.63 7.4 7.4 0 0 1 -2.35 2.15 7.57 7.57 0 0 1 -2.2 0.7 11.9 11.9 0 0 1 -1.36 0.22 11.1 11.1 0 0 1 -1.43 0.07 9.09 9.09 0 0 1 -4.32 -1.07 6.93 6.93 0 0 1 -1.9 -1.5 7.77 7.77 0 0 1 -1.1 -1.7 9 9 0 0 1 -0.76 -2.46 10.2 10.2 0 0 1 -0.1 -2.1 8.57 8.57 0 0 1 0.37 -2.3 14.9 14.9 0 0 1 0.6 -1.6 6.93 6.93 0 0 1 1.08 -1.59 7.27 7.27 0 0 1 2.6 -1.9 7.36 7.36 0 0 1 2.05 -0.6c0.6 0 1.8-0.1 1.8-0.1zm3.4 8.3c0-0.2 0-0.41-0.05-0.61a4.58 4.58 0 0 0 -0.34 -1.65 3.11 3.11 0 0 0 -2.36 -2 3.38 3.38 0 0 0 -2.08 0.21 3.5 3.5 0 0 0 -1.94 2.59 7.57 7.57 0 0 0 -0.16 1.91 6 6 0 0 0 0.38 2.13 3.11 3.11 0 0 0 0.9 1.31 3.41 3.41 0 0 0 2.85 0.65 3.06 3.06 0 0 0 2.32 -2 6.91 6.91 0 0 0 0.4 -2.6z"/>
<polygon points="32.4 78.9 32.4 139 20.5 139 20.5 78.9 26.5 70.5" class="cls-2"/>
<polygon points="47.6 78.9 47.6 139 35.8 139 35.8 78.9 41.7 70.5" class="cls-2"/>
<polygon points="62.8 78.9 62.8 139 51 139 51 78.9 56.9 70.5" class="cls-2"/>
<polygon points="78.1 78.9 78.1 139 66.2 139 66.2 78.9 72.2 70.5" class="cls-2"/>
<polygon points="93.3 78.9 93.3 139 81.5 139 81.5 78.9 87.4 70.5" class="cls-2"/>
<polygon points="109 78.9 109 139 97 139 97 78.9 103 70.5" class="cls-2"/>
<polygon points="124 78.9 124 139 112 139 112 78.9 118 70.5" class="cls-2"/>
<path class="cls-3" d="m85.2 86.8v9c0 0.88 0 1.75-0.07 2.63-0.08 1.32 0 4.07 2 4.94 1.71 0.76 11.1 3.57 12.8 2.9 2.61-1 3-3.19 1.89-4.06a56.4 56.4 0 0 0 -6.9 -3 1 1 0 0 1 -0.61 -0.91v-11.3"/>
<path class="cls-3" d="m85.2 86.4v9c0 0.88 0 1.75-0.07 2.63-0.08 1.32 0 4.07 2 4.94 2.61 1.16 10.2 3.92 12.8 2.9s3-3.19 1.89-4.06a56.4 56.4 0 0 0 -6.65 -3.09 1 1 0 0 1 -0.61 -0.91v-11.6"/>
<path class="cls-4" d="m89.8 87.5c-2.83 0-4.43-0.62-4.76-1 0.34-0.33 1.93-1 4.76-1s4.42 0.62 4.76 1c-0.4 0.4-2 1-4.8 1z"/>
<path d="m89.8 86.3a14.4 14.4 0 0 1 2.78 0.25 15.6 15.6 0 0 1 -5.57 0 14.4 14.4 0 0 1 2.78 -0.25m0-1.4c-3 0-5.5 0.74-5.5 1.65s2.46 1.65 5.5 1.65 5.5-0.74 5.5-1.65-2.46-1.65-5.5-1.65z"/>
<path class="cls-3" d="m116 92.7v9c0 0.88 0 1.75-0.07 2.63-0.08 1.32 0 4.07 2 4.94 1.71 0.76 11.1 3.57 12.8 2.9 2.61-1 3-3.19 1.89-4.06a56.4 56.4 0 0 0 -6.65 -3.09 1 1 0 0 1 -0.61 -0.91v-11.3"/>
<path class="cls-3" d="m116 92.3v9c0 0.88 0 1.75-0.07 2.63-0.08 1.32 0 4.07 2 4.94 2.61 1.16 10.2 3.92 12.8 2.9s3-3.19 1.89-4.06a56.4 56.4 0 0 0 -6.65 -3.09 1 1 0 0 1 -0.61 -0.91v-11.7"/>
<path class="cls-4" d="m120 93.4c-2.83 0-4.43-0.62-4.76-1 0.34-0.33 1.93-0.95 4.76-0.95s4.42 0.62 4.76 0.95c0 0.4-2 1-5 1z"/>
<path d="m120 92.2a14.4 14.4 0 0 1 2.78 0.25 15.6 15.6 0 0 1 -5.57 0 14.4 14.4 0 0 1 2.78 -0.25m0-1.4c-3 0-5.5 0.74-5.5 1.65s2.46 1.65 5.5 1.65 5.5-0.74 5.5-1.65-2.46-1.65-5.5-1.65z"/>
<path class="cls-3" d="m70 96.1v9c0 0.88 0 1.75-0.07 2.63-0.08 1.32 0 4.07 2 4.94 1.71 0.76 11.1 3.57 12.8 2.9 2.61-1 3-3.19 1.89-4.06a56.4 56.4 0 0 0 -6.65 -3.09 1 1 0 0 1 -0.61 -0.91v-10.9"/>
<path class="cls-3" d="m70 95.7v9c0 0.88 0 1.75-0.07 2.63-0.08 1.32 0 4.07 2 4.94 2.61 1.16 10.2 3.92 12.8 2.9s3-3.19 1.89-4.06a56.4 56.4 0 0 0 -6.7 -4 1 1 0 0 1 -0.61 -0.91v-11.3"/>
<path class="cls-4" d="m74.6 96.8c-2.83 0-4.43-0.62-4.76-1 0.34-0.33 1.93-1 4.76-1s4.42 0.62 4.76 1c-0.4 0.4-2 1-4.8 1z"/>
<path d="m74.6 95.6a14.4 14.4 0 0 1 2.78 0.25 15.6 15.6 0 0 1 -5.57 0 14.4 14.4 0 0 1 2.78 -0.25m0-1.4c-3 0-5.5 0.74-5.5 1.65s2.46 1.65 5.5 1.65 5.5-0.74 5.5-1.65-2.46-1.65-5.5-1.65z"/>
<path class="cls-3" d="m39.2 83.6v9c0 0.88 0 1.75-0.07 2.63-0.08 1.32 0 4.07 2 4.94 1.71 0.76 11.1 3.57 12.8 2.9 2.61-1 3-3.19 1.89-4.06a56.4 56.4 0 0 0 -6.65 -3.09 1 1 0 0 1 -0.7 -0.9v-11.4"/>
<path class="cls-3" d="m39.2 83.3v9c0 0.88 0 1.75-0.07 2.63-0.08 1.32 0 4.07 2 4.94 2.61 1.16 10.2 3.92 12.8 2.9s3-3.19 1.89-4.06a56.4 56.4 0 0 0 -6.65 -3.09 1 1 0 0 1 -0.61 -0.91v-11.6"/>
<path class="cls-4" d="m43.8 84.4c-2.83 0-4.43-0.62-4.76-1 0.34-0.33 1.93-1 4.76-1s4.42 0.62 4.76 1c-0.4 0.4-2 1-4.8 1z"/>
<path d="m43.8 83.2a14.4 14.4 0 0 1 2.78 0.25 15.6 15.6 0 0 1 -5.57 0 14.4 14.4 0 0 1 2.78 -0.25m0-1.4c-3 0-5.5 0.74-5.5 1.65s2.46 1.65 5.5 1.65 5.5-0.74 5.5-1.65-2.46-1.65-5.5-1.65z"/>
<path class="cls-5" d="m44.4 83.7s-0.85-15 4.8-15"/>
<path class="cls-5" d="m75.1 96.1s0.85-15-4.8-15"/>
<path class="cls-5" d="m75.7 85.6s1.42-1.86 2-0.73-2 0.7-2 0.7z"/>
<path class="cls-5" d="m89.8 79.6s1.42-1.86 2-0.73-2 0.7-2 0.7z"/>
<path class="cls-5" d="m118 84.4s-1.42-1.86-2-0.73 2 0.7 2 0.7z"/>
<path class="cls-5" d="m45.8 76.8s1.42-1.86 2-0.73-2 0.7-2 0.7z"/>
<path class="cls-5" d="m43.7 76.5s-2.34 0.08-1.82-1.08 1.8 1.1 1.8 1.1z"/>
<line y1="63.8" x2="51.8" x1="46.6" y2="69.7" class="cls-6"/>
<line y1="64.2" x2="46.2" x1="52.1" y2="69.3" class="cls-6"/>
<line y1="62.8" x2="48.9" x1="49.4" y2="70.6" class="cls-6"/>
<line y1="67" x2="45.7" x1="53.4" y2="66.5" class="cls-6"/>
<line y1="77" x2="72.4" x1="67.2" y2="82.9" class="cls-6"/>
<line y1="77.4" x2="66.8" x1="72.7" y2="82.6" class="cls-6"/>
<line y1="76.1" x2="69.5" x1="70" y2="83.9" class="cls-6"/>
<line y1="80.2" x2="66.2" x1="74" y2="79.7" class="cls-6"/>
<path class="cls-5" d="m88.1 86.9s1.16-6.34 0-9.16a26.3 26.3 0 0 0 -4.23 -6.21"/>
<path class="cls-5" d="m93.2 68.8s-5.16 5-4.84 9.55"/>
<path class="cls-5" d="m120 92.8c0-0.49-1.7-7.06 0-10.5l1.7-3.41"/>
<path class="cls-7" d="m158 78.4a9.74 9.74 0 1 1 17.9 -7.16"/>
<path class="cls-8" d="m211 128v8.59c0 0.84 0 1.68 0.07 2.51 0.08 1.26 0 3.89-1.88 4.73-1.64 0.73-10.6 3.41-12.2 2.78-2.5-1-2.92-3.06-1.81-3.89a54 54 0 0 1 6.36 -3 1 1 0 0 0 0.59 -0.87v-11"/>
<path class="cls-8" d="m211 128v8.59c0 0.84 0 1.68 0.07 2.51 0.08 1.26 0 3.89-1.88 4.73-2.5 1.11-9.72 3.75-12.2 2.78s-2.92-3.06-1.81-3.89a54 54 0 0 1 6.36 -3 1 1 0 0 0 0.59 -0.87v-11"/>
<path d="m207 129c-2.63 0-4.15-0.57-4.51-0.88 0.36-0.31 1.89-0.88 4.51-0.88s4.15 0.57 4.51 0.88c-1 0-3 1-5 1z"/>
<path d="m207 128a14.2 14.2 0 0 1 2.33 0.18 15.1 15.1 0 0 1 -4.65 0 14.2 14.2 0 0 1 2.33 -0.18m0-1.4c-2.91 0-5.26 0.71-5.26 1.58s2.36 1.58 5.26 1.58 5.26-0.71 5.26-1.58-2.36-1.58-5.26-1.58z"/>
<path class="cls-8" d="m224 128v8.59c0 0.84 0 1.68 0.07 2.51 0.08 1.26 0 3.89-1.88 4.73-1.64 0.73-10.6 3.41-12.2 2.78-2.5-1-2.92-3.06-1.81-3.89a54 54 0 0 1 6.36 -3 1 1 0 0 0 0.59 -0.87v-11"/>
<path class="cls-8" d="m224 128v8.59c0 0.84 0 1.68 0.07 2.51 0.08 1.26 0 3.89-1.88 4.73-2.5 1.11-9.72 3.75-12.2 2.78s-2.92-3.06-1.81-3.89a54 54 0 0 1 6.36 -3 1 1 0 0 0 0.59 -0.87v-11"/>
<path d="m219 129c-2.63 0-4.15-0.57-4.51-0.88 0.36-0.31 1.89-0.88 4.51-0.88s4.15 0.57 4.51 0.88c-1 0-2 1-5 1z"/>
<path d="m219 128a14.2 14.2 0 0 1 2.33 0.18 15.1 15.1 0 0 1 -4.65 0 14.2 14.2 0 0 1 2.33 -0.18m0-1.4c-2.91 0-5.26 0.71-5.26 1.58s2.36 1.58 5.26 1.58 5.26-0.71 5.26-1.58-2.36-1.58-5.26-1.58z"/>
<rect y="90.8" x="204" height="37.3" class="cls-9" width="5.6"/>
<rect y="90.8" x="216" height="37.3" class="cls-9" width="5.6"/>
<path d="m207 99.6a0.35 0.35 0 0 0 0 -0.7 0.35 0.35 0 0 0 0 0.7z"/>
<path d="m207 108a0.35 0.35 0 0 0 0 -0.7 0.35 0.35 0 0 0 0 0.7z"/>
<path d="m207 104a0.35 0.35 0 0 0 0 -0.7 0.35 0.35 0 0 0 0 0.7z"/>
<path d="m206 114a0.35 0.35 0 0 0 0 -0.7 0.35 0.35 0 0 0 0 0.7z"/>
<path d="m208 118a0.35 0.35 0 0 0 0 -0.7 0.35 0.35 0 0 0 0 0.7z"/>
<path d="m206 122a0.35 0.35 0 0 0 0 -0.7 0.35 0.35 0 0 0 0 0.7z"/>
<path d="m208 126a0.35 0.35 0 0 0 0 -0.7 0.35 0.35 0 0 0 0 0.7z"/>
<path d="m208 111a0.35 0.35 0 0 0 0 -0.7 0.35 0.35 0 0 0 0 0.7z"/>
<path d="m218 103a0.35 0.35 0 0 0 0 -0.7 0.35 0.35 0 0 0 0 0.7z"/>
<path d="m222 107a0.35 0.35 0 0 0 0 -0.7 0.35 0.35 0 0 0 0 0.7z"/>
<path d="m221 107a0.35 0.35 0 0 0 0 -0.7 0.35 0.35 0 0 0 0 0.7z"/>
<path d="m219 113a0.35 0.35 0 0 0 0 -0.7 0.35 0.35 0 0 0 0 0.7z"/>
<path d="m220 101a0.35 0.35 0 0 0 0 -0.7 0.35 0.35 0 0 0 0 0.7z"/>
<path d="m219 110a0.35 0.35 0 0 0 0 -0.7 0.35 0.35 0 0 0 0 0.7z"/>
<path d="m221 117a0.35 0.35 0 0 0 0 -0.7 0.35 0.35 0 0 0 0 0.7z"/>
<path d="m219 121a0.35 0.35 0 0 0 0 -0.7 0.35 0.35 0 0 0 0 0.7z"/>
<path d="m220 124a0.35 0.35 0 0 0 0 -0.7 0.35 0.35 0 0 0 0 0.7z"/>
<path d="m219 117a0.35 0.35 0 0 0 0 -0.7 0.35 0.35 0 0 0 0 0.7z"/>
<path d="m219 97.1a0.35 0.35 0 0 0 0 -0.7 0.35 0.35 0 0 0 0 0.7z"/>
<path d="m208 96a0.35 0.35 0 0 0 0 -0.7 0.35 0.35 0 0 0 0 0.7z"/>
<path d="m206 95.9a0.35 0.35 0 0 0 0 -0.7 0.35 0.35 0 0 0 0 0.7z"/>
<path d="m205 110a0.35 0.35 0 0 0 0 -0.7 0.35 0.35 0 0 0 0 0.7z"/>
<path d="m218 106a0.35 0.35 0 0 0 0 -0.7 0.35 0.35 0 0 0 0 0.7z"/>
<path d="m220 104a0.35 0.35 0 0 0 0 -0.7 0.35 0.35 0 0 0 0 0.7z"/>
<path d="m221 121a0.35 0.35 0 0 0 0 -0.7 0.35 0.35 0 0 0 0 0.7z"/>
<path d="m206 104a0.35 0.35 0 0 0 0 -0.7 0.35 0.35 0 0 0 0 0.7z"/>
<path d="m206 119a0.35 0.35 0 0 0 0 -0.7 0.35 0.35 0 0 0 0 0.7z"/>
<path d="m208 122a0.35 0.35 0 0 0 0 -0.7 0.35 0.35 0 0 0 0 0.7z"/>
<path d="m206 125a0.35 0.35 0 0 0 0 -0.7 0.35 0.35 0 0 0 0 0.7z"/>
<path d="m218 126a0.35 0.35 0 0 0 0 -0.7 0.35 0.35 0 0 0 0 0.7z"/>
<path d="m220 127a0.35 0.35 0 0 0 0 -0.7 0.35 0.35 0 0 0 0 0.7z"/>
<path d="m217 99.1a0.35 0.35 0 0 0 0 -0.7 0.35 0.35 0 0 0 0 0.7z"/>
<path d="m220 112a0.35 0.35 0 0 0 0 -0.7 0.35 0.35 0 0 0 0 0.7z"/>
<path d="m221 95.3a0.35 0.35 0 0 0 0 -0.7 0.35 0.35 0 0 0 0 0.7z"/>
<path d="m208 101a0.35 0.35 0 0 0 0 -0.7 0.35 0.35 0 0 0 0 0.7z"/>
<path d="m205 97.8a0.35 0.35 0 0 0 0 -0.7 0.35 0.35 0 0 0 0 0.7z"/>
<path d="m208 115a0.35 0.35 0 0 0 0 -0.7 0.35 0.35 0 0 0 0 0.7z"/>
<path d="m221 110a0.35 0.35 0 0 0 0 -0.7 0.35 0.35 0 0 0 0 0.7z"/>
<path d="m205 107a0.35 0.35 0 0 0 0 -0.7 0.35 0.35 0 0 0 0 0.7z"/>
<path class="cls-10" d="m180 87.9l-13.6 5.22a2.93 2.93 0 0 1 -3.77 -1.69l-2.77-7.25-12.6-2.72a1.46 1.46 0 0 1 0.31 -2.89 1.48 1.48 0 0 1 0.31 0l10.7 2.32-0.24-0.64a2.93 2.93 0 0 1 1.69 -3.77l13.6-5.22a2.93 2.93 0 0 1 4 1.8l4.26 11.2a2.93 2.93 0 0 1 -2 3.7z"/>
<rect y="86.9" x="214" height="14.1" class="cls-2" width="10.5"/>
<rect y="86.9" x="201" height="14.1" class="cls-2" width="10.5"/>
<path class="cls-2" d="m194 89.3s20 11.2 47.2-2.92l-13-39.7a15.8 15.8 0 0 0 -15 -10.9h-0.47a10.8 10.8 0 0 0 -10.1 8.82z"/>
<path class="cls-11" d="m182 30c5-13 7-19.4 12-21.8a14.2 14.2 0 0 1 8.91 -1.46c9.5 1.83 17.4 15.5 13.4 26.4-2.55 7-10.2 13.4-15.8 12.1-5.76-1.27-9.62-10.6-15.3-9.94-0.67 0.08-2.11 0.37-2.92-0.44-1-1.1 0-3.7 0-4.9z"/>
<path class="cls-12" d="m185 9.79c-0.7 4.33 2.92 9.36 7.31 10.5 5 1.33 9.55-2.77 11.4-1.1 1.67 1.47-1.68 4.79-0.24 8.12 1.77 4.11 10.2 6.71 15.1 4.39 6.55-3.1 7.37-15.2 1.7-22.8-4.56-6.14-12.9-8.77-20-8.12-4 0.44-14 2.7-15 9.02z"/>
<path class="cls-7" d="m189 25.3s3.95 2.85 7.31 0"/>
<path class="cls-4" d="m205 30.1c-0.16-0.15 1-4.6 2.69-5.19a1.55 1.55 0 0 1 0.92 -0.06c1.34 0.35 2 2.62 1.16 4.76-0.79 2-3 3.06-3.29 2.74-3-1.8-1-1.1-2-2.2z"/>
<path class="cls-7" d="m194 41.1a9.52 9.52 0 0 0 4.24 -2.81c0.19-0.2 0.37-0.4 0.53-0.6"/>
<path class="cls-9" d="m208 27.6a7.17 7.17 0 0 0 -0.94 2.1"/>
<path d="m199 42.6a0.35 0.35 0 0 0 0 -0.7 0.35 0.35 0 0 0 0 0.7z"/>
<path d="m201 39.3a0.35 0.35 0 0 0 0 -0.7 0.35 0.35 0 0 0 0 0.7z"/>
<path d="m202 38.4a0.35 0.35 0 0 0 0 -0.7 0.35 0.35 0 0 0 0 0.7z"/>
<path d="m201 42.9a0.35 0.35 0 0 0 0 -0.7 0.35 0.35 0 0 0 0 0.7z"/>
<path d="m202 41a0.35 0.35 0 0 0 0 -0.7 0.35 0.35 0 0 0 0 0.7z"/>
<path d="m200 41.4a0.35 0.35 0 0 0 0 -0.7 0.35 0.35 0 0 0 0 0.7z"/>
<path d="m204 42.8a0.35 0.35 0 0 0 0 -0.7 0.35 0.35 0 0 0 0 0.7z"/>
<path d="m204 38.7a0.35 0.35 0 0 0 0 -0.7 0.35 0.35 0 0 0 0 0.7z"/>
<path d="m204 40.3a0.35 0.35 0 0 0 0 -0.7 0.35 0.35 0 0 0 0 0.7z"/>
<path d="m206 41.5a0.35 0.35 0 0 0 0 -0.7 0.35 0.35 0 0 0 0 0.7z"/>
<path d="m206 40.3a0.35 0.35 0 0 0 0 -0.7 0.35 0.35 0 0 0 0 0.7z"/>
<path d="m203 34.7a0.35 0.35 0 0 0 0 -0.7 0.35 0.35 0 0 0 0 0.7z"/>
<path d="m206 31.9a0.35 0.35 0 0 0 0 -0.7 0.35 0.35 0 0 0 0 0.7z"/>
<path d="m204 36.4a0.35 0.35 0 0 0 0 -0.7 0.35 0.35 0 0 0 0 0.7z"/>
<path d="m205 36.8a0.35 0.35 0 0 0 0 -0.7 0.35 0.35 0 0 0 0 0.7z"/>
<path d="m206 38.4a0.35 0.35 0 0 0 0 -0.7 0.35 0.35 0 0 0 0 0.7z"/>
<path d="m207 36.4a0.35 0.35 0 0 0 0 -0.7 0.35 0.35 0 0 0 0 0.7z"/>
<path d="m207 33.1a0.35 0.35 0 0 0 0 -0.7 0.35 0.35 0 0 0 0 0.7z"/>
<path d="m205 43.1a0.35 0.35 0 0 0 0 -0.7 0.35 0.35 0 0 0 0 0.7z"/>
<path d="m202 44.2a0.35 0.35 0 0 0 0 -0.7 0.35 0.35 0 0 0 0 0.7z"/>
<path d="m201 37a0.35 0.35 0 0 0 0 -0.7 0.35 0.35 0 0 0 0 0.7z"/>
<path d="m202 35.4a0.35 0.35 0 0 0 0 -0.7 0.35 0.35 0 0 0 0 0.7z"/>
<path d="m205 34.2a0.35 0.35 0 0 0 0 -0.7 0.35 0.35 0 0 0 0 0.7z"/>
<path class="cls-4" d="m220 15.7c-0.31 0-1.47-1.93-2.6-3.78-0.67-1.1-1-1.75-1.27-2.19a4.15 4.15 0 0 0 -0.81 -1.17 4.76 4.76 0 0 0 -2 -1.22 7.79 7.79 0 0 1 -2.36 -1.14c-1.4-1-2.71-2.45-2.58-2.72 0 0 0.12-0.09 0.41-0.09 1.91 0 8 2.38 10.4 7.73 1 2.2 1 4.4 1 4.6z"/>
<path d="m208 3.5c1.89 0 7.92 2.36 10.3 7.66a11.7 11.7 0 0 1 1.08 4.42 25.5 25.5 0 0 1 -2.46 -3.68c-0.67-1.1-1-1.75-1.27-2.18a4.2 4.2 0 0 0 -0.83 -1.2 4.91 4.91 0 0 0 -2 -1.29 7.68 7.68 0 0 1 -2.32 -1.13 8.77 8.77 0 0 1 -2.56 -2.55 0.6 0.6 0 0 1 0.32 0m0-0.23c-0.28 0-0.46 0.05-0.51 0.16-0.2 0.41 1.36 2 2.62 2.86 2.09 1.49 3.05 0.91 4.54 2.39 0.63 0.63 0.49 0.77 2.06 3.34 1.33 2.17 2.34 3.83 2.7 3.83 0.35-0.19 0-2.71-1-4.77-2.44-5.45-8.65-7.8-10.5-7.8z"/>
<path class="cls-11" d="m168 65.5a4.17 4.17 0 0 1 -3.53 -6.38c9.42-15 22.4-17.6 31.6-17.1a45.2 45.2 0 0 1 17.4 4.7 4.17 4.17 0 0 1 -4 7.33 37.3 37.3 0 0 0 -14.2 -3.72c-10-0.47-18 4-23.8 13.2a4.16 4.16 0 0 1 -3 2z"/>
<path class="cls-10" d="m145 75.1a4 4 0 1 1 -1.87 7.75"/>
<ellipse rx="3.99" transform="translate(33.1 200) rotate(-76.4)" ry=".57" cy="78.9" cx="144" class="cls-2"/>
<path class="cls-4" d="m144 77.2a0.35 0.35 0 0 0 0 -0.7 0.35 0.35 0 0 0 0 0.7z"/>
<path class="cls-4" d="m144 78.2a0.35 0.35 0 0 0 0 -0.7 0.35 0.35 0 0 0 0 0.7z"/>
<path class="cls-4" d="m143 80.6a0.35 0.35 0 0 0 0 -0.7 0.35 0.35 0 0 0 0 0.7z"/>
<path class="cls-4" d="m143 81.9a0.35 0.35 0 0 0 0 -0.7 0.35 0.35 0 0 0 0 0.7z"/>
<path class="cls-4" d="m144 79.4a0.35 0.35 0 0 0 0 -0.7 0.35 0.35 0 0 0 0 0.7z"/>
<path class="cls-4" d="m181 84.5c0.5 3.51-7.85 5.3-8 4.9 0-0.06 5.49-1.7 6.28-4.31 0.63-2.09-1.26-4.87-1.15-6a0.38 0.38 0 0 1 0.61 -0.27c0 0.8 2 4.5 2 5.7z"/>
<path d="m202 71.4c-0.38-0.32-1.6-1.59-3.95-4.24a0.88 0.88 0 0 1 -0.2 -0.75l2-7.4a0.87 0.87 0 0 1 0.85 -0.69 0.85 0.85 0 0 1 0.26 0 19.5 19.5 0 0 0 5.82 0.83q0.58 0 1.2 0a0.89 0.89 0 0 1 0.7 0.3 0.85 0.85 0 0 1 0.2 0.69l-1.14 8.11a0.86 0.86 0 0 1 -0.42 0.63 30.2 30.2 0 0 1 -6 2.6z"/>
<path d="m201 59h0.05a20.2 20.2 0 0 0 6 0.86h1.25a0.17 0.17 0 0 1 0.13 0.06 0.16 0.16 0 0 1 0 0.13l-1 8a0.17 0.17 0 0 1 -0.08 0.12 42.4 42.4 0 0 1 -4.36 2.35c-0.53-0.52-1.64-1.68-3.59-3.9a0.17 0.17 0 0 1 0 -0.14l1.54-7.42a0.17 0.17 0 0 1 0.16 -0.14m0-1.4a1.57 1.57 0 0 0 -1.53 1.25l-1.54 7.42a1.56 1.56 0 0 0 0.36 1.35 48.1 48.1 0 0 0 4.27 4.49h0.1c0.73 0 3.94-1.85 5.34-2.67a1.56 1.56 0 0 0 0.75 -1.13l1.14-8.11a1.57 1.57 0 0 0 -1 -1.9h-0.08-1.17a18.7 18.7 0 0 1 -5.61 -0.79 1.57 1.57 0 0 0 -0.47 -0.07z"/>
<line y1="67.5" x2="85.6" x1="80.5" y2="73.3" class="cls-6"/>
<line y1="67.8" x2="80.1" x1="86" y2="73" class="cls-6"/>
<line y1="66.5" x2="82.8" x1="83.3" y2="74.3" class="cls-6"/>
<line y1="70.7" x2="79.5" x1="87.3" y2="70.1" class="cls-6"/>
<line y1="64.4" x2="97.5" x1="92.3" y2="70.2" class="cls-6"/>
<line y1="64.7" x2="92" x1="97.8" y2="69.9" class="cls-6"/>
<line y1="63.4" x2="94.6" x1="95.2" y2="71.2" class="cls-6"/>
<line y1="67.6" x2="91.4" x1="99.2" y2="67" class="cls-6"/>
<line y1="75.4" x2="124" x1="119" y2="80.5" class="cls-6"/>
<polyline points="124 75.7 123 77.1 119 80.2" class="cls-6"/>
<polyline points="122 74.6 122 78.7 121 81.3" class="cls-6"/>
<line y1="78.2" x2="119" x1="125" y2="77.7" class="cls-6"/>
<line y1="75.4" x2="142" x1="142" y2="75.4" class="cls-13"/>
<path class="cls-14" d="m140 74.2a20.5 20.5 0 0 0 -7 -2.46c-9.5-0.9-15.2 10.8-15.4 19"/>
<line y1="92" x2="117" x1="117" y2="92" class="cls-13"/>
<line y1="81.1" x2="140" x1="140" y2="81.1" class="cls-13"/>
<path class="cls-15" d="m139 79.2a10.2 10.2 0 0 0 -5 -2.2c-7.91-2.22-11.8 9-12.4 13.4"/>
<line y1="91.6" x2="122" x1="122" y2="91.6" class="cls-13"/>
<line y1="78.1" x2="141" x1="141" y2="78.1" class="cls-13"/>
<path class="cls-16" d="m139 76.8a18.1 18.1 0 0 0 -6 -2.67c-9-1.4-13 11.7-13 16.3"/>
<line y1="91.6" x2="120" x1="120" y2="91.6" class="cls-13"/>
<text class="cls-17" transform="translate(20.7 54.4)">VOORTUIN</text>
</g>
</g>
</svg>
