<svg xmlns="http://www.w3.org/2000/svg" viewBox="0 0 379.84 279.68"><defs><style>.cls-1{fill:#ef8269;}.cls-2,.cls-3,.cls-4,.cls-5,.cls-6,.cls-7,.cls-8{stroke:#000;}.cls-2,.cls-4,.cls-5{stroke-linejoin:round;}.cls-2,.cls-3,.cls-5,.cls-6,.cls-7,.cls-8{stroke-width:3.61px;}.cls-3,.cls-4,.cls-5,.cls-6,.cls-9{fill:#fff;}.cls-3,.cls-4,.cls-5,.cls-8{stroke-linecap:round;}.cls-3,.cls-6,.cls-7,.cls-8{stroke-miterlimit:10;}.cls-4{stroke-width:4.31px;}.cls-8{fill:none;}.cls-10{fill:#84eae0;}</style></defs><title>error-message_2</title><g id="Layer_2" data-name="Layer 2"><g id="Layer_1-2" data-name="Layer 1"><path class="cls-1" d="M87.16,201.8c34.6-11.63,55.83-11.51,181-11,81.75.33,106.55.42,111,13,5.41,15.31-22.63,39.72-41,52-36,24.08-73.67,27.46-203,21-120-6-133.41-11.19-135-19C-3.3,240.84,49.43,214.49,87.16,201.8Z"/><path class="cls-2" d="M152.38,225.25H130.2c-2.16,0-4.33,0-6.49.18-3.26.2-10,0-12.2-4.84-1.88-4.22-8.81-27.32-7.17-31.54,2.51-6.45,7.89-7.53,10-4.66,1.73,2.31,6,12.52,7.63,16.41a2.44,2.44,0,0,0,2.26,1.51h28.11"/><path class="cls-2" d="M153.21,225.25H131c-2.16,0-4.33,0-6.49.18-3.26.2-10,0-12.2-4.84-2.87-6.45-9.68-25.09-7.17-31.54s7.89-7.53,10-4.66c1.73,2.31,6,12.52,7.63,16.41a2.44,2.44,0,0,0,2.26,1.51h28.11"/><path d="M152.87,225.53c-.8-.94-2.27-4.87-2.27-11.64s1.46-10.7,2.27-11.64c.8.94,2.27,4.87,2.27,11.64S153.68,224.59,152.87,225.53Z"/><path d="M152.87,207.88a39,39,0,0,1,0,12,39,39,0,0,1,0-12m0-7.58c-2.25,0-4.07,6.08-4.07,13.58s1.82,13.58,4.07,13.58,4.07-6.08,4.07-13.58-1.82-13.58-4.07-13.58Z"/><path class="cls-2" d="M152.38,257.29H130.2c-2.16,0-4.33,0-6.49.18-3.26.2-10,0-12.2-4.84-1.88-4.22-8.81-27.32-7.17-31.54,2.51-6.45,7.89-7.53,10-4.66,1.73,2.31,6,12.52,7.63,16.41a2.44,2.44,0,0,0,2.26,1.51h28.11"/><path class="cls-2" d="M153.21,257.29H131c-2.16,0-4.33,0-6.49.18-3.26.2-10,0-12.2-4.84-2.87-6.45-9.68-25.09-7.17-31.54s7.89-7.53,10-4.66c1.73,2.31,6,12.52,7.63,16.41a2.44,2.44,0,0,0,2.26,1.51h28.11"/><path d="M152.87,257.57c-.8-.94-2.27-4.87-2.27-11.64s1.46-10.7,2.27-11.64c.8.94,2.27,4.87,2.27,11.64S153.68,256.63,152.87,257.57Z"/><path d="M152.87,239.93a39,39,0,0,1,0,12,39,39,0,0,1,0-12m0-7.58c-2.25,0-4.07,6.08-4.07,13.58s1.82,13.58,4.07,13.58,4.07-6.08,4.07-13.58-1.82-13.58-4.07-13.58Z"/><rect class="cls-3" x="192.76" y="165.89" width="14.45" height="96.14" transform="translate(413.95 13.97) rotate(90)"/><rect class="cls-3" x="192.76" y="197.94" width="14.45" height="96.14" transform="translate(445.99 46.02) rotate(90)"/><path d="M225,214.55a.9.9,0,0,0,0-1.8.9.9,0,0,0,0,1.8Z"/><path d="M204,216.12a.9.9,0,0,0,0-1.8.9.9,0,0,0,0,1.8Z"/><path d="M213.71,216.75a.9.9,0,0,0,0-1.8.9.9,0,0,0,0,1.8Z"/><path d="M186.7,213a.9.9,0,0,0,0-1.8.9.9,0,0,0,0,1.8Z"/><path d="M178.53,218.95a.9.9,0,0,0,0-1.8.9.9,0,0,0,0,1.8Z"/><path d="M167.22,213.29a.9.9,0,0,0,0-1.8.9.9,0,0,0,0,1.8Z"/><path d="M157.89,218a.9.9,0,0,0,0-1.8.9.9,0,0,0,0,1.8Z"/><path d="M194.24,218a.9.9,0,0,0,0-1.8.9.9,0,0,0,0,1.8Z"/><path d="M215.91,243.14a.9.9,0,0,0,0-1.8.9.9,0,0,0,0,1.8Z"/><path d="M206.8,253.51a.9.9,0,0,0,0-1.8.9.9,0,0,0,0,1.8Z"/><path d="M206.49,251a.9.9,0,0,0,0-1.8.9.9,0,0,0,0,1.8Z"/><path d="M189.52,245.65a.9.9,0,0,0,0-1.8.9.9,0,0,0,0,1.8Z"/><path d="M221.88,249.74a.9.9,0,0,0,0-1.8.9.9,0,0,0,0,1.8Z"/><path d="M198.95,246.28a.9.9,0,0,0,0-1.8.9.9,0,0,0,0,1.8Z"/><path d="M180.73,251.62a.9.9,0,0,0,0-1.8.9.9,0,0,0,0,1.8Z"/><path d="M168.47,245.65a.9.9,0,0,0,0-1.8.9.9,0,0,0,0,1.8Z"/><path d="M160.93,249.11a.9.9,0,0,0,0-1.8.9.9,0,0,0,0,1.8Z"/><path d="M179.47,246a.9.9,0,0,0,0-1.8.9.9,0,0,0,0,1.8Z"/><path d="M231,251.94a.9.9,0,0,0,0-1.8.9.9,0,0,0,0,1.8Z"/><path d="M203.62,249.11a.9.9,0,0,0,0-1.8.9.9,0,0,0,0,1.8Z"/><path d="M197.66,250.15a.9.9,0,0,0,0-1.8.9.9,0,0,0,0,1.8Z"/><path d="M198.32,211.09a.9.9,0,0,0,0-1.8.9.9,0,0,0,0,1.8Z"/><path d="M207.43,244.39a.9.9,0,0,0,0-1.8.9.9,0,0,0,0,1.8Z"/><path d="M214.66,248.48a.9.9,0,0,0,0-1.8.9.9,0,0,0,0,1.8Z"/><path d="M170.67,250.36a.9.9,0,0,0,0-1.8.9.9,0,0,0,0,1.8Z"/><path d="M214,212.35a.9.9,0,0,0,0-1.8.9.9,0,0,0,0,1.8Z"/><path d="M175.39,213a.9.9,0,0,0,0-1.8.9.9,0,0,0,0,1.8Z"/><path d="M166.9,218.95a.9.9,0,0,0,0-1.8.9.9,0,0,0,0,1.8Z"/><path d="M158.73,211.72a.9.9,0,0,0,0-1.8.9.9,0,0,0,0,1.8Z"/><path d="M157.26,244.08a.9.9,0,0,0,0-1.8.9.9,0,0,0,0,1.8Z"/><path d="M154.74,249.74a.9.9,0,0,0,0-1.8.9.9,0,0,0,0,1.8Z"/><path d="M226.28,242.2a.9.9,0,0,0,0-1.8.9.9,0,0,0,0,1.8Z"/><path d="M191.72,249.42a.9.9,0,0,0,0-1.8.9.9,0,0,0,0,1.8Z"/><path d="M234.73,247.23a.9.9,0,0,0,0-1.8.9.9,0,0,0,0,1.8Z"/><path d="M220.31,218.32a.9.9,0,0,0,0-1.8.9.9,0,0,0,0,1.8Z"/><path d="M229.42,210.15a.9.9,0,0,0,0-1.8.9.9,0,0,0,0,1.8Z"/><path d="M185.44,218.32a.9.9,0,0,0,0-1.8.9.9,0,0,0,0,1.8Z"/><path d="M195.3,244.24a.9.9,0,0,0,0-1.8.9.9,0,0,0,0,1.8Z"/><path d="M206.49,210.46a.9.9,0,0,0,0-1.8.9.9,0,0,0,0,1.8Z"/><path class="cls-4" d="M247.72,217.88h7.09a19.93,19.93,0,0,1,19.93,19.93V270a0,0,0,0,1,0,0h-27a0,0,0,0,1,0,0V217.88A0,0,0,0,1,247.72,217.88Z" transform="translate(505.16 -17.3) rotate(90)"/><rect class="cls-5" x="225.02" y="193.85" width="27.02" height="36.44" transform="translate(450.61 -26.46) rotate(90)"/><path class="cls-5" d="M181.1,230.52S232.63,259.43,303,223L268.64,120.44a40.71,40.71,0,0,0-38.38-28l-1.2,0a27.77,27.77,0,0,0-26.16,22.75Z"/><path class="cls-6" d="M151.3,77.32c11.5-33.38,17.25-50.06,29.79-56.18,2.89-1.41,12.06-5.88,23-3.77,24.51,4.73,44.92,40,34.69,68.24-6.59,18.15-26.26,34.48-40.72,31.29-14.87-3.27-24.82-27.31-39.59-25.64-1.73.2-5.45,1-7.54-1.13C148,87.19,150.19,80.54,151.3,77.32Z"/><path class="cls-7" d="M157.22,25.26c-1.8,11.16,7.54,24.15,18.85,27.17,12.92,3.44,24.63-7.14,29.53-2.83,4.31,3.79-4.32,12.36-.63,20.94,4.57,10.6,26.27,17.33,39,11.32,16.89-8,19-39.18,4.4-58.86C236.57,7.16,215.14.37,196.81,2.05,185.18,3.12,159.86,9,157.22,25.26Z"/><path class="cls-8" d="M167.92,65.3s10.18,7.36,18.85,0"/><path class="cls-9" d="M208.8,77.74c-.41-.4,2.67-11.87,6.94-13.39a4,4,0,0,1,2.38-.15c3.45.89,5.24,6.75,3,12.28-2,5-7.72,7.9-8.5,7.06C208.12,78.72,211.52,80.4,208.8,77.74Z"/><path class="cls-8" d="M194.35,97.15c-3.75,1.13-7.1,3.22-10.95,7.25-.49.51-.94,1-1.36,1.55"/><path class="cls-3" d="M216.7,71.1a18.49,18.49,0,0,0-2.43,5.41"/><path d="M194,110a.9.9,0,0,0,0-1.8.9.9,0,0,0,0,1.8Z"/><path d="M198.54,101.36a.9.9,0,0,0,0-1.8.9.9,0,0,0,0,1.8Z"/><path d="M202.47,99a.9.9,0,0,0,0-1.8.9.9,0,0,0,0,1.8Z"/><path d="M200,110.78a.9.9,0,0,0,0-1.8.9.9,0,0,0,0,1.8Z"/><path d="M202.47,105.75a.9.9,0,0,0,0-1.8.9.9,0,0,0,0,1.8Z"/><path d="M197.6,106.7a.9.9,0,0,0,0-1.8.9.9,0,0,0,0,1.8Z"/><path d="M206.08,110.47a.9.9,0,0,0,0-1.8.9.9,0,0,0,0,1.8Z"/><path d="M207,99.79a.9.9,0,0,0,0-1.8.9.9,0,0,0,0,1.8Z"/><path d="M207.18,104a.9.9,0,0,0,0-1.8.9.9,0,0,0,0,1.8Z"/><path d="M213.15,107.17a.9.9,0,0,0,0-1.8.9.9,0,0,0,0,1.8Z"/><path d="M211.42,104a.9.9,0,0,0,0-1.8.9.9,0,0,0,0,1.8Z"/><path d="M205.61,89.57a.9.9,0,0,0,0-1.8.9.9,0,0,0,0,1.8Z"/><path d="M211.89,82.35a.9.9,0,0,0,0-1.8.9.9,0,0,0,0,1.8Z"/><path d="M206.39,94a.9.9,0,0,0,0-1.8.9.9,0,0,0,0,1.8Z"/><path d="M210.48,94.92a.9.9,0,0,0,0-1.8.9.9,0,0,0,0,1.8Z"/><path d="M213.15,99a.9.9,0,0,0,0-1.8.9.9,0,0,0,0,1.8Z"/><path d="M213.62,93.82a.9.9,0,0,0,0-1.8.9.9,0,0,0,0,1.8Z"/><path d="M215.66,85.33a.9.9,0,0,0,0-1.8.9.9,0,0,0,0,1.8Z"/><path d="M210.63,111.25a.9.9,0,0,0,0-1.8.9.9,0,0,0,0,1.8Z"/><path d="M203.09,113.92a.9.9,0,0,0,0-1.8.9.9,0,0,0,0,1.8Z"/><path d="M200,95.39a.9.9,0,0,0,0-1.8.9.9,0,0,0,0,1.8Z"/><path d="M201.05,91.3a.9.9,0,0,0,0-1.8.9.9,0,0,0,0,1.8Z"/><path d="M210.63,88.16a.9.9,0,0,0,0-1.8.9.9,0,0,0,0,1.8Z"/><path class="cls-9" d="M247.82,40.59c-.79-.05-3.8-5-6.71-9.74-1.73-2.83-2.66-4.53-3.27-5.65a10.65,10.65,0,0,0-2.1-3,12.28,12.28,0,0,0-5.68-3.24A20.08,20.08,0,0,1,224,16c-3.61-2.56-7-6.31-6.65-7,0-.09.31-.24,1.05-.24,4.93,0,20.65,6.13,26.82,19.94C247.7,34.25,248.35,40.07,247.82,40.59Z"/><path d="M218.38,9h0c4.88,0,20.43,6.08,26.54,19.77,2.13,4.78,2.94,10,2.73,11.36-1.06-.9-3.71-5.24-6.29-9.45-1.73-2.83-2.65-4.52-3.27-5.64A10.84,10.84,0,0,0,236,22a12.68,12.68,0,0,0-5.8-3.31,19.82,19.82,0,0,1-6-2.91c-3.45-2.45-6.41-5.75-6.54-6.62a2.13,2.13,0,0,1,.76-.1m0-.6c-.73,0-1.19.14-1.32.41-.51,1.06,3.51,5.09,6.75,7.39,5.4,3.83,7.88,2.34,11.72,6.16,1.64,1.63,1.28,2,5.33,8.62,3.42,5.6,6,9.89,7,9.89a.26.26,0,0,0,.13,0c.89-.49-.11-7-2.49-12.32-6.28-14.06-22.32-20.12-27.09-20.12Z"/><path d="M202.89,184.19c-1-.84-4.14-4.1-10.19-10.94a2.25,2.25,0,0,1-.51-1.93l4-19.16a2.23,2.23,0,0,1,2.86-1.68,50.18,50.18,0,0,0,15,2.13c1,0,2.06,0,3.1-.08h.12a2.25,2.25,0,0,1,1.7.78,2.2,2.2,0,0,1,.53,1.77L216.55,176a2.22,2.22,0,0,1-1.07,1.61C207.71,182.2,204.07,183.86,202.89,184.19Z"/><path d="M198.35,152.18l.13,0A52,52,0,0,0,214,154.41q1.57,0,3.22-.08a.44.44,0,0,1,.34.16.4.4,0,0,1,.1.34l-2.94,20.92a.43.43,0,0,1-.21.31,109.52,109.52,0,0,1-11.24,6.05c-1.37-1.34-4.23-4.34-9.26-10.05a.43.43,0,0,1-.1-.37l4-19.16a.43.43,0,0,1,.42-.35m0-3.61a4,4,0,0,0-4,3.22l-4,19.16a4,4,0,0,0,.92,3.49c2.94,3.33,9.8,11,11,11.58a.6.6,0,0,0,.25,0c1.89,0,10.18-4.78,13.77-6.9a4,4,0,0,0,1.94-2.91l2.94-20.92a4,4,0,0,0-4-4.6h-.21q-1.56.08-3,.07a48.22,48.22,0,0,1-14.48-2,4,4,0,0,0-1.22-.19Z"/><path class="cls-6" d="M203.93,245.22a10.75,10.75,0,0,0,16.75,8.54c38-25.58,43.43-59.17,41.32-82.84a116.73,116.73,0,0,0-13.62-44.58,10.75,10.75,0,0,0-18.55,10.86h0a96.18,96.18,0,0,1,10.82,36.3c2.07,25.74-8.69,46.74-32,62.44A10.74,10.74,0,0,0,203.93,245.22Z"/><path class="cls-10" d="M179.66,73.8s-9.26,16,0,16S179.66,73.8,179.66,73.8Z"/></g></g></svg>