<svg xmlns="http://www.w3.org/2000/svg" viewBox="0 0 202.51 259.6"><defs><style>.cls-1,.cls-2,.cls-3,.cls-4,.cls-5,.cls-6,.cls-7{stroke:#000;}.cls-1,.cls-3,.cls-4{stroke-linejoin:round;}.cls-1,.cls-2,.cls-4,.cls-5,.cls-6,.cls-7{stroke-width:3.61px;}.cls-2,.cls-3,.cls-4,.cls-5,.cls-8{fill:#fff;}.cls-2,.cls-3,.cls-4,.cls-7{stroke-linecap:round;}.cls-2,.cls-5,.cls-6,.cls-7{stroke-miterlimit:10;}.cls-3{stroke-width:4.31px;}.cls-7{fill:none;}.cls-9{fill:#84eae0;}</style></defs><title>error-message_1</title><g id="Layer_2" data-name="Layer 2"><g id="Layer_1-2" data-name="Layer 1"><path class="cls-1" d="M50.08,225.25H27.9c-2.16,0-4.33,0-6.49.18-3.26.2-10,0-12.2-4.84C7.35,216.36.41,193.27,2.05,189c2.51-6.45,7.89-7.53,10-4.66,1.73,2.31,6,12.52,7.63,16.41A2.44,2.44,0,0,0,22,202.31H50.08"/><path class="cls-1" d="M50.91,225.25H28.74c-2.16,0-4.33,0-6.49.18-3.26.2-10,0-12.2-4.84C7.19,214.13.38,195.5,2.88,189s7.89-7.53,10-4.66c1.73,2.31,6,12.52,7.63,16.41a2.44,2.44,0,0,0,2.26,1.51H50.91"/><path d="M50.57,225.53c-.8-.94-2.27-4.87-2.27-11.64s1.46-10.7,2.27-11.64c.8.94,2.27,4.87,2.27,11.64S51.38,224.59,50.57,225.53Z"/><path d="M50.57,207.88a39,39,0,0,1,0,12,39,39,0,0,1,0-12m0-7.58c-2.25,0-4.07,6.08-4.07,13.58s1.82,13.58,4.07,13.58,4.07-6.08,4.07-13.58-1.82-13.58-4.07-13.58Z"/><path class="cls-1" d="M50.08,257.29H27.9c-2.16,0-4.33,0-6.49.18-3.26.2-10,0-12.2-4.84-1.88-4.22-8.81-27.32-7.17-31.54,2.51-6.45,7.89-7.53,10-4.66,1.73,2.31,6,12.52,7.63,16.41A2.44,2.44,0,0,0,22,234.35H50.08"/><path class="cls-1" d="M50.91,257.29H28.74c-2.16,0-4.33,0-6.49.18-3.26.2-10,0-12.2-4.84-2.87-6.45-9.68-25.09-7.17-31.54s7.89-7.53,10-4.66c1.73,2.31,6,12.52,7.63,16.41a2.44,2.44,0,0,0,2.26,1.51H50.91"/><path d="M50.57,257.57c-.8-.94-2.27-4.87-2.27-11.64s1.46-10.7,2.27-11.64c.8.94,2.27,4.87,2.27,11.64S51.38,256.63,50.57,257.57Z"/><path d="M50.57,239.93a39,39,0,0,1,0,12,39,39,0,0,1,0-12m0-7.58c-2.25,0-4.07,6.08-4.07,13.58s1.82,13.58,4.07,13.58,4.07-6.08,4.07-13.58-1.82-13.58-4.07-13.58Z"/><rect class="cls-2" x="90.46" y="165.89" width="14.45" height="96.14" transform="translate(311.65 116.27) rotate(90)"/><rect class="cls-2" x="90.46" y="197.94" width="14.45" height="96.14" transform="translate(343.69 148.32) rotate(90)"/><path d="M122.73,214.55a.9.9,0,0,0,0-1.8.9.9,0,0,0,0,1.8Z"/><path d="M101.68,216.12a.9.9,0,0,0,0-1.8.9.9,0,0,0,0,1.8Z"/><path d="M111.42,216.75a.9.9,0,0,0,0-1.8.9.9,0,0,0,0,1.8Z"/><path d="M84.4,213a.9.9,0,0,0,0-1.8.9.9,0,0,0,0,1.8Z"/><path d="M76.23,218.95a.9.9,0,0,0,0-1.8.9.9,0,0,0,0,1.8Z"/><path d="M64.92,213.29a.9.9,0,0,0,0-1.8.9.9,0,0,0,0,1.8Z"/><path d="M55.59,218a.9.9,0,0,0,0-1.8.9.9,0,0,0,0,1.8Z"/><path d="M91.94,218a.9.9,0,0,0,0-1.8.9.9,0,0,0,0,1.8Z"/><path d="M113.62,243.14a.9.9,0,0,0,0-1.8.9.9,0,0,0,0,1.8Z"/><path d="M104.5,253.51a.9.9,0,0,0,0-1.8.9.9,0,0,0,0,1.8Z"/><path d="M104.19,251a.9.9,0,0,0,0-1.8.9.9,0,0,0,0,1.8Z"/><path d="M87.22,245.65a.9.9,0,0,0,0-1.8.9.9,0,0,0,0,1.8Z"/><path d="M119.58,249.74a.9.9,0,0,0,0-1.8.9.9,0,0,0,0,1.8Z"/><path d="M96.65,246.28a.9.9,0,0,0,0-1.8.9.9,0,0,0,0,1.8Z"/><path d="M78.43,251.62a.9.9,0,0,0,0-1.8.9.9,0,0,0,0,1.8Z"/><path d="M66.18,245.65a.9.9,0,0,0,0-1.8.9.9,0,0,0,0,1.8Z"/><path d="M58.64,249.11a.9.9,0,0,0,0-1.8.9.9,0,0,0,0,1.8Z"/><path d="M77.17,246a.9.9,0,0,0,0-1.8.9.9,0,0,0,0,1.8Z"/><path d="M128.66,251.94a.9.9,0,0,0,0-1.8.9.9,0,0,0,0,1.8Z"/><path d="M101.33,249.11a.9.9,0,0,0,0-1.8.9.9,0,0,0,0,1.8Z"/><path d="M95.36,250.15a.9.9,0,0,0,0-1.8.9.9,0,0,0,0,1.8Z"/><path d="M96,211.09a.9.9,0,0,0,0-1.8.9.9,0,0,0,0,1.8Z"/><path d="M105.13,244.39a.9.9,0,0,0,0-1.8.9.9,0,0,0,0,1.8Z"/><path d="M112.36,248.48a.9.9,0,0,0,0-1.8.9.9,0,0,0,0,1.8Z"/><path d="M68.37,250.36a.9.9,0,0,0,0-1.8.9.9,0,0,0,0,1.8Z"/><path d="M111.73,212.35a.9.9,0,0,0,0-1.8.9.9,0,0,0,0,1.8Z"/><path d="M73.09,213a.9.9,0,0,0,0-1.8.9.9,0,0,0,0,1.8Z"/><path d="M64.6,218.95a.9.9,0,0,0,0-1.8.9.9,0,0,0,0,1.8Z"/><path d="M56.44,211.72a.9.9,0,0,0,0-1.8.9.9,0,0,0,0,1.8Z"/><path d="M55,244.08a.9.9,0,0,0,0-1.8.9.9,0,0,0,0,1.8Z"/><path d="M52.45,249.74a.9.9,0,0,0,0-1.8.9.9,0,0,0,0,1.8Z"/><path d="M124,242.2a.9.9,0,0,0,0-1.8.9.9,0,0,0,0,1.8Z"/><path d="M89.42,249.42a.9.9,0,0,0,0-1.8.9.9,0,0,0,0,1.8Z"/><path d="M132.43,247.23a.9.9,0,0,0,0-1.8.9.9,0,0,0,0,1.8Z"/><path d="M118,218.32a.9.9,0,0,0,0-1.8.9.9,0,0,0,0,1.8Z"/><path d="M127.12,210.15a.9.9,0,0,0,0-1.8.9.9,0,0,0,0,1.8Z"/><path d="M83.14,218.32a.9.9,0,0,0,0-1.8.9.9,0,0,0,0,1.8Z"/><path d="M93,244.24a.9.9,0,0,0,0-1.8.9.9,0,0,0,0,1.8Z"/><path d="M104.19,210.46a.9.9,0,0,0,0-1.8.9.9,0,0,0,0,1.8Z"/><path class="cls-3" d="M145.42,217.88h7.09a19.93,19.93,0,0,1,19.93,19.93V270a0,0,0,0,1,0,0h-27a0,0,0,0,1,0,0V217.88A0,0,0,0,1,145.42,217.88Z" transform="translate(402.87 85) rotate(90)"/><rect class="cls-4" x="122.73" y="193.85" width="27.02" height="36.44" transform="translate(348.31 75.84) rotate(90)"/><path class="cls-4" d="M78.8,230.52s51.52,28.9,121.9-7.54L166.34,120.44a40.71,40.71,0,0,0-38.38-28l-1.2,0a27.77,27.77,0,0,0-26.16,22.75Z"/><path class="cls-5" d="M49,77.32C60.5,43.94,66.25,27.25,78.79,21.14c2.89-1.41,12.06-5.88,23-3.77,24.51,4.73,44.92,40,34.69,68.24-6.59,18.15-26.26,34.48-40.72,31.29C80.88,113.64,70.93,89.6,56.16,91.27c-1.73.2-5.45,1-7.54-1.13C45.68,87.19,47.89,80.54,49,77.32Z"/><path class="cls-6" d="M54.93,25.26c-1.8,11.16,7.54,24.15,18.85,27.17,12.92,3.44,24.63-7.14,29.53-2.83,4.31,3.79-4.32,12.36-.63,20.94,4.57,10.6,26.27,17.33,39,11.32,16.89-8,19-39.18,4.4-58.86C134.27,7.16,112.85.37,94.51,2.05,82.88,3.12,57.56,9,54.93,25.26Z"/><path class="cls-7" d="M65.62,65.3s10.18,7.36,18.85,0"/><path class="cls-8" d="M106.5,77.74c-.41-.4,2.67-11.87,6.94-13.39a4,4,0,0,1,2.38-.15c3.45.89,5.24,6.75,3,12.28-2,5-7.72,7.9-8.5,7.06C105.82,78.72,109.23,80.4,106.5,77.74Z"/><path class="cls-7" d="M92.05,97.15c-3.75,1.13-7.1,3.22-10.95,7.25-.49.51-.94,1-1.36,1.55"/><path class="cls-2" d="M114.4,71.1A18.49,18.49,0,0,0,112,76.52"/><path d="M91.69,110a.9.9,0,0,0,0-1.8.9.9,0,0,0,0,1.8Z"/><path d="M96.24,101.36a.9.9,0,0,0,0-1.8.9.9,0,0,0,0,1.8Z"/><path d="M100.17,99a.9.9,0,0,0,0-1.8.9.9,0,0,0,0,1.8Z"/><path d="M97.65,110.78a.9.9,0,0,0,0-1.8.9.9,0,0,0,0,1.8Z"/><path d="M100.17,105.75a.9.9,0,0,0,0-1.8.9.9,0,0,0,0,1.8Z"/><path d="M95.3,106.7a.9.9,0,0,0,0-1.8.9.9,0,0,0,0,1.8Z"/><path d="M103.78,110.47a.9.9,0,0,0,0-1.8.9.9,0,0,0,0,1.8Z"/><path d="M104.72,99.79a.9.9,0,0,0,0-1.8.9.9,0,0,0,0,1.8Z"/><path d="M104.88,104a.9.9,0,0,0,0-1.8.9.9,0,0,0,0,1.8Z"/><path d="M110.85,107.17a.9.9,0,0,0,0-1.8.9.9,0,0,0,0,1.8Z"/><path d="M109.12,104a.9.9,0,0,0,0-1.8.9.9,0,0,0,0,1.8Z"/><path d="M103.31,89.57a.9.9,0,0,0,0-1.8.9.9,0,0,0,0,1.8Z"/><path d="M109.59,82.35a.9.9,0,0,0,0-1.8.9.9,0,0,0,0,1.8Z"/><path d="M104.09,94a.9.9,0,0,0,0-1.8.9.9,0,0,0,0,1.8Z"/><path d="M108.18,94.92a.9.9,0,0,0,0-1.8.9.9,0,0,0,0,1.8Z"/><path d="M110.85,99a.9.9,0,0,0,0-1.8.9.9,0,0,0,0,1.8Z"/><path d="M111.32,93.82a.9.9,0,0,0,0-1.8.9.9,0,0,0,0,1.8Z"/><path d="M113.36,85.33a.9.9,0,0,0,0-1.8.9.9,0,0,0,0,1.8Z"/><path d="M108.34,111.25a.9.9,0,0,0,0-1.8.9.9,0,0,0,0,1.8Z"/><path d="M100.8,113.92a.9.9,0,0,0,0-1.8.9.9,0,0,0,0,1.8Z"/><path d="M97.65,95.39a.9.9,0,0,0,0-1.8.9.9,0,0,0,0,1.8Z"/><path d="M98.75,91.3a.9.9,0,0,0,0-1.8.9.9,0,0,0,0,1.8Z"/><path d="M108.34,88.16a.9.9,0,0,0,0-1.8.9.9,0,0,0,0,1.8Z"/><path class="cls-8" d="M145.53,40.59c-.79-.05-3.8-5-6.71-9.74-1.73-2.83-2.66-4.53-3.27-5.65a10.65,10.65,0,0,0-2.1-3,12.28,12.28,0,0,0-5.68-3.24,20.08,20.08,0,0,1-6.08-3c-3.61-2.56-7-6.31-6.65-7,0-.09.31-.24,1.05-.24,4.93,0,20.65,6.13,26.82,19.94C145.4,34.25,146.05,40.07,145.53,40.59Z"/><path d="M116.09,9h0c4.88,0,20.43,6.08,26.54,19.77,2.13,4.78,2.94,10,2.73,11.36-1.06-.9-3.71-5.24-6.29-9.45-1.73-2.83-2.65-4.52-3.27-5.64a10.84,10.84,0,0,0-2.15-3.1,12.68,12.68,0,0,0-5.8-3.31,19.82,19.82,0,0,1-6-2.91c-3.45-2.45-6.41-5.75-6.54-6.62a2.13,2.13,0,0,1,.76-.1m0-.6c-.73,0-1.19.14-1.32.41-.51,1.06,3.51,5.09,6.75,7.39,5.4,3.83,7.88,2.34,11.72,6.16,1.64,1.63,1.28,2,5.33,8.62,3.42,5.6,6,9.89,7,9.89a.26.26,0,0,0,.13,0c.89-.49-.11-7-2.49-12.32-6.28-14.06-22.32-20.12-27.09-20.12Z"/><path d="M100.59,184.19c-1-.84-4.14-4.1-10.19-10.94a2.25,2.25,0,0,1-.51-1.93l4-19.16a2.23,2.23,0,0,1,2.86-1.68,50.18,50.18,0,0,0,15,2.13c1,0,2.06,0,3.1-.08H115a2.25,2.25,0,0,1,1.7.78,2.2,2.2,0,0,1,.53,1.77L114.25,176a2.22,2.22,0,0,1-1.07,1.61C105.41,182.2,101.77,183.86,100.59,184.19Z"/><path d="M96.05,152.18l.13,0a52,52,0,0,0,15.56,2.22q1.57,0,3.22-.08a.44.44,0,0,1,.34.16.4.4,0,0,1,.1.34l-2.94,20.92a.43.43,0,0,1-.21.31A109.52,109.52,0,0,1,101,182.11c-1.37-1.34-4.23-4.34-9.26-10.05a.43.43,0,0,1-.1-.37l4-19.16a.43.43,0,0,1,.42-.35m0-3.61a4,4,0,0,0-4,3.22l-4,19.16a4,4,0,0,0,.92,3.49c2.94,3.33,9.8,11,11,11.58a.6.6,0,0,0,.25,0c1.89,0,10.18-4.78,13.77-6.9a4,4,0,0,0,1.94-2.91L119,155.33a4,4,0,0,0-4-4.6h-.21q-1.56.08-3,.07a48.22,48.22,0,0,1-14.48-2,4,4,0,0,0-1.22-.19Z"/><path class="cls-5" d="M101.63,245.22a10.75,10.75,0,0,0,16.75,8.54c38-25.58,43.43-59.17,41.32-82.84a116.73,116.73,0,0,0-13.62-44.58,10.75,10.75,0,0,0-18.55,10.86h0a96.18,96.18,0,0,1,10.82,36.3c2.07,25.74-8.69,46.74-32,62.44A10.74,10.74,0,0,0,101.63,245.22Z"/><path class="cls-9" d="M77.36,73.8s-9.26,16,0,16S77.36,73.8,77.36,73.8Z"/></g></g></svg>