<?xml version="1.0" encoding="UTF-8" standalone="no"?>
<svg xmlns="http://www.w3.org/2000/svg" viewBox="0 0 202.51 259.6">
<defs>
<style>.cls-1,.cls-2,.cls-3,.cls-4,.cls-5,.cls-6,.cls-7{stroke:#000;}.cls-1,.cls-3,.cls-4{stroke-linejoin:round;}.cls-1,.cls-2,.cls-4,.cls-5,.cls-6,.cls-7{stroke-width:3.61px;}.cls-2,.cls-3,.cls-4,.cls-5,.cls-8{fill:#fff;}.cls-2,.cls-3,.cls-4,.cls-7{stroke-linecap:round;}.cls-2,.cls-5,.cls-6,.cls-7{stroke-miterlimit:10;}.cls-3{stroke-width:4.31px;}.cls-7{fill:none;}.cls-9{fill:#84eae0;}</style>
</defs>
<title>error-message_1</title>
<g data-name="Layer 2">
<g data-name="Layer 1">
<path class="cls-1" d="m50.1 225h-22.2c-2.16 0-4.33 0-6.49 0.18-3.26 0.2-10 0-12.2-4.84-1.85-4-8.79-27-7.15-31 2.51-6.45 7.89-7.53 10-4.66 1.73 2.31 6 12.5 7.63 16.4a2.44 2.44 0 0 0 2.4 1h28.1"/>
<path class="cls-1" d="m50.9 225h-22.2c-2.16 0-4.33 0-6.49 0.18-3.26 0.2-10 0-12.2-4.84-2.81-6-9.62-24-7.12-31s7.89-7.53 10-4.66c1.73 2.31 6 12.5 7.63 16.4a2.44 2.44 0 0 0 2.26 1.51h28.1"/>
<path d="m50.6 226c-0.8-0.94-2.27-4.87-2.27-11.6s1.46-10.7 2.27-11.6c0.8 0.94 2.27 4.87 2.27 11.6s-1.5 11-2.3 12z"/>
<path d="m50.6 208a39 39 0 0 1 0 12 39 39 0 0 1 0 -12m0-7.58c-2.25 0-4.07 6.08-4.07 13.6s1.82 13.6 4.07 13.6 4.07-6.08 4.07-13.6-1.82-13.6-4.07-13.6z"/>
<path class="cls-1" d="m50.1 257h-22.2c-2.16 0-4.33 0-6.49 0.18-3.26 0.2-10 0-12.2-4.84-1.88-4.22-8.81-27.3-7.17-31.5 2.51-6.45 7.89-7.53 10-4.66 1.73 2.31 6 12.5 7.63 16.4a2.44 2.44 0 0 0 2.4 2h28.1"/>
<path class="cls-1" d="m50.9 257h-22.2c-2.16 0-4.33 0-6.49 0.18-3.26 0.2-10 0-12.2-4.84-2.87-6.45-9.68-25.1-7.17-31.5s7.89-7.53 10-4.66c1.73 2.31 6 12.5 7.63 16.4a2.44 2.44 0 0 0 2.26 1.51h28.2"/>
<path d="m50.6 258c-0.8-0.94-2.27-4.87-2.27-11.6s1.46-10.7 2.27-11.6c0.8 0.94 2.27 4.87 2.27 11.6s-1.5 11-2.3 12z"/>
<path d="m50.6 240a39 39 0 0 1 0 12 39 39 0 0 1 0 -12m0-7.58c-2.25 0-4.07 6.08-4.07 13.6s1.82 13.6 4.07 13.6 4.07-6.08 4.07-13.6-1.82-13.6-4.07-13.6z"/>
<rect transform="translate(312 116) rotate(90)" height="96.1" width="14.4" y="166" x="90.5" class="cls-2"/>
<rect transform="translate(344 148) rotate(90)" height="96.1" width="14.4" y="198" x="90.5" class="cls-2"/>
<path d="m123 215a0.9 0.9 0 0 0 0 -1.8 0.9 0.9 0 0 0 0 1.8z"/>
<path d="m102 216a0.9 0.9 0 0 0 0 -1.8 0.9 0.9 0 0 0 0 1.8z"/>
<path d="m111 217a0.9 0.9 0 0 0 0 -1.8 0.9 0.9 0 0 0 0 1.8z"/>
<path d="m84.4 213a0.9 0.9 0 0 0 0 -1.8 0.9 0.9 0 0 0 0 1.8z"/>
<path d="m76.2 219a0.9 0.9 0 0 0 0 -1.8 0.9 0.9 0 0 0 0 1.8z"/>
<path d="m64.9 213a0.9 0.9 0 0 0 0 -1.8 0.9 0.9 0 0 0 0 1.8z"/>
<path d="m55.6 218a0.9 0.9 0 0 0 0 -1.8 0.9 0.9 0 0 0 0 1.8z"/>
<path d="m91.9 218a0.9 0.9 0 0 0 0 -1.8 0.9 0.9 0 0 0 0 1.8z"/>
<path d="m114 243a0.9 0.9 0 0 0 0 -1.8 0.9 0.9 0 0 0 0 1.8z"/>
<path d="m104 254a0.9 0.9 0 0 0 0 -1.8 0.9 0.9 0 0 0 0 1.8z"/>
<path d="m104 251a0.9 0.9 0 0 0 0 -1.8 0.9 0.9 0 0 0 0 1.8z"/>
<path d="m87.2 246a0.9 0.9 0 0 0 0 -1.8 0.9 0.9 0 0 0 0 1.8z"/>
<path d="m120 250a0.9 0.9 0 0 0 0 -1.8 0.9 0.9 0 0 0 0 1.8z"/>
<path d="m96.6 246a0.9 0.9 0 0 0 0 -1.8 0.9 0.9 0 0 0 0 1.8z"/>
<path d="m78.4 252a0.9 0.9 0 0 0 0 -1.8 0.9 0.9 0 0 0 0 1.8z"/>
<path d="m66.2 246a0.9 0.9 0 0 0 0 -1.8 0.9 0.9 0 0 0 0 1.8z"/>
<path d="m58.6 249a0.9 0.9 0 0 0 0 -1.8 0.9 0.9 0 0 0 0 1.8z"/>
<path d="m77.2 246a0.9 0.9 0 0 0 0 -1.8 0.9 0.9 0 0 0 0 1.8z"/>
<path d="m129 252a0.9 0.9 0 0 0 0 -1.8 0.9 0.9 0 0 0 0 1.8z"/>
<path d="m101 249a0.9 0.9 0 0 0 0 -1.8 0.9 0.9 0 0 0 0 1.8z"/>
<path d="m95.4 250a0.9 0.9 0 0 0 0 -1.8 0.9 0.9 0 0 0 0 1.8z"/>
<path d="m96 211a0.9 0.9 0 0 0 0 -1.8 0.9 0.9 0 0 0 0 1.8z"/>
<path d="m105 244a0.9 0.9 0 0 0 0 -1.8 0.9 0.9 0 0 0 0 1.8z"/>
<path d="m112 248a0.9 0.9 0 0 0 0 -1.8 0.9 0.9 0 0 0 0 1.8z"/>
<path d="m68.4 250a0.9 0.9 0 0 0 0 -1.8 0.9 0.9 0 0 0 0 1.8z"/>
<path d="m112 212a0.9 0.9 0 0 0 0 -1.8 0.9 0.9 0 0 0 0 1.8z"/>
<path d="m73.1 213a0.9 0.9 0 0 0 0 -1.8 0.9 0.9 0 0 0 0 1.8z"/>
<path d="m64.6 219a0.9 0.9 0 0 0 0 -1.8 0.9 0.9 0 0 0 0 1.8z"/>
<path d="m56.4 212a0.9 0.9 0 0 0 0 -1.8 0.9 0.9 0 0 0 0 1.8z"/>
<path d="m55 244a0.9 0.9 0 0 0 0 -1.8 0.9 0.9 0 0 0 0 1.8z"/>
<path d="m52.4 250a0.9 0.9 0 0 0 0 -1.8 0.9 0.9 0 0 0 0 1.8z"/>
<path d="m124 242a0.9 0.9 0 0 0 0 -1.8 0.9 0.9 0 0 0 0 1.8z"/>
<path d="m89.4 249a0.9 0.9 0 0 0 0 -1.8 0.9 0.9 0 0 0 0 1.8z"/>
<path d="m132 247a0.9 0.9 0 0 0 0 -1.8 0.9 0.9 0 0 0 0 1.8z"/>
<path d="m118 218a0.9 0.9 0 0 0 0 -1.8 0.9 0.9 0 0 0 0 1.8z"/>
<path d="m127 210a0.9 0.9 0 0 0 0 -1.8 0.9 0.9 0 0 0 0 1.8z"/>
<path d="m83.1 218a0.9 0.9 0 0 0 0 -1.8 0.9 0.9 0 0 0 0 1.8z"/>
<path d="m93 244a0.9 0.9 0 0 0 0 -1.8 0.9 0.9 0 0 0 0 1.8z"/>
<path d="m104 210a0.9 0.9 0 0 0 0 -1.8 0.9 0.9 0 0 0 0 1.8z"/>
<path transform="translate(403 85) rotate(90)" class="cls-3" d="m145 218h7.09a19.9 19.9 0 0 1 19.9 19.9v32h-27v-52z"/>
<rect transform="translate(348 75.8) rotate(90)" height="36.4" width="27" y="194" x="123" class="cls-4"/>
<path class="cls-4" d="m78.8 231s51.5 28.9 122-7.54l-35-103a40.7 40.7 0 0 0 -38.4 -28h-1.2a27.8 27.8 0 0 0 -26.2 22.8z"/>
<path class="cls-5" d="m49 77.3c11.5-33.4 17.2-50.1 29.8-56.2 2.89-1.41 12.1-5.88 23-3.77 24.5 4.73 44.9 40 34.7 68.2-6.59 18.2-26.3 34.5-40.7 31.3-14.9-3-24.9-27.4-39.6-25.7-1.73 0.2-5.45 1-7.54-1.13-3-3-0.8-9.7 0.3-12.9z"/>
<path class="cls-6" d="m54.9 25.3c-1.8 11.2 7.54 24.2 18.8 27.2 12.9 3.44 24.6-7.14 29.5-2.83 4.31 3.79-4.32 12.4-0.63 20.9 4.57 10.6 26.3 17.3 39 11.3 16.9-8 19-39.2 4.4-58.9-12-15.8-33-22.6-51.5-21-11.6 1.12-36.9 7-39.6 23.3z"/>
<path class="cls-7" d="m65.6 65.3s10.2 7.36 18.8 0"/>
<path class="cls-8" d="m106 77.7c-0.41-0.4 2.67-11.9 6.94-13.4a4 4 0 0 1 2.38 -0.15c3.45 0.89 5.24 6.75 3 12.3-2 5-7.72 7.9-8.5 7.06-4-4.9-1-3.2-4-5.9z"/>
<path class="cls-7" d="m92 97.2c-3.75 1.13-7.1 3.22-11 7.25-0.49 0.51-0.94 1-1.36 1.55"/>
<path class="cls-2" d="m114 71.1a18.5 18.5 0 0 0 -2 5.4"/>
<path d="m91.7 110a0.9 0.9 0 0 0 0 -1.8 0.9 0.9 0 0 0 0 1.8z"/>
<path d="m96.2 101a0.9 0.9 0 0 0 0 -1.8 0.9 0.9 0 0 0 0 1.8z"/>
<path d="m100 99a0.9 0.9 0 0 0 0 -1.8 0.9 0.9 0 0 0 0 1.8z"/>
<path d="m97.6 111a0.9 0.9 0 0 0 0 -1.8 0.9 0.9 0 0 0 0 1.8z"/>
<path d="m100 106a0.9 0.9 0 0 0 0 -1.8 0.9 0.9 0 0 0 0 1.8z"/>
<path d="m95.3 107a0.9 0.9 0 0 0 0 -1.8 0.9 0.9 0 0 0 0 1.8z"/>
<path d="m104 110a0.9 0.9 0 0 0 0 -1.8 0.9 0.9 0 0 0 0 1.8z"/>
<path d="m105 99.8a0.9 0.9 0 0 0 0 -1.8 0.9 0.9 0 0 0 0 1.8z"/>
<path d="m105 104a0.9 0.9 0 0 0 0 -1.8 0.9 0.9 0 0 0 0 1.8z"/>
<path d="m111 107a0.9 0.9 0 0 0 0 -1.8 0.9 0.9 0 0 0 0 1.8z"/>
<path d="m109 104a0.9 0.9 0 0 0 0 -1.8 0.9 0.9 0 0 0 0 1.8z"/>
<path d="m103 89.6a0.9 0.9 0 0 0 0 -1.8 0.9 0.9 0 0 0 0 1.8z"/>
<path d="m110 82.4a0.9 0.9 0 0 0 0 -1.8 0.9 0.9 0 0 0 0 1.8z"/>
<path d="m104 94a0.9 0.9 0 0 0 0 -1.8 0.9 0.9 0 0 0 0 1.8z"/>
<path d="m108 94.9a0.9 0.9 0 0 0 0 -1.8 0.9 0.9 0 0 0 0 1.8z"/>
<path d="m111 99a0.9 0.9 0 0 0 0 -1.8 0.9 0.9 0 0 0 0 1.8z"/>
<path d="m111 93.8a0.9 0.9 0 0 0 0 -1.8 0.9 0.9 0 0 0 0 1.8z"/>
<path d="m113 85.3a0.9 0.9 0 0 0 0 -1.8 0.9 0.9 0 0 0 0 1.8z"/>
<path d="m108 111a0.9 0.9 0 0 0 0 -1.8 0.9 0.9 0 0 0 0 1.8z"/>
<path d="m101 114a0.9 0.9 0 0 0 0 -1.8 0.9 0.9 0 0 0 0 1.8z"/>
<path d="m97.6 95.4a0.9 0.9 0 0 0 0 -1.8 0.9 0.9 0 0 0 0 1.8z"/>
<path d="m98.8 91.3a0.9 0.9 0 0 0 0 -1.8 0.9 0.9 0 0 0 0 1.8z"/>
<path d="m108 88.2a0.9 0.9 0 0 0 0 -1.8 0.9 0.9 0 0 0 0 1.8z"/>
<path class="cls-8" d="m146 40.6c-0.79-0.05-3.8-5-6.71-9.74-1.73-2.83-2.66-4.53-3.27-5.65a10.6 10.6 0 0 0 -2.1 -3 12.3 12.3 0 0 0 -5.68 -3.24 20.1 20.1 0 0 1 -6.08 -3c-3.61-2.56-7-6.31-6.65-7 0-0.09 0.31-0.24 1.05-0.24 4.93 0 20.6 6.13 26.8 19.9 2 5.5 3 11.4 3 11.9z"/>
<path d="m116 9c4.88 0 20.4 6.08 26.5 19.8 2.13 4.78 2.94 10 2.73 11.4-1.06-0.9-3.71-5.24-6.29-9.45-1.73-2.83-2.65-4.52-3.27-5.64a10.8 10.8 0 0 0 -2.15 -3.1 12.7 12.7 0 0 0 -5.8 -3.31 19.8 19.8 0 0 1 -6 -2.91c-3.45-2.45-6.41-5.75-6.54-6.62a2.13 2.13 0 0 1 0.76 -0.1m0-0.6c-0.73 0-1.19 0.14-1.32 0.41-0.51 1.06 3.51 5.09 6.75 7.39 5.4 3.83 7.88 2.34 11.7 6.16 1.64 1.63 1.28 2 5.33 8.62 3.42 5.6 6 9.89 7 9.89a0.26 0.26 0 0 0 0.13 0c0.89-0.49-0.11-7-2.49-12.3-6.28-14.1-22.3-20.1-27.1-20.1z"/>
<path d="m101 184c-1-0.84-4.14-4.1-10.2-10.9a2.25 2.25 0 0 1 -0.51 -1.93l4-19.2a2.23 2.23 0 0 1 2.86 -1.68 50.2 50.2 0 0 0 15 2.13c1 0 2.06 0 3.1-0.08a2.25 2.25 0 0 1 1.7 0.78 2.2 2.2 0 0 1 0.53 1.77l-3 21a2.22 2.22 0 0 1 -1.07 1.61c-8 4-11 6-12 6z"/>
<path d="m96 152h0.13a52 52 0 0 0 15.6 2.22q1.57 0 3.22-0.08a0.44 0.44 0 0 1 0.34 0.16 0.4 0.4 0 0 1 0.1 0.34l-2.94 20.9a0.43 0.43 0 0 1 -0.21 0.31 110 110 0 0 1 -11 7c-1.37-1.34-4.23-4.34-9.26-10a0.43 0.43 0 0 1 -0.1 -0.37l4-19.2a0.43 0.43 0 0 1 0.42 -0.35m0-3.61a4 4 0 0 0 -4 3.22l-4 19.2a4 4 0 0 0 0.92 3.49c2.94 3.33 9.8 11 11 11.6a0.6 0.6 0 0 0 0.25 0c1.89 0 10.2-4.78 13.8-6.9a4 4 0 0 0 1.94 -2.91l3-21a4 4 0 0 0 -4 -4.6h-0.21q-1.56 0.08-3 0.07a48.2 48.2 0 0 1 -14.5 -2 4 4 0 0 0 -1.22 -0.19z"/>
<path class="cls-5" d="m102 245a10.8 10.8 0 0 0 16.8 8.54c38-25.6 43.4-59.2 41.3-82.8a117 117 0 0 0 -13.6 -44.6 10.8 10.8 0 0 0 -18.6 10.9 96.2 96.2 0 0 1 10.8 36.3c2.07 25.7-8.69 46.7-32 62.4a10.7 10.7 0 0 0 -5 10z"/>
<path class="cls-9" d="m77.4 73.8s-9.26 16 0 16 0-16 0-16z"/>
</g>
</g>
</svg>
