<svg xmlns="http://www.w3.org/2000/svg" viewBox="0 0 37.55 37.55"><defs><style>.cls-1{fill:#fff;}</style></defs><title>facebook</title><g id="Layer_2" data-name="Layer 2"><g id="HOME"><g id="Facebook"><circle cx="18.77" cy="18.77" r="18.77"/><path class="cls-1" d="M24.74,7.84v4.08H21.5a1,1,0,0,0-1.15,1c0,1.09,0,2.18,0,3.31h4.41c0,.31,0,.57-.07.84-.09,1-.2,2-.27,2.94,0,.25-.15.27-.35.27H20.28V31.73H15.91V20.27H12.81v-4h3.1c0-.16,0-.29,0-.42q0-1.71,0-3.42a4.52,4.52,0,0,1,4-4.53C20.6,7.78,23.83,7.84,24.74,7.84Z"/></g></g></g></svg>