<?xml version="1.0" encoding="UTF-8" standalone="no"?>
<svg xmlns="http://www.w3.org/2000/svg" xmlns:xlink="http://www.w3.org/1999/xlink" viewBox="0 0 1106.97 532.44">
<defs>
<style>.cls-1,.cls-15,.cls-21,.cls-22,.cls-28,.cls-31{fill:none;}.cls-11,.cls-12,.cls-13,.cls-14,.cls-19,.cls-2,.cls-20,.cls-8,.cls-9{fill:#fff;}.cls-3{fill:#88aeea;}.cls-4{fill:#efe8aa;}.cls-5{fill:#80d692;}.cls-6{fill:url(#a);}.cls-7{fill:#06aee5;}.cls-10,.cls-11,.cls-12,.cls-13,.cls-14,.cls-15,.cls-16,.cls-18,.cls-19,.cls-20,.cls-21,.cls-22,.cls-23,.cls-24,.cls-25,.cls-26,.cls-27,.cls-28,.cls-29,.cls-31,.cls-32,.cls-33,.cls-8,.cls-9{stroke:#000;}.cls-10,.cls-11,.cls-13,.cls-15,.cls-16,.cls-20,.cls-22,.cls-31,.cls-33,.cls-8,.cls-9{stroke-linecap:round;}.cls-10,.cls-12,.cls-13,.cls-16,.cls-18,.cls-19,.cls-20,.cls-21,.cls-22,.cls-23,.cls-24,.cls-25,.cls-26,.cls-28,.cls-29,.cls-31,.cls-33,.cls-8,.cls-9{stroke-linejoin:round;}.cls-10,.cls-8{stroke-width:5px;}.cls-9{stroke-width:5.41px;}.cls-11,.cls-14,.cls-15,.cls-27,.cls-30,.cls-32{stroke-miterlimit:10;}.cls-11,.cls-12,.cls-13,.cls-14,.cls-15,.cls-16,.cls-26,.cls-27{stroke-width:1.77px;}.cls-17{fill:#ef8269;}.cls-18,.cls-19,.cls-20,.cls-22,.cls-28,.cls-30{stroke-width:1.77px;}.cls-21{stroke-width:1.86px;}.cls-23{stroke-width:0.43px;}.cls-24{stroke-width:1.23px;}.cls-25{stroke-width:0.43px;}.cls-29{stroke-width:1.07px;}.cls-30{stroke:#fff;}.cls-31,.cls-32,.cls-33{stroke-width:1.93px;}</style>
<pattern id="a" data-name="New Pattern 2" height="70" width="105" patternUnits="userSpaceOnUse" viewBox="0 0 105 70">
<rect width="105" class="cls-1" height="70"/>
<path class="cls-2" d="m81.4 68.9v0.1h0.41a1.3 1.3 0 0 1 0.2 -0.57h-0.2q-0.4 0.1-0.4 0.5z"/>
<path class="cls-2" d="m99 68.9h1.3v-0.38l-0.46-0.31h-0.5z"/>
<path d="m102 62.9c0-0.46-0.22-0.69-0.65-0.69l-0.37 0.69v0.37h1z"/>
<path class="cls-2" d="m100 68.2h-0.46l0.46 0.31z"/>
<path d="m95.8 68.6l0.2-0.53v-0.24h-0.73v0.24c0 0.4 0.2 0.5 0.5 0.5z"/>
<path d="m2.53 56.8h1q-0.28-1.3-2-1.3h-0.3q0 0.5 1.3 1.3z"/>
<polygon points="5.52 68.2 4.87 67.9 4.22 68.9 4.87 69.3"/>
<path d="m8.16 67.9q-0.29 0-0.29 0.33a4.17 4.17 0 0 0 -2 -0.61q0 0.81 2.6 1.3h0.69q0.02-0.4-1-1z"/>
<path d="m27.3 68.4a2.77 2.77 0 0 1 1.06 -0.32v-0.7l-0.86 0.3z"/>
<rect y="64.5" x="15" height=".81" class="cls-2" width=".45"/>
<path class="cls-2" d="m7.79 68.4c0 0.33 0.19 0.49 0.49 0.49h0.24v-0.3a1.89 1.89 0 0 1 -0.24 -0.73 0.47 0.47 0 0 0 -0.49 0.5z"/>
<path class="cls-2" d="m16.8 60.9v-0.29h-0.53v0.73c0.3 0.1 0.5-0.1 0.5-0.4z"/>
<path class="cls-2" d="m12.2 58.1h0.49v-0.29q0-0.36-0.77-0.81h-0.53q0.4 1.1 0.8 1.1z"/>
<path class="cls-2" d="m12.2 61.4h-0.53l-0.28 1.1q0.4 0 0.8-1.1z"/>
<path class="cls-2" d="m19.1 62.2v-0.24h-0.7q-0.41 0-0.81 0.77l0.53 0.24q1-0.5 1-0.8z"/>
<path class="cls-2" d="m7 57.8v0.53q0.37 0 0.81-0.77v-0.28h-0.3c-0.35 0.1-0.51 0.3-0.51 0.6z"/>
<path class="cls-2" d="m2.59 61.9h-0.77v0.77q0.4 0 0.77-0.8z"/>
<path class="cls-2" d="m8 61.9h-1.51v0.24q0.16 0 1.54 0.29z"/>
<path class="cls-2" d="m4.66 61.6q0 0.37 0.77 0.81h0.24a0.47 0.47 0 0 0 0.53 -0.53l-0.53-0.28z"/>
<path d="m21 62.7h0.73l1.3-0.24v-0.53q0-0.24-1.79-1.58c0 0.19-0.08 0.28-0.24 0.28l0.24 0.53v1z"/>
<path d="m27.7 63h0.24a1.87 1.87 0 0 1 0.77 -0.24v-0.53h-0.24q-0.4-0.1-0.8 0.7z"/>
<path class="cls-2" d="m88.5 2.6q0-0.49-1-1.06v1.06a3.14 3.14 0 0 1 1 0.24z"/>
<path class="cls-2" d="m90.4 16.3l0.37-0.69v-0.33h-1v0.33q0.1 0.7 0.6 0.7z"/>
<path class="cls-2" d="m103 3.21c0-0.33-0.43-0.65-1.3-1q-2 0.77-2 1.3a2.11 2.11 0 0 1 1 0.37 19.9 19.9 0 0 1 2 -0.67z"/>
<path class="cls-1" d="m105 3.54l0.6-0.12-0.46-0.59h-0.15z"/>
<path class="cls-1" d="m104 6.83a2.78 2.78 0 0 1 1 -0.33 0.58 0.58 0 0 0 -0.65 -0.65c-0.46 0.05-0.69 0.27-0.69 0.65a0.29 0.29 0 0 1 1 0.33z"/>
<path class="cls-2" d="m89.5 12.1a2.07 2.07 0 0 1 0.94 -0.37q0-0.73-2.93-1.3v0.37a2.16 2.16 0 0 0 2 1.3z"/>
<path class="cls-1" d="m83.4 4.53v0.61h0.61q0-1 0.69-1v-0.3h-1z"/>
<path class="cls-2" d="m88.2 15.6v-0.33h-1.1v1h0.37a0.61 0.61 0 0 0 0.7 -0.7z"/>
<path class="cls-2" d="m88.8 6.5c0.08 0.43 0.31 0.65 0.69 0.65l1.63-0.33a2.5 2.5 0 0 0 1 0.33v-0.32l-0.33-0.69a14.9 14.9 0 0 1 -3 0.36z"/>
<path d="m99.5 10h0.65q0.45 0 1-1.06l-0.37-0.61a1.6 1.6 0 0 0 -1.5 1.67z"/>
<path d="m90 8q-0.61 0.12-0.61 0.65v0.65l2 0.33 0.28-0.69-1.4-0.94z"/>
<path d="m106 3.21v-0.61a3.77 3.77 0 0 1 -1.2 0.23l0.46 0.59z"/>
<path class="cls-2" d="m104 6.65c-0.38 0-0.57 0.2-0.57 0.53v0.49h0.28c0.35 0 0.53-0.16 0.53-0.49a0.22 0.22 0 0 1 -0.24 -0.24v-0.29z"/>
<path class="cls-2" d="m103 2.78l-0.28 0.49h0.77a0.43 0.43 0 0 0 -1 -0.49z"/>
<path class="cls-2" d="m102 12.6l0.24-0.53v-1.3l1-0.24v-0.6a4.42 4.42 0 0 0 -3.29 1.75 6.07 6.07 0 0 0 2.3 0.8z"/>
<path class="cls-2" d="m36 37.6q0-0.49-1-1.06v1.1a3.14 3.14 0 0 1 1 0.24z"/>
<path class="cls-2" d="m29 33.9v0.1h0.41a1.3 1.3 0 0 1 0.2 -0.57h-0.2q-0.4 0.1-0.4 0.5z"/>
<path class="cls-2" d="m67 53.4q0 0.28 0.57 0.61l0.2-0.41-0.41-0.2z"/>
<path class="cls-2" d="m63.2 54l0.41-0.61-1.75-0.16a1.3 1.3 0 0 0 1.3 0.8z"/>
<path class="cls-2" d="m37.9 51.3l0.37-0.69v-0.33h-1v0.33q0.1 0.7 0.6 0.7z"/>
<path class="cls-2" d="m46.5 33.9h1.3v-0.38l-0.46-0.31h-0.84z"/>
<path class="cls-2" d="m50.8 38.2c0-0.33-0.43-0.65-1.3-1q-2 0.77-2 1.3a2.11 2.11 0 0 1 1 0.37 19.9 19.9 0 0 1 2.3 -0.7z"/>
<path class="cls-1" d="m52.1 38.5l0.6-0.12-0.46-0.59h-0.15z"/>
<path class="cls-1" d="m51.1 41.8a2.78 2.78 0 0 1 1 -0.33 0.58 0.58 0 0 0 -0.65 -0.65c-0.46 0.05-0.69 0.27-0.69 0.65a0.29 0.29 0 0 1 0.4 0.4z"/>
<path class="cls-2" d="m37 47.1a2.07 2.07 0 0 1 0.94 -0.37q0-0.73-2.93-1.3v0.37a2.16 2.16 0 0 0 2 1.3z"/>
<path class="cls-1" d="m30.9 39.5v0.61h0.61q0-1 0.69-1v-0.33h-1z"/>
<path class="cls-2" d="m66.5 51v0.33a0.66 0.66 0 0 0 0.69 0.61h0.93q0.69 0 0.69-0.61l-1.38-0.69a2.07 2.07 0 0 1 -0.9 0.4z"/>
<path class="cls-2" d="m35.7 50.6v-0.33h-1.1v1h0.4a0.61 0.61 0 0 0 0.7 -0.7z"/>
<path class="cls-2" d="m36.3 41.5c0.08 0.43 0.31 0.65 0.69 0.65l1.63-0.33a2.5 2.5 0 0 0 1 0.33v-0.33l-0.33-0.69a14.9 14.9 0 0 1 -3 0.3z"/>
<rect y="47.7" x="56.5" height=".61" width="1.3"/>
<path d="m47 45h0.65q0.45 0 1-1.06l-0.37-0.61a1.6 1.6 0 0 0 -1.2 1.7z"/>
<path d="m37.4 43q-0.61 0.12-0.61 0.65v0.65l2 0.33 0.28-0.69-1.3-0.8z"/>
<path d="m67.3 44.9l-0.69-0.37h-0.28c-0.46 0.11-0.69 0.34-0.69 0.69v0.28a2.26 2.26 0 0 1 1 0.33z"/>
<path d="m55 21.8h1q-0.28-1.3-2-1.3h-0.33q0 0.5 1.3 1.3z"/>
<polygon points="58 33.2 57.4 32.9 56.7 33.9 57.4 34.3"/>
<path d="m49.5 27.9c0-0.46-0.22-0.69-0.65-0.69l-0.37 0.69v0.37h1z"/>
<path d="m60.7 32.9q-0.29 0-0.29 0.33a4.17 4.17 0 0 0 -2 -0.61q0 0.81 2.6 1.3h0.69q0-0.4-1-1z"/>
<path d="m79.8 33.4a2.77 2.77 0 0 1 1.06 -0.32v-0.7l-0.86 0.3z"/>
<path d="m63.7 36.9l-0.37 0.69h1q0-0.7-0.6-0.7z"/>
<path class="cls-2" d="m47.8 33.2h-0.46l0.46 0.31z"/>
<path d="m53.8 38.2l-0.33-0.61a3.77 3.77 0 0 1 -1.2 0.23l0.46 0.59z"/>
<rect y="29.5" x="67.5" height=".81" class="cls-2" width=".45"/>
<path class="cls-2" d="m60.3 33.4c0 0.33 0.19 0.49 0.49 0.49h0.2v-0.3a1.89 1.89 0 0 1 -0.24 -0.73 0.47 0.47 0 0 0 -0.5 0.5z"/>
<path class="cls-2" d="m69.3 25.9v-0.29h-0.53v0.73c0.3 0.1 0.5-0.1 0.5-0.4z"/>
<path class="cls-2" d="m52.5 54.3v0.28c0.05 0.35 0.23 0.53 0.53 0.53v-0.29a0.47 0.47 0 0 0 -0.5 -0.5z"/>
<path class="cls-2" d="m64.7 23.1h0.49v-0.29q0-0.36-0.77-0.81h-0.53q0.4 1.1 0.8 1.1z"/>
<path class="cls-2" d="m64.7 26.4h-0.53l-0.28 1.1q0.4 0 0.8-1.1z"/>
<path class="cls-2" d="m51.8 41.6h-0.24c-0.38 0-0.57 0.2-0.57 0.53v0.49h0.28c0.35 0 0.53-0.16 0.53-0.49a0.22 0.22 0 0 1 -0.24 -0.24c0.1 0 0.2-0.1 0.2-0.3z"/>
<path class="cls-2" d="m71.6 27.2v-0.24h-0.7q-0.41 0-0.81 0.77l0.53 0.24q1-0.5 1-0.8z"/>
<path class="cls-2" d="m50.2 37.8l-0.28 0.49h0.77a0.43 0.43 0 0 0 -0.5 -0.5z"/>
<path class="cls-2" d="m49.7 47.6l0.24-0.53v-1.3l1-0.24v-0.6a4.42 4.42 0 0 0 -3.29 1.75 6.07 6.07 0 0 0 2.1 0.8z"/>
<path class="cls-2" d="m59.5 22.8v0.53q0.37 0 0.81-0.77v-0.28h-0.3c-0.3 0.1-0.5 0.3-0.5 0.6z"/>
<path class="cls-2" d="m67.2 43.7l-0.29 0.53v0.53h0.29a0.53 0.53 0 0 0 0 -1.06z"/>
<path class="cls-2" d="m64.4 47.9q-0.16 0-1.26-1.3c-0.38 0.05-0.57 0.22-0.57 0.49v0.53q0.61 0 1.58 1h0.24l-0.24-0.53c0.2 0 0.3-0.1 0.3-0.2z"/>
<path class="cls-2" d="m72.2 45q0 0.37 0.77 0.73h0.77l0.2-1.2h-0.24a2.18 2.18 0 0 1 -1.6 0.5z"/>
<path class="cls-2" d="m59.8 48.1v0.29q0.08 0.53 0.53 0.53h0.49v-1a1.69 1.69 0 0 1 -0.77 -0.29z"/>
<path class="cls-2" d="m76 44.7l-0.24 0.49a0.54 0.54 0 0 0 0.37 0.5v-1z"/>
<path class="cls-2" d="m55.6 49.4l-0.53 0.73v0.28l0.24 0.49a1.4 1.4 0 0 0 1.1 -1z"/>
<path class="cls-2" d="m55.1 26.9h-0.77v0.77q0.4 0 0.8-0.8z"/>
<path class="cls-2" d="m55.1 35.7h-0.5q-0.57 0-0.81 1.26h0.81l0.73-0.53a1.88 1.88 0 0 1 -0.2 -0.8z"/>
<path class="cls-2" d="m57.9 54.6v0.53h-0.77l-1-0.81v0.28a3.69 3.69 0 0 0 2 1 0.25 0.25 0 0 1 0.29 -0.28 1.69 1.69 0 0 1 -0.29 -0.73z"/>
<path class="cls-2" d="m60.5 26.9h-1.5v0.24q0.16 0 1.54 0.29z"/>
<path class="cls-2" d="m57.2 26.6q0 0.37 0.77 0.81h0.24a0.47 0.47 0 0 0 0.53 -0.53l-0.53-0.28z"/>
<path d="m43.3 33.6l0.2-0.53v-0.24h-0.73v0.24c0 0.4 0.2 0.5 0.5 0.5z"/>
<path d="m77.8 54v0.28a1.9 1.9 0 0 1 1 0.53h0.28q0.45 0 0.45-0.53l-1.3-0.3z"/>
<path d="m76.2 45.7h0.16c0.33 0 0.49-0.18 0.49-0.53h-0.49v-0.2h0.6v-0.28h-0.89z"/>
<path d="m73.5 27.7h0.73l1.3-0.24v-0.53q0-0.24-1.79-1.58c0 0.19-0.08 0.28-0.24 0.28l0.24 0.53v1z"/>
<path d="m80.2 28h0.24a1.87 1.87 0 0 1 0.77 -0.24v-0.53h-0.24q-0.4-0.1-0.8 0.7z"/>
<path class="cls-2" d="m14.5 18.4q0 0.28 0.57 0.61l0.2-0.41-0.41-0.2z"/>
<path class="cls-2" d="m10.7 19l0.41-0.61-1.75-0.16a1.3 1.3 0 0 0 1.34 0.8z"/>
<path class="cls-1" d="m-0.38 3.54l0.6-0.12-0.46-0.59h-0.14z"/>
<path class="cls-2" d="m14 16v0.33a0.66 0.66 0 0 0 0.69 0.61h0.93q0.69 0 0.69-0.61l-1.38-0.69a2.07 2.07 0 0 1 -0.9 0.4z"/>
<rect y="12.7" x="4.03" height=".61" width="1.3"/>
<path d="m14.8 9.88l-0.69-0.37h-0.28c-0.46 0.11-0.69 0.34-0.69 0.69v0.28a2.26 2.26 0 0 1 1 0.33z"/>
<path d="m11.2 1.91l-0.37 0.69h1q0-0.69-0.6-0.69z"/>
<path d="m1.29 3.21-0.29-0.61a3.77 3.77 0 0 1 -1.2 0.23l0.46 0.59z"/>
<path class="cls-2" d="m0 19.3v0.28c0.05 0.35 0.23 0.53 0.53 0.53v-0.29a0.47 0.47 0 0 0 -0.53 -0.5z"/>
<path class="cls-2" d="m14.7 8.68l-0.29 0.53v0.53h0.29a0.47 0.47 0 0 0 0.53 -0.53 0.47 0.47 0 0 0 -0.5 -0.53z"/>
<path class="cls-2" d="m11.9 12.9q-0.16 0-1.26-1.3c-0.38 0.05-0.57 0.22-0.57 0.49v0.53q0.61 0 1.58 1h0.24l-0.24-0.53c0.2 0 0.3-0.1 0.3-0.2z"/>
<path class="cls-2" d="m19.7 10q0 0.37 0.77 0.73h0.77l0.24-1.26h-0.24a2.18 2.18 0 0 1 -1.6 0.56z"/>
<path class="cls-2" d="m7.27 13.1v0.29q0.08 0.53 0.53 0.53h0.49v-1a1.69 1.69 0 0 1 -0.77 -0.29z"/>
<path class="cls-2" d="m23.5 9.74l-0.24 0.49a0.54 0.54 0 0 0 0.37 0.5v-1z"/>
<path class="cls-2" d="m3.12 14.4l-0.53 0.73v0.28l0.24 0.49a1.4 1.4 0 0 0 1.1 -1z"/>
<path class="cls-2" d="m2.59 0.71h-0.49q-0.57 0-0.81 1.29h0.81l0.73-0.53a1.88 1.88 0 0 1 -0.24 -0.76z"/>
<path class="cls-2" d="m5.44 19.6v0.53h-0.78l-1-0.81v0.28a3.69 3.69 0 0 0 2 1 0.25 0.25 0 0 1 0.34 -0.3 1.69 1.69 0 0 1 -0.29 -0.73z"/>
<path d="m25.4 19v0.28a1.9 1.9 0 0 1 1 0.53h0.28q0.45 0 0.45-0.53l-1.4-0.3z"/>
<path d="m23.6 10.7h0.16c0.33 0 0.49-0.18 0.49-0.53h-0.49v-0.2h0.73v-0.26h-0.89z"/>
</pattern>
</defs>
<title>header-img_1</title>
<g data-name="Layer 2">
<g id="HOME">
<g id="newsletter-text">
<path class="cls-3" d="m238 258h4.14c13.5-1.4 14.2-16.3 29-16.3s15.5 14.9 29 16.3h4.14c13.5-1.4 14.2-16.3 29-16.3s15.5 14.9 29 16.3h1.93c14-1 14.5-16.4 29.5-16.4s15.5 15.3 29.5 16.4h3c14-1 14.5-16.4 29.5-16.4s15.5 15.3 29.5 16.4h3c14-1 14.5-16.4 29.5-16.4s15.5 15.3 29.5 16.4h3c14-1 14.5-16.4 29.5-16.4s15.5 15.3 29.5 16.4h3c14-1 14.5-16.4 29.5-16.4s15.5 15.3 29.5 16.4h3c14-1 14.5-16.4 29.5-16.4s15.5 15.3 29.5 16.4h0.7c14-1 14.5-16.4 29.5-16.4s15.5 15.3 29.5 16.4h3c14-1 14.5-16.4 29.5-16.4s15.5 15.3 29.5 16.4h3c14-1 14.5-16.4 29.5-16.4s15.5 15.3 29.5 16.4h3c14-1 14.5-16.4 29.5-16.4a16.6 16.6 0 0 1 8.94 2.41 28.2 28.2 0 0 0 6 -18c-0.76-17.1-13.8-31.5-31.5-31.5h-73c-4.7-11.6-15.5-20-29-20h-18.1c7.94-5.81 13.4-15 12.9-25.2-0.76-17.1-13.8-31.5-31.5-31.5h-52c9.78-5.48 16.9-15.9 16.4-27.4-0.76-17.1-13.8-31.5-31.5-31.5h-40c9.78-5.48 16.9-15.9 16.4-27.4 0-16.3-13-30.7-31-30.7h-242c-16.5 0-32.3 14.5-31.5 31.5a33.3 33.3 0 0 0 16.2 27.4h-94c-16.5 0-32.3 14.5-31.5 31.5s13.8 31.5 31.5 31.5h17.1c-9.78 5.48-16.9 15.9-16.4 27.4a33.6 33.6 0 0 0 12.8 25.2h-43c-12.6 0-24.7 8.45-29.5 20h-30c-16.5 0-32.3 14.5-31.5 31.5a34.5 34.5 0 0 0 4.38 15.4 19.6 19.6 0 0 1 2.69 -0.18c15 0 16 15 29 17z"/>
<path class="cls-4" d="m680 215a130 130 0 0 1 -7.25 43c-14.8-0.52-15-16.4-30.3-16.4-15.5 0-15.5 16.4-31 16.4s-15.5-16.4-31-16.4-15.5 16.4-31 16.4-15.5-16.4-31-16.4-15.5 16.4-31 16.4-15.5-16.4-31-16.4c-15.3 0-15.5 15.9-30.3 16.4a131 131 0 1 1 254 -43z"/>
<path class="cls-1" d="m424 238c0.49 0 1 0.06 1.51 0.06s1 0 1.51-0.06z"/>
<g id="header-girl-platform">
<path class="cls-5" d="m437 399c-6-11-17-12-28-14a141 141 0 0 1 -23.7 -5.36 75.9 75.9 0 0 1 -11 -8c-4.73-3.9-7.74-6.82-9.69-12.5a36.5 36.5 0 0 0 -2.39 -5.47 92.5 92.5 0 0 0 -5 -12c-0.9-1.81-1.91-3.58-3-5.33a12.5 12.5 0 0 0 -2 -3.25c-1.36-2.11-2.76-4.2-4.12-6.28a13.2 13.2 0 0 0 -6.07 -5 39.9 39.9 0 0 0 -12.9 -6.67c-13.2-4.09-28-5.43-41.7-7.07-13.8-1.65-27.7-2-41.6-2.95-27.3-1.93-54.2-7.34-81-12.6-13.8-2.7-27.6-5.38-41.5-7.59s-28-4.52-42.1-4.35c-19 0.22-39.6 6.68-52.5 20.5-7.46 5.3-13.8 12.6-13.8 22a12.2 12.2 0 0 0 -0.75 4.58c0.41 20.2 15 35.2 31.4 45.2 7.82 4.75 16.2 8.68 23.6 14.1 6.87 5 11.5 12 16.7 18.6 6.3 8 13.7 14 23.3 17.7 9.36 3.59 19.9 4.62 29.8 5.31a161 161 0 0 0 32.3 -1.11c10.8-1.42 21.1-4.21 31.7-6.67 20.3-4.72 39.8 1 59.1 7.52 19.8 6.71 39.1 14.8 59.3 20.3 18.6 5.05 38.3 7.89 57.6 5.68 18.4-2.12 40-8.35 52.7-22.9 7-12 11-25 5-36z"/>
<path class="cls-6" d="m82.5 267h-1.6a99 99 0 0 0 -37 7.51l5.44 12.9 1.82-0.74h0.06l0.95-0.36h0.05l0.41-0.15h0.05 0.05 0.05l0.24-0.09h0.05l0.18-0.06h0.05 0.15 0.06 0.06 0.31 0.06 1.2 0.05 0.45 0.08 0.5 0.13 0.34l0.21-0.06h0.28l0.26-0.08h0.23l0.27-0.08h0.22l0.38-0.11h0.11a87.6 87.6 0 0 1 21.2 -3.2h2.84v-14zm-63.8 24.4c-13.5 11-17.3 22-17.9 31a26.6 26.6 0 0 0 -0.8 7c0 1.79 0.16 3.58 0.36 5.35l13.9-1.61q-0.12-1-0.19-2.07v-0.29-0.69-0.41q0-0.14 0-0.28a12.1 12.1 0 0 1 0.75 -4.3v-0.32-0.25-0.37-0.3c0.81-5.49 3.74-10.2 7.64-14.1l0.28-0.28 0.21-0.21 0.23-0.22h0.56l0.08-0.07h0.16c0.86-0.76 1.76-1.5 2.68-2.2l-8.47-11.1zm6.5 65-10.8 8.94a94 94 0 0 0 23.7 19.9c2.44 1.48 4.89 2.86 7 4l6.82-12.2c-1.93-1.08-3.86-2.17-5.76-3.3h-0.06-0.06-0.05-0.06-0.07-0.07-0.08l-0.1-0.06h-0.5l-0.15-0.09-0.3-0.19-0.43-0.27a86.9 86.9 0 0 1 -13 -11l-0.3-0.28-0.22-0.21-0.18-0.17-0.1-0.1-1.3-2-0.11-0.12-0.11-0.12-0.19-0.21-0.26-0.29-0.37-0.42-0.68-0.8zm49.1 35.6-10 9.84a94.8 94.8 0 0 1 7.45 9c0.93 1.22 1.9 2.49 2.9 3.76a72.2 72.2 0 0 0 14 13.8l8.3-11-0.15-0.11-0.39-0.3a59.3 59.3 0 0 1 -9.71 -9.76v-0.05l-2.8-4v-0.06l-1.06-1.39c-1.87-2.45-3.73-4.88-5.74-7.19l-0.05-0.06q-1-1.13-2.07-2.21zm47.6 35.1-2.43 13.8a176 176 0 0 0 18.4 2.05c3.74 0.26 7.58 0.39 11.4 0.39 2.34 0 4.73 0 7.1-0.15l-0.58-14h-6.52q-5.21 0-10.4-0.36c-2.78-0.19-5.61-0.41-8.44-0.71h-0.14-0.4-0.27-0.26-0.94-0.13-0.4-0.13-0.4-0.13-0.4-0.27-0.14q-2.26-0.3-4.5-0.69zm94-7.61h-0.4a67.8 67.8 0 0 0 -10.2 1.17h-0.25-0.11-0.2-0.16-0.14-0.17-0.13-1.25-0.2-0.19-0.2-0.19-0.18-0.18-0.17-0.16-0.16-0.06-0.14-0.07-0.13-0.09-0.1-0.11-0.09-0.14c-4.12 1-8.22 2-12.3 2.92h-0.1-0.09-0.09-0.08-0.2-0.09q-2.21 0.5-4.43 1l-3 16c4.8-1 9.54-2.13 14.1-3.23 2.16-0.52 4.32-1 6.49-1.54a53 53 0 0 1 10.4 -1.34l-0.47-14zm26.7 3.33-3.43 13.6c6.22 1.57 12.4 3.61 18.2 5.57 3.73 1.26 7.66 2.65 12.8 4.5l4.78-13.2q-3.54-1.28-7.08-2.54h-0.05-0.06-0.08-0.09q-2.59-0.91-5.19-1.8h-0.1-0.11-0.12-0.07-0.07l-0.37-0.13h-0.15l-0.45-0.15h-0.14-0.06l-0.21-0.07c-5.88-2-11.8-3.85-17.7-5.36zm57.7 19.7-4.58 13.2c8.21 2.84 15.1 5 21.8 6.81 4.25 1.15 8.48 2.18 12.6 3l2.89-13.7q-2-0.43-4.08-0.9h-0.08-0.07-0.07-0.33l-0.22-0.05h-0.08-0.07-0.08-0.08-0.08q-3-0.73-6-1.54h-0.08-0.07-0.07-0.06-0.08-0.11-0.1-0.11-0.11c-5.44-1.49-10.8-3.16-16.2-5l-0.22-0.07h-0.1-0.1-0.07-0.07-0.07-0.06-0.14-0.08l-3.15-1.08zm93.2 9.67c-2.63 0.62-5.26 1.14-7.85 1.57h-0.94c-1.95 0.31-3.87 0.57-5.77 0.79h-0.11a119 119 0 0 1 -13.6 0.76h-2.22-2-1.24l-0.57 14c2 0.08 4 0.13 6 0.13a134 134 0 0 0 15.2 -0.85 143 143 0 0 0 16.3 -2.81l-3.2-13.6zm45-35a31.3 31.3 0 0 1 -1.24 4.34v0.06 0.06l-0.19 0.45-0.06 0.13v0.06 0.06a34.6 34.6 0 0 1 -2.23 4.18l-0.45 0.71v0.06 0.06l-0.2 0.29v0.06l-0.08 0.11h-1.02l-0.08 0.09-0.06 0.06-0.06 0.06-0.1 0.1-0.07 0.07-0.1 0.1-0.15 0.14-0.08 0.07-0.11 0.1-0.12 0.11-0.15 0.14-0.12 0.11-0.16 0.14-0.12 0.1-0.12 0.1-0.16 0.14-0.21 0.17-0.21 0.17-0.17 0.13-0.22 0.17-0.22 0.17-0.22 0.17-0.22 0.17-0.27 0.2-0.27 0.2-0.23 0.16-0.28 0.19-0.28 0.19-0.28 0.19-0.28 0.19-0.23 0.15-0.19 0.12-0.24 0.15-0.24 0.15-0.24 0.15-0.19 0.12-0.2 0.12 7.21 12a67.4 67.4 0 0 0 -1 3 47.9 47.9 0 0 0 10.8 -21.5l-14-3zm-37-47-3 13q1.91 0.4 3.83 0.75h0.09 0.27 0.2 0.18 0.77 0.15 0.24l0.3 0.05h0.08q1.52 0.25 3 0.47h0.24 0.14 1.33l1.28 0.18h0.19 0.19l0.66 0.1h0.23 0.15 1.58 0.19c5.78 1 11.4 2.48 15.9 5.79l9-10.8c-9.42-7.83-21.5-9.47-29.4-10.6-3-0.4-6-0.93-9-1.55zm-32-32l-12.7 5.9 0.3 0.66 0.06 0.13v0.32l0.06 0.15c1.16 2.69 2.15 5.46 3.1 8.24v1a36.5 36.5 0 0 1 2.39 5.47c1.95 5.69 5 8.61 9.69 12.5h0.05l0.85 0.69 8.7-11-0.7-0.57c-4-3.33-4.66-4.21-5.35-6.25a49.9 49.9 0 0 0 -2.74 -6.47 109 109 0 0 0 -4.1 -10.4zm-58.2-40l-2 14q3.27 0.51 6.51 1.13h0.65 0.16 0.75 0.22 0.53 0.07l0.44 0.09h0.07 0.3l0.66 0.15h0.15q2.22 0.5 4.4 1.07l0.8 0.21h0.07 0.07 0.07 0.07 0.07l0.5 0.14h0.06 0.06 0.06 0.06 0.06 0.06l0.35 0.1h0.05 2l0.18 0.05h0.73 0.07q1.72 0.53 3.36 1.19l0.16 0.07h0.05 0.05 0.88l0.15 0.08q1.33 0.7 2.59 1.5l0.62 0.47 8.64-11a53.8 53.8 0 0 0 -17.4 -9 148 148 0 0 0 -16 1zm-62-5.72-0.88 14 2.62 0.16h0.41l7.14 0.4c4.51 0.25 9 0.49 13.5 0.81h0.33 0.24 1c2.91 0.21 5.81 0.46 8.71 0.75l1.42-13.9c-8.23-0.84-16.4-1.29-24.4-1.72-3.3-0.18-6.72-0.37-10-0.58zm-58.7-7.94-2.57 13.8 3.39 0.63h0.12 0.12l0.37 0.07h0.1 0.1 0.05 0.09 0.14 0.14 0.1 0.06 0.09 0.06 0.09 0.06l0.29 0.05h0.14 0.13l0.46 0.08h0.16 0.15l0.63 0.11h0.15l0.62 0.11 0.94 0.17 0.62 0.11 0.78 0.14 0.78 0.14 0.62 0.11h0.13 0.14l0.31 0.05h0.12 0.11 0.12 0.15 0.14 0.11 0.05 0.1 0.05 0.1 0.05 0.14 0.1 0.51 0.11 0.1 0.49l0.33 0.06h0.1 0.1l0.63 0.11c5.68 0.94 11.4 1.81 17.1 2.58l1.85-13.9c-9.55-1.27-20-3-32.8-5.39zm-60-11l-2.32 13.8c7.2 1.21 14.4 2.53 21.6 3.9h0.12 0.11l0.34 0.07h0.05 0.08 0.14 0.12 0.15 0.11 0.12l10.3 2 2.69-13.7c-10.8-2.11-22.2-4.33-33.8-6.27zm-48.8-5.5v14h4.1c4.45 0.14 8.91 0.49 13.4 1h0.74l1.58 0.18 1.65-13.9a181 181 0 0 0 -21.4 -1.4z"/>
</g>
<g id="header-girl">
<path class="cls-1" d="m363 258q0.73 0 1.41-0.05h-1.93z"/>
<path class="cls-1" d="m238 258a18.6 18.6 0 0 0 4.14 0z"/>
<path class="cls-1" d="m300 258a18.6 18.6 0 0 0 4.14 0z"/>
<path class="cls-7" d="m212 115h1.48-1.48z"/>
<path class="cls-7" d="m215 115z"/>
<line y1="159" x2="128" x1="128" y2="315" class="cls-8"/>
<line y1="179" x2="111" x1="111" y2="335" class="cls-8"/>
<line y1="320" x2="129" x1="108" y2="299" class="cls-9"/>
<line y1="300" x2="129" x1="108" y2="279" class="cls-9"/>
<line y1="279" x2="129" x1="108" y2="258" class="cls-9"/>
<path class="cls-10" d="m111 252c23.9 6.47 53.1 19 64.7 45.3 3.65 8.3 3.32 12.9 6.67 21.3 6.25 15.8 21.5 35.4 61.5 51.2a29.9 29.9 0 0 0 9.28 2.05c5.07 0.29 12.2-1 15-4.76 1.88-2.5 3.5-9-5.61-13-39.8-17.6-55.9-35.6-62.2-51.5-3.34-8.45-3-13-6.67-21.3-11.6-26.4-40.8-38.9-64.7-45.3z"/>
<rect transform="translate(309 480) rotate(206)" rx="5.89" ry="5.89" height="55" width="11.8" y="177" x="203" class="cls-11"/>
<path class="cls-12" d="m210 292l7.68 7.68c0.75 0.75 1.48 1.51 2.18 2.31 1.06 1.2 3.48 3.48 5.9 2.55 2.11-0.81 12.5-6.41 13.4-8.44 1.36-3.1-0.12-5.34-1.86-5.09-1.4 0.2-6.42 2.25-8.32 3a1.2 1.2 0 0 1 -1.3 -0.26l-10-10"/>
<path class="cls-12" d="m210 292l7.68 7.68c0.75 0.75 1.48 1.51 2.18 2.31 1.06 1.2 3.48 3.48 5.9 2.55 3.23-1.24 12-5.34 13.4-8.44s-0.12-5.34-1.86-5.09c-1.4 0.2-6.42 2.25-8.32 3a1.2 1.2 0 0 1 -1.3 -0.26l-9.73-9.73"/>
<path class="cls-2" d="m210 292c0-0.61 0.91-2.47 3.24-4.81 2-2 4-3.18 4.81-3.24 0 0.61-0.91 2.47-3.24 4.81-2 2-4 3-5 3z"/>
<path d="m216 286a19.1 19.1 0 0 1 -4.16 4.16 19.1 19.1 0 0 1 4.16 -4.16m2-2.83c-1.16 0-3.38 1.37-5.51 3.5-2.6 2.6-4.07 5.33-3.29 6.11a0.82 0.82 0 0 0 0.6 0.21c1.16 0 3.38-1.37 5.51-3.5 2.6-2.6 4.07-5.33 3.29-6.11a0.82 0.82 0 0 0 -0.6 -0.21z"/>
<path class="cls-12" d="m206 298l7.68 7.68c0.75 0.75 1.48 1.51 2.18 2.31 1.06 1.2 3.48 3.48 5.9 2.55 2.11-0.81 12.5-6.41 13.4-8.44 1.36-3.1-0.12-5.34-1.86-5.09-1.4 0.2-6.42 2.25-8.32 3a1.2 1.2 0 0 1 -1.3 -0.26l-10-10"/>
<path class="cls-12" d="m206 298l7.68 7.68c0.75 0.75 1.48 1.51 2.18 2.31 1.06 1.2 3.48 3.48 5.9 2.55 3.23-1.24 12-5.34 13.4-8.44s-0.12-5.34-1.86-5.09c-1.4 0.2-6.42 2.25-8.32 3a1.2 1.2 0 0 1 -1.3 -0.26l-9.73-9.73"/>
<path class="cls-2" d="m206 298c0.05-0.61 0.91-2.47 3.24-4.81 2-2 4-3.18 4.81-3.24-0.05 0.61-0.91 2.47-3.24 4.81-2 2-4 3-5 3z"/>
<path d="m212 292a19.1 19.1 0 0 1 -4.16 4.16 19.1 19.1 0 0 1 4.16 -4.16m2-2.83c-1.16 0-3.38 1.37-5.51 3.5-2.6 2.6-4.07 5.33-3.29 6.11a0.82 0.82 0 0 0 0.6 0.21c1.16 0 3.38-1.37 5.51-3.5 2.6-2.6 4.07-5.33 3.29-6.11a0.82 0.82 0 0 0 -0.6 -0.21z"/>
<rect y="267" x="195" height="31.8" transform="translate(-142 223) rotate(-45)" width="7.07"/>
<path d="m189 270l21.2 21.2-3.75 3.75-21.2-21.2 3.75-3.75m0-2.5-6.25 6.25 23.7 23.7 6.25-6.25-23.7-23.7z"/>
<rect y="262" x="200" height="30.6" transform="translate(-136 225) rotate(-45)" width="7.07"/>
<path d="m195 265l20.4 20.4-3.75 3.75-21-20 3.75-3.75m0-2.5-6.25 6.25 22.9 22.9 6.25-6.25-22.9-22.9z"/>
<path class="cls-13" d="m167 274c8.13 4.27 27.7 11.2 53.6-2.23l-16.8-50.1a20 20 0 0 0 -18.2 -13.8q-0.58 0-1.16 0a13.6 13.6 0 0 0 -12.8 11.1l-7.95 48.1a6.6 6.6 0 0 0 3 7z"/>
<path class="cls-14" d="m204 204c4.58-3.78 8.5-10 13.7-9.38 0.81 0.09 2.55 0.45 3.53-0.53 1.38-1.38 0.34-4.5-0.18-6-5.39-15.6-8.08-23.5-14-26.3a17.2 17.2 0 0 0 -10.8 -1.77c-11.5 2.22-21 18.8-16.2 32 3.09 8.51 12.3 16.2 19.1 14.7a11.8 11.8 0 0 0 4.87 -2.63"/>
<path class="cls-15" d="m212 184s-4.77 3.45-8.83 0"/>
<path class="cls-15" d="m204 203a3.68 3.68 0 0 1 5.2 -5.2"/>
<path class="cls-16" d="m204 157c5 0.41 13.6 7.06 14.1 9.2 1 4.09-22.7 6.36-27.8 19.5-3.64 9.33 7.5 17.8 1 22.2-6.7 4.43-17.1 2.42-28.8-2.59-14.7-6.29-14.4-11.8-29.9-23.5-16.8-12.8-30.8-5.79-41-18.2-9-10.8-8.41-28.2-1.47-31.9 5.71-3 11.3 5.57 31.3 12 24.1 7.71 31 0 46.9 9.3 8.28 4.84 17.5 3.38 26.4 3.79 3-1-1-1 8 0z"/>
<path class="cls-2" d="m193 187c0-0.26-4.25-3.8-6.29-3.22a1.88 1.88 0 0 0 -0.95 0.59c-1.07 1.28-0.16 4 2.19 5.5 2.15 1.37 5.09 0.91 5.16 0.38 1-4 0-2 0-4z"/>
<path class="cls-11" d="m188 187a8.66 8.66 0 0 1 2.4 1.4"/>
<path class="cls-11" d="m177 162c-0.41-1.14 11.4-6.2 22.3-4.26 2.37 0.42 7.15 1.62 7.1 3 0 0.77-1.62 1.49-3 1.67-2.64 0.32-3.55-1.39-6.6-2-3.83-0.81-5.37 1.24-12.7 1.85-1 1-6 1-7 0z"/>
<path class="cls-11" d="m104 165c-0.7 0.93-7.47-2.12-10.8-8.16-2.92-5.22-2.26-10.8-2-10.8s-0.23 4.19 2.43 7.92c2.82 4 6.82 4.06 9.69 9.14 1 1 1 2 1 2z"/>
<rect transform="translate(413 333) rotate(161)" rx="5.89" ry="5.89" height="55" width="11.8" y="174" x="172" class="cls-11"/>
<path d="m206 236c-0.56 0-1.47-0.86-2-2.24a4.43 4.43 0 0 1 -0.23 -2.2c0.09-0.45 0.27-0.76 0.48-0.84h0.13c0.56 0 1.47 0.86 2 2.24 0.55 1.58 0.21 2.87-0.25 3z"/>
<path d="m205 232m-0.11 0.35a4 4 0 0 1 1.09 3.12 4 4 0 0 1 -1.09 -3.12m-0.24-2a1.28 1.28 0 0 0 -0.42 0.07c-1.11 0.39-1.46 2.25-0.79 4.16 0.59 1.68 1.76 2.83 2.79 2.83a1.28 1.28 0 0 0 0.42 -0.07c1.11-0.39 1.46-2.25 0.79-4.16-0.59-1.68-1.76-2.83-2.79-2.83z"/>
<path d="m210 248c-0.56 0-1.47-0.86-2-2.24a4.43 4.43 0 0 1 -0.23 -2.2c0.09-0.45 0.27-0.76 0.48-0.84h0.13c0.56 0 1.47 0.86 2 2.24 0.55 1.58 0.21 2.87-0.25 3z"/>
<path d="m209 244m-0.11 0.35a4 4 0 0 1 1.09 3.12 4 4 0 0 1 -1.09 -3.12m-0.24-2a1.28 1.28 0 0 0 -0.42 0.07c-1.11 0.39-1.46 2.25-0.79 4.16 0.59 1.68 1.76 2.83 2.79 2.83a1.28 1.28 0 0 0 0.42 -0.07c1.11-0.39 1.46-2.25 0.79-4.16-0.59-1.68-1.76-2.83-2.79-2.83z"/>
<path d="m214 261c-0.49 0-1.39-0.83-1.79-2.4s0-2.88 0.51-3c0.59 0 1.48 0.83 1.88 2.39a4.43 4.43 0 0 1 0 2.21c-0.12 0.44-0.33 0.74-0.56 0.8z"/>
<path d="m213 256m-0.14 0.34a4 4 0 0 1 0.82 3.2 4 4 0 0 1 -0.82 -3.2m-0.19-2a1.26 1.26 0 0 0 -0.31 0c-1.13 0.29-1.65 2.12-1.15 4.08 0.46 1.78 1.59 3.07 2.65 3.07a1.26 1.26 0 0 0 0.31 0c1.13-0.29 1.65-2.12 1.15-4.08-0.46-1.78-1.59-3.07-2.65-3.07z"/>
<path class="cls-16" d="m194 258a23.5 23.5 0 0 1 -15.5 2.59l1.54 9.21 9 2.76 6.5-5.14z"/>
</g>
<path class="cls-2" d="m125 330q0-0.57-1.15-1.25v1.25a3.69 3.69 0 0 1 1.15 0.29z"/>
<path class="cls-2" d="m117 326h0.48a1.53 1.53 0 0 1 0.24 -0.67h-0.24t0 1z"/>
<path class="cls-2" d="m369 322q0 0.33 0.67 0.72l0.24-0.48-0.48-0.24z"/>
<path class="cls-2" d="m452 446h1.53v-0.44l-0.54-0.37h-1z"/>
<path class="cls-2" d="m457 451c0-0.38-0.51-0.77-1.53-1.15q-2.35 0.91-2.34 1.53a2.48 2.48 0 0 1 1.2 0.43 23.4 23.4 0 0 1 3 -1z"/>
<path class="cls-1" d="m458 451l0.71-0.14-0.54-0.69h-0.17z"/>
<path class="cls-1" d="m139 359a3.27 3.27 0 0 1 1.2 -0.38 0.68 0.68 0 0 0 -0.77 -0.77c-0.54 0.06-0.81 0.32-0.81 0.77a0.34 0.34 0 0 1 1 0z"/>
<path class="cls-2" d="m134 383a2.44 2.44 0 0 1 1.1 -0.43q0-0.86-3.45-1.53v0.43a2.55 2.55 0 0 0 2 2z"/>
<path class="cls-1" d="m115 356v0.72h0.72q0-1.15 0.81-1.15v-0.38h-1.15z"/>
<path class="cls-2" d="m368 320a0.77 0.77 0 0 0 0.81 0.72h1.1q0.81 0 0.81-0.72l-1.63-0.81a2.44 2.44 0 0 1 -1 1z"/>
<path class="cls-2" d="m244 384a0.72 0.72 0 0 0 0.81 -0.81v-0.43l-1.91-0.38a10.9 10.9 0 0 1 -1.63 0.38v0.43c0.1 0.54 0.37 0.81 0.81 0.81z"/>
<path class="cls-2" d="m122 358c0.1 0.51 0.37 0.77 0.81 0.77l1.91-0.38a2.94 2.94 0 0 0 1.15 0.38v-0.38l-0.38-0.81a17.5 17.5 0 0 1 -4 0z"/>
<path class="cls-2" d="m293 379h0.77q0.53 0 1.2-1.25l-0.43-0.72a1.88 1.88 0 0 0 -2 2z"/>
<path class="cls-2" d="m135 378q-0.72 0.14-0.72 0.77v0.77l2.3 0.38 0.33-0.81-1.53-1.1z"/>
<path class="cls-2" d="m120 365l-0.81-0.43h-0.33c-0.54 0.13-0.81 0.4-0.81 0.81v0.33a2.66 2.66 0 0 1 1.15 0.38z"/>
<path class="cls-2" d="m452 447c0-0.54-0.26-0.81-0.77-0.81l-0.43 0.81h1.2z"/>
<path class="cls-2" d="m472 429l-0.43 0.81h1.15q0-1-1-1z"/>
<path class="cls-2" d="m453 440h-0.54l0.54 0.37z"/>
<path class="cls-2" d="m460 451v-1a4.44 4.44 0 0 1 -1.41 0.27l0.54 0.69z"/>
<rect y="354" x="131" height=".96" class="cls-2" width=".53"/>
<path class="cls-2" d="m424 289a2.52 2.52 0 0 1 -1 -0.29h-0.29v0.29a2.24 2.24 0 0 1 1.25 0.62z"/>
<path class="cls-2" d="m418 293v-0.62h-0.57c-0.42 0.1-0.62 0.3-0.62 0.62v0.57h0.62a0.51 0.51 0 0 0 1 -1z"/>
<path class="cls-2" d="m422 289v-1q-3 0.67-3 2.78 3-1 3-2z"/>
<path class="cls-2" d="m485 425h-0.62l-0.33 1.29q1 0 1-1z"/>
<path class="cls-2" d="m140 359h-0.29c-0.45 0-0.67 0.24-0.67 0.62v0.57h0.33c0.41 0 0.62-0.19 0.62-0.57a0.25 0.25 0 0 1 -0.29 -0.29v-1z"/>
<rect y="475" x="385" height=".62" class="cls-2" width=".86"/>
<path class="cls-2" d="m456 460l-0.33 0.57h0.91a0.51 0.51 0 0 0 -1 -1z"/>
<path class="cls-2" d="m398 296v0.57q0 0.43 1 1h1.2v-1.2a2.19 2.19 0 0 0 -1.2 -0.33z"/>
<rect y="298" x="411" height=".67" class="cls-2" width="1.2"/>
<path class="cls-2" d="m296 394l0.29-0.62v-1.53l1.2-0.29v-0.57a5.2 5.2 0 0 0 -3.88 2.06 7.14 7.14 0 0 0 3 2z"/>
<path class="cls-2" d="m406 302l-0.57 1q0.57 0 0.57 0.29a2.54 2.54 0 0 1 1 -0.29q0-1-1-1z"/>
<path class="cls-2" d="m229 323l-0.62 0.86v0.33l0.29 0.57a1.65 1.65 0 0 0 1.29 -1.2z"/>
<path class="cls-2" d="m474 426h-0.91v0.91t1-1z"/>
<path class="cls-2" d="m474 436h-0.57q-0.67 0-1 1.48h1l0.86-0.62z"/>
<path class="cls-2" d="m419 285h-1.53v0.29l0.62 0.91q1.53-0.38 1.53-0.91z"/>
<path class="cls-2" d="m480 426h-1.82q0.19 0 1.82 0.34z"/>
<path class="cls-2" d="m476 425q0 0.43 0.91 1h0.29a0.55 0.55 0 0 0 0.62 -0.62l-0.62-0.33z"/>
<path class="cls-2" d="m133 326l0.24-0.62v-0.29h-0.86v0.29c1 0 1 1 1 1z"/>
<path class="cls-2" d="m114 323v0.33a2.24 2.24 0 0 1 1.2 0.62h0.33q0.53 0 0.53-0.62l-1.48-0.33z"/>
<path class="cls-2" d="m122 324h-0.67q0 0.43 1 1l0.34-0.62z"/>
<g id="header-guy-platform">
<path class="cls-17" d="m883 481c53.1-2.3 98.5 46.9 147 30.2 37.9-13.1 97.3-69.4 46.2-110-39.6-31.2-51.5 0.17-157-24.4-62.6-14.6-110 10.9-173 15.1-42.9 2.86-101-1.18-95.6 50.9 6 63.2 112 91.5 147 73.2 32-17 59-34 86-35z"/>
<path class="cls-6" d="m845 364c-5.49 0.82-11.4 1.84-18.2 3.14l2.07 10.8q2.94-0.56 5.88-1.1h0.1 0.08 0.12 0.1 0.11 0.13 0.13q5.46-1 11-1.8l-1.62-10.9zm-34 6.33-2.89 0.6c-4.79 1-9.74 2-14.7 3l2.14 10.8h0.07 0.1 0.14 0.1 0.12 0.09 0.16 0.08 0.18 0.24 0.19l7.14-1.45h1 0.15 0.1 0.11 0.16 0.05 0.19l5.26-1.09 2.88-0.6-2.23-10.8zm-33 6.46c-6.14 1-11.8 1.88-17.3 2.54l1.32 10.9c6.05-0.73 12-1.62 17.8-2.61l-2-10zm-32.6 4c-4.6 0.3-9.32 0.52-14.3 0.75l-3.46 0.16 0.52 11 3.45-0.16 2.17-0.1h0.21c4.13-0.19 8.19-0.39 12.1-0.65l-0.71-11zm-34 3c-7.19 0.55-13.4 1.26-18.8 2.17l2 11c2.69-0.45 5.44-0.82 8.24-1.15l0.56-0.06h0.56 0.42 0.43 0.42 0.57 0.28 0.71 0.28 2 0.21 1.64 0.21 1.54 0.25l-0.83-11zm-36.1 6.36a59.2 59.2 0 0 0 -19.3 10.4l7.05 8.44a39.5 39.5 0 0 1 4.83 -3.44l0.23-0.14 0.18-0.11 0.41-0.24 0.18-0.11 0.14-0.08 0.18-0.1 0.18-0.1 0.18-0.1 0.14-0.07 0.14-0.07 0.18-0.1 0.13-0.07h0.09l0.13-0.06 0.12-0.06h0.08 0.08 0.06 0.17 0.05 4 0.05 0.06 0.06 0.06 0.06 0.06 0.05l0.12-0.05h0.05l0.13-0.05h0.06 0.06l0.13-0.06h0.06l0.2-0.08q2.07-0.87 4.26-1.61l-3.54-10.4zm-31.8 27.5a54.4 54.4 0 0 0 -3.59 22.1l11-0.32a53.4 53.4 0 0 1 0.23 -6.91v-0.25-0.06-0.19-3.43-0.1-0.12-0.17-0.07-0.23a37.1 37.1 0 0 1 1.56 -5.57v-0.06l0.05-0.14v-0.05-0.05-0.09-0.05-0.08-0.15l-10.2-4.13zm10 38l-10.5 3.19a74.6 74.6 0 0 0 9 19l9.21-6-0.15-0.24-0.08-0.12-0.08-0.12-0.07-0.12v-0.06-0.05l-0.07-0.11-0.07-0.12a62.9 62.9 0 0 1 -6.48 -14.2v-0.14-0.14-0.14zm17.7 28.6-7.82 7.73a114 114 0 0 0 15.2 12.8l6.36-9q-1.87-1.32-3.67-2.71l-0.11-0.08h-0.05-0.05-0.05q-2.44-1.92-4.73-4h-0.05l-0.09-0.09q-1.56-1.44-3-2.93zm27.4 20-5.2 9.69a165 165 0 0 0 17.5 8.08l4-10.2-0.68-0.27h-0.07-0.06l-0.26-0.1-0.18-0.07h-0.07-0.07-0.11-0.07-0.06-0.06-0.05-0.06-0.06l-0.18-0.07h-0.07-0.11-0.05-0.05-0.05-0.07-0.06-0.05-0.06-0.06-0.05-0.05-0.1-0.06-2.38-0.05-0.05-0.06-0.05-0.06-0.06l-2-2-0.13-0.06h-0.06c-3.63-1.59-7.2-3.32-10.7-5.19zm31.5 12.7-3 10.6a175 175 0 0 0 18.7 4.28l1.85-10.8a164 164 0 0 1 -17.5 -4zm51.4 5.35a90 90 0 0 1 -9.48 0.65h-3c-1.95 0-3.94-0.07-6-0.18l-0.61 11c2.41 0.13 4.81 0.2 7.13 0.2a104 104 0 0 0 12.8 -0.76l-1-11zm31.3-12.5-7 3.8l-0.11 0.06h-0.07-0.07-0.06-0.06-0.07-0.08l-0.1 0.05-0.1 0.06-0.11 0.06q-3.07 1.65-6.19 3.3l-0.11 0.06h-0.07q-0.74 0.39-1.52 0.75l4.58 10c0.74-0.34 1.47-0.7 2.17-1.06 5.12-2.69 10.1-5.42 14.4-7.76l-5.28-9.65zm30.1-15.8c-3.82 1.8-7.69 3.75-11.6 5.8l-0.12 0.06h-0.05-0.06l-0.12 0.06-3.79 2 5.19 9.7c6.13-3.28 11.1-5.79 15.6-7.9l-4.69-9.95zm32.1-10.9q-2.5 0.41-5 1h-0.07-0.13-0.14-0.13-1.39-0.06-0.09-0.11-0.07-0.07-0.07-0.07-0.12c-3.24 0.84-6.49 1.86-9.75 3l3.73 10.4a87.2 87.2 0 0 1 15.4 -4.15l-1.79-10.8zm15.9-0.92-0.45 11a90.7 90.7 0 0 1 15.9 2.14l2.36-10.7a103 103 0 0 0 -16.5 -2.33h-1.34zm33.2 6.71-3.49 10.4c4.73 1.58 9.88 3.51 16.2 6.08l4.14-10.2c-5.56-2.26-11.2-4.43-16.8-6.32zm31.6 12.5l-4 10c5.45 2.28 11.3 4.68 17.2 6.83l4-10c-3.68-1.35-7.38-2.81-11.1-4.32h-0.12-0.09-0.05l-5.31-2.2zm32 11.5l-2 10a103 103 0 0 0 19.8 3.22l0.62-11c-2.58-0.15-5.15-0.43-7.73-0.82h-0.28-0.18-0.1-0.58-0.14-0.14c-2.86-0.49-5.72-1.11-8.58-1.84zm50.7-3.7-1.19 0.54h-0.06-0.05-0.05-0.05-0.05-0.05-0.05-0.06-0.06-0.06-0.06-0.06l-0.19 0.08h-0.06-0.06l-0.19 0.08h-0.06l-0.38 0.16h-0.06l-0.19 0.08h-0.06l-0.63 0.25h-0.06l-0.25 0.1h-0.12-0.12-0.06-0.06-0.06-0.06-0.12-0.06-0.05-0.05-0.06-0.06-0.06-0.05-0.05-0.05-0.05-0.05-0.05-0.05-0.05-0.05-0.05-0.05-0.06-0.05-0.05-0.06-0.05-0.06-0.05-0.05-0.05-0.05-0.06-0.38-0.13-0.08l-0.24 0.08a62.3 62.3 0 0 1 -7.07 1.88h-0.07-0.14-0.15-0.1-0.6l2 10.8a73.7 73.7 0 0 0 10.6 -2.8 95.8 95.8 0 0 0 9.07 -3.69l-4.64-10zm30-19a131 131 0 0 1 -12.3 9.43l-1.45 1 6 9.23a142 142 0 0 0 15.6 -11.7l-7.2-8.32zm21.9-25.8a82.2 82.2 0 0 1 -4.64 7.16v0.06l-0.29 0.4v0.05 0.05 0.06 0.06 0.06 0.06 0.06l-0.17 0.23-0.08 0.11v0.05 0.05 0.05 0.05l-0.08 0.11-0.25 0.34v0.05 0.05 0.05 0.05 0.05 0.05q-2 2.64-4.27 5.18l8.26 7.27a101 101 0 0 0 11.8 -16.3l-9.54-5.48zm18.1-34.3-10.8 1.81q0.24 1.45 0.37 2.91v0.19 0.24a43.6 43.6 0 0 1 -1.47 13.8l10.6 2.82a53.2 53.2 0 0 0 1.23 -22.5zm-21.5-34.8-7.05 8.44q1.11 0.93 2.15 1.87l0.13 0.12 0.13 0.12 0.06 0.06 0.06 0.06 0.06 0.06 0.06 0.06 0.06 0.06 0.09 0.09 0.06 0.06 0.09 0.09 0.06 0.06 0.12 0.12 0.12 0.12 0.12 0.12a53 53 0 0 1 6.76 8.34l0.06 0.09v0.08l0.13 0.21 9.32-5.84a68.2 68.2 0 0 0 -14.2 -16zm-35-17.6-2 10.8q1.2 0.22 2.4 0.5h0.07 0.09 0.45 0.08 0.08 0.16a53.2 53.2 0 0 1 11.2 4.19l0.12 0.06h0.08 0.26l0.13 0.07 1.56 0.84 5.36-9.61a65 65 0 0 0 -20.2 -7.36zm-18.1-1.26c-3.77 0-7.7 0.21-11.9 0.39l-6.38 0.26 0.4 11 6.45-0.26c4.13-0.17 7.94-0.34 11.5-0.38l-0.14-11zm-51.1 0.23-0.77 11c6.56 0.46 12.5 0.66 18 0.7l0.09-11c-5.83 0-11.5-0.27-17.3-0.67zm-32.6-4-1.86 10.8 2.52 0.42h0.18 0.26 1 0.28 0.07q5.76 0.92 11 1.6h-7l2 0.25 1.33-10.9c-5.58-0.68-11.4-1.53-17.3-2.54zm-41-6l-2.08 10.8q3.17 0.61 6.4 1.36h0.09 0.1 0.1q5.61 1.31 10.9 2.41l2.26-10.8c-3.5-0.74-7.12-1.54-10.7-2.38-2.33-0.54-4.7-1-7-1.5zm-34.8-3.27c-6.17 0-12.4 0.28-18.9 0.86l1 11q5.2-0.46 10.5-0.67h1.23q2.86-0.09 5.74-0.1h0.86c5 0 10 0.22 15.1 0.67h0.07 0.25 2l1.05-11c-5.84-0.56-11.9-0.85-17.9-0.85z"/>
</g>
<g id="header-guy">
<rect y="347" x="752" height="72" class="cls-18" width="62"/>
<rect y="391" x="680" height="72" class="cls-19" width="72"/>
<polygon points="680 391 742 347 814 347 752 391" class="cls-20"/>
<path class="cls-20" d="m716 386"/>
<path class="cls-20" d="m716 386"/>
<path class="cls-20" d="m718 386"/>
<rect y="391" x="696" height="72" class="cls-21" width="36.6"/>
<line y1="391" x2="794" x1="733" y2="347" class="cls-22"/>
<line y1="391" x2="775" x1="714" y2="347" class="cls-22"/>
<path class="cls-22" d="m771 347"/>
<path class="cls-22" d="m710 391"/>
<path class="cls-22" d="m749 347"/>
<path class="cls-22" d="m688 391"/>
<line y1="391" x2="757" x1="696" y2="347" class="cls-22"/>
<polygon points="771 367 734 367 738 360 771 360" class="cls-23"/>
<polygon points="723 369 738 360 771 360 760 369" class="cls-24"/>
<polygon points="723 376 734 367 771 367 758 377" class="cls-24"/>
<polygon points="758 377 723 377 723 369 757 369" class="cls-25"/>
<path d="m745 371c-7 0-14.3-1.68-14.5-5.45-0.25-4.15 8.37-6.93 16.6-7.44 1-0.06 1.95-0.09 2.9-0.09 7 0 14.3 1.68 14.5 5.45 0.25 4.15-8.37 6.93-16.6 7.44h-3z"/>
<path class="cls-2" d="m750 359c7.62 0 13.5 1.94 13.7 4.69 0.19 3.09-6.91 6-15.9 6.59-1 0.06-1.93 0.09-2.85 0.09-7.62 0-13.5-1.94-13.7-4.69-0.19-3.09 6.91-6 15.9-6.59 1-0.06 1.93-0.09 2.85-0.09m0-1.61c-1 0-2 0-3 0.09-8.85 0.54-17.6 3.56-17.4 8.29 0.28 4.58 8.41 6.2 15.3 6.2 1 0 2 0 3-0.09a38.1 38.1 0 0 0 11.9 -2.46c4.71-2 5.58-4.25 5.49-5.83-0.28-4.58-8.41-6.2-15.3-6.2z"/>
<ellipse rx="6.6" transform="translate(-20.9 46.4) rotate(-3.51)" ry="2.28" cy="364" cx="748" class="cls-2"/>
<ellipse rx="1.94" transform="translate(-20.9 46.4) rotate(-3.51)" ry=".67" cy="364" cx="748" class="cls-2"/>
<path class="cls-14" d="m774 315a5.26 5.26 0 0 0 -4.3 8.14c12.3 18.8 28.7 21.7 40.3 20.8a57.2 57.2 0 0 0 21.9 -6.36 5.26 5.26 0 0 0 -5.19 -9.16 47.1 47.1 0 0 1 -17.8 5c-12.6 0.83-22.8-4.58-30.3-16.1a5.26 5.26 0 0 0 -5 -2z"/>
<path class="cls-26" d="m820 432v11c0 1.06 0 2.12 0.09 3.18 0.1 1.6 0 4.92-2.37 6-2.07 0.92-13.4 4.31-15.4 3.51-3.16-1.23-3.69-3.86-2.28-4.91 1.13-0.85 6.13-2.95 8-3.73a1.2 1.2 0 0 0 1 -1v-14"/>
<path class="cls-26" d="m820 432v10.9c0 1.06 0 2.12 0.09 3.18 0.1 1.6 0 4.92-2.37 6-3.16 1.4-12.3 4.74-15.4 3.51s-3.69-3.86-2.28-4.91c1.13-0.85 6.13-2.95 8-3.73a1.2 1.2 0 0 0 0.74 -1.11v-14"/>
<path d="m815 433c-3.32 0-5.24-0.72-5.7-1.11 0.46-0.39 2.38-1.11 5.7-1.11s5.24 0.72 5.7 1.11c-1 0-3 1-6 1z"/>
<path d="m815 432a18 18 0 0 1 2.94 0.23 19.1 19.1 0 0 1 -5.88 0 18 18 0 0 1 2.94 -0.23m0-1.77c-3.67 0-6.65 0.89-6.65 2s3 2 6.65 2 6.65-0.89 6.65-2-3-2-6.65-2z"/>
<path class="cls-26" d="m836 432v11c0 1.06 0 2.12 0.09 3.18 0.1 1.6 0 4.92-2.37 6-2.07 0.92-13.4 4.31-15.4 3.51-3.16-1.23-3.69-3.86-2.28-4.91 1.13-0.85 6.13-2.95 8-3.73a1.2 1.2 0 0 0 0.74 -1.11v-14"/>
<path class="cls-26" d="m836 432v10.9c0 1.06 0 2.12 0.09 3.18 0.1 1.6 0 4.92-2.37 6-3.16 1.4-12.3 4.74-15.4 3.51s-3.69-3.86-2.28-4.91c1.13-0.85 6.13-2.95 8-3.73a1.2 1.2 0 0 0 0.74 -1.11v-14"/>
<path d="m830 433c-3.32 0-5.24-0.72-5.7-1.11 0.46-0.39 2.38-1.11 5.7-1.11s5.24 0.72 5.7 1.11-2 1-6 1z"/>
<path d="m830 432a18 18 0 0 1 2.94 0.23 19.1 19.1 0 0 1 -5.88 0 18 18 0 0 1 2.94 -0.23m0-1.77c-3.67 0-6.65 0.89-6.65 2s3 2 6.65 2 6.65-0.89 6.65-2-3-2-6.65-2z"/>
<rect y="385" x="811" height="47.1" class="cls-11" width="7.08"/>
<rect y="385" x="827" height="47.1" class="cls-11" width="7.08"/>
<path d="m815 396a0.44 0.44 0 0 0 0 -0.88 0.44 0.44 0 0 0 0 0.88z"/>
<path d="m815 407a0.44 0.44 0 0 0 0 -0.88 0.44 0.44 0 0 0 0 0.88z"/>
<path d="m816 402a0.44 0.44 0 0 0 0 -0.88 0.44 0.44 0 0 0 0 0.88z"/>
<path d="m814 415a0.44 0.44 0 0 0 0 -0.88 0.44 0.44 0 0 0 0 0.88z"/>
<path d="m817 419a0.44 0.44 0 0 0 0 -0.88 0.44 0.44 0 0 0 0 0.88z"/>
<path d="m814 425a0.44 0.44 0 0 0 0 -0.88 0.44 0.44 0 0 0 0 0.88z"/>
<path d="m816 430a0.44 0.44 0 0 0 0 -0.88 0.44 0.44 0 0 0 0 0.88z"/>
<path d="m816 411a0.44 0.44 0 0 0 0 -0.88 0.44 0.44 0 0 0 0 0.88z"/>
<path d="m829 401a0.44 0.44 0 0 0 0 -0.88 0.44 0.44 0 0 0 0 0.88z"/>
<path d="m834 405a0.44 0.44 0 0 0 0 -0.88 0.44 0.44 0 0 0 0 0.88z"/>
<path d="m832 405a0.44 0.44 0 0 0 0 -0.88 0.44 0.44 0 0 0 0 0.88z"/>
<path d="m830 414a0.44 0.44 0 0 0 0 -0.88 0.44 0.44 0 0 0 0 0.88z"/>
<path d="m832 398a0.44 0.44 0 0 0 0 -0.88 0.44 0.44 0 0 0 0 0.88z"/>
<path d="m830 409a0.44 0.44 0 0 0 0 -0.88 0.44 0.44 0 0 0 0 0.88z"/>
<path d="m833 418a0.44 0.44 0 0 0 0 -0.88 0.44 0.44 0 0 0 0 0.88z"/>
<path d="m830 424a0.44 0.44 0 0 0 0 -0.88 0.44 0.44 0 0 0 0 0.88z"/>
<path d="m831 428a0.44 0.44 0 0 0 0 -0.88 0.44 0.44 0 0 0 0 0.88z"/>
<path d="m830 419a0.44 0.44 0 0 0 0 -0.88 0.44 0.44 0 0 0 0 0.88z"/>
<path d="m830 393a0.44 0.44 0 0 0 0 -0.88 0.44 0.44 0 0 0 0 0.88z"/>
<path d="m817 392a0.44 0.44 0 0 0 0 -0.88 0.44 0.44 0 0 0 0 0.88z"/>
<path d="m814 392a0.44 0.44 0 0 0 0 -0.88 0.44 0.44 0 0 0 0 0.88z"/>
<path d="m813 409a0.44 0.44 0 0 0 0 -0.88 0.44 0.44 0 0 0 0 0.88z"/>
<path d="m829 405a0.44 0.44 0 0 0 0 -0.88 0.44 0.44 0 0 0 0 0.88z"/>
<path d="m831 401a0.44 0.44 0 0 0 0 -0.88 0.44 0.44 0 0 0 0 0.88z"/>
<path d="m832 423a0.44 0.44 0 0 0 0 -0.88 0.44 0.44 0 0 0 0 0.88z"/>
<path d="m813 402a0.44 0.44 0 0 0 0 -0.88 0.44 0.44 0 0 0 0 0.88z"/>
<path d="m814 421a0.44 0.44 0 0 0 0 -0.88 0.44 0.44 0 0 0 0 0.88z"/>
<path d="m817 425a0.44 0.44 0 0 0 0 -0.88 0.44 0.44 0 0 0 0 0.88z"/>
<path d="m813 429a0.44 0.44 0 0 0 0 -0.88 0.44 0.44 0 0 0 0 0.88z"/>
<path d="m829 430a0.44 0.44 0 0 0 0 -0.88 0.44 0.44 0 0 0 0 0.88z"/>
<path d="m832 431a0.44 0.44 0 0 0 0 -0.88 0.44 0.44 0 0 0 0 0.88z"/>
<path d="m828 396a0.44 0.44 0 0 0 0 -0.88 0.44 0.44 0 0 0 0 0.88z"/>
<path d="m832 413a0.44 0.44 0 0 0 0 -0.88 0.44 0.44 0 0 0 0 0.88z"/>
<path d="m832 391a0.44 0.44 0 0 0 0 -0.88 0.44 0.44 0 0 0 0 0.88z"/>
<path d="m816 399a0.44 0.44 0 0 0 0 -0.88 0.44 0.44 0 0 0 0 0.88z"/>
<path d="m812 394a0.44 0.44 0 0 0 0 -0.88 0.44 0.44 0 0 0 0 0.88z"/>
<path d="m816 416a0.44 0.44 0 0 0 0 -0.88 0.44 0.44 0 0 0 0 0.88z"/>
<path d="m832 410a0.44 0.44 0 0 0 0 -0.88 0.44 0.44 0 0 0 0 0.88z"/>
<path d="m813 405a0.44 0.44 0 0 0 0 -0.88 0.44 0.44 0 0 0 0 0.88z"/>
<rect y="380" x="824" height="17.8" class="cls-13" width="13.2"/>
<rect y="380" x="807" height="17.8" class="cls-13" width="13.2"/>
<path class="cls-13" d="m799 384s25.2 14.2 59.7-3.69l-18-50a19.9 19.9 0 0 0 -18.8 -13.7 13.6 13.6 0 0 0 -13 11z"/>
<path class="cls-14" d="m784 308c5.63-16.3 8.45-24.5 14.6-27.5a18 18 0 0 1 11.3 -1.85c12 2.32 22 19.6 17 33.4-3.22 8.89-12.9 16.9-19.9 15.3-7.28-1.6-12.2-13.4-19.4-12.6-0.85 0.1-2.67 0.47-3.69-0.55-2-1-1-4 0-6z"/>
<path class="cls-27" d="m787 283c-0.88 5.47 3.69 11.8 9.23 13.3 6.32 1.68 12.1-3.5 14.5-1.39 2.11 1.86-2.12 6.05-0.31 10.2 2.24 5.19 12.9 8.48 19.1 5.54 8.27-3.92 9.31-19.2 2.15-28.8-5.76-7.75-16.2-11.1-25.2-10.2-5 0-18 3-19 11z"/>
<path class="cls-15" d="m792 303s5 3.6 9.23 0"/>
<path class="cls-2" d="m812 309c-0.2-0.2 1.31-5.81 3.4-6.56a2 2 0 0 1 1.17 -0.07c1.69 0.44 2.57 3.3 1.47 6-1 2.47-3.78 3.87-4.16 3.46-1-2 0-1-1-2z"/>
<path class="cls-15" d="m799 322a12 12 0 0 0 5.36 -3.55c0.24-0.25 0.46-0.51 0.67-0.76"/>
<path class="cls-11" d="m816 305a9.05 9.05 0 0 0 -1.19 2.65"/>
<path d="m805 324a0.44 0.44 0 0 0 0 -0.88 0.44 0.44 0 0 0 0 0.88z"/>
<path d="m807 320a0.44 0.44 0 0 0 0 -0.88 0.44 0.44 0 0 0 0 0.88z"/>
<path d="m809 319a0.44 0.44 0 0 0 0 -0.88 0.44 0.44 0 0 0 0 0.88z"/>
<path d="m808 325a0.44 0.44 0 0 0 0 -0.88 0.44 0.44 0 0 0 0 0.88z"/>
<path d="m809 322a0.44 0.44 0 0 0 0 -0.88 0.44 0.44 0 0 0 0 0.88z"/>
<path d="m807 323a0.44 0.44 0 0 0 0 -0.88 0.44 0.44 0 0 0 0 0.88z"/>
<path d="m811 325a0.44 0.44 0 0 0 0 -0.88 0.44 0.44 0 0 0 0 0.88z"/>
<path d="m811 319a0.44 0.44 0 0 0 0 -0.88 0.44 0.44 0 0 0 0 0.88z"/>
<path d="m811 322a0.44 0.44 0 0 0 0 -0.88 0.44 0.44 0 0 0 0 0.88z"/>
<path d="m814 323a0.44 0.44 0 0 0 0 -0.88 0.44 0.44 0 0 0 0 0.88z"/>
<path d="m813 322a0.44 0.44 0 0 0 0 -0.88 0.44 0.44 0 0 0 0 0.88z"/>
<path d="m811 314a0.44 0.44 0 0 0 0 -0.88 0.44 0.44 0 0 0 0 0.88z"/>
<path d="m814 311a0.44 0.44 0 0 0 0 -0.88 0.44 0.44 0 0 0 0 0.88z"/>
<path d="m811 317a0.44 0.44 0 0 0 0 -0.88 0.44 0.44 0 0 0 0 0.88z"/>
<path d="m813 317a0.44 0.44 0 0 0 0 -0.88 0.44 0.44 0 0 0 0 0.88z"/>
<path d="m814 319a0.44 0.44 0 0 0 0 -0.88 0.44 0.44 0 0 0 0 0.88z"/>
<path d="m814 317a0.44 0.44 0 0 0 0 -0.88 0.44 0.44 0 0 0 0 0.88z"/>
<path d="m815 312a0.44 0.44 0 0 0 0 -0.88 0.44 0.44 0 0 0 0 0.88z"/>
<path d="m813 325a0.44 0.44 0 0 0 0 -0.88 0.44 0.44 0 0 0 0 0.88z"/>
<path d="m809 326a0.44 0.44 0 0 0 0 -0.88 0.44 0.44 0 0 0 0 0.88z"/>
<path d="m808 317a0.44 0.44 0 0 0 0 -0.88 0.44 0.44 0 0 0 0 0.88z"/>
<path d="m808 315a0.44 0.44 0 0 0 0 -0.88 0.44 0.44 0 0 0 0 0.88z"/>
<path d="m813 314a0.44 0.44 0 0 0 0 -0.88 0.44 0.44 0 0 0 0 0.88z"/>
<path class="cls-2" d="m831 290c-0.39 0-1.86-2.44-3.28-4.77-0.85-1.39-1.3-2.22-1.6-2.77a5.2 5.2 0 0 0 -1 -1.48 6 6 0 0 0 -2.78 -1.59 9.81 9.81 0 0 1 -3 -1.45c-1.77-1.25-3.42-3.09-3.26-3.43 0 0 0.15-0.12 0.52-0.12 2.41 0 10.1 3 13.1 9.76 2 4 2 7 2 7z"/>
<path d="m817 275c2.39 0 10 3 13 9.68a14.3 14.3 0 0 1 1.34 5.56 34.3 34.3 0 0 1 -3.08 -4.63c-0.85-1.38-1.3-2.21-1.6-2.76a5.31 5.31 0 0 0 -1.05 -1.52 6.21 6.21 0 0 0 -2.84 -1.62 9.7 9.7 0 0 1 -2.94 -1.43 10.6 10.6 0 0 1 -3.2 -3.24 1 1 0 0 1 0.37 0m0-0.29c-0.36 0-0.58 0.07-0.65 0.2-0.25 0.52 1.72 2.49 3.3 3.62 2.64 1.88 3.86 1.15 5.74 3 0.8 0.8 0.63 1 2.61 4.22 1.67 2.74 3 4.84 3.42 4.84h0.06c0.44-0.24-0.05-3.43-1.22-6-3.08-6.89-10.9-9.85-13.3-9.85z"/>
<path d="m809 361c-0.48-0.41-2-2-5-5.36a1.11 1.11 0 0 1 -0.25 -0.95l1.95-9.38a1.09 1.09 0 0 1 1.4 -0.82 24.6 24.6 0 0 0 7.36 1h1.52a1.13 1.13 0 0 1 0.88 0.38 1.08 1.08 0 0 1 0.26 0.87l-1.44 10.2a1.09 1.09 0 0 1 -0.53 0.79 38.2 38.2 0 0 1 -7 3z"/>
<path d="m807 345h0.06a25.5 25.5 0 0 0 7.62 1.09q0.77 0 1.58 0a0.21 0.21 0 0 1 0.17 0.08 0.2 0.2 0 0 1 0 0.17l-2 11a0.21 0.21 0 0 1 -0.1 0.15 53.6 53.6 0 0 1 -5.5 3c-0.67-0.66-2.07-2.13-4.54-4.92a0.21 0.21 0 0 1 0 -0.18l1.95-9.38a0.21 0.21 0 0 1 0.2 -0.17m0-1.77a2 2 0 0 0 -1.93 1.58l-1.95 9.38a2 2 0 0 0 0.45 1.71c1.44 1.63 4.8 5.39 5.4 5.67h0.12c0.92 0 5-2.34 6.74-3.38a2 2 0 0 0 1 -1.43l1.44-10.2a2 2 0 0 0 -2 -2.25h-0.1q-0.76 0-1.48 0a23.6 23.6 0 0 1 -7.09 -1 2 2 0 0 0 -0.6 -0.09z"/>
<path class="cls-14" d="m767 339a5.26 5.26 0 0 0 -1 9.16c18.4 12.8 34.7 9.44 45.1 4.31a57.2 57.2 0 0 0 18 -14.1 5.26 5.26 0 0 0 -8.22 -6.57 47.1 47.1 0 0 1 -14.7 11.3c-11.4 5.47-22.9 4.25-34.2-3.63a5.26 5.26 0 0 0 -5 1z"/>
<rect y="391" x="714" transform="translate(1.43e3 854) rotate(180)" class="cls-28" height="72"/>
<rect y="409" x="703" height="59.3" class="cls-29" width="32"/>
<polygon points="693 418 703 409 735 409 725 418" class="cls-29"/>
<polygon points="693 477 703 468 735 468 725 477" class="cls-29"/>
<rect y="418" x="693" height="59.3" class="cls-29" width="32"/>
<circle cy="435" cx="709" r="7.83" class="cls-30"/>
<circle cy="456" cx="709" r="5.54" class="cls-30"/>
<polyline points="702 313 702 299 711 295 711 307" class="cls-31"/>
<ellipse rx="2.73" transform="translate(-10.5 592) rotate(-45)" ry="1.48" cy="308" cx="709" class="cls-32"/>
<ellipse rx="2.73" transform="translate(2.42 596) rotate(-45)" ry="1.48" cy="295" cx="720" class="cls-32"/>
<ellipse rx="2.73" transform="translate(-17.1 587) rotate(-45)" ry="1.48" cy="314" cx="699" class="cls-32"/>
<polyline points="731 316 731 302 740 298 740 310" class="cls-31"/>
<ellipse rx="2.73" transform="translate(-4.21 613) rotate(-45)" ry="1.48" cy="312" cx="738" class="cls-32"/>
<ellipse rx="2.73" transform="translate(-10.8 608) rotate(-45)" ry="1.48" cy="317" cx="729" class="cls-32"/>
<line y1="294" x2="722" x1="723" y2="282" class="cls-33"/>
<ellipse rx="2.73" transform="translate(23.6 609) rotate(-45)" ry="1.48" cy="276" cx="746" class="cls-32"/>
<polyline points="749 275 748 262 752 260" class="cls-31"/>
</g>
<path class="cls-2" d="m976 469h0.24c0.29 0 0.43-0.16 0.43-0.48-0.16 0-0.24-0.06-0.24-0.19a1.83 1.83 0 0 1 0.72 -0.24h-0.24a1.09 1.09 0 0 0 -1 1z"/>
<path class="cls-2" d="m888 440l0.48-0.72-2.06-0.19a1.53 1.53 0 0 0 2 1z"/>
<rect y="487" x="640" height=".72" class="cls-2" width="1.53"/>
<path class="cls-2" d="m986 416h1.15q-0.33-1.53-2.3-1.53h-0.38q0 1 1 2z"/>
<polygon points="711 522 711 521 710 522 711 523" class="cls-2"/>
<path class="cls-2" d="m714 521q-0.34 0-0.34 0.38a4.91 4.91 0 0 0 -2.34 -0.72q0 1 3.06 1.53h0.81t-2-1z"/>
<path class="cls-2" d="m938 455a3.26 3.26 0 0 1 1.25 -0.38v-0.82c-0.33 0.13-0.67 0.24-1 0.36z"/>
<path class="cls-2" d="m866 390v0.33c0.06 0.42 0.27 0.62 0.62 0.62v-0.34a0.55 0.55 0 0 0 -1 -1z"/>
<path class="cls-2" d="m809 466h0.57v-0.34q0-0.43-0.91-1h-0.62q0 1 1 1z"/>
<path class="cls-2" d="m1.04e3 464l-1.53 0.29 1.2 1.25q2.15-0.57 2.15-1.25l-1.53-0.29z"/>
<path class="cls-2" d="m956 489v0.33a1.09 1.09 0 0 0 0.07 0.24h0.55a0.54 0.54 0 0 0 -1 0z"/>
<path class="cls-2" d="m652 479l-0.34 0.62h0.34a0.62 0.62 0 0 0 0 -1.25z"/>
<path class="cls-2" d="m930 433q-0.19 0-1.48-1.53c-0.45 0.06-0.67 0.26-0.67 0.57v0.62q0.72 0 1.87 1.2h0.29l-0.29-0.62z"/>
<path class="cls-2" d="m789 454q0 0.43 0.91 0.86h0.91l0.29-1.48h-0.29a2.57 2.57 0 0 1 -2 0z"/>
<path class="cls-2" d="m873 391v0.62h-0.91l-1.2-1v0.33a4.34 4.34 0 0 0 2.39 1.2 0.3 0.3 0 0 1 0.34 -0.33 2 2 0 0 1 -0.34 -0.86z"/>
<path class="cls-2" d="m957 490v-0.33s0 0 0 0h-0.55a0.55 0.55 0 0 0 1 0z"/>
<path class="cls-2" d="m637 515h0.29l0.34-0.62v-0.33h-0.34a2.25 2.25 0 0 1 0 1z"/>
<path class="cls-2" d="m863 395a12.6 12.6 0 0 0 2.78 0.53v-0.53a16.4 16.4 0 0 1 -2.49 -0.67z"/>
<path class="cls-2" d="m782 464h-1a0.65 0.65 0 0 0 0.67 0.57h0.53z"/>
<path class="cls-2" d="m1.04e3 435h0.29a3.07 3.07 0 0 1 0.91 -0.19v-0.41h-0.29z"/>
</g>
</g>
</g>
</svg>
