<svg xmlns="http://www.w3.org/2000/svg" xmlns:xlink="http://www.w3.org/1999/xlink" viewBox="0 0 473.25 342.12"><defs><style>.cls-1,.cls-15,.cls-22,.cls-23,.cls-32,.cls-33,.cls-36{fill:none;}.cls-11,.cls-12,.cls-13,.cls-14,.cls-2,.cls-20,.cls-21,.cls-27,.cls-29,.cls-30,.cls-8,.cls-9{fill:#fff;}.cls-3{fill:#88aeea;}.cls-4{fill:#efe8aa;}.cls-5{fill:#80d692;}.cls-6{fill:url(#New_Pattern_2);}.cls-7{fill:#06aee5;}.cls-10,.cls-11,.cls-12,.cls-13,.cls-14,.cls-15,.cls-16,.cls-19,.cls-20,.cls-21,.cls-22,.cls-23,.cls-24,.cls-25,.cls-26,.cls-27,.cls-28,.cls-29,.cls-30,.cls-31,.cls-32,.cls-33,.cls-34,.cls-36,.cls-37,.cls-38,.cls-8,.cls-9{stroke:#000;}.cls-10,.cls-11,.cls-13,.cls-15,.cls-16,.cls-21,.cls-23,.cls-29,.cls-30,.cls-32,.cls-36,.cls-38,.cls-8,.cls-9{stroke-linecap:round;}.cls-10,.cls-12,.cls-13,.cls-16,.cls-19,.cls-20,.cls-21,.cls-22,.cls-23,.cls-24,.cls-25,.cls-26,.cls-28,.cls-30,.cls-33,.cls-34,.cls-36,.cls-38,.cls-8,.cls-9{stroke-linejoin:round;}.cls-10,.cls-8{stroke-width:3.5px;}.cls-9{stroke-width:3.78px;}.cls-11,.cls-14,.cls-15,.cls-27,.cls-29,.cls-31,.cls-32,.cls-35,.cls-37{stroke-miterlimit:10;}.cls-11,.cls-12,.cls-13,.cls-14,.cls-15,.cls-16{stroke-width:1.23px;}.cls-17{fill:#ef8269;}.cls-18{fill:url(#New_Pattern_2-3);}.cls-19,.cls-20,.cls-21,.cls-23,.cls-33,.cls-35{stroke-width:1.3px;}.cls-22{stroke-width:1.36px;}.cls-24{stroke-width:0.32px;}.cls-25{stroke-width:0.9px;}.cls-26{stroke-width:0.32px;}.cls-27,.cls-28,.cls-29,.cls-30,.cls-31,.cls-32{stroke-width:1.3px;}.cls-34{stroke-width:0.78px;}.cls-35{stroke:#fff;}.cls-36,.cls-37,.cls-38{stroke-width:1.41px;}</style><pattern id="New_Pattern_2" data-name="New Pattern 2" width="105" height="70" patternTransform="translate(190.04 66.88) scale(0.54 0.48)" patternUnits="userSpaceOnUse" viewBox="0 0 105 70"><rect class="cls-1" width="105" height="70"/><path class="cls-2" d="M81.45,68.86V69h.41a1.3,1.3,0,0,1,.2-.57h-.2Q81.45,68.54,81.45,68.86Z"/><path class="cls-2" d="M99,68.94h1.3v-.38l-.46-.31H99Z"/><path d="M102,62.87c0-.46-.22-.69-.65-.69l-.37.69v.37h1Z"/><path class="cls-2" d="M100.31,68.25h-.46l.46.31Z"/><path d="M95.8,68.64l.2-.53v-.24h-.73v.24C95.3,68.46,95.48,68.64,95.8,68.64Z"/><path d="M2.53,56.77h1q-.28-1.3-2-1.3H1.23Q1.23,56,2.53,56.77Z"/><polygon points="5.52 68.25 4.87 67.93 4.22 68.94 4.87 69.31 5.52 68.25"/><path d="M8.16,67.93q-.29,0-.29.33a4.17,4.17,0,0,0-2-.61q0,.81,2.6,1.3h.69Q9.18,68.46,8.16,67.93Z"/><path d="M27.26,68.44a2.77,2.77,0,0,1,1.06-.32v-.7l-.86.3Z"/><rect class="cls-2" x="15.03" y="64.49" width="0.45" height="0.81"/><path class="cls-2" d="M7.79,68.39c0,.33.19.49.49.49h.24V68.6a1.89,1.89,0,0,1-.24-.73A.47.47,0,0,0,7.79,68.39Z"/><path class="cls-2" d="M16.82,60.91v-.29h-.53v.73C16.64,61.36,16.82,61.21,16.82,60.91Z"/><path class="cls-2" d="M12.18,58.07h.49v-.29q0-.36-.77-.81h-.53Q11.82,58.07,12.18,58.07Z"/><path class="cls-2" d="M12.18,61.36h-.53l-.28,1.1Q11.82,62.46,12.18,61.36Z"/><path class="cls-2" d="M19.13,62.17v-.24H18.4q-.41,0-.81.77l.53.24Q19.13,62.54,19.13,62.17Z"/><path class="cls-2" d="M7,57.78v.53q.37,0,.81-.77v-.28H7.51C7.16,57.34,7,57.51,7,57.78Z"/><path class="cls-2" d="M2.59,61.93H1.82v.77Q2.22,62.7,2.59,61.93Z"/><path class="cls-2" d="M8,61.93H6.49v.24q.16,0,1.54.29Z"/><path class="cls-2" d="M4.66,61.65q0,.37.77.81h.24a.47.47,0,0,0,.53-.53l-.53-.28Z"/><path d="M21,62.7h.73l1.3-.24v-.53q0-.24-1.79-1.58c0,.19-.08.28-.24.28l.24.53v1Z"/><path d="M27.67,62.95h.24a1.87,1.87,0,0,1,.77-.24v-.53h-.24Q28.08,62.17,27.67,62.95Z"/><path class="cls-2" d="M88.49,2.6q0-.49-1-1.06V2.6a3.14,3.14,0,0,1,1,.24Z"/><path class="cls-2" d="M90.42,16.32l.37-.69v-.33h-1v.33Q89.89,16.32,90.42,16.32Z"/><path class="cls-2" d="M103.28,3.21c0-.33-.43-.65-1.3-1q-2,.77-2,1.3a2.11,2.11,0,0,1,1,.37A19.92,19.92,0,0,1,103.28,3.21Z"/><path class="cls-1" d="M104.62,3.54l.6-.12-.46-.59h-.15Z"/><path class="cls-1" d="M103.61,6.83a2.78,2.78,0,0,1,1-.33.58.58,0,0,0-.65-.65c-.46.05-.69.27-.69.65A.29.29,0,0,1,103.61,6.83Z"/><path class="cls-2" d="M89.5,12.11a2.07,2.07,0,0,1,.94-.37q0-.73-2.93-1.3v.37A2.16,2.16,0,0,0,89.5,12.11Z"/><path class="cls-1" d="M83.44,4.53v.61h.61q0-1,.69-1V3.84h-1Z"/><path class="cls-2" d="M88.18,15.63v-.33H87.12v1h.37A.61.61,0,0,0,88.18,15.63Z"/><path class="cls-2" d="M88.81,6.5c.08.43.31.65.69.65l1.63-.33a2.5,2.5,0,0,0,1,.33V6.83l-.33-.69A14.86,14.86,0,0,1,88.81,6.5Z"/><path d="M99.48,10h.65q.45,0,1-1.06l-.37-.61A1.6,1.6,0,0,0,99.48,10Z"/><path d="M89.95,8q-.61.12-.61.65v.65l2,.33.28-.69L90.27,8Z"/><path d="M106.29,3.21,106,2.6a3.77,3.77,0,0,1-1.2.23l.46.59Z"/><path class="cls-2" d="M104.26,6.65H104c-.38,0-.57.2-.57.53v.49h.28c.35,0,.53-.16.53-.49a.22.22,0,0,1-.24-.24C104.18,6.93,104.26,6.84,104.26,6.65Z"/><path class="cls-2" d="M102.71,2.78l-.28.49h.77A.43.43,0,0,0,102.71,2.78Z"/><path class="cls-2" d="M102.18,12.58l.24-.53v-1.3l1-.24V10a4.42,4.42,0,0,0-3.29,1.75A6.07,6.07,0,0,0,102.18,12.58Z"/><path class="cls-2" d="M36,37.6q0-.49-1-1.06V37.6a3.14,3.14,0,0,1,1,.24Z"/><path class="cls-2" d="M29,33.86V34h.41a1.3,1.3,0,0,1,.2-.57h-.2Q29,33.54,29,33.86Z"/><path class="cls-2" d="M67,53.35q0,.28.57.61l.2-.41-.41-.2Z"/><path class="cls-2" d="M63.22,54l.41-.61-1.75-.16A1.3,1.3,0,0,0,63.22,54Z"/><path class="cls-2" d="M37.92,51.32l.37-.69v-.33h-1v.33Q37.39,51.32,37.92,51.32Z"/><path class="cls-2" d="M46.51,33.94h1.3v-.38l-.46-.31h-.84Z"/><path class="cls-2" d="M50.78,38.21c0-.33-.43-.65-1.3-1q-2,.77-2,1.3a2.11,2.11,0,0,1,1,.37A19.92,19.92,0,0,1,50.78,38.21Z"/><path class="cls-1" d="M52.12,38.54l.6-.12-.46-.59h-.15Z"/><path class="cls-1" d="M51.11,41.83a2.78,2.78,0,0,1,1-.33.58.58,0,0,0-.65-.65c-.46.05-.69.27-.69.65A.29.29,0,0,1,51.11,41.83Z"/><path class="cls-2" d="M37,47.11a2.07,2.07,0,0,1,.94-.37q0-.73-2.93-1.3v.37A2.16,2.16,0,0,0,37,47.11Z"/><path class="cls-1" d="M30.94,39.53v.61h.61q0-1,.69-1v-.33h-1Z"/><path class="cls-2" d="M66.47,51v.33a.66.66,0,0,0,.69.61h.93q.69,0,.69-.61l-1.38-.69A2.07,2.07,0,0,1,66.47,51Z"/><path class="cls-2" d="M35.68,50.63v-.33H34.62v1H35A.61.61,0,0,0,35.68,50.63Z"/><path class="cls-2" d="M36.31,41.5c.08.43.31.65.69.65l1.63-.33a2.5,2.5,0,0,0,1,.33v-.33l-.33-.69A14.86,14.86,0,0,1,36.31,41.5Z"/><rect x="56.53" y="47.73" width="1.3" height="0.61"/><path d="M47,45h.65q.45,0,1-1.06l-.37-.61A1.6,1.6,0,0,0,47,45Z"/><path d="M37.45,43q-.61.12-.61.65v.65l2,.33.28-.69L37.77,43Z"/><path d="M67.31,44.88l-.69-.37h-.28c-.46.11-.69.34-.69.69v.28a2.26,2.26,0,0,1,1,.33Z"/><path d="M55,21.77h1q-.28-1.3-2-1.3h-.33Q53.73,21,55,21.77Z"/><polygon points="58.02 33.25 57.37 32.93 56.72 33.94 57.37 34.31 58.02 33.25"/><path d="M49.54,27.87c0-.46-.22-.69-.65-.69l-.37.69v.37h1Z"/><path d="M60.66,32.93q-.29,0-.29.33a4.17,4.17,0,0,0-2-.61q0,.81,2.6,1.3h.69Q61.68,33.46,60.66,32.93Z"/><path d="M79.76,33.44a2.77,2.77,0,0,1,1.06-.32v-.7l-.86.3Z"/><path d="M63.67,36.91l-.37.69h1Q64.28,36.91,63.67,36.91Z"/><path class="cls-2" d="M47.81,33.25h-.46l.46.31Z"/><path d="M53.79,38.21l-.33-.61a3.77,3.77,0,0,1-1.2.23l.46.59Z"/><rect class="cls-2" x="67.53" y="29.49" width="0.45" height="0.81"/><path class="cls-2" d="M60.29,33.39c0,.33.19.49.49.49H61V33.6a1.89,1.89,0,0,1-.24-.73A.47.47,0,0,0,60.29,33.39Z"/><path class="cls-2" d="M69.32,25.91v-.29h-.53v.73C69.14,26.36,69.32,26.21,69.32,25.91Z"/><path class="cls-2" d="M52.53,54.29v.28c.05.35.23.53.53.53v-.29A.47.47,0,0,0,52.53,54.29Z"/><path class="cls-2" d="M64.68,23.07h.49v-.29q0-.36-.77-.81h-.53Q64.32,23.07,64.68,23.07Z"/><path class="cls-2" d="M64.68,26.36h-.53l-.28,1.1Q64.32,27.46,64.68,26.36Z"/><path class="cls-2" d="M51.76,41.65h-.24c-.38,0-.57.2-.57.53v.49h.28c.35,0,.53-.16.53-.49a.22.22,0,0,1-.24-.24C51.68,41.93,51.76,41.84,51.76,41.65Z"/><path class="cls-2" d="M71.63,27.17v-.24H70.9q-.41,0-.81.77l.53.24Q71.63,27.54,71.63,27.17Z"/><path class="cls-2" d="M50.21,37.78l-.28.49h.77A.43.43,0,0,0,50.21,37.78Z"/><path class="cls-2" d="M49.68,47.58l.24-.53v-1.3l1-.24V45a4.42,4.42,0,0,0-3.29,1.75A6.07,6.07,0,0,0,49.68,47.58Z"/><path class="cls-2" d="M59.48,22.78v.53q.37,0,.81-.77v-.28H60C59.66,22.34,59.48,22.51,59.48,22.78Z"/><path class="cls-2" d="M67.24,43.68l-.29.53v.53h.29a.53.53,0,0,0,0-1.06Z"/><path class="cls-2" d="M64.4,47.87q-.16,0-1.26-1.3c-.38.05-.57.22-.57.49v.53q.61,0,1.58,1h.24l-.24-.53C64.32,48.07,64.4,48,64.4,47.87Z"/><path class="cls-2" d="M72.16,45q0,.37.77.73h.77L74,44.49h-.24A2.18,2.18,0,0,1,72.16,45Z"/><path class="cls-2" d="M59.77,48.07v.29q.08.53.53.53h.49v-1a1.69,1.69,0,0,1-.77-.29Z"/><path class="cls-2" d="M76,44.74l-.24.49a.54.54,0,0,0,.37.5v-1Z"/><path class="cls-2" d="M55.62,49.41l-.53.73v.28l.24.49a1.4,1.4,0,0,0,1.1-1Z"/><path class="cls-2" d="M55.09,26.93h-.77v.77Q54.72,27.7,55.09,26.93Z"/><path class="cls-2" d="M55.09,35.71H54.6q-.57,0-.81,1.26h.81l.73-.53A1.88,1.88,0,0,1,55.09,35.71Z"/><path class="cls-2" d="M57.94,54.57v.53h-.77l-1-.81v.28a3.69,3.69,0,0,0,2,1,.25.25,0,0,1,.29-.28,1.69,1.69,0,0,1-.29-.73Z"/><path class="cls-2" d="M60.54,26.93H59v.24q.16,0,1.54.29Z"/><path class="cls-2" d="M57.16,26.65q0,.37.77.81h.24a.47.47,0,0,0,.53-.53l-.53-.28Z"/><path d="M43.3,33.64l.2-.53v-.24h-.73v.24C42.8,33.46,43,33.64,43.3,33.64Z"/><path d="M77.85,54v.28a1.9,1.9,0,0,1,1,.53h.28q.45,0,.45-.53L78.34,54Z"/><path d="M76.15,45.73l.16,0c.33,0,.49-.18.49-.53h-.49V45H77v-.28h-.89Z"/><path d="M73.46,27.7h.73l1.3-.24v-.53q0-.24-1.79-1.58c0,.19-.08.28-.24.28l.24.53v1Z"/><path d="M80.17,27.95h.24a1.87,1.87,0,0,1,.77-.24v-.53h-.24Q80.58,27.17,80.17,27.95Z"/><path class="cls-2" d="M14.46,18.35q0,.28.57.61l.2-.41-.41-.2Z"/><path class="cls-2" d="M10.72,19l.41-.61-1.75-.16A1.3,1.3,0,0,0,10.72,19Z"/><path class="cls-1" d="M-.38,3.54l.6-.12-.46-.59H-.38Z"/><path class="cls-2" d="M14,16v.33a.66.66,0,0,0,.69.61h.93q.69,0,.69-.61l-1.38-.69A2.07,2.07,0,0,1,14,16Z"/><rect x="4.03" y="12.73" width="1.3" height="0.61"/><path d="M14.81,9.88l-.69-.37h-.28c-.46.11-.69.34-.69.69v.28a2.26,2.26,0,0,1,1,.33Z"/><path d="M11.17,1.91l-.37.69h1Q11.78,1.91,11.17,1.91Z"/><path d="M1.29,3.21,1,2.6a3.77,3.77,0,0,1-1.2.23l.46.59Z"/><path class="cls-2" d="M0,19.29v.28c.05.35.23.53.53.53v-.29A.47.47,0,0,0,0,19.29Z"/><path class="cls-2" d="M14.74,8.68l-.29.53v.53h.29a.47.47,0,0,0,.53-.53A.47.47,0,0,0,14.74,8.68Z"/><path class="cls-2" d="M11.9,12.87q-.16,0-1.26-1.3c-.38.05-.57.22-.57.49v.53q.61,0,1.58,1h.24l-.24-.53C11.82,13.07,11.9,13,11.9,12.87Z"/><path class="cls-2" d="M19.66,10q0,.37.77.73h.77l.24-1.26h-.24A2.18,2.18,0,0,1,19.66,10Z"/><path class="cls-2" d="M7.27,13.07v.29q.08.53.53.53h.49v-1a1.69,1.69,0,0,1-.77-.29Z"/><path class="cls-2" d="M23.53,9.74l-.24.49a.54.54,0,0,0,.37.5v-1Z"/><path class="cls-2" d="M3.12,14.41l-.53.73v.28l.24.49a1.4,1.4,0,0,0,1.1-1Z"/><path class="cls-2" d="M2.59.71H2.1Q1.53.71,1.29,2H2.1l.73-.53A1.88,1.88,0,0,1,2.59.71Z"/><path class="cls-2" d="M5.44,19.57v.53H4.66l-1-.81v.28a3.69,3.69,0,0,0,2,1A.25.25,0,0,1,6,20.31a1.69,1.69,0,0,1-.29-.73Z"/><path d="M25.35,19v.28a1.9,1.9,0,0,1,1,.53h.28q.45,0,.45-.53L25.84,19Z"/><path d="M23.65,10.73l.16,0c.33,0,.49-.18.49-.53h-.49V10h.73V9.74h-.89Z"/></pattern><pattern id="New_Pattern_2-3" data-name="New Pattern 2" width="105" height="70" patternTransform="translate(127.18 38.33) scale(0.47 0.5)" patternUnits="userSpaceOnUse" viewBox="0 0 105 70"><rect class="cls-1" width="105" height="70"/><path class="cls-2" d="M81.45,68.86V69h.41a1.3,1.3,0,0,1,.2-.57h-.2Q81.45,68.54,81.45,68.86Z"/><path class="cls-2" d="M99,68.94h1.3v-.38l-.46-.31H99Z"/><path d="M102,62.87c0-.46-.22-.69-.65-.69l-.37.69v.37h1Z"/><path class="cls-2" d="M100.31,68.25h-.46l.46.31Z"/><path d="M95.8,68.64l.2-.53v-.24h-.73v.24C95.3,68.46,95.48,68.64,95.8,68.64Z"/><path d="M2.53,56.77h1q-.28-1.3-2-1.3H1.23Q1.23,56,2.53,56.77Z"/><polygon points="5.52 68.25 4.87 67.93 4.22 68.94 4.87 69.31 5.52 68.25"/><path d="M8.16,67.93q-.29,0-.29.33a4.17,4.17,0,0,0-2-.61q0,.81,2.6,1.3h.69Q9.18,68.46,8.16,67.93Z"/><path d="M27.26,68.44a2.77,2.77,0,0,1,1.06-.32v-.7l-.86.3Z"/><rect class="cls-2" x="15.03" y="64.49" width="0.45" height="0.81"/><path class="cls-2" d="M7.79,68.39c0,.33.19.49.49.49h.24V68.6a1.89,1.89,0,0,1-.24-.73A.47.47,0,0,0,7.79,68.39Z"/><path class="cls-2" d="M16.82,60.91v-.29h-.53v.73C16.64,61.36,16.82,61.21,16.82,60.91Z"/><path class="cls-2" d="M12.18,58.07h.49v-.29q0-.36-.77-.81h-.53Q11.82,58.07,12.18,58.07Z"/><path class="cls-2" d="M12.18,61.36h-.53l-.28,1.1Q11.82,62.46,12.18,61.36Z"/><path class="cls-2" d="M19.13,62.17v-.24H18.4q-.41,0-.81.77l.53.24Q19.13,62.54,19.13,62.17Z"/><path class="cls-2" d="M7,57.78v.53q.37,0,.81-.77v-.28H7.51C7.16,57.34,7,57.51,7,57.78Z"/><path class="cls-2" d="M2.59,61.93H1.82v.77Q2.22,62.7,2.59,61.93Z"/><path class="cls-2" d="M8,61.93H6.49v.24q.16,0,1.54.29Z"/><path class="cls-2" d="M4.66,61.65q0,.37.77.81h.24a.47.47,0,0,0,.53-.53l-.53-.28Z"/><path d="M21,62.7h.73l1.3-.24v-.53q0-.24-1.79-1.58c0,.19-.08.28-.24.28l.24.53v1Z"/><path d="M27.67,62.95h.24a1.87,1.87,0,0,1,.77-.24v-.53h-.24Q28.08,62.17,27.67,62.95Z"/><path class="cls-2" d="M88.49,2.6q0-.49-1-1.06V2.6a3.14,3.14,0,0,1,1,.24Z"/><path class="cls-2" d="M90.42,16.32l.37-.69v-.33h-1v.33Q89.89,16.32,90.42,16.32Z"/><path class="cls-2" d="M103.28,3.21c0-.33-.43-.65-1.3-1q-2,.77-2,1.3a2.11,2.11,0,0,1,1,.37A19.92,19.92,0,0,1,103.28,3.21Z"/><path class="cls-1" d="M104.62,3.54l.6-.12-.46-.59h-.15Z"/><path class="cls-1" d="M103.61,6.83a2.78,2.78,0,0,1,1-.33.58.58,0,0,0-.65-.65c-.46.05-.69.27-.69.65A.29.29,0,0,1,103.61,6.83Z"/><path class="cls-2" d="M89.5,12.11a2.07,2.07,0,0,1,.94-.37q0-.73-2.93-1.3v.37A2.16,2.16,0,0,0,89.5,12.11Z"/><path class="cls-1" d="M83.44,4.53v.61h.61q0-1,.69-1V3.84h-1Z"/><path class="cls-2" d="M88.18,15.63v-.33H87.12v1h.37A.61.61,0,0,0,88.18,15.63Z"/><path class="cls-2" d="M88.81,6.5c.08.43.31.65.69.65l1.63-.33a2.5,2.5,0,0,0,1,.33V6.83l-.33-.69A14.86,14.86,0,0,1,88.81,6.5Z"/><path d="M99.48,10h.65q.45,0,1-1.06l-.37-.61A1.6,1.6,0,0,0,99.48,10Z"/><path d="M89.95,8q-.61.12-.61.65v.65l2,.33.28-.69L90.27,8Z"/><path d="M106.29,3.21,106,2.6a3.77,3.77,0,0,1-1.2.23l.46.59Z"/><path class="cls-2" d="M104.26,6.65H104c-.38,0-.57.2-.57.53v.49h.28c.35,0,.53-.16.53-.49a.22.22,0,0,1-.24-.24C104.18,6.93,104.26,6.84,104.26,6.65Z"/><path class="cls-2" d="M102.71,2.78l-.28.49h.77A.43.43,0,0,0,102.71,2.78Z"/><path class="cls-2" d="M102.18,12.58l.24-.53v-1.3l1-.24V10a4.42,4.42,0,0,0-3.29,1.75A6.07,6.07,0,0,0,102.18,12.58Z"/><path class="cls-2" d="M36,37.6q0-.49-1-1.06V37.6a3.14,3.14,0,0,1,1,.24Z"/><path class="cls-2" d="M29,33.86V34h.41a1.3,1.3,0,0,1,.2-.57h-.2Q29,33.54,29,33.86Z"/><path class="cls-2" d="M67,53.35q0,.28.57.61l.2-.41-.41-.2Z"/><path class="cls-2" d="M63.22,54l.41-.61-1.75-.16A1.3,1.3,0,0,0,63.22,54Z"/><path class="cls-2" d="M37.92,51.32l.37-.69v-.33h-1v.33Q37.39,51.32,37.92,51.32Z"/><path class="cls-2" d="M46.51,33.94h1.3v-.38l-.46-.31h-.84Z"/><path class="cls-2" d="M50.78,38.21c0-.33-.43-.65-1.3-1q-2,.77-2,1.3a2.11,2.11,0,0,1,1,.37A19.92,19.92,0,0,1,50.78,38.21Z"/><path class="cls-1" d="M52.12,38.54l.6-.12-.46-.59h-.15Z"/><path class="cls-1" d="M51.11,41.83a2.78,2.78,0,0,1,1-.33.58.58,0,0,0-.65-.65c-.46.05-.69.27-.69.65A.29.29,0,0,1,51.11,41.83Z"/><path class="cls-2" d="M37,47.11a2.07,2.07,0,0,1,.94-.37q0-.73-2.93-1.3v.37A2.16,2.16,0,0,0,37,47.11Z"/><path class="cls-1" d="M30.94,39.53v.61h.61q0-1,.69-1v-.33h-1Z"/><path class="cls-2" d="M66.47,51v.33a.66.66,0,0,0,.69.61h.93q.69,0,.69-.61l-1.38-.69A2.07,2.07,0,0,1,66.47,51Z"/><path class="cls-2" d="M35.68,50.63v-.33H34.62v1H35A.61.61,0,0,0,35.68,50.63Z"/><path class="cls-2" d="M36.31,41.5c.08.43.31.65.69.65l1.63-.33a2.5,2.5,0,0,0,1,.33v-.33l-.33-.69A14.86,14.86,0,0,1,36.31,41.5Z"/><rect x="56.53" y="47.73" width="1.3" height="0.61"/><path d="M47,45h.65q.45,0,1-1.06l-.37-.61A1.6,1.6,0,0,0,47,45Z"/><path d="M37.45,43q-.61.12-.61.65v.65l2,.33.28-.69L37.77,43Z"/><path d="M67.31,44.88l-.69-.37h-.28c-.46.11-.69.34-.69.69v.28a2.26,2.26,0,0,1,1,.33Z"/><path d="M55,21.77h1q-.28-1.3-2-1.3h-.33Q53.73,21,55,21.77Z"/><polygon points="58.02 33.25 57.37 32.93 56.72 33.94 57.37 34.31 58.02 33.25"/><path d="M49.54,27.87c0-.46-.22-.69-.65-.69l-.37.69v.37h1Z"/><path d="M60.66,32.93q-.29,0-.29.33a4.17,4.17,0,0,0-2-.61q0,.81,2.6,1.3h.69Q61.68,33.46,60.66,32.93Z"/><path d="M79.76,33.44a2.77,2.77,0,0,1,1.06-.32v-.7l-.86.3Z"/><path d="M63.67,36.91l-.37.69h1Q64.28,36.91,63.67,36.91Z"/><path class="cls-2" d="M47.81,33.25h-.46l.46.31Z"/><path d="M53.79,38.21l-.33-.61a3.77,3.77,0,0,1-1.2.23l.46.59Z"/><rect class="cls-2" x="67.53" y="29.49" width="0.45" height="0.81"/><path class="cls-2" d="M60.29,33.39c0,.33.19.49.49.49H61V33.6a1.89,1.89,0,0,1-.24-.73A.47.47,0,0,0,60.29,33.39Z"/><path class="cls-2" d="M69.32,25.91v-.29h-.53v.73C69.14,26.36,69.32,26.21,69.32,25.91Z"/><path class="cls-2" d="M52.53,54.29v.28c.05.35.23.53.53.53v-.29A.47.47,0,0,0,52.53,54.29Z"/><path class="cls-2" d="M64.68,23.07h.49v-.29q0-.36-.77-.81h-.53Q64.32,23.07,64.68,23.07Z"/><path class="cls-2" d="M64.68,26.36h-.53l-.28,1.1Q64.32,27.46,64.68,26.36Z"/><path class="cls-2" d="M51.76,41.65h-.24c-.38,0-.57.2-.57.53v.49h.28c.35,0,.53-.16.53-.49a.22.22,0,0,1-.24-.24C51.68,41.93,51.76,41.84,51.76,41.65Z"/><path class="cls-2" d="M71.63,27.17v-.24H70.9q-.41,0-.81.77l.53.24Q71.63,27.54,71.63,27.17Z"/><path class="cls-2" d="M50.21,37.78l-.28.49h.77A.43.43,0,0,0,50.21,37.78Z"/><path class="cls-2" d="M49.68,47.58l.24-.53v-1.3l1-.24V45a4.42,4.42,0,0,0-3.29,1.75A6.07,6.07,0,0,0,49.68,47.58Z"/><path class="cls-2" d="M59.48,22.78v.53q.37,0,.81-.77v-.28H60C59.66,22.34,59.48,22.51,59.48,22.78Z"/><path class="cls-2" d="M67.24,43.68l-.29.53v.53h.29a.53.53,0,0,0,0-1.06Z"/><path class="cls-2" d="M64.4,47.87q-.16,0-1.26-1.3c-.38.05-.57.22-.57.49v.53q.61,0,1.58,1h.24l-.24-.53C64.32,48.07,64.4,48,64.4,47.87Z"/><path class="cls-2" d="M72.16,45q0,.37.77.73h.77L74,44.49h-.24A2.18,2.18,0,0,1,72.16,45Z"/><path class="cls-2" d="M59.77,48.07v.29q.08.53.53.53h.49v-1a1.69,1.69,0,0,1-.77-.29Z"/><path class="cls-2" d="M76,44.74l-.24.49a.54.54,0,0,0,.37.5v-1Z"/><path class="cls-2" d="M55.62,49.41l-.53.73v.28l.24.49a1.4,1.4,0,0,0,1.1-1Z"/><path class="cls-2" d="M55.09,26.93h-.77v.77Q54.72,27.7,55.09,26.93Z"/><path class="cls-2" d="M55.09,35.71H54.6q-.57,0-.81,1.26h.81l.73-.53A1.88,1.88,0,0,1,55.09,35.71Z"/><path class="cls-2" d="M57.94,54.57v.53h-.77l-1-.81v.28a3.69,3.69,0,0,0,2,1,.25.25,0,0,1,.29-.28,1.69,1.69,0,0,1-.29-.73Z"/><path class="cls-2" d="M60.54,26.93H59v.24q.16,0,1.54.29Z"/><path class="cls-2" d="M57.16,26.65q0,.37.77.81h.24a.47.47,0,0,0,.53-.53l-.53-.28Z"/><path d="M43.3,33.64l.2-.53v-.24h-.73v.24C42.8,33.46,43,33.64,43.3,33.64Z"/><path d="M77.85,54v.28a1.9,1.9,0,0,1,1,.53h.28q.45,0,.45-.53L78.34,54Z"/><path d="M76.15,45.73l.16,0c.33,0,.49-.18.49-.53h-.49V45H77v-.28h-.89Z"/><path d="M73.46,27.7h.73l1.3-.24v-.53q0-.24-1.79-1.58c0,.19-.08.28-.24.28l.24.53v1Z"/><path d="M80.17,27.95h.24a1.87,1.87,0,0,1,.77-.24v-.53h-.24Q80.58,27.17,80.17,27.95Z"/><path class="cls-2" d="M14.46,18.35q0,.28.57.61l.2-.41-.41-.2Z"/><path class="cls-2" d="M10.72,19l.41-.61-1.75-.16A1.3,1.3,0,0,0,10.72,19Z"/><path class="cls-1" d="M-.38,3.54l.6-.12-.46-.59H-.38Z"/><path class="cls-2" d="M14,16v.33a.66.66,0,0,0,.69.61h.93q.69,0,.69-.61l-1.38-.69A2.07,2.07,0,0,1,14,16Z"/><rect x="4.03" y="12.73" width="1.3" height="0.61"/><path d="M14.81,9.88l-.69-.37h-.28c-.46.11-.69.34-.69.69v.28a2.26,2.26,0,0,1,1,.33Z"/><path d="M11.17,1.91l-.37.69h1Q11.78,1.91,11.17,1.91Z"/><path d="M1.29,3.21,1,2.6a3.77,3.77,0,0,1-1.2.23l.46.59Z"/><path class="cls-2" d="M0,19.29v.28c.05.35.23.53.53.53v-.29A.47.47,0,0,0,0,19.29Z"/><path class="cls-2" d="M14.74,8.68l-.29.53v.53h.29a.47.47,0,0,0,.53-.53A.47.47,0,0,0,14.74,8.68Z"/><path class="cls-2" d="M11.9,12.87q-.16,0-1.26-1.3c-.38.05-.57.22-.57.49v.53q.61,0,1.58,1h.24l-.24-.53C11.82,13.07,11.9,13,11.9,12.87Z"/><path class="cls-2" d="M19.66,10q0,.37.77.73h.77l.24-1.26h-.24A2.18,2.18,0,0,1,19.66,10Z"/><path class="cls-2" d="M7.27,13.07v.29q.08.53.53.53h.49v-1a1.69,1.69,0,0,1-.77-.29Z"/><path class="cls-2" d="M23.53,9.74l-.24.49a.54.54,0,0,0,.37.5v-1Z"/><path class="cls-2" d="M3.12,14.41l-.53.73v.28l.24.49a1.4,1.4,0,0,0,1.1-1Z"/><path class="cls-2" d="M2.59.71H2.1Q1.53.71,1.29,2H2.1l.73-.53A1.88,1.88,0,0,1,2.59.71Z"/><path class="cls-2" d="M5.44,19.57v.53H4.66l-1-.81v.28a3.69,3.69,0,0,0,2,1A.25.25,0,0,1,6,20.31a1.69,1.69,0,0,1-.29-.73Z"/><path d="M25.35,19v.28a1.9,1.9,0,0,1,1,.53h.28q.45,0,.45-.53L25.84,19Z"/><path d="M23.65,10.73l.16,0c.33,0,.49-.18.49-.53h-.49V10h.73V9.74h-.89Z"/></pattern></defs><title>header-img_2</title><g id="Layer_2" data-name="Layer 2"><g id="HOME"><path class="cls-1" d="M132.27,160c.49,0,1,.06,1.51.06s1,0,1.51-.06Z"/><path class="cls-1" d="M256.41,160c.49,0,1,.06,1.51.06s1,0,1.51-.06Z"/><path class="cls-1" d="M194.34,160c.49,0,1,.06,1.51.06s1,0,1.51-.06Z"/><path class="cls-1" d="M380.89,160l.35,0h-.7Z"/><path class="cls-1" d="M318.47,160c.49,0,1,.06,1.51.06s1,0,1.51-.06Z"/><path class="cls-3" d="M22.15,158.23H24.7c8.28-.86,8.71-10,17.79-10s9.52,9.16,17.8,10h2.54c8.28-.86,8.71-10,17.8-10s9.52,9.16,17.8,10h1.19c8.61-.63,8.92-10.05,18.14-10.05s9.52,9.42,18.14,10.05h1.86c8.61-.63,8.92-10.05,18.14-10.05s9.52,9.42,18.14,10.05h1.86c8.61-.63,8.93-10.05,18.14-10.05s9.53,9.42,18.14,10.05H214c8.61-.63,8.92-10.05,18.14-10.05s9.52,9.42,18.14,10.05h1.86c8.61-.63,8.92-10.05,18.14-10.05s9.52,9.42,18.14,10.05h1.86c8.61-.63,8.93-10.05,18.14-10.05s9.53,9.42,18.14,10.05H327c8.61-.63,8.92-10.05,18.14-10.05s9.52,9.42,18.14,10.05h1.86c8.61-.63,8.92-10.05,18.14-10.05s9.52,9.42,18.14,10.05h1.86c8.61-.63,8.93-10.05,18.14-10.05s9.53,9.42,18.14,10.05h1.86c8.61-.63,8.92-10.05,18.14-10.05a10.17,10.17,0,0,1,5.5,1.48,17.31,17.31,0,0,0,3.3-10.78c-.47-10.49-8.5-19.35-19.35-19.35H404.63a19.16,19.16,0,0,0-17.81-12.29H375.7c4.88-3.57,8.21-9.25,7.93-15.48-.47-10.49-8.5-19.35-19.35-19.35H331.91c6-3.37,10.38-9.75,10.06-16.84-.47-10.49-8.5-19.35-19.35-19.35H298.44c6-3.37,10.38-9.75,10.06-16.84C308,8.87,300,0,289.15,0H140.26c-10.12,0-19.82,8.9-19.35,19.35a20.45,20.45,0,0,0,9.93,16.84H73.33C63.2,36.2,53.5,45.1,54,55.55s8.5,19.35,19.35,19.35H83.84c-6,3.37-10.38,9.75-10.06,16.84a20.67,20.67,0,0,0,7.88,15.48H55.57a20.19,20.19,0,0,0-18.1,12.29H19.37c-10.12,0-19.82,8.9-19.35,19.35a21.2,21.2,0,0,0,2.69,9.45,12.07,12.07,0,0,1,1.65-.11C13.45,148.22,13.88,157.37,22.15,158.23Z"/><path class="cls-4" d="M293.35,131.84a80,80,0,0,1-4.45,26.42c-9.08-.32-9.23-10.08-18.6-10.08-9.54,0-9.54,10.08-19.07,10.08s-9.53-10.08-19.07-10.08-9.53,10.08-19.07,10.08-9.54-10.08-19.07-10.08-9.54,10.08-19.07,10.08-9.53-10.08-19.07-10.08c-9.38,0-9.54,9.76-18.6,10.08a80.27,80.27,0,1,1,156.07-26.42Z"/><path class="cls-1" d="M174.36,257.21c.4,0,.81,0,1.24,0s.84,0,1.24,0Z"/><g id="header-girl-platform"><path class="cls-5" d="M241.84,277.16c-3.07-5.18-9-6.08-14.87-6.79a82.94,82.94,0,0,1-12.73-2.58,41.31,41.31,0,0,1-6.2-3.72c-2.53-1.88-4.15-3.28-5.19-6a16.71,16.71,0,0,0-1.28-2.63,41.93,41.93,0,0,0-2.45-5.5c-.48-.87-1-1.72-1.59-2.57a6,6,0,0,0-1.09-1.56c-.73-1-1.48-2-2.21-3a7,7,0,0,0-3.26-2.41,22.35,22.35,0,0,0-6.91-3.21c-7.08-2-15-2.61-22.35-3.4s-14.87-.95-22.31-1.42c-14.65-.93-29.05-3.53-43.44-6.06-7.4-1.3-14.8-2.59-22.24-3.65s-15-2.17-22.58-2.09c-10.2.11-21.22,3.21-28.14,9.85-4,2.55-7.38,6-7.4,10.6a5.31,5.31,0,0,0-.4,2.2c.22,9.74,8.06,17,16.84,21.74,4.19,2.28,8.69,4.18,12.66,6.77,3.68,2.41,6.17,5.75,8.94,8.93a28.43,28.43,0,0,0,12.48,8.51c5,1.73,10.67,2.22,16,2.56a96.18,96.18,0,0,0,17.3-.53c5.79-.68,11.33-2,17-3.21,10.9-2.27,21.33.47,31.67,3.62,10.61,3.23,21,7.13,31.79,9.77,10,2.43,20.56,3.8,30.89,2.73,9.89-1,21.46-4,28.24-11C243.19,288.7,245,282.46,241.84,277.16Z"/><path class="cls-6" d="M51.9,213.42h-.85a57.75,57.75,0,0,0-18.49,3.19l2.38,6.7.66-.23h.29l.17-.05H37l.06,0h.4l.22-.06h.25l.37-.1h.06A50,50,0,0,1,44,221.1h0l1-.14h.23l.32,0h.26l.22,0h.29l.19,0H51.9v-7.11Zm-32.74,11c-8,5.08-10.26,10.9-10.63,15.27a12.55,12.55,0,0,0-.46,3.69c0,.57,0,1.15.1,1.71l7.08-.64q-.05-.56-.07-1.14h0v0h0v0h0v0h0s0-.09,0-.14a5.28,5.28,0,0,1,.4-2.07h0c0-4.56,3.4-8,7.4-10.6h0l0,0h0l0,0h0l0,0h0l.11-.11-1-1.09-3-4.72ZM21,256.6l-5.26,4.78a48.88,48.88,0,0,0,12.89,9.79c.93.51,1.92,1,3.21,1.67l3.2-6.35-.82-.42h0l0,0h0l0,0h0l0,0h0l0,0h0l0,0h0l-1.54-.81h0l0,0h0l0,0h0l0,0h0l0,0h0l0,0h0l0,0h0l0,0h0l0,0h-.26A41.88,41.88,0,0,1,21,256.6Zm25.88,16.74-4.6,5.42a41.31,41.31,0,0,1,4.45,4.74c.51.61,1,1.21,1.56,1.81a37.39,37.39,0,0,0,6.66,6L59,285.54a30.32,30.32,0,0,1-5.17-4.65h0l0,0h0l0,0h0l0,0h0l0,0h0l0,0h0l0,0h0l0,0h0l0,0h0l0,0h0l0,0h0v0l0,0h0l0,0h0l-1-1.19h0l0,0-.42-.5a46.86,46.86,0,0,0-5.27-5.55Zm24.8,17.22-1.29,7a95,95,0,0,0,11.27,1.24c2,.12,4,.19,6,.19H89l-.09-7.11H87.69q-2.79,0-5.59-.17H82a87.77,87.77,0,0,1-10.34-1.13Zm47.8-3.12-.86.12h-.44q-.82.13-1.63.3h-.13l-.11,0h0l-.1,0h0l-.09,0h0l-.09,0h0l-.08,0h0l-.08,0h0l-.08,0h0l-.08,0h0l-.09,0h0l-.09,0h0l-.09,0h0l-.1,0h0l-.11,0h0l-1,.21h0l-.09,0h-.08c-1.71.37-3.41.74-5.12,1.09h0l-.16,0h0l-.15,0h-1.54l-.08,0h-.28c-1.31.25-2.62.49-3.94.69l1.1,7c3.69-.58,7.28-1.35,10.75-2.1l3.48-.74c.82-.17,1.67-.31,2.51-.42l-.89-7.05Zm13.66.4-1.14,7a107.19,107.19,0,0,1,14,3.52l1.73.53,2.12-6.79-.76-.24h0l-1-.3H148a116.39,116.39,0,0,0-14.47-3.64h-.37Zm29.76,8.52-2.21,6.76c5.35,1.75,11.13,3.56,17.06,5l1.7-6.9q-1.45-.36-2.88-.74h0l-.06,0h-1l-.06,0h0c-3.76-1-7.48-2.2-11.19-3.39h0l-.06,0h0l-.06,0h0l0,0h-.55l-.64-.21Zm30,7.41-.87,7.06a93.83,93.83,0,0,0,11.4.72c2.5,0,5-.11,7.37-.34l-.67-7.08H196.51l-.23,0h-.1l-.23,0h-.14q-1.45-.13-2.89-.31Zm45.7-10.35a26.71,26.71,0,0,1-4.34,3.45h0l-.2.12h0l0,0h0l0,0h0l-.14.09h0l0,0h0l0,0h0l0,0h0l0,0h0l-.11.07h-.12l-.11.07h-.12l-.09.05h0l0,0h-.12l-.09,0h-.18l-.06,0h-.18l0,0h-.21l0,0h-.46l0,0h-.2l0,0h-.18l-.07,0h-.16l-.08,0h-.17l-.11.05h-.11l-.1.05h-.14l-.13.06h-.11l-.11.05H230l-.14.06h-.11l-.14.06h-.11l-.14.06h-.11l-.17.07H229l-.17.07h-.09l-.17.07h-.09l-.17.07h-.09l-.17.07H228l-.17.07h-.12l-.11,0h-.14l-.11,0h-.15l-.11,0h-.15l-.11,0h-.16l-.07,0h-.73l-.06,0h-.17l-.1,0h-.17l-.13,0h-.1l-.2.07h0l-1.3.41,2,6.81c7.54-2.25,13.59-5.6,18-9.94l-5-5.05Zm-6.57-29.5-1.22,7c4.07.71,7.86,2,10.31,5.21h0l0,0h0l0,0h0l0,0h0l0,0h0l0,0h0l0,0h0l0,0h0l0,0h0l0,0h0l0,0h0l0,0h0l0,0h.12v0h.08v0h0a11.55,11.55,0,0,1,.73,1.53h0v0h0v0h0v0h0l0,.11h.08a11.1,11.1,0,0,1,.46,1.81l7-1.18a18.38,18.38,0,0,0-2.34-6.35c-4.07-6.86-11-8.78-15.9-9.62Zm-22.38-8-6.32,3.25c1,2,2.51,3.26,4.64,4.84h0l0,0h0a41.32,41.32,0,0,0,6.2,3.72h0l.91.26h1.94l.24.06L219,261.7c-.73-.18-1.47-.37-2.2-.57a32.84,32.84,0,0,1-4.55-2.77c-1.87-1.39-2.31-1.86-2.59-2.41ZM185.6,230.21l-1.86,6.86.2.05h0l.08,0a22.35,22.35,0,0,1,6.91,3.21h0a7,7,0,0,1,3.26,2.41h0l0,0h0L196,245.2h0l.06.09h0l0,0h0l0,0h0l0,0v0l0,0,0,0v0l0,0v0l0,0v0l0,0h0l0,0h0l0,0h0l0,0h.07l0,0h0l0,0h0l0,0h0l0,0h0l0,0h0l0,0h0v0h.1v0h0v0h0a5.9,5.9,0,0,1,.53.76l6.14-3.59a13.14,13.14,0,0,0-1.46-2l-1.19-1.62-.81-1.1a13.91,13.91,0,0,0-5.62-4.52A29.67,29.67,0,0,0,186,230.3l-.36-.1ZM153.47,226l-.42,7.1c2.8.17,5.59.37,8.38.66h.27l2.19.23.59.06,1.12.12h.13l3.15.34h.4l1,.11.83-7.06c-2-.23-4-.44-5.86-.63l-2.75-.29c-2.66-.28-5.51-.51-9-.72Zm-30.33-2.44-1,7c5.7.78,11.42,1.4,17.17,1.77l.45-7.1c-5.14-.33-10.59-.89-16.66-1.72Zm-30.31-5-1.22,7,.79.14h.08l3.46.61h0l1.23.22.5.09,7.69,1.34h0l.34.06h0l.17,0h0l.16,0h0l.16,0h0l.16,0h0l.16,0h0l.16,0h0l.16,0h0l.16,0h0l.16,0h0l.17,0h0l.16,0h0l.16,0h0l.16,0h0l.16,0h0l.15,0h0l.16,0h0l.16,0h0l1.18-7c-3.63-.61-7.32-1.26-10.89-1.89l-1.73-.3-4.35-.76Zm-31.19-4.59L61,221c3.3.32,6.59.76,9.86,1.22h0l2.4.34.44.06H74l.17,0h0l3.94.59,1.08-7-4.46-.66-.58-.08c-4.06-.58-8.25-1.18-12.49-1.58Z"/></g><g id="header-girl"><path class="cls-1" d="M235.37,194.18q.51,0,1,0H235Z"/><path class="cls-1" d="M148.23,194.14a13,13,0,0,0,2.89,0Z"/><path class="cls-1" d="M191.61,194.14a13,13,0,0,0,2.89,0Z"/><path class="cls-7" d="M130,94.63l1,0h-1Z"/><path class="cls-7" d="M131.76,94.66h0Z"/><line class="cls-8" x1="70.86" y1="125.38" x2="70.86" y2="234.46"/><line class="cls-8" x1="58.98" y1="139.36" x2="58.98" y2="248.44"/><line class="cls-9" x1="57.14" y1="237.91" x2="72.03" y2="223.01"/><line class="cls-9" x1="57.14" y1="223.93" x2="72.03" y2="209.03"/><line class="cls-9" x1="57.14" y1="209.25" x2="72.03" y2="194.35"/><path class="cls-10" d="M59.22,190.4c16.69,4.52,37.09,13.25,45.2,31.69,2.55,5.8,2.32,9,4.66,14.91,4.37,11,15,24.76,43,35.79a20.9,20.9,0,0,0,6.49,1.43c3.55.2,8.56-.73,10.51-3.32,1.31-1.75,2.45-6.29-3.92-9.1-27.84-12.29-39.1-24.88-43.5-36-2.34-5.91-2.11-9.11-4.66-14.91-8.11-18.44-28.52-27.17-45.2-31.69Z"/><rect class="cls-11" x="123.69" y="137.95" width="8.23" height="38.42" rx="4.12" ry="4.12" transform="translate(174.67 354.23) rotate(-154.26)"/><path class="cls-12" d="M128.43,218.23l5.37,5.37c.52.52,1,1.06,1.53,1.61.74.84,2.43,2.43,4.12,1.78,1.48-.57,8.74-4.48,9.37-5.9,1-2.17-.09-3.73-1.3-3.56a47.71,47.71,0,0,0-5.82,2.13.84.84,0,0,1-.91-.18l-6.8-6.8"/><path class="cls-12" d="M128.23,218l5.37,5.37c.52.52,1,1.06,1.53,1.61.74.84,2.43,2.43,4.12,1.78,2.26-.87,8.41-3.73,9.37-5.9s-.09-3.73-1.3-3.56a47.71,47.71,0,0,0-5.82,2.13.84.84,0,0,1-.91-.18l-6.8-6.8"/><path class="cls-2" d="M128.25,218.18a10.59,10.59,0,0,1,5.63-5.63,10.61,10.61,0,0,1-5.63,5.63Z"/><path d="M132.52,213.91a13.37,13.37,0,0,1-2.91,2.91,13.36,13.36,0,0,1,2.91-2.91m1.41-2c-.81,0-2.36,1-3.85,2.45-1.82,1.82-2.85,3.73-2.3,4.27a.57.57,0,0,0,.42.15c.81,0,2.36-1,3.85-2.45,1.82-1.82,2.85-3.73,2.3-4.27a.57.57,0,0,0-.42-.15Z"/><path class="cls-12" d="M125.58,222.54l5.37,5.37c.52.52,1,1.06,1.53,1.61.74.84,2.43,2.43,4.12,1.78,1.48-.57,8.74-4.48,9.37-5.9,1-2.17-.09-3.73-1.3-3.56a47.71,47.71,0,0,0-5.82,2.13.84.84,0,0,1-.91-.18l-6.8-6.8"/><path class="cls-12" d="M125.38,222.34l5.37,5.37c.52.52,1,1.06,1.53,1.61.74.84,2.43,2.43,4.12,1.78,2.26-.87,8.41-3.73,9.37-5.9s-.09-3.73-1.3-3.56a47.71,47.71,0,0,0-5.82,2.13.84.84,0,0,1-.91-.18l-6.8-6.8"/><path class="cls-2" d="M125.4,222.49a10.6,10.6,0,0,1,5.63-5.63,10.59,10.59,0,0,1-5.63,5.63Z"/><path d="M129.66,218.22a13.37,13.37,0,0,1-2.91,2.91,13.36,13.36,0,0,1,2.91-2.91m1.41-2c-.81,0-2.36,1-3.85,2.45-1.82,1.82-2.85,3.73-2.3,4.27a.57.57,0,0,0,.42.15c.81,0,2.36-1,3.85-2.45,1.82-1.82,2.85-3.73,2.3-4.27a.57.57,0,0,0-.42-.15Z"/><rect x="117.6" y="200.72" width="4.94" height="22.23" transform="translate(-114.62 146.96) rotate(-45)"/><path d="M114,203.1l14.84,14.84-2.62,2.62-14.84-14.84L114,203.1m0-1.75-4.37,4.37,16.59,16.59,4.37-4.37L114,201.35Z"/><rect x="121.03" y="197.11" width="4.94" height="21.4" transform="translate(-110.78 148.21) rotate(-45)"/><path d="M117.68,199.38l14.26,14.26-2.62,2.62L115.06,202l2.62-2.62m0-1.75L113.31,202l16,16,4.37-4.37-16-16Z"/><path class="cls-13" d="M98.36,205.7c5.68,3,19.34,7.8,37.43-1.56l-11.74-35a14,14,0,0,0-12.76-9.65h-.81a9.5,9.5,0,0,0-9,7.79L96,200.86A4.61,4.61,0,0,0,98.36,205.7Z"/><path class="cls-14" d="M124.32,156.69c3.2-2.64,5.94-7,9.57-6.56.57.06,1.78.31,2.47-.37,1-1,.24-3.14-.12-4.2-3.77-10.93-5.65-16.4-9.76-18.4a12,12,0,0,0-7.53-1.23c-8,1.55-14.71,13.11-11.36,22.35,2.16,5.95,8.6,11.29,13.34,10.25a8.27,8.27,0,0,0,3.4-1.84"/><path class="cls-15" d="M129.55,142.65s-3.33,2.41-6.17,0"/><path class="cls-15" d="M124,156.09a2.57,2.57,0,0,1,3.64-3.64"/><path class="cls-16" d="M123.84,123.55c3.47.29,9.47,4.94,9.83,6.43.67,2.86-15.89,4.45-19.47,13.62-2.55,6.52,5.24,12.47.68,15.48s-11.93,1.69-20.11-1.81c-10.26-4.4-10.06-8.24-20.89-16.46-11.76-8.93-21.5-4-28.69-12.7-6.28-7.55-5.88-19.72-1-22.29,4-2.12,7.92,3.9,21.86,8.36,16.85,5.39,21.67,0,32.79,6.5,5.79,3.39,12.2,2.36,18.49,2.65C120.71,123.5,118,123.07,123.84,123.55Z"/><path class="cls-2" d="M116.7,145c0-.18-3-2.66-4.4-2.25a1.31,1.31,0,0,0-.66.41c-.75.89-.11,2.8,1.53,3.85s3.56.64,3.61.27C117.06,145.16,116.48,146.25,116.7,145Z"/><path class="cls-11" d="M113.33,144.76a6.06,6.06,0,0,1,1.68,1"/><path class="cls-11" d="M105.54,127.53c-.29-.8,8-4.33,15.61-3,1.66.3,5,1.13,5,2.07,0,.54-1.13,1-2.13,1.16-1.84.22-2.48-1-4.61-1.42-2.68-.57-3.76.87-8.87,1.29C109.76,127.72,105.73,128.06,105.54,127.53Z"/><path class="cls-11" d="M54.09,129.63c-.49.65-5.22-1.48-7.58-5.71-2-3.65-1.58-7.57-1.37-7.58s-.16,2.93,1.7,5.54c2,2.77,4.77,2.84,6.77,6.39C53.95,128.84,54.26,129.41,54.09,129.63Z"/><rect class="cls-11" x="102.02" y="135.85" width="8.23" height="38.42" rx="4.12" ry="4.12" transform="translate(257.48 266.45) rotate(160.74)"/><path d="M125.53,179.44c-.39,0-1-.6-1.37-1.57a3.11,3.11,0,0,1-.16-1.54c.06-.31.19-.53.34-.59h0c.48,0,1.11.6,1.44,1.55s.15,2-.18,2.12Z"/><path d="M124.67,176.25h0m-.07.25a2.82,2.82,0,0,1,.76,2.18,2.82,2.82,0,0,1-.76-2.18m-.17-1.38a.89.89,0,0,0-.3,0c-.77.27-1,1.57-.55,2.91.41,1.17,1.23,2,1.95,2a.89.89,0,0,0,.3,0c.77-.27,1-1.57.55-2.91-.41-1.17-1.23-2-1.95-2Z"/><path d="M128.33,187.83c-.39,0-1-.6-1.37-1.57a3.11,3.11,0,0,1-.16-1.54c.06-.31.19-.53.34-.59h0c.48,0,1.11.6,1.44,1.55a3.11,3.11,0,0,1,.16,1.54c-.06.31-.19.53-.34.59Z"/><path d="M127.47,184.64h0m-.07.25a2.82,2.82,0,0,1,.76,2.18,2.82,2.82,0,0,1-.76-2.18m-.17-1.38a.89.89,0,0,0-.3,0c-.77.27-1,1.57-.55,2.91.41,1.17,1.23,2,1.95,2a.89.89,0,0,0,.3,0c.77-.27,1-1.57.55-2.91-.41-1.17-1.23-2-1.95-2Z"/><path d="M131,196.26c-.34,0-1-.6-1.25-1.68s0-2,.36-2.1h0c.4,0,1,.6,1.31,1.67s0,2-.36,2.1Z"/><path d="M130.38,193h0m-.1.24a2.82,2.82,0,0,1,.57,2.24,2.82,2.82,0,0,1-.57-2.24m-.13-1.39-.22,0c-.79.2-1.15,1.48-.8,2.85s1.11,2.14,1.85,2.14l.22,0c.79-.2,1.15-1.48.8-2.85s-1.11-2.14-1.85-2.14Z"/><path class="cls-16" d="M117.11,194.46a16.45,16.45,0,0,1-10.83,1.81l1.08,6.43,6.32,1.93,4.54-3.59Z"/></g><path class="cls-2" d="M129.55,326.66q0,.27.55.59l.2-.39-.39-.2Z"/><path class="cls-2" d="M129.08,324.37v.31a.63.63,0,0,0,.67.59h.9q.67,0,.67-.59L130,324A2,2,0,0,1,129.08,324.37Z"/><path class="cls-2" d="M174.88,299.11a2.06,2.06,0,0,1-.78-.24h-.24v.24a1.83,1.83,0,0,1,1,.51Z"/><path class="cls-2" d="M169.86,302.36v-.51h-.47c-.34.08-.51.25-.51.51v.47h.51A.41.41,0,0,0,169.86,302.36Z"/><path class="cls-2" d="M173.35,299.38v-.78q-2.47.55-2.47,2.27Q173.31,299.85,173.35,299.38Z"/><path class="cls-2" d="M153.19,305.1v.47q0,.35.78.78h1v-1a1.79,1.79,0,0,0-1-.27Z"/><rect class="cls-2" x="163.92" y="306.78" width="0.98" height="0.55"/><path class="cls-2" d="M160.16,309.79l-.47.78q.47,0,.47.23a2.08,2.08,0,0,1,.78-.23Q160.94,310.19,160.16,309.79Z"/><path class="cls-2" d="M170.37,296.13h-1.25v.23l.51.74q1.25-.31,1.25-.74Z"/><rect class="cls-2" x="128.7" y="330.68" width="1.25" height="0.59"/><g id="header-guy-platform"><path class="cls-17" d="M367.52,237.63c25.08-1.16,46.49,23.66,69.25,15.26,17.88-6.61,45.94-35,21.79-55.38-18.69-15.76-24.3.08-73.91-12.31-29.56-7.38-52,5.49-81.69,7.6-20.25,1.44-47.47-.6-45.13,25.7,2.85,31.9,53,46.21,69.5,36.92C342.13,247.09,354.65,238.23,367.52,237.63Z"/><path class="cls-18" d="M366.09,177.57c-3,0-6.06.15-9.29.47l.52,5.34c2.65-.26,5.32-.41,8-.44h.75v-5.37Zm-17.38,1.53c-2.69.44-5.5,1-8.86,1.67l1.09,5.26.7-.15h.25l.13,0h.07c2-.42,4.09-.81,6.13-1.16H349l.59-.1-.86-5.3Zm-16.56,3.34-.34.07c-2.67.59-5.43,1.2-8.18,1.78l1.09,5.26.46-.1h.29c2.6-.55,5.17-1.12,7.72-1.68l.11,0-1.16-5.24Zm-16,3.29c-3,.52-5.71.92-8.39,1.23l.61,5.33h.86l.14,0h.34c2.09-.26,4.14-.57,6.17-.91h.58l.6-.1-.92-5.29Zm-15.87,1.86-4.73.25-4,.21.3,5.36,1.62-.09h.06l2.32-.12,1-.05,3.76-.2-.32-5.36Zm-16.8,1.06a74.82,74.82,0,0,0-9.34,1.49l1.22,5.23a69.65,69.65,0,0,1,8.57-1.37H284l-.55-5.34Zm-17.87,4.44a23.92,23.92,0,0,0-8.71,7l4.3,3.21q.38-.5.79-1h0l0,0h0l0,0h0l0,0h0l0,0h.38l0,0h0l0,0h.07l0,0h0l0,0h0l0,0h0l0,0h0l0,0h0l.07-.07h0a18.26,18.26,0,0,1,2.6-2.09h0l0,0h0l0,0h.09l0,0h0l0,0H266l0,0h0l0,0h0q.91-.56,1.89-1l-2.38-4.81Zm-12.74,16.33a33.85,33.85,0,0,0-.4,9.55q0,.42.08.84l5.34-.6v-.11h0v0h0v0h0v0h0v0h0v-.05h0v-.07h0l0-.25h0v-.06h0v0h0v0h0v0h0v0h0v-.1h0v0h0v0h0v0h0v0h0v-.14h0a27.77,27.77,0,0,1,.36-7.47l-5.27-1Zm6.85,17.37-5,1.9a40.07,40.07,0,0,0,4.77,8.92l4.39-3.1q-.52-.73-1-1.49h0l-.06-.09h0l0,0h0l0,0h0l-.11-.17h0l0,0h0l0,0h0l0,0h0l0,0h0l0,0h0l0,0h0l-.12-.2h0l0,0h0l0,0h0l0,0h0l0,0h0l0,0h0l0,0h0l0,0h0l0,0h0l-.05-.09h0l0,0h0l0,0h0l0,0h0l0,0h0l0,0h0l0,0h0l0,0h0l0,0h0l0,0h0l-.08-.15h0l0,0h0l0,0h0l0,0h0l0,0h0l0,0h0l0,0h0l0,0h0l0,0h0l0,0h0l0,0h0v0h0v0h0v0h0v0h0v0h0v0h0v0h0v0h0v0h0v0h0l0,0h0l0,0h0v0h0v0h0v0h0v0h0v0h0v0h0v0h0v0h0v0h0v0h0v0h0v0h0v0h0v0h0v0h0v0h0v0h0v0h0v0h0v0h0v0h0v0h0v0h0v0h0v0h0v0h0v0h0v0h0v0h0v0h0v0h0v0h0v0h0v0h0v0h0v0h0v0h0v0h0v0h0v0h0v0h0v0h0v0h0v0h0v0h0v0h0v0h0v0h0v0h0v0h0v0h0v0h0v0h0v0h0v0h0v0h0v0h0v0h0v0h0v0h0v0h0v0h0v0h0v0h0v0h0v0h0v0h0v0h0v0h0v0h0v0h0v0h0v0h0v0h0v0h0v0h0v0h0v0h0v0h0v0h0v0h0v0h0v0h0v0h0v0h0v0h0v0h0v0h0v0h0v0h0v0h0v0h0v0h0v0h0v0h0v0h0v0h0v0h0v0h0v0h0v0h0v0h0v0h0v0h0v0h0v0h0v0h0v0h0v0h0v0h0v0h0v0h0v0h0l0-.06h0v0h0v0h0v0h0v0h0v0h0v0h0v0h0v0h0v0h0v0h0l0-.09h0v0h0v0h0v0h0v0h0v0Zm9.22,13.64-3.74,3.85a58.36,58.36,0,0,0,7.48,6.12l3.05-4.42a53.42,53.42,0,0,1-6.21-5h0l-.1-.09h0l0,0h0l0,0h0l0,0h0l0,0h0l0,0h0l0,0h0l0,0h0l0,0h0l0,0h-.07l0,0h0l0,0h0l-.15-.15ZM282.41,250l-2.49,4.76a78,78,0,0,0,8.61,3.86l1.9-5a72.51,72.51,0,0,1-8-3.59Zm15.45,6-1.37,5.19a75.63,75.63,0,0,0,9.27,1.84l.71-5.32c-1.92-.26-3.89-.61-5.88-1.05h-1.91l-.82-.21Zm25.1,1.16q-.75.2-1.55.37h0l-.13,0h0l-.13,0H321l-.1,0h-.06l-.1,0h-.06l-.1,0h-2l-.14,0h0a41.64,41.64,0,0,1-4.18.24l0,5.37a40.21,40.21,0,0,0,10-1.24L323,257.15Zm14.65-7.69-2.39,1.4-.07,0-.06,0-4.58,2.67h0l0,0h0l-.43.25,2.68,4.65c1.75-1,3.47-2,5.17-3l2.45-1.43-2.7-4.64Zm14.64-7.79c-2.11.93-4.24,2-6.39,3.14h0l0,0h-.15l-1.28.69,2.57,4.71c2.81-1.53,5.24-2.75,7.45-3.73l-2.17-4.91Zm16-4.07-.64,0h-1.24a36,36,0,0,0-6.77,1.27l1.46,5.17a29.56,29.56,0,0,1,6.73-1.15l.61,0-.15-5.37Zm7.78.56-.88,5.3a52,52,0,0,1,7.72,1.94l1.67-5.1a57.65,57.65,0,0,0-8.51-2.14ZM391.83,243l-2.06,5c2.53,1.05,5.11,2.21,7.61,3.33l.3.14,2.2-4.9-.3-.14c-2.56-1.15-5.14-2.31-7.75-3.39ZM407,249.7l-2.06,5a90.71,90.71,0,0,0,8.76,3.2l1.55-5.14a86.65,86.65,0,0,1-8.25-3Zm24.62,4.54-.74.11h-.32q-1.41.18-2.82.22h-3.31q-.78-.06-1.57-.16l-.65,5.33a38.78,38.78,0,0,0,4.67.29,34.43,34.43,0,0,0,5.62-.46l-.88-5.3Zm15.07-6.65-.48.33h0l0,0h0l0,0h0l0,0h0l0,0h0l0,0h0l0,0h-.15l0,0h0l-.06,0h0a49.86,49.86,0,0,1-6.73,3.73l2.21,4.89a56.07,56.07,0,0,0,8.45-4.79l-3-4.44ZM459,236.53c-.76.91-1.56,1.8-2.38,2.66h0l-.07.07h0l0,0h0l0,0h0l0,0h0l0,0h0l0,0h0l0,0h0l0,0h0l0,0h0l0,0h0l0,0h0l0,0h0l0,0h0l0,0h-.13l0,0h0l0,0h0l0,0h0c-1,1-2.07,2-3.14,3l3.56,4a64.28,64.28,0,0,0,6.7-6.85L459,236.53Zm8-14.4q-.12.44-.26.89h0v0h0v0h0v0h0v0h0v0h0v0h0v0h0v0h0v0h0v0h0v0h0v0h0v0h0v0h0v0h0v0h0v0h0v0h0v0h0v0h0v0h0v0h0v0h0v0h0v0h0v0h0v0h0v0h0v0h0v0h0v0h0v0h0v0h0v0h0v0h0v0h0v0h0a35.43,35.43,0,0,1-2.82,6l4.63,2.72a39.05,39.05,0,0,0,4-9.33L467,222.13Zm3.32-18.59L465.57,206l.05.1h0l.07.13h0a21.38,21.38,0,0,1,1.26,3.07h0v0h0v0h0l0,.06h0v0h0v0h0v0h.38v0h0v0h0v0h0v0h0v0h0v0h0v0h0v.07h0a20.77,20.77,0,0,1,.4,3l5.36-.31a26.21,26.21,0,0,0-2.91-10.55ZM457.06,189.7l-2.92,4.51q.8.52,1.63,1.12h0l0,0H456l0,0h.34l0,0h0l.1.08h0q.86.65,1.76,1.4h0l.07.06h0l0,0h.06l0,0h0l0,0h.07q1.25,1.06,2.32,2.15l3.84-3.76c-.86-.88-1.8-1.75-2.78-2.58a48.59,48.59,0,0,0-4.95-3.7Zm-18.49-5.14h-.19l0,5.37h3.08l.37,0h3.44l.08,0h0l.09,0h0l.1,0h0q.74.16,1.48.37l1.46-5.17a35.6,35.6,0,0,0-10-1.2Zm-8.22.28c-2.16.09-4.74.19-7.58.19h-.93l0,5.37h1.77c2.55,0,4.87-.1,7-.19l-.23-5.36ZM406,183.89l-.7,5.32h.6l1.58.19h.77c2,.22,3.8.38,5.56.51H414l.37-5.36c-2.73-.19-5.55-.47-8.4-.85ZM390.14,181l-1.2,5.23q3.86.88,7.34,1.54h0l.08,0h.16l.09,0h0l.92.17,1-5.28c-2.7-.49-5.51-1.07-8.37-1.72Zm-17-3.14-.45,5.35a75,75,0,0,1,8.69,1.24l1.07-5.26a80.83,80.83,0,0,0-9.31-1.33Z"/></g><path class="cls-2" d="M411.08,231.79h.11c.14,0,.2-.08.2-.24-.08,0-.11,0-.11-.1a.82.82,0,0,1,.34-.12v-.12h-.11A.54.54,0,0,0,411.08,231.79Z"/><path class="cls-2" d="M369.92,217.25l.23-.36-1-.1A.72.72,0,0,0,369.92,217.25Z"/><path class="cls-2" d="M416.22,204.77h.54a1,1,0,0,0-1.08-.77h-.18Q415.49,204.31,416.22,204.77Z"/><polygon class="cls-2" points="286.38 258.29 286.02 258.09 285.65 258.7 286.02 258.91 286.38 258.29"/><path class="cls-2" d="M287.85,258.09q-.16,0-.16.19a2.21,2.21,0,0,0-1.11-.36q0,.48,1.45.77h.38Q288.41,258.41,287.85,258.09Z"/><path class="cls-2" d="M393.29,224.45a1.47,1.47,0,0,1,.59-.19v-.42l-.48.18Z"/><path class="cls-2" d="M359.55,192v.17c0,.21.13.31.29.31v-.17C359.84,192.1,359.74,192,359.55,192Z"/><path class="cls-2" d="M332.25,230.22h.27v-.17q0-.22-.43-.48h-.29Q332,230.22,332.25,230.22Z"/><path class="cls-2" d="M439.18,229.29l-.72.14.56.63q1-.29,1-.63l-.72-.14Z"/><path class="cls-2" d="M401.91,241.72v.17a.58.58,0,0,0,0,.12h.26A.26.26,0,0,0,401.91,241.72Z"/><path class="cls-2" d="M258.52,236.67l-.16.31v.31h.16c.2,0,.29-.11.29-.31S258.71,236.67,258.52,236.67Z"/><path class="cls-2" d="M389.45,213.63q-.09,0-.7-.77c-.21,0-.32.13-.32.29v.31q.34,0,.88.6h.14l-.14-.31C389.41,213.75,389.45,213.71,389.45,213.63Z"/><path class="cls-2" d="M323.19,224.2q0,.22.43.44H324l.14-.75H324A1.16,1.16,0,0,1,323.19,224.2Z"/><path class="cls-2" d="M362.55,192.16v.31h-.43l-.56-.48v.17a2,2,0,0,0,1.13.6q0-.17.16-.17a1,1,0,0,1-.16-.44Z"/><path class="cls-2" d="M402.2,242.2V242h-.26A.26.26,0,0,0,402.2,242.2Z"/><path class="cls-2" d="M358,194.17a5.62,5.62,0,0,0,1.31.27v-.27a7.35,7.35,0,0,1-1.18-.34Z"/><path class="cls-2" d="M319.85,229.25h-.56q.07.29.32.29h.25Z"/><path class="cls-2" d="M443,214.82h.14a1.37,1.37,0,0,1,.43-.1v-.21h-.14Q443.25,214.52,443,214.82Z"/><path id="cloud_1" data-name="cloud 1" class="cls-2" d="M191.44,64.91a11.15,11.15,0,0,0-11.12-11.85l-.83,0A8.94,8.94,0,0,0,166.1,42.45c0-.12,0-.24,0-.37a12.49,12.49,0,1,0-23.55,5.81,8.94,8.94,0,0,0-8.76,8.94,8.66,8.66,0,0,0,.06,1.05,6.47,6.47,0,0,0-10.21,4.72A6.48,6.48,0,0,0,115.19,69v0a1.65,1.65,0,0,0,1.67,1.55h71.65a1.67,1.67,0,0,0,1.44-.82A11,11,0,0,0,191.44,64.91Z"/><path id="cloud2" class="cls-2" d="M245.11,105c-.4-6.47,9.29-16.4,15.68-16.4l.83,0A8.94,8.94,0,0,1,275,78c0-.12,0-.24,0-.37a12.49,12.49,0,1,1,23.55,5.81,8.94,8.94,0,0,1,8.76,8.94,8.66,8.66,0,0,1-.06,1.05,6.47,6.47,0,0,1,10.21,4.72,6.48,6.48,0,0,1,8.45,6.43v0a1.65,1.65,0,0,1-1.67,1.55H252.59a1.67,1.67,0,0,1-1.44-.82C250.3,103.85,245.22,106.75,245.11,105Z"/><path class="cls-2" d="M114.61,340.16v-.27h-.51v.71C114.44,340.59,114.61,340.45,114.61,340.16Z"/><path class="cls-2" d="M116.84,341.38v-.24h-.7q-.39,0-.78.74l.51.23Q116.84,341.73,116.84,341.38Z"/><g id="header-guy"><rect class="cls-19" x="289.14" y="150.47" width="45.47" height="52.81"/><rect class="cls-20" x="236.51" y="182.4" width="52.81" height="52.81"/><polygon class="cls-21" points="236.51 182.4 281.81 150.47 334.62 150.47 289.32 182.4 236.51 182.4"/><path class="cls-21" d="M263.16,178.61"/><path class="cls-21" d="M263.16,178.61"/><path class="cls-21" d="M264.63,178.61"/><rect class="cls-22" x="248.69" y="182.4" width="26.84" height="52.81"/><line class="cls-23" x1="275.83" y1="182.4" x2="320.16" y2="150.47"/><line class="cls-23" x1="261.89" y1="182.4" x2="306.22" y2="150.47"/><path class="cls-23" d="M303.29,150.47"/><path class="cls-23" d="M259,182.4"/><path class="cls-23" d="M287.16,150.47"/><path class="cls-23" d="M242.82,182.4"/><line class="cls-23" x1="248.69" y1="182.4" x2="293.02" y2="150.47"/><polygon class="cls-24" points="303.39 165.22 276.47 165.22 279.26 159.57 303.5 159.54 303.39 165.22"/><polygon class="cls-25" points="268.04 166.38 279.27 159.54 303.18 159.54 294.96 166.38 268.04 166.38"/><polygon class="cls-25" points="267.97 171.83 276.47 165.22 303.12 165.16 293.49 172.05 267.97 171.83"/><polygon class="cls-26" points="293.49 172.05 267.97 172.05 268.05 166.34 293.29 166.34 293.49 172.05"/><path d="M284.63,168c-5.17,0-10.46-1.23-10.63-4-.08-1.39,1.18-2.66,3.66-3.7a27.37,27.37,0,0,1,8.52-1.76c.73,0,1.44-.07,2.13-.07,5.17,0,10.46,1.23,10.63,4,.08,1.39-1.18,2.66-3.66,3.7a27.37,27.37,0,0,1-8.52,1.76C286,167.93,285.33,168,284.63,168Z"/><path class="cls-2" d="M288.32,159c5.59,0,9.92,1.42,10,3.44.14,2.27-5.07,4.43-11.63,4.83-.71,0-1.41.06-2.09.06-5.59,0-9.92-1.42-10-3.44-.14-2.27,5.07-4.43,11.63-4.83.71,0,1.41-.06,2.09-.06m0-1.18h0c-.71,0-1.44,0-2.17.07-6.49.4-12.94,2.61-12.73,6.08s6.17,4.55,11.21,4.55c.71,0,1.44,0,2.16-.07a28,28,0,0,0,8.71-1.8c3.46-1.44,4.1-3.12,4-4.27-.21-3.36-6.17-4.55-11.21-4.55Z"/><ellipse class="cls-2" cx="286.48" cy="162.92" rx="4.84" ry="1.67" transform="translate(-9.43 17.83) rotate(-3.51)"/><ellipse class="cls-2" cx="286.48" cy="162.92" rx="1.42" ry="0.49" transform="translate(-9.43 17.83) rotate(-3.51)"/><path class="cls-27" d="M305.21,126.59a3.86,3.86,0,0,0-3.15,6c9,13.76,21,15.9,29.53,15.26a41.92,41.92,0,0,0,16.08-4.66,3.86,3.86,0,0,0-3.8-6.72h0a34.54,34.54,0,0,1-13.09,3.7c-9.25.61-16.74-3.36-22.25-11.8A3.86,3.86,0,0,0,305.21,126.59Z"/><path class="cls-28" d="M339.5,212.7v8c0,.78,0,1.55.06,2.33.07,1.17,0,3.61-1.74,4.38-1.52.67-9.81,3.16-11.33,2.57-2.32-.9-2.7-2.83-1.67-3.6a50.05,50.05,0,0,1,5.89-2.74.88.88,0,0,0,.54-.81V212.7"/><path class="cls-28" d="M339.5,212.4v8c0,.78,0,1.55.06,2.33.07,1.17,0,3.61-1.74,4.38-2.32,1-9,3.48-11.33,2.57s-2.7-2.83-1.67-3.6a50.05,50.05,0,0,1,5.89-2.74.88.88,0,0,0,.54-.81V212.4"/><path d="M335.42,213.33c-2.43,0-3.84-.53-4.18-.81.34-.29,1.75-.82,4.18-.82s3.84.53,4.18.82C339.26,212.81,337.85,213.33,335.42,213.33Z"/><path d="M335.42,212.35a13.2,13.2,0,0,1,2.16.17,14,14,0,0,1-4.31,0,13.2,13.2,0,0,1,2.16-.17m0-1.3c-2.69,0-4.88.65-4.88,1.46s2.18,1.46,4.88,1.46,4.88-.65,4.88-1.46-2.18-1.46-4.88-1.46Z"/><path class="cls-28" d="M351,212.7v8c0,.78,0,1.55.06,2.33.07,1.17,0,3.61-1.74,4.38-1.52.67-9.81,3.16-11.33,2.57-2.32-.9-2.7-2.83-1.67-3.6a50.05,50.05,0,0,1,5.89-2.74.88.88,0,0,0,.54-.81V212.7"/><path class="cls-28" d="M351,212.4v8c0,.78,0,1.55.06,2.33.07,1.17,0,3.61-1.74,4.38-2.32,1-9,3.48-11.33,2.57s-2.7-2.83-1.67-3.6a50.05,50.05,0,0,1,5.89-2.74.88.88,0,0,0,.54-.81V212.4"/><path d="M346.93,213.33c-2.43,0-3.84-.53-4.18-.81.34-.29,1.75-.82,4.18-.82s3.84.53,4.18.82C350.77,212.81,349.36,213.33,346.93,213.33Z"/><path d="M346.93,212.35a13.2,13.2,0,0,1,2.16.17,14,14,0,0,1-4.31,0,13.2,13.2,0,0,1,2.16-.17m0-1.3c-2.69,0-4.88.65-4.88,1.46s2.18,1.46,4.88,1.46,4.88-.65,4.88-1.46-2.18-1.46-4.88-1.46Z"/><rect class="cls-29" x="332.85" y="178.34" width="5.19" height="34.52"/><rect class="cls-29" x="344.36" y="178.34" width="5.19" height="34.52"/><path d="M335.33,186.45a.32.32,0,0,0,0-.65.32.32,0,0,0,0,.65Z"/><path d="M335.9,194a.32.32,0,0,0,0-.65.32.32,0,0,0,0,.65Z"/><path d="M336.12,190.51a.32.32,0,0,0,0-.65.32.32,0,0,0,0,.65Z"/><path d="M334.77,200.21a.32.32,0,0,0,0-.65.32.32,0,0,0,0,.65Z"/><path d="M336.91,203.14a.32.32,0,0,0,0-.65.32.32,0,0,0,0,.65Z"/><path d="M334.88,207.21a.32.32,0,0,0,0-.65.32.32,0,0,0,0,.65Z"/><path d="M336.57,211a.32.32,0,0,0,0-.65.32.32,0,0,0,0,.65Z"/><path d="M336.57,197.5a.32.32,0,0,0,0-.65.32.32,0,0,0,0,.65Z"/><path d="M345.6,189.72a.32.32,0,0,0,0-.65.32.32,0,0,0,0,.65Z"/><path d="M349.32,193a.32.32,0,0,0,0-.65.32.32,0,0,0,0,.65Z"/><path d="M348.42,193.1a.32.32,0,0,0,0-.65.32.32,0,0,0,0,.65Z"/><path d="M346.5,199.2a.32.32,0,0,0,0-.65.32.32,0,0,0,0,.65Z"/><path d="M348,187.58a.32.32,0,0,0,0-.65.32.32,0,0,0,0,.65Z"/><path d="M346.73,195.81a.32.32,0,0,0,0-.65.32.32,0,0,0,0,.65Z"/><path d="M348.64,202.35a.32.32,0,0,0,0-.65.32.32,0,0,0,0,.65Z"/><path d="M346.5,206.76a.32.32,0,0,0,0-.65.32.32,0,0,0,0,.65Z"/><path d="M347.74,209.46a.32.32,0,0,0,0-.65.32.32,0,0,0,0,.65Z"/><path d="M346.61,202.81a.32.32,0,0,0,0-.65.32.32,0,0,0,0,.65Z"/><path d="M346.84,184.19a.32.32,0,0,0,0-.65.32.32,0,0,0,0,.65Z"/><path d="M337,183.18a.32.32,0,0,0,0-.65.32.32,0,0,0,0,.65Z"/><path d="M334.88,183.06a.32.32,0,0,0,0-.65.32.32,0,0,0,0,.65Z"/><path d="M334.09,196a.32.32,0,0,0,0-.65.32.32,0,0,0,0,.65Z"/><path d="M346,192.76a.32.32,0,0,0,0-.65.32.32,0,0,0,0,.65Z"/><path d="M347.52,190.17a.32.32,0,0,0,0-.65.32.32,0,0,0,0,.65Z"/><path d="M348.19,206a.32.32,0,0,0,0-.65.32.32,0,0,0,0,.65Z"/><path d="M334.54,190.4a.32.32,0,0,0,0-.65.32.32,0,0,0,0,.65Z"/><path d="M334.77,204.27a.32.32,0,0,0,0-.65.32.32,0,0,0,0,.65Z"/><path d="M336.91,207.32a.32.32,0,0,0,0-.65.32.32,0,0,0,0,.65Z"/><path d="M334.32,210.25a.32.32,0,0,0,0-.65.32.32,0,0,0,0,.65Z"/><path d="M345.94,211.27a.32.32,0,0,0,0-.65.32.32,0,0,0,0,.65Z"/><path d="M348,212.17a.32.32,0,0,0,0-.65.32.32,0,0,0,0,.65Z"/><path d="M345.26,186a.32.32,0,0,0,0-.65.32.32,0,0,0,0,.65Z"/><path d="M347.85,198.41a.32.32,0,0,0,0-.65.32.32,0,0,0,0,.65Z"/><path d="M348.19,182.5a.32.32,0,0,0,0-.65.32.32,0,0,0,0,.65Z"/><path d="M336.69,188.14a.32.32,0,0,0,0-.65.32.32,0,0,0,0,.65Z"/><path d="M333.75,184.87a.32.32,0,0,0,0-.65.32.32,0,0,0,0,.65Z"/><path d="M336.69,200.66a.32.32,0,0,0,0-.65.32.32,0,0,0,0,.65Z"/><path d="M348.42,196.15a.32.32,0,0,0,0-.65.32.32,0,0,0,0,.65Z"/><path d="M333.86,193.1a.32.32,0,0,0,0-.65.32.32,0,0,0,0,.65Z"/><rect class="cls-30" x="342.33" y="174.73" width="9.7" height="13.09"/><rect class="cls-30" x="329.92" y="174.73" width="9.7" height="13.09"/><path class="cls-30" d="M323.6,177s18.5,10.38,43.78-2.71L355,137.45a14.62,14.62,0,0,0-13.78-10.06h-.43a10,10,0,0,0-9.39,8.17Z"/><path class="cls-27" d="M312.89,122c4.13-12,6.19-18,10.7-20.17a13.2,13.2,0,0,1,8.26-1.35c8.8,1.7,16.13,14.38,12.46,24.51-2.37,6.52-9.43,12.38-14.62,11.24s-8.91-9.81-14.22-9.21c-.62.07-2,.35-2.71-.41C311.7,125.51,312.5,123.13,312.89,122Z"/><path class="cls-31" d="M315,103.27c-.65,4,2.71,8.67,6.77,9.76,4.64,1.24,8.85-2.57,10.61-1,1.55,1.36-1.55,4.44-.23,7.52,1.64,3.81,9.44,6.22,14,4.06,6.07-2.87,6.83-14.07,1.58-21.14-4.23-5.69-11.92-8.12-18.5-7.52C325.06,95.32,316,97.42,315,103.27Z"/><path class="cls-32" d="M318.86,117.65s3.66,2.64,6.77,0"/><path class="cls-2" d="M333.54,122.12c-.15-.14,1-4.26,2.49-4.81a1.44,1.44,0,0,1,.86-.05c1.24.32,1.88,2.42,1.08,4.41-.73,1.81-2.77,2.84-3.05,2.54C333.3,122.47,334.52,123.07,333.54,122.12Z"/><path class="cls-32" d="M323.94,132.25a8.82,8.82,0,0,0,3.93-2.6c.18-.18.34-.37.49-.56"/><path class="cls-29" d="M336.38,119.73a6.64,6.64,0,0,0-.87,1.94"/><path d="M328.22,133.7a.32.32,0,0,0,0-.65.32.32,0,0,0,0,.65Z"/><path d="M329.86,130.6a.32.32,0,0,0,0-.65.32.32,0,0,0,0,.65Z"/><path d="M331.27,129.75a.32.32,0,0,0,0-.65.32.32,0,0,0,0,.65Z"/><path d="M330.37,134a.32.32,0,0,0,0-.65.32.32,0,0,0,0,.65Z"/><path d="M331.27,132.18a.32.32,0,0,0,0-.65.32.32,0,0,0,0,.65Z"/><path d="M329.52,132.52a.32.32,0,0,0,0-.65.32.32,0,0,0,0,.65Z"/><path d="M332.57,133.87a.32.32,0,0,0,0-.65.32.32,0,0,0,0,.65Z"/><path d="M332.91,130a.32.32,0,0,0,0-.65.32.32,0,0,0,0,.65Z"/><path d="M333,131.56a.32.32,0,0,0,0-.65.32.32,0,0,0,0,.65Z"/><path d="M335.11,132.69a.32.32,0,0,0,0-.65.32.32,0,0,0,0,.65Z"/><path d="M334.49,131.56a.32.32,0,0,0,0-.65.32.32,0,0,0,0,.65Z"/><path d="M332.4,126.37a.32.32,0,0,0,0-.65.32.32,0,0,0,0,.65Z"/><path d="M334.65,123.77a.32.32,0,0,0,0-.65.32.32,0,0,0,0,.65Z"/><path d="M332.68,127.95a.32.32,0,0,0,0-.65.32.32,0,0,0,0,.65Z"/><path d="M334.15,128.29a.32.32,0,0,0,0-.65.32.32,0,0,0,0,.65Z"/><path d="M335.11,129.75a.32.32,0,0,0,0-.65.32.32,0,0,0,0,.65Z"/><path d="M335.28,127.89a.32.32,0,0,0,0-.65.32.32,0,0,0,0,.65Z"/><path d="M336,124.85a.32.32,0,0,0,0-.65.32.32,0,0,0,0,.65Z"/><path d="M334.2,134.15a.32.32,0,0,0,0-.65.32.32,0,0,0,0,.65Z"/><path d="M331.5,135.11a.32.32,0,0,0,0-.65.32.32,0,0,0,0,.65Z"/><path d="M330.37,128.46a.32.32,0,0,0,0-.65.32.32,0,0,0,0,.65Z"/><path d="M330.76,127a.32.32,0,0,0,0-.65.32.32,0,0,0,0,.65Z"/><path d="M334.2,125.86a.32.32,0,0,0,0-.65.32.32,0,0,0,0,.65Z"/><path class="cls-2" d="M347.56,108.78c-.29,0-1.36-1.79-2.41-3.5-.62-1-1-1.62-1.18-2a3.81,3.81,0,0,0-.75-1.09,4.41,4.41,0,0,0-2-1.16A7.21,7.21,0,0,1,339,99.94c-1.3-.92-2.51-2.27-2.39-2.52,0,0,.11-.09.38-.09,1.77,0,7.41,2.2,9.63,7.16C347.51,106.5,347.75,108.59,347.56,108.78Z"/><path d="M337,97.44h0c1.75,0,7.34,2.18,9.53,7.1a10.86,10.86,0,0,1,1,4.1,23.64,23.64,0,0,1-2.28-3.41c-.62-1-1-1.62-1.17-2a3.89,3.89,0,0,0-.77-1.11,4.55,4.55,0,0,0-2.08-1.19,7.12,7.12,0,0,1-2.15-1,8.13,8.13,0,0,1-2.37-2.37.56.56,0,0,1,.29,0m0-.22c-.26,0-.43.05-.48.15-.18.38,1.26,1.83,2.42,2.65,1.94,1.38,2.83.84,4.21,2.21.59.58.46.71,1.91,3.1,1.23,2,2.17,3.55,2.51,3.55h0c.32-.17,0-2.51-.89-4.42-2.26-5-8-7.23-9.73-7.23Z"/><path d="M331.42,160.35c-.35-.3-1.49-1.47-3.66-3.93a.81.81,0,0,1-.18-.69l1.43-6.88a.8.8,0,0,1,.78-.64.79.79,0,0,1,.24,0,18.05,18.05,0,0,0,5.4.77l1.11,0h0a.83.83,0,0,1,.65.28.79.79,0,0,1,.19.64l-1.06,7.51a.8.8,0,0,1-.39.58A28.16,28.16,0,0,1,331.42,160.35Z"/><path d="M329.79,147.55l0,1.3a18.68,18.68,0,0,0,5.59.8l1.16,0a.16.16,0,0,1,.12.06.14.14,0,0,1,0,.12l-1.06,7.51a.15.15,0,0,1-.07.11,39.34,39.34,0,0,1-4,2.17c-.49-.48-1.52-1.56-3.33-3.61a.15.15,0,0,1,0-.13l1.43-6.88a.16.16,0,0,1,.15-.13v-1.3m0,0a1.45,1.45,0,0,0-1.42,1.16l-1.43,6.88a1.45,1.45,0,0,0,.33,1.25,44.54,44.54,0,0,0,4,4.16l.09,0c.68,0,3.65-1.72,4.94-2.48a1.45,1.45,0,0,0,.7-1L338,150a1.45,1.45,0,0,0-1.44-1.65h-.07l-1.08,0a17.32,17.32,0,0,1-5.2-.74,1.45,1.45,0,0,0-.44-.07Z"/><path class="cls-27" d="M300.77,144.06a3.86,3.86,0,0,0-.7,6.72c13.47,9.42,25.43,6.92,33.09,3.16a41.92,41.92,0,0,0,13.18-10.32,3.86,3.86,0,0,0-6-4.82h0a34.54,34.54,0,0,1-10.77,8.31c-8.36,4-16.79,3.12-25.05-2.66A3.86,3.86,0,0,0,300.77,144.06Z"/><rect class="cls-33" x="261.89" y="182.4" height="52.81" transform="translate(523.79 417.61) rotate(180)"/><rect class="cls-34" x="253.5" y="195.48" width="23.47" height="43.52"/><polygon class="cls-34" points="246.41 201.96 253.5 195.48 276.97 195.48 269.88 201.96 246.41 201.96"/><polygon class="cls-34" points="246.41 245.48 253.5 239 276.97 239 269.88 245.48 246.41 245.48"/><rect class="cls-34" x="246.41" y="201.96" width="23.47" height="43.52"/><circle class="cls-35" cx="258.15" cy="214.79" r="5.75"/><circle class="cls-35" cx="258.15" cy="230.2" r="4.06"/><polyline class="cls-36" points="252.42 125.08 252.42 115.19 259.25 112.13 259.25 120.84"/><ellipse class="cls-37" cx="257.76" cy="121.94" rx="2" ry="1.08" transform="translate(-10.73 217.98) rotate(-45)"/><ellipse class="cls-37" cx="266.24" cy="112.05" rx="2" ry="1.08" transform="translate(-1.25 221.08) rotate(-45)"/><ellipse class="cls-37" cx="250.93" cy="125.94" rx="2" ry="1.08" transform="translate(-15.56 214.32) rotate(-45)"/><polyline class="cls-36" points="273.85 127.43 273.85 117.54 280.68 114.48 280.68 123.19"/><ellipse class="cls-37" cx="279.19" cy="124.29" rx="2" ry="1.08" transform="translate(-6.12 233.82) rotate(-45)"/><ellipse class="cls-37" cx="272.36" cy="128.3" rx="2" ry="1.08" transform="translate(-10.95 230.16) rotate(-45)"/><line class="cls-38" x1="267.83" y1="111.37" x2="267.73" y2="102.24"/><ellipse class="cls-37" cx="285.31" cy="97.92" rx="2" ry="1.08" transform="translate(14.32 230.43) rotate(-45)"/><polyline class="cls-36" points="286.9 97.24 286.8 88.11 289.62 86.23"/></g></g></g></svg>