<svg xmlns="http://www.w3.org/2000/svg" xmlns:xlink="http://www.w3.org/1999/xlink" viewBox="0 0 639.59 388.61"><defs><style>.cls-1,.cls-15,.cls-22,.cls-23,.cls-32,.cls-33,.cls-36{fill:none;}.cls-11,.cls-12,.cls-13,.cls-14,.cls-2,.cls-20,.cls-21,.cls-27,.cls-29,.cls-30,.cls-8,.cls-9{fill:#fff;}.cls-3{fill:#88aeea;}.cls-4{fill:#efe8aa;}.cls-5{fill:#80d692;}.cls-6{fill:url(#New_Pattern_2);}.cls-7{fill:#06aee5;}.cls-10,.cls-11,.cls-12,.cls-13,.cls-14,.cls-15,.cls-16,.cls-19,.cls-20,.cls-21,.cls-22,.cls-23,.cls-24,.cls-25,.cls-26,.cls-27,.cls-28,.cls-29,.cls-30,.cls-31,.cls-32,.cls-33,.cls-34,.cls-36,.cls-37,.cls-38,.cls-8,.cls-9{stroke:#000;}.cls-10,.cls-11,.cls-13,.cls-15,.cls-16,.cls-21,.cls-23,.cls-29,.cls-30,.cls-32,.cls-36,.cls-38,.cls-8,.cls-9{stroke-linecap:round;}.cls-10,.cls-12,.cls-13,.cls-16,.cls-19,.cls-20,.cls-21,.cls-22,.cls-23,.cls-24,.cls-25,.cls-26,.cls-28,.cls-30,.cls-33,.cls-34,.cls-36,.cls-38,.cls-8,.cls-9{stroke-linejoin:round;}.cls-10,.cls-8{stroke-width:2.88px;}.cls-9{stroke-width:3.12px;}.cls-11,.cls-14,.cls-15,.cls-27,.cls-29,.cls-31,.cls-32,.cls-35,.cls-37{stroke-miterlimit:10;}.cls-11,.cls-12,.cls-13,.cls-14,.cls-15,.cls-16{stroke-width:1.02px;}.cls-17{fill:#ef8269;}.cls-18{fill:url(#New_Pattern_2-3);}.cls-19,.cls-20,.cls-21,.cls-23,.cls-33,.cls-35{stroke-width:1.01px;}.cls-22{stroke-width:1.06px;}.cls-24{stroke-width:0.25px;}.cls-25{stroke-width:0.7px;}.cls-26{stroke-width:0.25px;}.cls-27,.cls-28,.cls-29,.cls-30,.cls-31,.cls-32{stroke-width:1.01px;}.cls-34{stroke-width:0.61px;}.cls-35{stroke:#fff;}.cls-36,.cls-37,.cls-38{stroke-width:1.1px;}</style><pattern id="New_Pattern_2" data-name="New Pattern 2" width="105" height="70" patternTransform="translate(83.85 -18.75) scale(0.53)" patternUnits="userSpaceOnUse" viewBox="0 0 105 70"><rect class="cls-1" width="105" height="70"/><path class="cls-2" d="M81.45,68.86V69h.41a1.3,1.3,0,0,1,.2-.57h-.2Q81.45,68.54,81.45,68.86Z"/><path class="cls-2" d="M99,68.94h1.3v-.38l-.46-.31H99Z"/><path d="M102,62.87c0-.46-.22-.69-.65-.69l-.37.69v.37h1Z"/><path class="cls-2" d="M100.31,68.25h-.46l.46.31Z"/><path d="M95.8,68.64l.2-.53v-.24h-.73v.24C95.3,68.46,95.48,68.64,95.8,68.64Z"/><path d="M2.53,56.77h1q-.28-1.3-2-1.3H1.23Q1.23,56,2.53,56.77Z"/><polygon points="5.52 68.25 4.87 67.93 4.22 68.94 4.87 69.31 5.52 68.25"/><path d="M8.16,67.93q-.29,0-.29.33a4.17,4.17,0,0,0-2-.61q0,.81,2.6,1.3h.69Q9.18,68.46,8.16,67.93Z"/><path d="M27.26,68.44a2.77,2.77,0,0,1,1.06-.32v-.7l-.86.3Z"/><rect class="cls-2" x="15.03" y="64.49" width="0.45" height="0.81"/><path class="cls-2" d="M7.79,68.39c0,.33.19.49.49.49h.24V68.6a1.89,1.89,0,0,1-.24-.73A.47.47,0,0,0,7.79,68.39Z"/><path class="cls-2" d="M16.82,60.91v-.29h-.53v.73C16.64,61.36,16.82,61.21,16.82,60.91Z"/><path class="cls-2" d="M12.18,58.07h.49v-.29q0-.36-.77-.81h-.53Q11.82,58.07,12.18,58.07Z"/><path class="cls-2" d="M12.18,61.36h-.53l-.28,1.1Q11.82,62.46,12.18,61.36Z"/><path class="cls-2" d="M19.13,62.17v-.24H18.4q-.41,0-.81.77l.53.24Q19.13,62.54,19.13,62.17Z"/><path class="cls-2" d="M7,57.78v.53q.37,0,.81-.77v-.28H7.51C7.16,57.34,7,57.51,7,57.78Z"/><path class="cls-2" d="M2.59,61.93H1.82v.77Q2.22,62.7,2.59,61.93Z"/><path class="cls-2" d="M8,61.93H6.49v.24q.16,0,1.54.29Z"/><path class="cls-2" d="M4.66,61.65q0,.37.77.81h.24a.47.47,0,0,0,.53-.53l-.53-.28Z"/><path d="M21,62.7h.73l1.3-.24v-.53q0-.24-1.79-1.58c0,.19-.08.28-.24.28l.24.53v1Z"/><path d="M27.67,62.95h.24a1.87,1.87,0,0,1,.77-.24v-.53h-.24Q28.08,62.17,27.67,62.95Z"/><path class="cls-2" d="M88.49,2.6q0-.49-1-1.06V2.6a3.14,3.14,0,0,1,1,.24Z"/><path class="cls-2" d="M90.42,16.32l.37-.69v-.33h-1v.33Q89.89,16.32,90.42,16.32Z"/><path class="cls-2" d="M103.28,3.21c0-.33-.43-.65-1.3-1q-2,.77-2,1.3a2.11,2.11,0,0,1,1,.37A19.92,19.92,0,0,1,103.28,3.21Z"/><path class="cls-1" d="M104.62,3.54l.6-.12-.46-.59h-.15Z"/><path class="cls-1" d="M103.61,6.83a2.78,2.78,0,0,1,1-.33.58.58,0,0,0-.65-.65c-.46.05-.69.27-.69.65A.29.29,0,0,1,103.61,6.83Z"/><path class="cls-2" d="M89.5,12.11a2.07,2.07,0,0,1,.94-.37q0-.73-2.93-1.3v.37A2.16,2.16,0,0,0,89.5,12.11Z"/><path class="cls-1" d="M83.44,4.53v.61h.61q0-1,.69-1V3.84h-1Z"/><path class="cls-2" d="M88.18,15.63v-.33H87.12v1h.37A.61.61,0,0,0,88.18,15.63Z"/><path class="cls-2" d="M88.81,6.5c.08.43.31.65.69.65l1.63-.33a2.5,2.5,0,0,0,1,.33V6.83l-.33-.69A14.86,14.86,0,0,1,88.81,6.5Z"/><path d="M99.48,10h.65q.45,0,1-1.06l-.37-.61A1.6,1.6,0,0,0,99.48,10Z"/><path d="M89.95,8q-.61.12-.61.65v.65l2,.33.28-.69L90.27,8Z"/><path d="M106.29,3.21,106,2.6a3.77,3.77,0,0,1-1.2.23l.46.59Z"/><path class="cls-2" d="M104.26,6.65H104c-.38,0-.57.2-.57.53v.49h.28c.35,0,.53-.16.53-.49a.22.22,0,0,1-.24-.24C104.18,6.93,104.26,6.84,104.26,6.65Z"/><path class="cls-2" d="M102.71,2.78l-.28.49h.77A.43.43,0,0,0,102.71,2.78Z"/><path class="cls-2" d="M102.18,12.58l.24-.53v-1.3l1-.24V10a4.42,4.42,0,0,0-3.29,1.75A6.07,6.07,0,0,0,102.18,12.58Z"/><path class="cls-2" d="M36,37.6q0-.49-1-1.06V37.6a3.14,3.14,0,0,1,1,.24Z"/><path class="cls-2" d="M29,33.86V34h.41a1.3,1.3,0,0,1,.2-.57h-.2Q29,33.54,29,33.86Z"/><path class="cls-2" d="M67,53.35q0,.28.57.61l.2-.41-.41-.2Z"/><path class="cls-2" d="M63.22,54l.41-.61-1.75-.16A1.3,1.3,0,0,0,63.22,54Z"/><path class="cls-2" d="M37.92,51.32l.37-.69v-.33h-1v.33Q37.39,51.32,37.92,51.32Z"/><path class="cls-2" d="M46.51,33.94h1.3v-.38l-.46-.31h-.84Z"/><path class="cls-2" d="M50.78,38.21c0-.33-.43-.65-1.3-1q-2,.77-2,1.3a2.11,2.11,0,0,1,1,.37A19.92,19.92,0,0,1,50.78,38.21Z"/><path class="cls-1" d="M52.12,38.54l.6-.12-.46-.59h-.15Z"/><path class="cls-1" d="M51.11,41.83a2.78,2.78,0,0,1,1-.33.58.58,0,0,0-.65-.65c-.46.05-.69.27-.69.65A.29.29,0,0,1,51.11,41.83Z"/><path class="cls-2" d="M37,47.11a2.07,2.07,0,0,1,.94-.37q0-.73-2.93-1.3v.37A2.16,2.16,0,0,0,37,47.11Z"/><path class="cls-1" d="M30.94,39.53v.61h.61q0-1,.69-1v-.33h-1Z"/><path class="cls-2" d="M66.47,51v.33a.66.66,0,0,0,.69.61h.93q.69,0,.69-.61l-1.38-.69A2.07,2.07,0,0,1,66.47,51Z"/><path class="cls-2" d="M35.68,50.63v-.33H34.62v1H35A.61.61,0,0,0,35.68,50.63Z"/><path class="cls-2" d="M36.31,41.5c.08.43.31.65.69.65l1.63-.33a2.5,2.5,0,0,0,1,.33v-.33l-.33-.69A14.86,14.86,0,0,1,36.31,41.5Z"/><rect x="56.53" y="47.73" width="1.3" height="0.61"/><path d="M47,45h.65q.45,0,1-1.06l-.37-.61A1.6,1.6,0,0,0,47,45Z"/><path d="M37.45,43q-.61.12-.61.65v.65l2,.33.28-.69L37.77,43Z"/><path d="M67.31,44.88l-.69-.37h-.28c-.46.11-.69.34-.69.69v.28a2.26,2.26,0,0,1,1,.33Z"/><path d="M55,21.77h1q-.28-1.3-2-1.3h-.33Q53.73,21,55,21.77Z"/><polygon points="58.02 33.25 57.37 32.93 56.72 33.94 57.37 34.31 58.02 33.25"/><path d="M49.54,27.87c0-.46-.22-.69-.65-.69l-.37.69v.37h1Z"/><path d="M60.66,32.93q-.29,0-.29.33a4.17,4.17,0,0,0-2-.61q0,.81,2.6,1.3h.69Q61.68,33.46,60.66,32.93Z"/><path d="M79.76,33.44a2.77,2.77,0,0,1,1.06-.32v-.7l-.86.3Z"/><path d="M63.67,36.91l-.37.69h1Q64.28,36.91,63.67,36.91Z"/><path class="cls-2" d="M47.81,33.25h-.46l.46.31Z"/><path d="M53.79,38.21l-.33-.61a3.77,3.77,0,0,1-1.2.23l.46.59Z"/><rect class="cls-2" x="67.53" y="29.49" width="0.45" height="0.81"/><path class="cls-2" d="M60.29,33.39c0,.33.19.49.49.49H61V33.6a1.89,1.89,0,0,1-.24-.73A.47.47,0,0,0,60.29,33.39Z"/><path class="cls-2" d="M69.32,25.91v-.29h-.53v.73C69.14,26.36,69.32,26.21,69.32,25.91Z"/><path class="cls-2" d="M52.53,54.29v.28c.05.35.23.53.53.53v-.29A.47.47,0,0,0,52.53,54.29Z"/><path class="cls-2" d="M64.68,23.07h.49v-.29q0-.36-.77-.81h-.53Q64.32,23.07,64.68,23.07Z"/><path class="cls-2" d="M64.68,26.36h-.53l-.28,1.1Q64.32,27.46,64.68,26.36Z"/><path class="cls-2" d="M51.76,41.65h-.24c-.38,0-.57.2-.57.53v.49h.28c.35,0,.53-.16.53-.49a.22.22,0,0,1-.24-.24C51.68,41.93,51.76,41.84,51.76,41.65Z"/><path class="cls-2" d="M71.63,27.17v-.24H70.9q-.41,0-.81.77l.53.24Q71.63,27.54,71.63,27.17Z"/><path class="cls-2" d="M50.21,37.78l-.28.49h.77A.43.43,0,0,0,50.21,37.78Z"/><path class="cls-2" d="M49.68,47.58l.24-.53v-1.3l1-.24V45a4.42,4.42,0,0,0-3.29,1.75A6.07,6.07,0,0,0,49.68,47.58Z"/><path class="cls-2" d="M59.48,22.78v.53q.37,0,.81-.77v-.28H60C59.66,22.34,59.48,22.51,59.48,22.78Z"/><path class="cls-2" d="M67.24,43.68l-.29.53v.53h.29a.53.53,0,0,0,0-1.06Z"/><path class="cls-2" d="M64.4,47.87q-.16,0-1.26-1.3c-.38.05-.57.22-.57.49v.53q.61,0,1.58,1h.24l-.24-.53C64.32,48.07,64.4,48,64.4,47.87Z"/><path class="cls-2" d="M72.16,45q0,.37.77.73h.77L74,44.49h-.24A2.18,2.18,0,0,1,72.16,45Z"/><path class="cls-2" d="M59.77,48.07v.29q.08.53.53.53h.49v-1a1.69,1.69,0,0,1-.77-.29Z"/><path class="cls-2" d="M76,44.74l-.24.49a.54.54,0,0,0,.37.5v-1Z"/><path class="cls-2" d="M55.62,49.41l-.53.73v.28l.24.49a1.4,1.4,0,0,0,1.1-1Z"/><path class="cls-2" d="M55.09,26.93h-.77v.77Q54.72,27.7,55.09,26.93Z"/><path class="cls-2" d="M55.09,35.71H54.6q-.57,0-.81,1.26h.81l.73-.53A1.88,1.88,0,0,1,55.09,35.71Z"/><path class="cls-2" d="M57.94,54.57v.53h-.77l-1-.81v.28a3.69,3.69,0,0,0,2,1,.25.25,0,0,1,.29-.28,1.69,1.69,0,0,1-.29-.73Z"/><path class="cls-2" d="M60.54,26.93H59v.24q.16,0,1.54.29Z"/><path class="cls-2" d="M57.16,26.65q0,.37.77.81h.24a.47.47,0,0,0,.53-.53l-.53-.28Z"/><path d="M43.3,33.64l.2-.53v-.24h-.73v.24C42.8,33.46,43,33.64,43.3,33.64Z"/><path d="M77.85,54v.28a1.9,1.9,0,0,1,1,.53h.28q.45,0,.45-.53L78.34,54Z"/><path d="M76.15,45.73l.16,0c.33,0,.49-.18.49-.53h-.49V45H77v-.28h-.89Z"/><path d="M73.46,27.7h.73l1.3-.24v-.53q0-.24-1.79-1.58c0,.19-.08.28-.24.28l.24.53v1Z"/><path d="M80.17,27.95h.24a1.87,1.87,0,0,1,.77-.24v-.53h-.24Q80.58,27.17,80.17,27.95Z"/><path class="cls-2" d="M14.46,18.35q0,.28.57.61l.2-.41-.41-.2Z"/><path class="cls-2" d="M10.72,19l.41-.61-1.75-.16A1.3,1.3,0,0,0,10.72,19Z"/><path class="cls-1" d="M-.38,3.54l.6-.12-.46-.59H-.38Z"/><path class="cls-2" d="M14,16v.33a.66.66,0,0,0,.69.61h.93q.69,0,.69-.61l-1.38-.69A2.07,2.07,0,0,1,14,16Z"/><rect x="4.03" y="12.73" width="1.3" height="0.61"/><path d="M14.81,9.88l-.69-.37h-.28c-.46.11-.69.34-.69.69v.28a2.26,2.26,0,0,1,1,.33Z"/><path d="M11.17,1.91l-.37.69h1Q11.78,1.91,11.17,1.91Z"/><path d="M1.29,3.21,1,2.6a3.77,3.77,0,0,1-1.2.23l.46.59Z"/><path class="cls-2" d="M0,19.29v.28c.05.35.23.53.53.53v-.29A.47.47,0,0,0,0,19.29Z"/><path class="cls-2" d="M14.74,8.68l-.29.53v.53h.29a.47.47,0,0,0,.53-.53A.47.47,0,0,0,14.74,8.68Z"/><path class="cls-2" d="M11.9,12.87q-.16,0-1.26-1.3c-.38.05-.57.22-.57.49v.53q.61,0,1.58,1h.24l-.24-.53C11.82,13.07,11.9,13,11.9,12.87Z"/><path class="cls-2" d="M19.66,10q0,.37.77.73h.77l.24-1.26h-.24A2.18,2.18,0,0,1,19.66,10Z"/><path class="cls-2" d="M7.27,13.07v.29q.08.53.53.53h.49v-1a1.69,1.69,0,0,1-.77-.29Z"/><path class="cls-2" d="M23.53,9.74l-.24.49a.54.54,0,0,0,.37.5v-1Z"/><path class="cls-2" d="M3.12,14.41l-.53.73v.28l.24.49a1.4,1.4,0,0,0,1.1-1Z"/><path class="cls-2" d="M2.59.71H2.1Q1.53.71,1.29,2H2.1l.73-.53A1.88,1.88,0,0,1,2.59.71Z"/><path class="cls-2" d="M5.44,19.57v.53H4.66l-1-.81v.28a3.69,3.69,0,0,0,2,1A.25.25,0,0,1,6,20.31a1.69,1.69,0,0,1-.29-.73Z"/><path d="M25.35,19v.28a1.9,1.9,0,0,1,1,.53h.28q.45,0,.45-.53L25.84,19Z"/><path d="M23.65,10.73l.16,0c.33,0,.49-.18.49-.53h-.49V10h.73V9.74h-.89Z"/></pattern><pattern id="New_Pattern_2-3" data-name="New Pattern 2" width="105" height="70" patternTransform="translate(83.15 -6.41) scale(0.45)" patternUnits="userSpaceOnUse" viewBox="0 0 105 70"><rect class="cls-1" width="105" height="70"/><path class="cls-2" d="M81.45,68.86V69h.41a1.3,1.3,0,0,1,.2-.57h-.2Q81.45,68.54,81.45,68.86Z"/><path class="cls-2" d="M99,68.94h1.3v-.38l-.46-.31H99Z"/><path d="M102,62.87c0-.46-.22-.69-.65-.69l-.37.69v.37h1Z"/><path class="cls-2" d="M100.31,68.25h-.46l.46.31Z"/><path d="M95.8,68.64l.2-.53v-.24h-.73v.24C95.3,68.46,95.48,68.64,95.8,68.64Z"/><path d="M2.53,56.77h1q-.28-1.3-2-1.3H1.23Q1.23,56,2.53,56.77Z"/><polygon points="5.52 68.25 4.87 67.93 4.22 68.94 4.87 69.31 5.52 68.25"/><path d="M8.16,67.93q-.29,0-.29.33a4.17,4.17,0,0,0-2-.61q0,.81,2.6,1.3h.69Q9.18,68.46,8.16,67.93Z"/><path d="M27.26,68.44a2.77,2.77,0,0,1,1.06-.32v-.7l-.86.3Z"/><rect class="cls-2" x="15.03" y="64.49" width="0.45" height="0.81"/><path class="cls-2" d="M7.79,68.39c0,.33.19.49.49.49h.24V68.6a1.89,1.89,0,0,1-.24-.73A.47.47,0,0,0,7.79,68.39Z"/><path class="cls-2" d="M16.82,60.91v-.29h-.53v.73C16.64,61.36,16.82,61.21,16.82,60.91Z"/><path class="cls-2" d="M12.18,58.07h.49v-.29q0-.36-.77-.81h-.53Q11.82,58.07,12.18,58.07Z"/><path class="cls-2" d="M12.18,61.36h-.53l-.28,1.1Q11.82,62.46,12.18,61.36Z"/><path class="cls-2" d="M19.13,62.17v-.24H18.4q-.41,0-.81.77l.53.24Q19.13,62.54,19.13,62.17Z"/><path class="cls-2" d="M7,57.78v.53q.37,0,.81-.77v-.28H7.51C7.16,57.34,7,57.51,7,57.78Z"/><path class="cls-2" d="M2.59,61.93H1.82v.77Q2.22,62.7,2.59,61.93Z"/><path class="cls-2" d="M8,61.93H6.49v.24q.16,0,1.54.29Z"/><path class="cls-2" d="M4.66,61.65q0,.37.77.81h.24a.47.47,0,0,0,.53-.53l-.53-.28Z"/><path d="M21,62.7h.73l1.3-.24v-.53q0-.24-1.79-1.58c0,.19-.08.28-.24.28l.24.53v1Z"/><path d="M27.67,62.95h.24a1.87,1.87,0,0,1,.77-.24v-.53h-.24Q28.08,62.17,27.67,62.95Z"/><path class="cls-2" d="M88.49,2.6q0-.49-1-1.06V2.6a3.14,3.14,0,0,1,1,.24Z"/><path class="cls-2" d="M90.42,16.32l.37-.69v-.33h-1v.33Q89.89,16.32,90.42,16.32Z"/><path class="cls-2" d="M103.28,3.21c0-.33-.43-.65-1.3-1q-2,.77-2,1.3a2.11,2.11,0,0,1,1,.37A19.92,19.92,0,0,1,103.28,3.21Z"/><path class="cls-1" d="M104.62,3.54l.6-.12-.46-.59h-.15Z"/><path class="cls-1" d="M103.61,6.83a2.78,2.78,0,0,1,1-.33.58.58,0,0,0-.65-.65c-.46.05-.69.27-.69.65A.29.29,0,0,1,103.61,6.83Z"/><path class="cls-2" d="M89.5,12.11a2.07,2.07,0,0,1,.94-.37q0-.73-2.93-1.3v.37A2.16,2.16,0,0,0,89.5,12.11Z"/><path class="cls-1" d="M83.44,4.53v.61h.61q0-1,.69-1V3.84h-1Z"/><path class="cls-2" d="M88.18,15.63v-.33H87.12v1h.37A.61.61,0,0,0,88.18,15.63Z"/><path class="cls-2" d="M88.81,6.5c.08.43.31.65.69.65l1.63-.33a2.5,2.5,0,0,0,1,.33V6.83l-.33-.69A14.86,14.86,0,0,1,88.81,6.5Z"/><path d="M99.48,10h.65q.45,0,1-1.06l-.37-.61A1.6,1.6,0,0,0,99.48,10Z"/><path d="M89.95,8q-.61.12-.61.65v.65l2,.33.28-.69L90.27,8Z"/><path d="M106.29,3.21,106,2.6a3.77,3.77,0,0,1-1.2.23l.46.59Z"/><path class="cls-2" d="M104.26,6.65H104c-.38,0-.57.2-.57.53v.49h.28c.35,0,.53-.16.53-.49a.22.22,0,0,1-.24-.24C104.18,6.93,104.26,6.84,104.26,6.65Z"/><path class="cls-2" d="M102.71,2.78l-.28.49h.77A.43.43,0,0,0,102.71,2.78Z"/><path class="cls-2" d="M102.18,12.58l.24-.53v-1.3l1-.24V10a4.42,4.42,0,0,0-3.29,1.75A6.07,6.07,0,0,0,102.18,12.58Z"/><path class="cls-2" d="M36,37.6q0-.49-1-1.06V37.6a3.14,3.14,0,0,1,1,.24Z"/><path class="cls-2" d="M29,33.86V34h.41a1.3,1.3,0,0,1,.2-.57h-.2Q29,33.54,29,33.86Z"/><path class="cls-2" d="M67,53.35q0,.28.57.61l.2-.41-.41-.2Z"/><path class="cls-2" d="M63.22,54l.41-.61-1.75-.16A1.3,1.3,0,0,0,63.22,54Z"/><path class="cls-2" d="M37.92,51.32l.37-.69v-.33h-1v.33Q37.39,51.32,37.92,51.32Z"/><path class="cls-2" d="M46.51,33.94h1.3v-.38l-.46-.31h-.84Z"/><path class="cls-2" d="M50.78,38.21c0-.33-.43-.65-1.3-1q-2,.77-2,1.3a2.11,2.11,0,0,1,1,.37A19.92,19.92,0,0,1,50.78,38.21Z"/><path class="cls-1" d="M52.12,38.54l.6-.12-.46-.59h-.15Z"/><path class="cls-1" d="M51.11,41.83a2.78,2.78,0,0,1,1-.33.58.58,0,0,0-.65-.65c-.46.05-.69.27-.69.65A.29.29,0,0,1,51.11,41.83Z"/><path class="cls-2" d="M37,47.11a2.07,2.07,0,0,1,.94-.37q0-.73-2.93-1.3v.37A2.16,2.16,0,0,0,37,47.11Z"/><path class="cls-1" d="M30.94,39.53v.61h.61q0-1,.69-1v-.33h-1Z"/><path class="cls-2" d="M66.47,51v.33a.66.66,0,0,0,.69.61h.93q.69,0,.69-.61l-1.38-.69A2.07,2.07,0,0,1,66.47,51Z"/><path class="cls-2" d="M35.68,50.63v-.33H34.62v1H35A.61.61,0,0,0,35.68,50.63Z"/><path class="cls-2" d="M36.31,41.5c.08.43.31.65.69.65l1.63-.33a2.5,2.5,0,0,0,1,.33v-.33l-.33-.69A14.86,14.86,0,0,1,36.31,41.5Z"/><rect x="56.53" y="47.73" width="1.3" height="0.61"/><path d="M47,45h.65q.45,0,1-1.06l-.37-.61A1.6,1.6,0,0,0,47,45Z"/><path d="M37.45,43q-.61.12-.61.65v.65l2,.33.28-.69L37.77,43Z"/><path d="M67.31,44.88l-.69-.37h-.28c-.46.11-.69.34-.69.69v.28a2.26,2.26,0,0,1,1,.33Z"/><path d="M55,21.77h1q-.28-1.3-2-1.3h-.33Q53.73,21,55,21.77Z"/><polygon points="58.02 33.25 57.37 32.93 56.72 33.94 57.37 34.31 58.02 33.25"/><path d="M49.54,27.87c0-.46-.22-.69-.65-.69l-.37.69v.37h1Z"/><path d="M60.66,32.93q-.29,0-.29.33a4.17,4.17,0,0,0-2-.61q0,.81,2.6,1.3h.69Q61.68,33.46,60.66,32.93Z"/><path d="M79.76,33.44a2.77,2.77,0,0,1,1.06-.32v-.7l-.86.3Z"/><path d="M63.67,36.91l-.37.69h1Q64.28,36.91,63.67,36.91Z"/><path class="cls-2" d="M47.81,33.25h-.46l.46.31Z"/><path d="M53.79,38.21l-.33-.61a3.77,3.77,0,0,1-1.2.23l.46.59Z"/><rect class="cls-2" x="67.53" y="29.49" width="0.45" height="0.81"/><path class="cls-2" d="M60.29,33.39c0,.33.19.49.49.49H61V33.6a1.89,1.89,0,0,1-.24-.73A.47.47,0,0,0,60.29,33.39Z"/><path class="cls-2" d="M69.32,25.91v-.29h-.53v.73C69.14,26.36,69.32,26.21,69.32,25.91Z"/><path class="cls-2" d="M52.53,54.29v.28c.05.35.23.53.53.53v-.29A.47.47,0,0,0,52.53,54.29Z"/><path class="cls-2" d="M64.68,23.07h.49v-.29q0-.36-.77-.81h-.53Q64.32,23.07,64.68,23.07Z"/><path class="cls-2" d="M64.68,26.36h-.53l-.28,1.1Q64.32,27.46,64.68,26.36Z"/><path class="cls-2" d="M51.76,41.65h-.24c-.38,0-.57.2-.57.53v.49h.28c.35,0,.53-.16.53-.49a.22.22,0,0,1-.24-.24C51.68,41.93,51.76,41.84,51.76,41.65Z"/><path class="cls-2" d="M71.63,27.17v-.24H70.9q-.41,0-.81.77l.53.24Q71.63,27.54,71.63,27.17Z"/><path class="cls-2" d="M50.21,37.78l-.28.49h.77A.43.43,0,0,0,50.21,37.78Z"/><path class="cls-2" d="M49.68,47.58l.24-.53v-1.3l1-.24V45a4.42,4.42,0,0,0-3.29,1.75A6.07,6.07,0,0,0,49.68,47.58Z"/><path class="cls-2" d="M59.48,22.78v.53q.37,0,.81-.77v-.28H60C59.66,22.34,59.48,22.51,59.48,22.78Z"/><path class="cls-2" d="M67.24,43.68l-.29.53v.53h.29a.53.53,0,0,0,0-1.06Z"/><path class="cls-2" d="M64.4,47.87q-.16,0-1.26-1.3c-.38.05-.57.22-.57.49v.53q.61,0,1.58,1h.24l-.24-.53C64.32,48.07,64.4,48,64.4,47.87Z"/><path class="cls-2" d="M72.16,45q0,.37.77.73h.77L74,44.49h-.24A2.18,2.18,0,0,1,72.16,45Z"/><path class="cls-2" d="M59.77,48.07v.29q.08.53.53.53h.49v-1a1.69,1.69,0,0,1-.77-.29Z"/><path class="cls-2" d="M76,44.74l-.24.49a.54.54,0,0,0,.37.5v-1Z"/><path class="cls-2" d="M55.62,49.41l-.53.73v.28l.24.49a1.4,1.4,0,0,0,1.1-1Z"/><path class="cls-2" d="M55.09,26.93h-.77v.77Q54.72,27.7,55.09,26.93Z"/><path class="cls-2" d="M55.09,35.71H54.6q-.57,0-.81,1.26h.81l.73-.53A1.88,1.88,0,0,1,55.09,35.71Z"/><path class="cls-2" d="M57.94,54.57v.53h-.77l-1-.81v.28a3.69,3.69,0,0,0,2,1,.25.25,0,0,1,.29-.28,1.69,1.69,0,0,1-.29-.73Z"/><path class="cls-2" d="M60.54,26.93H59v.24q.16,0,1.54.29Z"/><path class="cls-2" d="M57.16,26.65q0,.37.77.81h.24a.47.47,0,0,0,.53-.53l-.53-.28Z"/><path d="M43.3,33.64l.2-.53v-.24h-.73v.24C42.8,33.46,43,33.64,43.3,33.64Z"/><path d="M77.85,54v.28a1.9,1.9,0,0,1,1,.53h.28q.45,0,.45-.53L78.34,54Z"/><path d="M76.15,45.73l.16,0c.33,0,.49-.18.49-.53h-.49V45H77v-.28h-.89Z"/><path d="M73.46,27.7h.73l1.3-.24v-.53q0-.24-1.79-1.58c0,.19-.08.28-.24.28l.24.53v1Z"/><path d="M80.17,27.95h.24a1.87,1.87,0,0,1,.77-.24v-.53h-.24Q80.58,27.17,80.17,27.95Z"/><path class="cls-2" d="M14.46,18.35q0,.28.57.61l.2-.41-.41-.2Z"/><path class="cls-2" d="M10.72,19l.41-.61-1.75-.16A1.3,1.3,0,0,0,10.72,19Z"/><path class="cls-1" d="M-.38,3.54l.6-.12-.46-.59H-.38Z"/><path class="cls-2" d="M14,16v.33a.66.66,0,0,0,.69.61h.93q.69,0,.69-.61l-1.38-.69A2.07,2.07,0,0,1,14,16Z"/><rect x="4.03" y="12.73" width="1.3" height="0.61"/><path d="M14.81,9.88l-.69-.37h-.28c-.46.11-.69.34-.69.69v.28a2.26,2.26,0,0,1,1,.33Z"/><path d="M11.17,1.91l-.37.69h1Q11.78,1.91,11.17,1.91Z"/><path d="M1.29,3.21,1,2.6a3.77,3.77,0,0,1-1.2.23l.46.59Z"/><path class="cls-2" d="M0,19.29v.28c.05.35.23.53.53.53v-.29A.47.47,0,0,0,0,19.29Z"/><path class="cls-2" d="M14.74,8.68l-.29.53v.53h.29a.47.47,0,0,0,.53-.53A.47.47,0,0,0,14.74,8.68Z"/><path class="cls-2" d="M11.9,12.87q-.16,0-1.26-1.3c-.38.05-.57.22-.57.49v.53q.61,0,1.58,1h.24l-.24-.53C11.82,13.07,11.9,13,11.9,12.87Z"/><path class="cls-2" d="M19.66,10q0,.37.77.73h.77l.24-1.26h-.24A2.18,2.18,0,0,1,19.66,10Z"/><path class="cls-2" d="M7.27,13.07v.29q.08.53.53.53h.49v-1a1.69,1.69,0,0,1-.77-.29Z"/><path class="cls-2" d="M23.53,9.74l-.24.49a.54.54,0,0,0,.37.5v-1Z"/><path class="cls-2" d="M3.12,14.41l-.53.73v.28l.24.49a1.4,1.4,0,0,0,1.1-1Z"/><path class="cls-2" d="M2.59.71H2.1Q1.53.71,1.29,2H2.1l.73-.53A1.88,1.88,0,0,1,2.59.71Z"/><path class="cls-2" d="M5.44,19.57v.53H4.66l-1-.81v.28a3.69,3.69,0,0,0,2,1A.25.25,0,0,1,6,20.31a1.69,1.69,0,0,1-.29-.73Z"/><path d="M25.35,19v.28a1.9,1.9,0,0,1,1,.53h.28q.45,0,.45-.53L25.84,19Z"/><path d="M23.65,10.73l.16,0c.33,0,.49-.18.49-.53h-.49V10h.73V9.74h-.89Z"/></pattern></defs><title>header-img3</title><g id="Layer_2" data-name="Layer 2"><g id="Layer_1-2" data-name="Layer 1"><path class="cls-1" d="M227.9,209.75c.49,0,1,.06,1.51.06s1,0,1.51-.06Z"/><path class="cls-1" d="M352,209.75c.49,0,1,.06,1.51.06s1,0,1.51-.06Z"/><path class="cls-1" d="M290,209.75c.49,0,1,.06,1.51.06s1,0,1.51-.06Z"/><path class="cls-1" d="M476.51,209.77l.35,0h-.7Z"/><path class="cls-1" d="M414.09,209.75c.49,0,1,.06,1.51.06s1,0,1.51-.06Z"/></g><g id="HOME"><path class="cls-3" d="M30.25,216.09h3.47C45,214.92,45.62,202.41,58,202.41s13,12.51,24.3,13.68h3.47c11.3-1.17,11.89-13.68,24.3-13.68s13,12.51,24.3,13.68H136c11.76-.87,12.19-13.73,24.77-13.73s13,12.86,24.77,13.73h2.54c11.76-.87,12.19-13.73,24.77-13.73s13,12.86,24.77,13.73h2.54c11.76-.87,12.19-13.73,24.77-13.73s13,12.86,24.77,13.73h2.54c11.76-.87,12.19-13.73,24.77-13.73s13,12.86,24.77,13.73h2.54c11.76-.87,12.19-13.73,24.77-13.73s13,12.86,24.77,13.73h2.54c11.76-.87,12.19-13.73,24.77-13.73s13,12.86,24.77,13.73h.59c11.76-.87,12.19-13.73,24.77-13.73s13,12.86,24.77,13.73h2.54c11.76-.87,12.19-13.73,24.77-13.73s13,12.86,24.77,13.73h2.54c11.76-.87,12.19-13.73,24.77-13.73s13,12.86,24.77,13.73h2.54c11.76-.87,12.19-13.73,24.77-13.73a13.89,13.89,0,0,1,7.51,2,23.64,23.64,0,0,0,4.5-14.72c-.64-14.32-11.61-26.43-26.43-26.43H552.58c-3.94-9.72-13-16.79-24.33-16.79H513.07c6.67-4.88,11.22-12.63,10.84-21.14-.64-14.32-11.61-26.43-26.43-26.43H453.27c8.21-4.6,14.18-13.31,13.74-23-.64-14.32-11.61-26.43-26.43-26.43h-33c8.21-4.6,14.18-13.31,13.74-23C420.67,12.11,409.7,0,394.88,0H191.55c-13.83,0-27.07,12.16-26.43,26.43a27.93,27.93,0,0,0,13.56,23H100.14c-13.83,0-27.07,12.16-26.43,26.43s11.61,26.43,26.43,26.43H114.5c-8.21,4.6-14.18,13.31-13.74,23a28.22,28.22,0,0,0,10.76,21.14H75.89c-10.55,0-20.76,7.09-24.72,16.79H26.45C12.63,163.23-.62,175.38,0,189.66a29,29,0,0,0,3.67,12.9A16.48,16.48,0,0,1,6,202.41C18.36,202.41,19,214.92,30.25,216.09Z"/><path class="cls-4" d="M400.61,180a109.32,109.32,0,0,1-6.08,36.08c-12.39-.44-12.6-13.76-25.41-13.76-13,0-13,13.77-26,13.77s-13-13.77-26-13.77-13,13.77-26,13.77-13-13.77-26-13.77-13,13.77-26,13.77-13-13.77-26-13.77c-12.81,0-13,13.32-25.41,13.76A109.62,109.62,0,1,1,400.61,180Z"/><path class="cls-1" d="M284.72,230.09c.28,0,.57,0,.87,0s.59,0,.87,0Z"/><g id="header-girl-platform"><path class="cls-5" d="M303.5,321.84c-3.05-5.74-9-6.74-14.8-7.53A75.14,75.14,0,0,1,276,311.44a40.49,40.49,0,0,1-6.17-4.12c-2.52-2.08-4.13-3.64-5.17-6.67a19.49,19.49,0,0,0-1.28-2.92,49.33,49.33,0,0,0-2.43-6.1c-.48-1-1-1.91-1.58-2.85a6.68,6.68,0,0,0-1.08-1.73c-.73-1.13-1.47-2.24-2.2-3.35a7,7,0,0,0-3.24-2.67,21.28,21.28,0,0,0-6.88-3.56c-7-2.18-14.95-2.9-22.24-3.77s-14.8-1-22.2-1.57c-14.58-1-28.91-3.92-43.22-6.72-7.36-1.44-14.72-2.87-22.13-4s-15-2.41-22.47-2.32c-10.15.12-21.11,3.56-28,10.92-4,2.83-7.34,6.69-7.36,11.75a6.49,6.49,0,0,0-.4,2.44c.22,10.8,8,18.81,16.76,24.11,4.17,2.53,8.65,4.63,12.6,7.51,3.67,2.67,6.14,6.38,8.9,9.9a28.41,28.41,0,0,0,12.42,9.43c5,1.91,10.61,2.46,15.91,2.83a86,86,0,0,0,17.21-.59c5.76-.76,11.28-2.25,16.92-3.56,10.85-2.52,21.23.52,31.51,4,10.55,3.58,20.86,7.91,31.63,10.84,9.93,2.7,20.46,4.21,30.73,3,9.84-1.13,21.35-4.45,28.1-12.23C304.84,334.64,306.62,327.71,303.5,321.84Z"/><path class="cls-6" d="M114.5,251.57h-.86a52.84,52.84,0,0,0-19.74,4l2.9,6.88a44.14,44.14,0,0,1,11.59-3.05h.1l.17,0h.17l.13,0h5.53v-7.47Zm-34,13c-7.18,5.46-9.2,11.45-9.52,15.88a14.17,14.17,0,0,0-.44,3.86c0,1,.08,1.91.19,2.85l7.42-.86h0v0h0v0h0v0h0v0h0v0h0v0h0v0h0v0h0v0h0v0h0v0h0v0h0v0h0v-.08h0v0h0v0h0Q78,285,78,284.33h0v0h0v0h0v0h0v0h0v0h0q0-.08,0-.15a6.44,6.44,0,0,1,.4-2.29h0v-.05h0v-.12h0c.24-4.47,3.1-8,6.6-10.64l-4.52-5.95Zm3.47,34.69L78.19,304a50.14,50.14,0,0,0,12.66,10.63c1.3.79,2.61,1.53,3.71,2.14l3.64-6.52L97,309.6h0l-.05,0h0l0,0h0l0,0h0l0,0h0l0,0h0l0,0h0l0,0h0l0,0h-.05l0,0h0l0,0h0l0,0h0l0,0,0,0,0,0h0l0,0h0l0,0h0l0,0h0l-.16-.1h0l0,0h0l0,0h0l-.16-.1h0l0,0h0l0,0h0l0,0h0l0,0,0,0,0,0h0l0,0h0l0,0h0l0,0,0,0h0l0,0h0l0,0h0l0,0h0l0,0h0l0,0h0l0,0h0l0,0h0l0,0h0l-.05,0h-.19a49.75,49.75,0,0,1-5.42-3.82h0l0,0h0l0,0h0l0,0h0l-.15-.12h-.18l0,0H88.5l0,0h0l-.07-.06h0l0,0h0l0,0h0l0,0h0l0,0h0l0,0h0l0,0h0a36.61,36.61,0,0,1-4.34-4.37Zm26.21,19-5.32,5.25a50.57,50.57,0,0,1,4,4.81c.51.67,1,1.34,1.55,2a38.5,38.5,0,0,0,7.5,7.37l4.43-6a28.44,28.44,0,0,1-2.78-2.34h0l0,0h0l0,0h0l0,0h0l0,0h0l0,0h0l0,0h0l0,0h0l-.09-.09h0l0,0h0l0,0H119l0,0h0l0,0h0l0,0h-.2l0,0h0l-.08-.08h0l0,0h0l0,0h0l0,0h0l0,0h0l0,0h0l0,0h0l0,0h0l0,0h0l-.17-.18h0l0,0h0l0,0h0q-.85-.9-1.64-1.88h0l-.2-.24h0l0,0h0v0h0v0h0v0h0v0h0v0h0v0h0l0,0,0,0h0l0,0h0l0,0h0l0,0h0l0,0h0l0,0h0l0,0h0l0,0h0l0-.05h0l0-.05h0l0,0h0l0,0h0v0h0l0,0h0v0h0v0l0,0h0l0,0h0l0,0h0v0h0l-.93-1.22-.05-.07h0l-.48-.63h0l0,0h0l0,0h0l-.17-.22h0l0,0h0l0,0h0l-.65-.84h0l-.24-.31h0a40.55,40.55,0,0,0-2.89-3.32ZM135.52,337l-1.29,7.36a94.08,94.08,0,0,0,9.81,1.09c2,.14,4,.21,6.08.21,1.25,0,2.52,0,3.79-.08l-.31-7.46-1.63.05h-1.85q-2.78,0-5.56-.19h-.21c-2.37-.17-4.8-.37-7.2-.72h-.47l-1.15-.19Zm50.14-4.06a36.56,36.56,0,0,0-4.64.45h0l-.16,0h0l-.16,0h0l-.13,0h-.06l-.11,0h-.06l-.11,0h-.08l-.08,0h-.09l-.08,0h-1.18l-.11,0h0l-.11,0h0l-.22.05h0l-.11,0h0l-.1,0h0l-.1,0h0l-.09,0h0l-.08,0h-.2c-3.22.76-6.42,1.56-9.64,2.23l1.51,7.31c2.56-.53,5.09-1.14,7.53-1.72l3.46-.82a28.29,28.29,0,0,1,5.53-.72l-.25-7.47Zm14.25,1.78-1.83,7.24c3.32.84,6.64,1.93,9.73,3,2,.67,4.09,1.42,6.8,2.4l2.55-7-3.35-1.2h-.16l0,0h0l-3.2-1.11h0l-.06,0h0l-.05,0h0l-.06,0h-.47l-1.07-.36h0l-.06,0h-.1l-.06,0h-.09l-.2-.07h0l-.11,0H207l-.16-.05h0c-2.31-.75-4.64-1.45-7-2Zm30.79,10.5-2.44,7.06c4.38,1.52,8.07,2.67,11.62,3.63,2.27.62,4.52,1.16,6.71,1.62l1.54-7.31q-2.2-.46-4.37-1h-.18l-.26-.07H243l-.12,0h-1l-.06,0h-.2l-.06,0h-.07l-.06,0h-.13l-.06,0h-.07l-.06,0H241l-.12,0h0l-.05,0h0l-.06,0h-.07l-.06,0h-.07l-.12,0h0l-.12,0h0l-.06,0h0l-.06,0h0l-.06,0h0l-.12,0h0l-.12,0h0c-3.09-.89-6.14-1.89-9.18-2.94Zm49.7,5.16-.09,0h-.64l-.41.09h-.18q-1,.22-2,.4h0l-.18,0h-.06l-.47.08h-1.6l-1.45.2h-.72a63.58,63.58,0,0,1-7.27.41h-2.91l-.31,7.46c1.08,0,2.16.07,3.22.07a71.38,71.38,0,0,0,8.12-.46,76.37,76.37,0,0,0,8.68-1.5l-1.71-7.27Zm24.36-19a17.28,17.28,0,0,1-1.57,4.37h0v0h0v0h0v0h0v0h0l0,.07h0L303,336h-.2l-.09.15h0l0,0h-.09a19,19,0,0,1-1.75,2.47h-.23l0,0h0v0h-.09l0,0h0v0h0v0h0v0h0v0h0v0h0l-.07.08h0l0,0h0l0,0h0l0,0h0l-.1.11h0l0,0h0a26.63,26.63,0,0,1-2.91,2.7h0l0,0h0l-.14.11h0l0,0h0l-.14.11h0l0,0h0l0,0h0l-.12.09h0l0,0h0l0,0h0l0,0h0l-.12.09h0l0,0h0l0,0h0l-.09.07h0l0,0h0l0,0h-.05l-.09.07h0l0,0h0l0,0h0l-.1.07h0l0,0h0l0,0h0l0,0h0l-.12.09h0l0,0h0l0,0h0l-.15.1h0l0,0h0q-.89.62-1.83,1.18l3.85,6.4a35.93,35.93,0,0,0,8.69-7.19,25.57,25.57,0,0,0,5.76-11.46l-7.31-1.53Zm-19.84-25.28-1.54,7.31,2,.39h.37l.1,0h.1q1.2.21,2.41.38h0l.15,0h.24a44.6,44.6,0,0,1,6.45,1.23h1.07a14,14,0,0,1,4.37,2.39l4.78-5.74c-5-4.18-11.45-5.05-15.7-5.63-1.59-.22-3.2-.49-4.78-.83Zm-16.81-16.85-6.77,3.15a54.33,54.33,0,0,1,2.08,5.36h0a19.5,19.5,0,0,1,1.28,2.92c1,3,2.65,4.59,5.17,6.67l.49.39,4.64-5.85-.37-.3c-2.16-1.78-2.48-2.25-2.86-3.33a26.64,26.64,0,0,0-1.46-3.45,58.17,58.17,0,0,0-2.19-5.55Zm-31.06-21.36-1.16,7.38h.29l.36.06h0a75.32,75.32,0,0,1,7.81,1.65h0l.34.1H245l.19.05h.32l.09,0H246a22.41,22.41,0,0,1,3.36,1.34h3.36l0,0h0l0,0h0l0,0h0l0,0h0l0,0h0l0,0,4.61-5.88a28.7,28.7,0,0,0-9.27-4.81,79,79,0,0,0-11.16-2.48ZM204,264.81l-.47,7.45,1.44.09h.14c5.51.33,11,.55,16.52,1.11l.76-7.43c-4.39-.45-8.78-.69-13-.92-1.79-.1-3.58-.2-5.36-.31Zm-31.33-4.24-1.37,7.34,1.46.27h.15l.1,0h.23c3.75.69,7.52,1.34,11.29,1.91h1l3.71.52,1-7.4c-5.1-.68-10.66-1.59-17.52-2.87Zm-32.11-6.07-1.24,7.37,4.71.82h0l.26,0h1.33l.09,0h.24l.13,0h.22l.2,0h.08l.27,0h.08c3.41.63,6.82,1.29,10.23,2l1.43-7.33c-5.75-1.12-11.87-2.31-18-3.34Zm-26-2.93V259h6.22c1.44.11,2.89.26,4.33.43l.88-7.42a96.81,96.81,0,0,0-11.43-.75Z"/></g><g id="header-girl"><path class="cls-1" d="M269.93,241.63l.81,0h-1.11Z"/><path class="cls-1" d="M198.18,241.6a10.71,10.71,0,0,0,2.38,0Z"/><path class="cls-1" d="M233.9,241.6a10.71,10.71,0,0,0,2.38,0Z"/><path class="cls-7" d="M183.16,159.66l.85,0h-.85Z"/><path class="cls-7" d="M184.62,159.69h0Z"/><line class="cls-8" x1="134.48" y1="184.99" x2="134.48" y2="274.79"/><line class="cls-8" x1="124.69" y1="196.5" x2="124.69" y2="286.31"/><line class="cls-9" x1="123.18" y1="277.64" x2="135.45" y2="265.37"/><line class="cls-9" x1="123.18" y1="266.12" x2="135.45" y2="253.86"/><line class="cls-9" x1="123.18" y1="254.04" x2="135.45" y2="241.78"/><path class="cls-10" d="M124.89,238.52c13.74,3.72,30.54,10.91,37.22,26.09,2.1,4.78,1.91,7.42,3.84,12.28,3.6,9.09,12.37,20.38,35.41,29.47a17.21,17.21,0,0,0,5.34,1.18c2.92.16,7.05-.6,8.65-2.74,1.08-1.44,2-5.18-3.23-7.49-22.92-10.12-32.2-20.49-35.81-29.63-1.92-4.86-1.74-7.5-3.84-12.28C165.79,240.23,149,233,135.25,229.31Z"/><rect class="cls-11" x="177.98" y="195.33" width="6.78" height="31.63" rx="3.39" ry="3.39" transform="translate(253.03 480.12) rotate(-154.26)"/><path class="cls-12" d="M181.88,261.44l4.42,4.42c.43.43.85.87,1.26,1.33.61.69,2,2,3.39,1.47,1.22-.47,7.2-3.69,7.71-4.86.79-1.79-.07-3.07-1.07-2.93a39.28,39.28,0,0,0-4.79,1.75.69.69,0,0,1-.75-.15l-5.6-5.6"/><path class="cls-12" d="M181.72,261.27l4.42,4.42c.43.43.85.87,1.26,1.33.61.69,2,2,3.39,1.47,1.86-.71,6.93-3.07,7.71-4.86s-.07-3.07-1.07-2.93a39.28,39.28,0,0,0-4.79,1.75.69.69,0,0,1-.75-.15l-5.6-5.6"/><path class="cls-2" d="M181.73,261.39a6.22,6.22,0,0,1,1.87-2.77,6,6,0,0,1,2.81-1.87,6.57,6.57,0,0,1-1.91,2.77A6.29,6.29,0,0,1,181.73,261.39Z"/><path d="M185.25,257.88a11,11,0,0,1-2.39,2.39,11,11,0,0,1,2.39-2.39m1.16-1.63a6.23,6.23,0,0,0-3.17,2c-1.5,1.5-2.34,3.07-1.9,3.52a.47.47,0,0,0,.35.12,6.23,6.23,0,0,0,3.17-2c1.5-1.5,2.34-3.07,1.9-3.52a.47.47,0,0,0-.35-.12Z"/><path class="cls-12" d="M179.54,265,184,269.4c.43.43.85.87,1.26,1.33.61.69,2,2,3.39,1.47,1.22-.47,7.2-3.69,7.71-4.86.79-1.79-.07-3.07-1.07-2.93a39.28,39.28,0,0,0-4.79,1.75.69.69,0,0,1-.75-.15l-5.6-5.6"/><path class="cls-12" d="M179.37,264.82l4.42,4.42c.43.43.85.87,1.26,1.33.61.69,2,2,3.39,1.47,1.86-.71,6.93-3.07,7.71-4.86s-.07-3.07-1.07-2.93a39.28,39.28,0,0,0-4.79,1.75.69.69,0,0,1-.75-.15l-5.6-5.6"/><path class="cls-2" d="M179.38,264.94a6.22,6.22,0,0,1,1.87-2.77,6,6,0,0,1,2.81-1.87,6.59,6.59,0,0,1-1.91,2.77A6.27,6.27,0,0,1,179.38,264.94Z"/><path d="M182.9,261.43a11,11,0,0,1-2.39,2.39,11,11,0,0,1,2.39-2.39m1.16-1.63a6.23,6.23,0,0,0-3.17,2c-1.5,1.5-2.34,3.07-1.9,3.52a.47.47,0,0,0,.35.12,6.23,6.23,0,0,0,3.17-2c1.5-1.49,2.34-3.07,1.9-3.52a.47.47,0,0,0-.35-.12Z"/><rect x="172.96" y="247.01" width="4.07" height="18.3" transform="translate(-129.88 198.77) rotate(-45)"/><path d="M170,249l12.22,12.22L180,263.35l-12.22-12.22L170,249m0-1.44-3.59,3.59L180,264.79l3.59-3.59L170,247.54Z"/><rect x="175.79" y="244.05" width="4.07" height="17.62" transform="translate(-126.72 199.8) rotate(-45)"/><path d="M173,245.91l11.74,11.74-2.16,2.16-11.74-11.74,2.16-2.16m0-1.44-3.59,3.59,13.18,13.18,3.59-3.59L173,244.47Z"/><path class="cls-13" d="M157.12,251.12c4.68,2.46,15.93,6.43,30.82-1.29L178.28,221a11.52,11.52,0,0,0-10.5-7.94h-.67a7.83,7.83,0,0,0-7.37,6.41l-4.57,27.67A3.8,3.8,0,0,0,157.12,251.12Z"/><path class="cls-14" d="M178.5,210.76c2.63-2.17,4.89-5.74,7.88-5.4.47.05,1.47.26,2-.31.79-.79.2-2.59-.1-3.46-3.1-9-4.65-13.5-8-15.15a9.92,9.92,0,0,0-6.2-1c-6.61,1.28-12.12,10.8-9.35,18.4,1.78,4.9,7.08,9.3,11,8.44a6.81,6.81,0,0,0,2.8-1.52"/><path class="cls-15" d="M182.81,199.21s-2.75,2-5.08,0"/><path class="cls-15" d="M178.22,210.27a2.12,2.12,0,1,1,3-3"/><path class="cls-16" d="M178.1,183.48c2.86.23,7.8,4.07,8.09,5.3.55,2.35-13.08,3.66-16,11.22-2.1,5.37,4.32,10.27.56,12.75s-9.82,1.39-16.55-1.49c-8.45-3.62-8.28-6.79-17.2-13.55-9.69-7.35-17.7-3.33-23.63-10.45-5.17-6.22-4.84-16.24-.84-18.36,3.29-1.74,6.52,3.21,18,6.88,13.87,4.44,17.85,0,27,5.35,4.76,2.79,10,1.94,15.23,2.18A43.86,43.86,0,0,1,178.1,183.48Z"/><path class="cls-2" d="M172.22,201.16c0-.15-2.45-2.19-3.62-1.85a1.08,1.08,0,0,0-.55.34c-.62.74-.09,2.3,1.26,3.17s2.93.53,3,.22C172.52,201.27,172,202.17,172.22,201.16Z"/><path class="cls-11" d="M169.45,200.94a5,5,0,0,1,1.38.81"/><path class="cls-11" d="M163,186.76c-.24-.66,6.59-3.57,12.85-2.45,1.36.24,4.12.93,4.09,1.71,0,.44-.93.86-1.75,1-1.52.18-2-.8-3.8-1.17-2.2-.47-3.09.72-7.3,1.07C166.51,186.91,163.19,187.19,163,186.76Z"/><path class="cls-11" d="M120.67,188.48c-.4.53-4.3-1.22-6.24-4.7-1.68-3-1.3-6.23-1.12-6.24a9.6,9.6,0,0,0,1.4,4.56c1.62,2.28,3.93,2.34,5.58,5.26C120.55,187.84,120.81,188.3,120.67,188.48Z"/><rect class="cls-11" x="160.14" y="193.61" width="6.78" height="31.63" rx="3.39" ry="3.39" transform="translate(386.97 353.2) rotate(160.74)"/><path d="M179.5,229.5c-.32,0-.85-.49-1.13-1.29s-.12-1.65.14-1.75h0c.4,0,.91.49,1.19,1.28s.12,1.65-.14,1.75Z"/><path d="M178.79,226.87h0m-.06.2a2.32,2.32,0,0,1,.63,1.8,2.32,2.32,0,0,1-.63-1.8m-.14-1.13a.74.74,0,0,0-.24,0c-.64.22-.84,1.29-.46,2.39s1,1.63,1.61,1.63a.73.73,0,0,0,.24,0c.64-.22.84-1.29.46-2.39s-1-1.63-1.61-1.63Z"/><path d="M181.8,236.4c-.32,0-.85-.49-1.12-1.29s-.12-1.65.14-1.75h0c.4,0,.91.49,1.19,1.28a2.55,2.55,0,0,1,.14,1.26c0,.26-.15.44-.28.48Z"/><path d="M181.09,233.78h0m-.06.2a2.32,2.32,0,0,1,.63,1.8A2.32,2.32,0,0,1,181,234m-.14-1.13a.74.74,0,0,0-.24,0c-.64.22-.84,1.29-.46,2.39s1,1.63,1.61,1.63a.73.73,0,0,0,.24,0c.64-.22.84-1.29.46-2.39s-1-1.63-1.61-1.63Z"/><path d="M184,243.34c-.28,0-.8-.48-1-1.38s0-1.66.29-1.73h0c.34,0,.85.48,1.08,1.38a2.19,2.19,0,0,1-.08,1.54.39.39,0,0,1-.21.19Z"/><path d="M183.49,240.67h0m-.08.2a2.32,2.32,0,0,1,.47,1.84,2.32,2.32,0,0,1-.47-1.84m-.11-1.15-.18,0c-.65.17-.95,1.22-.66,2.35s.92,1.77,1.53,1.77l.18,0c.65-.17.95-1.22.66-2.35s-.92-1.77-1.53-1.77Z"/><path class="cls-16" d="M172.56,241.86a13.54,13.54,0,0,1-8.92,1.49l.89,5.3,5.2,1.59,3.74-3Z"/></g><path class="cls-2" d="M253.18,279q0,.19.39.41l.14-.28-.28-.14Z"/><path class="cls-2" d="M281,379.92h.88v-.26l-.31-.21H281Z"/><path class="cls-2" d="M283.9,382.81c0-.22-.29-.44-.88-.66q-1.35.52-1.35.88a1.43,1.43,0,0,1,.69.25A13.5,13.5,0,0,1,283.9,382.81Z"/><path class="cls-1" d="M284.81,383l.41-.08-.31-.4h-.1Z"/><path class="cls-2" d="M252.85,277.36v.22a.45.45,0,0,0,.47.41H254q.47,0,.47-.41l-.94-.47A1.4,1.4,0,0,1,252.85,277.36Z"/><path class="cls-2" d="M181.65,314.12a.41.41,0,0,0,.47-.47v-.25l-1.1-.22a6.3,6.3,0,0,1-.94.22v.25c.05.31.21.47.47.47Z"/><path class="cls-2" d="M209.38,311.57h.44q.3,0,.69-.72l-.25-.41A1.08,1.08,0,0,0,209.38,311.57Z"/><path class="cls-2" d="M281.33,380.4c0-.31-.15-.47-.44-.47l-.25.47v.25h.69Z"/><path class="cls-2" d="M292.63,370.42l-.25.47H293Q293,370.42,292.63,370.42Z"/><path class="cls-2" d="M281.89,376.57h-.31l.31.21Z"/><path class="cls-2" d="M285.94,382.81l-.22-.41a2.55,2.55,0,0,1-.81.16l.31.4Z"/><path class="cls-2" d="M285.08,259.57a1.45,1.45,0,0,1-.55-.17h-.17v.17a1.29,1.29,0,0,1,.72.36Z"/><path class="cls-2" d="M281.56,261.86v-.36h-.33c-.24.06-.36.17-.36.36v.33h.36A.29.29,0,0,0,281.56,261.86Z"/><path class="cls-2" d="M284,259.77v-.55q-1.74.39-1.74,1.6Q284,260.1,284,259.77Z"/><path class="cls-2" d="M300.1,368h-.36l-.19.74Q299.85,368.75,300.1,368Z"/><rect class="cls-2" x="262.45" y="366.85" width="0.5" height="0.36"/><path class="cls-2" d="M283.51,388.28l-.19.33h.52A.29.29,0,0,0,283.51,388.28Z"/><path class="cls-2" d="M269.82,263.79v.33q0,.25.55.55h.69V264a1.26,1.26,0,0,0-.69-.19Z"/><rect class="cls-2" x="277.37" y="264.97" width="0.69" height="0.39"/><path class="cls-2" d="M211.21,319.9l.17-.36v-.88l.69-.17v-.33a3,3,0,0,0-2.23,1.18A4.11,4.11,0,0,0,211.21,319.9Z"/><path class="cls-2" d="M274.72,267.1l-.33.55q.33,0,.33.16a1.46,1.46,0,0,1,.55-.16Q275.28,267.37,274.72,267.1Z"/><path class="cls-2" d="M172.63,279.36l-.36.5V280l.16.33a1,1,0,0,0,.74-.69Z"/><path class="cls-2" d="M293.6,368.39h-.52v.52Q293.35,368.91,293.6,368.39Z"/><path class="cls-2" d="M293.6,374.34h-.33q-.39,0-.55.85h.55l.5-.36A1.27,1.27,0,0,1,293.6,374.34Z"/><path class="cls-2" d="M281.92,257.48H281v.16l.36.52q.88-.22.88-.52Z"/><path class="cls-2" d="M297.29,368.39h-1v.17q.11,0,1,.19Z"/><path class="cls-2" d="M295,368.19q0,.25.52.55h.17a.32.32,0,0,0,.36-.36l-.36-.19Z"/><rect class="cls-2" x="269.99" y="355.12" width="1.53" height="0.72"/><path class="cls-2" d="M267.61,383.72h.29l.34-.62v-.33h-.34A2.25,2.25,0,0,1,267.61,383.72Z"/><g id="header-guy-platform"><path class="cls-17" d="M457.23,302.56c24-1,44.56,21.21,66.37,13.67,17.14-5.92,44-31.38,20.88-49.64-17.92-14.12-23.29.08-70.85-11-28.33-6.62-49.85,4.92-78.3,6.81-19.41,1.29-45.5-.53-43.25,23,2.73,28.59,50.8,41.41,66.62,33.09C432.9,311,444.9,303.09,457.23,302.56Z"/><path class="cls-18" d="M439.82,249.85c-2.48.37-5.18.83-8.23,1.42l.94,4.89,1.13-.21H434l.13,0h0q1.68-.31,3.37-.6h0l.14,0h.65l2.26-.35-.73-4.92Zm-15.4,2.86-1.31.27c-2.19.45-4.4.91-6.63,1.35l1,4.88.15,0H418l.08,0h0l.09,0h0l.1,0h0l5.83-1.2.74-.15.21,0,.35-.07-1-4.87Zm-14.92,2.92c-2.78.47-5.34.85-7.82,1.15l.6,4.94.19,0h0c2.67-.33,5.29-.72,7.86-1.16l-.84-4.91Zm-14.75,1.79c-2.08.14-4.22.23-6.48.34l-1.57.07.24,5,.39,0,.43,0h.06l.6,0h.26l4.54-.22h.48l1.38-.08-.32-5Zm-15.41.84c-3.25.25-6,.57-8.53,1l.82,4.91c2.6-.43,5.32-.72,8.09-.93l-.38-5ZM363,261.15a26.77,26.77,0,0,0-8.73,4.71l3.19,3.82a22.13,22.13,0,0,1,7.14-3.81l-1.6-4.71Zm-14.39,12.44a24.62,24.62,0,0,0-1.63,10l5-.14q0-1,0-1.94h0v-.05h0v0h0v0h0v0h0v-.06h0v0h0v0h0v0h0v-.08h0v0h0v-.1h0v0h0v-.1h0v0h0v0h0v-.08h0v0h0v-.11h0v-.11h0v-.08h0v-.06h0v0h0v-.08h0v0h0v-.06h0v-.06h0v0h0v0h0v0h.06v0h0v0h0l0-.08h0l0-.09h0l0-.1h0a16.28,16.28,0,0,1,.77-2.46l-4.61-1.87Zm4.49,17L348.34,292a33.74,33.74,0,0,0,4.05,8.61l4.17-2.72q-.6-.92-1.13-1.88h0l0,0h0v0h0l0-.06h0v0h0v0h0v0h0v0h0v0h0v0h0v0h0v0h-.09v0h0v0h0v0h0v0h0v0h0v0h0v0h0v0h0v0h0v0h0v0h0v0h0v0h0v0h0v0h0v0h0v0h0v0h0v0h0v0h0v0h0v0h0v0h0v0h0v0h0l0-.08h0l0-.06h0v0h0v0h0v0h0v0h0v0h0v0h0v0h0v0h0v0h0v0h0v0h0v0h0v0h0v0h0c-.19-.41-.38-.83-.55-1.25h0v0h0v0h0v0h0v0h0v0h0v0h0v0h0v0h0v0h0v0h0v0h0v0h0v0h0v0h0v0h0v0h0v0h0v0h0v0h0v0h0v0h0v0h0v0h0v0h0v0h0v0h0v0h0v0h0v0h0v0h0v0h0v0h0v0h0v0h0v0h0v0h0v0h0v0h0v0h0v0h0v0h0v0h0v0h0v0h0v0h0v0h0v0h0v0h0v0h0v0h0q-.16-.46-.3-.92Zm8,12.95-3.54,3.5a51.7,51.7,0,0,0,6.88,5.8l2.88-4.06q-1-.72-2-1.49h0l0,0h0l0,0h0l0,0h0l0,0H365l0,0h-.05l0,0h0l0,0h0l0,0h0l0,0h0l0,0h0l0,0h0l0,0h0l0,0h0l0,0h0a44.19,44.19,0,0,1-3.6-3.26Zm12.38,9-2.35,4.38a74.44,74.44,0,0,0,7.92,3.66l1.82-4.63a69.55,69.55,0,0,1-7-3.22h-.25l-.11-.06Zm14.24,5.73-1.37,4.78a79.38,79.38,0,0,0,8.47,1.93l.84-4.91a74.2,74.2,0,0,1-7.67-1.74h-.26ZM411,320.7a41.12,41.12,0,0,1-4.57.3h-.94q-1.28,0-2.62-.08l-.28,5c1.09.06,2.18.09,3.23.09a47,47,0,0,0,5.8-.34L411,320.7ZM425.15,315l-2.23,1.22h0l0,0h0l0,0h0l0,0h0l0,0h0l0,0h0l0,0h0l0,0h0l0,0h0l0,0h0l0,0h0l0,0h0l0,0h0l0,0h0l0,0h0l0,0h0l0,0h0l0,0h0l0,0h0l0,0h0l-3.26,1.74h0l-.42.21h-.07l-.25.12,2.07,4.52q.5-.23,1-.48c2.32-1.22,4.58-2.45,6.52-3.51L425.15,315Zm13.62-7.15c-1.74.82-3.51,1.71-5.29,2.65h-.07l-1.89,1,2.35,4.39c2.77-1.48,5-2.62,7-3.57l-2.12-4.5ZM453.29,303l-.73.13h-1l-.09,0h0l-.09,0h0a47.36,47.36,0,0,0-5.94,1.74l1.69,4.68a39.43,39.43,0,0,1,7-1.88l-.81-4.91Zm7.21-.42-.2,5a41,41,0,0,1,7.19,1l1.07-4.86a47.34,47.34,0,0,0-6.88-1H460.5Zm15,3L474,310.31c2.14.72,4.47,1.59,7.33,2.75l1.87-4.61c-2.52-1-5.05-2-7.62-2.86Zm14.3,5.64-1.92,4.59c2.46,1,5.11,2.12,7.77,3.09l1.71-4.67c-2.51-.92-5-2-7.57-3Zm14.46,5.19-1.24,4.82a46.4,46.4,0,0,0,9,1.46l.28-5a41.76,41.76,0,0,1-8-1.31Zm22.94-1.68-1.1.49h-.33q-1,.43-2,.77h-.29a28.21,28.21,0,0,1-4,1l.91,4.89a33.35,33.35,0,0,0,4.79-1.27,43.33,43.33,0,0,0,4.11-1.67l-2.1-4.51Zm12.82-8.41-1.24,1h0l0,0h-.15l0,0h0l0,0h0l0,0h0l0,0h0l0,0h0a59.34,59.34,0,0,1-5,3.6l2.71,4.17a64.2,64.2,0,0,0,7.05-5.3l-3.26-3.76ZM550,294.68a37.44,37.44,0,0,1-2.31,3.53h0l0,0h0l0,0h0v0h0v0h0v0h0v0h-.05v0h0v0h0v0h0v0h0v0h0v0h0l0,0h0l0,0h0l0,0h0l0,0h0l0,0h0l0,0h0l0,0h0l0,0h0l0,0h0l0,0h0l0,0h0l0,0h0l0,0h0q-.92,1.2-1.93,2.34l3.73,3.29a45.79,45.79,0,0,0,5.35-7.39L550,294.68Zm8.17-15.54-4.91.82q.06.33.1.67h0q0,.33.07.65h0a18.66,18.66,0,0,1-.14,4.4h0l0,.15h0l0,.1h0v0h0v0h0c-.1.54-.22,1.09-.37,1.63l4.81,1.27a24.05,24.05,0,0,0,.56-10.16Zm-9.72-15.75-3.19,3.82a26.8,26.8,0,0,1,4.74,5h0l0,0h.09v0h0q.25.37.48.74l4.22-2.64a30.88,30.88,0,0,0-6.44-7.22Zm-15.84-8-.9,4.89.94.19h.06l.09,0h.6l.07,0h.18a24.44,24.44,0,0,1,5.06,2h0l.09,0h0l.06,0h0l.05,0h0l0,0h0l0,0h.06l0,0h.06l0,0h0l2.42-4.35a29.39,29.39,0,0,0-9.14-3.33Zm-8.17-.57c-1.7,0-3.48.1-5.37.18l-2.89.12.18,5,2.92-.12c1.87-.08,3.59-.15,5.22-.17l-.06-5Zm-23.1.1-.35,5c2.33.16,4.49.25,6.51.29h.32l1.31,0,0-5c-2.64,0-5.2-.12-7.83-.31Zm-14.76-1.82-.84,4.9h.13c2.52.43,4.89.78,7.13,1.06h.2l.59.07.6-4.94c-2.52-.31-5.15-.69-7.81-1.15Zm-15-3.08-.94,4.89.23,0h.67l.1,0h0l.14,0h0l.94.2h0l.14,0h0l.1,0h0l.1,0h.59l.19,0h0l3.11.7h.16l1.35.29,1-4.87c-1.59-.33-3.22-.7-4.86-1.08-1.05-.25-2.12-.47-3.18-.68Zm-15.72-1.48c-2.79,0-5.59.13-8.57.39l.44,5,1.26-.1h.58c1.92-.13,3.86-.21,5.82-.22H456q1.65,0,3.33.07h.56q1.77.09,3.57.26l.48-5c-2.64-.25-5.37-.38-8.1-.38Z"/></g><path class="cls-2" d="M499,297.33h.11c.13,0,.19-.07.19-.22s-.11,0-.11-.09a.83.83,0,0,1,.32-.11v-.11h-.11A.49.49,0,0,0,499,297.33Z"/><path class="cls-2" d="M459.54,284.29l.22-.32-.93-.09A.69.69,0,0,0,459.54,284.29Z"/><path class="cls-2" d="M503.91,273.11h.52q-.15-.69-1-.69h-.17Q503.22,272.7,503.91,273.11Z"/><polygon class="cls-2" points="379.46 321.07 379.11 320.9 378.77 321.44 379.11 321.63 379.46 321.07"/><path class="cls-2" d="M380.87,320.9q-.15,0-.15.17a2.22,2.22,0,0,0-1.06-.33q0,.43,1.39.69h.37Q381.41,321.18,380.87,320.9Z"/><path class="cls-2" d="M481.94,290.75a1.48,1.48,0,0,1,.56-.17v-.37l-.46.16Z"/><path class="cls-2" d="M449.6,261.66v.15c0,.19.12.28.28.28v-.15A.25.25,0,0,0,449.6,261.66Z"/><path class="cls-2" d="M423.43,295.92h.26v-.15q0-.19-.41-.43H423Q423.24,295.92,423.43,295.92Z"/><path class="cls-2" d="M525.92,295.09l-.69.13.54.56q1-.26,1-.56l-.69-.13Z"/><path class="cls-2" d="M490.19,306.22v.15a.5.5,0,0,0,0,.11h.25A.24.24,0,0,0,490.19,306.22Z"/><path class="cls-2" d="M352.76,301.7l-.15.28v.28h.15a.28.28,0,0,0,0-.56Z"/><path class="cls-2" d="M478.26,281q-.09,0-.67-.69c-.2,0-.3.12-.3.26v.28q.32,0,.84.54h.13l-.13-.28C478.22,281.15,478.26,281.12,478.26,281Z"/><path class="cls-2" d="M414.74,290.52q0,.2.41.39h.41l.13-.67h-.13A1.16,1.16,0,0,1,414.74,290.52Z"/><path class="cls-2" d="M452.48,261.81v.28h-.41l-.54-.43v.15a2,2,0,0,0,1.08.54.13.13,0,0,1,.15-.15.9.9,0,0,1-.15-.39Z"/><path class="cls-2" d="M490.48,306.66v-.17h-.25A.25.25,0,0,0,490.48,306.66Z"/><path class="cls-2" d="M448.08,263.61a5.72,5.72,0,0,0,1.26.24v-.24a7.43,7.43,0,0,1-1.13-.3Z"/><path class="cls-2" d="M411.54,295H411a.3.3,0,0,0,.3.26h.24Z"/><path class="cls-2" d="M529.6,282.12h.13a1.39,1.39,0,0,1,.41-.09v-.19H530A.58.58,0,0,0,529.6,282.12Z"/><path id="cloud_1" data-name="cloud 1" class="cls-2" d="M245.57,153.43a18.77,18.77,0,0,0-18.73-19.95c-.47,0-.93,0-1.39,0a15.05,15.05,0,0,0-22.54-17.92c0-.21,0-.41,0-.61a21,21,0,1,0-39.66,9.79,15.05,15.05,0,0,0-14.76,15,14.57,14.57,0,0,0,.11,1.77,10.9,10.9,0,0,0-17.2,7.95,10.9,10.9,0,0,0-14.22,10.82v0A2.78,2.78,0,0,0,120,163H240.64a2.81,2.81,0,0,0,2.43-1.38A18.5,18.5,0,0,0,245.57,153.43Z"/><path id="cloud2" class="cls-2" d="M413.1,109.87a18.77,18.77,0,0,1,18.73-19.95c.47,0,.93,0,1.39,0A15.05,15.05,0,0,1,455.76,72c0-.21,0-.41,0-.61a21,21,0,1,1,39.66,9.79,15.05,15.05,0,0,1,14.76,15,14.57,14.57,0,0,1-.11,1.77,10.9,10.9,0,0,1,17.2,7.95,10.9,10.9,0,0,1,14.22,10.82v0a2.78,2.78,0,0,1-2.81,2.61H418a2.81,2.81,0,0,1-2.43-1.38A18.5,18.5,0,0,1,413.1,109.87Z"/><path class="cls-2" d="M252.75,366.72v-.34h-.62v.86C252.54,367.24,252.75,367.07,252.75,366.72Z"/><path class="cls-2" d="M255.48,368.2v-.29h-.86q-.48,0-1,.91l.62.29Q255.48,368.63,255.48,368.2Z"/><g id="header-guy"><rect class="cls-19" x="374.66" y="232.36" width="35.42" height="41.13"/><rect class="cls-20" x="333.66" y="257.23" width="41.13" height="41.13"/><polygon class="cls-21" points="333.66 257.23 368.94 232.36 410.08 232.36 374.79 257.23 333.66 257.23"/><path class="cls-21" d="M354.42,254.28"/><path class="cls-21" d="M354.42,254.28"/><path class="cls-21" d="M355.56,254.28"/><rect class="cls-22" x="343.15" y="257.23" width="20.91" height="41.13"/><line class="cls-23" x1="364.29" y1="257.23" x2="398.82" y2="232.36"/><line class="cls-23" x1="353.43" y1="257.23" x2="387.96" y2="232.36"/><path class="cls-23" d="M385.68,232.36"/><path class="cls-23" d="M351.15,257.23"/><path class="cls-23" d="M373.11,232.36"/><path class="cls-23" d="M338.58,257.23"/><line class="cls-23" x1="343.15" y1="257.23" x2="377.68" y2="232.36"/><polygon class="cls-24" points="385.75 243.85 364.79 243.85 366.96 239.44 385.84 239.43 385.75 243.85"/><polygon class="cls-25" points="358.22 244.75 366.97 239.43 385.59 239.43 379.19 244.75 358.22 244.75"/><polygon class="cls-25" points="358.17 249 364.79 243.85 385.54 243.8 378.04 249.17 358.17 249"/><polygon class="cls-26" points="378.04 249.17 358.17 249.17 358.23 244.72 377.88 244.72 378.04 249.17"/><path d="M371.14,246c-4,0-8.15-1-8.28-3.11-.07-1.08.92-2.08,2.85-2.88a21.34,21.34,0,0,1,6.63-1.37c.57,0,1.12-.05,1.66-.05,4,0,8.15,1,8.28,3.11.14,2.38-4.78,4-9.49,4.25C372.24,246,371.68,246,371.14,246Z"/><path class="cls-2" d="M374,239c4.35,0,7.72,1.11,7.82,2.68.11,1.77-3.95,3.45-9.06,3.76-.55,0-1.1.05-1.63.05-4.35,0-7.72-1.11-7.82-2.68-.11-1.77,3.95-3.45,9.06-3.76.55,0,1.1-.05,1.63-.05m0-.92h0c-.55,0-1.12,0-1.69.05a21.79,21.79,0,0,0-6.78,1.41c-2.69,1.12-3.19,2.43-3.14,3.33.16,2.61,4.81,3.54,8.74,3.54.55,0,1.12,0,1.69-.05a21.79,21.79,0,0,0,6.78-1.41c2.69-1.12,3.19-2.43,3.14-3.33-.16-2.61-4.81-3.54-8.73-3.54Z"/><ellipse class="cls-2" cx="372.58" cy="242.06" rx="3.77" ry="1.3" transform="translate(-14.11 23.24) rotate(-3.51)"/><ellipse class="cls-2" cx="372.58" cy="242.06" rx="1.11" ry="0.38" transform="translate(-14.11 23.24) rotate(-3.51)"/><path class="cls-27" d="M387.17,213.76a3,3,0,0,0-2.46,4.65c7,10.72,16.38,12.38,23,11.89a32.65,32.65,0,0,0,12.52-3.63,3,3,0,0,0-3-5.23h0a26.9,26.9,0,0,1-10.2,2.88c-7.21.48-13-2.62-17.33-9.19A3,3,0,0,0,387.17,213.76Z"/><path class="cls-28" d="M413.88,280.83V287c0,.61,0,1.21.05,1.81.06.91,0,2.81-1.35,3.41-1.18.52-7.64,2.46-8.82,2-1.8-.7-2.11-2.21-1.3-2.81a39,39,0,0,1,4.59-2.13.68.68,0,0,0,.42-.63v-7.86"/><path class="cls-28" d="M413.88,280.6v6.2c0,.61,0,1.21.05,1.81.06.91,0,2.81-1.35,3.41-1.8.8-7,2.71-8.82,2s-2.11-2.21-1.3-2.81a39,39,0,0,1,4.59-2.13.68.68,0,0,0,.42-.63V280.6"/><path d="M410.7,281.33a6.14,6.14,0,0,1-3.26-.63,8.68,8.68,0,0,1,6.51,0A6.14,6.14,0,0,1,410.7,281.33Z"/><path d="M410.7,280.56a10.28,10.28,0,0,1,1.68.13,10.92,10.92,0,0,1-3.36,0,10.28,10.28,0,0,1,1.68-.13m0-1c-2.1,0-3.8.51-3.8,1.14s1.7,1.14,3.8,1.14,3.8-.51,3.8-1.14-1.7-1.14-3.8-1.14Z"/><path class="cls-28" d="M422.84,280.83V287c0,.61,0,1.21.05,1.81.06.91,0,2.81-1.35,3.41-1.18.52-7.64,2.46-8.82,2-1.8-.7-2.11-2.21-1.3-2.81a39,39,0,0,1,4.59-2.13.68.68,0,0,0,.42-.63v-7.86"/><path class="cls-28" d="M422.84,280.6v6.2c0,.61,0,1.21.05,1.81.06.91,0,2.81-1.35,3.41-1.8.8-7,2.71-8.82,2s-2.11-2.21-1.3-2.81a39,39,0,0,1,4.59-2.13.68.68,0,0,0,.42-.63V280.6"/><path d="M419.66,281.33a6.14,6.14,0,0,1-3.26-.63,8.68,8.68,0,0,1,6.51,0A6.14,6.14,0,0,1,419.66,281.33Z"/><path d="M419.67,280.56a10.28,10.28,0,0,1,1.68.13,10.92,10.92,0,0,1-3.36,0,10.28,10.28,0,0,1,1.68-.13m0-1c-2.1,0-3.8.51-3.8,1.14s1.7,1.14,3.8,1.14,3.8-.51,3.8-1.14-1.7-1.14-3.8-1.14Z"/><rect class="cls-29" x="408.7" y="254.07" width="4.04" height="26.89"/><rect class="cls-29" x="417.66" y="254.07" width="4.04" height="26.89"/><path d="M410.63,260.38a.25.25,0,0,0,0-.5.25.25,0,0,0,0,.5Z"/><path d="M411.07,266.27a.25.25,0,0,0,0-.5.25.25,0,0,0,0,.5Z"/><path d="M411.25,263.55a.25.25,0,0,0,0-.5.25.25,0,0,0,0,.5Z"/><path d="M410.19,271.1a.25.25,0,0,0,0-.5.25.25,0,0,0,0,.5Z"/><path d="M411.86,273.39a.25.25,0,0,0,0-.5.25.25,0,0,0,0,.5Z"/><path d="M410.28,276.55a.25.25,0,0,0,0-.5.25.25,0,0,0,0,.5Z"/><path d="M411.6,279.54a.25.25,0,0,0,0-.5.25.25,0,0,0,0,.5Z"/><path d="M411.6,269a.25.25,0,0,0,0-.5.25.25,0,0,0,0,.5Z"/><path d="M418.63,262.93a.25.25,0,0,0,0-.5.25.25,0,0,0,0,.5Z"/><path d="M421.53,265.48a.25.25,0,0,0,0-.5.25.25,0,0,0,0,.5Z"/><path d="M420.83,265.57a.25.25,0,0,0,0-.5.25.25,0,0,0,0,.5Z"/><path d="M419.33,270.31a.25.25,0,0,0,0-.5.25.25,0,0,0,0,.5Z"/><path d="M420.48,261.26a.25.25,0,0,0,0-.5.25.25,0,0,0,0,.5Z"/><path d="M419.51,267.68a.25.25,0,0,0,0-.5.25.25,0,0,0,0,.5Z"/><path d="M421,272.77a.25.25,0,0,0,0-.5.25.25,0,0,0,0,.5Z"/><path d="M419.33,276.2a.25.25,0,0,0,0-.5.25.25,0,0,0,0,.5Z"/><path d="M420.3,278.31a.25.25,0,0,0,0-.5.25.25,0,0,0,0,.5Z"/><path d="M419.42,273.13a.25.25,0,0,0,0-.5.25.25,0,0,0,0,.5Z"/><path d="M419.6,258.62a.25.25,0,0,0,0-.5.25.25,0,0,0,0,.5Z"/><path d="M412,257.83a.25.25,0,0,0,0-.5.25.25,0,0,0,0,.5Z"/><path d="M410.28,257.75a.25.25,0,0,0,0-.5.25.25,0,0,0,0,.5Z"/><path d="M409.67,267.85a.25.25,0,0,0,0-.5.25.25,0,0,0,0,.5Z"/><path d="M419,265.3a.25.25,0,0,0,0-.5.25.25,0,0,0,0,.5Z"/><path d="M420.13,263.28a.25.25,0,0,0,0-.5.25.25,0,0,0,0,.5Z"/><path d="M420.65,275.59a.25.25,0,0,0,0-.5.25.25,0,0,0,0,.5Z"/><path d="M410,263.46a.25.25,0,0,0,0-.5.25.25,0,0,0,0,.5Z"/><path d="M410.19,274.27a.25.25,0,0,0,0-.5.25.25,0,0,0,0,.5Z"/><path d="M411.86,276.64a.25.25,0,0,0,0-.5.25.25,0,0,0,0,.5Z"/><path d="M409.84,278.93a.25.25,0,0,0,0-.5.25.25,0,0,0,0,.5Z"/><path d="M418.9,279.72a.25.25,0,0,0,0-.5.25.25,0,0,0,0,.5Z"/><path d="M420.48,280.42a.25.25,0,0,0,0-.5.25.25,0,0,0,0,.5Z"/><path d="M418.37,260a.25.25,0,0,0,0-.5.25.25,0,0,0,0,.5Z"/><path d="M420.39,269.7a.25.25,0,0,0,0-.5.25.25,0,0,0,0,.5Z"/><path d="M420.65,257.31a.25.25,0,0,0,0-.5.25.25,0,0,0,0,.5Z"/><path d="M411.69,261.7a.25.25,0,0,0,0-.5.25.25,0,0,0,0,.5Z"/><path d="M409.4,259.15a.25.25,0,0,0,0-.5.25.25,0,0,0,0,.5Z"/><path d="M411.69,271.46a.25.25,0,0,0,0-.5.25.25,0,0,0,0,.5Z"/><path d="M420.83,267.94a.25.25,0,0,0,0-.5.25.25,0,0,0,0,.5Z"/><path d="M409.49,265.57a.25.25,0,0,0,0-.5.25.25,0,0,0,0,.5Z"/><rect class="cls-30" x="416.08" y="251.25" width="7.56" height="10.19"/><rect class="cls-30" x="406.42" y="251.25" width="7.56" height="10.19"/><path class="cls-30" d="M401.49,253s14.41,8.09,34.1-2.11L426,222.22a11.39,11.39,0,0,0-10.74-7.83h-.34a7.77,7.77,0,0,0-7.32,6.36Z"/><path class="cls-27" d="M393.16,210.16c3.22-9.34,4.83-14,8.33-15.71a10.29,10.29,0,0,1,6.43-1.05c6.86,1.32,12.57,11.2,9.7,19.09-1.84,5.08-7.35,9.64-11.39,8.75s-6.94-7.64-11.07-7.17c-.48.05-1.52.27-2.11-.32C392.23,212.92,392.85,211.06,393.16,210.16Z"/><path class="cls-31" d="M394.82,195.59c-.5,3.12,2.11,6.76,5.27,7.6,3.61,1,6.89-2,8.26-.79,1.21,1.06-1.21,3.46-.18,5.86,1.28,3,7.35,4.85,10.9,3.17,4.73-2.24,5.32-11,1.23-16.46-3.29-4.43-9.28-6.33-14.41-5.86C402.64,189.4,395.55,191,394.82,195.59Z"/><path class="cls-32" d="M397.81,206.79s2.85,2.06,5.27,0"/><path class="cls-2" d="M409.24,210.27c-.11-.11.75-3.32,1.94-3.75a1.12,1.12,0,0,1,.67,0c1,.25,1.47,1.89.84,3.44s-2.16,2.21-2.38,2C409.05,210.55,410,211,409.24,210.27Z"/><path class="cls-32" d="M401.76,218.17a6.87,6.87,0,0,0,3.06-2c.14-.14.26-.29.38-.43"/><path class="cls-29" d="M411.45,208.42a5.17,5.17,0,0,0-.68,1.51"/><path d="M405.1,219.3a.25.25,0,0,0,0-.5.25.25,0,0,0,0,.5Z"/><path d="M406.37,216.88a.25.25,0,0,0,0-.5.25.25,0,0,0,0,.5Z"/><path d="M407.47,216.22a.25.25,0,0,0,0-.5.25.25,0,0,0,0,.5Z"/><path d="M406.77,219.52a.25.25,0,0,0,0-.5.25.25,0,0,0,0,.5Z"/><path d="M407.47,218.11a.25.25,0,0,0,0-.5.25.25,0,0,0,0,.5Z"/><path d="M406.11,218.37a.25.25,0,0,0,0-.5.25.25,0,0,0,0,.5Z"/><path d="M408.48,219.43a.25.25,0,0,0,0-.5.25.25,0,0,0,0,.5Z"/><path d="M408.74,216.44a.25.25,0,0,0,0-.5.25.25,0,0,0,0,.5Z"/><path d="M408.79,217.63a.25.25,0,0,0,0-.5.25.25,0,0,0,0,.5Z"/><path d="M410.46,218.51a.25.25,0,0,0,0-.5.25.25,0,0,0,0,.5Z"/><path d="M410,217.63a.25.25,0,0,0,0-.5.25.25,0,0,0,0,.5Z"/><path d="M408.35,213.59a.25.25,0,0,0,0-.5.25.25,0,0,0,0,.5Z"/><path d="M410.11,211.56a.25.25,0,0,0,0-.5.25.25,0,0,0,0,.5Z"/><path d="M408.57,214.82a.25.25,0,0,0,0-.5.25.25,0,0,0,0,.5Z"/><path d="M409.71,215.08a.25.25,0,0,0,0-.5.25.25,0,0,0,0,.5Z"/><path d="M410.46,216.22a.25.25,0,0,0,0-.5.25.25,0,0,0,0,.5Z"/><path d="M410.59,214.77a.25.25,0,0,0,0-.5.25.25,0,0,0,0,.5Z"/><path d="M411.16,212.4a.25.25,0,0,0,0-.5.25.25,0,0,0,0,.5Z"/><path d="M409.76,219.65a.25.25,0,0,0,0-.5.25.25,0,0,0,0,.5Z"/><path d="M407.65,220.4a.25.25,0,0,0,0-.5.25.25,0,0,0,0,.5Z"/><path d="M406.77,215.21a.25.25,0,0,0,0-.5.25.25,0,0,0,0,.5Z"/><path d="M407.08,214.07a.25.25,0,0,0,0-.5.25.25,0,0,0,0,.5Z"/><path d="M409.76,213.19a.25.25,0,0,0,0-.5.25.25,0,0,0,0,.5Z"/><path class="cls-2" d="M420.16,199.88a12.59,12.59,0,0,1-1.88-2.73c-.49-.79-.74-1.27-.92-1.58a3,3,0,0,0-.59-.85,3.43,3.43,0,0,0-1.59-.91,5.61,5.61,0,0,1-1.7-.83c-1-.72-2-1.77-1.86-2,0,0,.09-.07.29-.07a10.22,10.22,0,0,1,7.5,5.58A6.7,6.7,0,0,1,420.16,199.88Z"/><path d="M411.92,191.05h0a10.13,10.13,0,0,1,7.42,5.53,8.46,8.46,0,0,1,.78,3.19,18.41,18.41,0,0,1-1.77-2.66c-.48-.79-.74-1.26-.91-1.58a3,3,0,0,0-.6-.87,3.55,3.55,0,0,0-1.62-.93,5.54,5.54,0,0,1-1.68-.81,6.33,6.33,0,0,1-1.84-1.84.44.44,0,0,1,.23,0m0-.17c-.2,0-.33,0-.37.12-.14.3,1,1.42,1.89,2.07,1.51,1.07,2.2.66,3.28,1.72.46.45.36.56,1.49,2.41,1,1.57,1.69,2.77,2,2.77h0c.25-.14,0-2-.7-3.45a10.35,10.35,0,0,0-7.58-5.63Z"/><path d="M407.59,240.05c-.29-.25-1.26-1.26-2.85-3.06a.63.63,0,0,1-.14-.54l1.11-5.36a.63.63,0,0,1,.61-.5l.19,0a14.06,14.06,0,0,0,4.21.6l.86,0h0a.65.65,0,0,1,.5.22.62.62,0,0,1,.15.5l-.82,5.85a.63.63,0,0,1-.3.45A21.69,21.69,0,0,1,407.59,240.05Z"/><path d="M406.32,230.09l0,1a14.55,14.55,0,0,0,4.35.62l.9,0a.12.12,0,0,1,.09,0,.11.11,0,0,1,0,.09l-.82,5.85a.12.12,0,0,1-.06.09,30.63,30.63,0,0,1-3.14,1.69c-.38-.37-1.18-1.21-2.59-2.81a.12.12,0,0,1,0-.1l1.11-5.36a.12.12,0,0,1,.12-.1v-1m0,0a1.13,1.13,0,0,0-1.11.9l-1.11,5.36a1.13,1.13,0,0,0,.26,1,34.69,34.69,0,0,0,3.08,3.24h.07a19.25,19.25,0,0,0,3.85-1.93,1.13,1.13,0,0,0,.54-.82l.82-5.85a1.13,1.13,0,0,0-1.12-1.29h-.06l-.84,0a13.49,13.49,0,0,1-4.05-.57,1.13,1.13,0,0,0-.34-.05Z"/><path class="cls-27" d="M383.71,227.37a3,3,0,0,0-.55,5.23c10.49,7.34,19.81,5.39,25.78,2.46a32.65,32.65,0,0,0,10.27-8,3,3,0,0,0-4.7-3.75h0a26.9,26.9,0,0,1-8.39,6.47c-6.51,3.13-13.08,2.43-19.51-2.07A3,3,0,0,0,383.71,227.37Z"/><rect class="cls-33" x="353.43" y="257.23" height="41.13" transform="translate(706.86 555.59) rotate(180)"/><rect class="cls-34" x="346.89" y="267.42" width="18.28" height="33.9"/><polygon class="cls-34" points="341.37 272.46 346.89 267.42 365.18 267.42 359.65 272.46 341.37 272.46"/><polygon class="cls-34" points="341.37 306.36 346.89 301.32 365.18 301.32 359.65 306.36 341.37 306.36"/><rect class="cls-34" x="341.37" y="272.47" width="18.28" height="33.9"/><circle class="cls-35" cx="350.51" cy="282.46" r="4.48"/><circle class="cls-35" cx="350.51" cy="294.46" r="3.16"/><polyline class="cls-36" points="346.05 212.58 346.05 204.88 351.37 202.49 351.37 209.28"/><ellipse class="cls-37" cx="350.21" cy="210.13" rx="1.56" ry="0.84" transform="translate(-46.01 309.18) rotate(-45)"/><ellipse class="cls-37" cx="356.81" cy="202.43" rx="1.56" ry="0.84" transform="translate(-38.63 311.6) rotate(-45)"/><ellipse class="cls-37" cx="344.89" cy="213.25" rx="1.56" ry="0.84" transform="translate(-49.78 306.34) rotate(-45)"/><polyline class="cls-36" points="362.74 214.41 362.74 206.71 368.06 204.33 368.06 211.11"/><ellipse class="cls-37" cx="366.9" cy="211.97" rx="1.56" ry="0.84" transform="translate(-42.42 321.52) rotate(-45)"/><ellipse class="cls-37" cx="361.58" cy="215.09" rx="1.56" ry="0.84" transform="translate(-46.18 318.68) rotate(-45)"/><line class="cls-38" x1="358.05" y1="201.9" x2="357.97" y2="194.79"/><ellipse class="cls-37" cx="371.67" cy="191.43" rx="1.56" ry="0.84" transform="translate(-26.5 318.88) rotate(-45)"/><polyline class="cls-36" points="372.91 190.9 372.83 183.78 375.03 182.32"/></g></g></g></svg>