<svg xmlns="http://www.w3.org/2000/svg" xmlns:xlink="http://www.w3.org/1999/xlink" viewBox="0 0 1083.44 475.96"><defs><style>.cls-1,.cls-15,.cls-22,.cls-23,.cls-29,.cls-32{fill:none;}.cls-11,.cls-12,.cls-13,.cls-14,.cls-2,.cls-20,.cls-21,.cls-8,.cls-9{fill:#fff;}.cls-3{fill:#88aeea;}.cls-4{fill:#efe8aa;}.cls-5{fill:#80d692;}.cls-6{fill:url(#New_Pattern_2);}.cls-7{fill:#06aee5;}.cls-10,.cls-11,.cls-12,.cls-13,.cls-14,.cls-15,.cls-16,.cls-19,.cls-20,.cls-21,.cls-22,.cls-23,.cls-24,.cls-25,.cls-26,.cls-27,.cls-28,.cls-29,.cls-30,.cls-32,.cls-33,.cls-34,.cls-8,.cls-9{stroke:#000;}.cls-10,.cls-11,.cls-13,.cls-15,.cls-16,.cls-21,.cls-23,.cls-32,.cls-34,.cls-8,.cls-9{stroke-linecap:round;}.cls-10,.cls-12,.cls-13,.cls-16,.cls-19,.cls-20,.cls-21,.cls-22,.cls-23,.cls-24,.cls-25,.cls-26,.cls-27,.cls-29,.cls-30,.cls-32,.cls-34,.cls-8,.cls-9{stroke-linejoin:round;}.cls-10,.cls-8{stroke-width:5px;}.cls-9{stroke-width:5.41px;}.cls-11,.cls-14,.cls-15,.cls-28,.cls-31,.cls-33{stroke-miterlimit:10;}.cls-11,.cls-12,.cls-13,.cls-14,.cls-15,.cls-16,.cls-27,.cls-28{stroke-width:1.77px;}.cls-17{fill:#ef8269;}.cls-18{fill:url(#New_Pattern_2-3);}.cls-19,.cls-20,.cls-21,.cls-23,.cls-29,.cls-31{stroke-width:1.77px;}.cls-22{stroke-width:1.86px;}.cls-24{stroke-width:0.43px;}.cls-25{stroke-width:1.23px;}.cls-26{stroke-width:0.43px;}.cls-30{stroke-width:1.07px;}.cls-31{stroke:#fff;}.cls-32,.cls-33,.cls-34{stroke-width:1.93px;}</style><pattern id="New_Pattern_2" data-name="New Pattern 2" width="105" height="70" patternTransform="translate(-132.01 -83.47)" patternUnits="userSpaceOnUse" viewBox="0 0 105 70"><rect class="cls-1" width="105" height="70"/><path class="cls-2" d="M81.45,68.86V69h.41a1.3,1.3,0,0,1,.2-.57h-.2Q81.45,68.54,81.45,68.86Z"/><path class="cls-2" d="M99,68.94h1.3v-.38l-.46-.31H99Z"/><path d="M102,62.87c0-.46-.22-.69-.65-.69l-.37.69v.37h1Z"/><path class="cls-2" d="M100.31,68.25h-.46l.46.31Z"/><path d="M95.8,68.64l.2-.53v-.24h-.73v.24C95.3,68.46,95.48,68.64,95.8,68.64Z"/><path d="M2.53,56.77h1q-.28-1.3-2-1.3H1.23Q1.23,56,2.53,56.77Z"/><polygon points="5.52 68.25 4.87 67.93 4.22 68.94 4.87 69.31 5.52 68.25"/><path d="M8.16,67.93q-.29,0-.29.33a4.17,4.17,0,0,0-2-.61q0,.81,2.6,1.3h.69Q9.18,68.46,8.16,67.93Z"/><path d="M27.26,68.44a2.77,2.77,0,0,1,1.06-.32v-.7l-.86.3Z"/><rect class="cls-2" x="15.03" y="64.49" width="0.45" height="0.81"/><path class="cls-2" d="M7.79,68.39c0,.33.19.49.49.49h.24V68.6a1.89,1.89,0,0,1-.24-.73A.47.47,0,0,0,7.79,68.39Z"/><path class="cls-2" d="M16.82,60.91v-.29h-.53v.73C16.64,61.36,16.82,61.21,16.82,60.91Z"/><path class="cls-2" d="M12.18,58.07h.49v-.29q0-.36-.77-.81h-.53Q11.82,58.07,12.18,58.07Z"/><path class="cls-2" d="M12.18,61.36h-.53l-.28,1.1Q11.82,62.46,12.18,61.36Z"/><path class="cls-2" d="M19.13,62.17v-.24H18.4q-.41,0-.81.77l.53.24Q19.13,62.54,19.13,62.17Z"/><path class="cls-2" d="M7,57.78v.53q.37,0,.81-.77v-.28H7.51C7.16,57.34,7,57.51,7,57.78Z"/><path class="cls-2" d="M2.59,61.93H1.82v.77Q2.22,62.7,2.59,61.93Z"/><path class="cls-2" d="M8,61.93H6.49v.24q.16,0,1.54.29Z"/><path class="cls-2" d="M4.66,61.65q0,.37.77.81h.24a.47.47,0,0,0,.53-.53l-.53-.28Z"/><path d="M21,62.7h.73l1.3-.24v-.53q0-.24-1.79-1.58c0,.19-.08.28-.24.28l.24.53v1Z"/><path d="M27.67,62.95h.24a1.87,1.87,0,0,1,.77-.24v-.53h-.24Q28.08,62.17,27.67,62.95Z"/><path class="cls-2" d="M88.49,2.6q0-.49-1-1.06V2.6a3.14,3.14,0,0,1,1,.24Z"/><path class="cls-2" d="M90.42,16.32l.37-.69v-.33h-1v.33Q89.89,16.32,90.42,16.32Z"/><path class="cls-2" d="M103.28,3.21c0-.33-.43-.65-1.3-1q-2,.77-2,1.3a2.11,2.11,0,0,1,1,.37A19.92,19.92,0,0,1,103.28,3.21Z"/><path class="cls-1" d="M104.62,3.54l.6-.12-.46-.59h-.15Z"/><path class="cls-1" d="M103.61,6.83a2.78,2.78,0,0,1,1-.33.58.58,0,0,0-.65-.65c-.46.05-.69.27-.69.65A.29.29,0,0,1,103.61,6.83Z"/><path class="cls-2" d="M89.5,12.11a2.07,2.07,0,0,1,.94-.37q0-.73-2.93-1.3v.37A2.16,2.16,0,0,0,89.5,12.11Z"/><path class="cls-1" d="M83.44,4.53v.61h.61q0-1,.69-1V3.84h-1Z"/><path class="cls-2" d="M88.18,15.63v-.33H87.12v1h.37A.61.61,0,0,0,88.18,15.63Z"/><path class="cls-2" d="M88.81,6.5c.08.43.31.65.69.65l1.63-.33a2.5,2.5,0,0,0,1,.33V6.83l-.33-.69A14.86,14.86,0,0,1,88.81,6.5Z"/><path d="M99.48,10h.65q.45,0,1-1.06l-.37-.61A1.6,1.6,0,0,0,99.48,10Z"/><path d="M89.95,8q-.61.12-.61.65v.65l2,.33.28-.69L90.27,8Z"/><path d="M106.29,3.21,106,2.6a3.77,3.77,0,0,1-1.2.23l.46.59Z"/><path class="cls-2" d="M104.26,6.65H104c-.38,0-.57.2-.57.53v.49h.28c.35,0,.53-.16.53-.49a.22.22,0,0,1-.24-.24C104.18,6.93,104.26,6.84,104.26,6.65Z"/><path class="cls-2" d="M102.71,2.78l-.28.49h.77A.43.43,0,0,0,102.71,2.78Z"/><path class="cls-2" d="M102.18,12.58l.24-.53v-1.3l1-.24V10a4.42,4.42,0,0,0-3.29,1.75A6.07,6.07,0,0,0,102.18,12.58Z"/><path class="cls-2" d="M36,37.6q0-.49-1-1.06V37.6a3.14,3.14,0,0,1,1,.24Z"/><path class="cls-2" d="M29,33.86V34h.41a1.3,1.3,0,0,1,.2-.57h-.2Q29,33.54,29,33.86Z"/><path class="cls-2" d="M67,53.35q0,.28.57.61l.2-.41-.41-.2Z"/><path class="cls-2" d="M63.22,54l.41-.61-1.75-.16A1.3,1.3,0,0,0,63.22,54Z"/><path class="cls-2" d="M37.92,51.32l.37-.69v-.33h-1v.33Q37.39,51.32,37.92,51.32Z"/><path class="cls-2" d="M46.51,33.94h1.3v-.38l-.46-.31h-.84Z"/><path class="cls-2" d="M50.78,38.21c0-.33-.43-.65-1.3-1q-2,.77-2,1.3a2.11,2.11,0,0,1,1,.37A19.92,19.92,0,0,1,50.78,38.21Z"/><path class="cls-1" d="M52.12,38.54l.6-.12-.46-.59h-.15Z"/><path class="cls-1" d="M51.11,41.83a2.78,2.78,0,0,1,1-.33.58.58,0,0,0-.65-.65c-.46.05-.69.27-.69.65A.29.29,0,0,1,51.11,41.83Z"/><path class="cls-2" d="M37,47.11a2.07,2.07,0,0,1,.94-.37q0-.73-2.93-1.3v.37A2.16,2.16,0,0,0,37,47.11Z"/><path class="cls-1" d="M30.94,39.53v.61h.61q0-1,.69-1v-.33h-1Z"/><path class="cls-2" d="M66.47,51v.33a.66.66,0,0,0,.69.61h.93q.69,0,.69-.61l-1.38-.69A2.07,2.07,0,0,1,66.47,51Z"/><path class="cls-2" d="M35.68,50.63v-.33H34.62v1H35A.61.61,0,0,0,35.68,50.63Z"/><path class="cls-2" d="M36.31,41.5c.08.43.31.65.69.65l1.63-.33a2.5,2.5,0,0,0,1,.33v-.33l-.33-.69A14.86,14.86,0,0,1,36.31,41.5Z"/><rect x="56.53" y="47.73" width="1.3" height="0.61"/><path d="M47,45h.65q.45,0,1-1.06l-.37-.61A1.6,1.6,0,0,0,47,45Z"/><path d="M37.45,43q-.61.12-.61.65v.65l2,.33.28-.69L37.77,43Z"/><path d="M67.31,44.88l-.69-.37h-.28c-.46.11-.69.34-.69.69v.28a2.26,2.26,0,0,1,1,.33Z"/><path d="M55,21.77h1q-.28-1.3-2-1.3h-.33Q53.73,21,55,21.77Z"/><polygon points="58.02 33.25 57.37 32.93 56.72 33.94 57.37 34.31 58.02 33.25"/><path d="M49.54,27.87c0-.46-.22-.69-.65-.69l-.37.69v.37h1Z"/><path d="M60.66,32.93q-.29,0-.29.33a4.17,4.17,0,0,0-2-.61q0,.81,2.6,1.3h.69Q61.68,33.46,60.66,32.93Z"/><path d="M79.76,33.44a2.77,2.77,0,0,1,1.06-.32v-.7l-.86.3Z"/><path d="M63.67,36.91l-.37.69h1Q64.28,36.91,63.67,36.91Z"/><path class="cls-2" d="M47.81,33.25h-.46l.46.31Z"/><path d="M53.79,38.21l-.33-.61a3.77,3.77,0,0,1-1.2.23l.46.59Z"/><rect class="cls-2" x="67.53" y="29.49" width="0.45" height="0.81"/><path class="cls-2" d="M60.29,33.39c0,.33.19.49.49.49H61V33.6a1.89,1.89,0,0,1-.24-.73A.47.47,0,0,0,60.29,33.39Z"/><path class="cls-2" d="M69.32,25.91v-.29h-.53v.73C69.14,26.36,69.32,26.21,69.32,25.91Z"/><path class="cls-2" d="M52.53,54.29v.28c.05.35.23.53.53.53v-.29A.47.47,0,0,0,52.53,54.29Z"/><path class="cls-2" d="M64.68,23.07h.49v-.29q0-.36-.77-.81h-.53Q64.32,23.07,64.68,23.07Z"/><path class="cls-2" d="M64.68,26.36h-.53l-.28,1.1Q64.32,27.46,64.68,26.36Z"/><path class="cls-2" d="M51.76,41.65h-.24c-.38,0-.57.2-.57.53v.49h.28c.35,0,.53-.16.53-.49a.22.22,0,0,1-.24-.24C51.68,41.93,51.76,41.84,51.76,41.65Z"/><path class="cls-2" d="M71.63,27.17v-.24H70.9q-.41,0-.81.77l.53.24Q71.63,27.54,71.63,27.17Z"/><path class="cls-2" d="M50.21,37.78l-.28.49h.77A.43.43,0,0,0,50.21,37.78Z"/><path class="cls-2" d="M49.68,47.58l.24-.53v-1.3l1-.24V45a4.42,4.42,0,0,0-3.29,1.75A6.07,6.07,0,0,0,49.68,47.58Z"/><path class="cls-2" d="M59.48,22.78v.53q.37,0,.81-.77v-.28H60C59.66,22.34,59.48,22.51,59.48,22.78Z"/><path class="cls-2" d="M67.24,43.68l-.29.53v.53h.29a.53.53,0,0,0,0-1.06Z"/><path class="cls-2" d="M64.4,47.87q-.16,0-1.26-1.3c-.38.05-.57.22-.57.49v.53q.61,0,1.58,1h.24l-.24-.53C64.32,48.07,64.4,48,64.4,47.87Z"/><path class="cls-2" d="M72.16,45q0,.37.77.73h.77L74,44.49h-.24A2.18,2.18,0,0,1,72.16,45Z"/><path class="cls-2" d="M59.77,48.07v.29q.08.53.53.53h.49v-1a1.69,1.69,0,0,1-.77-.29Z"/><path class="cls-2" d="M76,44.74l-.24.49a.54.54,0,0,0,.37.5v-1Z"/><path class="cls-2" d="M55.62,49.41l-.53.73v.28l.24.49a1.4,1.4,0,0,0,1.1-1Z"/><path class="cls-2" d="M55.09,26.93h-.77v.77Q54.72,27.7,55.09,26.93Z"/><path class="cls-2" d="M55.09,35.71H54.6q-.57,0-.81,1.26h.81l.73-.53A1.88,1.88,0,0,1,55.09,35.71Z"/><path class="cls-2" d="M57.94,54.57v.53h-.77l-1-.81v.28a3.69,3.69,0,0,0,2,1,.25.25,0,0,1,.29-.28,1.69,1.69,0,0,1-.29-.73Z"/><path class="cls-2" d="M60.54,26.93H59v.24q.16,0,1.54.29Z"/><path class="cls-2" d="M57.16,26.65q0,.37.77.81h.24a.47.47,0,0,0,.53-.53l-.53-.28Z"/><path d="M43.3,33.64l.2-.53v-.24h-.73v.24C42.8,33.46,43,33.64,43.3,33.64Z"/><path d="M77.85,54v.28a1.9,1.9,0,0,1,1,.53h.28q.45,0,.45-.53L78.34,54Z"/><path d="M76.15,45.73l.16,0c.33,0,.49-.18.49-.53h-.49V45H77v-.28h-.89Z"/><path d="M73.46,27.7h.73l1.3-.24v-.53q0-.24-1.79-1.58c0,.19-.08.28-.24.28l.24.53v1Z"/><path d="M80.17,27.95h.24a1.87,1.87,0,0,1,.77-.24v-.53h-.24Q80.58,27.17,80.17,27.95Z"/><path class="cls-2" d="M14.46,18.35q0,.28.57.61l.2-.41-.41-.2Z"/><path class="cls-2" d="M10.72,19l.41-.61-1.75-.16A1.3,1.3,0,0,0,10.72,19Z"/><path class="cls-1" d="M-.38,3.54l.6-.12-.46-.59H-.38Z"/><path class="cls-2" d="M14,16v.33a.66.66,0,0,0,.69.61h.93q.69,0,.69-.61l-1.38-.69A2.07,2.07,0,0,1,14,16Z"/><rect x="4.03" y="12.73" width="1.3" height="0.61"/><path d="M14.81,9.88l-.69-.37h-.28c-.46.11-.69.34-.69.69v.28a2.26,2.26,0,0,1,1,.33Z"/><path d="M11.17,1.91l-.37.69h1Q11.78,1.91,11.17,1.91Z"/><path d="M1.29,3.21,1,2.6a3.77,3.77,0,0,1-1.2.23l.46.59Z"/><path class="cls-2" d="M0,19.29v.28c.05.35.23.53.53.53v-.29A.47.47,0,0,0,0,19.29Z"/><path class="cls-2" d="M14.74,8.68l-.29.53v.53h.29a.47.47,0,0,0,.53-.53A.47.47,0,0,0,14.74,8.68Z"/><path class="cls-2" d="M11.9,12.87q-.16,0-1.26-1.3c-.38.05-.57.22-.57.49v.53q.61,0,1.58,1h.24l-.24-.53C11.82,13.07,11.9,13,11.9,12.87Z"/><path class="cls-2" d="M19.66,10q0,.37.77.73h.77l.24-1.26h-.24A2.18,2.18,0,0,1,19.66,10Z"/><path class="cls-2" d="M7.27,13.07v.29q.08.53.53.53h.49v-1a1.69,1.69,0,0,1-.77-.29Z"/><path class="cls-2" d="M23.53,9.74l-.24.49a.54.54,0,0,0,.37.5v-1Z"/><path class="cls-2" d="M3.12,14.41l-.53.73v.28l.24.49a1.4,1.4,0,0,0,1.1-1Z"/><path class="cls-2" d="M2.59.71H2.1Q1.53.71,1.29,2H2.1l.73-.53A1.88,1.88,0,0,1,2.59.71Z"/><path class="cls-2" d="M5.44,19.57v.53H4.66l-1-.81v.28a3.69,3.69,0,0,0,2,1A.25.25,0,0,1,6,20.31a1.69,1.69,0,0,1-.29-.73Z"/><path d="M25.35,19v.28a1.9,1.9,0,0,1,1,.53h.28q.45,0,.45-.53L25.84,19Z"/><path d="M23.65,10.73l.16,0c.33,0,.49-.18.49-.53h-.49V10h.73V9.74h-.89Z"/></pattern><pattern id="New_Pattern_2-3" data-name="New Pattern 2" width="105" height="70" patternTransform="translate(191.04 55.39) scale(0.79)" patternUnits="userSpaceOnUse" viewBox="0 0 105 70"><rect class="cls-1" width="105" height="70"/><path class="cls-2" d="M81.45,68.86V69h.41a1.3,1.3,0,0,1,.2-.57h-.2Q81.45,68.54,81.45,68.86Z"/><path class="cls-2" d="M99,68.94h1.3v-.38l-.46-.31H99Z"/><path d="M102,62.87c0-.46-.22-.69-.65-.69l-.37.69v.37h1Z"/><path class="cls-2" d="M100.31,68.25h-.46l.46.31Z"/><path d="M95.8,68.64l.2-.53v-.24h-.73v.24C95.3,68.46,95.48,68.64,95.8,68.64Z"/><path d="M2.53,56.77h1q-.28-1.3-2-1.3H1.23Q1.23,56,2.53,56.77Z"/><polygon points="5.52 68.25 4.87 67.93 4.22 68.94 4.87 69.31 5.52 68.25"/><path d="M8.16,67.93q-.29,0-.29.33a4.17,4.17,0,0,0-2-.61q0,.81,2.6,1.3h.69Q9.18,68.46,8.16,67.93Z"/><path d="M27.26,68.44a2.77,2.77,0,0,1,1.06-.32v-.7l-.86.3Z"/><rect class="cls-2" x="15.03" y="64.49" width="0.45" height="0.81"/><path class="cls-2" d="M7.79,68.39c0,.33.19.49.49.49h.24V68.6a1.89,1.89,0,0,1-.24-.73A.47.47,0,0,0,7.79,68.39Z"/><path class="cls-2" d="M16.82,60.91v-.29h-.53v.73C16.64,61.36,16.82,61.21,16.82,60.91Z"/><path class="cls-2" d="M12.18,58.07h.49v-.29q0-.36-.77-.81h-.53Q11.82,58.07,12.18,58.07Z"/><path class="cls-2" d="M12.18,61.36h-.53l-.28,1.1Q11.82,62.46,12.18,61.36Z"/><path class="cls-2" d="M19.13,62.17v-.24H18.4q-.41,0-.81.77l.53.24Q19.13,62.54,19.13,62.17Z"/><path class="cls-2" d="M7,57.78v.53q.37,0,.81-.77v-.28H7.51C7.16,57.34,7,57.51,7,57.78Z"/><path class="cls-2" d="M2.59,61.93H1.82v.77Q2.22,62.7,2.59,61.93Z"/><path class="cls-2" d="M8,61.93H6.49v.24q.16,0,1.54.29Z"/><path class="cls-2" d="M4.66,61.65q0,.37.77.81h.24a.47.47,0,0,0,.53-.53l-.53-.28Z"/><path d="M21,62.7h.73l1.3-.24v-.53q0-.24-1.79-1.58c0,.19-.08.28-.24.28l.24.53v1Z"/><path d="M27.67,62.95h.24a1.87,1.87,0,0,1,.77-.24v-.53h-.24Q28.08,62.17,27.67,62.95Z"/><path class="cls-2" d="M88.49,2.6q0-.49-1-1.06V2.6a3.14,3.14,0,0,1,1,.24Z"/><path class="cls-2" d="M90.42,16.32l.37-.69v-.33h-1v.33Q89.89,16.32,90.42,16.32Z"/><path class="cls-2" d="M103.28,3.21c0-.33-.43-.65-1.3-1q-2,.77-2,1.3a2.11,2.11,0,0,1,1,.37A19.92,19.92,0,0,1,103.28,3.21Z"/><path class="cls-1" d="M104.62,3.54l.6-.12-.46-.59h-.15Z"/><path class="cls-1" d="M103.61,6.83a2.78,2.78,0,0,1,1-.33.58.58,0,0,0-.65-.65c-.46.05-.69.27-.69.65A.29.29,0,0,1,103.61,6.83Z"/><path class="cls-2" d="M89.5,12.11a2.07,2.07,0,0,1,.94-.37q0-.73-2.93-1.3v.37A2.16,2.16,0,0,0,89.5,12.11Z"/><path class="cls-1" d="M83.44,4.53v.61h.61q0-1,.69-1V3.84h-1Z"/><path class="cls-2" d="M88.18,15.63v-.33H87.12v1h.37A.61.61,0,0,0,88.18,15.63Z"/><path class="cls-2" d="M88.81,6.5c.08.43.31.65.69.65l1.63-.33a2.5,2.5,0,0,0,1,.33V6.83l-.33-.69A14.86,14.86,0,0,1,88.81,6.5Z"/><path d="M99.48,10h.65q.45,0,1-1.06l-.37-.61A1.6,1.6,0,0,0,99.48,10Z"/><path d="M89.95,8q-.61.12-.61.65v.65l2,.33.28-.69L90.27,8Z"/><path d="M106.29,3.21,106,2.6a3.77,3.77,0,0,1-1.2.23l.46.59Z"/><path class="cls-2" d="M104.26,6.65H104c-.38,0-.57.2-.57.53v.49h.28c.35,0,.53-.16.53-.49a.22.22,0,0,1-.24-.24C104.18,6.93,104.26,6.84,104.26,6.65Z"/><path class="cls-2" d="M102.71,2.78l-.28.49h.77A.43.43,0,0,0,102.71,2.78Z"/><path class="cls-2" d="M102.18,12.58l.24-.53v-1.3l1-.24V10a4.42,4.42,0,0,0-3.29,1.75A6.07,6.07,0,0,0,102.18,12.58Z"/><path class="cls-2" d="M36,37.6q0-.49-1-1.06V37.6a3.14,3.14,0,0,1,1,.24Z"/><path class="cls-2" d="M29,33.86V34h.41a1.3,1.3,0,0,1,.2-.57h-.2Q29,33.54,29,33.86Z"/><path class="cls-2" d="M67,53.35q0,.28.57.61l.2-.41-.41-.2Z"/><path class="cls-2" d="M63.22,54l.41-.61-1.75-.16A1.3,1.3,0,0,0,63.22,54Z"/><path class="cls-2" d="M37.92,51.32l.37-.69v-.33h-1v.33Q37.39,51.32,37.92,51.32Z"/><path class="cls-2" d="M46.51,33.94h1.3v-.38l-.46-.31h-.84Z"/><path class="cls-2" d="M50.78,38.21c0-.33-.43-.65-1.3-1q-2,.77-2,1.3a2.11,2.11,0,0,1,1,.37A19.92,19.92,0,0,1,50.78,38.21Z"/><path class="cls-1" d="M52.12,38.54l.6-.12-.46-.59h-.15Z"/><path class="cls-1" d="M51.11,41.83a2.78,2.78,0,0,1,1-.33.58.58,0,0,0-.65-.65c-.46.05-.69.27-.69.65A.29.29,0,0,1,51.11,41.83Z"/><path class="cls-2" d="M37,47.11a2.07,2.07,0,0,1,.94-.37q0-.73-2.93-1.3v.37A2.16,2.16,0,0,0,37,47.11Z"/><path class="cls-1" d="M30.94,39.53v.61h.61q0-1,.69-1v-.33h-1Z"/><path class="cls-2" d="M66.47,51v.33a.66.66,0,0,0,.69.61h.93q.69,0,.69-.61l-1.38-.69A2.07,2.07,0,0,1,66.47,51Z"/><path class="cls-2" d="M35.68,50.63v-.33H34.62v1H35A.61.61,0,0,0,35.68,50.63Z"/><path class="cls-2" d="M36.31,41.5c.08.43.31.65.69.65l1.63-.33a2.5,2.5,0,0,0,1,.33v-.33l-.33-.69A14.86,14.86,0,0,1,36.31,41.5Z"/><rect x="56.53" y="47.73" width="1.3" height="0.61"/><path d="M47,45h.65q.45,0,1-1.06l-.37-.61A1.6,1.6,0,0,0,47,45Z"/><path d="M37.45,43q-.61.12-.61.65v.65l2,.33.28-.69L37.77,43Z"/><path d="M67.31,44.88l-.69-.37h-.28c-.46.11-.69.34-.69.69v.28a2.26,2.26,0,0,1,1,.33Z"/><path d="M55,21.77h1q-.28-1.3-2-1.3h-.33Q53.73,21,55,21.77Z"/><polygon points="58.02 33.25 57.37 32.93 56.72 33.94 57.37 34.31 58.02 33.25"/><path d="M49.54,27.87c0-.46-.22-.69-.65-.69l-.37.69v.37h1Z"/><path d="M60.66,32.93q-.29,0-.29.33a4.17,4.17,0,0,0-2-.61q0,.81,2.6,1.3h.69Q61.68,33.46,60.66,32.93Z"/><path d="M79.76,33.44a2.77,2.77,0,0,1,1.06-.32v-.7l-.86.3Z"/><path d="M63.67,36.91l-.37.69h1Q64.28,36.91,63.67,36.91Z"/><path class="cls-2" d="M47.81,33.25h-.46l.46.31Z"/><path d="M53.79,38.21l-.33-.61a3.77,3.77,0,0,1-1.2.23l.46.59Z"/><rect class="cls-2" x="67.53" y="29.49" width="0.45" height="0.81"/><path class="cls-2" d="M60.29,33.39c0,.33.19.49.49.49H61V33.6a1.89,1.89,0,0,1-.24-.73A.47.47,0,0,0,60.29,33.39Z"/><path class="cls-2" d="M69.32,25.91v-.29h-.53v.73C69.14,26.36,69.32,26.21,69.32,25.91Z"/><path class="cls-2" d="M52.53,54.29v.28c.05.35.23.53.53.53v-.29A.47.47,0,0,0,52.53,54.29Z"/><path class="cls-2" d="M64.68,23.07h.49v-.29q0-.36-.77-.81h-.53Q64.32,23.07,64.68,23.07Z"/><path class="cls-2" d="M64.68,26.36h-.53l-.28,1.1Q64.32,27.46,64.68,26.36Z"/><path class="cls-2" d="M51.76,41.65h-.24c-.38,0-.57.2-.57.53v.49h.28c.35,0,.53-.16.53-.49a.22.22,0,0,1-.24-.24C51.68,41.93,51.76,41.84,51.76,41.65Z"/><path class="cls-2" d="M71.63,27.17v-.24H70.9q-.41,0-.81.77l.53.24Q71.63,27.54,71.63,27.17Z"/><path class="cls-2" d="M50.21,37.78l-.28.49h.77A.43.43,0,0,0,50.21,37.78Z"/><path class="cls-2" d="M49.68,47.58l.24-.53v-1.3l1-.24V45a4.42,4.42,0,0,0-3.29,1.75A6.07,6.07,0,0,0,49.68,47.58Z"/><path class="cls-2" d="M59.48,22.78v.53q.37,0,.81-.77v-.28H60C59.66,22.34,59.48,22.51,59.48,22.78Z"/><path class="cls-2" d="M67.24,43.68l-.29.53v.53h.29a.53.53,0,0,0,0-1.06Z"/><path class="cls-2" d="M64.4,47.87q-.16,0-1.26-1.3c-.38.05-.57.22-.57.49v.53q.61,0,1.58,1h.24l-.24-.53C64.32,48.07,64.4,48,64.4,47.87Z"/><path class="cls-2" d="M72.16,45q0,.37.77.73h.77L74,44.49h-.24A2.18,2.18,0,0,1,72.16,45Z"/><path class="cls-2" d="M59.77,48.07v.29q.08.53.53.53h.49v-1a1.69,1.69,0,0,1-.77-.29Z"/><path class="cls-2" d="M76,44.74l-.24.49a.54.54,0,0,0,.37.5v-1Z"/><path class="cls-2" d="M55.62,49.41l-.53.73v.28l.24.49a1.4,1.4,0,0,0,1.1-1Z"/><path class="cls-2" d="M55.09,26.93h-.77v.77Q54.72,27.7,55.09,26.93Z"/><path class="cls-2" d="M55.09,35.71H54.6q-.57,0-.81,1.26h.81l.73-.53A1.88,1.88,0,0,1,55.09,35.71Z"/><path class="cls-2" d="M57.94,54.57v.53h-.77l-1-.81v.28a3.69,3.69,0,0,0,2,1,.25.25,0,0,1,.29-.28,1.69,1.69,0,0,1-.29-.73Z"/><path class="cls-2" d="M60.54,26.93H59v.24q.16,0,1.54.29Z"/><path class="cls-2" d="M57.16,26.65q0,.37.77.81h.24a.47.47,0,0,0,.53-.53l-.53-.28Z"/><path d="M43.3,33.64l.2-.53v-.24h-.73v.24C42.8,33.46,43,33.64,43.3,33.64Z"/><path d="M77.85,54v.28a1.9,1.9,0,0,1,1,.53h.28q.45,0,.45-.53L78.34,54Z"/><path d="M76.15,45.73l.16,0c.33,0,.49-.18.49-.53h-.49V45H77v-.28h-.89Z"/><path d="M73.46,27.7h.73l1.3-.24v-.53q0-.24-1.79-1.58c0,.19-.08.28-.24.28l.24.53v1Z"/><path d="M80.17,27.95h.24a1.87,1.87,0,0,1,.77-.24v-.53h-.24Q80.58,27.17,80.17,27.95Z"/><path class="cls-2" d="M14.46,18.35q0,.28.57.61l.2-.41-.41-.2Z"/><path class="cls-2" d="M10.72,19l.41-.61-1.75-.16A1.3,1.3,0,0,0,10.72,19Z"/><path class="cls-1" d="M-.38,3.54l.6-.12-.46-.59H-.38Z"/><path class="cls-2" d="M14,16v.33a.66.66,0,0,0,.69.61h.93q.69,0,.69-.61l-1.38-.69A2.07,2.07,0,0,1,14,16Z"/><rect x="4.03" y="12.73" width="1.3" height="0.61"/><path d="M14.81,9.88l-.69-.37h-.28c-.46.11-.69.34-.69.69v.28a2.26,2.26,0,0,1,1,.33Z"/><path d="M11.17,1.91l-.37.69h1Q11.78,1.91,11.17,1.91Z"/><path d="M1.29,3.21,1,2.6a3.77,3.77,0,0,1-1.2.23l.46.59Z"/><path class="cls-2" d="M0,19.29v.28c.05.35.23.53.53.53v-.29A.47.47,0,0,0,0,19.29Z"/><path class="cls-2" d="M14.74,8.68l-.29.53v.53h.29a.47.47,0,0,0,.53-.53A.47.47,0,0,0,14.74,8.68Z"/><path class="cls-2" d="M11.9,12.87q-.16,0-1.26-1.3c-.38.05-.57.22-.57.49v.53q.61,0,1.58,1h.24l-.24-.53C11.82,13.07,11.9,13,11.9,12.87Z"/><path class="cls-2" d="M19.66,10q0,.37.77.73h.77l.24-1.26h-.24A2.18,2.18,0,0,1,19.66,10Z"/><path class="cls-2" d="M7.27,13.07v.29q.08.53.53.53h.49v-1a1.69,1.69,0,0,1-.77-.29Z"/><path class="cls-2" d="M23.53,9.74l-.24.49a.54.54,0,0,0,.37.5v-1Z"/><path class="cls-2" d="M3.12,14.41l-.53.73v.28l.24.49a1.4,1.4,0,0,0,1.1-1Z"/><path class="cls-2" d="M2.59.71H2.1Q1.53.71,1.29,2H2.1l.73-.53A1.88,1.88,0,0,1,2.59.71Z"/><path class="cls-2" d="M5.44,19.57v.53H4.66l-1-.81v.28a3.69,3.69,0,0,0,2,1A.25.25,0,0,1,6,20.31a1.69,1.69,0,0,1-.29-.73Z"/><path d="M25.35,19v.28a1.9,1.9,0,0,1,1,.53h.28q.45,0,.45-.53L25.84,19Z"/><path d="M23.65,10.73l.16,0c.33,0,.49-.18.49-.53h-.49V10h.73V9.74h-.89Z"/></pattern></defs><title>header-img2</title><g id="Layer_2" data-name="Layer 2"><g id="Layer_1-2" data-name="Layer 1"><path class="cls-1" d="M512.59,237.53c.49,0,1,.06,1.51.06s1,0,1.51-.06Z"/><path class="cls-1" d="M636.72,237.53c.49,0,1,.06,1.51.06s1,0,1.51-.06Z"/><path class="cls-1" d="M574.66,237.53c.49,0,1,.06,1.51.06s1,0,1.51-.06Z"/><path class="cls-1" d="M761.21,237.55l.35,0h-.7Z"/><path class="cls-1" d="M698.79,237.53c.49,0,1,.06,1.51.06s1,0,1.51-.06Z"/><path class="cls-1" d="M882.66,237.53c.49,0,1,.06,1.51.06s1,0,1.51-.06Z"/><path class="cls-1" d="M820.6,237.53c.49,0,1,.06,1.51.06s1,0,1.51-.06Z"/><path class="cls-1" d="M944.73,237.53c.49,0,1,.06,1.51.06s1,0,1.51-.06Z"/></g><g id="HOME"><path class="cls-3" d="M265.42,257.53h4.14c13.47-1.4,14.17-16.3,29-16.3s15.49,14.9,29,16.3h4.14c13.47-1.4,14.17-16.3,29-16.3s15.49,14.9,29,16.3h1.93c14-1,14.53-16.36,29.52-16.36s15.5,15.33,29.52,16.36h3c14-1,14.53-16.36,29.52-16.36s15.5,15.33,29.52,16.36h3c14-1,14.53-16.36,29.52-16.36s15.5,15.33,29.52,16.36h3c14-1,14.53-16.36,29.52-16.36s15.5,15.33,29.52,16.36h3c14-1,14.53-16.36,29.52-16.36s15.5,15.33,29.52,16.36h3c14-1,14.53-16.36,29.52-16.36s15.5,15.33,29.52,16.36h.7c14-1,14.53-16.36,29.52-16.36s15.5,15.33,29.52,16.36h3c14-1,14.53-16.36,29.52-16.36s15.5,15.33,29.52,16.36h3c14-1,14.53-16.36,29.52-16.36s15.5,15.33,29.52,16.36h3c14-1,14.53-16.36,29.52-16.36a16.55,16.55,0,0,1,8.94,2.41A28.17,28.17,0,0,0,991.58,226c-.76-17.07-13.84-31.5-31.5-31.5H887.92c-4.7-11.58-15.5-20-29-20h-18.1c7.94-5.81,13.37-15.05,12.91-25.19-.76-17.07-13.84-31.5-31.5-31.5H769.56c9.78-5.48,16.9-15.86,16.38-27.41-.76-17.07-13.84-31.5-31.5-31.5H715.09c9.78-5.48,16.9-15.86,16.38-27.41C730.71,14.43,717.63,0,700,0H457.64c-16.48,0-32.26,14.49-31.5,31.5A33.29,33.29,0,0,0,442.3,58.91H348.71c-16.48,0-32.26,14.49-31.5,31.5s13.84,31.5,31.5,31.5h17.12c-9.78,5.48-16.9,15.86-16.38,27.41a33.64,33.64,0,0,0,12.83,25.19H319.81c-12.58,0-24.74,8.45-29.46,20H260.89c-16.48,0-32.26,14.49-31.5,31.5a34.51,34.51,0,0,0,4.38,15.38,19.64,19.64,0,0,1,2.69-.18C251.25,241.23,252,256.13,265.42,257.53Z"/><path class="cls-4" d="M706.8,214.57a130.28,130.28,0,0,1-7.25,43c-14.77-.52-15-16.4-30.28-16.4-15.52,0-15.52,16.41-31,16.41s-15.51-16.41-31-16.41-15.51,16.41-31,16.41-15.52-16.41-31-16.41-15.52,16.41-31,16.41-15.51-16.41-31-16.41c-15.27,0-15.52,15.88-30.28,16.4a130.64,130.64,0,1,1,254-43Z"/><path class="cls-1" d="M423.52,224.06c.49,0,1,.06,1.51.06s1,0,1.51-.06Z"/><g id="header-girl-platform"><path class="cls-5" d="M436.71,385.69C431,374.94,419.89,373.06,409,371.58a140.84,140.84,0,0,1-23.74-5.36,75.9,75.9,0,0,1-11.56-7.72c-4.73-3.9-7.74-6.82-9.69-12.51a36.54,36.54,0,0,0-2.39-5.47A92.46,92.46,0,0,0,357,329.08c-.9-1.81-1.91-3.58-3-5.33a12.53,12.53,0,0,0-2-3.25c-1.36-2.11-2.76-4.2-4.12-6.28a13.16,13.16,0,0,0-6.07-5,39.89,39.89,0,0,0-12.9-6.67c-13.2-4.09-28-5.43-41.68-7.07-13.82-1.65-27.74-2-41.62-2.95-27.32-1.93-54.18-7.34-81-12.6-13.8-2.7-27.6-5.38-41.48-7.59S95.12,267.83,81,268c-19,.22-39.57,6.68-52.49,20.48-7.46,5.3-13.76,12.55-13.8,22a12.16,12.16,0,0,0-.75,4.58c.41,20.25,15,35.25,31.41,45.2C53.23,365,61.62,369,69,374.35c6.87,5,11.5,12,16.68,18.55,6.3,8,13.68,14,23.28,17.68,9.36,3.59,19.9,4.62,29.83,5.31a161.1,161.1,0,0,0,32.26-1.11c10.8-1.42,21.14-4.21,31.72-6.67,20.33-4.72,39.79,1,59.06,7.52,19.78,6.71,39.11,14.83,59.29,20.31,18.62,5.05,38.34,7.89,57.61,5.68,18.44-2.12,40-8.35,52.66-22.92C439.23,409.68,442.57,396.71,436.71,385.69Z"/><path class="cls-6" d="M82.48,254H80.87a99,99,0,0,0-37,7.51l5.44,12.9,1.82-.74h0l.06,0h0l.95-.36h0l.05,0h0l.41-.15h0l.05,0h0l.05,0h0l.05,0h0l.24-.09h0l0,0h0l0,0h0l0,0h0l0,0h0l.05,0h0l.18-.06h0l.05,0h0l0,0h.08l0,0h.07l0,0h0l.06,0h0l.06,0h0l0,0h.31l0,0h0l.06,0h0l0,0H55l.05,0h.45l.08,0H56l.13,0h.34l.21-.06h.28l.26-.08h.23l.27-.08h.22l.38-.11h.11A87.62,87.62,0,0,1,79.64,268h2.84V254Zm-63.8,24.37C5.22,288.58,1.43,299.82.84,308.13A26.55,26.55,0,0,0,0,315.36c0,1.79.16,3.58.36,5.35l13.91-1.61c0-.24-.05-.47-.08-.71h0v-.05h0V318h0v0h0v0h0v0h0v0h0v0h0v-.05h0v-.05h0v-.11h0v-.05h0v-.05h0v-.05h0v-.05h0v-.05h0v-.05h0v-.05h0v0h0v0h0v-.89h0V316h0v-.05h0v0h0v-.05h0v-.05h0v-.6h0v-.05h0q0-.14,0-.28a12.07,12.07,0,0,1,.75-4.3h0v0h0v0h0v0h0v0h0V310h0v0h0v0h0v0h0v0h0v0h0v0h0v0h0v0h0v0h0v0h0v0h0v0h0v0h0v0h0v0h0v0h0v0h0v0h0v0h0v0h0v0h0v0h0v0h0v0h0v-.12h0v0h0v0h0v0h0v0h0v0h0v0h0v0h0v0h0v0h0v0h0v0h0v-.13h0v0h0v0h0v0h0v0h0v0h0v0h0v0h0v0h0v0h0v0h0l0-.25h0v0h0v0h0v0h0l0-.37h0v0h0v0h0l0-.3h0c.81-5.49,3.74-10.15,7.64-14.07h0l.28-.28h0l0,0h0l0,0h0l.21-.21h0l.23-.22h.15l0,0h0l0,0h.21l0,0h0l0,0h.2l0,0h0l0,0h0l.08-.07h0l0,0h0l0,0h.16c.86-.76,1.76-1.5,2.68-2.2l-8.47-11.14Zm6.5,65-10.77,8.94a94,94,0,0,0,23.73,19.92c2.44,1.48,4.89,2.86,7,4L51.93,364l-2.11-1.19h0l-.09,0h0l-.08,0h0l-.08,0,0,0-.08,0,0,0-.06,0,0,0-.05,0,0,0,0,0-.06,0,0,0-.07,0,0,0-.07,0,0,0-.07,0h0l-.08,0h0l-.09-.05h0l-.09-.05h0l-.09-.05h0l-.09-.05h0l-.1-.06h0l-.1-.06h0l-.1-.06h0l-.1-.06h0l-1.62-1h0l-.4-.24h0l-.1-.06h0l-.09-.06h0l-.09-.06h0l-.1-.06h0l0,0h0l0,0H45l0,0h0l0,0h0l-.15-.09h0l0,0h0l0,0h0l0,0h0l0,0h0l0,0h0l0,0h0l0,0h0l-.3-.19h0l0,0h0l0,0h0l0,0h0l0,0h0l-.43-.27h0c-2.49-1.58-4.92-3.28-7.26-5.1h0l-.41-.32h0l0,0h0l0,0h0l0,0h0l0,0h0l0,0h0l-.24-.19h0l0,0h0l0,0h0l0,0h0l0,0h0l0,0h0l0,0h0l0,0h0L35,353h0l0,0h0l0,0h0l0,0h0l0,0h0l0,0h0l0,0h0l0,0h0l0,0h0l0,0h0l-.11-.09h0l0,0h0l0,0h0l0,0h0l0,0,0,0,0,0,0,0,0,0,0,0,0,0,0,0,0,0,0,0,0,0,0,0,0,0,0,0h0l0,0h0l0,0h0l0,0,0,0,0,0,0,0,0,0,0,0,0,0h0l0,0h0l0,0h0l0,0h0l-.08-.07h0l0,0h0l0,0h0l0,0h0l0,0h0l0,0h0l0,0h0l0,0h0l0,0h0l0,0h0l-.13-.11h0l0,0h0l0,0h0l0,0h0l0,0h0l0,0h0l0,0h0l0,0h0l-.25-.22h0l0,0h0l0,0h0l0,0h0l0,0h0a67.67,67.67,0,0,1-7.19-7.38Zm49.13,35.57-10,9.84a94.76,94.76,0,0,1,7.45,9c.93,1.22,1.9,2.49,2.9,3.76a72.16,72.16,0,0,0,14.05,13.81L97,404.08a52.72,52.72,0,0,1-4.2-3.45h0l0,0h0l0,0h0l0,0h0l-.29-.27h0l0,0h0l0,0h0l0,0h0l0,0h0l0,0h0l0,0h0l0,0,0,0,0,0,0,0,0,0,0,0,0,0,0,0,0,0,0,0,0,0,0,0,0,0,0,0,0,0,0,0,0,0,0,0,0,0,0,0,0,0,0,0h0l0,0h0l0,0h0l0,0h0l-.18-.17h0l0,0h0l0,0h0l0,0h0l0,0h0l0,0h0l0,0h0l0,0h0a64.45,64.45,0,0,1-5-5.55h0l0,0h0l0,0h0l0,0h0l0,0h0l0,0h0l0,0h0l0,0h0l0,0h0l0,0,0,0,0,0,0,0,0-.05h0l0,0h0l-1.65-2.13h0l0-.06v0l0,0h0L82.73,389c-1.87-2.45-3.73-4.88-5.74-7.19h0l0,0h0l0,0h0l0,0h0l0,0v0l0,0,0,0,0,0,0,0,0,0,0,0,0,0,0,0,0,0,0,0h0l-.05-.06h0l0,0h0l0,0h0l0,0h0l0,0h0l0,0h0l0,0h0l0,0h0q-1-1.13-2.07-2.21ZM121.88,414l-2.43,13.79a176.34,176.34,0,0,0,18.39,2.05c3.74.26,7.58.39,11.4.39,2.34,0,4.73,0,7.1-.15l-.58-14-1.42.05h-5.1q-5.21,0-10.42-.36c-2.78-.19-5.61-.41-8.44-.71h-.14l-.4,0h-.27l-.26,0h-.94l-.13,0h-.4l-.13,0h-.4l-.13,0h-.4l-.27,0h-.14q-2.26-.3-4.5-.69Zm94-7.61h-1.32a67.72,67.72,0,0,0-8.66,1h-.05l-.25,0h-.05l-.25,0h-.11l-.19,0h-.12l-.19,0h-.17l-.13,0h-.22l-.09,0h-1.25c-2.2.51-4.4,1-6.59,1.56-4.56,1.09-9.1,2.19-13.68,3.13l2.83,13.71c4.8-1,9.54-2.13,14.12-3.23,2.16-.52,4.32-1,6.49-1.54a53,53,0,0,1,10.36-1.34l-.47-14Zm26.7,3.33-3.43,13.57c6.22,1.57,12.44,3.61,18.23,5.57,3.73,1.26,7.66,2.65,12.75,4.5l4.78-13.16q-3.22-1.17-6.44-2.31h0l-.11,0h0l-.09,0h0l-.07,0,0,0-.05,0-.24-.09h0l-.08,0h0l-.09,0h0l-.09,0h0l-.09,0h0l-5-1.73h0l-.09,0h0l-.08,0h0l-.07,0,0,0-.06,0-.11,0h0c-6.4-2.17-12.83-4.25-19.29-5.89Zm57.72,19.67-4.58,13.23c8.21,2.84,15.13,5,21.78,6.81,4.25,1.15,8.48,2.18,12.57,3l2.89-13.7q-5.61-1.18-11.11-2.67h0l-.07,0h0l-.07,0h0l-.06,0h0l-.06,0h0l-.06,0h-.17l-.09,0h0l-.11,0h0l-.1,0h0l-.11,0h0l-.11,0h0c-6.88-1.88-13.66-4.07-20.39-6.4Zm93.15,9.67c-2.63.62-5.26,1.14-7.85,1.57h-.94c-1.95.31-3.87.57-5.77.79h-.11a119.16,119.16,0,0,1-13.62.76h-1q-2.2,0-4.41-.11l-.58,14c2,.08,4,.13,6,.13a133.77,133.77,0,0,0,15.22-.85,143.15,143.15,0,0,0,16.27-2.81l-3.2-13.63Zm45.66-35.57a31.85,31.85,0,0,1-2,6.21h0v0h0v0h0v0h0v0h0v0h0v0h0v0h0v0h0v0h0v0h0v0h0v0h0v0h0v0h0v0h0v0h0v0h0l-.08.18h0v0h0v0h0v0h0v0h0v0h0v0h0v0h0v0h0v0h0v0h0v0h0v0h0v0h0v0h0v0h0v0h0v0h0v0h0v0h0v0h0v0h0v0h0v0h0l-.19.37h0l-.06.12h0l0,0h0l0,0h0l0,0h0l0,0h0a35.48,35.48,0,0,1-4.2,6.33h0l0,0h0l0,0h0l0,0h0l0,0h0l0,0h0l0,0h0l0,0h0l0,0h0l0,0h0l0,0h0l0,0h0l0,0h0l0,0h0l0,0h0l0,0h0l0,0h0l0,0h0v0h0l0,0h0l0,0h0l0,0h0l0,0h0l0,0v0l0,0,0,0,0,0,0,0,0,0,0,0,0,0,0,0,0,0,0,0,0,0,0,0,0,0,0,0,0,0,0,0,0,0,0,0,0,0,0,0v0l-.09.1h0l0,0h0l0,0h0l0,0h0l0,0h0l-.14.15h0l0,0h0l0,0h0l0,0h0l-.19.2h0l0,0h0l0,0h0l-.23.24h0l0,0h0a51.84,51.84,0,0,1-7.24,6.24h0l-.27.2h0l0,0h0l0,0h0l0,0h0l-.18.13h0l0,0h0l0,0h0l0,0h0l0,0h0l-.12.08h0l0,0h0l0,0,0,0,0,0,0,0,0,0,0,0,0,0,0,0,0,0,0,0h0l0,0,0,0,0,0h0l0,0h0l0,0h0l-.11.07h0l0,0h0l0,0h0l0,0h0l0,0h0l-.16.11h0l-.05,0h0l-.05,0h0c-.66.43-1.34.86-2,1.27l7.21,12A67.34,67.34,0,0,0,442,427.88a47.92,47.92,0,0,0,10.8-21.49l-13.7-2.86ZM401.9,356.15,399,369.85q1.91.4,3.83.75h0l.09,0h0l.27,0h.2l.18,0h.77l.15,0h.24l.3.05h.08q1.52.25,3,.47h.24l.14,0h1.15l3,.44h2.91l.08,0h0l.09,0h0l.09,0h.19l.09,0h.28l.09,0h0l.09,0h0l.09,0h0l.18,0h0l.09,0h0l.09,0h0a37.24,37.24,0,0,1,10.57,3.67h0l.08,0h0l.08,0h0l.08,0h0l.08,0h0l.08,0h0l.07,0h0l.07,0h0l.07,0h0l.07,0h0l.07,0h0l0,0h0l0,0h0l0,0h0l0,0h0l0,0h0l0,0h0l0,0h0l0,0h0l0,0h0l0,0h0l0,0h0l0,0h0l0,0h0l0,0h0l0,0h0l0,0h0l0,0h0l0,0h0l0,0h0l0,0h0l0,0h0l0,0h0l0,0h0l0,0h0l0,0h0l0,0h0l0,0h0l0,0h0l0,0h0l0,0h0l0,0h0l0,0h0l0,0h0l0,0h0l0,0h0l0,0h0l0,0h0l0,0h0l0,0h0l0,0h0l0,0h0l0,0h0l0,0h0l0,0h.07l0,0h0l0,0h0l0,0h0l0,0h0l0,0h0l0,0h0l0,0h0l0,0h0l0,0h0l0,0h0l0,0h0l0,0h0l0,0h0l.06.05h0l9-10.76c-9.42-7.83-21.46-9.47-29.42-10.55-3-.4-6-.93-9-1.55Zm-31.5-31.59-12.69,5.9.3.66h0l0,0h0l0,0h0l0,0h0l0,0h0l.06.13h0v.21l0,0v.11h0v0h0v0h0v0h0l.06.15h0v0h0v0h0v0h0c1.16,2.69,2.15,5.46,3.1,8.24h0v.07h0A36.53,36.53,0,0,1,364,346c1.95,5.69,5,8.61,9.69,12.51l.05,0h0l.85.69,8.7-11-.7-.57c-4-3.33-4.66-4.21-5.35-6.25a49.9,49.9,0,0,0-2.74-6.47,109,109,0,0,0-4.1-10.41Zm-58.22-40L310,298.36c2.87.45,5.72,1,8.54,1.54h0l.08,0h0l.07,0h.09l.07,0h0l.4.09h0l.07,0h.49l.07,0h0l.16,0h1.64l.2,0h.6l.07,0h0l.36.09h0l.07,0h0l.06,0h.16l.06,0h0l.07,0h0l.5.13h0l.07,0h0l.06,0h0l.06,0h0l.06,0h0l.06,0h0l.06,0h0l.43.11h0l.06,0h0l.06,0h0l.06,0h0l.06,0h0l.06,0h0l.5.13h0l.06,0h0l.06,0h0l.06,0h0l.06,0h0l.06,0h0l.06,0h0l.42.12h0l.06,0h0l.05,0h0l.05,0h0l.05,0h0l.05,0h0l.05,0h0l.06,0h0l.27.08h0l.06,0H328l.17.05h.73l.07,0h0a39.89,39.89,0,0,1,12.88,6.66l8.64-11a53.79,53.79,0,0,0-17.38-9,148.1,148.1,0,0,0-20.92-4.65Zm-62-5.72-.88,14,2.62.16h.41l7.14.4c4.51.25,9,.49,13.52.81h.33l.24,0h1c2.91.21,5.81.46,8.71.75l1.42-13.93c-8.23-.84-16.45-1.29-24.41-1.72-3.3-.18-6.72-.37-10.05-.58Zm-58.73-7.94-2.57,13.76q5.16,1,10.33,1.87h0l.78.14h0c7.46,1.3,14.93,2.49,22.44,3.49l1.85-13.88c-9.55-1.27-20-3-32.83-5.39Zm-60.19-11.38-2.32,13.81c7.2,1.21,14.39,2.53,21.56,3.9h0l.12,0h0l.11,0h0l.34.07h.05l.08,0h.14l.12,0h0l.15,0h0l.11,0h0l.12,0h0l10.34,2,2.69-13.74c-10.77-2.11-22.25-4.33-33.8-6.27ZM82.48,254v14h4.1c4.45.14,8.91.49,13.35,1h.74l1.58.18,1.65-13.9A181.43,181.43,0,0,0,82.48,254Z"/></g><g id="header-girl"><path class="cls-1" d="M363.07,244.11q.73,0,1.41-.05h-1.93Z"/><path class="cls-1" d="M238.41,244.06a18.61,18.61,0,0,0,4.14,0Z"/><path class="cls-1" d="M300.48,244.06a18.61,18.61,0,0,0,4.14,0Z"/><path class="cls-7" d="M212.31,101.7l1.48,0h-1.48Z"/><path class="cls-7" d="M214.85,101.75h0Z"/><line class="cls-8" x1="127.73" y1="145.7" x2="127.73" y2="301.73"/><line class="cls-8" x1="110.73" y1="165.7" x2="110.73" y2="321.73"/><line class="cls-9" x1="108.11" y1="306.67" x2="129.41" y2="285.36"/><line class="cls-9" x1="108.11" y1="286.67" x2="129.41" y2="265.36"/><line class="cls-9" x1="108.11" y1="265.67" x2="129.41" y2="244.36"/><path class="cls-10" d="M111.08,238.71c23.87,6.47,53.06,19,64.67,45.33,3.65,8.3,3.32,12.89,6.67,21.33,6.25,15.79,21.49,35.42,61.52,51.2a29.9,29.9,0,0,0,9.28,2.05c5.07.29,12.25-1,15-4.76,1.88-2.5,3.5-9-5.61-13-39.83-17.58-55.94-35.59-62.23-51.48-3.34-8.45-3-13-6.67-21.33-11.61-26.37-40.8-38.86-64.67-45.33Z"/><rect class="cls-11" x="203.31" y="163.68" width="11.78" height="54.96" rx="5.89" ry="5.89" transform="translate(314.61 454.2) rotate(-154.26)"/><path class="cls-12" d="M210.1,278.53l7.68,7.68c.75.75,1.48,1.51,2.18,2.31,1.06,1.2,3.48,3.48,5.9,2.55,2.11-.81,12.51-6.41,13.4-8.44,1.36-3.1-.12-5.34-1.86-5.09-1.4.2-6.42,2.25-8.32,3a1.2,1.2,0,0,1-1.3-.26L218,270.58"/><path class="cls-12" d="M209.81,278.24l7.68,7.68c.75.75,1.48,1.51,2.18,2.31,1.06,1.2,3.48,3.48,5.9,2.55,3.23-1.24,12-5.34,13.4-8.44s-.12-5.34-1.86-5.09c-1.4.2-6.42,2.25-8.32,3a1.2,1.2,0,0,1-1.3-.26l-9.73-9.73"/><path class="cls-2" d="M209.83,278.45c.05-.61.91-2.47,3.24-4.81,2-2,4-3.18,4.81-3.24-.05.61-.91,2.47-3.24,4.81C212.6,277.25,210.67,278.39,209.83,278.45Z"/><path d="M215.94,272.34a19.13,19.13,0,0,1-4.16,4.16,19.11,19.11,0,0,1,4.16-4.16m2-2.83c-1.16,0-3.38,1.37-5.51,3.5-2.6,2.6-4.07,5.33-3.29,6.11a.82.82,0,0,0,.6.21c1.16,0,3.38-1.37,5.51-3.5,2.6-2.6,4.07-5.33,3.29-6.11a.82.82,0,0,0-.6-.21Z"/><path class="cls-12" d="M206,284.69l7.68,7.68c.75.75,1.48,1.51,2.18,2.31,1.06,1.2,3.48,3.48,5.9,2.55,2.11-.81,12.51-6.41,13.4-8.44,1.36-3.1-.12-5.34-1.86-5.09-1.4.2-6.42,2.25-8.32,3a1.2,1.2,0,0,1-1.3-.26L214,276.74"/><path class="cls-12" d="M205.73,284.4l7.68,7.68c.75.75,1.48,1.51,2.18,2.31,1.06,1.2,3.48,3.48,5.9,2.55,3.23-1.24,12-5.34,13.4-8.44s-.12-5.34-1.86-5.09c-1.4.2-6.42,2.25-8.32,3a1.2,1.2,0,0,1-1.3-.26l-9.73-9.73"/><path class="cls-2" d="M205.75,284.61c.05-.61.91-2.47,3.24-4.81,2-2,4-3.18,4.81-3.24-.05.61-.91,2.47-3.24,4.81C208.52,283.41,206.59,284.54,205.75,284.61Z"/><path d="M211.86,278.5a19.13,19.13,0,0,1-4.16,4.16,19.11,19.11,0,0,1,4.16-4.16m2-2.83c-1.16,0-3.38,1.37-5.51,3.5-2.6,2.6-4.07,5.33-3.29,6.11a.82.82,0,0,0,.6.21c1.16,0,3.38-1.37,5.51-3.5,2.6-2.6,4.07-5.33,3.29-6.11a.82.82,0,0,0-.6-.21Z"/><rect x="194.59" y="253.47" width="7.07" height="31.8" transform="translate(-132.44 218.97) rotate(-45)"/><path d="M189.38,256.87l21.23,21.23-3.75,3.75-21.23-21.23,3.75-3.75m0-2.5-6.25,6.25,23.73,23.73,6.25-6.25-23.73-23.73Z"/><rect x="199.5" y="248.31" width="7.07" height="30.62" transform="translate(-126.94 220.78) rotate(-45)"/><path d="M194.71,251.55l20.4,20.4-3.75,3.75L191,255.29l3.75-3.75m0-2.5-6.25,6.25,22.9,22.9,6.25-6.25L194.71,249Z"/><path class="cls-13" d="M167.07,260.6c8.13,4.27,27.67,11.17,53.55-2.23l-16.79-50.11a20,20,0,0,0-18.25-13.8q-.58,0-1.16,0A13.6,13.6,0,0,0,171.6,205.6l-7.95,48.07A6.6,6.6,0,0,0,167.07,260.6Z"/><path class="cls-14" d="M204.21,190.48c4.58-3.78,8.5-10,13.68-9.38.81.09,2.55.45,3.53-.53,1.38-1.38.34-4.5-.18-6-5.39-15.64-8.08-23.46-14-26.32a17.23,17.23,0,0,0-10.78-1.77c-11.49,2.22-21,18.76-16.25,32,3.09,8.51,12.3,16.15,19.08,14.66a11.83,11.83,0,0,0,4.87-2.63"/><path class="cls-15" d="M211.7,170.4s-4.77,3.45-8.83,0"/><path class="cls-15" d="M203.73,189.62a3.68,3.68,0,0,1,5.2-5.2"/><path class="cls-16" d="M203.53,143.07c5,.41,13.55,7.06,14.06,9.2,1,4.09-22.73,6.36-27.85,19.49-3.64,9.33,7.5,17.84,1,22.15-6.7,4.43-17.07,2.42-28.76-2.59-14.68-6.29-14.39-11.79-29.88-23.54C115.23,155,101.3,162,91,149.62c-9-10.8-8.41-28.21-1.47-31.89,5.71-3,11.33,5.57,31.28,12,24.1,7.71,31,0,46.91,9.3,8.28,4.84,17.46,3.38,26.45,3.79C199,143,195.2,142.39,203.53,143.07Z"/><path class="cls-2" d="M193.31,173.79c0-.26-4.25-3.8-6.29-3.22a1.88,1.88,0,0,0-.95.59c-1.07,1.28-.16,4,2.19,5.5,2.15,1.37,5.09.91,5.16.38C193.83,174,193,175.55,193.31,173.79Z"/><path class="cls-11" d="M188.48,173.41a8.66,8.66,0,0,1,2.4,1.4"/><path class="cls-11" d="M177.35,148.77c-.41-1.14,11.45-6.2,22.33-4.26,2.37.42,7.15,1.62,7.1,3,0,.77-1.62,1.49-3,1.67-2.64.32-3.55-1.39-6.6-2-3.83-.81-5.37,1.24-12.69,1.85C183.38,149,177.62,149.52,177.35,148.77Z"/><path class="cls-11" d="M103.75,151.77c-.7.93-7.47-2.12-10.84-8.16-2.92-5.22-2.26-10.83-2-10.84s-.23,4.19,2.43,7.92c2.82,4,6.82,4.06,9.69,9.14C103.54,150.65,104,151.46,103.75,151.77Z"/><rect class="cls-11" x="172.31" y="160.68" width="11.78" height="54.96" rx="5.89" ry="5.89" transform="translate(408.48 307.01) rotate(160.74)"/><path d="M205.94,223c-.56,0-1.47-.86-2-2.24a4.44,4.44,0,0,1-.24-2.2c.09-.45.27-.76.48-.84l.13,0c.56,0,1.47.86,2,2.24.55,1.58.21,2.87-.25,3Z"/><path d="M204.72,218.47h0m-.11.35a4,4,0,0,1,1.09,3.12,4,4,0,0,1-1.09-3.12m-.24-2a1.28,1.28,0,0,0-.42.07c-1.11.39-1.46,2.25-.79,4.16.59,1.68,1.76,2.83,2.79,2.83a1.28,1.28,0,0,0,.42-.07c1.11-.39,1.46-2.25.79-4.16-.59-1.68-1.76-2.83-2.79-2.83Z"/><path d="M209.94,235c-.56,0-1.47-.86-2-2.24a4.44,4.44,0,0,1-.24-2.2c.09-.45.27-.76.48-.84l.13,0c.56,0,1.47.86,2,2.24.55,1.58.21,2.87-.25,3Z"/><path d="M208.72,230.47h0m-.11.35a4,4,0,0,1,1.09,3.12,4,4,0,0,1-1.09-3.12m-.24-2a1.28,1.28,0,0,0-.42.07c-1.11.39-1.46,2.25-.79,4.16.59,1.68,1.76,2.83,2.79,2.83a1.28,1.28,0,0,0,.42-.07c1.11-.39,1.46-2.25.79-4.16-.59-1.68-1.76-2.83-2.79-2.83Z"/><path d="M213.75,247.09c-.48,0-1.4-.86-1.79-2.4a4.43,4.43,0,0,1,0-2.21c.12-.44.33-.74.56-.8h0c.59,0,1.48.83,1.88,2.39a4.43,4.43,0,0,1,0,2.21c-.12.44-.33.74-.56.79Z"/><path d="M212.88,242.43h0m-.14.34a4,4,0,0,1,.82,3.2,4,4,0,0,1-.82-3.2m-.19-2a1.26,1.26,0,0,0-.31,0c-1.13.29-1.65,2.12-1.15,4.08.46,1.78,1.59,3.07,2.65,3.07a1.26,1.26,0,0,0,.31,0c1.13-.29,1.65-2.12,1.15-4.08-.46-1.78-1.59-3.07-2.65-3.07Z"/><path class="cls-16" d="M193.9,244.51a23.53,23.53,0,0,1-15.5,2.59l1.54,9.21,9,2.76,6.5-5.14Z"/></g><path class="cls-2" d="M124.87,316.76q0-.57-1.15-1.25v1.25a3.69,3.69,0,0,1,1.15.29Z"/><path class="cls-2" d="M116.59,312.36v.19h.48a1.53,1.53,0,0,1,.24-.67h-.24Q116.59,312,116.59,312.36Z"/><path class="cls-2" d="M368.71,309q0,.33.67.72l.24-.48-.48-.24Z"/><path class="cls-2" d="M451.81,432.25h1.53v-.44l-.54-.37h-1Z"/><path class="cls-2" d="M456.83,437.28c0-.38-.51-.77-1.53-1.15Q453,437,453,437.66a2.48,2.48,0,0,1,1.2.43A23.45,23.45,0,0,1,456.83,437.28Z"/><path class="cls-1" d="M458.41,437.66l.71-.14-.54-.69-.17,0Z"/><path class="cls-1" d="M139.15,345.29a3.27,3.27,0,0,1,1.2-.38.68.68,0,0,0-.77-.77c-.54.06-.81.32-.81.77A.34.34,0,0,1,139.15,345.29Z"/><path class="cls-2" d="M134.1,369.13a2.44,2.44,0,0,1,1.1-.43q0-.86-3.45-1.53v.43A2.55,2.55,0,0,0,134.1,369.13Z"/><path class="cls-1" d="M115.41,342.59v.72h.72q0-1.15.81-1.15v-.38h-1.15Z"/><path class="cls-2" d="M368.14,306.18v.38a.77.77,0,0,0,.81.72h1.1q.81,0,.81-.72l-1.63-.81A2.44,2.44,0,0,1,368.14,306.18Z"/><path class="cls-2" d="M244.43,370.06a.72.72,0,0,0,.81-.81v-.43l-1.91-.38a10.94,10.94,0,0,1-1.63.38v.43c.1.54.37.81.81.81Z"/><path class="cls-2" d="M121.72,344.91c.1.51.37.77.81.77l1.91-.38a2.94,2.94,0,0,0,1.15.38v-.38l-.38-.81A17.5,17.5,0,0,1,121.72,344.91Z"/><path class="cls-2" d="M292.61,365.63h.77q.53,0,1.2-1.25l-.43-.72A1.88,1.88,0,0,0,292.61,365.63Z"/><path class="cls-2" d="M134.62,364.27q-.72.14-.72.77v.77l2.3.38.33-.81-1.53-1.1Z"/><path class="cls-2" d="M119.57,351.21l-.81-.43h-.33c-.54.13-.81.4-.81.81v.33a2.66,2.66,0,0,1,1.15.38Z"/><path class="cls-2" d="M452.37,433.1c0-.54-.26-.81-.77-.81l-.43.81v.43h1.2Z"/><path class="cls-2" d="M472,415.75l-.43.81h1.15Q472.72,415.75,472,415.75Z"/><path class="cls-2" d="M453.34,426.44h-.54l.54.37Z"/><path class="cls-2" d="M460.37,437.28l-.38-.72a4.44,4.44,0,0,1-1.41.27l.54.69Z"/><rect class="cls-2" x="131.49" y="340.12" width="0.53" height="0.96"/><path class="cls-2" d="M424.14,275.29a2.52,2.52,0,0,1-1-.29h-.29v.29a2.24,2.24,0,0,1,1.25.62Z"/><path class="cls-2" d="M418,279.26v-.62h-.57c-.42.1-.62.3-.62.62v.57h.62A.51.51,0,0,0,418,279.26Z"/><path class="cls-2" d="M422.28,275.62v-1q-3,.67-3,2.78Q422.23,276.2,422.28,275.62Z"/><path class="cls-2" d="M485,411.55h-.62l-.33,1.29Q484.54,412.84,485,411.55Z"/><path class="cls-2" d="M139.91,345.08h-.29c-.45,0-.67.24-.67.62v.57h.33c.41,0,.62-.19.62-.57a.25.25,0,0,1-.29-.29C139.82,345.41,139.91,345.3,139.91,345.08Z"/><rect class="cls-2" x="384.81" y="461.68" width="0.86" height="0.62"/><path class="cls-2" d="M456.16,446.77l-.33.57h.91A.51.51,0,0,0,456.16,446.77Z"/><path class="cls-2" d="M397.63,282.61v.57q0,.43,1,1h1.2v-1.2a2.19,2.19,0,0,0-1.2-.33Z"/><rect class="cls-2" x="410.74" y="284.67" width="1.2" height="0.67"/><path class="cls-2" d="M295.8,380.09l.29-.62v-1.53l1.2-.29v-.57a5.2,5.2,0,0,0-3.88,2.06A7.14,7.14,0,0,0,295.8,380.09Z"/><path class="cls-2" d="M406.15,288.36l-.57,1q.57,0,.57.29a2.54,2.54,0,0,1,1-.29Q407.1,288.84,406.15,288.36Z"/><path class="cls-2" d="M228.77,309.66l-.62.86v.33l.29.57a1.65,1.65,0,0,0,1.29-1.2Z"/><path class="cls-2" d="M473.68,412.22h-.91v.91Q473.25,413.13,473.68,412.22Z"/><path class="cls-2" d="M473.68,422.56h-.57q-.67,0-1,1.48h1l.86-.62A2.21,2.21,0,0,1,473.68,422.56Z"/><path class="cls-2" d="M418.64,271.65h-1.53v.29l.62.91q1.53-.38,1.53-.91Z"/><path class="cls-2" d="M480.09,412.22h-1.82v.29q.19,0,1.82.34Z"/><path class="cls-2" d="M476.12,411.88q0,.43.91,1h.29a.55.55,0,0,0,.62-.62l-.62-.33Z"/><path class="cls-2" d="M133.49,312.1l.24-.62v-.29h-.86v.29C132.9,311.89,133.11,312.1,133.49,312.1Z"/><path class="cls-2" d="M114.25,309.75v.33a2.24,2.24,0,0,1,1.2.62h.33q.53,0,.53-.62l-1.48-.33Z"/><path class="cls-2" d="M122.15,310.08h-.67q0,.43,1,1l.34-.62Z"/><rect class="cls-2" x="534.68" y="412.89" width="1.53" height="0.72"/><path class="cls-2" d="M532.31,441.49h.29l.34-.62v-.33h-.34A2.25,2.25,0,0,1,532.31,441.49Z"/><g id="header-guy-platform"><path class="cls-17" d="M906.26,435c42.07-1.82,78,37.12,116.18,23.93,30-10.36,77.08-54.93,36.55-86.88-31.36-24.72-40.77.13-124-19.31-49.59-11.58-87.26,8.61-137.06,11.93-34,2.26-79.65-.94-75.71,40.32,4.77,50,88.92,72.49,116.61,57.92C863.68,449.8,884.68,435.9,906.26,435Z"/><path class="cls-18" d="M875.78,342.71c-4.35.65-9.06,1.46-14.4,2.49l1.64,8.55c4.68-.9,9.35-1.73,14-2.43l-1.28-8.62Zm-26.95,5-2.29.47c-3.79.79-7.71,1.6-11.6,2.37l1.69,8.54q3.72-.74,7.4-1.5h0l.1,0,.14,0h0l4-.82.46-.09,1.83-.38-1.77-8.53Zm-26.12,5.11c-4.87.83-9.34,1.49-13.68,2l1,8.65.41,0h4q4.1-.57,8.12-1.24h.5l.1,0h0l1-.16-1.46-8.59ZM796.9,356c-3.64.24-7.38.41-11.34.59l-2.74.13.41,8.7,1,0h.2l6.94-.33h.23c2-.1,3.93-.21,5.85-.33L796.9,356Zm-27,1.48c-5.69.43-10.58,1-14.92,1.72l1.43,8.59c4.55-.76,9.32-1.26,14.16-1.62l-.66-8.69Zm-28.6,5A46.86,46.86,0,0,0,726,370.72l5.58,6.68a38.66,38.66,0,0,1,12.43-6.65h0l.07,0-2.8-8.25Zm-25.19,21.77a43.1,43.1,0,0,0-2.84,17.5l8.71-.25a41.9,41.9,0,0,1,.21-5.8h0c0-.3.07-.6.11-.9h0c0-.28.08-.55.12-.83h0a29.77,29.77,0,0,1,1.66-6.17h0l0,0h0l0-.11h0l0,0h0l0,0h0v0l-8.07-3.27ZM724,414l-8.34,2.53a59.06,59.06,0,0,0,7.09,15.08l7.3-4.76a51.32,51.32,0,0,1-4.93-9.59h0l0-.05h0l0,0h0l0,0h0l0,0h0l0,0h0l0,0h0l0,0h0l0,0h0l0,0h0l0,0h0l0,0h0l0,0h0l0,0h0l0,0h0l0,0h0l0,0h0l0,0h0v0h0l0,0h0l0,0h0l0,0h0v0h0v0h0v0h0v0h0v0h0v0h0v0h0v0h0v-.09h0v-.09h0V414Zm14,22.66-6.2,6.12a90.47,90.47,0,0,0,12.05,10.16l5-7.11A81.56,81.56,0,0,1,738,436.64Zm21.67,15.81-4.12,7.67a130.3,130.3,0,0,0,13.86,6.4l3.19-8.11q-2.07-.82-4.12-1.7h0l0,0h0l0,0h0l0,0h0l0,0h0l0,0h0l0,0h0l0,0h0l0,0h0l0,0h0l0,0h0l0,0h-.19l0,0h0l0,0h0q-1.9-.84-3.78-1.75h0l0,0h0l0,0h0l-.05,0h0l0,0h0l0,0h0l0,0h0l0,0h-.12l0,0h0l0,0h0l0,0h0l0,0h0l0,0h0l0,0h0l0,0h0l0,0h0l0,0h0l0,0h0l0,0h0l-.15-.07h0q-1.49-.75-3-1.53Zm24.93,10-2.4,8.37A138.93,138.93,0,0,0,797,474.24l1.46-8.59q-3-.51-6.06-1.19h0l-.21,0h-.69l-.11,0h-.11q-3.34-.77-6.71-1.73Zm40.7,4.23a71,71,0,0,1-7.29.51H815.5q-1.75,0-3.55-.1h-.18l-.69,0-.48,8.7c1.91.11,3.81.16,5.65.16a82.24,82.24,0,0,0,10.15-.6l-1.08-8.64Zm24.78-9.92q-3.32,1.81-6.72,3.65h0l-.07,0,0,0-.05,0,0,0-.05,0,0,0,0,0,0,0,0,0-3.38,1.8h0l-.16.08,0,0-.05,0,0,0,0,0,0,0,0,0-.06,0h0l-.07,0h0l-.07,0h0l-.08,0h0l0,0h-.24l-.06,0h0l-1,.46,3.63,7.92c.59-.27,1.16-.55,1.72-.84,4.05-2.13,8-4.29,11.41-6.15l-4.18-7.64Zm23.84-12.51q-2.43,1.15-4.89,2.38h0l-.05,0h-.13l0,0h0l0,0h0l0,0h0q-2,1-4.12,2.12h0l0,0h0l0,0h0l0,0h0l0,0-3.13,1.66,4.11,7.68c4.85-2.6,8.77-4.58,12.31-6.26l-3.71-7.88Zm25.42-8.6a72.15,72.15,0,0,0-9.17,2.17h0l-.05,0h0l-.1,0h0l0,0h0l-.1,0h-.11l0,0h-1.27l-.05,0h0l-.06,0h0l-.06,0h0l-.09,0h0q-1.25.41-2.51.87l3,8.19a69,69,0,0,1,12.21-3.29l-1.42-8.59ZM912,435l-.36,8.7a71.78,71.78,0,0,1,12.59,1.7l1.87-8.51A81,81,0,0,0,912,435Zm26.3,5.32-2.76,8.26c3.75,1.25,7.82,2.78,12.82,4.82l3.28-8.07c-4.4-1.79-8.85-3.51-13.34-5Zm25,9.88-3.36,8c4.31,1.8,8.95,3.7,13.61,5.41l3-8.18c-3.82-1.4-7.66-2.95-11.51-4.55l-1.73-.72Zm25.32,9.09-2.17,8.44a81.22,81.22,0,0,0,15.72,2.55l.49-8.7a73.1,73.1,0,0,1-14-2.29Zm40.15-2.93c-2.11,1-4.17,1.83-6.16,2.52h0l0,0h0l0,0h0l0,0h0l0,0h-.13a49.37,49.37,0,0,1-6.54,1.75h-.08l-.38.07,1.59,8.56a58.37,58.37,0,0,0,8.39-2.22,75.85,75.85,0,0,0,7.19-2.92l-3.67-7.9Zm22.44-14.72c-2.45,2.12-5,4.12-7.58,6h0l-.36.26h0l0,0h0l0,0h0l0,0h0l0,0h0l0,0h0l0,0h0l0,0h0l0,0h0l0,0h0l0,0h0l0,0,0,0h0l0,0,0,0h0l0,0h0l0,0,0,0h0l0,0h0l0,0h0l0,0h0q-1.3.9-2.61,1.75l4.74,7.31a112.38,112.38,0,0,0,12.35-9.28l-5.7-6.59Zm17.36-20.41a71.44,71.44,0,0,1-8.36,11.52l6.54,5.76a80.16,80.16,0,0,0,9.37-12.93l-7.55-4.34ZM1082.9,394l-8.59,1.43h0a31.2,31.2,0,0,1,.39,6.3h0v.05h0v0h0v0h0v0h0v0h0V402h0v0h0v0h0v0h0v0h0v0h0v0h0v0h0v0h0v0h0v.07h0v0h0v0h0v0h0v0h0v0h0v0h0v0h0v0h0v0h0a36.19,36.19,0,0,1-1.15,6.89l8.42,2.23a42.1,42.1,0,0,0,1-17.78Zm-17-27.57-5.58,6.69a45.15,45.15,0,0,1,9.47,10.58l7.38-4.63a54,54,0,0,0-11.26-12.64Zm-27.73-14L1036.6,361q1.31.24,2.62.57h.05l.1,0h.05l.07,0h.67l.06,0h.06l.09,0h.06l.09,0h0a43.73,43.73,0,0,1,9.39,3.95l4.24-7.61a51.45,51.45,0,0,0-16-5.83Zm-14.3-1c-3,0-6.1.17-9.4.31l-5.05.2.32,8.7,5.1-.21c3.27-.14,6.29-.27,9.14-.3l-.11-8.71Zm-40.43.18-.61,8.69q1.91.13,3.73.23h1.18c3.31.16,6.41.24,9.33.26l.07-8.71c-4.61,0-9.09-.21-13.7-.53Zm-25.84-3.18L956.12,357l.43.07h.15l.13,0H957c4.69.79,9.08,1.42,13.22,1.92l1-8.65c-4.42-.54-9-1.21-13.68-2ZM931.39,343l-1.65,8.55q2.27.44,4.57,1h0l.24.06h0l.07,0h0l.08,0h0l.07,0h.1l.08,0h0l.07,0h.14q3.63.85,7.07,1.58h.13l1.27.27,1.79-8.52c-2.77-.58-5.63-1.22-8.5-1.89-1.85-.43-3.72-.83-5.57-1.19Zm-27.52-2.59c-4.88,0-9.79.22-15,.68l.77,8.68q2.86-.25,5.74-.41h0l.44,0h1.69l.46,0h.16q2.34-.09,4.7-.11h1.28q3.39,0,6.83.17h1.33q2.46.15,4.95.38l.83-8.67c-4.63-.44-9.4-.67-14.17-.67Z"/></g><path class="cls-2" d="M979.35,425.81h.19c.23,0,.34-.13.34-.38-.13,0-.19-.05-.19-.15a1.45,1.45,0,0,1,.57-.19v-.19h-.19A.86.86,0,0,0,979.35,425.81Z"/><path class="cls-2" d="M910.29,403l.38-.57-1.63-.15A1.22,1.22,0,0,0,910.29,403Z"/><path class="cls-2" d="M988,383.42h.91q-.26-1.21-1.82-1.21h-.3Q986.75,382.7,988,383.42Z"/><polygon class="cls-2" points="770.13 467.37 769.52 467.07 768.92 468.01 769.52 468.36 770.13 467.37"/><path class="cls-2" d="M772.6,467.07q-.27,0-.27.3a3.89,3.89,0,0,0-1.86-.57q0,.76,2.43,1.21h.64Q773.54,467.56,772.6,467.07Z"/><path class="cls-2" d="M949.51,414.3a2.58,2.58,0,0,1,1-.3v-.65l-.8.28Z"/><path class="cls-2" d="M892.89,363.37v.26c.05.33.21.49.49.49v-.27A.44.44,0,0,0,892.89,363.37Z"/><path class="cls-2" d="M847.1,423.35h.46v-.27q0-.34-.72-.76h-.49Q846.76,423.35,847.1,423.35Z"/><path class="cls-2" d="M1026.48,421.89l-1.21.23.95,1q1.71-.45,1.71-1l-1.21-.23Z"/><path class="cls-2" d="M964,441.38v.26a.87.87,0,0,0,.05.19h.44A.43.43,0,0,0,964,441.38Z"/><path class="cls-2" d="M723.39,433.46l-.27.49v.49h.27a.49.49,0,0,0,0-1Z"/><path class="cls-2" d="M943.07,397.31q-.15,0-1.17-1.21c-.35.05-.53.2-.53.46V397q.57,0,1.48.95h.23l-.23-.49C943,397.5,943.07,397.44,943.07,397.31Z"/><path class="cls-2" d="M831.89,413.91q0,.34.72.68h.72l.23-1.18h-.23A2,2,0,0,1,831.89,413.91Z"/><path class="cls-2" d="M897.93,363.64v.49h-.72l-.95-.76v.26a3.44,3.44,0,0,0,1.89.95.23.23,0,0,1,.27-.26,1.57,1.57,0,0,1-.27-.68Z"/><path class="cls-2" d="M964.45,442.14v-.26s0,0,0,0H964A.44.44,0,0,0,964.45,442.14Z"/><path class="cls-2" d="M890.24,366.79a10,10,0,0,0,2.2.42v-.42a13,13,0,0,1-2-.53Z"/><path class="cls-2" d="M826.29,421.82h-.95a.52.52,0,0,0,.53.46h.42Z"/><path class="cls-2" d="M1032.93,399.19h.23a2.43,2.43,0,0,1,.72-.15v-.33h-.23A1,1,0,0,0,1032.93,399.19Z"/><path id="cloud_1" data-name="cloud 1" class="cls-2" d="M522,182.85a22.37,22.37,0,0,0-22.32-23.77c-.56,0-1.11,0-1.66.06a17.94,17.94,0,0,0-26.87-21.36c0-.25,0-.49,0-.73a25.07,25.07,0,1,0-47.26,11.66,17.94,17.94,0,0,0-17.59,17.93,17.37,17.37,0,0,0,.13,2.11,13,13,0,0,0-20.5,9.47,13,13,0,0,0-17,12.9v0a3.32,3.32,0,0,0,3.35,3.11H516.16a3.35,3.35,0,0,0,2.89-1.64A22,22,0,0,0,522,182.85Z"/><path id="cloud2" class="cls-2" d="M721.69,130.94A22.37,22.37,0,0,1,744,107.16c.56,0,1.11,0,1.66.06a17.94,17.94,0,0,1,26.87-21.36c0-.25,0-.49,0-.73a25.07,25.07,0,1,1,47.26,11.66,17.94,17.94,0,0,1,17.59,17.93,17.37,17.37,0,0,1-.13,2.11,13,13,0,0,1,20.5,9.47,13,13,0,0,1,17,12.9v0a3.32,3.32,0,0,1-3.35,3.11H727.55a3.35,3.35,0,0,1-2.89-1.64A22,22,0,0,1,721.69,130.94Z"/><path class="cls-2" d="M517.44,424.49v-.34h-.62V425C517.24,425,517.44,424.84,517.44,424.49Z"/><path class="cls-2" d="M520.17,426v-.29h-.86q-.48,0-1,.91l.62.29Q520.17,426.41,520.17,426Z"/><g id="header-guy"><rect class="cls-19" x="761.72" y="312.09" width="62" height="72"/><rect class="cls-20" x="689.96" y="355.63" width="72" height="72"/><polygon class="cls-21" points="689.96 355.63 751.72 312.09 823.72 312.09 761.96 355.63 689.96 355.63"/><path class="cls-21" d="M726.29,350.46"/><path class="cls-21" d="M726.29,350.46"/><path class="cls-21" d="M728.29,350.46"/><rect class="cls-22" x="706.57" y="355.63" width="36.6" height="72"/><line class="cls-23" x1="743.57" y1="355.63" x2="804.01" y2="312.09"/><line class="cls-23" x1="724.57" y1="355.63" x2="785.01" y2="312.09"/><path class="cls-23" d="M781,312.09"/><path class="cls-23" d="M720.57,355.63"/><path class="cls-23" d="M759,312.09"/><path class="cls-23" d="M698.57,355.63"/><line class="cls-23" x1="706.57" y1="355.63" x2="767.01" y2="312.09"/><polygon class="cls-24" points="781.15 332.2 744.44 332.2 748.25 324.5 781.29 324.47 781.15 332.2"/><polygon class="cls-25" points="732.95 333.78 748.26 324.47 780.86 324.47 769.65 333.78 732.95 333.78"/><polygon class="cls-25" points="732.86 341.22 744.44 332.2 780.77 332.12 767.65 341.52 732.86 341.22"/><polygon class="cls-26" points="767.65 341.52 732.86 341.52 732.96 333.73 767.37 333.73 767.65 341.52"/><path d="M755.58,335.93c-7,0-14.26-1.68-14.49-5.45-.25-4.15,8.37-6.93,16.61-7.44,1-.06,1.95-.09,2.9-.09,7,0,14.26,1.68,14.49,5.45.25,4.16-8.37,6.93-16.61,7.44C757.51,335.9,756.53,335.93,755.58,335.93Z"/><path class="cls-2" d="M760.6,323.76c7.62,0,13.52,1.94,13.69,4.69.19,3.09-6.91,6-15.86,6.59-1,.06-1.93.09-2.85.09-7.62,0-13.52-1.94-13.69-4.69-.19-3.09,6.91-6,15.86-6.59,1-.06,1.93-.09,2.85-.09m0-1.61h0c-1,0-2,0-3,.09-8.85.54-17.65,3.56-17.36,8.29.28,4.58,8.41,6.2,15.29,6.2,1,0,2,0,3-.09a38.14,38.14,0,0,0,11.87-2.46c4.71-2,5.58-4.25,5.49-5.83-.28-4.58-8.41-6.2-15.29-6.2Z"/><ellipse class="cls-2" cx="758.08" cy="329.07" rx="6.6" ry="2.28" transform="translate(-18.71 46.98) rotate(-3.51)"/><ellipse class="cls-2" cx="758.08" cy="329.07" rx="1.94" ry="0.67" transform="translate(-18.71 46.98) rotate(-3.51)"/><path class="cls-14" d="M783.63,279.54a5.26,5.26,0,0,0-4.3,8.14c12.26,18.76,28.66,21.67,40.27,20.81a57.15,57.15,0,0,0,21.92-6.36,5.26,5.26,0,0,0-5.19-9.16h0a47.09,47.09,0,0,1-17.85,5c-12.62.83-22.82-4.58-30.34-16.09A5.26,5.26,0,0,0,783.63,279.54Z"/><path class="cls-27" d="M830.38,396.93v10.86c0,1.06,0,2.12.09,3.18.1,1.6,0,4.92-2.37,6-2.07.92-13.38,4.31-15.44,3.51-3.16-1.23-3.69-3.86-2.28-4.91,1.13-.85,6.13-2.95,8-3.73a1.2,1.2,0,0,0,.74-1.11V396.93"/><path class="cls-27" d="M830.38,396.53v10.86c0,1.06,0,2.12.09,3.18.1,1.6,0,4.92-2.37,6-3.16,1.4-12.28,4.74-15.44,3.51s-3.69-3.86-2.28-4.91c1.13-.85,6.13-2.95,8-3.73a1.2,1.2,0,0,0,.74-1.11V396.53"/><path d="M824.81,397.8c-3.32,0-5.24-.72-5.7-1.11.46-.39,2.38-1.11,5.7-1.11s5.24.72,5.7,1.11C830.05,397.09,828.13,397.8,824.81,397.8Z"/><path d="M824.81,396.47a18,18,0,0,1,2.94.23,19.11,19.11,0,0,1-5.88,0,18,18,0,0,1,2.94-.23m0-1.77c-3.67,0-6.65.89-6.65,2s3,2,6.65,2,6.65-.89,6.65-2-3-2-6.65-2Z"/><path class="cls-27" d="M846.07,396.93v10.86c0,1.06,0,2.12.09,3.18.1,1.6,0,4.92-2.37,6-2.07.92-13.38,4.31-15.44,3.51-3.16-1.23-3.69-3.86-2.28-4.91,1.13-.85,6.13-2.95,8-3.73a1.2,1.2,0,0,0,.74-1.11V396.93"/><path class="cls-27" d="M846.07,396.53v10.86c0,1.06,0,2.12.09,3.18.1,1.6,0,4.92-2.37,6-3.16,1.4-12.28,4.74-15.44,3.51s-3.69-3.86-2.28-4.91c1.13-.85,6.13-2.95,8-3.73a1.2,1.2,0,0,0,.74-1.11V396.53"/><path d="M840.5,397.8c-3.32,0-5.24-.72-5.7-1.11.46-.39,2.38-1.11,5.7-1.11s5.24.72,5.7,1.11C845.74,397.09,843.82,397.8,840.5,397.8Z"/><path d="M840.5,396.47a18,18,0,0,1,2.94.23,19.11,19.11,0,0,1-5.88,0,18,18,0,0,1,2.94-.23m0-1.77c-3.67,0-6.65.89-6.65,2s3,2,6.65,2,6.65-.89,6.65-2-3-2-6.65-2Z"/><rect class="cls-11" x="821.31" y="350.09" width="7.08" height="47.07"/><rect class="cls-11" x="837" y="350.09" width="7.08" height="47.07"/><path d="M824.7,361.15a.44.44,0,0,0,0-.88.44.44,0,0,0,0,.88Z"/><path d="M825.47,371.45a.44.44,0,0,0,0-.88.44.44,0,0,0,0,.88Z"/><path d="M825.77,366.68a.44.44,0,0,0,0-.88.44.44,0,0,0,0,.88Z"/><path d="M823.93,379.91a.44.44,0,0,0,0-.88.44.44,0,0,0,0,.88Z"/><path d="M826.85,383.91a.44.44,0,0,0,0-.88.44.44,0,0,0,0,.88Z"/><path d="M824.08,389.45a.44.44,0,0,0,0-.88.44.44,0,0,0,0,.88Z"/><path d="M826.39,394.68a.44.44,0,0,0,0-.88.44.44,0,0,0,0,.88Z"/><path d="M826.39,376.22a.44.44,0,0,0,0-.88.44.44,0,0,0,0,.88Z"/><path d="M838.7,365.61a.44.44,0,0,0,0-.88.44.44,0,0,0,0,.88Z"/><path d="M843.77,370.07a.44.44,0,0,0,0-.88.44.44,0,0,0,0,.88Z"/><path d="M842.54,370.22a.44.44,0,0,0,0-.88.44.44,0,0,0,0,.88Z"/><path d="M839.93,378.53a.44.44,0,0,0,0-.88.44.44,0,0,0,0,.88Z"/><path d="M841.93,362.68a.44.44,0,0,0,0-.88.44.44,0,0,0,0,.88Z"/><path d="M840.23,373.91a.44.44,0,0,0,0-.88.44.44,0,0,0,0,.88Z"/><path d="M842.85,382.84a.44.44,0,0,0,0-.88.44.44,0,0,0,0,.88Z"/><path d="M839.93,388.83a.44.44,0,0,0,0-.88.44.44,0,0,0,0,.88Z"/><path d="M841.62,392.53a.44.44,0,0,0,0-.88.44.44,0,0,0,0,.88Z"/><path d="M840.08,383.45a.44.44,0,0,0,0-.88.44.44,0,0,0,0,.88Z"/><path d="M840.39,358.07a.44.44,0,0,0,0-.88.44.44,0,0,0,0,.88Z"/><path d="M827,356.68a.44.44,0,0,0,0-.88.44.44,0,0,0,0,.88Z"/><path d="M824.08,356.53a.44.44,0,0,0,0-.88.44.44,0,0,0,0,.88Z"/><path d="M823,374.22a.44.44,0,0,0,0-.88.44.44,0,0,0,0,.88Z"/><path d="M839.31,369.76a.44.44,0,0,0,0-.88.44.44,0,0,0,0,.88Z"/><path d="M841.31,366.22a.44.44,0,0,0,0-.88.44.44,0,0,0,0,.88Z"/><path d="M842.23,387.76a.44.44,0,0,0,0-.88.44.44,0,0,0,0,.88Z"/><path d="M823.62,366.53a.44.44,0,0,0,0-.88.44.44,0,0,0,0,.88Z"/><path d="M823.93,385.45a.44.44,0,0,0,0-.88.44.44,0,0,0,0,.88Z"/><path d="M826.85,389.6a.44.44,0,0,0,0-.88.44.44,0,0,0,0,.88Z"/><path d="M823.31,393.6a.44.44,0,0,0,0-.88.44.44,0,0,0,0,.88Z"/><path d="M839.16,395a.44.44,0,0,0,0-.88.44.44,0,0,0,0,.88Z"/><path d="M841.93,396.22a.44.44,0,0,0,0-.88.44.44,0,0,0,0,.88Z"/><path d="M838.23,360.53a.44.44,0,0,0,0-.88.44.44,0,0,0,0,.88Z"/><path d="M841.77,377.45a.44.44,0,0,0,0-.88.44.44,0,0,0,0,.88Z"/><path d="M842.23,355.76a.44.44,0,0,0,0-.88.44.44,0,0,0,0,.88Z"/><path d="M826.54,363.45a.44.44,0,0,0,0-.88.44.44,0,0,0,0,.88Z"/><path d="M822.54,359a.44.44,0,0,0,0-.88.44.44,0,0,0,0,.88Z"/><path d="M826.54,380.53a.44.44,0,0,0,0-.88.44.44,0,0,0,0,.88Z"/><path d="M842.54,374.37a.44.44,0,0,0,0-.88.44.44,0,0,0,0,.88Z"/><path d="M822.7,370.22a.44.44,0,0,0,0-.88.44.44,0,0,0,0,.88Z"/><rect class="cls-13" x="834.23" y="345.17" width="13.23" height="17.84"/><rect class="cls-13" x="817.31" y="345.17" width="13.23" height="17.84"/><path class="cls-13" d="M808.7,348.24s25.23,14.15,59.68-3.69l-16.82-50.21a19.93,19.93,0,0,0-18.79-13.71h-.59a13.6,13.6,0,0,0-12.81,11.14Z"/><path class="cls-14" d="M794.11,273.23c5.63-16.34,8.45-24.51,14.58-27.51A18,18,0,0,1,820,243.88c12,2.32,22,19.6,17,33.41-3.22,8.89-12.86,16.88-19.94,15.32-7.28-1.6-12.15-13.37-19.38-12.55-.85.1-2.67.47-3.69-.55C792.48,278.07,793.56,274.81,794.11,273.23Z"/><path class="cls-28" d="M797,247.74c-.88,5.47,3.69,11.83,9.23,13.3,6.32,1.68,12.06-3.5,14.46-1.39,2.11,1.86-2.12,6.05-.31,10.25,2.24,5.19,12.86,8.48,19.07,5.54,8.27-3.92,9.31-19.18,2.15-28.82-5.76-7.75-16.25-11.08-25.23-10.25C810.7,236.9,798.3,239.76,797,247.74Z"/><path class="cls-15" d="M802.24,267.35s5,3.6,9.23,0"/><path class="cls-2" d="M822.26,273.44c-.2-.2,1.31-5.81,3.4-6.56a2,2,0,0,1,1.17-.07c1.69.44,2.57,3.3,1.47,6-1,2.47-3.78,3.87-4.16,3.46C821.93,273.92,823.59,274.74,822.26,273.44Z"/><path class="cls-15" d="M809.16,287.25a12,12,0,0,0,5.36-3.55c.24-.25.46-.51.67-.76"/><path class="cls-11" d="M826.13,270.19a9.05,9.05,0,0,0-1.19,2.65"/><path d="M815,289.23a.44.44,0,0,0,0-.88.44.44,0,0,0,0,.88Z"/><path d="M817.24,285a.44.44,0,0,0,0-.88.44.44,0,0,0,0,.88Z"/><path d="M819.16,283.85a.44.44,0,0,0,0-.88.44.44,0,0,0,0,.88Z"/><path d="M817.93,289.62a.44.44,0,0,0,0-.88.44.44,0,0,0,0,.88Z"/><path d="M819.16,287.16a.44.44,0,0,0,0-.88.44.44,0,0,0,0,.88Z"/><path d="M816.78,287.62a.44.44,0,0,0,0-.88.44.44,0,0,0,0,.88Z"/><path d="M820.93,289.46a.44.44,0,0,0,0-.88.44.44,0,0,0,0,.88Z"/><path d="M821.39,284.23a.44.44,0,0,0,0-.88.44.44,0,0,0,0,.88Z"/><path d="M821.47,286.31a.44.44,0,0,0,0-.88.44.44,0,0,0,0,.88Z"/><path d="M824.39,287.85a.44.44,0,0,0,0-.88.44.44,0,0,0,0,.88Z"/><path d="M823.54,286.31a.44.44,0,0,0,0-.88.44.44,0,0,0,0,.88Z"/><path d="M820.7,279.23a.44.44,0,0,0,0-.88.44.44,0,0,0,0,.88Z"/><path d="M823.77,275.7a.44.44,0,0,0,0-.88.44.44,0,0,0,0,.88Z"/><path d="M821.08,281.39a.44.44,0,0,0,0-.88.44.44,0,0,0,0,.88Z"/><path d="M823.08,281.85a.44.44,0,0,0,0-.88.44.44,0,0,0,0,.88Z"/><path d="M824.39,283.85a.44.44,0,0,0,0-.88.44.44,0,0,0,0,.88Z"/><path d="M824.62,281.31a.44.44,0,0,0,0-.88.44.44,0,0,0,0,.88Z"/><path d="M825.62,277.16a.44.44,0,0,0,0-.88.44.44,0,0,0,0,.88Z"/><path d="M823.16,289.85a.44.44,0,0,0,0-.88.44.44,0,0,0,0,.88Z"/><path d="M819.47,291.15a.44.44,0,0,0,0-.88.44.44,0,0,0,0,.88Z"/><path d="M817.93,282.08a.44.44,0,0,0,0-.88.44.44,0,0,0,0,.88Z"/><path d="M818.47,280.08a.44.44,0,0,0,0-.88.44.44,0,0,0,0,.88Z"/><path d="M823.16,278.54a.44.44,0,0,0,0-.88.44.44,0,0,0,0,.88Z"/><path class="cls-2" d="M841.37,255.25c-.39,0-1.85-2.42-3.27-4.75-.86-1.41-1.32-2.24-1.62-2.79a5.22,5.22,0,0,0-1-1.48,6,6,0,0,0-2.78-1.59,9.81,9.81,0,0,1-3-1.45c-1.77-1.25-3.42-3.09-3.26-3.43,0,0,.15-.12.51-.12,2.42,0,10.11,3,13.13,9.76C841.3,252.14,841.62,255,841.37,255.25Z"/><path d="M827,239.79h0c2.39,0,10,3,13,9.68a14.26,14.26,0,0,1,1.34,5.56,34.32,34.32,0,0,1-3.08-4.63c-.85-1.38-1.3-2.21-1.6-2.76a5.31,5.31,0,0,0-1.05-1.52,6.21,6.21,0,0,0-2.84-1.62,9.7,9.7,0,0,1-2.94-1.43,10.57,10.57,0,0,1-3.2-3.24,1,1,0,0,1,.37,0m0-.29c-.36,0-.58.07-.65.2-.25.52,1.72,2.49,3.3,3.62,2.64,1.88,3.86,1.15,5.74,3,.8.8.63,1,2.61,4.22,1.67,2.74,3,4.84,3.42,4.84l.06,0c.44-.24-.05-3.43-1.22-6-3.08-6.89-10.93-9.85-13.26-9.85Z"/><path d="M819.36,325.56c-.51-.44-2.2-2.2-5-5.36a1.09,1.09,0,0,1-.25-.95l1.95-9.38a1.09,1.09,0,0,1,1.4-.82,24.61,24.61,0,0,0,7.36,1c.49,0,1,0,1.52,0h0a1.13,1.13,0,0,1,.88.38,1.07,1.07,0,0,1,.26.87l-1.44,10.24a1.09,1.09,0,0,1-.53.79A38.22,38.22,0,0,1,819.36,325.56Z"/><path d="M817.14,309.88h.06a25.46,25.46,0,0,0,7.62,1.09q.77,0,1.58,0a.21.21,0,0,1,.17.08.2.2,0,0,1,0,.17l-1.44,10.24a.21.21,0,0,1-.1.15,53.61,53.61,0,0,1-5.5,3c-.67-.66-2.07-2.13-4.54-4.92a.21.21,0,0,1,0-.18l1.95-9.38a.21.21,0,0,1,.2-.17m0-1.77a2,2,0,0,0-1.93,1.58l-1.95,9.38a2,2,0,0,0,.45,1.71c1.44,1.63,4.8,5.39,5.4,5.67l.12,0c.92,0,5-2.34,6.74-3.38a2,2,0,0,0,1-1.43l1.44-10.24a2,2,0,0,0-2-2.25h-.1q-.76,0-1.48,0a23.61,23.61,0,0,1-7.09-1,2,2,0,0,0-.6-.09Z"/><path class="cls-14" d="M777.57,303.36a5.26,5.26,0,0,0-1,9.16c18.37,12.85,34.68,9.44,45.12,4.31a57.15,57.15,0,0,0,18-14.06,5.26,5.26,0,0,0-8.22-6.57h0a47.09,47.09,0,0,1-14.69,11.33c-11.4,5.47-22.89,4.25-34.15-3.63A5.26,5.26,0,0,0,777.57,303.36Z"/><rect class="cls-29" x="724.57" y="355.63" height="72" transform="translate(1449.14 783.26) rotate(180)"/><rect class="cls-30" x="713.13" y="373.46" width="32" height="59.33"/><polygon class="cls-30" points="703.46 382.3 713.13 373.46 745.13 373.46 735.46 382.3 703.46 382.3"/><polygon class="cls-30" points="703.46 441.63 713.13 432.79 745.13 432.79 735.46 441.63 703.46 441.63"/><rect class="cls-30" x="703.46" y="382.3" width="32" height="59.33"/><circle class="cls-31" cx="719.46" cy="399.8" r="7.83"/><circle class="cls-31" cx="719.46" cy="420.8" r="5.54"/><polyline class="cls-32" points="711.65 277.47 711.65 263.99 720.96 259.82 720.96 271.7"/><ellipse class="cls-33" cx="718.94" cy="273.19" rx="2.73" ry="1.48" transform="translate(17.39 588.38) rotate(-45)"/><ellipse class="cls-33" cx="730.49" cy="259.71" rx="2.73" ry="1.48" transform="translate(30.31 592.6) rotate(-45)"/><ellipse class="cls-33" cx="709.63" cy="278.65" rx="2.73" ry="1.48" transform="translate(10.81 583.4) rotate(-45)"/><polyline class="cls-32" points="740.87 280.69 740.87 267.2 750.18 263.03 750.18 274.91"/><ellipse class="cls-33" cx="748.15" cy="276.4" rx="2.73" ry="1.48" transform="translate(23.68 609.98) rotate(-45)"/><ellipse class="cls-33" cx="738.84" cy="281.86" rx="2.73" ry="1.48" transform="translate(17.1 604.99) rotate(-45)"/><line class="cls-34" x1="732.66" y1="258.79" x2="732.52" y2="246.33"/><ellipse class="cls-33" cx="756.5" cy="240.45" rx="2.73" ry="1.48" transform="translate(51.55 605.35) rotate(-45)"/><polyline class="cls-32" points="758.67 239.53 758.52 227.07 762.38 224.5"/></g></g></g></svg>