<svg xmlns="http://www.w3.org/2000/svg" xmlns:xlink="http://www.w3.org/1999/xlink" viewBox="0 0 1106.97 532.44"><defs><style>.cls-1,.cls-15,.cls-21,.cls-22,.cls-28,.cls-31{fill:none;}.cls-11,.cls-12,.cls-13,.cls-14,.cls-19,.cls-2,.cls-20,.cls-8,.cls-9{fill:#fff;}.cls-3{fill:#88aeea;}.cls-4{fill:#efe8aa;}.cls-5{fill:#80d692;}.cls-6{fill:url(#New_Pattern_2);}.cls-7{fill:#06aee5;}.cls-10,.cls-11,.cls-12,.cls-13,.cls-14,.cls-15,.cls-16,.cls-18,.cls-19,.cls-20,.cls-21,.cls-22,.cls-23,.cls-24,.cls-25,.cls-26,.cls-27,.cls-28,.cls-29,.cls-31,.cls-32,.cls-33,.cls-8,.cls-9{stroke:#000;}.cls-10,.cls-11,.cls-13,.cls-15,.cls-16,.cls-20,.cls-22,.cls-31,.cls-33,.cls-8,.cls-9{stroke-linecap:round;}.cls-10,.cls-12,.cls-13,.cls-16,.cls-18,.cls-19,.cls-20,.cls-21,.cls-22,.cls-23,.cls-24,.cls-25,.cls-26,.cls-28,.cls-29,.cls-31,.cls-33,.cls-8,.cls-9{stroke-linejoin:round;}.cls-10,.cls-8{stroke-width:5px;}.cls-9{stroke-width:5.41px;}.cls-11,.cls-14,.cls-15,.cls-27,.cls-30,.cls-32{stroke-miterlimit:10;}.cls-11,.cls-12,.cls-13,.cls-14,.cls-15,.cls-16,.cls-26,.cls-27{stroke-width:1.77px;}.cls-17{fill:#ef8269;}.cls-18,.cls-19,.cls-20,.cls-22,.cls-28,.cls-30{stroke-width:1.77px;}.cls-21{stroke-width:1.86px;}.cls-23{stroke-width:0.43px;}.cls-24{stroke-width:1.23px;}.cls-25{stroke-width:0.43px;}.cls-29{stroke-width:1.07px;}.cls-30{stroke:#fff;}.cls-31,.cls-32,.cls-33{stroke-width:1.93px;}</style><pattern id="New_Pattern_2" data-name="New Pattern 2" width="105" height="70" patternUnits="userSpaceOnUse" viewBox="0 0 105 70"><rect class="cls-1" width="105" height="70"/><path class="cls-2" d="M81.45,68.86V69h.41a1.3,1.3,0,0,1,.2-.57h-.2Q81.45,68.54,81.45,68.86Z"/><path class="cls-2" d="M99,68.94h1.3v-.38l-.46-.31H99Z"/><path d="M102,62.87c0-.46-.22-.69-.65-.69l-.37.69v.37h1Z"/><path class="cls-2" d="M100.31,68.25h-.46l.46.31Z"/><path d="M95.8,68.64l.2-.53v-.24h-.73v.24C95.3,68.46,95.48,68.64,95.8,68.64Z"/><path d="M2.53,56.77h1q-.28-1.3-2-1.3H1.23Q1.23,56,2.53,56.77Z"/><polygon points="5.52 68.25 4.87 67.93 4.22 68.94 4.87 69.31 5.52 68.25"/><path d="M8.16,67.93q-.29,0-.29.33a4.17,4.17,0,0,0-2-.61q0,.81,2.6,1.3h.69Q9.18,68.46,8.16,67.93Z"/><path d="M27.26,68.44a2.77,2.77,0,0,1,1.06-.32v-.7l-.86.3Z"/><rect class="cls-2" x="15.03" y="64.49" width="0.45" height="0.81"/><path class="cls-2" d="M7.79,68.39c0,.33.19.49.49.49h.24V68.6a1.89,1.89,0,0,1-.24-.73A.47.47,0,0,0,7.79,68.39Z"/><path class="cls-2" d="M16.82,60.91v-.29h-.53v.73C16.64,61.36,16.82,61.21,16.82,60.91Z"/><path class="cls-2" d="M12.18,58.07h.49v-.29q0-.36-.77-.81h-.53Q11.82,58.07,12.18,58.07Z"/><path class="cls-2" d="M12.18,61.36h-.53l-.28,1.1Q11.82,62.46,12.18,61.36Z"/><path class="cls-2" d="M19.13,62.17v-.24H18.4q-.41,0-.81.77l.53.24Q19.13,62.54,19.13,62.17Z"/><path class="cls-2" d="M7,57.78v.53q.37,0,.81-.77v-.28H7.51C7.16,57.34,7,57.51,7,57.78Z"/><path class="cls-2" d="M2.59,61.93H1.82v.77Q2.22,62.7,2.59,61.93Z"/><path class="cls-2" d="M8,61.93H6.49v.24q.16,0,1.54.29Z"/><path class="cls-2" d="M4.66,61.65q0,.37.77.81h.24a.47.47,0,0,0,.53-.53l-.53-.28Z"/><path d="M21,62.7h.73l1.3-.24v-.53q0-.24-1.79-1.58c0,.19-.08.28-.24.28l.24.53v1Z"/><path d="M27.67,62.95h.24a1.87,1.87,0,0,1,.77-.24v-.53h-.24Q28.08,62.17,27.67,62.95Z"/><path class="cls-2" d="M88.49,2.6q0-.49-1-1.06V2.6a3.14,3.14,0,0,1,1,.24Z"/><path class="cls-2" d="M90.42,16.32l.37-.69v-.33h-1v.33Q89.89,16.32,90.42,16.32Z"/><path class="cls-2" d="M103.28,3.21c0-.33-.43-.65-1.3-1q-2,.77-2,1.3a2.11,2.11,0,0,1,1,.37A19.92,19.92,0,0,1,103.28,3.21Z"/><path class="cls-1" d="M104.62,3.54l.6-.12-.46-.59h-.15Z"/><path class="cls-1" d="M103.61,6.83a2.78,2.78,0,0,1,1-.33.58.58,0,0,0-.65-.65c-.46.05-.69.27-.69.65A.29.29,0,0,1,103.61,6.83Z"/><path class="cls-2" d="M89.5,12.11a2.07,2.07,0,0,1,.94-.37q0-.73-2.93-1.3v.37A2.16,2.16,0,0,0,89.5,12.11Z"/><path class="cls-1" d="M83.44,4.53v.61h.61q0-1,.69-1V3.84h-1Z"/><path class="cls-2" d="M88.18,15.63v-.33H87.12v1h.37A.61.61,0,0,0,88.18,15.63Z"/><path class="cls-2" d="M88.81,6.5c.08.43.31.65.69.65l1.63-.33a2.5,2.5,0,0,0,1,.33V6.83l-.33-.69A14.86,14.86,0,0,1,88.81,6.5Z"/><path d="M99.48,10h.65q.45,0,1-1.06l-.37-.61A1.6,1.6,0,0,0,99.48,10Z"/><path d="M89.95,8q-.61.12-.61.65v.65l2,.33.28-.69L90.27,8Z"/><path d="M106.29,3.21,106,2.6a3.77,3.77,0,0,1-1.2.23l.46.59Z"/><path class="cls-2" d="M104.26,6.65H104c-.38,0-.57.2-.57.53v.49h.28c.35,0,.53-.16.53-.49a.22.22,0,0,1-.24-.24C104.18,6.93,104.26,6.84,104.26,6.65Z"/><path class="cls-2" d="M102.71,2.78l-.28.49h.77A.43.43,0,0,0,102.71,2.78Z"/><path class="cls-2" d="M102.18,12.58l.24-.53v-1.3l1-.24V10a4.42,4.42,0,0,0-3.29,1.75A6.07,6.07,0,0,0,102.18,12.58Z"/><path class="cls-2" d="M36,37.6q0-.49-1-1.06V37.6a3.14,3.14,0,0,1,1,.24Z"/><path class="cls-2" d="M29,33.86V34h.41a1.3,1.3,0,0,1,.2-.57h-.2Q29,33.54,29,33.86Z"/><path class="cls-2" d="M67,53.35q0,.28.57.61l.2-.41-.41-.2Z"/><path class="cls-2" d="M63.22,54l.41-.61-1.75-.16A1.3,1.3,0,0,0,63.22,54Z"/><path class="cls-2" d="M37.92,51.32l.37-.69v-.33h-1v.33Q37.39,51.32,37.92,51.32Z"/><path class="cls-2" d="M46.51,33.94h1.3v-.38l-.46-.31h-.84Z"/><path class="cls-2" d="M50.78,38.21c0-.33-.43-.65-1.3-1q-2,.77-2,1.3a2.11,2.11,0,0,1,1,.37A19.92,19.92,0,0,1,50.78,38.21Z"/><path class="cls-1" d="M52.12,38.54l.6-.12-.46-.59h-.15Z"/><path class="cls-1" d="M51.11,41.83a2.78,2.78,0,0,1,1-.33.58.58,0,0,0-.65-.65c-.46.05-.69.27-.69.65A.29.29,0,0,1,51.11,41.83Z"/><path class="cls-2" d="M37,47.11a2.07,2.07,0,0,1,.94-.37q0-.73-2.93-1.3v.37A2.16,2.16,0,0,0,37,47.11Z"/><path class="cls-1" d="M30.94,39.53v.61h.61q0-1,.69-1v-.33h-1Z"/><path class="cls-2" d="M66.47,51v.33a.66.66,0,0,0,.69.61h.93q.69,0,.69-.61l-1.38-.69A2.07,2.07,0,0,1,66.47,51Z"/><path class="cls-2" d="M35.68,50.63v-.33H34.62v1H35A.61.61,0,0,0,35.68,50.63Z"/><path class="cls-2" d="M36.31,41.5c.08.43.31.65.69.65l1.63-.33a2.5,2.5,0,0,0,1,.33v-.33l-.33-.69A14.86,14.86,0,0,1,36.31,41.5Z"/><rect x="56.53" y="47.73" width="1.3" height="0.61"/><path d="M47,45h.65q.45,0,1-1.06l-.37-.61A1.6,1.6,0,0,0,47,45Z"/><path d="M37.45,43q-.61.12-.61.65v.65l2,.33.28-.69L37.77,43Z"/><path d="M67.31,44.88l-.69-.37h-.28c-.46.11-.69.34-.69.69v.28a2.26,2.26,0,0,1,1,.33Z"/><path d="M55,21.77h1q-.28-1.3-2-1.3h-.33Q53.73,21,55,21.77Z"/><polygon points="58.02 33.25 57.37 32.93 56.72 33.94 57.37 34.31 58.02 33.25"/><path d="M49.54,27.87c0-.46-.22-.69-.65-.69l-.37.69v.37h1Z"/><path d="M60.66,32.93q-.29,0-.29.33a4.17,4.17,0,0,0-2-.61q0,.81,2.6,1.3h.69Q61.68,33.46,60.66,32.93Z"/><path d="M79.76,33.44a2.77,2.77,0,0,1,1.06-.32v-.7l-.86.3Z"/><path d="M63.67,36.91l-.37.69h1Q64.28,36.91,63.67,36.91Z"/><path class="cls-2" d="M47.81,33.25h-.46l.46.31Z"/><path d="M53.79,38.21l-.33-.61a3.77,3.77,0,0,1-1.2.23l.46.59Z"/><rect class="cls-2" x="67.53" y="29.49" width="0.45" height="0.81"/><path class="cls-2" d="M60.29,33.39c0,.33.19.49.49.49H61V33.6a1.89,1.89,0,0,1-.24-.73A.47.47,0,0,0,60.29,33.39Z"/><path class="cls-2" d="M69.32,25.91v-.29h-.53v.73C69.14,26.36,69.32,26.21,69.32,25.91Z"/><path class="cls-2" d="M52.53,54.29v.28c.05.35.23.53.53.53v-.29A.47.47,0,0,0,52.53,54.29Z"/><path class="cls-2" d="M64.68,23.07h.49v-.29q0-.36-.77-.81h-.53Q64.32,23.07,64.68,23.07Z"/><path class="cls-2" d="M64.68,26.36h-.53l-.28,1.1Q64.32,27.46,64.68,26.36Z"/><path class="cls-2" d="M51.76,41.65h-.24c-.38,0-.57.2-.57.53v.49h.28c.35,0,.53-.16.53-.49a.22.22,0,0,1-.24-.24C51.68,41.93,51.76,41.84,51.76,41.65Z"/><path class="cls-2" d="M71.63,27.17v-.24H70.9q-.41,0-.81.77l.53.24Q71.63,27.54,71.63,27.17Z"/><path class="cls-2" d="M50.21,37.78l-.28.49h.77A.43.43,0,0,0,50.21,37.78Z"/><path class="cls-2" d="M49.68,47.58l.24-.53v-1.3l1-.24V45a4.42,4.42,0,0,0-3.29,1.75A6.07,6.07,0,0,0,49.68,47.58Z"/><path class="cls-2" d="M59.48,22.78v.53q.37,0,.81-.77v-.28H60C59.66,22.34,59.48,22.51,59.48,22.78Z"/><path class="cls-2" d="M67.24,43.68l-.29.53v.53h.29a.53.53,0,0,0,0-1.06Z"/><path class="cls-2" d="M64.4,47.87q-.16,0-1.26-1.3c-.38.05-.57.22-.57.49v.53q.61,0,1.58,1h.24l-.24-.53C64.32,48.07,64.4,48,64.4,47.87Z"/><path class="cls-2" d="M72.16,45q0,.37.77.73h.77L74,44.49h-.24A2.18,2.18,0,0,1,72.16,45Z"/><path class="cls-2" d="M59.77,48.07v.29q.08.53.53.53h.49v-1a1.69,1.69,0,0,1-.77-.29Z"/><path class="cls-2" d="M76,44.74l-.24.49a.54.54,0,0,0,.37.5v-1Z"/><path class="cls-2" d="M55.62,49.41l-.53.73v.28l.24.49a1.4,1.4,0,0,0,1.1-1Z"/><path class="cls-2" d="M55.09,26.93h-.77v.77Q54.72,27.7,55.09,26.93Z"/><path class="cls-2" d="M55.09,35.71H54.6q-.57,0-.81,1.26h.81l.73-.53A1.88,1.88,0,0,1,55.09,35.71Z"/><path class="cls-2" d="M57.94,54.57v.53h-.77l-1-.81v.28a3.69,3.69,0,0,0,2,1,.25.25,0,0,1,.29-.28,1.69,1.69,0,0,1-.29-.73Z"/><path class="cls-2" d="M60.54,26.93H59v.24q.16,0,1.54.29Z"/><path class="cls-2" d="M57.16,26.65q0,.37.77.81h.24a.47.47,0,0,0,.53-.53l-.53-.28Z"/><path d="M43.3,33.64l.2-.53v-.24h-.73v.24C42.8,33.46,43,33.64,43.3,33.64Z"/><path d="M77.85,54v.28a1.9,1.9,0,0,1,1,.53h.28q.45,0,.45-.53L78.34,54Z"/><path d="M76.15,45.73l.16,0c.33,0,.49-.18.49-.53h-.49V45H77v-.28h-.89Z"/><path d="M73.46,27.7h.73l1.3-.24v-.53q0-.24-1.79-1.58c0,.19-.08.28-.24.28l.24.53v1Z"/><path d="M80.17,27.95h.24a1.87,1.87,0,0,1,.77-.24v-.53h-.24Q80.58,27.17,80.17,27.95Z"/><path class="cls-2" d="M14.46,18.35q0,.28.57.61l.2-.41-.41-.2Z"/><path class="cls-2" d="M10.72,19l.41-.61-1.75-.16A1.3,1.3,0,0,0,10.72,19Z"/><path class="cls-1" d="M-.38,3.54l.6-.12-.46-.59H-.38Z"/><path class="cls-2" d="M14,16v.33a.66.66,0,0,0,.69.61h.93q.69,0,.69-.61l-1.38-.69A2.07,2.07,0,0,1,14,16Z"/><rect x="4.03" y="12.73" width="1.3" height="0.61"/><path d="M14.81,9.88l-.69-.37h-.28c-.46.11-.69.34-.69.69v.28a2.26,2.26,0,0,1,1,.33Z"/><path d="M11.17,1.91l-.37.69h1Q11.78,1.91,11.17,1.91Z"/><path d="M1.29,3.21,1,2.6a3.77,3.77,0,0,1-1.2.23l.46.59Z"/><path class="cls-2" d="M0,19.29v.28c.05.35.23.53.53.53v-.29A.47.47,0,0,0,0,19.29Z"/><path class="cls-2" d="M14.74,8.68l-.29.53v.53h.29a.47.47,0,0,0,.53-.53A.47.47,0,0,0,14.74,8.68Z"/><path class="cls-2" d="M11.9,12.87q-.16,0-1.26-1.3c-.38.05-.57.22-.57.49v.53q.61,0,1.58,1h.24l-.24-.53C11.82,13.07,11.9,13,11.9,12.87Z"/><path class="cls-2" d="M19.66,10q0,.37.77.73h.77l.24-1.26h-.24A2.18,2.18,0,0,1,19.66,10Z"/><path class="cls-2" d="M7.27,13.07v.29q.08.53.53.53h.49v-1a1.69,1.69,0,0,1-.77-.29Z"/><path class="cls-2" d="M23.53,9.74l-.24.49a.54.54,0,0,0,.37.5v-1Z"/><path class="cls-2" d="M3.12,14.41l-.53.73v.28l.24.49a1.4,1.4,0,0,0,1.1-1Z"/><path class="cls-2" d="M2.59.71H2.1Q1.53.71,1.29,2H2.1l.73-.53A1.88,1.88,0,0,1,2.59.71Z"/><path class="cls-2" d="M5.44,19.57v.53H4.66l-1-.81v.28a3.69,3.69,0,0,0,2,1A.25.25,0,0,1,6,20.31a1.69,1.69,0,0,1-.29-.73Z"/><path d="M25.35,19v.28a1.9,1.9,0,0,1,1,.53h.28q.45,0,.45-.53L25.84,19Z"/><path d="M23.65,10.73l.16,0c.33,0,.49-.18.49-.53h-.49V10h.73V9.74h-.89Z"/></pattern></defs><title>header-img_1</title><g id="Layer_2" data-name="Layer 2"><g id="HOME"><g id="newsletter-text"><path class="cls-3" d="M238.41,257.53h4.14c13.47-1.4,14.17-16.3,29-16.3s15.49,14.9,29,16.3h4.14c13.47-1.4,14.17-16.3,29-16.3s15.49,14.9,29,16.3h1.93c14-1,14.53-16.36,29.52-16.36s15.5,15.33,29.52,16.36h3c14-1,14.53-16.36,29.52-16.36s15.5,15.33,29.52,16.36h3c14-1,14.53-16.36,29.52-16.36s15.5,15.33,29.52,16.36h3c14-1,14.53-16.36,29.52-16.36s15.5,15.33,29.52,16.36h3c14-1,14.53-16.36,29.52-16.36s15.5,15.33,29.52,16.36h3c14-1,14.53-16.36,29.52-16.36s15.5,15.33,29.52,16.36h.7c14-1,14.53-16.36,29.52-16.36s15.5,15.33,29.52,16.36h3c14-1,14.53-16.36,29.52-16.36s15.5,15.33,29.52,16.36h3c14-1,14.53-16.36,29.52-16.36s15.5,15.33,29.52,16.36h3c14-1,14.53-16.36,29.52-16.36a16.55,16.55,0,0,1,8.94,2.41A28.17,28.17,0,0,0,964.57,226c-.76-17.07-13.84-31.5-31.5-31.5H860.91c-4.7-11.58-15.5-20-29-20h-18.1c7.94-5.81,13.37-15.05,12.91-25.19-.76-17.07-13.84-31.5-31.5-31.5H742.55c9.78-5.48,16.9-15.86,16.38-27.41-.76-17.07-13.84-31.5-31.5-31.5H688.08c9.78-5.48,16.9-15.86,16.38-27.41C703.7,14.43,690.62,0,673,0H430.63c-16.48,0-32.26,14.49-31.5,31.5a33.29,33.29,0,0,0,16.16,27.41H321.7c-16.48,0-32.26,14.49-31.5,31.5s13.84,31.5,31.5,31.5h17.12c-9.78,5.48-16.9,15.86-16.38,27.41a33.64,33.64,0,0,0,12.83,25.19H292.8c-12.58,0-24.74,8.45-29.46,20H233.88c-16.48,0-32.26,14.49-31.5,31.5a34.51,34.51,0,0,0,4.38,15.38,19.64,19.64,0,0,1,2.69-.18C224.24,241.23,224.94,256.13,238.41,257.53Z"/><path class="cls-4" d="M679.79,214.57a130.28,130.28,0,0,1-7.25,43c-14.77-.52-15-16.4-30.28-16.4-15.52,0-15.52,16.41-31,16.41s-15.51-16.41-31-16.41-15.51,16.41-31,16.41-15.52-16.41-31-16.41-15.52,16.41-31,16.41-15.51-16.41-31-16.41c-15.27,0-15.52,15.88-30.28,16.4a130.64,130.64,0,1,1,254-43Z"/><path class="cls-1" d="M423.52,237.53c.49,0,1,.06,1.51.06s1,0,1.51-.06Z"/><g id="header-girl-platform"><path class="cls-5" d="M436.71,399.16C431,388.41,419.89,386.53,409,385a140.84,140.84,0,0,1-23.74-5.36A75.9,75.9,0,0,1,373.67,372c-4.73-3.9-7.74-6.82-9.69-12.51a36.54,36.54,0,0,0-2.39-5.47A92.46,92.46,0,0,0,357,342.55c-.9-1.81-1.91-3.58-3-5.33a12.53,12.53,0,0,0-2-3.25c-1.36-2.11-2.76-4.2-4.12-6.28a13.16,13.16,0,0,0-6.07-5,39.89,39.89,0,0,0-12.9-6.67c-13.2-4.09-28-5.43-41.68-7.07-13.82-1.65-27.74-2-41.62-2.95-27.32-1.93-54.18-7.34-81-12.6-13.8-2.7-27.6-5.38-41.48-7.59s-28-4.52-42.12-4.35c-19,.22-39.57,6.68-52.49,20.48-7.46,5.3-13.76,12.55-13.8,22a12.16,12.16,0,0,0-.75,4.58c.41,20.25,15,35.25,31.41,45.2,7.82,4.75,16.2,8.68,23.62,14.08,6.87,5,11.5,12,16.68,18.55,6.3,8,13.68,14,23.28,17.68,9.36,3.59,19.9,4.62,29.83,5.31a161.1,161.1,0,0,0,32.26-1.11c10.8-1.42,21.14-4.21,31.72-6.67,20.33-4.72,39.79,1,59.06,7.52,19.78,6.71,39.11,14.83,59.29,20.31,18.62,5.05,38.34,7.89,57.61,5.68,18.44-2.12,40-8.35,52.66-22.92C439.23,423.15,442.57,410.18,436.71,399.16Z"/><path class="cls-6" d="M82.48,267.46H80.87a99,99,0,0,0-37,7.51l5.44,12.9,1.82-.74h0l.06,0h0l.95-.36h0l.05,0h0l.41-.15h0l.05,0h0l.05,0h0l.05,0h0l.24-.09h0l0,0h0l0,0h0l0,0h0l0,0h0l.05,0h0l.18-.06h0l.05,0h0l0,0h.08l0,0h.07l0,0h0l.06,0h0l.06,0h0l0,0h.31l0,0h0l.06,0h0l0,0H55l.05,0h.45l.08,0H56l.13,0h.34l.21-.06h.28l.26-.08h.23l.27-.08h.22l.38-.11h.11a87.62,87.62,0,0,1,21.21-3.2h2.84v-14Zm-63.8,24.37C5.22,302.05,1.43,313.29.84,321.6A26.55,26.55,0,0,0,0,328.83c0,1.79.16,3.58.36,5.35l13.91-1.61q-.12-1-.19-2.07h0v-.05h0v0h0V330h0v-.06h0v-.06h0v-.06h0v-.06h0c0-.23,0-.46,0-.69h0V329h0v-.05h0v-.31h0v-.05h0q0-.14,0-.28a12.07,12.07,0,0,1,.75-4.3h0v0h0v0h0v0h0v0h0v-.07h0v0h0v0h0v0h0v0h0v0h0v0h0v0h0v0h0v0h0v0h0v0h0v0h0v0h0v0h0v0h0v0h0v0h0v0h0v0h0v0h0v0h0v0h0v0h0v0h0v-.12h0v0h0v0h0v0h0v0h0v0h0v0h0v0h0v0h0v0h0v0h0v0h0v-.13h0v0h0v0h0v0h0v0h0v0h0v0h0v0h0v0h0v0h0v0h0l0-.25h0v0h0v0h0v0h0l0-.37h0v0h0v0h0l0-.3h0c.81-5.49,3.74-10.15,7.64-14.07h0l.28-.28h0l0,0h0l0,0h0l.21-.21h0l.23-.22h.15l0,0h0l0,0h.21l0,0h0l0,0h.2l0,0h0l0,0h0l.08-.07h0l0,0h0l0,0h.16c.86-.76,1.76-1.5,2.68-2.2l-8.47-11.14Zm6.5,65-10.77,8.94a94,94,0,0,0,23.73,19.92c2.44,1.48,4.89,2.86,7,4l6.82-12.22c-1.93-1.08-3.86-2.17-5.76-3.3l0,0-.06,0,0,0-.06,0,0,0-.05,0-.06,0,0,0-.07,0,0,0-.07,0h0l-.08,0h0l-.1-.06h0l0,0h0l0,0H45l0,0h0l0,0h0l-.15-.09h0l0,0h0l0,0h0l0,0h0l0,0h0l0,0h0l0,0h0l0,0h0l-.3-.19h0l0,0h0l0,0h0l0,0h0l0,0h0l-.43-.27h0A86.93,86.93,0,0,1,31.06,363h0l0,0h0l0,0h0l-.3-.28h0l0,0h0l0,0h0l0,0h0l0,0h0l0,0h0l-.22-.21h0l0,0h0l0,0h0l0,0h0l0,0h0l0,0h0l0,0h0l0,0h0l-.18-.17h0l0,0h0l0,0h0l0,0h0l0,0h0l0,0h0l0,0h0l0,0h0l0,0h0l-.1-.1h0l0,0h0l0,0h0l0,0h0l0,0,0,0,0,0,0,0,0,0h0l0,0h0l0,0h0l0,0h0L29,361h0l0,0h0l0,0,0,0,0,0,0,0,0,0,0,0,0,0,0,0,0,0,0,0,0,0,0,0,0,0,0,0,0,0,0,0,0,0,0,0,0,0,0,0,0,0,0,0,0,0,0,0,0,0,0,0,0,0,0,0,0,0,0,0,0,0,0,0,0,0,0,0,0,0,0,0,0,0,0,0h0l0,0h0l0,0,0,0,0,0v0l0,0v0l0,0,0,0,0,0,0,0,0,0v0l0,0v0l0,0h0l0,0h0l0,0h0l-.11-.12h0l0,0h0l0,0h0l0,0h0l0,0h0l0,0h0l0,0h0l0,0h0l0,0h0l-.11-.12h0l0,0h0l0,0h0l0,0h0l0,0h0l0,0h0l0,0h0l0,0h0l-.19-.21h0l0,0h0l0,0h0l0,0h0l0,0h0l0,0h0l0,0h0l-.26-.29h0l0,0h0l0,0h0l-.37-.42h0l-.68-.8Zm49.13,35.57-10,9.84a94.76,94.76,0,0,1,7.45,9c.93,1.22,1.9,2.49,2.9,3.76a72.16,72.16,0,0,0,14.05,13.8L97,417.55h0l0,0,0,0,0,0h0l0,0h0l0,0h0l0,0h0l0,0h0l0,0h0l-.15-.11h0l0,0h0l0,0h0l0,0h0l0,0h0l0,0h0l0,0h0l0,0h0l0,0h0l-.39-.3h0a59.31,59.31,0,0,1-9.71-9.76h0l0,0h0l0,0h0l0,0h0l0,0h0l0,0h0l0,0h0l0,0h0l0,0h0l0,0,0,0,0,0,0,0,0-.05h0l0,0h0L83.91,404h0l0-.06v0l0,0h0l-1.06-1.39c-1.87-2.45-3.73-4.88-5.74-7.19h0l0,0h0l0,0h0l0,0h0l0,0v0l0,0,0,0,0,0,0,0,0,0,0,0,0,0,0,0,0,0,0,0h0l-.05-.06h0l0,0h0l0,0h0l0,0h0l0,0h0l0,0h0l0,0h0l0,0h0q-1-1.13-2.07-2.21Zm47.56,35.08-2.43,13.79a176.34,176.34,0,0,0,18.39,2.05c3.74.26,7.58.39,11.4.39,2.34,0,4.73,0,7.1-.15l-.58-14h-6.52q-5.21,0-10.42-.36c-2.78-.19-5.61-.41-8.44-.71h-.14l-.4,0h-.27l-.26,0h-.94l-.13,0h-.4l-.13,0h-.4l-.13,0h-.4l-.27,0h-.14q-2.26-.3-4.5-.69Zm94-7.61h-.4a67.82,67.82,0,0,0-10.24,1.17h0l-.25,0h-.11l-.2,0h-.16l-.14,0h-.17l-.13,0h-1.25l-.2,0h0l-.19,0h0l-.2,0h0l-.19,0h0l-.18,0h0l-.18,0h0l-.17,0h0l-.16,0h0l-.16,0h-.06l-.14,0-.07,0-.13,0-.09,0-.1,0-.11,0-.09,0-.14,0h0c-4.12,1-8.22,2-12.32,2.92h0l-.1,0h0l-.09,0h0l-.09,0h0l-.08,0h-.2l-.09,0h0q-2.21.5-4.43,1L185.35,440c4.8-1,9.54-2.13,14.12-3.23,2.16-.52,4.32-1,6.49-1.54a53,53,0,0,1,10.36-1.34l-.47-14Zm26.7,3.33-3.43,13.57c6.22,1.57,12.44,3.61,18.23,5.57,3.73,1.26,7.66,2.65,12.75,4.5l4.78-13.16q-3.54-1.28-7.08-2.54h0l-.05,0-.06,0h0l-.08,0h0l-.09,0h0q-2.59-.91-5.19-1.8h0l-.1,0h0l-.11,0h0l-.12,0h0l-.07,0h0l-.07,0h0l-.37-.13h0l-.15,0h0l-.45-.15h0l-.14,0h0l-.06,0h0l-.21-.07h0c-5.88-2-11.78-3.85-17.72-5.36Zm57.72,19.67-4.58,13.23c8.21,2.84,15.13,5,21.78,6.81,4.25,1.15,8.48,2.18,12.57,3l2.89-13.7q-2-.43-4.08-.9h0l-.08,0h0l-.07,0h0l-.07,0h-.33l-.22-.05h0l-.08,0h0l-.07,0h0l-.08,0h0l-.08,0h0l-.08,0h0q-3-.73-6-1.54h0l-.08,0h0l-.07,0h0l-.07,0h0l-.06,0-.08,0h0l-.11,0h0l-.1,0h0l-.11,0h0l-.11,0h0c-5.44-1.49-10.81-3.16-16.15-5h0l-.22-.07h0l-.1,0h0l-.1,0h0l-.07,0h0l-.07,0-.07,0h0l-.06,0h0l-.14,0h0l-.08,0h0l-3.15-1.08Zm93.15,9.67c-2.63.62-5.26,1.14-7.85,1.57h-.94c-1.95.31-3.87.57-5.77.79h-.11a119.18,119.18,0,0,1-13.62.76h-2.22l-2,0-1.24,0-.57,14c2,.08,4,.13,6,.13a133.78,133.78,0,0,0,15.22-.85,143.14,143.14,0,0,0,16.27-2.81l-3.2-13.63ZM439.08,417a31.31,31.31,0,0,1-1.24,4.34h0l0,.06h0v0h0v0h0v0h0v0h0v0h0v0h0v0h0v0h0v0h0v0h0v0h0v0h0v0h0v0h0v0h0v0h0v0h0v0h0v0l0,.06h0v0h0v0h0v0h0v0h0v0h0v0h0v0h0v0h0v0h0v0h0v0h0v0h0v0h0v0h0v0h0v0h0v0h0v0h0v0h0v0h0v0h0v0h0v0h0l-.19.45h0l-.06.13h0l0,.06h0l0,.06h0a34.6,34.6,0,0,1-2.23,4.18h0l-.45.71h0l0,.06h0l0,0h0l0,0h0l0,0h0l0,0h0l0,0h0l0,0h0l0,0h0l0,0h0l0,0h0l0,0h0l0,.06h0l0,0h0l0,0h0l-.2.29h0l0,.06h0l0,0h0l0,0h0l0,0h0l0,0h0v0h0l0,0h0l0,0h0l0,0h0v0h0v0h0v0h0v0h0v0h0v0h0l0,0h0l0,0h0l0,0h0l0,0h0l0,0h0l0,0h0l-.08.11h0l0,0h0l0,0h0v0h0v0h0v0h0v0h0v0h0v0h-.09v0h-.1v0h0v0h0v0h0v0h0l0,0h0l0,0h0l0,0,0,0h0v0h0v0h0v0h-.14v0h-.13v0h-.07v0h0v0h-.05v0h0v0h0l0,0h0v0h0v0h0v0h-.44v0h0v0h0l0,0h0l0,0h0l0,0v0l0,0,0,0,0,0,0,0,0,0,0,0,0,0,0,0,0,0v0l0,0,0,0,0,0,0,0,0,0,0,0,0,0,0,0,0,0,0,0,0,0,0,0,0,0v0l0,0,0,0,0,0,0,0,0,0,0,0,0,0,0,0,0,0,0,0,0,0,0,0,0,0,0,0,0,0,0,0,0,0,0,0,0,0,0,0,0,0,0,0,0,0-.08.09,0,0,0,0,0,0,0,0,0,0,0,0,0,0,0,0,0,0,0,0h0l-.06.06h0l0,0,0,0,0,0,0,0,0,0,0,0,0,0,0,0,0,0h0l-.06.06h0l0,0,0,0,0,0,0,0,0,0,0,0,0,0,0,0,0,0v0l-.1.1h0l0,0,0,0,0,0,0,0,0,0,0,0,0,0h0l0,0h0l-.07.07h0l0,0h0l0,0,0,0,0,0,0,0,0,0,0,0,0,0h0l-.1.1h0l0,0h0l0,0h0l0,0h0l0,0h0l-.15.14h0l0,0h0l0,0h0l0,0h0l0,0h0l-.08.07h0l0,0h0l0,0h0l0,0h0l0,0h0l0,0h0l-.11.1h0l0,0h0l0,0h0l0,0h0l0,0h0l-.12.11h0l0,0h0l0,0h0l0,0h0l0,0h0l-.15.14h0l0,0h0l0,0h0l0,0h0l0,0h0l-.12.11h0l0,0h0l0,0h0l0,0h0l0,0h0l-.16.14h0l0,0h0l0,0h0l0,0h0l0,0h0l-.12.1h0l0,0h0l0,0h0l0,0h0l0,0h0l-.12.1h0l0,0h0l0,0h0l0,0h0l0,0h0l-.16.14h0l0,0h0l0,0h0l0,0h0l-.21.17h0l0,0h0l0,0h0l-.21.17h0l0,0h0l0,0h0l0,0h0l-.17.13h0l0,0h0l0,0h0l0,0h0l-.22.17h0l0,0h0l0,0h0l-.22.17h0l0,0h0l0,0h0l0,0h0l-.22.17h0l0,0h0l0,0h0l-.22.17h0l0,0h0l0,0h0l-.27.2h0l0,0h0l-.27.2h0l0,0h0l0,0h0l-.23.16h0l0,0h0l0,0h0l-.28.19h0l0,0h0l-.28.19h0l0,0h0l0,0h0l-.28.19h0l0,0h0l-.28.19h0l0,0h0l0,0h0l-.23.15h0l0,0h0l0,0h0l0,0h0l-.19.12h0l0,0h0l0,0h0l0,0h0l-.24.15h0l0,0h0l0,0h0l-.24.15h0l0,0h0l0,0h0l-.24.15h0l0,0h0l0,0h0l0,0h0l-.19.12h0l0,0h0l0,0h0l0,0h0l-.2.12,7.21,12A67.35,67.35,0,0,0,442,441.35a47.92,47.92,0,0,0,10.8-21.49L439.08,417ZM401.9,369.62,399,383.32q1.91.4,3.83.75h0l.09,0h0l.27,0h.2l.18,0h.77l.15,0h.24l.3.05h.08q1.52.25,3,.47h.24l.14,0h1.33l1.28.18h0l.19,0h0l.19,0h0l.66.1h.23l.15,0h1.58l.19,0h0c5.78,1,11.35,2.48,15.86,5.79h0l0,0h0l0,0h0l0,0h0l0,0h0l0,0h0l0,0h0l0,0h0l0,0h0l0,0h0l0,0h0l0,0h0l0,0h0l0,0h0l0,0h0l0,0h0l0,0h0l0,0h0l0,0h0l0,0h0l0,0h0l0,0h0l0,0,0,0h0l0,0h0l0,0h0l0,0h0l0,0h0l0,0h0l9-10.76c-9.42-7.83-21.46-9.47-29.42-10.55-3-.4-6-.93-9-1.55ZM370.39,338l-12.69,5.9.3.66h0l0,0h0l0,0h0l0,0h0l0,0h0l.06.13h0v.21l0,0v.11h0v0h0v0h0v0h0l.06.15h0v0h0v0h0v0h0c1.16,2.69,2.15,5.46,3.1,8.24h0V354h0a36.54,36.54,0,0,1,2.39,5.47c1.95,5.69,5,8.61,9.69,12.51l.05,0h0l.85.69,8.7-11-.7-.57c-4-3.33-4.66-4.21-5.35-6.25a49.92,49.92,0,0,0-2.74-6.47,109,109,0,0,0-4.1-10.41Zm-58.22-40L310,311.83q3.27.51,6.51,1.13h.65l.16,0h.75l.22,0h.53l.07,0h0l.44.09h0l.07,0h.3l.66.15h0l.15,0h0q2.22.5,4.4,1.07h0l.8.21h0l.07,0h0l.07,0h0l.07,0h0l.07,0h0l.07,0h0l.5.14h0l.06,0h0l.06,0h0l.06,0h0l.06,0h0l.06,0h0l.06,0h0l.35.1h0l.05,0H328l.18.05h.73l.07,0h0q1.72.53,3.36,1.19h0l.16.07h0l.05,0h0l.05,0h0l0,0h0l0,0h0l0,0h0l0,0h0l0,0h0l0,0h0l0,0h0l0,0h0l0,0h0l0,0h0l0,0h0l0,0h0l0,0h0l0,0h0l0,0h0l0,0h0l0,0h.88l0,0h0l0,0h0l0,0h0l0,0h0l0,0h0l0,0h0l0,0h0l0,0h0l0,0h0l0,0h0l0,0h0l0,0h0l0,0h0l0,0h0l0,0h0l0,0h0l0,0h0l0,0h0l0,0h0l0,0h0l0,0h0l0,0h0l0,0h0l0,0h0l0,0h0l0,0h0l0,0h0l0,0h0l0,0h0l0,0h0l.15.08h0l0,0h0l0,0h0q1.33.7,2.59,1.5h0l0,0h0l0,0h0l0,0h0l0,0h0l0,0h0l0,0h0l0,0h0l0,0h0l0,0h0l0,0h0l0,0h0l0,0h0l0,0h0l0,0h0l0,0h0l0,0h0l0,0h0l0,0h0l0,0h0l0,0h0l0,0h0l0,0h0l0,0h0l0,0h0l0,0h0l0,0h0l0,0h0l0,0h0l0,0h0l0,0h0l0,0h0l0,0h0l0,0,0,0,0,0,0,0,0,0,0,0,0,0,0,0,0,0,0,0h0l0,0h0l0,0h0l0,0h0l0,0h0l0,0h0l0,0h0l0,0h0l0,0h0l0,0h0l0,0h0l0,0h0l0,0h0l0,0h0l0,0h0l0,0h0l0,0h0l0,0h0l.62.47,8.64-11a53.79,53.79,0,0,0-17.38-9A148.1,148.1,0,0,0,312.17,298Zm-62-5.72-.88,14,2.62.16h.41l7.14.4c4.51.25,9,.49,13.52.81h.33l.24,0h1c2.91.21,5.81.46,8.71.75l1.42-13.93c-8.23-.84-16.45-1.29-24.41-1.72-3.3-.18-6.72-.37-10.05-.58Zm-58.73-7.94-2.57,13.76,3.39.63h0l.12,0h0l.12,0h0l.37.07h0l.1,0h0l.1,0h.05l.09,0h.14l.14,0h0l.1,0h.06l.09,0h.06l.09,0h.06l.29.05h0l.14,0h0l.13,0h0l.46.08h0l.16,0h0l.15,0h0l.63.11h0l.15,0h0l.62.11h0l.94.17h0l.62.11h0l.78.14h0l.78.14h0l.62.11h0l.13,0h0l.14,0h0l.31.05h0l.12,0h0l.11,0h0l.12,0h0l.15,0h0l.14,0h0l.11,0h.05l.1,0h.05l.1,0h.05l.14,0h0l.1,0h.51l.11,0,.1,0h.49l.33.06h0l.1,0h0l.1,0h0l.63.11h0c5.68.94,11.36,1.81,17.07,2.58l1.85-13.88c-9.55-1.27-20-3-32.83-5.39ZM131.26,273l-2.32,13.81c7.2,1.21,14.39,2.53,21.56,3.9h0l.12,0h0l.11,0h0l.34.07h.05l.08,0h.14l.12,0h0l.15,0h0l.11,0h0l.12,0h0l10.34,2,2.69-13.74c-10.77-2.11-22.25-4.33-33.8-6.27Zm-48.79-5.5v14h4.1c4.45.14,8.91.49,13.35,1h.74l1.58.18,1.65-13.9a181.43,181.43,0,0,0-21.42-1.4Z"/></g><g id="header-girl"><path class="cls-1" d="M363.07,257.58q.73,0,1.41-.05h-1.93Z"/><path class="cls-1" d="M238.41,257.53a18.61,18.61,0,0,0,4.14,0Z"/><path class="cls-1" d="M300.48,257.53a18.61,18.61,0,0,0,4.14,0Z"/><path class="cls-7" d="M212.31,115.17l1.48,0h-1.48Z"/><path class="cls-7" d="M214.85,115.22h0Z"/><line class="cls-8" x1="127.73" y1="159.17" x2="127.73" y2="315.2"/><line class="cls-8" x1="110.73" y1="179.17" x2="110.73" y2="335.2"/><line class="cls-9" x1="108.11" y1="320.14" x2="129.41" y2="298.83"/><line class="cls-9" x1="108.11" y1="300.14" x2="129.41" y2="278.83"/><line class="cls-9" x1="108.11" y1="279.14" x2="129.41" y2="257.83"/><path class="cls-10" d="M111.08,252.18c23.87,6.47,53.06,19,64.67,45.33,3.65,8.3,3.32,12.89,6.67,21.33,6.25,15.79,21.49,35.42,61.52,51.2a29.9,29.9,0,0,0,9.28,2.05c5.07.29,12.25-1,15-4.76,1.88-2.5,3.5-9-5.61-13-39.83-17.58-55.94-35.59-62.23-51.48-3.34-8.45-3-13-6.67-21.33-11.61-26.37-40.8-38.86-64.67-45.33Z"/><rect class="cls-11" x="203.31" y="177.15" width="11.78" height="54.96" rx="5.89" ry="5.89" transform="translate(308.76 479.81) rotate(-154.26)"/><path class="cls-12" d="M210.1,292l7.68,7.68c.75.75,1.48,1.51,2.18,2.31,1.06,1.2,3.48,3.48,5.9,2.55,2.11-.81,12.51-6.41,13.4-8.44,1.36-3.1-.12-5.34-1.86-5.09-1.4.2-6.42,2.25-8.32,3a1.2,1.2,0,0,1-1.3-.26L218,284.05"/><path class="cls-12" d="M209.81,291.71l7.68,7.68c.75.75,1.48,1.51,2.18,2.31,1.06,1.2,3.48,3.48,5.9,2.55,3.23-1.24,12-5.34,13.4-8.44s-.12-5.34-1.86-5.09c-1.4.2-6.42,2.25-8.32,3a1.2,1.2,0,0,1-1.3-.26l-9.73-9.73"/><path class="cls-2" d="M209.83,291.92c0-.61.91-2.47,3.24-4.81,2-2,4-3.18,4.81-3.24,0,.61-.91,2.47-3.24,4.81C212.6,290.73,210.67,291.86,209.83,291.92Z"/><path d="M215.94,285.81a19.12,19.12,0,0,1-4.16,4.16,19.11,19.11,0,0,1,4.16-4.16m2-2.83c-1.16,0-3.38,1.37-5.51,3.5-2.6,2.6-4.07,5.33-3.29,6.11a.82.82,0,0,0,.6.21c1.16,0,3.38-1.37,5.51-3.5,2.6-2.6,4.07-5.33,3.29-6.11a.82.82,0,0,0-.6-.21Z"/><path class="cls-12" d="M206,298.16l7.68,7.68c.75.75,1.48,1.51,2.18,2.31,1.06,1.2,3.48,3.48,5.9,2.55,2.11-.81,12.51-6.41,13.4-8.44,1.36-3.1-.12-5.34-1.86-5.09-1.4.2-6.42,2.25-8.32,3a1.2,1.2,0,0,1-1.3-.26L214,290.21"/><path class="cls-12" d="M205.73,297.87l7.68,7.68c.75.75,1.48,1.51,2.18,2.31,1.06,1.2,3.48,3.48,5.9,2.55,3.23-1.24,12-5.34,13.4-8.44s-.12-5.34-1.86-5.09c-1.4.2-6.42,2.25-8.32,3a1.2,1.2,0,0,1-1.3-.26l-9.73-9.73"/><path class="cls-2" d="M205.75,298.08c.05-.61.91-2.47,3.24-4.81,2-2,4-3.18,4.81-3.24-.05.61-.91,2.47-3.24,4.81C208.52,296.88,206.59,298,205.75,298.08Z"/><path d="M211.86,292a19.13,19.13,0,0,1-4.16,4.16,19.11,19.11,0,0,1,4.16-4.16m2-2.83c-1.16,0-3.38,1.37-5.51,3.5-2.6,2.6-4.07,5.33-3.29,6.11a.82.82,0,0,0,.6.21c1.16,0,3.38-1.37,5.51-3.5,2.6-2.6,4.07-5.33,3.29-6.11a.82.82,0,0,0-.6-.21Z"/><rect x="194.59" y="266.94" width="7.07" height="31.8" transform="translate(-141.96 222.92) rotate(-45)"/><path d="M189.38,270.34l21.23,21.23-3.75,3.75-21.23-21.23,3.75-3.75m0-2.5-6.25,6.25,23.73,23.73,6.25-6.25-23.73-23.73Z"/><rect x="199.5" y="261.78" width="7.07" height="30.62" transform="translate(-136.46 224.71) rotate(-45)"/><path d="M194.71,265l20.4,20.4-3.75,3.75L191,268.76l3.75-3.75m0-2.5-6.25,6.25,22.9,22.9,6.25-6.25-22.9-22.9Z"/><path class="cls-13" d="M167.07,274.07c8.13,4.27,27.67,11.17,53.55-2.23l-16.79-50.11a20,20,0,0,0-18.25-13.8q-.58,0-1.16,0a13.6,13.6,0,0,0-12.81,11.14l-7.95,48.07A6.6,6.6,0,0,0,167.07,274.07Z"/><path class="cls-14" d="M204.21,203.95c4.58-3.78,8.5-10,13.68-9.38.81.09,2.55.45,3.53-.53,1.38-1.38.34-4.5-.18-6-5.39-15.64-8.08-23.46-14-26.32a17.23,17.23,0,0,0-10.78-1.77c-11.49,2.22-21,18.76-16.25,32,3.09,8.51,12.3,16.15,19.08,14.66a11.83,11.83,0,0,0,4.87-2.63"/><path class="cls-15" d="M211.7,183.87s-4.77,3.45-8.83,0"/><path class="cls-15" d="M203.73,203.09a3.68,3.68,0,0,1,5.2-5.2"/><path class="cls-16" d="M203.53,156.54c5,.41,13.55,7.06,14.06,9.2,1,4.09-22.73,6.36-27.85,19.49-3.64,9.33,7.5,17.84,1,22.15-6.7,4.43-17.07,2.42-28.76-2.59-14.68-6.29-14.39-11.79-29.88-23.54-16.83-12.77-30.76-5.79-41-18.16-9-10.8-8.41-28.21-1.47-31.89,5.71-3,11.33,5.57,31.28,12,24.1,7.71,31,0,46.91,9.3,8.28,4.84,17.46,3.38,26.45,3.79C199,156.47,195.2,155.86,203.53,156.54Z"/><path class="cls-2" d="M193.31,187.26c0-.26-4.25-3.8-6.29-3.22a1.88,1.88,0,0,0-.95.59c-1.07,1.28-.16,4,2.19,5.5,2.15,1.37,5.09.91,5.16.38C193.83,187.46,193,189,193.31,187.26Z"/><path class="cls-11" d="M188.48,186.88a8.66,8.66,0,0,1,2.4,1.4"/><path class="cls-11" d="M177.35,162.24c-.41-1.14,11.45-6.2,22.33-4.26,2.37.42,7.15,1.62,7.1,3,0,.77-1.62,1.49-3,1.67-2.64.32-3.55-1.39-6.6-2-3.83-.81-5.37,1.24-12.69,1.85C183.38,162.52,177.62,163,177.35,162.24Z"/><path class="cls-11" d="M103.75,165.24c-.7.93-7.47-2.12-10.84-8.16-2.92-5.22-2.26-10.83-2-10.84s-.23,4.19,2.43,7.92c2.82,4,6.82,4.06,9.69,9.14C103.54,164.12,104,164.93,103.75,165.24Z"/><rect class="cls-11" x="172.31" y="174.15" width="11.78" height="54.96" rx="5.89" ry="5.89" transform="translate(412.93 333.2) rotate(160.74)"/><path d="M205.94,236.5c-.56,0-1.47-.86-2-2.24a4.43,4.43,0,0,1-.23-2.2c.09-.45.27-.76.48-.84l.13,0c.56,0,1.47.86,2,2.24.55,1.58.21,2.87-.25,3Z"/><path d="M204.72,231.94h0m-.11.35a4,4,0,0,1,1.09,3.12,4,4,0,0,1-1.09-3.12m-.24-2a1.28,1.28,0,0,0-.42.07c-1.11.39-1.46,2.25-.79,4.16.59,1.68,1.76,2.83,2.79,2.83a1.28,1.28,0,0,0,.42-.07c1.11-.39,1.46-2.25.79-4.16-.59-1.68-1.76-2.83-2.79-2.83Z"/><path d="M209.94,248.5c-.56,0-1.47-.86-2-2.24a4.43,4.43,0,0,1-.23-2.2c.09-.45.27-.76.48-.84l.13,0c.56,0,1.47.86,2,2.24.55,1.58.21,2.87-.25,3Z"/><path d="M208.72,243.94h0m-.11.35a4,4,0,0,1,1.09,3.12,4,4,0,0,1-1.09-3.12m-.24-2a1.28,1.28,0,0,0-.42.07c-1.11.39-1.46,2.25-.79,4.16.59,1.68,1.76,2.83,2.79,2.83a1.28,1.28,0,0,0,.42-.07c1.11-.39,1.46-2.25.79-4.16-.59-1.68-1.76-2.83-2.79-2.83Z"/><path d="M213.75,260.56c-.49,0-1.39-.83-1.79-2.4s0-2.88.51-3h0c.59,0,1.48.83,1.88,2.39a4.43,4.43,0,0,1,0,2.21c-.12.44-.33.74-.56.8Z"/><path d="M212.88,255.9h0m-.14.34a4,4,0,0,1,.82,3.2,4,4,0,0,1-.82-3.2m-.19-2a1.26,1.26,0,0,0-.31,0c-1.13.29-1.65,2.12-1.15,4.08.46,1.78,1.59,3.07,2.65,3.07a1.26,1.26,0,0,0,.31,0c1.13-.29,1.65-2.12,1.15-4.08-.46-1.78-1.59-3.07-2.65-3.07Z"/><path class="cls-16" d="M193.9,258a23.53,23.53,0,0,1-15.5,2.59l1.54,9.21,9,2.76,6.5-5.14Z"/></g><path class="cls-2" d="M124.87,330.23q0-.57-1.15-1.25v1.25a3.69,3.69,0,0,1,1.15.29Z"/><path class="cls-2" d="M116.59,325.83V326h.48a1.53,1.53,0,0,1,.24-.67h-.24Q116.59,325.45,116.59,325.83Z"/><path class="cls-2" d="M368.71,322.45q0,.33.67.72l.24-.48-.48-.24Z"/><path class="cls-2" d="M451.81,445.72h1.53v-.44l-.54-.37h-1Z"/><path class="cls-2" d="M456.83,450.75c0-.38-.51-.77-1.53-1.15q-2.35.91-2.34,1.53a2.48,2.48,0,0,1,1.2.43A23.45,23.45,0,0,1,456.83,450.75Z"/><path class="cls-1" d="M458.41,451.13l.71-.14-.54-.69-.17,0Z"/><path class="cls-1" d="M139.15,358.76a3.27,3.27,0,0,1,1.2-.38.68.68,0,0,0-.77-.77c-.54.06-.81.32-.81.77A.34.34,0,0,1,139.15,358.76Z"/><path class="cls-2" d="M134.1,382.6a2.44,2.44,0,0,1,1.1-.43q0-.86-3.45-1.53v.43A2.55,2.55,0,0,0,134.1,382.6Z"/><path class="cls-1" d="M115.41,356.06v.72h.72q0-1.15.81-1.15v-.38h-1.15Z"/><path class="cls-2" d="M368.14,319.65V320a.77.77,0,0,0,.81.72h1.1q.81,0,.81-.72l-1.63-.81A2.44,2.44,0,0,1,368.14,319.65Z"/><path class="cls-2" d="M244.43,383.53a.72.72,0,0,0,.81-.81v-.43l-1.91-.38a10.94,10.94,0,0,1-1.63.38v.43c.1.54.37.81.81.81Z"/><path class="cls-2" d="M121.72,358.38c.1.51.37.77.81.77l1.91-.38a2.94,2.94,0,0,0,1.15.38v-.38l-.38-.81A17.5,17.5,0,0,1,121.72,358.38Z"/><path class="cls-2" d="M292.61,379.1h.77q.53,0,1.2-1.25l-.43-.72A1.88,1.88,0,0,0,292.61,379.1Z"/><path class="cls-2" d="M134.62,377.74q-.72.14-.72.77v.77l2.3.38.33-.81-1.53-1.1Z"/><path class="cls-2" d="M119.57,364.68l-.81-.43h-.33c-.54.13-.81.4-.81.81v.33a2.66,2.66,0,0,1,1.15.38Z"/><path class="cls-2" d="M452.37,446.57c0-.54-.26-.81-.77-.81l-.43.81V447h1.2Z"/><path class="cls-2" d="M472,429.22l-.43.81h1.15Q472.72,429.22,472,429.22Z"/><path class="cls-2" d="M453.34,439.91h-.54l.54.37Z"/><path class="cls-2" d="M460.37,450.75,460,450a4.44,4.44,0,0,1-1.41.27l.54.69Z"/><rect class="cls-2" x="131.49" y="353.59" width="0.53" height="0.96"/><path class="cls-2" d="M424.14,288.76a2.52,2.52,0,0,1-1-.29h-.29v.29a2.24,2.24,0,0,1,1.25.62Z"/><path class="cls-2" d="M418,292.73v-.62h-.57c-.42.1-.62.3-.62.62v.57h.62A.51.51,0,0,0,418,292.73Z"/><path class="cls-2" d="M422.28,289.09v-1q-3,.67-3,2.78Q422.23,289.67,422.28,289.09Z"/><path class="cls-2" d="M485,425h-.62l-.33,1.29Q484.54,426.31,485,425Z"/><path class="cls-2" d="M139.91,358.55h-.29c-.45,0-.67.24-.67.62v.57h.33c.41,0,.62-.19.62-.57a.25.25,0,0,1-.29-.29C139.82,358.88,139.91,358.77,139.91,358.55Z"/><rect class="cls-2" x="384.81" y="475.15" width="0.86" height="0.62"/><path class="cls-2" d="M456.16,460.24l-.33.57h.91A.51.51,0,0,0,456.16,460.24Z"/><path class="cls-2" d="M397.63,296.08v.57q0,.43,1,1h1.2v-1.2a2.19,2.19,0,0,0-1.2-.33Z"/><rect class="cls-2" x="410.74" y="298.14" width="1.2" height="0.67"/><path class="cls-2" d="M295.8,393.56l.29-.62v-1.53l1.2-.29v-.57a5.2,5.2,0,0,0-3.88,2.06A7.14,7.14,0,0,0,295.8,393.56Z"/><path class="cls-2" d="M406.15,301.83l-.57,1q.57,0,.57.29a2.54,2.54,0,0,1,1-.29Q407.1,302.31,406.15,301.83Z"/><path class="cls-2" d="M228.77,323.13l-.62.86v.33l.29.57a1.65,1.65,0,0,0,1.29-1.2Z"/><path class="cls-2" d="M473.68,425.69h-.91v.91Q473.25,426.6,473.68,425.69Z"/><path class="cls-2" d="M473.68,436h-.57q-.67,0-1,1.48h1l.86-.62A2.21,2.21,0,0,1,473.68,436Z"/><path class="cls-2" d="M418.64,285.12h-1.53v.29l.62.91q1.53-.38,1.53-.91Z"/><path class="cls-2" d="M480.09,425.69h-1.82V426q.19,0,1.82.34Z"/><path class="cls-2" d="M476.12,425.35q0,.43.91,1h.29a.55.55,0,0,0,.62-.62l-.62-.33Z"/><path class="cls-2" d="M133.49,325.57l.24-.62v-.29h-.86v.29C132.9,325.36,133.11,325.57,133.49,325.57Z"/><path class="cls-2" d="M114.25,323.22v.33a2.24,2.24,0,0,1,1.2.62h.33q.53,0,.53-.62l-1.48-.33Z"/><path class="cls-2" d="M122.15,323.55h-.67q0,.43,1,1l.34-.62Z"/><g id="header-guy-platform"><path class="cls-17" d="M883.22,480.67c53.13-2.3,98.51,46.88,146.71,30.23,37.89-13.09,97.34-69.37,46.16-109.72-39.6-31.22-51.49.17-156.61-24.38-62.62-14.62-110.2,10.87-173.09,15.06-42.9,2.86-100.58-1.18-95.61,50.91,6,63.19,112.29,91.54,147.26,73.15C829.44,499.41,856,481.86,883.22,480.67Z"/><path class="cls-6" d="M844.72,364.17c-5.49.82-11.44,1.84-18.19,3.14l2.07,10.8q2.94-.56,5.88-1.1h0l.1,0h0l.08,0h.12l.1,0h0l.11,0h0l.13,0h0l.13,0h0q5.46-1,10.95-1.8l-1.62-10.88Zm-34,6.33-2.89.6c-4.79,1-9.74,2-14.66,3l2.14,10.79h.07l.1,0,.14,0,.1,0,.12,0,.09,0,.16,0,.08,0,.18,0h0l.24,0h0l.19,0h0l7.14-1.45H804l.15,0,.1,0,.11,0,.16,0h.05l.19,0h0l5.26-1.09,2.88-.6-2.23-10.77Zm-33,6.46c-6.14,1-11.8,1.88-17.28,2.54l1.32,10.92c6.05-.73,12-1.62,17.81-2.61L777.71,377Zm-32.6,4c-4.6.3-9.32.52-14.32.75l-3.46.16.52,11,3.45-.16,2.17-.1h.21c4.13-.19,8.19-.39,12.14-.65l-.71-11ZM711,382.78c-7.19.55-13.35,1.26-18.85,2.17L694,395.8c2.69-.45,5.44-.82,8.24-1.15h0l.56-.06h.56l.42,0h.43l.42,0h.57l.28,0h.71l.28,0H708l.21,0h1.64l.21,0h1.54l.25,0-.83-11Zm-36.12,6.36a59.17,59.17,0,0,0-19.3,10.41l7.05,8.44a39.52,39.52,0,0,1,4.83-3.44h0l.23-.14h0l.18-.11h0l.41-.24h0l.18-.11h0l0,0h0l.14-.08h0l0,0h0l.18-.1h0l.18-.1h0l0,0h0l.18-.1h0l0,0h0l.14-.07h0l0,0h0l.14-.07h0l0,0h0l.18-.1h0l0,0h0l.13-.07h0l0,0h0l0,0h0l.09,0h0l0,0h0l0,0h0l.13-.06h0l0,0h0l.12-.06h0l0,0h0l0,0h0l.08,0h0l0,0h0l0,0h0l0,0h0l.08,0h0l0,0h0l0,0h0l.06,0h0l0,0h0l0,0h0l0,0,0,0h.17l.05,0H672l.05,0h0l0,0h0l0,0h0l0,0h0l0,0h0l0,0h0l0,0h0l.06,0h0l0,0h0l0,0h0l.06,0h0l0,0h0l0,0h0l.06,0h0l.06,0h0l0,0h0l0,0h0l.06,0h0l.05,0h0l0,0h0l.12-.05h0l.05,0h0l.13-.05h0l.06,0h0l.06,0h0l.13-.06h0l.06,0h0l.2-.08h0q2.07-.87,4.26-1.61l-3.54-10.42Zm-31.81,27.49a54.43,54.43,0,0,0-3.59,22.1l11-.32a53.4,53.4,0,0,1,.23-6.91h0l0-.25h0v-.06h0l0-.19h0v-.06h0v-.06h0v-.12h0v-.06h0v-.05h0v-.06h0v-.05h0v-.05h0v-.05h0v-.05h0v0h0v-.05h0v0h0V430h0v0h0v-1.38h0v0h0v-.12h0v-.1h0v-.06h0v-.05h0v-.06h0l0-.1h0v-.06h0v-.06h0l0-.17h0v-.07h0l0-.23h0a37.09,37.09,0,0,1,1.56-5.57h0l0-.06h0l.05-.14h0l0-.05h0l0-.05h0l0-.09h0l0-.05h0l0,0h0l0-.08h0l0,0h0l0,0h0l0,0h0v0l0,0v-.15h0l-10.2-4.13ZM653,454.16l-10.53,3.19a74.58,74.58,0,0,0,9,19l9.21-6-.15-.24h0l-.08-.12h0l-.08-.12h0l-.07-.12h0l0-.06h0l0-.05h0l0,0h0l0,0v0l0,0v0l0,0,0,0,0,0v0l0,0,0,0,0,0v0l0,0,0,0,0,0,0,0,0,0,0,0,0,0,0,0h0l-.07-.11h0l-.07-.12h0a62.88,62.88,0,0,1-6.48-14.16h0l0-.14h0l0-.14h0l0-.14h0v0Zm17.73,28.62-7.82,7.73a114.26,114.26,0,0,0,15.22,12.82l6.36-9q-1.87-1.32-3.67-2.71h0l-.11-.08h0l-.05,0h0l-.05,0h0l0,0h0l0,0h0l0,0h0l0,0h0l0,0h0l0,0h0l0,0h0l0,0,0,0h0l0,0h0l0,0h0l0,0h0l-.05,0h0q-2.44-1.92-4.73-4h0l-.05,0h0l0,0h0l0,0h0l0,0,0,0,0,0,0,0,0,0,0,0,0,0,0,0,0,0,0,0,0,0,0,0,0,0,0,0h0l0,0,0,0,0,0h0l0,0h0l0,0h0l0,0h0l0,0h0l0,0h0l0,0h0l0,0h0l0,0h0l-.09-.09h0l0,0h0l0,0h0l0,0h0l0,0h0q-1.56-1.44-3-2.93Zm27.36,20-5.2,9.69a164.53,164.53,0,0,0,17.51,8.08l4-10.24-.68-.27h0l-.07,0h0l-.06,0h0l-.26-.1h0l-.18-.07h0l-.07,0h0l-.07,0h0l-.11,0h0l-.07,0h0l-.06,0h-.06l-.05,0h0l-.06,0h0l-.06,0h0l-.18-.07h0l-.07,0h0l-.11,0h0l-.05,0h0l0,0h0l-.05,0h-.05l-.07,0h0l-.06,0h0l-.05,0h-.06l-.06,0h0l-.05,0h0l-.05,0h0l-.1,0h0l-.06,0h0l0,0h-.05l0,0H711l0,0h0l0,0h0l0,0h-.07l0,0h0l0,0h0l0,0h-.06l0,0h0l0,0h-.06l0,0h0l0,0h-.08l0,0h-.06l0,0h0l0,0h0l0,0h0l0,0h0l0,0h0l0,0h0l0,0h0l0,0h0l0,0h0l-.05,0h0l-.05,0h0l-.06,0h0l-.05,0h0l-.06,0h0l-.06,0h0L709,508h0l-.13-.06h0l-.06,0h0c-3.63-1.59-7.2-3.32-10.68-5.19Zm31.48,12.67-3,10.58a175.43,175.43,0,0,0,18.72,4.28l1.85-10.84a164.27,164.27,0,0,1-17.54-4Zm51.4,5.35a90,90,0,0,1-9.48.65H769c-1.95,0-3.94-.07-6-.18l-.61,11c2.41.13,4.81.2,7.13.2a103.87,103.87,0,0,0,12.81-.76L781,520.77Zm31.29-12.53-7,3.8h0l-.11.06,0,0-.07,0h0l-.07,0-.06,0-.06,0-.07,0,0,0-.08,0h0l-.1.05h0l-.1.06h0l-.11.06h0q-3.07,1.65-6.19,3.3h0l-.11.06h0l0,0h-.07q-.74.39-1.52.75l4.58,10c.74-.34,1.47-.7,2.17-1.06,5.12-2.69,10.12-5.42,14.41-7.76l-5.28-9.65Zm30.1-15.8c-3.82,1.8-7.69,3.75-11.6,5.8h0l-.12.06h0l0,0h0l-.05,0h0l0,0h0l0,0h0l0,0-.06,0h0l-.12.06h0l0,0h0l-3.79,2,5.19,9.7c6.13-3.28,11.07-5.79,15.55-7.9l-4.69-9.95Zm32.1-10.86q-2.5.41-5,1h0l-.07,0h0l-.13,0h-.14l-.13,0h-1.39l-.06,0h-.09l-.11,0h0l-.07,0h0l-.07,0h0l-.07,0h0l-.07,0h0l-.12,0h0c-3.24.84-6.49,1.86-9.75,3l3.73,10.35a87.17,87.17,0,0,1,15.42-4.15l-1.79-10.85Zm15.94-.92-.45,11a90.66,90.66,0,0,1,15.9,2.14l2.36-10.74a103.46,103.46,0,0,0-16.48-2.33h-1.34Zm33.21,6.71-3.49,10.43c4.73,1.58,9.88,3.51,16.19,6.08l4.14-10.19c-5.56-2.26-11.17-4.43-16.85-6.32Zm31.62,12.48L951,510c5.45,2.28,11.3,4.68,17.18,6.83L972,506.51c-3.68-1.35-7.38-2.81-11.08-4.32h0l-.12,0h0l-.09,0-.05,0,0,0-5.31-2.2Zm32,11.48L984.52,522a102.58,102.58,0,0,0,19.85,3.22l.62-11c-2.58-.15-5.15-.43-7.73-.82h0l-.28,0h-.18l-.1,0h-.58l-.14,0h-.14c-2.86-.49-5.72-1.11-8.58-1.84Zm50.71-3.7-1.19.54h0l0,0h0l0,0h0l0,0h0l0,0h-.06l0,0h0l0,0h0l0,0h0l0,0h0l0,0h0l0,0h0l0,0h0l-.05,0h0l-.05,0h0l-.05,0h0l-.05,0h0l-.05,0h0l-.05,0h0l-.06,0h0l-.06,0h0l-.06,0h0l-.06,0h0l-.06,0h0l-.19.08h0l-.06,0h0l-.06,0h0l-.19.08h0l-.06,0h0l-.38.16h0l-.06,0h0l-.19.08h0l-.06,0h0l-.63.25h0l-.06,0h0l-.25.1h0l-.12,0h0l-.12,0h0l-.06,0h0l-.06,0h0l-.06,0h0l-.06,0h0l-.12,0h0l-.06,0h0l-.05,0h0l-.05,0h0l-.06,0h0l-.06,0h0l-.06,0h0l-.05,0h0l-.05,0h0l-.05,0h0l-.05,0h0l-.05,0h0l-.05,0h0l-.05,0h0l-.05,0h0l-.05,0h0l-.05,0h0l0,0h0l0,0h0l0,0h0l-.05,0h0l-.06,0h0l-.05,0h0l0,0h0l0,0h0l0,0h0l0,0h0l0,0h0l0,0h0l0,0h0l0,0h0l-.05,0h0l-.06,0h0l0,0h0l0,0h0l0,0h0l-.05,0h0l-.06,0h0l-.05,0h0l-.05,0h0l-.05,0h0l-.05,0h0l-.06,0h-.22l0,0h-.16l-.13,0h-.08l-.24.08h0a62.34,62.34,0,0,1-7.07,1.88h-.07l-.14,0h-.15l-.1,0h-.6l2,10.82a73.73,73.73,0,0,0,10.6-2.8,95.78,95.78,0,0,0,9.07-3.69l-4.64-10ZM1066.31,489a131.18,131.18,0,0,1-12.31,9.43h0l0,0h0l0,0h0l0,0h0l0,0h0l0,0h0l0,0h0l0,0h0l0,0,0,0,0,0,0,0h0l0,0h0l-1.45,1,6,9.23a141.92,141.92,0,0,0,15.59-11.72l-7.2-8.32Zm21.93-25.78a82.17,82.17,0,0,1-4.64,7.16h0l0,.06h0l-.29.4h0l0,.05h0l0,.05h0l0,.06h0l0,.06h0l0,.06h0l0,.06h0l0,.06h0l-.17.23h0l-.08.11h0l0,.05h0l0,.05h0l0,.05h0l0,.05h0l-.08.11h0l-.25.34h0l0,.05h0l0,.05h0l0,.05h0l0,.05h0l0,.05h0l0,.05h0q-2,2.64-4.27,5.18l8.26,7.27a101.23,101.23,0,0,0,11.84-16.33l-9.54-5.48Zm18.06-34.34-10.85,1.81q.24,1.45.37,2.91h0v0h0v0h0v0h0v0h0l0,.19h0v0h0v0h0v0h0v0h0v0h0v.14h0v0h0v0h0v.1h0v0h0v0h0v0h0v0h0v0h0v0h0v0h0v0h0v0h0a43.56,43.56,0,0,1-1.47,13.79l10.63,2.82a53.17,53.17,0,0,0,1.23-22.46Zm-21.48-34.82-7.05,8.44q1.11.93,2.15,1.87h0l.13.12h0l0,0h0l0,0h0l.13.12h0l0,0h0l0,0h0l.06.06h0l0,0h0l0,0h0l0,0h0l0,0h0l.06.06h0l0,0h0l0,0h0l0,0h0l0,0h0l.06.06h0l0,0h0l0,0h0l0,0h0l.06.06h0l0,0h0l0,0h0l0,0h0l0,0h0l0,0h0l0,0h0l0,0h0l0,0h0l0,0h0l.06.06h0l0,0h0l0,0h0l0,0h0l.09.09h0l0,0h0l0,0h0l0,0h0l.06.06h0l0,0h0l0,0h0l0,0h0l.09.09h0l0,0h0l0,0h0l0,0h0l.06.06h0l0,0h0l0,0h0l0,0h0l.12.12h0l0,0h0l.12.12h0l0,0h0l0,0h0l.12.12h0l0,0h0l0,0h0a53,53,0,0,1,6.76,8.34h0l0,0h0l.06.09h0v0h0v0h0v0h0v.08h0v0h0v0h0v0h0l.13.21,9.32-5.84a68.24,68.24,0,0,0-14.23-16Zm-35-17.64-2,10.82q1.2.22,2.4.5h.07l.09,0h.45l.08,0h.08l.16,0h0a53.19,53.19,0,0,1,11.18,4.19h0l0,0h0l.12.06h0l0,0h0l0,0h0l.08,0h.15l0,0h.11l.13.07h0l1.56.84,5.36-9.61a65,65,0,0,0-20.2-7.36Zm-18.06-1.26c-3.77,0-7.7.21-11.87.39l-6.38.26.4,11,6.45-.26c4.13-.17,7.94-.34,11.54-.38l-.14-11Zm-51.06.23-.77,11c6.56.46,12.52.66,18,.7l.09-11c-5.83,0-11.48-.27-17.3-.67Zm-32.64-4-1.86,10.84,2.52.42h.18l.26,0h1l.28,0h.07q5.76.92,11,1.6H962l2,.25,1.33-10.92c-5.58-.68-11.39-1.53-17.27-2.54ZM915,364.59l-2.08,10.8q3.17.61,6.4,1.36h0l.09,0h0l.1,0h0l.1,0h0q5.61,1.31,10.87,2.41l2.26-10.77c-3.5-.74-7.12-1.54-10.74-2.38-2.33-.54-4.7-1-7-1.5Zm-34.76-3.27c-6.17,0-12.37.28-18.94.86l1,11q5.2-.46,10.47-.67h1.23q2.86-.09,5.74-.1h.86c5,0,10,.22,15.12.67h.07l.25,0H897l1.05-10.95c-5.84-.56-11.87-.85-17.9-.85Z"/></g><g id="header-guy"><rect class="cls-18" x="751.59" y="347.34" width="62" height="72"/><rect class="cls-19" x="679.83" y="390.88" width="72" height="72"/><polygon class="cls-20" points="679.83 390.88 741.59 347.34 813.59 347.34 751.83 390.88 679.83 390.88"/><path class="cls-20" d="M716.16,385.71"/><path class="cls-20" d="M716.16,385.71"/><path class="cls-20" d="M718.16,385.71"/><rect class="cls-21" x="696.44" y="390.88" width="36.6" height="72"/><line class="cls-22" x1="733.44" y1="390.88" x2="793.88" y2="347.34"/><line class="cls-22" x1="714.44" y1="390.88" x2="774.88" y2="347.34"/><path class="cls-22" d="M770.88,347.34"/><path class="cls-22" d="M710.44,390.88"/><path class="cls-22" d="M748.88,347.34"/><path class="cls-22" d="M688.44,390.88"/><line class="cls-22" x1="696.44" y1="390.88" x2="756.88" y2="347.34"/><polygon class="cls-23" points="771.01 367.45 734.31 367.45 738.12 359.75 771.16 359.72 771.01 367.45"/><polygon class="cls-24" points="722.81 369.04 738.13 359.72 770.72 359.72 759.52 369.04 722.81 369.04"/><polygon class="cls-24" points="722.72 376.47 734.31 367.45 770.64 367.38 757.52 376.77 722.72 376.47"/><polygon class="cls-25" points="757.52 376.77 722.72 376.77 722.83 368.98 757.24 368.98 757.52 376.77"/><path d="M745.44,371.18c-7,0-14.26-1.68-14.49-5.45-.25-4.15,8.37-6.93,16.61-7.44,1-.06,1.95-.09,2.9-.09,7,0,14.26,1.68,14.49,5.45.25,4.15-8.37,6.93-16.61,7.44C747.37,371.15,746.39,371.18,745.44,371.18Z"/><path class="cls-2" d="M750.46,359c7.62,0,13.52,1.94,13.69,4.69.19,3.09-6.91,6-15.86,6.59-1,.06-1.93.09-2.85.09-7.62,0-13.52-1.94-13.69-4.69-.19-3.09,6.91-6,15.86-6.59,1-.06,1.93-.09,2.85-.09m0-1.61h0c-1,0-2,0-3,.09-8.85.54-17.65,3.56-17.36,8.29.28,4.58,8.41,6.2,15.29,6.2,1,0,2,0,3-.09a38.14,38.14,0,0,0,11.87-2.46c4.71-2,5.58-4.25,5.49-5.83-.28-4.58-8.41-6.2-15.29-6.2Z"/><ellipse class="cls-2" cx="747.95" cy="364.32" rx="6.6" ry="2.28" transform="translate(-20.88 46.43) rotate(-3.51)"/><ellipse class="cls-2" cx="747.95" cy="364.32" rx="1.94" ry="0.67" transform="translate(-20.88 46.43) rotate(-3.51)"/><path class="cls-14" d="M773.5,314.79a5.26,5.26,0,0,0-4.3,8.14c12.26,18.76,28.66,21.67,40.27,20.81a57.15,57.15,0,0,0,21.92-6.36,5.26,5.26,0,0,0-5.19-9.16h0a47.09,47.09,0,0,1-17.85,5c-12.62.83-22.82-4.58-30.34-16.09A5.26,5.26,0,0,0,773.5,314.79Z"/><path class="cls-26" d="M820.24,432.19V443c0,1.06,0,2.12.09,3.18.1,1.6,0,4.92-2.37,6-2.07.92-13.38,4.31-15.44,3.51-3.16-1.23-3.69-3.86-2.28-4.91,1.13-.85,6.13-2.95,8-3.73A1.2,1.2,0,0,0,809,446V432.19"/><path class="cls-26" d="M820.24,431.78v10.86c0,1.06,0,2.12.09,3.18.1,1.6,0,4.92-2.37,6-3.16,1.4-12.28,4.74-15.44,3.51s-3.69-3.86-2.28-4.91c1.13-.85,6.13-2.95,8-3.73a1.2,1.2,0,0,0,.74-1.11V431.78"/><path d="M814.68,433.06c-3.32,0-5.24-.72-5.7-1.11.46-.39,2.38-1.11,5.7-1.11s5.24.72,5.7,1.11C819.92,432.34,818,433.06,814.68,433.06Z"/><path d="M814.68,431.72a18,18,0,0,1,2.94.23,19.11,19.11,0,0,1-5.88,0,18,18,0,0,1,2.94-.23m0-1.77c-3.67,0-6.65.89-6.65,2s3,2,6.65,2,6.65-.89,6.65-2-3-2-6.65-2Z"/><path class="cls-26" d="M835.93,432.19V443c0,1.06,0,2.12.09,3.18.1,1.6,0,4.92-2.37,6-2.07.92-13.38,4.31-15.44,3.51-3.16-1.23-3.69-3.86-2.28-4.91,1.13-.85,6.13-2.95,8-3.73a1.2,1.2,0,0,0,.74-1.11V432.19"/><path class="cls-26" d="M835.93,431.78v10.86c0,1.06,0,2.12.09,3.18.1,1.6,0,4.92-2.37,6-3.16,1.4-12.28,4.74-15.44,3.51s-3.69-3.86-2.28-4.91c1.13-.85,6.13-2.95,8-3.73a1.2,1.2,0,0,0,.74-1.11V431.78"/><path d="M830.37,433.06c-3.32,0-5.24-.72-5.7-1.11.46-.39,2.38-1.11,5.7-1.11s5.24.72,5.7,1.11C835.61,432.34,833.69,433.06,830.37,433.06Z"/><path d="M830.37,431.72a18,18,0,0,1,2.94.23,19.11,19.11,0,0,1-5.88,0,18,18,0,0,1,2.94-.23m0-1.77c-3.67,0-6.65.89-6.65,2s3,2,6.65,2,6.65-.89,6.65-2-3-2-6.65-2Z"/><rect class="cls-11" x="811.18" y="385.34" width="7.08" height="47.07"/><rect class="cls-11" x="826.87" y="385.34" width="7.08" height="47.07"/><path d="M814.56,396.4a.44.44,0,0,0,0-.88.44.44,0,0,0,0,.88Z"/><path d="M815.33,406.71a.44.44,0,0,0,0-.88.44.44,0,0,0,0,.88Z"/><path d="M815.64,401.94a.44.44,0,0,0,0-.88.44.44,0,0,0,0,.88Z"/><path d="M813.79,415.17a.44.44,0,0,0,0-.88.44.44,0,0,0,0,.88Z"/><path d="M816.72,419.17a.44.44,0,0,0,0-.88.44.44,0,0,0,0,.88Z"/><path d="M813.95,424.7a.44.44,0,0,0,0-.88.44.44,0,0,0,0,.88Z"/><path d="M816.26,429.93a.44.44,0,0,0,0-.88.44.44,0,0,0,0,.88Z"/><path d="M816.26,411.47a.44.44,0,0,0,0-.88.44.44,0,0,0,0,.88Z"/><path d="M828.56,400.86a.44.44,0,0,0,0-.88.44.44,0,0,0,0,.88Z"/><path d="M833.64,405.32a.44.44,0,0,0,0-.88.44.44,0,0,0,0,.88Z"/><path d="M832.41,405.48a.44.44,0,0,0,0-.88.44.44,0,0,0,0,.88Z"/><path d="M829.79,413.78a.44.44,0,0,0,0-.88.44.44,0,0,0,0,.88Z"/><path d="M831.79,397.94a.44.44,0,0,0,0-.88.44.44,0,0,0,0,.88Z"/><path d="M830.1,409.17a.44.44,0,0,0,0-.88.44.44,0,0,0,0,.88Z"/><path d="M832.71,418.09a.44.44,0,0,0,0-.88.44.44,0,0,0,0,.88Z"/><path d="M829.79,424.09a.44.44,0,0,0,0-.88.44.44,0,0,0,0,.88Z"/><path d="M831.48,427.78a.44.44,0,0,0,0-.88.44.44,0,0,0,0,.88Z"/><path d="M829.95,418.7a.44.44,0,0,0,0-.88.44.44,0,0,0,0,.88Z"/><path d="M830.25,393.32a.44.44,0,0,0,0-.88.44.44,0,0,0,0,.88Z"/><path d="M816.87,391.94a.44.44,0,0,0,0-.88.44.44,0,0,0,0,.88Z"/><path d="M813.95,391.78a.44.44,0,0,0,0-.88.44.44,0,0,0,0,.88Z"/><path d="M812.87,409.47a.44.44,0,0,0,0-.88.44.44,0,0,0,0,.88Z"/><path d="M829.18,405a.44.44,0,0,0,0-.88.44.44,0,0,0,0,.88Z"/><path d="M831.18,401.48a.44.44,0,0,0,0-.88.44.44,0,0,0,0,.88Z"/><path d="M832.1,423a.44.44,0,0,0,0-.88.44.44,0,0,0,0,.88Z"/><path d="M813.49,401.78a.44.44,0,0,0,0-.88.44.44,0,0,0,0,.88Z"/><path d="M813.79,420.7a.44.44,0,0,0,0-.88.44.44,0,0,0,0,.88Z"/><path d="M816.72,424.86a.44.44,0,0,0,0-.88.44.44,0,0,0,0,.88Z"/><path d="M813.18,428.86a.44.44,0,0,0,0-.88.44.44,0,0,0,0,.88Z"/><path d="M829,430.24a.44.44,0,0,0,0-.88.44.44,0,0,0,0,.88Z"/><path d="M831.79,431.47a.44.44,0,0,0,0-.88.44.44,0,0,0,0,.88Z"/><path d="M828.1,395.78a.44.44,0,0,0,0-.88.44.44,0,0,0,0,.88Z"/><path d="M831.64,412.71a.44.44,0,0,0,0-.88.44.44,0,0,0,0,.88Z"/><path d="M832.1,391a.44.44,0,0,0,0-.88.44.44,0,0,0,0,.88Z"/><path d="M816.41,398.71a.44.44,0,0,0,0-.88.44.44,0,0,0,0,.88Z"/><path d="M812.41,394.25a.44.44,0,0,0,0-.88.44.44,0,0,0,0,.88Z"/><path d="M816.41,415.78a.44.44,0,0,0,0-.88.44.44,0,0,0,0,.88Z"/><path d="M832.41,409.63a.44.44,0,0,0,0-.88.44.44,0,0,0,0,.88Z"/><path d="M812.56,405.48a.44.44,0,0,0,0-.88.44.44,0,0,0,0,.88Z"/><rect class="cls-13" x="824.1" y="380.42" width="13.23" height="17.84"/><rect class="cls-13" x="807.18" y="380.42" width="13.23" height="17.84"/><path class="cls-13" d="M798.57,383.5s25.23,14.15,59.68-3.69L841.43,329.6a19.93,19.93,0,0,0-18.79-13.71H822A13.6,13.6,0,0,0,809.24,327Z"/><path class="cls-14" d="M784,308.49c5.63-16.34,8.45-24.51,14.58-27.51a18,18,0,0,1,11.26-1.85c12,2.32,22,19.6,17,33.41-3.22,8.89-12.86,16.88-19.94,15.32-7.28-1.6-12.15-13.37-19.38-12.55-.85.1-2.67.47-3.69-.55C782.35,313.32,783.43,310.07,784,308.49Z"/><path class="cls-27" d="M786.87,283c-.88,5.47,3.69,11.83,9.23,13.3,6.32,1.68,12.06-3.5,14.46-1.39,2.11,1.86-2.12,6.05-.31,10.25,2.24,5.19,12.86,8.48,19.07,5.54,8.27-3.92,9.31-19.18,2.15-28.82-5.76-7.75-16.25-11.08-25.23-10.25C800.56,272.16,788.16,275,786.87,283Z"/><path class="cls-15" d="M792.11,302.6s5,3.6,9.23,0"/><path class="cls-2" d="M812.12,308.69c-.2-.2,1.31-5.81,3.4-6.56a2,2,0,0,1,1.17-.07c1.69.44,2.57,3.3,1.47,6-1,2.47-3.78,3.87-4.16,3.46C811.79,309.17,813.46,310,812.12,308.69Z"/><path class="cls-15" d="M799,322.5a12,12,0,0,0,5.36-3.55c.24-.25.46-.51.67-.76"/><path class="cls-11" d="M816,305.44a9.05,9.05,0,0,0-1.19,2.65"/><path d="M804.87,324.49a.44.44,0,0,0,0-.88.44.44,0,0,0,0,.88Z"/><path d="M807.1,320.26a.44.44,0,0,0,0-.88.44.44,0,0,0,0,.88Z"/><path d="M809,319.1a.44.44,0,0,0,0-.88.44.44,0,0,0,0,.88Z"/><path d="M807.79,324.87a.44.44,0,0,0,0-.88.44.44,0,0,0,0,.88Z"/><path d="M809,322.41a.44.44,0,0,0,0-.88.44.44,0,0,0,0,.88Z"/><path d="M806.64,322.87a.44.44,0,0,0,0-.88.44.44,0,0,0,0,.88Z"/><path d="M810.79,324.72a.44.44,0,0,0,0-.88.44.44,0,0,0,0,.88Z"/><path d="M811.26,319.49a.44.44,0,0,0,0-.88.44.44,0,0,0,0,.88Z"/><path d="M811.33,321.56a.44.44,0,0,0,0-.88.44.44,0,0,0,0,.88Z"/><path d="M814.26,323.1a.44.44,0,0,0,0-.88.44.44,0,0,0,0,.88Z"/><path d="M813.41,321.56a.44.44,0,0,0,0-.88.44.44,0,0,0,0,.88Z"/><path d="M810.56,314.49a.44.44,0,0,0,0-.88.44.44,0,0,0,0,.88Z"/><path d="M813.64,310.95a.44.44,0,0,0,0-.88.44.44,0,0,0,0,.88Z"/><path d="M810.95,316.64a.44.44,0,0,0,0-.88.44.44,0,0,0,0,.88Z"/><path d="M812.95,317.1a.44.44,0,0,0,0-.88.44.44,0,0,0,0,.88Z"/><path d="M814.26,319.1a.44.44,0,0,0,0-.88.44.44,0,0,0,0,.88Z"/><path d="M814.49,316.56a.44.44,0,0,0,0-.88.44.44,0,0,0,0,.88Z"/><path d="M815.49,312.41a.44.44,0,0,0,0-.88.44.44,0,0,0,0,.88Z"/><path d="M813,325.1a.44.44,0,0,0,0-.88.44.44,0,0,0,0,.88Z"/><path d="M809.33,326.41a.44.44,0,0,0,0-.88.44.44,0,0,0,0,.88Z"/><path d="M807.79,317.33a.44.44,0,0,0,0-.88.44.44,0,0,0,0,.88Z"/><path d="M808.33,315.33a.44.44,0,0,0,0-.88.44.44,0,0,0,0,.88Z"/><path d="M813,313.79a.44.44,0,0,0,0-.88.44.44,0,0,0,0,.88Z"/><path class="cls-2" d="M831.23,290.5c-.39,0-1.86-2.44-3.28-4.77-.85-1.39-1.3-2.22-1.6-2.77a5.2,5.2,0,0,0-1-1.48,6,6,0,0,0-2.78-1.59,9.81,9.81,0,0,1-3-1.45c-1.77-1.25-3.42-3.09-3.26-3.43,0,0,.15-.12.52-.12,2.41,0,10.11,3,13.13,9.76C831.17,287.4,831.49,290.25,831.23,290.5Z"/><path d="M816.82,275h0c2.39,0,10,3,13,9.68a14.27,14.27,0,0,1,1.34,5.56,34.32,34.32,0,0,1-3.08-4.63c-.85-1.38-1.3-2.21-1.6-2.76a5.31,5.31,0,0,0-1.05-1.52,6.21,6.21,0,0,0-2.84-1.62,9.7,9.7,0,0,1-2.94-1.43,10.57,10.57,0,0,1-3.2-3.24,1,1,0,0,1,.37,0m0-.29c-.36,0-.58.07-.65.2-.25.52,1.72,2.49,3.3,3.62,2.64,1.88,3.86,1.15,5.74,3,.8.8.63,1,2.61,4.22,1.67,2.74,3,4.84,3.42,4.84l.06,0c.44-.24-.05-3.43-1.22-6-3.08-6.89-10.93-9.85-13.26-9.85Z"/><path d="M809.23,360.81c-.48-.41-2-2-5-5.36a1.11,1.11,0,0,1-.25-.95l1.95-9.38a1.09,1.09,0,0,1,1.4-.82,24.59,24.59,0,0,0,7.36,1c.49,0,1,0,1.52,0h0a1.13,1.13,0,0,1,.88.38,1.08,1.08,0,0,1,.26.87l-1.44,10.24a1.09,1.09,0,0,1-.53.79A38.22,38.22,0,0,1,809.23,360.81Z"/><path d="M807,345.14h.06a25.46,25.46,0,0,0,7.62,1.09q.77,0,1.58,0a.21.21,0,0,1,.17.08.2.2,0,0,1,0,.17L815,356.68a.21.21,0,0,1-.1.15,53.62,53.62,0,0,1-5.5,3c-.67-.66-2.07-2.13-4.54-4.92a.21.21,0,0,1,0-.18l1.95-9.38a.21.21,0,0,1,.2-.17m0-1.77a2,2,0,0,0-1.93,1.58l-1.95,9.38a2,2,0,0,0,.45,1.71c1.44,1.63,4.8,5.39,5.4,5.67l.12,0c.92,0,5-2.34,6.74-3.38a2,2,0,0,0,1-1.43l1.44-10.24a2,2,0,0,0-2-2.25h-.1q-.76,0-1.48,0a23.61,23.61,0,0,1-7.09-1,2,2,0,0,0-.6-.09Z"/><path class="cls-14" d="M767.44,338.61a5.26,5.26,0,0,0-1,9.16c18.37,12.85,34.68,9.44,45.12,4.31a57.15,57.15,0,0,0,18-14.06,5.26,5.26,0,0,0-8.22-6.57h0a47.09,47.09,0,0,1-14.69,11.33c-11.4,5.47-22.89,4.25-34.15-3.63A5.26,5.26,0,0,0,767.44,338.61Z"/><rect class="cls-28" x="714.44" y="390.88" height="72" transform="translate(1428.88 853.76) rotate(180)"/><rect class="cls-29" x="702.99" y="408.72" width="32" height="59.33"/><polygon class="cls-29" points="693.33 417.55 702.99 408.72 734.99 408.72 725.33 417.55 693.33 417.55"/><polygon class="cls-29" points="693.33 476.88 702.99 468.05 734.99 468.05 725.33 476.88 693.33 476.88"/><rect class="cls-29" x="693.33" y="417.55" width="32" height="59.33"/><circle class="cls-30" cx="709.33" cy="435.05" r="7.83"/><circle class="cls-30" cx="709.33" cy="456.05" r="5.54"/><polyline class="cls-31" points="701.52 312.73 701.52 299.24 710.83 295.07 710.83 306.95"/><ellipse class="cls-32" cx="708.8" cy="308.45" rx="2.73" ry="1.48" transform="translate(-10.5 591.54) rotate(-45)"/><ellipse class="cls-32" cx="720.36" cy="294.96" rx="2.73" ry="1.48" transform="translate(2.42 595.76) rotate(-45)"/><ellipse class="cls-32" cx="699.49" cy="313.9" rx="2.73" ry="1.48" transform="translate(-17.09 586.56) rotate(-45)"/><polyline class="cls-31" points="730.73 315.94 730.73 302.45 740.04 298.28 740.04 310.16"/><ellipse class="cls-32" cx="738.02" cy="311.66" rx="2.73" ry="1.48" transform="translate(-4.21 613.14) rotate(-45)"/><ellipse class="cls-32" cx="728.71" cy="317.11" rx="2.73" ry="1.48" transform="translate(-10.8 608.15) rotate(-45)"/><line class="cls-33" x1="722.53" y1="294.04" x2="722.39" y2="281.59"/><ellipse class="cls-32" cx="746.36" cy="275.7" rx="2.73" ry="1.48" transform="translate(23.65 608.51) rotate(-45)"/><polyline class="cls-31" points="748.53 274.78 748.39 262.32 752.24 259.76"/></g><path class="cls-2" d="M975.52,469.11h.24c.29,0,.43-.16.43-.48-.16,0-.24-.06-.24-.19a1.83,1.83,0,0,1,.72-.24V468h-.24A1.09,1.09,0,0,0,975.52,469.11Z"/><path class="cls-2" d="M888.31,440.3l.48-.72-2.06-.19A1.53,1.53,0,0,0,888.31,440.3Z"/><rect class="cls-2" x="639.56" y="486.71" width="1.53" height="0.72"/><path class="cls-2" d="M986.4,415.57h1.15q-.33-1.53-2.3-1.53h-.38Q984.87,414.67,986.4,415.57Z"/><polygon class="cls-2" points="711.31 521.6 710.54 521.21 709.77 522.41 710.54 522.84 711.31 521.6"/><path class="cls-2" d="M714.42,521.21q-.34,0-.34.38a4.91,4.91,0,0,0-2.34-.72q0,1,3.06,1.53h.81Q715.61,521.84,714.42,521.21Z"/><path class="cls-2" d="M937.84,454.57a3.26,3.26,0,0,1,1.25-.38v-.82c-.33.13-.67.24-1,.36Z"/><path class="cls-2" d="M866.34,390.26v.33c.06.42.27.62.62.62v-.34A.55.55,0,0,0,866.34,390.26Z"/><path class="cls-2" d="M808.51,466h.57v-.34q0-.43-.91-1h-.62Q808.08,466,808.51,466Z"/><path class="cls-2" d="M1035,464.16l-1.53.29,1.2,1.25q2.15-.57,2.15-1.25l-1.53-.29Z"/><path class="cls-2" d="M956.08,488.78v.33a1.09,1.09,0,0,0,.07.24h.55A.54.54,0,0,0,956.08,488.78Z"/><path class="cls-2" d="M652.28,478.78l-.34.62V480h.34a.62.62,0,0,0,0-1.25Z"/><path class="cls-2" d="M929.7,433.12q-.19,0-1.48-1.53c-.45.06-.67.26-.67.57v.62q.72,0,1.87,1.2h.29l-.29-.62C929.61,433.36,929.7,433.28,929.7,433.12Z"/><path class="cls-2" d="M789.29,454.08q0,.43.91.86h.91l.29-1.48h-.29A2.57,2.57,0,0,1,789.29,454.08Z"/><path class="cls-2" d="M872.7,390.6v.62h-.91l-1.2-1v.33a4.34,4.34,0,0,0,2.39,1.2.3.3,0,0,1,.34-.33,2,2,0,0,1-.34-.86Z"/><path class="cls-2" d="M956.71,489.73v-.33s0,0,0,0h-.55A.55.55,0,0,0,956.71,489.73Z"/><path class="cls-2" d="M637.19,515.31h.29l.34-.62v-.33h-.34A2.25,2.25,0,0,1,637.19,515.31Z"/><path class="cls-2" d="M863,394.57a12.65,12.65,0,0,0,2.78.53v-.53a16.43,16.43,0,0,1-2.49-.67Z"/><path class="cls-2" d="M782.22,464.08H781a.65.65,0,0,0,.67.57h.53Z"/><path class="cls-2" d="M1043.19,435.49h.29a3.07,3.07,0,0,1,.91-.19v-.41h-.29A1.28,1.28,0,0,0,1043.19,435.49Z"/></g></g></g></svg>