<svg xmlns="http://www.w3.org/2000/svg" xmlns:xlink="http://www.w3.org/1999/xlink" viewBox="0 0 762.24 537.09"><defs><style>.cls-1,.cls-15,.cls-22,.cls-23,.cls-32,.cls-33,.cls-36{fill:none;}.cls-11,.cls-12,.cls-13,.cls-14,.cls-2,.cls-20,.cls-21,.cls-27,.cls-29,.cls-30,.cls-8,.cls-9{fill:#fff;}.cls-3{fill:#88aeea;}.cls-4{fill:#efe8aa;}.cls-5{fill:#80d692;}.cls-6{fill:url(#New_Pattern_2);}.cls-7{fill:#06aee5;}.cls-10,.cls-11,.cls-12,.cls-13,.cls-14,.cls-15,.cls-16,.cls-19,.cls-20,.cls-21,.cls-22,.cls-23,.cls-24,.cls-25,.cls-26,.cls-27,.cls-28,.cls-29,.cls-30,.cls-31,.cls-32,.cls-33,.cls-34,.cls-36,.cls-37,.cls-38,.cls-8,.cls-9{stroke:#000;}.cls-10,.cls-11,.cls-13,.cls-15,.cls-16,.cls-21,.cls-23,.cls-29,.cls-30,.cls-32,.cls-36,.cls-38,.cls-8,.cls-9{stroke-linecap:round;}.cls-10,.cls-12,.cls-13,.cls-16,.cls-19,.cls-20,.cls-21,.cls-22,.cls-23,.cls-24,.cls-25,.cls-26,.cls-28,.cls-30,.cls-33,.cls-34,.cls-36,.cls-38,.cls-8,.cls-9{stroke-linejoin:round;}.cls-10,.cls-8{stroke-width:4.37px;}.cls-9{stroke-width:4.74px;}.cls-11,.cls-14,.cls-15,.cls-27,.cls-29,.cls-31,.cls-32,.cls-35,.cls-37{stroke-miterlimit:10;}.cls-11,.cls-12,.cls-13,.cls-14,.cls-15,.cls-16{stroke-width:1.55px;}.cls-17{fill:#ef8269;}.cls-18{fill:url(#New_Pattern_2-3);}.cls-19,.cls-20,.cls-21,.cls-23,.cls-33,.cls-35{stroke-width:1.6px;}.cls-22{stroke-width:1.69px;}.cls-24{stroke-width:0.39px;}.cls-25{stroke-width:1.11px;}.cls-26{stroke-width:0.39px;}.cls-27,.cls-28,.cls-29,.cls-30,.cls-31,.cls-32{stroke-width:1.6px;}.cls-34{stroke-width:0.97px;}.cls-35{stroke:#fff;}.cls-36,.cls-37,.cls-38{stroke-width:1.75px;}</style><pattern id="New_Pattern_2" data-name="New Pattern 2" width="105" height="70" patternTransform="translate(152.87 41.43) scale(0.73 0.82)" patternUnits="userSpaceOnUse" viewBox="0 0 105 70"><rect class="cls-1" width="105" height="70"/><path class="cls-2" d="M81.45,68.86V69h.41a1.3,1.3,0,0,1,.2-.57h-.2Q81.45,68.54,81.45,68.86Z"/><path class="cls-2" d="M99,68.94h1.3v-.38l-.46-.31H99Z"/><path d="M102,62.87c0-.46-.22-.69-.65-.69l-.37.69v.37h1Z"/><path class="cls-2" d="M100.31,68.25h-.46l.46.31Z"/><path d="M95.8,68.64l.2-.53v-.24h-.73v.24C95.3,68.46,95.48,68.64,95.8,68.64Z"/><path d="M2.53,56.77h1q-.28-1.3-2-1.3H1.23Q1.23,56,2.53,56.77Z"/><polygon points="5.52 68.25 4.87 67.93 4.22 68.94 4.87 69.31 5.52 68.25"/><path d="M8.16,67.93q-.29,0-.29.33a4.17,4.17,0,0,0-2-.61q0,.81,2.6,1.3h.69Q9.18,68.46,8.16,67.93Z"/><path d="M27.26,68.44a2.77,2.77,0,0,1,1.06-.32v-.7l-.86.3Z"/><rect class="cls-2" x="15.03" y="64.49" width="0.45" height="0.81"/><path class="cls-2" d="M7.79,68.39c0,.33.19.49.49.49h.24V68.6a1.89,1.89,0,0,1-.24-.73A.47.47,0,0,0,7.79,68.39Z"/><path class="cls-2" d="M16.82,60.91v-.29h-.53v.73C16.64,61.36,16.82,61.21,16.82,60.91Z"/><path class="cls-2" d="M12.18,58.07h.49v-.29q0-.36-.77-.81h-.53Q11.82,58.07,12.18,58.07Z"/><path class="cls-2" d="M12.18,61.36h-.53l-.28,1.1Q11.82,62.46,12.18,61.36Z"/><path class="cls-2" d="M19.13,62.17v-.24H18.4q-.41,0-.81.77l.53.24Q19.13,62.54,19.13,62.17Z"/><path class="cls-2" d="M7,57.78v.53q.37,0,.81-.77v-.28H7.51C7.16,57.34,7,57.51,7,57.78Z"/><path class="cls-2" d="M2.59,61.93H1.82v.77Q2.22,62.7,2.59,61.93Z"/><path class="cls-2" d="M8,61.93H6.49v.24q.16,0,1.54.29Z"/><path class="cls-2" d="M4.66,61.65q0,.37.77.81h.24a.47.47,0,0,0,.53-.53l-.53-.28Z"/><path d="M21,62.7h.73l1.3-.24v-.53q0-.24-1.79-1.58c0,.19-.08.28-.24.28l.24.53v1Z"/><path d="M27.67,62.95h.24a1.87,1.87,0,0,1,.77-.24v-.53h-.24Q28.08,62.17,27.67,62.95Z"/><path class="cls-2" d="M88.49,2.6q0-.49-1-1.06V2.6a3.14,3.14,0,0,1,1,.24Z"/><path class="cls-2" d="M90.42,16.32l.37-.69v-.33h-1v.33Q89.89,16.32,90.42,16.32Z"/><path class="cls-2" d="M103.28,3.21c0-.33-.43-.65-1.3-1q-2,.77-2,1.3a2.11,2.11,0,0,1,1,.37A19.92,19.92,0,0,1,103.28,3.21Z"/><path class="cls-1" d="M104.62,3.54l.6-.12-.46-.59h-.15Z"/><path class="cls-1" d="M103.61,6.83a2.78,2.78,0,0,1,1-.33.58.58,0,0,0-.65-.65c-.46.05-.69.27-.69.65A.29.29,0,0,1,103.61,6.83Z"/><path class="cls-2" d="M89.5,12.11a2.07,2.07,0,0,1,.94-.37q0-.73-2.93-1.3v.37A2.16,2.16,0,0,0,89.5,12.11Z"/><path class="cls-1" d="M83.44,4.53v.61h.61q0-1,.69-1V3.84h-1Z"/><path class="cls-2" d="M88.18,15.63v-.33H87.12v1h.37A.61.61,0,0,0,88.18,15.63Z"/><path class="cls-2" d="M88.81,6.5c.08.43.31.65.69.65l1.63-.33a2.5,2.5,0,0,0,1,.33V6.83l-.33-.69A14.86,14.86,0,0,1,88.81,6.5Z"/><path d="M99.48,10h.65q.45,0,1-1.06l-.37-.61A1.6,1.6,0,0,0,99.48,10Z"/><path d="M89.95,8q-.61.12-.61.65v.65l2,.33.28-.69L90.27,8Z"/><path d="M106.29,3.21,106,2.6a3.77,3.77,0,0,1-1.2.23l.46.59Z"/><path class="cls-2" d="M104.26,6.65H104c-.38,0-.57.2-.57.53v.49h.28c.35,0,.53-.16.53-.49a.22.22,0,0,1-.24-.24C104.18,6.93,104.26,6.84,104.26,6.65Z"/><path class="cls-2" d="M102.71,2.78l-.28.49h.77A.43.43,0,0,0,102.71,2.78Z"/><path class="cls-2" d="M102.18,12.58l.24-.53v-1.3l1-.24V10a4.42,4.42,0,0,0-3.29,1.75A6.07,6.07,0,0,0,102.18,12.58Z"/><path class="cls-2" d="M36,37.6q0-.49-1-1.06V37.6a3.14,3.14,0,0,1,1,.24Z"/><path class="cls-2" d="M29,33.86V34h.41a1.3,1.3,0,0,1,.2-.57h-.2Q29,33.54,29,33.86Z"/><path class="cls-2" d="M67,53.35q0,.28.57.61l.2-.41-.41-.2Z"/><path class="cls-2" d="M63.22,54l.41-.61-1.75-.16A1.3,1.3,0,0,0,63.22,54Z"/><path class="cls-2" d="M37.92,51.32l.37-.69v-.33h-1v.33Q37.39,51.32,37.92,51.32Z"/><path class="cls-2" d="M46.51,33.94h1.3v-.38l-.46-.31h-.84Z"/><path class="cls-2" d="M50.78,38.21c0-.33-.43-.65-1.3-1q-2,.77-2,1.3a2.11,2.11,0,0,1,1,.37A19.92,19.92,0,0,1,50.78,38.21Z"/><path class="cls-1" d="M52.12,38.54l.6-.12-.46-.59h-.15Z"/><path class="cls-1" d="M51.11,41.83a2.78,2.78,0,0,1,1-.33.58.58,0,0,0-.65-.65c-.46.05-.69.27-.69.65A.29.29,0,0,1,51.11,41.83Z"/><path class="cls-2" d="M37,47.11a2.07,2.07,0,0,1,.94-.37q0-.73-2.93-1.3v.37A2.16,2.16,0,0,0,37,47.11Z"/><path class="cls-1" d="M30.94,39.53v.61h.61q0-1,.69-1v-.33h-1Z"/><path class="cls-2" d="M66.47,51v.33a.66.66,0,0,0,.69.61h.93q.69,0,.69-.61l-1.38-.69A2.07,2.07,0,0,1,66.47,51Z"/><path class="cls-2" d="M35.68,50.63v-.33H34.62v1H35A.61.61,0,0,0,35.68,50.63Z"/><path class="cls-2" d="M36.31,41.5c.08.43.31.65.69.65l1.63-.33a2.5,2.5,0,0,0,1,.33v-.33l-.33-.69A14.86,14.86,0,0,1,36.31,41.5Z"/><rect x="56.53" y="47.73" width="1.3" height="0.61"/><path d="M47,45h.65q.45,0,1-1.06l-.37-.61A1.6,1.6,0,0,0,47,45Z"/><path d="M37.45,43q-.61.12-.61.65v.65l2,.33.28-.69L37.77,43Z"/><path d="M67.31,44.88l-.69-.37h-.28c-.46.11-.69.34-.69.69v.28a2.26,2.26,0,0,1,1,.33Z"/><path d="M55,21.77h1q-.28-1.3-2-1.3h-.33Q53.73,21,55,21.77Z"/><polygon points="58.02 33.25 57.37 32.93 56.72 33.94 57.37 34.31 58.02 33.25"/><path d="M49.54,27.87c0-.46-.22-.69-.65-.69l-.37.69v.37h1Z"/><path d="M60.66,32.93q-.29,0-.29.33a4.17,4.17,0,0,0-2-.61q0,.81,2.6,1.3h.69Q61.68,33.46,60.66,32.93Z"/><path d="M79.76,33.44a2.77,2.77,0,0,1,1.06-.32v-.7l-.86.3Z"/><path d="M63.67,36.91l-.37.69h1Q64.28,36.91,63.67,36.91Z"/><path class="cls-2" d="M47.81,33.25h-.46l.46.31Z"/><path d="M53.79,38.21l-.33-.61a3.77,3.77,0,0,1-1.2.23l.46.59Z"/><rect class="cls-2" x="67.53" y="29.49" width="0.45" height="0.81"/><path class="cls-2" d="M60.29,33.39c0,.33.19.49.49.49H61V33.6a1.89,1.89,0,0,1-.24-.73A.47.47,0,0,0,60.29,33.39Z"/><path class="cls-2" d="M69.32,25.91v-.29h-.53v.73C69.14,26.36,69.32,26.21,69.32,25.91Z"/><path class="cls-2" d="M52.53,54.29v.28c.05.35.23.53.53.53v-.29A.47.47,0,0,0,52.53,54.29Z"/><path class="cls-2" d="M64.68,23.07h.49v-.29q0-.36-.77-.81h-.53Q64.32,23.07,64.68,23.07Z"/><path class="cls-2" d="M64.68,26.36h-.53l-.28,1.1Q64.32,27.46,64.68,26.36Z"/><path class="cls-2" d="M51.76,41.65h-.24c-.38,0-.57.2-.57.53v.49h.28c.35,0,.53-.16.53-.49a.22.22,0,0,1-.24-.24C51.68,41.93,51.76,41.84,51.76,41.65Z"/><path class="cls-2" d="M71.63,27.17v-.24H70.9q-.41,0-.81.77l.53.24Q71.63,27.54,71.63,27.17Z"/><path class="cls-2" d="M50.21,37.78l-.28.49h.77A.43.43,0,0,0,50.21,37.78Z"/><path class="cls-2" d="M49.68,47.58l.24-.53v-1.3l1-.24V45a4.42,4.42,0,0,0-3.29,1.75A6.07,6.07,0,0,0,49.68,47.58Z"/><path class="cls-2" d="M59.48,22.78v.53q.37,0,.81-.77v-.28H60C59.66,22.34,59.48,22.51,59.48,22.78Z"/><path class="cls-2" d="M67.24,43.68l-.29.53v.53h.29a.53.53,0,0,0,0-1.06Z"/><path class="cls-2" d="M64.4,47.87q-.16,0-1.26-1.3c-.38.05-.57.22-.57.49v.53q.61,0,1.58,1h.24l-.24-.53C64.32,48.07,64.4,48,64.4,47.87Z"/><path class="cls-2" d="M72.16,45q0,.37.77.73h.77L74,44.49h-.24A2.18,2.18,0,0,1,72.16,45Z"/><path class="cls-2" d="M59.77,48.07v.29q.08.53.53.53h.49v-1a1.69,1.69,0,0,1-.77-.29Z"/><path class="cls-2" d="M76,44.74l-.24.49a.54.54,0,0,0,.37.5v-1Z"/><path class="cls-2" d="M55.62,49.41l-.53.73v.28l.24.49a1.4,1.4,0,0,0,1.1-1Z"/><path class="cls-2" d="M55.09,26.93h-.77v.77Q54.72,27.7,55.09,26.93Z"/><path class="cls-2" d="M55.09,35.71H54.6q-.57,0-.81,1.26h.81l.73-.53A1.88,1.88,0,0,1,55.09,35.71Z"/><path class="cls-2" d="M57.94,54.57v.53h-.77l-1-.81v.28a3.69,3.69,0,0,0,2,1,.25.25,0,0,1,.29-.28,1.69,1.69,0,0,1-.29-.73Z"/><path class="cls-2" d="M60.54,26.93H59v.24q.16,0,1.54.29Z"/><path class="cls-2" d="M57.16,26.65q0,.37.77.81h.24a.47.47,0,0,0,.53-.53l-.53-.28Z"/><path d="M43.3,33.64l.2-.53v-.24h-.73v.24C42.8,33.46,43,33.64,43.3,33.64Z"/><path d="M77.85,54v.28a1.9,1.9,0,0,1,1,.53h.28q.45,0,.45-.53L78.34,54Z"/><path d="M76.15,45.73l.16,0c.33,0,.49-.18.49-.53h-.49V45H77v-.28h-.89Z"/><path d="M73.46,27.7h.73l1.3-.24v-.53q0-.24-1.79-1.58c0,.19-.08.28-.24.28l.24.53v1Z"/><path d="M80.17,27.95h.24a1.87,1.87,0,0,1,.77-.24v-.53h-.24Q80.58,27.17,80.17,27.95Z"/><path class="cls-2" d="M14.46,18.35q0,.28.57.61l.2-.41-.41-.2Z"/><path class="cls-2" d="M10.72,19l.41-.61-1.75-.16A1.3,1.3,0,0,0,10.72,19Z"/><path class="cls-1" d="M-.38,3.54l.6-.12-.46-.59H-.38Z"/><path class="cls-2" d="M14,16v.33a.66.66,0,0,0,.69.61h.93q.69,0,.69-.61l-1.38-.69A2.07,2.07,0,0,1,14,16Z"/><rect x="4.03" y="12.73" width="1.3" height="0.61"/><path d="M14.81,9.88l-.69-.37h-.28c-.46.11-.69.34-.69.69v.28a2.26,2.26,0,0,1,1,.33Z"/><path d="M11.17,1.91l-.37.69h1Q11.78,1.91,11.17,1.91Z"/><path d="M1.29,3.21,1,2.6a3.77,3.77,0,0,1-1.2.23l.46.59Z"/><path class="cls-2" d="M0,19.29v.28c.05.35.23.53.53.53v-.29A.47.47,0,0,0,0,19.29Z"/><path class="cls-2" d="M14.74,8.68l-.29.53v.53h.29a.47.47,0,0,0,.53-.53A.47.47,0,0,0,14.74,8.68Z"/><path class="cls-2" d="M11.9,12.87q-.16,0-1.26-1.3c-.38.05-.57.22-.57.49v.53q.61,0,1.58,1h.24l-.24-.53C11.82,13.07,11.9,13,11.9,12.87Z"/><path class="cls-2" d="M19.66,10q0,.37.77.73h.77l.24-1.26h-.24A2.18,2.18,0,0,1,19.66,10Z"/><path class="cls-2" d="M7.27,13.07v.29q.08.53.53.53h.49v-1a1.69,1.69,0,0,1-.77-.29Z"/><path class="cls-2" d="M23.53,9.74l-.24.49a.54.54,0,0,0,.37.5v-1Z"/><path class="cls-2" d="M3.12,14.41l-.53.73v.28l.24.49a1.4,1.4,0,0,0,1.1-1Z"/><path class="cls-2" d="M2.59.71H2.1Q1.53.71,1.29,2H2.1l.73-.53A1.88,1.88,0,0,1,2.59.71Z"/><path class="cls-2" d="M5.44,19.57v.53H4.66l-1-.81v.28a3.69,3.69,0,0,0,2,1A.25.25,0,0,1,6,20.31a1.69,1.69,0,0,1-.29-.73Z"/><path d="M25.35,19v.28a1.9,1.9,0,0,1,1,.53h.28q.45,0,.45-.53L25.84,19Z"/><path d="M23.65,10.73l.16,0c.33,0,.49-.18.49-.53h-.49V10h.73V9.74h-.89Z"/></pattern><pattern id="New_Pattern_2-3" data-name="New Pattern 2" width="105" height="70" patternTransform="translate(91.47 20.39) scale(0.7 0.79)" patternUnits="userSpaceOnUse" viewBox="0 0 105 70"><rect class="cls-1" width="105" height="70"/><path class="cls-2" d="M81.45,68.86V69h.41a1.3,1.3,0,0,1,.2-.57h-.2Q81.45,68.54,81.45,68.86Z"/><path class="cls-2" d="M99,68.94h1.3v-.38l-.46-.31H99Z"/><path d="M102,62.87c0-.46-.22-.69-.65-.69l-.37.69v.37h1Z"/><path class="cls-2" d="M100.31,68.25h-.46l.46.31Z"/><path d="M95.8,68.64l.2-.53v-.24h-.73v.24C95.3,68.46,95.48,68.64,95.8,68.64Z"/><path d="M2.53,56.77h1q-.28-1.3-2-1.3H1.23Q1.23,56,2.53,56.77Z"/><polygon points="5.52 68.25 4.87 67.93 4.22 68.94 4.87 69.31 5.52 68.25"/><path d="M8.16,67.93q-.29,0-.29.33a4.17,4.17,0,0,0-2-.61q0,.81,2.6,1.3h.69Q9.18,68.46,8.16,67.93Z"/><path d="M27.26,68.44a2.77,2.77,0,0,1,1.06-.32v-.7l-.86.3Z"/><rect class="cls-2" x="15.03" y="64.49" width="0.45" height="0.81"/><path class="cls-2" d="M7.79,68.39c0,.33.19.49.49.49h.24V68.6a1.89,1.89,0,0,1-.24-.73A.47.47,0,0,0,7.79,68.39Z"/><path class="cls-2" d="M16.82,60.91v-.29h-.53v.73C16.64,61.36,16.82,61.21,16.82,60.91Z"/><path class="cls-2" d="M12.18,58.07h.49v-.29q0-.36-.77-.81h-.53Q11.82,58.07,12.18,58.07Z"/><path class="cls-2" d="M12.18,61.36h-.53l-.28,1.1Q11.82,62.46,12.18,61.36Z"/><path class="cls-2" d="M19.13,62.17v-.24H18.4q-.41,0-.81.77l.53.24Q19.13,62.54,19.13,62.17Z"/><path class="cls-2" d="M7,57.78v.53q.37,0,.81-.77v-.28H7.51C7.16,57.34,7,57.51,7,57.78Z"/><path class="cls-2" d="M2.59,61.93H1.82v.77Q2.22,62.7,2.59,61.93Z"/><path class="cls-2" d="M8,61.93H6.49v.24q.16,0,1.54.29Z"/><path class="cls-2" d="M4.66,61.65q0,.37.77.81h.24a.47.47,0,0,0,.53-.53l-.53-.28Z"/><path d="M21,62.7h.73l1.3-.24v-.53q0-.24-1.79-1.58c0,.19-.08.28-.24.28l.24.53v1Z"/><path d="M27.67,62.95h.24a1.87,1.87,0,0,1,.77-.24v-.53h-.24Q28.08,62.17,27.67,62.95Z"/><path class="cls-2" d="M88.49,2.6q0-.49-1-1.06V2.6a3.14,3.14,0,0,1,1,.24Z"/><path class="cls-2" d="M90.42,16.32l.37-.69v-.33h-1v.33Q89.89,16.32,90.42,16.32Z"/><path class="cls-2" d="M103.28,3.21c0-.33-.43-.65-1.3-1q-2,.77-2,1.3a2.11,2.11,0,0,1,1,.37A19.92,19.92,0,0,1,103.28,3.21Z"/><path class="cls-1" d="M104.62,3.54l.6-.12-.46-.59h-.15Z"/><path class="cls-1" d="M103.61,6.83a2.78,2.78,0,0,1,1-.33.58.58,0,0,0-.65-.65c-.46.05-.69.27-.69.65A.29.29,0,0,1,103.61,6.83Z"/><path class="cls-2" d="M89.5,12.11a2.07,2.07,0,0,1,.94-.37q0-.73-2.93-1.3v.37A2.16,2.16,0,0,0,89.5,12.11Z"/><path class="cls-1" d="M83.44,4.53v.61h.61q0-1,.69-1V3.84h-1Z"/><path class="cls-2" d="M88.18,15.63v-.33H87.12v1h.37A.61.61,0,0,0,88.18,15.63Z"/><path class="cls-2" d="M88.81,6.5c.08.43.31.65.69.65l1.63-.33a2.5,2.5,0,0,0,1,.33V6.83l-.33-.69A14.86,14.86,0,0,1,88.81,6.5Z"/><path d="M99.48,10h.65q.45,0,1-1.06l-.37-.61A1.6,1.6,0,0,0,99.48,10Z"/><path d="M89.95,8q-.61.12-.61.65v.65l2,.33.28-.69L90.27,8Z"/><path d="M106.29,3.21,106,2.6a3.77,3.77,0,0,1-1.2.23l.46.59Z"/><path class="cls-2" d="M104.26,6.65H104c-.38,0-.57.2-.57.53v.49h.28c.35,0,.53-.16.53-.49a.22.22,0,0,1-.24-.24C104.18,6.93,104.26,6.84,104.26,6.65Z"/><path class="cls-2" d="M102.71,2.78l-.28.49h.77A.43.43,0,0,0,102.71,2.78Z"/><path class="cls-2" d="M102.18,12.58l.24-.53v-1.3l1-.24V10a4.42,4.42,0,0,0-3.29,1.75A6.07,6.07,0,0,0,102.18,12.58Z"/><path class="cls-2" d="M36,37.6q0-.49-1-1.06V37.6a3.14,3.14,0,0,1,1,.24Z"/><path class="cls-2" d="M29,33.86V34h.41a1.3,1.3,0,0,1,.2-.57h-.2Q29,33.54,29,33.86Z"/><path class="cls-2" d="M67,53.35q0,.28.57.61l.2-.41-.41-.2Z"/><path class="cls-2" d="M63.22,54l.41-.61-1.75-.16A1.3,1.3,0,0,0,63.22,54Z"/><path class="cls-2" d="M37.92,51.32l.37-.69v-.33h-1v.33Q37.39,51.32,37.92,51.32Z"/><path class="cls-2" d="M46.51,33.94h1.3v-.38l-.46-.31h-.84Z"/><path class="cls-2" d="M50.78,38.21c0-.33-.43-.65-1.3-1q-2,.77-2,1.3a2.11,2.11,0,0,1,1,.37A19.92,19.92,0,0,1,50.78,38.21Z"/><path class="cls-1" d="M52.12,38.54l.6-.12-.46-.59h-.15Z"/><path class="cls-1" d="M51.11,41.83a2.78,2.78,0,0,1,1-.33.58.58,0,0,0-.65-.65c-.46.05-.69.27-.69.65A.29.29,0,0,1,51.11,41.83Z"/><path class="cls-2" d="M37,47.11a2.07,2.07,0,0,1,.94-.37q0-.73-2.93-1.3v.37A2.16,2.16,0,0,0,37,47.11Z"/><path class="cls-1" d="M30.94,39.53v.61h.61q0-1,.69-1v-.33h-1Z"/><path class="cls-2" d="M66.47,51v.33a.66.66,0,0,0,.69.61h.93q.69,0,.69-.61l-1.38-.69A2.07,2.07,0,0,1,66.47,51Z"/><path class="cls-2" d="M35.68,50.63v-.33H34.62v1H35A.61.61,0,0,0,35.68,50.63Z"/><path class="cls-2" d="M36.31,41.5c.08.43.31.65.69.65l1.63-.33a2.5,2.5,0,0,0,1,.33v-.33l-.33-.69A14.86,14.86,0,0,1,36.31,41.5Z"/><rect x="56.53" y="47.73" width="1.3" height="0.61"/><path d="M47,45h.65q.45,0,1-1.06l-.37-.61A1.6,1.6,0,0,0,47,45Z"/><path d="M37.45,43q-.61.12-.61.65v.65l2,.33.28-.69L37.77,43Z"/><path d="M67.31,44.88l-.69-.37h-.28c-.46.11-.69.34-.69.69v.28a2.26,2.26,0,0,1,1,.33Z"/><path d="M55,21.77h1q-.28-1.3-2-1.3h-.33Q53.73,21,55,21.77Z"/><polygon points="58.02 33.25 57.37 32.93 56.72 33.94 57.37 34.31 58.02 33.25"/><path d="M49.54,27.87c0-.46-.22-.69-.65-.69l-.37.69v.37h1Z"/><path d="M60.66,32.93q-.29,0-.29.33a4.17,4.17,0,0,0-2-.61q0,.81,2.6,1.3h.69Q61.68,33.46,60.66,32.93Z"/><path d="M79.76,33.44a2.77,2.77,0,0,1,1.06-.32v-.7l-.86.3Z"/><path d="M63.67,36.91l-.37.69h1Q64.28,36.91,63.67,36.91Z"/><path class="cls-2" d="M47.81,33.25h-.46l.46.31Z"/><path d="M53.79,38.21l-.33-.61a3.77,3.77,0,0,1-1.2.23l.46.59Z"/><rect class="cls-2" x="67.53" y="29.49" width="0.45" height="0.81"/><path class="cls-2" d="M60.29,33.39c0,.33.19.49.49.49H61V33.6a1.89,1.89,0,0,1-.24-.73A.47.47,0,0,0,60.29,33.39Z"/><path class="cls-2" d="M69.32,25.91v-.29h-.53v.73C69.14,26.36,69.32,26.21,69.32,25.91Z"/><path class="cls-2" d="M52.53,54.29v.28c.05.35.23.53.53.53v-.29A.47.47,0,0,0,52.53,54.29Z"/><path class="cls-2" d="M64.68,23.07h.49v-.29q0-.36-.77-.81h-.53Q64.32,23.07,64.68,23.07Z"/><path class="cls-2" d="M64.68,26.36h-.53l-.28,1.1Q64.32,27.46,64.68,26.36Z"/><path class="cls-2" d="M51.76,41.65h-.24c-.38,0-.57.2-.57.53v.49h.28c.35,0,.53-.16.53-.49a.22.22,0,0,1-.24-.24C51.68,41.93,51.76,41.84,51.76,41.65Z"/><path class="cls-2" d="M71.63,27.17v-.24H70.9q-.41,0-.81.77l.53.24Q71.63,27.54,71.63,27.17Z"/><path class="cls-2" d="M50.21,37.78l-.28.49h.77A.43.43,0,0,0,50.21,37.78Z"/><path class="cls-2" d="M49.68,47.58l.24-.53v-1.3l1-.24V45a4.42,4.42,0,0,0-3.29,1.75A6.07,6.07,0,0,0,49.68,47.58Z"/><path class="cls-2" d="M59.48,22.78v.53q.37,0,.81-.77v-.28H60C59.66,22.34,59.48,22.51,59.48,22.78Z"/><path class="cls-2" d="M67.24,43.68l-.29.53v.53h.29a.53.53,0,0,0,0-1.06Z"/><path class="cls-2" d="M64.4,47.87q-.16,0-1.26-1.3c-.38.05-.57.22-.57.49v.53q.61,0,1.58,1h.24l-.24-.53C64.32,48.07,64.4,48,64.4,47.87Z"/><path class="cls-2" d="M72.16,45q0,.37.77.73h.77L74,44.49h-.24A2.18,2.18,0,0,1,72.16,45Z"/><path class="cls-2" d="M59.77,48.07v.29q.08.53.53.53h.49v-1a1.69,1.69,0,0,1-.77-.29Z"/><path class="cls-2" d="M76,44.74l-.24.49a.54.54,0,0,0,.37.5v-1Z"/><path class="cls-2" d="M55.62,49.41l-.53.73v.28l.24.49a1.4,1.4,0,0,0,1.1-1Z"/><path class="cls-2" d="M55.09,26.93h-.77v.77Q54.72,27.7,55.09,26.93Z"/><path class="cls-2" d="M55.09,35.71H54.6q-.57,0-.81,1.26h.81l.73-.53A1.88,1.88,0,0,1,55.09,35.71Z"/><path class="cls-2" d="M57.94,54.57v.53h-.77l-1-.81v.28a3.69,3.69,0,0,0,2,1,.25.25,0,0,1,.29-.28,1.69,1.69,0,0,1-.29-.73Z"/><path class="cls-2" d="M60.54,26.93H59v.24q.16,0,1.54.29Z"/><path class="cls-2" d="M57.16,26.65q0,.37.77.81h.24a.47.47,0,0,0,.53-.53l-.53-.28Z"/><path d="M43.3,33.64l.2-.53v-.24h-.73v.24C42.8,33.46,43,33.64,43.3,33.64Z"/><path d="M77.85,54v.28a1.9,1.9,0,0,1,1,.53h.28q.45,0,.45-.53L78.34,54Z"/><path d="M76.15,45.73l.16,0c.33,0,.49-.18.49-.53h-.49V45H77v-.28h-.89Z"/><path d="M73.46,27.7h.73l1.3-.24v-.53q0-.24-1.79-1.58c0,.19-.08.28-.24.28l.24.53v1Z"/><path d="M80.17,27.95h.24a1.87,1.87,0,0,1,.77-.24v-.53h-.24Q80.58,27.17,80.17,27.95Z"/><path class="cls-2" d="M14.46,18.35q0,.28.57.61l.2-.41-.41-.2Z"/><path class="cls-2" d="M10.72,19l.41-.61-1.75-.16A1.3,1.3,0,0,0,10.72,19Z"/><path class="cls-1" d="M-.38,3.54l.6-.12-.46-.59H-.38Z"/><path class="cls-2" d="M14,16v.33a.66.66,0,0,0,.69.61h.93q.69,0,.69-.61l-1.38-.69A2.07,2.07,0,0,1,14,16Z"/><rect x="4.03" y="12.73" width="1.3" height="0.61"/><path d="M14.81,9.88l-.69-.37h-.28c-.46.11-.69.34-.69.69v.28a2.26,2.26,0,0,1,1,.33Z"/><path d="M11.17,1.91l-.37.69h1Q11.78,1.91,11.17,1.91Z"/><path d="M1.29,3.21,1,2.6a3.77,3.77,0,0,1-1.2.23l.46.59Z"/><path class="cls-2" d="M0,19.29v.28c.05.35.23.53.53.53v-.29A.47.47,0,0,0,0,19.29Z"/><path class="cls-2" d="M14.74,8.68l-.29.53v.53h.29a.47.47,0,0,0,.53-.53A.47.47,0,0,0,14.74,8.68Z"/><path class="cls-2" d="M11.9,12.87q-.16,0-1.26-1.3c-.38.05-.57.22-.57.49v.53q.61,0,1.58,1h.24l-.24-.53C11.82,13.07,11.9,13,11.9,12.87Z"/><path class="cls-2" d="M19.66,10q0,.37.77.73h.77l.24-1.26h-.24A2.18,2.18,0,0,1,19.66,10Z"/><path class="cls-2" d="M7.27,13.07v.29q.08.53.53.53h.49v-1a1.69,1.69,0,0,1-.77-.29Z"/><path class="cls-2" d="M23.53,9.74l-.24.49a.54.54,0,0,0,.37.5v-1Z"/><path class="cls-2" d="M3.12,14.41l-.53.73v.28l.24.49a1.4,1.4,0,0,0,1.1-1Z"/><path class="cls-2" d="M2.59.71H2.1Q1.53.71,1.29,2H2.1l.73-.53A1.88,1.88,0,0,1,2.59.71Z"/><path class="cls-2" d="M5.44,19.57v.53H4.66l-1-.81v.28a3.69,3.69,0,0,0,2,1A.25.25,0,0,1,6,20.31a1.69,1.69,0,0,1-.29-.73Z"/><path d="M25.35,19v.28a1.9,1.9,0,0,1,1,.53h.28q.45,0,.45-.53L25.84,19Z"/><path d="M23.65,10.73l.16,0c.33,0,.49-.18.49-.53h-.49V10h.73V9.74h-.89Z"/></pattern></defs><title>header-img_2</title><g id="Layer_2" data-name="Layer 2"><g id="HOME"><path class="cls-2" d="M389.44,531.25H391v-.44l-.54-.37h-1Z"/><path class="cls-2" d="M394.46,536.28c0-.38-.51-.77-1.53-1.15q-2.35.91-2.34,1.53a2.48,2.48,0,0,1,1.2.43A23.45,23.45,0,0,1,394.46,536.28Z"/><path class="cls-1" d="M396,536.66l.71-.14-.54-.69-.17,0Z"/><path class="cls-2" d="M390,532.1c0-.54-.26-.81-.77-.81l-.43.81v.43H390Z"/><path class="cls-2" d="M391,525.44h-.54l.54.37Z"/><path class="cls-2" d="M398,536.28l-.38-.72a4.44,4.44,0,0,1-1.41.27l.54.69Z"/><rect class="cls-2" x="293.66" y="529.09" width="0.7" height="0.51"/><path class="cls-1" d="M283.22,237.53c.49,0,1,.06,1.51.06s1,0,1.51-.06Z"/><path class="cls-1" d="M407.36,237.53c.49,0,1,.06,1.51.06s1,0,1.51-.06Z"/><path class="cls-1" d="M345.29,237.53c.49,0,1,.06,1.51.06s1,0,1.51-.06Z"/><path class="cls-1" d="M531.84,237.55l.35,0h-.7Z"/><path class="cls-1" d="M469.42,237.53c.49,0,1,.06,1.51.06s1,0,1.51-.06Z"/><path class="cls-1" d="M591.23,237.53c.49,0,1,.06,1.51.06s1,0,1.51-.06Z"/><path class="cls-3" d="M36.06,257.53H40.2c13.47-1.4,14.17-16.3,29-16.3s15.49,14.9,29,16.3h4.14c13.47-1.4,14.17-16.3,29-16.3s15.49,14.9,29,16.3h1.93c14-1,14.53-16.36,29.52-16.36s15.5,15.33,29.52,16.36h3c14-1,14.53-16.36,29.52-16.36s15.5,15.33,29.52,16.36h3c14-1,14.53-16.36,29.52-16.36s15.5,15.33,29.52,16.36h3c14-1,14.53-16.36,29.52-16.36s15.5,15.33,29.52,16.36h3c14-1,14.53-16.36,29.52-16.36s15.5,15.33,29.52,16.36h3c14-1,14.53-16.36,29.52-16.36s15.5,15.33,29.52,16.36h.7c14-1,14.53-16.36,29.52-16.36s15.5,15.33,29.52,16.36h3c14-1,14.53-16.36,29.52-16.36s15.5,15.33,29.52,16.36h3c14-1,14.53-16.36,29.52-16.36s15.5,15.33,29.52,16.36h3c14-1,14.53-16.36,29.52-16.36a16.55,16.55,0,0,1,8.94,2.41A28.17,28.17,0,0,0,762.22,226c-.76-17.07-13.84-31.5-31.5-31.5H658.55c-4.7-11.58-15.5-20-29-20h-18.1c7.94-5.81,13.37-15.05,12.91-25.19-.76-17.07-13.84-31.5-31.5-31.5H540.19c9.78-5.48,16.9-15.86,16.38-27.41-.76-17.07-13.84-31.5-31.5-31.5H485.72c9.78-5.48,16.9-15.86,16.38-27.41C501.34,14.43,488.26,0,470.6,0H228.28C211.8,0,196,14.49,196.78,31.5a33.29,33.29,0,0,0,16.16,27.41H119.34c-16.48,0-32.26,14.49-31.5,31.5s13.84,31.5,31.5,31.5h17.12c-9.78,5.48-16.9,15.86-16.38,27.41a33.64,33.64,0,0,0,12.83,25.19H90.44c-12.58,0-24.74,8.45-29.46,20H31.53C15,194.53-.74,209,0,226A34.51,34.51,0,0,0,4.4,241.41a19.64,19.64,0,0,1,2.69-.18C21.88,241.23,22.59,256.13,36.06,257.53Z"/><path class="cls-4" d="M477.44,214.57a130.28,130.28,0,0,1-7.25,43c-14.77-.52-15-16.4-30.28-16.4-15.52,0-15.52,16.41-31,16.41s-15.51-16.41-31-16.41-15.51,16.41-31,16.41-15.52-16.41-31-16.41-15.52,16.41-31,16.41-15.51-16.41-31-16.41c-15.27,0-15.52,15.88-30.28,16.4a130.64,130.64,0,1,1,254-43Z"/><path class="cls-1" d="M325.31,334.76c.4,0,.81,0,1.24,0s.84,0,1.24,0Z"/><g id="header-girl-platform"><path class="cls-5" d="M377.36,456.95c-4.19-8.8-12.32-10.33-20.31-11.54A94.06,94.06,0,0,1,339.66,441a55.58,55.58,0,0,1-8.46-6.32c-3.46-3.19-5.67-5.58-7.09-10.23a31.78,31.78,0,0,0-1.75-4.47,81,81,0,0,0-3.34-9.35c-.66-1.48-1.4-2.93-2.17-4.36a10.5,10.5,0,0,0-1.49-2.66c-1-1.73-2-3.44-3-5.13a10,10,0,0,0-4.45-4.09,28.27,28.27,0,0,0-9.44-5.46c-9.66-3.34-20.51-4.44-30.52-5.78s-20.32-1.61-30.48-2.41c-20-1.58-39.68-6-59.33-10.3-10.1-2.21-20.21-4.4-30.38-6.21s-20.53-3.69-30.84-3.56c-13.93.18-29,5.46-38.44,16.74-5.46,4.33-10.08,10.26-10.1,18a11,11,0,0,0-.55,3.74c.3,16.56,11,28.83,23,37,5.73,3.88,11.87,7.1,17.3,11.51,5,4.09,8.42,9.78,12.21,15.17,4.61,6.56,10,11.46,17,14.46,6.86,2.93,14.57,3.78,21.84,4.34a105.75,105.75,0,0,0,23.62-.91c7.91-1.16,15.48-3.44,23.23-5.45,14.89-3.86,29.14.8,43.25,6.15,14.49,5.49,28.64,12.13,43.42,16.61,13.63,4.13,28.08,6.45,42.19,4.64,13.51-1.73,29.31-6.83,38.56-18.74C379.2,476.56,381.65,466,377.36,456.95Z"/><path class="cls-6" d="M118,349.85h-1.2a67.11,67.11,0,0,0-29.09,6.94l4.86,9.68A55.79,55.79,0,0,1,112.06,361h0l.29,0h0l.24,0h.05l.19,0h.05l.19,0H118V349.85Zm-49.1,21.56C61.92,377.85,58,385.56,57.57,393.8a22.23,22.23,0,0,0-.6,5.6,49.47,49.47,0,0,0,.37,5.18l10.75-1.34q-.13-1.07-.21-2.17h0v0h0v0h0v0h0v0h0v0h0v0h0v0h0v0h0v0h0v-.5h0V400h0v0h0v0h0v0h0v0h0v0h0v-.5h0v0h0v0h0q0-.12,0-.23a10.9,10.9,0,0,1,.55-3.51h0v0h0v0h0v0h0v0h0v0h0v0h0v0h0v0h0v0h0v0h0v0h0V395h0v0h0v0h0v0h0v-.07h0v0h0v0h0v0h0v-.07h0v0h0v0h0v-.11h0v0h0v-.13h0a19.41,19.41,0,0,1,2.48-8.4h0l.12-.21h0l.12-.21h0l.08-.14h0l0-.07h0l.05-.09h0v0h0v0h0l0,0h0l0,0h0v0h0v0h0l0,0h0l0,0h0l0,0h0v0h0l0,0h0l0-.07h0v0h0v0h0l0-.05h0v0h0l0,0h0l0,0h0l0,0h.06l0,0h.13v0h.13v0h.06l0,0h.06l0,0h0l0,0h0l0,0h0l0-.05h0l.05-.07h0l0-.05h0l0-.05h0l.05-.07h0l.07-.08h0a30.75,30.75,0,0,1,3-3.2l-7.37-7.94ZM76,422.33l-8.7,6.46a71.54,71.54,0,0,0,17.44,16.33c1.84,1.25,3.66,2.4,5.36,3.45l5.72-9.2c-1-.61-2-1.23-2.94-1.86h0l0,0h-.1l0,0h0l-.13-.09h0l-1.55-1h0l0,0h0l0,0h0l0,0h-.07l0,0h0l0,0h-.23l0,0h0l0,0h0l-.12-.08h0l0,0h0l0,0h0l0,0h0l0,0h0l0,0h0l0,0h0a63.35,63.35,0,0,1-11.84-10.48h0l0,0h0l0,0h0l0,0h0l0,0h0l0,0h0l0,0h0l0,0h0l-.07-.08h0l0,0h0v0h0v-.1h0v0h0l0,0h0l0,0h0l0,0h0l-.08-.1h0l0,0h0l0,0h0l0,0h0l0,0h0l0,0h0q-.82-1-1.59-2Zm36.42,29.59L104.18,459a82.39,82.39,0,0,1,5.16,7c.7,1,1.4,2.05,2.12,3.07a55.76,55.76,0,0,0,10.71,11.63l6.78-8.45q-.77-.62-1.52-1.29h0l0,0h0l0,0h0l0,0h0l-.18-.16h0l0,0h0l0,0h0l0,0h0l0,0h0l-.14-.13h0l0,0h0l0,0h0l0,0h0l0,0h0l0,0h0l-.07-.07h0l0,0h0l0,0h0l0,0h0l0,0h0l0,0h0l0,0h0l0,0h0l0,0h0l0,0h0l0,0h0l0,0h0l0,0h0l0,0h0l0,0h0l0,0h0l0,0,0,0,0,0h0l0,0,0,0,0,0,0,0,0,0,0,0,0,0,0,0,0,0,0,0,0,0,0,0,0,0-.07-.07h0l0,0h0l0,0h0l0,0h0l0,0h0l0,0h0l0,0h0l-.11-.11h0l0,0h0l0,0h0l0,0h0l0,0h0l0,0h0l-.12-.12h0l0,0h0l0,0h0l0,0h0l0,0h0l0,0h0l-.18-.19h0l0,0h0l0,0h0l0,0h0l-.51-.56h0q-1.54-1.71-3-3.62h0l0,0h0l-.19-.26h0l0,0h0l0,0h0l0,0h0l0,0h0l-.11-.15h0l0,0h0l0,0h0l0,0h0l0,0h0l0,0h0l0,0h0l-.07-.09h0l0,0v0l0,0v0l0,0V463l0,0v0l0,0v0l0,0,0,0h0l0,0v0l0,0v0l0,0,0,0v0c-.62-.89-1.24-1.79-1.85-2.69-1-1.49-2-3-3.1-4.43h0l0-.06h0l-.09-.12h0l0,0h0l0,0h0l0-.06h0l0,0h0l0,0h0l0,0h0l0,0h0l0,0h0l0,0h0l0,0h0l0,0h0l0,0h0l0,0h0l0-.06h0l0,0h0l0,0h0l0,0h0l0,0h0c-.7-.94-1.43-1.85-2.18-2.73ZM148,480.34,146.07,491c4.32.77,8.64,1.16,12.29,1.45,2.78.22,5.63.33,8.47.33,2.66,0,5.39-.1,8.11-.29l-.76-10.81q-2.42.17-4.84.23h-2.51q-3.81,0-7.63-.29c-3.17-.25-6.42-.55-9.65-1h-1.08l-.51-.09Zm69.44-6.47a44.91,44.91,0,0,0-11.35,1.42h0l-.06,0h-.13l-.07,0h0l-2.39.63h-.29l-.51.14h0l-.21.06h-.08c-1.91.51-3.81,1-5.71,1.52h0l-.19.05h0l-.08,0h0l-.07,0h-.09l-.06,0h0l-.07,0h0l-1.17.3,2.65,10.5c2.24-.56,4.47-1.16,6.62-1.74l4.74-1.26a33.9,33.9,0,0,1,8.63-1.07c.81,0,1.65,0,2.49.08l.67-10.81-.89,0h-2.28Zm23.52,4.54-3.45,10.27c2.91,1,5.8,2.06,8,2.89,4.9,1.86,9.91,3.91,14.76,5.9l1.13.46,4.11-10-.93-.38-5.4-2.21h0l-.07,0,0,0-.11,0,0,0-.06,0-.05,0,0,0-.1,0h0l-.08,0h0l-.1,0h0l-.11,0h0l-.1,0h0l-.23-.09h0c-2.62-1.06-5.24-2.1-7.87-3.1h0l-.23-.09h0l-.11,0h0l-.11,0h0l-.1,0h0l-.11,0h0l-.06,0h0l0,0h-.1c-2.71-1-5.43-2-8.16-2.94Zm44,17.07-3.6,10.22c2.9,1,5.6,1.91,8.26,2.72a140.45,140.45,0,0,0,19.1,4.43l1.66-10.71h-.77a129.58,129.58,0,0,1-16.44-3.85h0l-.07,0h0l-.06,0h0l-.06,0h0l-.05,0h0l-.05,0h0l-.07,0h0l-.08,0h-.11l-.07,0h-.14l-.09,0h0l-.05,0h0c-2.43-.75-4.84-1.55-7.24-2.39Zm71.66,1.3a75.68,75.68,0,0,1-21,5.82h-2.16q-1.15.12-2.3.21l.84,10.8c1.43-.11,2.87-.26,4.28-.44a86.15,86.15,0,0,0,24.79-6.8l-4.5-9.86Zm32.15-40.48-10.31,3.34a25.42,25.42,0,0,1-1,17.36h0l-.1.23h0v0h0l-.11.25h0l-.08.18h0v0h0v0h0v0h0l-.08.18h0v0h0l-.07.16h0v0h0v0h0v0h0v0h0v0h0l-.05.11h0v0h0v0h0v0h0v0h0v0h0v0h0v0h0l0,.07h0v0h0v0h0v0h0v0h0v0h0v0h0l0,.08h0v0h0v0h0v0h0v0h0v0h0v0h0l0,.06h0v0h0v0h0v0h0v0h0v0h0l0,.06h0v0h0v0h0v0h0v0h0v0h0v0h0l0,.08h0v0h-.05v0h0v0h0l0,.06h-.08l0,.05H376l0,0h0v0h-.09v0h-.11v0h0v0h-.11v0h-.11l0,0h-.11v0h0v0h0v0h0v0h0v0h0v0h0v0h-.08v0h0l0,0H375v0h0v0h0v0h-.09v0h0v0h-.12v0h-.13v0h-.07v0h0v0h0v0h0v0h0v0h-.11v0h0v0h-.11v0h0l0,0H374v0h0l0,0h0v0h-.12l0,0h-.12v0h0l0,0h0v0h-.1v0h0l0,0h0l-.32.41,8.46,6.77.42-.53c7.75-10,10.32-23.12,6.71-34.29Zm-45.45-25.49-1,2.94L338.12,440h0l0,0h0l0,0h0l0,0h0l.72.46h0l.1.06h0l0,0h0l.09.06h0l0,0h0l0,0h0l0,0h0l.09.06h0l0,0h0l0,0h0l0,0h0l0,0h0A94.07,94.07,0,0,0,357,445.4h0c1.36.21,2.73.42,4.08.68h.73q.81.17,1.61.36L366,436.06c-2.59-.63-5.15-1-7.35-1.37a83.25,83.25,0,0,1-14.28-3.5l-.34-.22-.06.08-.72-.25-1,2.94h0l1-2.94Zm-20.2-35.41-9.33,5.51.22.38h0l0,.06,0,0,0,0,0,0,0,0,0,.06v0l1.19,2h0a10.5,10.5,0,0,1,1.49,2.66h0c.78,1.43,1.51,2.88,2.17,4.36a81,81,0,0,1,3.34,9.35h0a31.78,31.78,0,0,1,1.75,4.47h0l.15.46,10.29-3.38-.08-.26a42.2,42.2,0,0,0-2-5.2,86.77,86.77,0,0,0-3.58-9.86c-.64-1.44-1.38-2.94-2.25-4.57a21,21,0,0,0-2.22-4l-1.35-2.29Zm-50-22.48-1.39,10.74c8.59,1.11,17.59,2.27,25.8,5l3.38-10.29c-9.18-3-19.07-4.3-27.79-5.42Zm-47-4.26-1.43,10.74q2.79.37,5.59.68h.24l.46,0h.24l.34,0h.36l.23,0h.48l.22,0h5.23c2.9.22,5.8.4,8.7.58l.76,0,3.37.21.68-10.81-3.39-.21c-3.27-.2-6.65-.41-9.92-.66-3.87-.3-8-.74-12.14-1.3Zm-45.47-8.73-2.32,10.58,2.1.46c7.87,1.72,15.74,3.45,23.64,5l2.07-10.64c-7.77-1.51-15.71-3.25-23.39-4.93l-2.11-.46Zm-47.28-9L132,361.7l1.87.25h.42c4.24.61,8.46,1.36,12.65,2.1l.36.06.42.08h0l.14,0h0l.09,0h.06l.11,0h.06l.1,0h.29l.12,0h.2l.08,0h0l.17,0h0l.09,0h0l.32.06h0l.1,0h0l.46.08h0l.47.09h0l.47.09h0q3.31.62,6.62,1.28l2.12-10.62c-3.72-.74-7.12-1.39-10.42-2l-.78-.14c-5-.89-10.18-1.81-15.44-2.49Z"/></g><g id="header-girl"><path class="cls-1" d="M343.91,334.91q.64,0,1.23,0h-1.69Z"/><path class="cls-1" d="M234.84,334.87a16.28,16.28,0,0,0,3.62,0Z"/><path class="cls-1" d="M289.14,334.87a16.28,16.28,0,0,0,3.62,0Z"/><path class="cls-7" d="M212,210.31l1.29,0H212Z"/><path class="cls-7" d="M214.22,210.35h0Z"/><line class="cls-8" x1="137.99" y1="248.8" x2="137.99" y2="385.33"/><line class="cls-8" x1="123.12" y1="266.3" x2="123.12" y2="402.83"/><line class="cls-9" x1="120.82" y1="389.65" x2="139.46" y2="371.01"/><line class="cls-9" x1="120.82" y1="372.15" x2="139.46" y2="353.51"/><line class="cls-9" x1="120.82" y1="353.77" x2="139.46" y2="335.13"/><path class="cls-10" d="M123.42,330.19c20.89,5.66,46.43,16.59,56.58,39.67,3.2,7.26,2.91,11.27,5.83,18.67,5.47,13.82,18.81,31,53.83,44.8a26.16,26.16,0,0,0,8.12,1.8c4.44.25,10.72-.92,13.15-4.16,1.64-2.19,3.06-7.87-4.91-11.39-34.85-15.38-48.95-31.14-54.45-45-2.92-7.39-2.64-11.41-5.83-18.67-10.16-23.08-35.7-34-56.58-39.67Z"/><rect class="cls-11" x="204.13" y="264.53" width="10.3" height="48.09" rx="4.8" ry="4.8" transform="translate(272.44 639.41) rotate(-154.26)"/><path class="cls-12" d="M210.06,365l6.72,6.72c.66.66,1.3,1.32,1.91,2,.93,1,3,3,5.16,2.23,1.85-.71,10.94-5.61,11.73-7.38,1.19-2.71-.11-4.67-1.63-4.45a59.71,59.71,0,0,0-7.28,2.66,1,1,0,0,1-1.14-.23L217,358.08"/><path class="cls-12" d="M209.81,364.77l6.72,6.72c.66.66,1.3,1.32,1.91,2,.93,1,3,3,5.16,2.23,2.82-1.09,10.53-4.67,11.73-7.38s-.11-4.67-1.63-4.45a59.71,59.71,0,0,0-7.28,2.66,1,1,0,0,1-1.14-.23l-8.52-8.52"/><path class="cls-2" d="M209.83,365c0-.53.79-2.16,2.84-4.21,1.79-1.79,3.48-2.78,4.21-2.83,0,.53-.79,2.16-2.84,4.21C212.25,363.91,210.56,364.9,209.83,365Z"/><path d="M215.17,359.62a16.74,16.74,0,0,1-3.64,3.64,16.72,16.72,0,0,1,3.64-3.64m1.77-2.48c-1,0-3,1.2-4.82,3.06-2.27,2.27-3.56,4.67-2.88,5.35a.72.72,0,0,0,.53.18c1,0,3-1.2,4.82-3.06,2.27-2.27,3.56-4.67,2.88-5.35a.72.72,0,0,0-.53-.18Z"/><path class="cls-12" d="M206.49,370.41l6.72,6.72c.66.66,1.3,1.32,1.91,2,.93,1,3,3,5.16,2.23,1.85-.71,10.94-5.61,11.73-7.38,1.19-2.71-.11-4.67-1.63-4.45a59.71,59.71,0,0,0-7.28,2.66A1,1,0,0,1,222,372l-8.52-8.52"/><path class="cls-12" d="M206.24,370.16l6.72,6.72c.66.66,1.3,1.32,1.91,2,.93,1,3,3,5.16,2.23,2.82-1.09,10.53-4.67,11.73-7.38s-.11-4.67-1.63-4.45a59.71,59.71,0,0,0-7.28,2.66,1,1,0,0,1-1.14-.23l-8.52-8.52"/><path class="cls-2" d="M206.26,370.35c0-.53.79-2.16,2.84-4.21,1.79-1.79,3.48-2.78,4.21-2.83,0,.53-.79,2.16-2.84,4.21C208.68,369.3,207,370.29,206.26,370.35Z"/><path d="M211.6,365a16.73,16.73,0,0,1-3.64,3.64A16.72,16.72,0,0,1,211.6,365m1.77-2.48c-1,0-3,1.2-4.82,3.06-2.27,2.27-3.56,4.67-2.88,5.35a.72.72,0,0,0,.53.18c1,0,3-1.2,4.82-3.06,2.27-2.27,3.56-4.67,2.88-5.35a.72.72,0,0,0-.53-.18Z"/><rect x="196.5" y="343.1" width="6.18" height="27.82" transform="translate(-193.98 245.67) rotate(-45)"/><path d="M191.94,346.08l18.58,18.58-3.28,3.28-18.58-18.58,3.28-3.28m0-2.19-5.46,5.46,20.77,20.77,5.46-5.46-20.77-20.77Z"/><rect x="200.79" y="338.59" width="6.18" height="26.79" transform="translate(-189.17 247.26) rotate(-45)"/><path d="M196.6,341.42l17.85,17.85-3.28,3.28L193.32,344.7l3.28-3.28m0-2.19-5.46,5.46,20,20,5.46-5.46-20-20Z"/><path class="cls-13" d="M172.41,349.34c7.11,3.73,24.21,9.77,46.85-2l-14.69-43.85a17.51,17.51,0,0,0-16-12.07q-.51,0-1,0a11.9,11.9,0,0,0-11.21,9.75l-7,42.06A5.78,5.78,0,0,0,172.41,349.34Z"/><path class="cls-14" d="M204.91,288c4-3.31,7.43-8.72,12-8.21.71.08,2.23.39,3.09-.46,1.21-1.21.3-3.93-.15-5.26-4.71-13.68-7.07-20.53-12.21-23a15.07,15.07,0,0,0-9.43-1.55c-10.05,1.94-18.42,16.41-14.22,28,2.7,7.44,10.77,14.13,16.69,12.83a10.35,10.35,0,0,0,4.26-2.3"/><path class="cls-15" d="M211.46,270.42s-4.17,3-7.73,0"/><path class="cls-15" d="M204.49,287.24a3.22,3.22,0,0,1,4.55-4.55"/><path class="cls-16" d="M204.31,246.51c4.34.36,11.86,6.18,12.3,8.05.84,3.58-19.89,5.57-24.37,17.05-3.19,8.17,6.56,15.61.86,19.38-5.86,3.87-14.93,2.12-25.17-2.27-12.84-5.5-12.59-10.32-26.14-20.6-14.73-11.18-26.91-5.06-35.92-15.89-7.86-9.45-7.36-24.69-1.28-27.91,5-2.65,9.91,4.88,27.37,10.46,21.09,6.75,27.13,0,41,8.14,7.24,4.24,15.27,3,23.15,3.32C200.39,246.45,197,245.91,204.31,246.51Z"/><path class="cls-2" d="M195.37,273.39c0-.23-3.72-3.33-5.5-2.82a1.64,1.64,0,0,0-.83.52c-.94,1.12-.14,3.5,1.92,4.81,1.88,1.2,4.46.8,4.52.34C195.83,273.55,195.09,274.92,195.37,273.39Z"/><path class="cls-11" d="M191.15,273.05a7.58,7.58,0,0,1,2.1,1.23"/><path class="cls-11" d="M181.41,251.49c-.36-1,10-5.43,19.54-3.73,2.07.37,6.26,1.41,6.22,2.59,0,.67-1.41,1.31-2.66,1.46-2.31.28-3.1-1.21-5.77-1.78-3.35-.71-4.7,1.09-11.1,1.62C186.69,251.73,181.65,252.15,181.41,251.49Z"/><path class="cls-11" d="M117,254.12c-.61.81-6.54-1.86-9.49-7.14-2.55-4.57-2-9.47-1.71-9.49s-.2,3.66,2.13,6.93c2.47,3.47,6,3.55,8.48,8C116.82,253.13,117.22,253.84,117,254.12Z"/><rect class="cls-11" x="177" y="261.91" width="10.3" height="48.09" rx="4.8" ry="4.8" transform="translate(448.42 495.83) rotate(160.74)"/><path d="M206.43,316.47c-.49,0-1.29-.75-1.71-2a3.89,3.89,0,0,1-.21-1.92c.08-.39.23-.67.42-.74l.11,0c.49,0,1.29.75,1.71,2a3.88,3.88,0,0,1,.21,1.92c-.08.39-.23.67-.42.74Z"/><path d="M205.36,312.47h0m-.09.31a3.53,3.53,0,0,1,1,2.73,3.53,3.53,0,0,1-1-2.73m-.21-1.73a1.12,1.12,0,0,0-.37.06c-1,.34-1.28,2-.69,3.64.51,1.47,1.54,2.48,2.44,2.48a1.12,1.12,0,0,0,.37-.06c1-.34,1.28-2,.69-3.64-.51-1.47-1.54-2.48-2.44-2.48Z"/><path d="M209.93,327c-.49,0-1.29-.75-1.71-2a3.88,3.88,0,0,1-.21-1.92c.08-.39.23-.67.42-.74l.11,0c.49,0,1.29.75,1.71,2a3.88,3.88,0,0,1,.21,1.92c-.08.39-.23.67-.42.74Z"/><path d="M208.86,323h0m-.09.31a3.53,3.53,0,0,1,1,2.73,3.53,3.53,0,0,1-1-2.73m-.21-1.73a1.12,1.12,0,0,0-.37.06c-1,.34-1.28,2-.69,3.64.51,1.47,1.54,2.48,2.44,2.48a1.12,1.12,0,0,0,.37-.06c1-.34,1.28-2,.69-3.64-.51-1.47-1.54-2.48-2.44-2.48Z"/><path d="M213.26,337.52c-.43,0-1.22-.73-1.57-2.1s0-2.52.45-2.63h0c.52,0,1.29.73,1.64,2.09a3.88,3.88,0,0,1,0,1.93c-.11.39-.29.65-.49.7Z"/><path d="M212.5,333.44h0m-.12.3a3.53,3.53,0,0,1,.72,2.8,3.53,3.53,0,0,1-.72-2.8m-.16-1.74a1.1,1.1,0,0,0-.27,0c-1,.25-1.44,1.85-1,3.57.4,1.56,1.39,2.68,2.32,2.68a1.1,1.1,0,0,0,.27,0c1-.25,1.44-1.85,1-3.57-.4-1.56-1.39-2.68-2.32-2.68Z"/><path class="cls-16" d="M195.89,335.26a20.59,20.59,0,0,1-13.56,2.27l1.35,8.05,7.91,2.41,5.68-4.5Z"/></g><path class="cls-2" d="M280.5,404.21q0,.27.55.59l.2-.39-.39-.2Z"/><path class="cls-2" d="M280,401.92v.31a.63.63,0,0,0,.67.59h.9q.67,0,.67-.59l-1.33-.67A2,2,0,0,1,280,401.92Z"/><path class="cls-2" d="M178.86,454.16a.59.59,0,0,0,.66-.67v-.35l-1.57-.31a9,9,0,0,1-1.33.31v.35c.08.44.3.67.67.67Z"/><path class="cls-2" d="M218.26,450.54h.63q.43,0,1-1l-.35-.59A1.54,1.54,0,0,0,218.26,450.54Z"/><path class="cls-2" d="M409.64,514.75l-.43.81h1.15Q410.36,514.75,409.64,514.75Z"/><path class="cls-2" d="M325.83,376.66a2.06,2.06,0,0,1-.78-.24h-.24v.24a1.83,1.83,0,0,1,1,.51Z"/><path class="cls-2" d="M320.82,379.91v-.51h-.47c-.34.08-.51.25-.51.51v.47h.51A.41.41,0,0,0,320.82,379.91Z"/><path class="cls-2" d="M324.3,376.93v-.78q-2.47.55-2.47,2.27Q324.26,377.4,324.3,376.93Z"/><path class="cls-2" d="M422.61,510.55H422l-.33,1.29Q422.18,511.84,422.61,510.55Z"/><path class="cls-2" d="M304.14,382.65v.47q0,.35.78.78h1v-1a1.79,1.79,0,0,0-1-.27Z"/><rect class="cls-2" x="314.87" y="384.33" width="0.98" height="0.55"/><path class="cls-2" d="M220.87,462.37l.24-.51v-1.25l1-.24v-.47a4.25,4.25,0,0,0-3.17,1.68A5.84,5.84,0,0,0,220.87,462.37Z"/><path class="cls-2" d="M311.11,387.34l-.47.78q.47,0,.47.23a2.08,2.08,0,0,1,.78-.23Q311.89,387.74,311.11,387.34Z"/><path class="cls-2" d="M166.05,404.77l-.51.7v.27l.23.47a1.35,1.35,0,0,0,1.06-1Z"/><path class="cls-2" d="M411.31,511.22h-.91v.91Q410.88,512.13,411.31,511.22Z"/><path class="cls-2" d="M411.31,521.56h-.57q-.67,0-1,1.48h1l.86-.62A2.21,2.21,0,0,1,411.31,521.56Z"/><path class="cls-2" d="M321.33,373.68h-1.25v.23l.51.74q1.25-.31,1.25-.74Z"/><path class="cls-2" d="M417.73,511.22h-1.82v.29q.19,0,1.82.34Z"/><path class="cls-2" d="M413.76,510.88q0,.43.91,1H415a.55.55,0,0,0,.62-.62l-.62-.33Z"/><rect class="cls-2" x="279.65" y="408.23" width="1.25" height="0.59"/><path class="cls-2" d="M277.71,431.62h.24l.27-.51v-.27h-.27A1.84,1.84,0,0,1,277.71,431.62Z"/><g id="header-guy-platform"><path class="cls-17" d="M549.18,400c37.11-1.82,68.81,37.12,102.49,23.93,26.47-10.36,68-54.93,32.24-86.88-27.67-24.72-36,.13-109.4-19.31-43.75-11.58-77,8.61-120.91,11.93-30,2.26-70.26-.94-66.79,40.32,4.21,50,78.44,72.49,102.87,57.92C511.61,414.8,530.14,400.9,549.18,400Z"/><path class="cls-18" d="M520.51,308.53c-4,.71-8.33,1.58-13.48,2.73l1.78,8L510,319h0l.09,0h0l.09,0h0l.07,0h.28q3.58-.78,7.16-1.49h0l.08,0H518l.08,0h1.61l.09,0h0l.08,0H520l.09,0h0l.08,0h.12l.09,0h0l.08,0h0l.08,0h0l.09,0h0l.09,0h0l.08,0h0l.09,0h0l.09,0h0l.08,0h0l.09,0h0l.09,0h.52l-1.42-8.06ZM495.35,314c-4.55,1.07-8.66,2-12.91,2.95l1.73,8c4.41-1,8.75-2,13.05-3l-1.87-8Zm-24.27,5.2c-4.48.79-8.64,1.39-12.72,1.83l.89,8.13h2.32c3.29-.4,6.52-.88,9.71-1.43h0l.1,0h0l.09,0H472l.54-.09-1.42-8.06Zm-24.15,2.72-4.3.23c-3,.16-6.08.32-9.16.53l.55,8.16,1-.07h.26c1.79-.11,3.58-.21,5.36-.31h.61l.35,0h.19l.5,0h.31l3.84-.2.92-.05-.46-8.17Zm-25.85,2a86.57,86.57,0,0,0-14.44,3.08l2.46,7.8h3.71l.1,0h0l.1,0h.15l.1,0h.05l.1,0h0c2.82-.67,5.75-1.18,8.77-1.59l-1.1-8.11Zm-27.37,9.23a33.92,33.92,0,0,0-11.35,13.17l7.36,3.57a25.69,25.69,0,0,1,8.65-10l-4.67-6.72Zm-15.09,27.51a60.58,60.58,0,0,0,.05,10.08c.15,1.79.38,3.59.69,5.35l8.06-1.42q-.21-1.21-.37-2.43h0V372h0v0h0v0h0v0h0v0h0v0h0v0h0v0h0v0h0v0h0v-.08h0v0h0q-.08-.69-.14-1.39h0v0h0v0h0v0h0V370h0v-.07h0v0h0v0h0v0h0v0h0v0h0v0h0v0h0v-.07h0v0h0v0h0v-.11h0v0h0v-.14h0a51.28,51.28,0,0,1,0-8l-8.15-.68ZM390.8,386l-7.53,3.21a65.71,65.71,0,0,0,7.61,13.22l6.58-4.86a59.92,59.92,0,0,1-3.53-5.34h0l0,0h0l0,0h0l0,0h0l0,0h0l-.07-.12h0l0,0h0l0,0h0l0,0h0l0,0v0l0,0v0l0,0v0l0,0v0l0,0v0l0,0v0l0,0v-.06l0,0v0l0,0v-.06l0,0h0l0,0h0l0,0h0l0,0h0l0,0h0l0,0h0l0,0h0l0,0h0l0,0h0l0,0h0l0,0h0l0,0h0l0,0h0l0,0h0l-.15-.27h0c-.75-1.41-1.45-2.86-2.08-4.34Zm14.56,20.46-5.64,5.93a91.23,91.23,0,0,0,11.45,9.21l4.61-6.76a82.82,82.82,0,0,1-10.42-8.38ZM426,420.88l-3.75,7.27a114.43,114.43,0,0,0,13.21,5.77l2.8-7.69q-1.53-.56-3.05-1.17h0l0,0h0l-.09,0h0l-.09,0h0l0,0h0l0,0h0l0,0h0l0,0h0l0,0h0l-.09,0h0l0,0h0l0,0h0l0,0h0l0,0h-.15l0,0h0l0,0h-.06l0,0h-.47l0,0h0l0,0h0l0,0h0l0,0h0l0,0h0l-.13-.05h0l0,0h0l0,0h0l0,0h0l0,0h0c-2.36-1-4.7-2.1-7-3.28Zm23.64,8.8-1.92,8a101.67,101.67,0,0,0,14.35,2.43l.76-8.15h-.1c-2.09-.2-4.23-.48-6.4-.85H454q-1.4-.27-2.81-.59H450l-.32-.08Zm38-.74a36.65,36.65,0,0,1-11.61,3h-.59l-.75.07.66,8.15a45.89,45.89,0,0,0,15.76-3.86l-3.47-7.41Zm21.62-13.1L505.75,418h0l0,0-7.8,4.83,4.3,7,3.39-2.1c2.75-1.71,5.35-3.32,7.95-4.9l-4.24-7Zm22.36-11.74a112.52,112.52,0,0,0-12.07,5.77l3.91,7.19a104.13,104.13,0,0,1,11.19-5.35l-3-7.6Zm20.08-4.2c-.85,0-1.7,0-2.55.06h-.84q-1,.07-2,.18h0l-.14,0h-1q-1.1.15-2.21.36l1.51,8a37.23,37.23,0,0,1,5-.61c.71,0,1.43-.05,2.15-.05h0c1.29,0,2.61.06,3.94.17l.69-8.15q-2.25-.19-4.52-.2h-.12Zm16.33,2.31-2.12,7.9a98.6,98.6,0,0,1,11.68,4l3.09-7.57a107,107,0,0,0-12.65-4.36Zm23.53,9.18-3.47,7.41,5,2.37c2.34,1.11,4.76,2.27,7.15,3.37l3.43-7.43-.54-.25h0l-.08,0,0,0-.05,0c-2.1-1-4.21-2-6.33-3l-5-2.39Zm23,10.4-2.92,7.64a87.46,87.46,0,0,0,14.13,4.21l1.6-8a79.78,79.78,0,0,1-12.81-3.83Zm37.64,1.87-.22.09-.36.14h-.48l-.05,0h-.09l-.08,0h-.06l-.11,0h-.06l-.11,0h0a39.25,39.25,0,0,1-11.34,2.28l.42,8.17a47.73,47.73,0,0,0,15-3.23l.71-.28-3.09-7.58ZM673.42,410a90.23,90.23,0,0,1-10.2,7.8h-.08l0,0h0l0,0h0l0,0h0l0,0h0l0,0h0l0,0h0l0,0h0l0,0h0l0,0h0L667.2,425a97.84,97.84,0,0,0,11.63-8.83L673.42,410Zm16.37-19.16a79,79,0,0,1-7.41,10.1h0l0,0h0l0,0h0l0,0h0l0,0h0l0,0h0l0,0h0l0,0h0l0,0h0l0,0h0l0,0h0l0,0h0l0,0,0,0,0,0,0,0,0,0,0,0h0l0,0h0L688,407a87.82,87.82,0,0,0,8.78-11.85l-7-4.28Zm8-23.71a42.1,42.1,0,0,1-2,10.84h0v0h0v0h0v0h0v0h0v0h0v0h0v0h0v0h0v0h0v0h0v0h0q-.3.92-.64,1.84L702.7,383a51.55,51.55,0,0,0,3.24-15.52l-8.17-.36Zm-1.2-28.53-6.48,5q.88,1.15,1.66,2.31h0l0,0h0l0,0h0v0h0l.11.17h0v0h0v0h0v0h0v0h0v0h0v0h0l.06.1h0v0h0v0h0v0h0v0h0v0h0v0h0v0h0l0,0h0l0,0h0v0h0v0h0v0h0v0h0v0h0v0h0v0h0v0h0l0,0h0l0,0h0v0h0v0h0v0h0v0h0v0h0v0h0v0h0v0h0l0,0h0v0h0v0h0v0h0v0h0v0h0v0h0v0h0v0h0v0h0v0h0v0h0v0h0v0h0v0h0v0h0v0h0l0,0h0v0h0v0h0v0h0v0h0v0h0l0,.07h0v0h0v0h0v0h0v0h0v0h0v0h0v0h0l.06.1h0v0h0v0h0v0h0v0h0v0h0v0h0v0h0l.07.12h0v0h0v0h0v0h0v0h0v0h0v0h0l.08.15h0v0h0v0h0a35.14,35.14,0,0,1,2.71,6.43l7.82-2.4a45.31,45.31,0,0,0-7.55-14.38Zm-22.86-18.13L670.48,328a46,46,0,0,1,11.26,7.15l5.22-6.3a54.24,54.24,0,0,0-13.27-8.38ZM654.34,317c-2.85,0-5.71.13-9.16.29l.39,8.17c3-.14,5.78-.27,8.39-.28h.62c1.5,0,2.95,0,4.36.15l.6-8.16c-1.61-.12-3.31-.18-5.21-.18Zm-33.56.43-.49,8.17,1.31.07h.6c2.52.12,4.9.18,7.16.2h4.31l-.11-8.18-2.6,0c-3.46,0-6.79-.1-10.18-.3Zm-24.07-3-1.49,8c4.74.88,9.13,1.55,13.23,2.05l1-8.12c-4.11-.51-8.39-1.17-12.73-2Zm-24.34-5.6-1.8,8h0l2.26.54h.4l.13,0h.4l.27.07h.4l.06,0h0q2.73.72,5.33,1.36h0l.06,0h.49l.06,0h0l3.11.74,1.85-8c-2.87-.67-5.84-1.41-8.82-2.2-1.4-.37-2.83-.72-4.23-1ZM547.07,306a134,134,0,0,0-14.22.78l.86,8.14,1.42-.14h.18c3.81-.36,7.65-.56,11.55-.57h1.48c3.45,0,7,.24,10.51.62l.89-8.13a117.48,117.48,0,0,0-12.66-.68Z"/></g><path class="cls-2" d="M613.66,390.81h.17c.2,0,.3-.13.3-.38-.11,0-.17-.05-.17-.15a1.17,1.17,0,0,1,.5-.19v-.19h-.17A.85.85,0,0,0,613.66,390.81Z"/><path class="cls-2" d="M552.74,368l.33-.57-1.44-.15A1.06,1.06,0,0,0,552.74,368Z"/><path class="cls-2" d="M621.26,348.42h.8a1.43,1.43,0,0,0-1.6-1.21h-.27Q620.19,347.7,621.26,348.42Z"/><polygon class="cls-2" points="429.09 432.37 428.56 432.07 428.02 433.01 428.56 433.36 429.09 432.37"/><path class="cls-2" d="M431.26,432.07q-.23,0-.23.3a3.14,3.14,0,0,0-1.64-.57q0,.76,2.14,1.21h.57Q432.1,432.56,431.26,432.07Z"/><path class="cls-2" d="M587.33,379.3a2.08,2.08,0,0,1,.87-.3v-.65l-.7.28Z"/><path class="cls-2" d="M537.39,328.37v.26c0,.33.19.49.43.49v-.27C537.82,328.54,537.68,328.37,537.39,328.37Z"/><path class="cls-2" d="M497,388.35h.4v-.27q0-.34-.64-.76h-.43Q496.69,388.35,497,388.35Z"/><path class="cls-2" d="M655.24,386.89l-1.07.23.84,1q1.5-.45,1.51-1l-1.07-.23Z"/><path class="cls-2" d="M600.08,406.38v.26a1,1,0,0,0,0,.19h.38C600.5,406.54,600.36,406.38,600.08,406.38Z"/><path class="cls-2" d="M387.86,398.46l-.23.49v.49h.23c.29,0,.43-.16.43-.49S388.15,398.46,387.86,398.46Z"/><path class="cls-2" d="M581.65,362.31q-.13,0-1-1.21c-.31.05-.47.2-.47.46V362q.5,0,1.3.95h.2l-.2-.49C581.58,362.5,581.65,362.44,581.65,362.31Z"/><path class="cls-2" d="M483.57,378.91q0,.34.64.68h.63l.2-1.18h-.2A1.67,1.67,0,0,1,483.57,378.91Z"/><path class="cls-2" d="M541.83,328.64v.49h-.63l-.84-.76v.26a2.9,2.9,0,0,0,1.67.95q0-.26.23-.26a1.71,1.71,0,0,1-.23-.68Z"/><path class="cls-2" d="M600.51,407.14v-.26s0,0,0,0h-.38A.39.39,0,0,0,600.51,407.14Z"/><path class="cls-2" d="M535,331.79a7.91,7.91,0,0,0,1.94.42v-.42a10.4,10.4,0,0,1-1.74-.53Z"/><path class="cls-2" d="M478.63,386.82h-.84q.1.45.47.46h.37Z"/><path class="cls-2" d="M660.93,364.19h.2a1.93,1.93,0,0,1,.64-.15v-.33h-.2Q661.26,363.71,660.93,364.19Z"/><path id="cloud_1" data-name="cloud 1" class="cls-2" d="M292.66,182.85a22.37,22.37,0,0,0-22.32-23.77c-.56,0-1.11,0-1.66.06a17.94,17.94,0,0,0-26.87-21.36c0-.25,0-.49,0-.73a25.07,25.07,0,1,0-47.26,11.66A17.94,17.94,0,0,0,177,166.64a17.37,17.37,0,0,0,.13,2.11,13,13,0,0,0-20.5,9.47,13,13,0,0,0-17,12.9v0a3.32,3.32,0,0,0,3.35,3.11H286.79a3.35,3.35,0,0,0,2.89-1.64A22,22,0,0,0,292.66,182.85Z"/><path id="cloud2" class="cls-2" d="M492.32,130.94a22.37,22.37,0,0,1,22.32-23.77c.56,0,1.11,0,1.66.06a17.94,17.94,0,0,1,26.87-21.36c0-.25,0-.49,0-.73a25.07,25.07,0,1,1,47.26,11.66A17.94,17.94,0,0,1,608,114.72a17.37,17.37,0,0,1-.13,2.11,13,13,0,0,1,20.5,9.47,13,13,0,0,1,17,12.9v0a3.32,3.32,0,0,1-3.35,3.11H498.19a3.35,3.35,0,0,1-2.89-1.64A22,22,0,0,1,492.32,130.94Z"/><path class="cls-2" d="M265.56,417.71v-.27H265v.71C265.39,418.15,265.56,418,265.56,417.71Z"/><path class="cls-2" d="M267.79,418.93v-.24h-.7q-.39,0-.78.74l.51.23Q267.79,419.28,267.79,418.93Z"/><g id="header-guy"><rect class="cls-19" x="443.96" y="281.02" width="56.29" height="65.37"/><rect class="cls-20" x="378.81" y="320.55" width="65.37" height="65.37"/><polygon class="cls-21" points="378.81 320.55 434.88 281.02 500.25 281.02 444.18 320.55 378.81 320.55"/><path class="cls-21" d="M411.8,315.86"/><path class="cls-21" d="M411.8,315.86"/><path class="cls-21" d="M413.61,315.86"/><rect class="cls-22" x="393.89" y="320.55" width="33.23" height="65.37"/><line class="cls-23" x1="427.48" y1="320.55" x2="482.36" y2="281.02"/><line class="cls-23" x1="410.23" y1="320.55" x2="465.11" y2="281.02"/><path class="cls-23" d="M461.48,281"/><path class="cls-23" d="M406.6,320.55"/><path class="cls-23" d="M441.5,281"/><path class="cls-23" d="M386.62,320.55"/><line class="cls-23" x1="393.89" y1="320.55" x2="448.77" y2="281.02"/><polygon class="cls-24" points="461.6 299.28 428.27 299.28 431.74 292.29 461.73 292.26 461.6 299.28"/><polygon class="cls-25" points="417.84 300.72 431.74 292.26 461.33 292.26 451.16 300.72 417.84 300.72"/><polygon class="cls-25" points="417.75 307.47 428.27 299.28 461.26 299.21 449.35 307.74 417.75 307.47"/><polygon class="cls-26" points="449.35 307.74 417.75 307.74 417.85 300.67 449.09 300.67 449.35 307.74"/><path d="M438.38,302.66c-6.4,0-12.95-1.53-13.16-4.94-.1-1.72,1.46-3.3,4.54-4.57A33.89,33.89,0,0,1,440.3,291c.88-.05,1.77-.08,2.64-.08,6.4,0,12.94,1.53,13.15,4.94.11,1.72-1.46,3.3-4.54,4.57A33.93,33.93,0,0,1,441,302.58C440.13,302.64,439.25,302.66,438.38,302.66Z"/><path class="cls-2" d="M442.94,291.61c6.92,0,12.27,1.76,12.43,4.26.17,2.81-6.27,5.48-14.4,6-.88.05-1.75.08-2.59.08-6.92,0-12.27-1.76-12.43-4.26-.17-2.81,6.27-5.48,14.4-6,.88-.05,1.75-.08,2.59-.08m0-1.46h0c-.88,0-1.78,0-2.68.08a34.63,34.63,0,0,0-10.78,2.23c-4.28,1.78-5.07,3.86-5,5.29.25,4.15,7.64,5.63,13.88,5.63.88,0,1.78,0,2.68-.08a34.63,34.63,0,0,0,10.78-2.23c4.28-1.78,5.07-3.86,5-5.29-.25-4.15-7.64-5.63-13.88-5.63Z"/><ellipse class="cls-2" cx="440.66" cy="296.44" rx="5.99" ry="2.07" transform="translate(-17.3 27.5) rotate(-3.51)"/><ellipse class="cls-2" cx="440.66" cy="296.44" rx="1.76" ry="0.61" transform="translate(-17.3 27.5) rotate(-3.51)"/><path class="cls-27" d="M463.86,251.47a4.78,4.78,0,0,0-3.9,7.39c11.13,17,26,19.68,36.56,18.89a51.89,51.89,0,0,0,19.9-5.77,4.78,4.78,0,0,0-4.71-8.32h0a42.76,42.76,0,0,1-16.21,4.58C484,269,474.78,264.08,468,253.63A4.78,4.78,0,0,0,463.86,251.47Z"/><path class="cls-28" d="M506.3,358.05v9.86c0,1,0,1.92.08,2.88.09,1.45,0,4.47-2.15,5.42-1.88.83-12.14,3.92-14,3.19-2.87-1.12-3.35-3.51-2.07-4.46a62,62,0,0,1,7.3-3.39,1.08,1.08,0,0,0,.67-1v-12.5"/><path class="cls-28" d="M506.3,357.69v9.86c0,1,0,1.92.08,2.88.09,1.45,0,4.47-2.15,5.42-2.87,1.27-11.15,4.3-14,3.19s-3.35-3.51-2.07-4.46a62,62,0,0,1,7.3-3.39,1.08,1.08,0,0,0,.67-1v-12.5"/><path d="M501.25,358.84c-3,0-4.76-.65-5.17-1,.42-.36,2.16-1,5.17-1s4.76.65,5.17,1C506,358.19,504.26,358.84,501.25,358.84Z"/><path d="M501.25,357.63a16.34,16.34,0,0,1,2.67.21,17.35,17.35,0,0,1-5.34,0,16.34,16.34,0,0,1,2.67-.21m0-1.6c-3.34,0-6,.81-6,1.81s2.7,1.81,6,1.81,6-.81,6-1.81-2.7-1.81-6-1.81Z"/><path class="cls-28" d="M520.54,358.05v9.86c0,1,0,1.92.08,2.88.09,1.45,0,4.47-2.15,5.42-1.88.83-12.14,3.92-14,3.19-2.87-1.12-3.35-3.51-2.07-4.46a62,62,0,0,1,7.3-3.39,1.08,1.08,0,0,0,.67-1v-12.5"/><path class="cls-28" d="M520.54,357.69v9.86c0,1,0,1.92.08,2.88.09,1.45,0,4.47-2.15,5.42-2.87,1.27-11.15,4.3-14,3.19s-3.35-3.51-2.07-4.46a62,62,0,0,1,7.3-3.39,1.08,1.08,0,0,0,.67-1v-12.5"/><path d="M515.49,358.84c-3,0-4.76-.65-5.17-1,.42-.36,2.16-1,5.17-1s4.76.65,5.17,1C520.25,358.19,518.5,358.84,515.49,358.84Z"/><path d="M515.49,357.63a16.34,16.34,0,0,1,2.67.21,17.35,17.35,0,0,1-5.34,0,16.34,16.34,0,0,1,2.67-.21m0-1.6c-3.34,0-6,.81-6,1.81s2.7,1.81,6,1.81,6-.81,6-1.81-2.7-1.81-6-1.81Z"/><rect class="cls-29" x="498.07" y="315.52" width="6.42" height="42.74"/><rect class="cls-29" x="512.31" y="315.52" width="6.42" height="42.74"/><path d="M501.14,325.56a.4.4,0,0,0,0-.8.4.4,0,0,0,0,.8Z"/><path d="M501.84,334.92a.4.4,0,0,0,0-.8.4.4,0,0,0,0,.8Z"/><path d="M502.12,330.59a.4.4,0,0,0,0-.8.4.4,0,0,0,0,.8Z"/><path d="M500.44,342.6a.4.4,0,0,0,0-.8.4.4,0,0,0,0,.8Z"/><path d="M503.1,346.23a.4.4,0,0,0,0-.8.4.4,0,0,0,0,.8Z"/><path d="M500.58,351.26a.4.4,0,0,0,0-.8.4.4,0,0,0,0,.8Z"/><path d="M502.68,356a.4.4,0,0,0,0-.8.4.4,0,0,0,0,.8Z"/><path d="M502.68,339.25a.4.4,0,0,0,0-.8.4.4,0,0,0,0,.8Z"/><path d="M513.85,329.61a.4.4,0,0,0,0-.8.4.4,0,0,0,0,.8Z"/><path d="M518.46,333.66a.4.4,0,0,0,0-.8.4.4,0,0,0,0,.8Z"/><path d="M517.34,333.8a.4.4,0,0,0,0-.8.4.4,0,0,0,0,.8Z"/><path d="M515,341.34a.4.4,0,0,0,0-.8.4.4,0,0,0,0,.8Z"/><path d="M516.78,327a.4.4,0,0,0,0-.8.4.4,0,0,0,0,.8Z"/><path d="M515.25,337.15a.4.4,0,0,0,0-.8.4.4,0,0,0,0,.8Z"/><path d="M517.62,345.25a.4.4,0,0,0,0-.8.4.4,0,0,0,0,.8Z"/><path d="M515,350.7a.4.4,0,0,0,0-.8.4.4,0,0,0,0,.8Z"/><path d="M516.5,354.05a.4.4,0,0,0,0-.8.4.4,0,0,0,0,.8Z"/><path d="M515.11,345.81a.4.4,0,0,0,0-.8.4.4,0,0,0,0,.8Z"/><path d="M515.39,322.77a.4.4,0,0,0,0-.8.4.4,0,0,0,0,.8Z"/><path d="M503.24,321.51a.4.4,0,0,0,0-.8.4.4,0,0,0,0,.8Z"/><path d="M500.58,321.37a.4.4,0,0,0,0-.8.4.4,0,0,0,0,.8Z"/><path d="M499.6,337.43a.4.4,0,0,0,0-.8.4.4,0,0,0,0,.8Z"/><path d="M514.41,333.38a.4.4,0,0,0,0-.8.4.4,0,0,0,0,.8Z"/><path d="M516.22,330.17a.4.4,0,0,0,0-.8.4.4,0,0,0,0,.8Z"/><path d="M517.06,349.72a.4.4,0,0,0,0-.8.4.4,0,0,0,0,.8Z"/><path d="M500.16,330.45a.4.4,0,0,0,0-.8.4.4,0,0,0,0,.8Z"/><path d="M500.44,347.63a.4.4,0,0,0,0-.8.4.4,0,0,0,0,.8Z"/><path d="M503.1,351.4a.4.4,0,0,0,0-.8.4.4,0,0,0,0,.8Z"/><path d="M499.88,355a.4.4,0,0,0,0-.8.4.4,0,0,0,0,.8Z"/><path d="M514.27,356.29a.4.4,0,0,0,0-.8.4.4,0,0,0,0,.8Z"/><path d="M516.78,357.4a.4.4,0,0,0,0-.8.4.4,0,0,0,0,.8Z"/><path d="M513.43,325a.4.4,0,0,0,0-.8.4.4,0,0,0,0,.8Z"/><path d="M516.64,340.37a.4.4,0,0,0,0-.8.4.4,0,0,0,0,.8Z"/><path d="M517.06,320.67a.4.4,0,0,0,0-.8.4.4,0,0,0,0,.8Z"/><path d="M502.82,327.66a.4.4,0,0,0,0-.8.4.4,0,0,0,0,.8Z"/><path d="M499.18,323.61a.4.4,0,0,0,0-.8.4.4,0,0,0,0,.8Z"/><path d="M502.82,343.16a.4.4,0,0,0,0-.8.4.4,0,0,0,0,.8Z"/><path d="M517.34,337.57a.4.4,0,0,0,0-.8.4.4,0,0,0,0,.8Z"/><path d="M499.32,333.8a.4.4,0,0,0,0-.8.4.4,0,0,0,0,.8Z"/><rect class="cls-30" x="509.8" y="311.05" width="12.01" height="16.2"/><rect class="cls-30" x="494.44" y="311.05" width="12.01" height="16.2"/><path class="cls-30" d="M486.61,313.85s22.91,12.85,54.19-3.35l-15.27-45.58a18.1,18.1,0,0,0-17.06-12.45h-.54a12.34,12.34,0,0,0-11.63,10.12Z"/><path class="cls-27" d="M473.37,245.74c5.11-14.84,7.67-22.26,13.24-25a16.35,16.35,0,0,1,10.22-1.68c10.9,2.1,20,17.8,15.42,30.34-2.93,8.07-11.67,15.33-18.1,13.91-6.61-1.45-11-12.14-17.6-11.4-.77.09-2.42.43-3.35-.5C471.89,250.13,472.87,247.17,473.37,245.74Z"/><path class="cls-31" d="M476,222.6c-.8,5,3.35,10.74,8.38,12.08,5.74,1.53,11-3.18,13.13-1.26,1.92,1.69-1.92,5.49-.28,9.31,2,4.71,11.68,7.7,17.32,5,7.51-3.56,8.46-17.42,2-26.17-5.23-7-14.75-10.06-22.91-9.31C488.43,212.76,477.17,215.35,476,222.6Z"/><path class="cls-32" d="M480.75,240.4s4.53,3.27,8.38,0"/><path class="cls-2" d="M498.93,245.93c-.18-.18,1.19-5.28,3.08-6a1.78,1.78,0,0,1,1.06-.07c1.53.4,2.33,3,1.33,5.46-.91,2.24-3.43,3.51-3.78,3.14C498.63,246.37,500.14,247.11,498.93,245.93Z"/><path class="cls-32" d="M487,258.47a10.92,10.92,0,0,0,4.87-3.22c.22-.23.42-.46.6-.69"/><path class="cls-29" d="M502.44,243a8.22,8.22,0,0,0-1.08,2.41"/><path d="M492.34,260.27a.4.4,0,0,0,0-.8.4.4,0,0,0,0,.8Z"/><path d="M494.37,256.43a.4.4,0,0,0,0-.8.4.4,0,0,0,0,.8Z"/><path d="M496.11,255.38a.4.4,0,0,0,0-.8.4.4,0,0,0,0,.8Z"/><path d="M495,260.62a.4.4,0,0,0,0-.8.4.4,0,0,0,0,.8Z"/><path d="M496.11,258.38a.4.4,0,0,0,0-.8.4.4,0,0,0,0,.8Z"/><path d="M493.95,258.8a.4.4,0,0,0,0-.8.4.4,0,0,0,0,.8Z"/><path d="M497.72,260.48a.4.4,0,0,0,0-.8.4.4,0,0,0,0,.8Z"/><path d="M498.14,255.73a.4.4,0,0,0,0-.8.4.4,0,0,0,0,.8Z"/><path d="M498.21,257.61a.4.4,0,0,0,0-.8.4.4,0,0,0,0,.8Z"/><path d="M500.86,259a.4.4,0,0,0,0-.8.4.4,0,0,0,0,.8Z"/><path d="M500.09,257.61a.4.4,0,0,0,0-.8.4.4,0,0,0,0,.8Z"/><path d="M497.51,251.19a.4.4,0,0,0,0-.8.4.4,0,0,0,0,.8Z"/><path d="M500.3,248a.4.4,0,0,0,0-.8.4.4,0,0,0,0,.8Z"/><path d="M497.86,253.14a.4.4,0,0,0,0-.8.4.4,0,0,0,0,.8Z"/><path d="M499.67,253.56a.4.4,0,0,0,0-.8.4.4,0,0,0,0,.8Z"/><path d="M500.86,255.38a.4.4,0,0,0,0-.8.4.4,0,0,0,0,.8Z"/><path d="M501.07,253.07a.4.4,0,0,0,0-.8.4.4,0,0,0,0,.8Z"/><path d="M502,249.3a.4.4,0,0,0,0-.8.4.4,0,0,0,0,.8Z"/><path d="M499.74,260.83a.4.4,0,0,0,0-.8.4.4,0,0,0,0,.8Z"/><path d="M496.39,262a.4.4,0,0,0,0-.8.4.4,0,0,0,0,.8Z"/><path d="M495,253.77a.4.4,0,0,0,0-.8.4.4,0,0,0,0,.8Z"/><path d="M495.48,252a.4.4,0,0,0,0-.8.4.4,0,0,0,0,.8Z"/><path d="M499.74,250.56a.4.4,0,0,0,0-.8.4.4,0,0,0,0,.8Z"/><path class="cls-2" d="M516.28,229.41c-.35,0-1.68-2.21-3-4.32-.78-1.27-1.19-2-1.46-2.53a4.74,4.74,0,0,0-.93-1.35,5.47,5.47,0,0,0-2.53-1.44,8.9,8.9,0,0,1-2.7-1.31c-1.61-1.14-3.11-2.8-3-3.12,0,0,.14-.11.47-.11,2.19,0,9.18,2.73,11.92,8.87C516.22,226.59,516.51,229.18,516.28,229.41Z"/><path d="M503.19,215.38h0c1.6,0,8.9,2.29,11.8,8.79a13,13,0,0,1,1.21,5,31.17,31.17,0,0,1-2.79-4.2c-.77-1.26-1.18-2-1.45-2.51a4.82,4.82,0,0,0-1-1.38,5.63,5.63,0,0,0-2.58-1.47,8.81,8.81,0,0,1-2.67-1.29,9.6,9.6,0,0,1-2.91-2.94,1,1,0,0,1,.34,0m0-.27c-.32,0-.53.06-.59.18-.23.47,1.56,2.26,3,3.29,2.4,1.7,3.5,1,5.21,2.74.73.72.57.88,2.37,3.83,1.52,2.49,2.68,4.39,3.1,4.39h.06c.4-.22,0-3.11-1.11-5.48-2.79-6.25-9.92-8.95-12-8.95Z"/><path d="M496.3,293.25c-.44-.37-1.84-1.82-4.53-4.87a1,1,0,0,1-.23-.86l1.77-8.52a1,1,0,0,1,1.27-.75,22.29,22.29,0,0,0,6.68.95q.67,0,1.38,0h0a1,1,0,0,1,.8.34,1,1,0,0,1,.23.79l-1.31,9.3a1,1,0,0,1-.48.72A34.76,34.76,0,0,1,496.3,293.25Z"/><path d="M494.28,279h.06a23.12,23.12,0,0,0,6.92,1q.7,0,1.43,0a.19.19,0,0,1,.15.07.18.18,0,0,1,0,.15l-1.31,9.3a.19.19,0,0,1-.09.14,48.67,48.67,0,0,1-5,2.69c-.61-.6-1.88-1.93-4.12-4.47a.19.19,0,0,1,0-.17l1.77-8.52a.19.19,0,0,1,.19-.16m0-1.6a1.8,1.8,0,0,0-1.76,1.43l-1.77,8.52a1.79,1.79,0,0,0,.41,1.55,55.13,55.13,0,0,0,4.9,5.15l.11,0c.84,0,4.52-2.12,6.12-3.07a1.79,1.79,0,0,0,.86-1.3l1.31-9.3a1.8,1.8,0,0,0-1.78-2h-.09q-.69,0-1.34,0a21.44,21.44,0,0,1-6.44-.91,1.8,1.8,0,0,0-.54-.08Z"/><path class="cls-27" d="M458.35,273.09a4.78,4.78,0,0,0-.87,8.31c16.68,11.66,31.48,8.57,41,3.91a51.89,51.89,0,0,0,16.32-12.77,4.78,4.78,0,0,0-7.47-6h0A42.76,42.76,0,0,1,494,276.87c-10.35,5-20.78,3.86-31-3.3A4.78,4.78,0,0,0,458.35,273.09Z"/><rect class="cls-33" x="410.23" y="320.55" height="65.37" transform="translate(820.46 706.47) rotate(180)"/><rect class="cls-34" x="399.84" y="336.74" width="29.05" height="53.87"/><polygon class="cls-34" points="391.06 344.76 399.84 336.74 428.9 336.74 420.12 344.76 391.06 344.76"/><polygon class="cls-34" points="391.06 398.63 399.84 390.61 428.9 390.61 420.12 398.63 391.06 398.63"/><rect class="cls-34" x="391.07" y="344.76" width="29.05" height="53.87"/><circle class="cls-35" cx="405.59" cy="360.65" r="7.11"/><circle class="cls-35" cx="405.59" cy="379.72" r="5.03"/><polyline class="cls-36" points="398.5 249.59 398.5 237.35 406.96 233.56 406.96 244.34"/><ellipse class="cls-37" cx="405.11" cy="245.7" rx="2.48" ry="1.34" transform="translate(-55.08 358.42) rotate(-45)"/><ellipse class="cls-37" cx="415.61" cy="233.46" rx="2.48" ry="1.34" transform="translate(-43.35 362.26) rotate(-45)"/><ellipse class="cls-37" cx="396.66" cy="250.66" rx="2.48" ry="1.34" transform="translate(-61.06 353.9) rotate(-45)"/><polyline class="cls-36" points="425.03 252.51 425.03 240.26 433.48 236.47 433.48 247.26"/><ellipse class="cls-37" cx="431.64" cy="248.62" rx="2.48" ry="1.34" transform="translate(-49.38 378.03) rotate(-45)"/><ellipse class="cls-37" cx="423.19" cy="253.57" rx="2.48" ry="1.34" transform="translate(-55.36 373.51) rotate(-45)"/><line class="cls-38" x1="417.58" y1="232.62" x2="417.45" y2="221.32"/><ellipse class="cls-37" cx="439.22" cy="215.97" rx="2.48" ry="1.34" transform="translate(-24.07 373.83) rotate(-45)"/><polyline class="cls-36" points="441.19 215.14 441.06 203.83 444.56 201.5"/></g></g></g></svg>