<?xml version="1.0" encoding="UTF-8" standalone="no"?>
<svg xmlns="http://www.w3.org/2000/svg" viewBox="0 0 37.55 37.55">
<defs>
<style>.cls-1{fill:#fff;}</style>
</defs>
<title>instagram</title>
<g data-name="Layer 2">
<g id="HOME">
<g id="Instagram">
<circle cy="18.8" cx="18.8" r="18.8"/>
<path class="cls-1" d="m18.8 25.5a6.76 6.76 0 1 1 6.73 -6.78 6.76 6.76 0 0 1 -6.7 6.8zm0-11.1a4.38 4.38 0 1 0 4.39 4.37 4.38 4.38 0 0 0 -4.4 -4.4z"/>
<path class="cls-1" d="m25.4 5.85a6.78 6.78 0 0 1 6.3 6.9c0.14 4 0.15 8.05 0 12.1a6.9 6.9 0 0 1 -7.07 7q-5.88 0.18-11.8 0a6.91 6.91 0 0 1 -7.09 -7c-0.14-4-0.15-8 0-12 0.16-4.15 2.94-6.82 7.1-7 2.1-0.24 10.4-0.33 12.6-0.05zm4 7.24c-0.12-3.08-1.92-4.91-5-5q-5.65-0.12-11.3 0a4.66 4.66 0 0 0 -5 4.92q-0.15 5.73 0 11.5c0.08 3 1.85 4.82 4.8 4.9q5.82 0.17 11.6 0a4.49 4.49 0 0 0 4.8 -4.4c0.3-2 0.2-10 0.1-11.9z"/>
<path class="cls-1" d="m25.8 10.2a1.54 1.54 0 0 1 1.59 1.55 1.56 1.56 0 1 1 -3.13 0 1.53 1.53 0 0 1 1.5 -1.6z"/>
</g>
</g>
</g>
</svg>
