<svg xmlns="http://www.w3.org/2000/svg" xmlns:xlink="http://www.w3.org/1999/xlink" viewBox="0 0 308.62 197.94"><defs><style>.cls-1,.cls-10,.cls-15,.cls-5,.cls-6,.cls-8,.cls-9{fill:none;}.cls-11,.cls-14,.cls-17,.cls-18,.cls-2,.cls-20,.cls-7{fill:#fff;}.cls-3{fill:#efe8aa;}.cls-4{fill:url(#New_Pattern_2);}.cls-10,.cls-11,.cls-12,.cls-13,.cls-14,.cls-15,.cls-16,.cls-17,.cls-18,.cls-19,.cls-20,.cls-21,.cls-5,.cls-6,.cls-7,.cls-8,.cls-9{stroke:#000;}.cls-10,.cls-11,.cls-12,.cls-15,.cls-16,.cls-19,.cls-5,.cls-6,.cls-8,.cls-9{stroke-linecap:round;}.cls-5{stroke-linejoin:bevel;}.cls-10,.cls-5,.cls-7{stroke-width:2.15px;}.cls-11,.cls-12,.cls-19,.cls-21,.cls-6{stroke-linejoin:round;}.cls-6,.cls-8{stroke-width:2.15px;}.cls-10,.cls-13,.cls-14,.cls-15,.cls-16,.cls-17,.cls-18,.cls-20,.cls-7,.cls-8,.cls-9{stroke-miterlimit:10;}.cls-9{stroke-width:2px;}.cls-11{stroke-width:1.87px;}.cls-12,.cls-13,.cls-14,.cls-15,.cls-16{stroke-width:1.74px;}.cls-17{stroke-width:0.29px;}.cls-18{stroke-width:0.82px;}.cls-19{stroke-width:1.97px;}.cls-20{stroke-width:1.81px;}.cls-21{stroke-width:2.06px;}</style><pattern id="New_Pattern_2" data-name="New Pattern 2" width="105" height="70" patternUnits="userSpaceOnUse" viewBox="0 0 105 70"><rect class="cls-1" width="105" height="70"/><path class="cls-2" d="M81.45,68.86V69h.41a1.3,1.3,0,0,1,.2-.57h-.2Q81.45,68.54,81.45,68.86Z"/><path class="cls-2" d="M99,68.94h1.3v-.38l-.46-.31H99Z"/><path d="M102,62.87c0-.46-.22-.69-.65-.69l-.37.69v.37h1Z"/><path class="cls-2" d="M100.31,68.25h-.46l.46.31Z"/><path d="M95.8,68.64l.2-.53v-.24h-.73v.24C95.3,68.46,95.48,68.64,95.8,68.64Z"/><path d="M2.53,56.77h1q-.28-1.3-2-1.3H1.23Q1.23,56,2.53,56.77Z"/><polygon points="5.52 68.25 4.87 67.93 4.22 68.94 4.87 69.31 5.52 68.25"/><path d="M8.16,67.93q-.29,0-.29.33a4.17,4.17,0,0,0-2-.61q0,.81,2.6,1.3h.69Q9.18,68.46,8.16,67.93Z"/><path d="M27.26,68.44a2.77,2.77,0,0,1,1.06-.32v-.7l-.86.3Z"/><rect class="cls-2" x="15.03" y="64.49" width="0.45" height="0.81"/><path class="cls-2" d="M7.79,68.39c0,.33.19.49.49.49h.24V68.6a1.89,1.89,0,0,1-.24-.73A.47.47,0,0,0,7.79,68.39Z"/><path class="cls-2" d="M16.82,60.91v-.29h-.53v.73C16.64,61.36,16.82,61.21,16.82,60.91Z"/><path class="cls-2" d="M12.18,58.07h.49v-.29q0-.36-.77-.81h-.53Q11.82,58.07,12.18,58.07Z"/><path class="cls-2" d="M12.18,61.36h-.53l-.28,1.1Q11.82,62.46,12.18,61.36Z"/><path class="cls-2" d="M19.13,62.17v-.24H18.4q-.41,0-.81.77l.53.24Q19.13,62.54,19.13,62.17Z"/><path class="cls-2" d="M7,57.78v.53q.37,0,.81-.77v-.28H7.51C7.16,57.34,7,57.51,7,57.78Z"/><path class="cls-2" d="M2.59,61.93H1.82v.77Q2.22,62.7,2.59,61.93Z"/><path class="cls-2" d="M8,61.93H6.49v.24q.16,0,1.54.29Z"/><path class="cls-2" d="M4.66,61.65q0,.37.77.81h.24a.47.47,0,0,0,.53-.53l-.53-.28Z"/><path d="M21,62.7h.73l1.3-.24v-.53q0-.24-1.79-1.58c0,.19-.08.28-.24.28l.24.53v1Z"/><path d="M27.67,62.95h.24a1.87,1.87,0,0,1,.77-.24v-.53h-.24Q28.08,62.17,27.67,62.95Z"/><path class="cls-2" d="M88.49,2.6q0-.49-1-1.06V2.6a3.14,3.14,0,0,1,1,.24Z"/><path class="cls-2" d="M90.42,16.32l.37-.69v-.33h-1v.33Q89.89,16.32,90.42,16.32Z"/><path class="cls-2" d="M103.28,3.21c0-.33-.43-.65-1.3-1q-2,.77-2,1.3a2.11,2.11,0,0,1,1,.37A19.92,19.92,0,0,1,103.28,3.21Z"/><path class="cls-1" d="M104.62,3.54l.6-.12-.46-.59h-.15Z"/><path class="cls-1" d="M103.61,6.83a2.78,2.78,0,0,1,1-.33.58.58,0,0,0-.65-.65c-.46.05-.69.27-.69.65A.29.29,0,0,1,103.61,6.83Z"/><path class="cls-2" d="M89.5,12.11a2.07,2.07,0,0,1,.94-.37q0-.73-2.93-1.3v.37A2.16,2.16,0,0,0,89.5,12.11Z"/><path class="cls-1" d="M83.44,4.53v.61h.61q0-1,.69-1V3.84h-1Z"/><path class="cls-2" d="M88.18,15.63v-.33H87.12v1h.37A.61.61,0,0,0,88.18,15.63Z"/><path class="cls-2" d="M88.81,6.5c.08.43.31.65.69.65l1.63-.33a2.5,2.5,0,0,0,1,.33V6.83l-.33-.69A14.86,14.86,0,0,1,88.81,6.5Z"/><path d="M99.48,10h.65q.45,0,1-1.06l-.37-.61A1.6,1.6,0,0,0,99.48,10Z"/><path d="M89.95,8q-.61.12-.61.65v.65l2,.33.28-.69L90.27,8Z"/><path d="M106.29,3.21,106,2.6a3.77,3.77,0,0,1-1.2.23l.46.59Z"/><path class="cls-2" d="M104.26,6.65H104c-.38,0-.57.2-.57.53v.49h.28c.35,0,.53-.16.53-.49a.22.22,0,0,1-.24-.24C104.18,6.93,104.26,6.84,104.26,6.65Z"/><path class="cls-2" d="M102.71,2.78l-.28.49h.77A.43.43,0,0,0,102.71,2.78Z"/><path class="cls-2" d="M102.18,12.58l.24-.53v-1.3l1-.24V10a4.42,4.42,0,0,0-3.29,1.75A6.07,6.07,0,0,0,102.18,12.58Z"/><path class="cls-2" d="M36,37.6q0-.49-1-1.06V37.6a3.14,3.14,0,0,1,1,.24Z"/><path class="cls-2" d="M29,33.86V34h.41a1.3,1.3,0,0,1,.2-.57h-.2Q29,33.54,29,33.86Z"/><path class="cls-2" d="M67,53.35q0,.28.57.61l.2-.41-.41-.2Z"/><path class="cls-2" d="M63.22,54l.41-.61-1.75-.16A1.3,1.3,0,0,0,63.22,54Z"/><path class="cls-2" d="M37.92,51.32l.37-.69v-.33h-1v.33Q37.39,51.32,37.92,51.32Z"/><path class="cls-2" d="M46.51,33.94h1.3v-.38l-.46-.31h-.84Z"/><path class="cls-2" d="M50.78,38.21c0-.33-.43-.65-1.3-1q-2,.77-2,1.3a2.11,2.11,0,0,1,1,.37A19.92,19.92,0,0,1,50.78,38.21Z"/><path class="cls-1" d="M52.12,38.54l.6-.12-.46-.59h-.15Z"/><path class="cls-1" d="M51.11,41.83a2.78,2.78,0,0,1,1-.33.58.58,0,0,0-.65-.65c-.46.05-.69.27-.69.65A.29.29,0,0,1,51.11,41.83Z"/><path class="cls-2" d="M37,47.11a2.07,2.07,0,0,1,.94-.37q0-.73-2.93-1.3v.37A2.16,2.16,0,0,0,37,47.11Z"/><path class="cls-1" d="M30.94,39.53v.61h.61q0-1,.69-1v-.33h-1Z"/><path class="cls-2" d="M66.47,51v.33a.66.66,0,0,0,.69.61h.93q.69,0,.69-.61l-1.38-.69A2.07,2.07,0,0,1,66.47,51Z"/><path class="cls-2" d="M35.68,50.63v-.33H34.62v1H35A.61.61,0,0,0,35.68,50.63Z"/><path class="cls-2" d="M36.31,41.5c.08.43.31.65.69.65l1.63-.33a2.5,2.5,0,0,0,1,.33v-.33l-.33-.69A14.86,14.86,0,0,1,36.31,41.5Z"/><rect x="56.53" y="47.73" width="1.3" height="0.61"/><path d="M47,45h.65q.45,0,1-1.06l-.37-.61A1.6,1.6,0,0,0,47,45Z"/><path d="M37.45,43q-.61.12-.61.65v.65l2,.33.28-.69L37.77,43Z"/><path d="M67.31,44.88l-.69-.37h-.28c-.46.11-.69.34-.69.69v.28a2.26,2.26,0,0,1,1,.33Z"/><path d="M55,21.77h1q-.28-1.3-2-1.3h-.33Q53.73,21,55,21.77Z"/><polygon points="58.02 33.25 57.37 32.93 56.72 33.94 57.37 34.31 58.02 33.25"/><path d="M49.54,27.87c0-.46-.22-.69-.65-.69l-.37.69v.37h1Z"/><path d="M60.66,32.93q-.29,0-.29.33a4.17,4.17,0,0,0-2-.61q0,.81,2.6,1.3h.69Q61.68,33.46,60.66,32.93Z"/><path d="M79.76,33.44a2.77,2.77,0,0,1,1.06-.32v-.7l-.86.3Z"/><path d="M63.67,36.91l-.37.69h1Q64.28,36.91,63.67,36.91Z"/><path class="cls-2" d="M47.81,33.25h-.46l.46.31Z"/><path d="M53.79,38.21l-.33-.61a3.77,3.77,0,0,1-1.2.23l.46.59Z"/><rect class="cls-2" x="67.53" y="29.49" width="0.45" height="0.81"/><path class="cls-2" d="M60.29,33.39c0,.33.19.49.49.49H61V33.6a1.89,1.89,0,0,1-.24-.73A.47.47,0,0,0,60.29,33.39Z"/><path class="cls-2" d="M69.32,25.91v-.29h-.53v.73C69.14,26.36,69.32,26.21,69.32,25.91Z"/><path class="cls-2" d="M52.53,54.29v.28c.05.35.23.53.53.53v-.29A.47.47,0,0,0,52.53,54.29Z"/><path class="cls-2" d="M64.68,23.07h.49v-.29q0-.36-.77-.81h-.53Q64.32,23.07,64.68,23.07Z"/><path class="cls-2" d="M64.68,26.36h-.53l-.28,1.1Q64.32,27.46,64.68,26.36Z"/><path class="cls-2" d="M51.76,41.65h-.24c-.38,0-.57.2-.57.53v.49h.28c.35,0,.53-.16.53-.49a.22.22,0,0,1-.24-.24C51.68,41.93,51.76,41.84,51.76,41.65Z"/><path class="cls-2" d="M71.63,27.17v-.24H70.9q-.41,0-.81.77l.53.24Q71.63,27.54,71.63,27.17Z"/><path class="cls-2" d="M50.21,37.78l-.28.49h.77A.43.43,0,0,0,50.21,37.78Z"/><path class="cls-2" d="M49.68,47.58l.24-.53v-1.3l1-.24V45a4.42,4.42,0,0,0-3.29,1.75A6.07,6.07,0,0,0,49.68,47.58Z"/><path class="cls-2" d="M59.48,22.78v.53q.37,0,.81-.77v-.28H60C59.66,22.34,59.48,22.51,59.48,22.78Z"/><path class="cls-2" d="M67.24,43.68l-.29.53v.53h.29a.53.53,0,0,0,0-1.06Z"/><path class="cls-2" d="M64.4,47.87q-.16,0-1.26-1.3c-.38.05-.57.22-.57.49v.53q.61,0,1.58,1h.24l-.24-.53C64.32,48.07,64.4,48,64.4,47.87Z"/><path class="cls-2" d="M72.16,45q0,.37.77.73h.77L74,44.49h-.24A2.18,2.18,0,0,1,72.16,45Z"/><path class="cls-2" d="M59.77,48.07v.29q.08.53.53.53h.49v-1a1.69,1.69,0,0,1-.77-.29Z"/><path class="cls-2" d="M76,44.74l-.24.49a.54.54,0,0,0,.37.5v-1Z"/><path class="cls-2" d="M55.62,49.41l-.53.73v.28l.24.49a1.4,1.4,0,0,0,1.1-1Z"/><path class="cls-2" d="M55.09,26.93h-.77v.77Q54.72,27.7,55.09,26.93Z"/><path class="cls-2" d="M55.09,35.71H54.6q-.57,0-.81,1.26h.81l.73-.53A1.88,1.88,0,0,1,55.09,35.71Z"/><path class="cls-2" d="M57.94,54.57v.53h-.77l-1-.81v.28a3.69,3.69,0,0,0,2,1,.25.25,0,0,1,.29-.28,1.69,1.69,0,0,1-.29-.73Z"/><path class="cls-2" d="M60.54,26.93H59v.24q.16,0,1.54.29Z"/><path class="cls-2" d="M57.16,26.65q0,.37.77.81h.24a.47.47,0,0,0,.53-.53l-.53-.28Z"/><path d="M43.3,33.64l.2-.53v-.24h-.73v.24C42.8,33.46,43,33.64,43.3,33.64Z"/><path d="M77.85,54v.28a1.9,1.9,0,0,1,1,.53h.28q.45,0,.45-.53L78.34,54Z"/><path d="M76.15,45.73l.16,0c.33,0,.49-.18.49-.53h-.49V45H77v-.28h-.89Z"/><path d="M73.46,27.7h.73l1.3-.24v-.53q0-.24-1.79-1.58c0,.19-.08.28-.24.28l.24.53v1Z"/><path d="M80.17,27.95h.24a1.87,1.87,0,0,1,.77-.24v-.53h-.24Q80.58,27.17,80.17,27.95Z"/><path class="cls-2" d="M14.46,18.35q0,.28.57.61l.2-.41-.41-.2Z"/><path class="cls-2" d="M10.72,19l.41-.61-1.75-.16A1.3,1.3,0,0,0,10.72,19Z"/><path class="cls-1" d="M-.38,3.54l.6-.12-.46-.59H-.38Z"/><path class="cls-2" d="M14,16v.33a.66.66,0,0,0,.69.61h.93q.69,0,.69-.61l-1.38-.69A2.07,2.07,0,0,1,14,16Z"/><rect x="4.03" y="12.73" width="1.3" height="0.61"/><path d="M14.81,9.88l-.69-.37h-.28c-.46.11-.69.34-.69.69v.28a2.26,2.26,0,0,1,1,.33Z"/><path d="M11.17,1.91l-.37.69h1Q11.78,1.91,11.17,1.91Z"/><path d="M1.29,3.21,1,2.6a3.77,3.77,0,0,1-1.2.23l.46.59Z"/><path class="cls-2" d="M0,19.29v.28c.05.35.23.53.53.53v-.29A.47.47,0,0,0,0,19.29Z"/><path class="cls-2" d="M14.74,8.68l-.29.53v.53h.29a.47.47,0,0,0,.53-.53A.47.47,0,0,0,14.74,8.68Z"/><path class="cls-2" d="M11.9,12.87q-.16,0-1.26-1.3c-.38.05-.57.22-.57.49v.53q.61,0,1.58,1h.24l-.24-.53C11.82,13.07,11.9,13,11.9,12.87Z"/><path class="cls-2" d="M19.66,10q0,.37.77.73h.77l.24-1.26h-.24A2.18,2.18,0,0,1,19.66,10Z"/><path class="cls-2" d="M7.27,13.07v.29q.08.53.53.53h.49v-1a1.69,1.69,0,0,1-.77-.29Z"/><path class="cls-2" d="M23.53,9.74l-.24.49a.54.54,0,0,0,.37.5v-1Z"/><path class="cls-2" d="M3.12,14.41l-.53.73v.28l.24.49a1.4,1.4,0,0,0,1.1-1Z"/><path class="cls-2" d="M2.59.71H2.1Q1.53.71,1.29,2H2.1l.73-.53A1.88,1.88,0,0,1,2.59.71Z"/><path class="cls-2" d="M5.44,19.57v.53H4.66l-1-.81v.28a3.69,3.69,0,0,0,2,1A.25.25,0,0,1,6,20.31a1.69,1.69,0,0,1-.29-.73Z"/><path d="M25.35,19v.28a1.9,1.9,0,0,1,1,.53h.28q.45,0,.45-.53L25.84,19Z"/><path d="M23.65,10.73l.16,0c.33,0,.49-.18.49-.53h-.49V10h.73V9.74h-.89Z"/></pattern></defs><title>intro-bg_1</title><g id="Layer_2" data-name="Layer 2"><g id="HOME"><path class="cls-3" d="M14.15,122.47c-1-9.46,3.23-18.62,11.24-27a152.43,152.43,0,0,1,24.2-20.15c10.9-7.43,24.79-12.66,40.16-15.82C101,57.15,113,56.64,124.83,55.87a248.74,248.74,0,0,0,29.87-5c15.2-4.42,29.07-10.37,44.5-14.52,12.86-3.46,25-6.23,39.23-6.5,15.53-.29,31.91,3.35,42.51,10.45,16,10.69,18.11,26.57,5.6,38.91-5.36,5.29-12.56,9.14-20.8,12.21a110.22,110.22,0,0,0-11.29,7.63c-9.13,7.4-18,15-24.47,23.45-3.68,5.66-7.23,11.38-12.16,16.68a99.65,99.65,0,0,1-13,11.5,71.83,71.83,0,0,1-20.71,15.51,162.25,162.25,0,0,1-47.64,16.07,130.74,130.74,0,0,1-64.2-5.77c-.75-.27-1.49-.56-2.23-.84a47.25,47.25,0,0,1-15.15-5.85q-4.89-3-9.49-6.25a77.83,77.83,0,0,1-16.4-12,43.68,43.68,0,0,1-3.44-3.79,51.22,51.22,0,0,1-8.75-11.51A22.66,22.66,0,0,1,14.15,122.47Z"/><path class="cls-4" d="M240.16,15.86l-2,0a140.25,140.25,0,0,0-23.45,2.47l2.58,13.76,2.11-.38h1l.19,0h1.23l.56-.09H223l.16,0h0c3.59-.52,7.27-.9,11.09-1.1h0l1.2-.06h.87l.61,0h1.49l1.72,0v-14Zm-37,5c-2.31.57-4.74,1.2-7.64,2-4.7,1.27-9.64,2.79-15.56,4.78l4.48,13.26.18-.06h0l.07,0h0l.06,0,.07,0,0,0,.08,0h0l.08,0h0c3.79-1.27,7.63-2.5,11.56-3.61h0l.34-.1h0l.11,0h0l.23-.06h0l.1,0h0l.22-.06h0l.1,0h0l.22-.06h0l.09,0h0l.09,0h0l.11,0h0l.09,0h0l.08,0h0l.11,0h0l.1,0h0l.08,0h0l.11,0h0l.09,0h.09l.12,0h0l2.76-.73h0l.06,0h0l.09,0h.09l.09,0h0l.08,0h0l.11,0h0l3.66-.93L203.2,20.88ZM169.46,31.31c-6.47,2.27-12.32,4.3-18.29,6l-2,.44,3,13.68,2.34-.52h.09l.09,0h0l.08,0h0l.06,0h0l.06,0h0l.06,0h0l.06,0h0l.07,0h0l.17-.05h0l.07,0h0l.06,0h0l.06,0h0l.07,0h0l.08,0h0l.18-.05h0l.08,0h0l.07,0h0l.07,0h0l.08,0h0l.35-.11h0l.08,0h0l.08,0h0l.44-.13h0l.09,0h0q3.88-1.18,7.67-2.47h0l.09,0h0l.08,0h0l.08,0h0l.26-.09h0l.07,0h0l.06,0h0l.06,0h0l.06,0h0l.06,0h0l.07,0h0l.06,0h.08l0,0h0l0,0h0l0,0h0l.05,0h0L167,47h0q3.57-1.22,7.11-2.47l-4.64-13.21ZM139,39.78c-5,.87-10.2,1.58-15.38,2.13l-4.42.28-1.53.1.88,14,.65,0,.62,0,.25,0L122.3,56h.4l1.74-.11H126l.46-.05h.73l.71-.08h.48l1.06-.13h.25l1.18-.15h.24l1.06-.14h0l.11,0h0l1.18-.16h0l.11,0h0l.11,0h0q3.85-.54,7.64-1.19L139,39.78ZM106.41,43.1a165.53,165.53,0,0,0-19.47,2.65c-1.79.37-3.57.76-5.31,1.18l3.26,13.62q2.23-.53,4.51-1h0l.09,0h0l.08,0h0l.07,0h0l.09,0h1.9l.89-.16h1.31l1-.17h1.91l.14,0h1.79c2.31-.3,4.64-.55,7-.77h.42l.38,0h.38l.71-.06L106.41,43.1ZM70,50.2A116.24,116.24,0,0,0,46.13,60.88l7.21,12a102.16,102.16,0,0,1,21-9.36L70,50.2ZM36,67.79A160.82,160.82,0,0,0,16.81,84.16l10,9.83a140.9,140.9,0,0,1,13.5-11.91h0l.14-.11h0l0,0h0l.1-.08h0l.09-.07h0l0,0,0,0h0l0,0h0l0,0h0l0,0h0l0,0h0l0,0h0l.09-.07h0l0,0h0l0,0h0l0,0h0l.15-.11h0q1.41-1.09,2.86-2.15L36,67.79ZM8.09,94.66c-6,9-8.65,18.31-8,27.82,0,.4,0,.79-.06,1.19H.2l0,.25L2,123.74l12,.47q0-.63.08-1.25h0v0h0q0-.22,0-.44h0v0h0v0h0v0h0v0h0v0h0v0h0v0h0v0h0v0h0v0h0v0h0v0h0v0h0v0h0v0h0v0h0v0h0v0h0v0h0v0h0v0h0v0h0v0h0v-.07h0v-.07h0v0h0v-.19h0v-.89h0v-.07h0v0h0v0h0v0h0v0h0v0h0v0h0v0h0v0h0v0h0v0h0v0h0v0h0v0h0v0h0v0h0v0h0v0h0v0h0v0h0v0h0v-.07h0v-.07h0v0h0v0h0v0h0v0h0v0h0v0h0v0h0v-.08h0v-.08h0v-.08h0v-.08h0v0h0v-.05h0v0h0v-.08h0v-.08h0v-.08h0l0-.27h0a32,32,0,0,1,5.68-15.53L8.09,94.66Zm8,40.24-12.64,6c.36.76.76,1.53,1.18,2.27a65.76,65.76,0,0,0,10.57,14.06,57.7,57.7,0,0,0,4,4.37q.78.77,1.59,1.51l9.49-10.29q-.64-.59-1.25-1.19h0l0,0a43.68,43.68,0,0,1-3.44-3.79,51.22,51.22,0,0,1-8.75-11.51h0v0h0v0h0l-.36-.66h0v0h0l0,0h0v0h0v0h0l-.27-.55ZM39,159.61l-7.81,11.62c2.13,1.43,4.42,2.85,6.8,4.21,3.27,2.27,6.41,4.33,9.58,6.3a54.36,54.36,0,0,0,4.8,2.64l6.13-12.59q-1.8-.88-3.48-1.91h0l0,0h0l-.05,0h0q-4.89-3-9.49-6.25l0,0h0l0,0h0l0,0h0l0,0h0l0,0h0l0,0h0l0,0h0l0,0h0l-.1-.05h0l-.1-.06h0l0,0h0l-.05,0h0l0,0h0l-.1-.06h0l-.1-.06h0l-.26-.15h0l-.1-.06h0q-2.64-1.54-5.1-3.19Zm29.86,15.79-2,8.75-1.77,4.58h0l.64.25V189l.39.09,1.49.55a136.42,136.42,0,0,0,20.8,5.67L91,181.6q-1.61-.31-3.2-.65h0l-.08,0h0l-.42-.09h0l-.08,0h0l-.07,0h0l-.07,0h0l-.07,0h0l-.33-.07h0l-.07,0h-.26l-.07,0h0l-.16,0h0l-.07,0h-.51l-.08,0h-.59l-.07,0h-.54l-.19,0h-.47l-.27-.07h0l-.06,0h-.09l-.06,0h0l-.06,0h0l-.36-.09h0l-.07,0h0l-.06,0h0l-.06,0h0l-.07,0h0l-.43-.12h0l-.07,0h0l-.07,0h0l-.07,0h0l-.43-.12h0l-.07,0h0l-.07,0h0l-.58-.16h0l-.07,0h0l-.07,0h0l-.51-.14h0l-.07,0h0l-.57-.17h0l-.07,0h0l-.57-.17h0l-.07,0h0l-.57-.17h0l-.07,0h0l-.07,0h0l-.57-.18h0l-.56-.18h0l-.06,0h0l-.07,0h0l-.42-.14h0l-.06,0h0l-.06,0h0l-.06,0h0l-.06,0h0l-.35-.11h0l-.06,0h0l-.06,0h0l-.06,0h0l-.06,0h0l-.33-.11h0l-.05,0h0l-.05,0h0l-.05,0h0l-.05,0h0l-.05,0h0l-.2-.07h0l-.05,0h0l0,0h0l0,0h0l0,0h0l0,0h0l0,0h0l-.18-.06h0l0,0H73l-.07,0h-.07l0,0h-.18l0,0h0l0,0h0l-.05,0h0l-.07,0h0c-.75-.27-1.49-.56-2.23-.84H70l-.11,0h-.29l-.07,0H69.4l-.19,0h0l-.07,0H69l-.14,0Zm33,7.8-1.47,13.92a148.13,148.13,0,0,0,15.46.81c3.31,0,6.66-.11,9.94-.34l-1-14q-3.54.24-7.08.29h-6.88q-4.53-.17-9-.64Zm56.24-6.14q-1.42.46-2.86.89h0l-.07,0H155l-.05,0h-.07l-.05,0h-.19l-.06,0h0l-.06,0h0l-.06,0h0l-.07,0h0l-.07,0h0l-.15,0h0l-.08,0h0l-.24.07h0a148.63,148.63,0,0,1-14.47,3.41h0l-.26,0h0l-.26,0h0l-.08,0h0l-.17,0h0l-.08,0h0l-.26,0h-.36l-.16,0h-1.12l-.45.07H136l-.2,0,2.17,13.83.86-.14a164.09,164.09,0,0,0,23.6-5.71l-4.28-13.33Zm31.08-13.63q-2,1.23-4.22,2.37h0l-.19.1h0l0,0h0l0,0h0l-.1,0h0l0,0h0l0,0h0l0,0h0l0,0h0l0,0h0l0,0h0l0,0h0l0,0h0l-.05,0h0l0,0h0l-.05,0h0l0,0h0l0,0h0l0,0h0l0,0h0l0,0h0l0,0h0l0,0h0l0,0h0l-.05,0h0l0,0h0l0,0h0l0,0h0l0,0h0l0,0h0l0,0h0l0,0h0l0,0h0l0,0h0l0,0h0l0,0h0l0,0h-.07l0,0,0,0h-.08l0,0h-.08l0,0,0,0h0l0,0h0l0,0h-.08l0,0H182l0,0h0l0,0h-.07l0,0,0,0,0,0h0l0,0h0l0,0h0l0,0h0l-.05,0h0l0,0h0l0,0h-.1l0,0h-.05l0,0h0l0,0H181l0,0,0,0h-.08l0,0h-.08l0,0,0,0h-.08l0,0h-.1l0,0h-.11l0,0h0l0,0h0l-.05,0h0l0,0h0l0,0h0l0,0h0l0,0h0l0,0h0l0,0h0l-.05,0h0l0,0h0l-.1.05h0l0,0h0l-.05,0h0l0,0h0l-.05,0h0l0,0h0l-.11.05h0l0,0h0l-.06,0h0l0,0h0l-.06,0h0l-.06,0h0l-.11.05h0l0,0h0l-.05,0h0l0,0h0l-.05,0h0l0,0h0l-.11.05h0l0,0h0l-.06,0h0l-.06,0h0l-.06,0h0l-.05,0h0l-.11.05h0l-.12.05h0l-.05,0h0l-.12.05h0l-.12.05h0l-.18.08h0l-.12.06h0l-.12.06h0q-4.16,1.91-8.53,3.65l5.16,13c5.6-2.22,11.29-4.8,16.91-7.67,2-1,4-2.12,5.87-3.26l-7.22-12ZM215.3,141.8a102.19,102.19,0,0,1-8.53,7.45h0l-.39.3h0l-.17.13h0l-.05,0h0l-.16.13h0l-.05,0h0l-.11.08h0l0,0h0l-.05,0h0l-.11.08h0l0,0h0l-.11.08h0l0,0h0l0,0h0l-.11.08h0l0,0h0l0,0h0l-.05,0h0l0,0h0l0,0h0l-.05,0h0l0,0h0l0,0h0l0,0h0l0,0h0l0,0h0l0,0,0,0,0,0,0,0h0l0,0h0l-.06.06h0l0,0h0l-.06.07h0l0,0h0l-.07.07h0l0,0h0a65.35,65.35,0,0,1-6.16,5.79l8.92,10.79a79.8,79.8,0,0,0,7.24-6.78,118.15,118.15,0,0,0,10.79-9.32l-9.81-10Zm21-26.6a85.8,85.8,0,0,0-6.16,7.09h0l-.11.15h0l0,0h0l0,0h0l-.05.08v0l0,.07,0,0,0,0-.05.08h0l-.17.26,0,0,0,.05,0,.06h0l-.4.63-.6.93h0l0,0,0,0,0,0v0h0c-1.43,2.2-2.87,4.4-4.41,6.58h0l-.14.19h0l0,0h0l0,0h0l0,0h0v.07h0l0,0h0l0,0h0l0,0h0l0,0h0l0,0h0l0,0h0l0,0h0l-.11.15h0l0,0h0l0,0h0l-.84,1.14,11.2,8.4c2.64-3.52,4.88-7,7-10.34l.64-1a73,73,0,0,1,5-5.71l-10.08-9.71Zm26.08-21.71-.39.25h0l-.06,0h0l-.06,0h0l-.05,0h0l-.06,0h0l-.05,0h0l0,0h0l-.05,0,0,0,0,0,0,0,0,0,0,0,0,0,0,0h0l-.06,0h0l0,0h0l-.08.05h0l0,0h0l-.13.08h0q-2.47,1.64-4.8,3.36h0l-.12.09h0l-.12.09h0l0,0h0l-.11.08h0l-.11.08h0l0,0h0l-.06,0h0l0,0h0l0,0,0,0,0,0,0,0,0,0,0,0,0,0,0,0,0,0,0,0,0,0,0,0,0,0,0,0,0,0,0,0,0,0,0,0h0l0,0h0l0,0h0l0,0h0l0,0h0l-.05,0h0l0,0h0l-.05,0h0l-.07.06h0l-.07.06h0l-.07.06h0l-.07.06h0l-.07.06h0l-.15.12h0l-.16.13h0l-.32.26h0l-.08.06h0l-.08.06h0l-.16.13h0l-.08.06h0l-.4.33h0l-.4.33h0l-.16.13h0l-.16.13h0l-.16.13h0l-.16.13h0l-.32.26h0l-.16.13h0l-.16.13h0l-.15.13h0l-.15.13h0l-.15.13h0l-.15.13h0l-.08.06h0l-.07.06h0l-.08.06h0l-.07.06h0l-.07.06h0l-.07.06h0l-.07.06h0l-.07.06h0l-.07.06h0l-.07.06h0l-.07.06h0l-.07.06h0l-.07.06h0l-.07.06h0l-.07.06,0,0-.06,0h0l-.07.06h0l-.06.05h0l-.07.06,0,0-.06.05h0l-.07.06h0l-.07.06h0l-.07.06h0l-.07.06h0l-.07.06h0l-.07.06h0l-.07.06h0l-.07.06h0l-.06.05,0,0-.07.06h0l-.06.05h0l-.07.06h0l-.06.05h0l-.07.06h0l-.06.05h0l-.07.06h0l-.06.05h0l-.07.06h0l-.06.05h0l-.07.06h0l-.06.05h0l-.07.06h0l-.06.05h0l-.07.06h0l-.06.05h0l-.07.06h0l-.06.05h0l-.07.06h0l-.06.06h0l-.07.06h0l-.07.06h0l-.07.06h0l-.07.06h0l-.07.06h0l-.07.06h0l-.07.06h0l-.14.13h0l-.14.13h0l-.15.13h0l-.15.13h0l-.15.13h0l-.15.13h0l-.15.13h0l-.15.13h0l-.15.13h0l-.15.14,9.29,10.48c2.62-2.32,5.56-4.8,9.51-8,2.38-1.81,4.62-3.39,6.86-4.81l-7.54-11.8ZM290.3,74.82q-.54.77-1.14,1.52h0v0h0l-.09.11H289v0h0a33.42,33.42,0,0,1-2.35,2.58h0l0,0,0,0h0l0,0h0l0,0h0l0,0h0l0,0h0l0,0h0l0,0h0l0,0h0l-.06.06h0l0,0h0l-.06.06h0l-.06.06h0l-.1.09h0a44.41,44.41,0,0,1-7.4,5.6h0l-.12.07h0l-.08,0h0l0,0h0l-.08,0h0l0,0h0l0,0h0l0,0h0l-.08,0h0l0,0h0l0,0h0l0,0h0l0,0h0l0,0h0l0,0h0l0,0h0l0,0h0l0,0h0l0,0h-.09l0,0h-.17l0,0h-.07l0,0h-.08l0,0h0l-.08,0h0l-.09,0h0l-.21.12h0q-2.1,1.18-4.37,2.23l5.92,12.69a63.65,63.65,0,0,0,18.15-12.2,46.09,46.09,0,0,0,5.4-6.36l-11.47-8Zm5.23-40.77L286,44.31c6.56,6.1,9.41,13.31,8.42,20.43l13.87,1.93c1.65-11.86-2.88-23.44-12.76-32.61Zm-38.09-16.8L255.2,31.07A71.64,71.64,0,0,1,277,38l6.56-12.37a85.73,85.73,0,0,0-26.15-8.38Zm-17.28-1.38h0v14h.07q1.63,0,3.27.06h.77l.61-14c-1.57-.07-3.15-.1-4.71-.1Z"/><polyline class="cls-5" points="79.06 48.14 135.88 15.34 193.96 132.86 137.14 165.67"/><polygon class="cls-6" points="156.61 149.79 72.69 98.67 127.93 66.78 211.85 117.9 156.61 149.79"/><path class="cls-7" d="M85.21,51.21s6.12,79.05,72,94.68l53.69-31.34c-65.92-15.63-72-94.68-72-94.68Z"/><path class="cls-8" d="M200.41,120.46c-65.92-15.63-72-94.68-72-94.68"/><path class="cls-7" d="M212,121.64l-51.27,29.6-3.32-5.76s53.06-31.21,54.35-31.21a3.59,3.59,0,0,1,3.59,3.59C215.33,119.81,212,121.64,212,121.64Z"/><path class="cls-8" d="M188.7,127.1c-65.92-15.63-72-94.68-72-94.68"/><path class="cls-8" d="M178.17,133.06c-65.92-15.63-72-94.68-72-94.68"/><path class="cls-9" d="M167.44,139.47c-65.92-15.63-72-94.68-72-94.68"/><line class="cls-10" x1="137.14" y1="165.67" x2="79.06" y2="48.14"/><line class="cls-5" x1="83.48" y1="104.19" x2="100.93" y2="93.66"/><path class="cls-7" d="M136.47,21.61,85.21,51.21l-3.32-5.76s53.06-31.21,54.35-31.21a3.59,3.59,0,0,1,3.59,3.59C139.82,19.77,136.47,21.61,136.47,21.61Z"/><circle class="cls-7" cx="157.25" cy="149.47" r="3.59"/><circle class="cls-7" cx="81.75" cy="49.44" r="3.59"/><path class="cls-11" d="M157.06,132s-39.69-21.81-30.17-40.91c6.76-13.56,23.65-14.33,23.65-14.33S167.45,99,181.45,107.55"/><path class="cls-2" d="M137.32,59.22a4.48,4.48,0,0,1-4.05-2.89,4.42,4.42,0,0,1,1-4.95,7.12,7.12,0,0,1,1.25-1c2.78-1.72,4.43-4.79,4.89-9.13,1.17-11-9.71-15.77-9.82-15.82a4.58,4.58,0,1,1,3.51-8.46,28.57,28.57,0,0,1,8.35,5.74,23.16,23.16,0,0,1,7.07,19.5c-1,9.51-5.91,14.14-9.84,16.35l-.39.21A4.52,4.52,0,0,1,137.32,59.22Z"/><path d="M132.34,17.46h0a3.69,3.69,0,0,1,1.42.29,27.61,27.61,0,0,1,8.08,5.56,22.31,22.31,0,0,1,6.82,18.79c-1,9.14-5.65,13.57-9.4,15.68l-.12.07-.22.11a3.43,3.43,0,0,1-4.84-2,3.54,3.54,0,0,1,.82-4,6.29,6.29,0,0,1,1.09-.9c3-1.87,4.8-5.16,5.29-9.78C142.52,29.58,131,24.65,130.91,24.6a3.71,3.71,0,0,1,1.43-7.14m0-1.74a5.45,5.45,0,0,0-2.09,10.49c.1,0,10.41,4.45,9.3,14.92-.43,4.06-1.94,6.91-4.48,8.48a8,8,0,0,0-1.41,1.16,5.47,5.47,0,0,0,3.67,9.32,5.38,5.38,0,0,0,2.35-.56l.3-.16.13-.07c4.11-2.31,9.23-7.14,10.28-17a24,24,0,0,0-7.33-20.21,29.52,29.52,0,0,0-8.63-5.93,5.43,5.43,0,0,0-2.09-.42Z"/><path class="cls-12" d="M123.88,94.6s17,10.73,35.4-8.88l-20-33.08c-3.71-3.72-10-4.71-15.62-2.3l-.39.17c-4.12,1.9-6.49,6-5.78,9.79Z"/><path class="cls-2" d="M106.6,38.15c0-.25-4.86-2.07-6.47-1a1.74,1.74,0,0,0-.66.8c-.56,1.44,1,3.56,3.56,4.18,2.29.56,4.74-.71,4.64-1.2C107.12,38.17,106.84,39.79,106.6,38.15Z"/><path class="cls-2" d="M111.09,70.86a23.56,23.56,0,0,1-10.15-2.5A23.16,23.16,0,0,1,88,52.11,28.56,28.56,0,0,1,87.53,42a4.58,4.58,0,0,1,9,1.44c0,.12-1.75,11.85,8.32,16.66a14.5,14.5,0,0,0,6.19,1.59,9.15,9.15,0,0,0,4.15-1,7.14,7.14,0,0,1,1.53-.52,5,5,0,0,1,1.15-.14,4.57,4.57,0,0,1,4.33,3.39,4.16,4.16,0,0,1-1.85,4.88l-.25.15-.12.07a18.21,18.21,0,0,1-8.93,2.31Z"/><path d="M92,39a3.77,3.77,0,0,1,.59,0,3.71,3.71,0,0,1,3.08,4.25c0,.12-1.84,12.49,8.8,17.58a15.36,15.36,0,0,0,6.57,1.67,10,10,0,0,0,4.54-1.05A6.29,6.29,0,0,1,117,61a4.13,4.13,0,0,1,1-.12,3.7,3.7,0,0,1,3.49,2.77,3.36,3.36,0,0,1-1.48,3.9l-.21.13-.12.07a17.35,17.35,0,0,1-8.51,2.2,22.71,22.71,0,0,1-9.77-2.42A22.31,22.31,0,0,1,88.89,51.92a27.62,27.62,0,0,1-.5-9.79A3.69,3.69,0,0,1,92,39m0-1.74a5.45,5.45,0,0,0-5.38,4.6,29.52,29.52,0,0,0,.52,10.46,24,24,0,0,0,13.38,16.83,24.28,24.28,0,0,0,10.52,2.59,19.15,19.15,0,0,0,9.36-2.42l.13-.07.29-.17c4.66-3,2.06-9.88-3-9.88a5.85,5.85,0,0,0-1.35.16,8,8,0,0,0-1.72.59,8.26,8.26,0,0,1-3.76.87,13.61,13.61,0,0,1-5.81-1.5c-9.5-4.54-7.85-15.63-7.83-15.74A5.46,5.46,0,0,0,92,37.25Z"/><path class="cls-13" d="M90.88,19.13c6.91-14.58,30.17-21.93,38.39-15,6.61,5.58,8.51,14.63,5.85,36-.45,3.61-3-.87-7.42,5.85a20.24,20.24,0,0,1-30.14,4.24q-.6-.53-1.14-1.09C87.68,40,88.32,36.46,88.53,31.73S88.9,23.32,90.88,19.13Z"/><path class="cls-14" d="M131.54,48.9c2.89-4.67,4.5-11.26,9.22-12.29.74-.16,2.37-.36,2.94-1.51.8-1.62-1-4-1.94-5.22-9.37-12.12-14.05-18.18-20.05-18.95a16,16,0,0,0-10,1.65c-9.42,5.35-12.9,22.7-4.77,32.87C112.2,52,122.55,56,128.06,52.66a11,11,0,0,0,3.49-3.75"/><path class="cls-15" d="M130.25,26.84s-3.16,4.44-7.75,2.62"/><path class="cls-16" d="M102.68,40s19.76-12.05,25.63-28.76c1-4.63-18.74-.67-18.74-.67L97.62,28Z"/><path class="cls-15" d="M132,47.44A10.66,10.66,0,0,1,126.53,46c-.27-.14-.53-.29-.77-.45"/><path class="cls-17" d="M119.69,21.91c-1.82,2.75-3,2.7-5.45,5.14s-3.37,4.6-3.57,4.34.58-2.12,1.39-3.57c1.21-2.16,2.22-2.59,4.81-5,2.78-2.55,4.07-4.24,4.25-3.93S120.45,20.76,119.69,21.91Z"/><path class="cls-16" d="M99.83,4.8c-1.57-4-13.66-6.31-18.2-.18-2.89,3.91-2.29,10.71,1.07,12.94C86.83,20.3,94,15.38,97.36,11.06,98.72,9.28,100.63,6.81,99.83,4.8Z"/><path class="cls-18" d="M91,17.21c.42.61,5.63-2.07,7.55-6.21.1-.22.9-3.11.56-2.63C96.49,12,90.42,16.37,91,17.21Z"/><path class="cls-19" d="M162.16,131.38l17.53-12.23a8.67,8.67,0,0,0,3.22-9.46h0c-.64-2.16-2.5-3.07-5.43-1l-20,12.62a6.76,6.76,0,0,0-2.8,8l0,.09h0C155.89,132.51,159.23,133.42,162.16,131.38Z"/><path class="cls-20" d="M188.68,137.86s.52-8.29-7.54-9.93-19.78-4-19.78-4"/><path class="cls-20" d="M191.5,153.65c2.08-.3,2.73-2.05,2.87-4.29.27-4.29,2.37-22.8-12.46-25-4.68-.68-10.48-2.12-14.62-3a5.23,5.23,0,0,0-6.15,4.28l-.2,1.09a2.83,2.83,0,0,0,2.18,3.3c3.94.79,11.4,2.28,17.08,3.44,7,1.43,4.5,21,4.46,21.68-.16,2.57,3.37-1.72,5.88-1.53A4.43,4.43,0,0,0,191.5,153.65Z"/><path class="cls-20" d="M200.15,128.9s.52-8.29-7.54-9.93-19.78-4-19.78-4"/><path class="cls-20" d="M203,144.69c2.08-.3,4.73.95,4.87-1.29.27-4.29,2.19-25.76-14.46-28-4.68-.62-10.48-2.12-14.62-3a5.23,5.23,0,0,0-6.15,4.28l-.2,1.09a2.83,2.83,0,0,0,2.18,3.3c3.94.79,11.47,2,17.08,3.44,9.68,2.52,6.5,21,6.46,21.68-.16,2.57,1.37-1.72,3.88-1.53A4.43,4.43,0,0,0,203,144.69Z"/><path class="cls-21" d="M197.3,143.14,197.24,155c0,1.16,0,2.32-.12,3.47-.12,1.75,0,5.38,2.55,6.55,3.45,1.56,13.41,5.26,16.88,3.94s4.06-4.2,2.53-5.36c-1.23-.94-6.69-3.26-8.77-4.14a1.31,1.31,0,0,1-.8-1.21l.09-15.06"/><path d="M203.38,144.51c-3.47,0-5.55-.76-6.13-1.19.59-.44,2.66-1.12,6-1.12h.14c3.47,0,5.55.76,6.13,1.19-.59.44-2.67,1.12-6,1.12Z"/><path d="M203.26,143.23h.13a20.72,20.72,0,0,1,2.31.14,20.92,20.92,0,0,1-2.18.11h-.13a20.71,20.71,0,0,1-2.31-.14,20.94,20.94,0,0,1,2.18-.11m0-2.06c-4,0-7.14.95-7.15,2.14s3.25,2.2,7.27,2.22h.14c4,0,7.14-.95,7.15-2.14s-3.25-2.2-7.27-2.22Z"/><path class="cls-21" d="M183.94,152.06l-.19,11.88c0,1.16-.06,2.32-.15,3.47-.14,1.74-.08,5.38,2.49,6.58,3.43,1.59,13.36,5.4,16.84,4.11s4.1-4.16,2.58-5.34c-1.22-.95-6.66-3.33-8.73-4.22a1.31,1.31,0,0,1-.79-1.22l.24-15.06"/><path d="M190,153.49c-3.47-.05-5.54-.82-6.12-1.25.58-.42,2.58-1.06,5.78-1.06H190c3.47.05,5.54.82,6.12,1.25-.58.42-2.58,1.06-5.78,1.06Z"/><path d="M189.67,152.22H190a20.72,20.72,0,0,1,2.31.16c-.58.06-1.23.09-2,.09H190a20.72,20.72,0,0,1-2.31-.16c.58-.05,1.23-.09,2-.09m0-2.06c-3.84,0-6.9.9-6.92,2.07s3.22,2.23,7.24,2.3h.39c3.84,0,6.9-.9,6.92-2.07s-3.22-2.23-7.24-2.3Z"/><path class="cls-2" d="M63.34,133.93l.49-.59q.34-.4-.19-1.72l-.83-.13A1.88,1.88,0,0,0,63.34,133.93Z"/><path class="cls-2" d="M76.49,140.73l-.29-.62-1.18-1,.54-1.1-.44-.37a5.2,5.2,0,0,0-.9,4.3A7.14,7.14,0,0,0,76.49,140.73Z"/><path class="cls-2" d="M218.41,107q0,.57,1.15,1.25V107a3.69,3.69,0,0,1-1.15-.29Z"/><path class="cls-2" d="M226.69,111.37v-.19h-.48a1.53,1.53,0,0,1-.24.67h.24Q226.69,111.76,226.69,111.37Z"/><path class="cls-1" d="M204.14,78.44a3.27,3.27,0,0,1-1.2.38.68.68,0,0,0,.77.77c.54-.06.81-.32.81-.77A.34.34,0,0,1,204.14,78.44Z"/><path class="cls-2" d="M209.19,54.6a2.44,2.44,0,0,1-1.1.43q0,.86,3.45,1.53v-.43A2.55,2.55,0,0,0,209.19,54.6Z"/><path class="cls-1" d="M227.88,81.14v-.72h-.72q0,1.15-.81,1.15V82h1.15Z"/><path class="cls-2" d="M98.85,53.67a.72.72,0,0,0-.81.81v.43l1.91.38a10.94,10.94,0,0,1,1.63-.38v-.43c-.1-.54-.37-.81-.81-.81Z"/><path class="cls-2" d="M221.56,78.82c-.1-.51-.37-.77-.81-.77l-1.91.38a2.94,2.94,0,0,0-1.15-.38v.38l.38.81A17.5,17.5,0,0,1,221.56,78.82Z"/><path class="cls-2" d="M117.68,165.58c.12.51.4.75.85.73l1.9-.47a2.94,2.94,0,0,0,1.16.33l0-.38-.42-.8A17.5,17.5,0,0,1,117.68,165.58Z"/><path class="cls-2" d="M208.66,59.46q.72-.14.72-.77v-.77l-2.3-.38-.33.81,1.53,1.1Z"/><path class="cls-2" d="M223.71,72.52l.81.43h.33c.54-.13.81-.4.81-.81V71.8a2.66,2.66,0,0,1-1.15-.38Z"/><rect class="cls-2" x="211.27" y="82.65" width="0.53" height="0.96"/><path class="cls-2" d="M203.37,78.66h.29c.45,0,.67-.24.67-.62v-.57H204c-.41,0-.62.19-.62.57a.25.25,0,0,1,.29.29C203.47,78.32,203.37,78.43,203.37,78.66Z"/><path class="cls-2" d="M73.37,79.66h.29c.45,0,.67-.24.67-.62v-.57H74c-.41,0-.62.19-.62.57a.25.25,0,0,1,.29.29C73.47,79.32,73.37,79.43,73.37,79.66Z"/><path class="cls-2" d="M114.51,114.07l.62-.86v-.33l-.29-.57a1.65,1.65,0,0,0-1.29,1.2Z"/><path class="cls-2" d="M209.79,111.64l-.24.62v.29h.86v-.29C210.38,111.84,210.18,111.64,209.79,111.64Z"/><path class="cls-2" d="M229,114v-.33a2.24,2.24,0,0,1-1.2-.62h-.33q-.53,0-.53.62l1.48.33Z"/><path class="cls-2" d="M221.14,113.65h.67q0-.43-1-1l-.34.62Z"/></g></g></svg>