<?xml version="1.0" encoding="UTF-8" standalone="no"?>
<svg xmlns="http://www.w3.org/2000/svg" xmlns:xlink="http://www.w3.org/1999/xlink" viewBox="0 0 308.62 197.94">
<defs>
<style>.cls-1,.cls-10,.cls-15,.cls-5,.cls-6,.cls-8,.cls-9{fill:none;}.cls-11,.cls-14,.cls-17,.cls-18,.cls-2,.cls-20,.cls-7{fill:#fff;}.cls-3{fill:#efe8aa;}.cls-4{fill:url(#a);}.cls-10,.cls-11,.cls-12,.cls-13,.cls-14,.cls-15,.cls-16,.cls-17,.cls-18,.cls-19,.cls-20,.cls-21,.cls-5,.cls-6,.cls-7,.cls-8,.cls-9{stroke:#000;}.cls-10,.cls-11,.cls-12,.cls-15,.cls-16,.cls-19,.cls-5,.cls-6,.cls-8,.cls-9{stroke-linecap:round;}.cls-5{stroke-linejoin:bevel;}.cls-10,.cls-5,.cls-7{stroke-width:2.15px;}.cls-11,.cls-12,.cls-19,.cls-21,.cls-6{stroke-linejoin:round;}.cls-6,.cls-8{stroke-width:2.15px;}.cls-10,.cls-13,.cls-14,.cls-15,.cls-16,.cls-17,.cls-18,.cls-20,.cls-7,.cls-8,.cls-9{stroke-miterlimit:10;}.cls-9{stroke-width:2px;}.cls-11{stroke-width:1.87px;}.cls-12,.cls-13,.cls-14,.cls-15,.cls-16{stroke-width:1.74px;}.cls-17{stroke-width:0.29px;}.cls-18{stroke-width:0.82px;}.cls-19{stroke-width:1.97px;}.cls-20{stroke-width:1.81px;}.cls-21{stroke-width:2.06px;}</style>
<pattern id="a" data-name="New Pattern 2" height="70" width="105" patternUnits="userSpaceOnUse" viewBox="0 0 105 70">
<rect width="105" class="cls-1" height="70"/>
<path class="cls-2" d="m81.4 68.9v0.1h0.41a1.3 1.3 0 0 1 0.2 -0.57h-0.2q-0.4 0.1-0.4 0.5z"/>
<path class="cls-2" d="m99 68.9h1.3v-0.38l-0.46-0.31h-0.5z"/>
<path d="m102 62.9c0-0.46-0.22-0.69-0.65-0.69l-0.37 0.69v0.37h1z"/>
<path class="cls-2" d="m100 68.2h-0.46l0.46 0.31z"/>
<path d="m95.8 68.6l0.2-0.53v-0.24h-0.73v0.24c0 0.4 0.2 0.5 0.5 0.5z"/>
<path d="m2.53 56.8h1q-0.28-1.3-2-1.3h-0.3q0 0.5 1.3 1.3z"/>
<polygon points="5.52 68.2 4.87 67.9 4.22 68.9 4.87 69.3"/>
<path d="m8.16 67.9q-0.29 0-0.29 0.33a4.17 4.17 0 0 0 -2 -0.61q0 0.81 2.6 1.3h0.69q0.02-0.4-1-1z"/>
<path d="m27.3 68.4a2.77 2.77 0 0 1 1.06 -0.32v-0.7l-0.86 0.3z"/>
<rect y="64.5" x="15" height=".81" class="cls-2" width=".45"/>
<path class="cls-2" d="m7.79 68.4c0 0.33 0.19 0.49 0.49 0.49h0.24v-0.3a1.89 1.89 0 0 1 -0.24 -0.73 0.47 0.47 0 0 0 -0.49 0.5z"/>
<path class="cls-2" d="m16.8 60.9v-0.29h-0.53v0.73c0.3 0.1 0.5-0.1 0.5-0.4z"/>
<path class="cls-2" d="m12.2 58.1h0.49v-0.29q0-0.36-0.77-0.81h-0.53q0.4 1.1 0.8 1.1z"/>
<path class="cls-2" d="m12.2 61.4h-0.53l-0.28 1.1q0.4 0 0.8-1.1z"/>
<path class="cls-2" d="m19.1 62.2v-0.24h-0.7q-0.41 0-0.81 0.77l0.53 0.24q1-0.5 1-0.8z"/>
<path class="cls-2" d="m7 57.8v0.53q0.37 0 0.81-0.77v-0.28h-0.3c-0.35 0.1-0.51 0.3-0.51 0.6z"/>
<path class="cls-2" d="m2.59 61.9h-0.77v0.77q0.4 0 0.77-0.8z"/>
<path class="cls-2" d="m8 61.9h-1.51v0.24q0.16 0 1.54 0.29z"/>
<path class="cls-2" d="m4.66 61.6q0 0.37 0.77 0.81h0.24a0.47 0.47 0 0 0 0.53 -0.53l-0.53-0.28z"/>
<path d="m21 62.7h0.73l1.3-0.24v-0.53q0-0.24-1.79-1.58c0 0.19-0.08 0.28-0.24 0.28l0.24 0.53v1z"/>
<path d="m27.7 63h0.24a1.87 1.87 0 0 1 0.77 -0.24v-0.53h-0.24q-0.4-0.1-0.8 0.7z"/>
<path class="cls-2" d="m88.5 2.6q0-0.49-1-1.06v1.06a3.14 3.14 0 0 1 1 0.24z"/>
<path class="cls-2" d="m90.4 16.3l0.37-0.69v-0.33h-1v0.33q0.1 0.7 0.6 0.7z"/>
<path class="cls-2" d="m103 3.21c0-0.33-0.43-0.65-1.3-1q-2 0.77-2 1.3a2.11 2.11 0 0 1 1 0.37 19.9 19.9 0 0 1 2 -0.67z"/>
<path class="cls-1" d="m105 3.54l0.6-0.12-0.46-0.59h-0.15z"/>
<path class="cls-1" d="m104 6.83a2.78 2.78 0 0 1 1 -0.33 0.58 0.58 0 0 0 -0.65 -0.65c-0.46 0.05-0.69 0.27-0.69 0.65a0.29 0.29 0 0 1 1 0.33z"/>
<path class="cls-2" d="m89.5 12.1a2.07 2.07 0 0 1 0.94 -0.37q0-0.73-2.93-1.3v0.37a2.16 2.16 0 0 0 2 1.3z"/>
<path class="cls-1" d="m83.4 4.53v0.61h0.61q0-1 0.69-1v-0.3h-1z"/>
<path class="cls-2" d="m88.2 15.6v-0.33h-1.1v1h0.37a0.61 0.61 0 0 0 0.7 -0.7z"/>
<path class="cls-2" d="m88.8 6.5c0.08 0.43 0.31 0.65 0.69 0.65l1.63-0.33a2.5 2.5 0 0 0 1 0.33v-0.32l-0.33-0.69a14.9 14.9 0 0 1 -3 0.36z"/>
<path d="m99.5 10h0.65q0.45 0 1-1.06l-0.37-0.61a1.6 1.6 0 0 0 -1.5 1.67z"/>
<path d="m90 8q-0.61 0.12-0.61 0.65v0.65l2 0.33 0.28-0.69-1.4-0.94z"/>
<path d="m106 3.21v-0.61a3.77 3.77 0 0 1 -1.2 0.23l0.46 0.59z"/>
<path class="cls-2" d="m104 6.65c-0.38 0-0.57 0.2-0.57 0.53v0.49h0.28c0.35 0 0.53-0.16 0.53-0.49a0.22 0.22 0 0 1 -0.24 -0.24v-0.29z"/>
<path class="cls-2" d="m103 2.78l-0.28 0.49h0.77a0.43 0.43 0 0 0 -1 -0.49z"/>
<path class="cls-2" d="m102 12.6l0.24-0.53v-1.3l1-0.24v-0.6a4.42 4.42 0 0 0 -3.29 1.75 6.07 6.07 0 0 0 2.3 0.8z"/>
<path class="cls-2" d="m36 37.6q0-0.49-1-1.06v1.1a3.14 3.14 0 0 1 1 0.24z"/>
<path class="cls-2" d="m29 33.9v0.1h0.41a1.3 1.3 0 0 1 0.2 -0.57h-0.2q-0.4 0.1-0.4 0.5z"/>
<path class="cls-2" d="m67 53.4q0 0.28 0.57 0.61l0.2-0.41-0.41-0.2z"/>
<path class="cls-2" d="m63.2 54l0.41-0.61-1.75-0.16a1.3 1.3 0 0 0 1.3 0.8z"/>
<path class="cls-2" d="m37.9 51.3l0.37-0.69v-0.33h-1v0.33q0.1 0.7 0.6 0.7z"/>
<path class="cls-2" d="m46.5 33.9h1.3v-0.38l-0.46-0.31h-0.84z"/>
<path class="cls-2" d="m50.8 38.2c0-0.33-0.43-0.65-1.3-1q-2 0.77-2 1.3a2.11 2.11 0 0 1 1 0.37 19.9 19.9 0 0 1 2.3 -0.7z"/>
<path class="cls-1" d="m52.1 38.5l0.6-0.12-0.46-0.59h-0.15z"/>
<path class="cls-1" d="m51.1 41.8a2.78 2.78 0 0 1 1 -0.33 0.58 0.58 0 0 0 -0.65 -0.65c-0.46 0.05-0.69 0.27-0.69 0.65a0.29 0.29 0 0 1 0.4 0.4z"/>
<path class="cls-2" d="m37 47.1a2.07 2.07 0 0 1 0.94 -0.37q0-0.73-2.93-1.3v0.37a2.16 2.16 0 0 0 2 1.3z"/>
<path class="cls-1" d="m30.9 39.5v0.61h0.61q0-1 0.69-1v-0.33h-1z"/>
<path class="cls-2" d="m66.5 51v0.33a0.66 0.66 0 0 0 0.69 0.61h0.93q0.69 0 0.69-0.61l-1.38-0.69a2.07 2.07 0 0 1 -0.9 0.4z"/>
<path class="cls-2" d="m35.7 50.6v-0.33h-1.1v1h0.4a0.61 0.61 0 0 0 0.7 -0.7z"/>
<path class="cls-2" d="m36.3 41.5c0.08 0.43 0.31 0.65 0.69 0.65l1.63-0.33a2.5 2.5 0 0 0 1 0.33v-0.33l-0.33-0.69a14.9 14.9 0 0 1 -3 0.3z"/>
<rect y="47.7" x="56.5" height=".61" width="1.3"/>
<path d="m47 45h0.65q0.45 0 1-1.06l-0.37-0.61a1.6 1.6 0 0 0 -1.2 1.7z"/>
<path d="m37.4 43q-0.61 0.12-0.61 0.65v0.65l2 0.33 0.28-0.69-1.3-0.8z"/>
<path d="m67.3 44.9l-0.69-0.37h-0.28c-0.46 0.11-0.69 0.34-0.69 0.69v0.28a2.26 2.26 0 0 1 1 0.33z"/>
<path d="m55 21.8h1q-0.28-1.3-2-1.3h-0.33q0 0.5 1.3 1.3z"/>
<polygon points="58 33.2 57.4 32.9 56.7 33.9 57.4 34.3"/>
<path d="m49.5 27.9c0-0.46-0.22-0.69-0.65-0.69l-0.37 0.69v0.37h1z"/>
<path d="m60.7 32.9q-0.29 0-0.29 0.33a4.17 4.17 0 0 0 -2 -0.61q0 0.81 2.6 1.3h0.69q0-0.4-1-1z"/>
<path d="m79.8 33.4a2.77 2.77 0 0 1 1.06 -0.32v-0.7l-0.86 0.3z"/>
<path d="m63.7 36.9l-0.37 0.69h1q0-0.7-0.6-0.7z"/>
<path class="cls-2" d="m47.8 33.2h-0.46l0.46 0.31z"/>
<path d="m53.8 38.2l-0.33-0.61a3.77 3.77 0 0 1 -1.2 0.23l0.46 0.59z"/>
<rect y="29.5" x="67.5" height=".81" class="cls-2" width=".45"/>
<path class="cls-2" d="m60.3 33.4c0 0.33 0.19 0.49 0.49 0.49h0.2v-0.3a1.89 1.89 0 0 1 -0.24 -0.73 0.47 0.47 0 0 0 -0.5 0.5z"/>
<path class="cls-2" d="m69.3 25.9v-0.29h-0.53v0.73c0.3 0.1 0.5-0.1 0.5-0.4z"/>
<path class="cls-2" d="m52.5 54.3v0.28c0.05 0.35 0.23 0.53 0.53 0.53v-0.29a0.47 0.47 0 0 0 -0.5 -0.5z"/>
<path class="cls-2" d="m64.7 23.1h0.49v-0.29q0-0.36-0.77-0.81h-0.53q0.4 1.1 0.8 1.1z"/>
<path class="cls-2" d="m64.7 26.4h-0.53l-0.28 1.1q0.4 0 0.8-1.1z"/>
<path class="cls-2" d="m51.8 41.6h-0.24c-0.38 0-0.57 0.2-0.57 0.53v0.49h0.28c0.35 0 0.53-0.16 0.53-0.49a0.22 0.22 0 0 1 -0.24 -0.24c0.1 0 0.2-0.1 0.2-0.3z"/>
<path class="cls-2" d="m71.6 27.2v-0.24h-0.7q-0.41 0-0.81 0.77l0.53 0.24q1-0.5 1-0.8z"/>
<path class="cls-2" d="m50.2 37.8l-0.28 0.49h0.77a0.43 0.43 0 0 0 -0.5 -0.5z"/>
<path class="cls-2" d="m49.7 47.6l0.24-0.53v-1.3l1-0.24v-0.6a4.42 4.42 0 0 0 -3.29 1.75 6.07 6.07 0 0 0 2.1 0.8z"/>
<path class="cls-2" d="m59.5 22.8v0.53q0.37 0 0.81-0.77v-0.28h-0.3c-0.3 0.1-0.5 0.3-0.5 0.6z"/>
<path class="cls-2" d="m67.2 43.7l-0.29 0.53v0.53h0.29a0.53 0.53 0 0 0 0 -1.06z"/>
<path class="cls-2" d="m64.4 47.9q-0.16 0-1.26-1.3c-0.38 0.05-0.57 0.22-0.57 0.49v0.53q0.61 0 1.58 1h0.24l-0.24-0.53c0.2 0 0.3-0.1 0.3-0.2z"/>
<path class="cls-2" d="m72.2 45q0 0.37 0.77 0.73h0.77l0.2-1.2h-0.24a2.18 2.18 0 0 1 -1.6 0.5z"/>
<path class="cls-2" d="m59.8 48.1v0.29q0.08 0.53 0.53 0.53h0.49v-1a1.69 1.69 0 0 1 -0.77 -0.29z"/>
<path class="cls-2" d="m76 44.7l-0.24 0.49a0.54 0.54 0 0 0 0.37 0.5v-1z"/>
<path class="cls-2" d="m55.6 49.4l-0.53 0.73v0.28l0.24 0.49a1.4 1.4 0 0 0 1.1 -1z"/>
<path class="cls-2" d="m55.1 26.9h-0.77v0.77q0.4 0 0.8-0.8z"/>
<path class="cls-2" d="m55.1 35.7h-0.5q-0.57 0-0.81 1.26h0.81l0.73-0.53a1.88 1.88 0 0 1 -0.2 -0.8z"/>
<path class="cls-2" d="m57.9 54.6v0.53h-0.77l-1-0.81v0.28a3.69 3.69 0 0 0 2 1 0.25 0.25 0 0 1 0.29 -0.28 1.69 1.69 0 0 1 -0.29 -0.73z"/>
<path class="cls-2" d="m60.5 26.9h-1.5v0.24q0.16 0 1.54 0.29z"/>
<path class="cls-2" d="m57.2 26.6q0 0.37 0.77 0.81h0.24a0.47 0.47 0 0 0 0.53 -0.53l-0.53-0.28z"/>
<path d="m43.3 33.6l0.2-0.53v-0.24h-0.73v0.24c0 0.4 0.2 0.5 0.5 0.5z"/>
<path d="m77.8 54v0.28a1.9 1.9 0 0 1 1 0.53h0.28q0.45 0 0.45-0.53l-1.3-0.3z"/>
<path d="m76.2 45.7h0.16c0.33 0 0.49-0.18 0.49-0.53h-0.49v-0.2h0.6v-0.28h-0.89z"/>
<path d="m73.5 27.7h0.73l1.3-0.24v-0.53q0-0.24-1.79-1.58c0 0.19-0.08 0.28-0.24 0.28l0.24 0.53v1z"/>
<path d="m80.2 28h0.24a1.87 1.87 0 0 1 0.77 -0.24v-0.53h-0.24q-0.4-0.1-0.8 0.7z"/>
<path class="cls-2" d="m14.5 18.4q0 0.28 0.57 0.61l0.2-0.41-0.41-0.2z"/>
<path class="cls-2" d="m10.7 19l0.41-0.61-1.75-0.16a1.3 1.3 0 0 0 1.34 0.8z"/>
<path class="cls-1" d="m-0.38 3.54l0.6-0.12-0.46-0.59h-0.14z"/>
<path class="cls-2" d="m14 16v0.33a0.66 0.66 0 0 0 0.69 0.61h0.93q0.69 0 0.69-0.61l-1.38-0.69a2.07 2.07 0 0 1 -0.9 0.4z"/>
<rect y="12.7" x="4.03" height=".61" width="1.3"/>
<path d="m14.8 9.88l-0.69-0.37h-0.28c-0.46 0.11-0.69 0.34-0.69 0.69v0.28a2.26 2.26 0 0 1 1 0.33z"/>
<path d="m11.2 1.91l-0.37 0.69h1q0-0.69-0.6-0.69z"/>
<path d="m1.29 3.21-0.29-0.61a3.77 3.77 0 0 1 -1.2 0.23l0.46 0.59z"/>
<path class="cls-2" d="m0 19.3v0.28c0.05 0.35 0.23 0.53 0.53 0.53v-0.29a0.47 0.47 0 0 0 -0.53 -0.5z"/>
<path class="cls-2" d="m14.7 8.68l-0.29 0.53v0.53h0.29a0.47 0.47 0 0 0 0.53 -0.53 0.47 0.47 0 0 0 -0.5 -0.53z"/>
<path class="cls-2" d="m11.9 12.9q-0.16 0-1.26-1.3c-0.38 0.05-0.57 0.22-0.57 0.49v0.53q0.61 0 1.58 1h0.24l-0.24-0.53c0.2 0 0.3-0.1 0.3-0.2z"/>
<path class="cls-2" d="m19.7 10q0 0.37 0.77 0.73h0.77l0.24-1.26h-0.24a2.18 2.18 0 0 1 -1.6 0.56z"/>
<path class="cls-2" d="m7.27 13.1v0.29q0.08 0.53 0.53 0.53h0.49v-1a1.69 1.69 0 0 1 -0.77 -0.29z"/>
<path class="cls-2" d="m23.5 9.74l-0.24 0.49a0.54 0.54 0 0 0 0.37 0.5v-1z"/>
<path class="cls-2" d="m3.12 14.4l-0.53 0.73v0.28l0.24 0.49a1.4 1.4 0 0 0 1.1 -1z"/>
<path class="cls-2" d="m2.59 0.71h-0.49q-0.57 0-0.81 1.29h0.81l0.73-0.53a1.88 1.88 0 0 1 -0.24 -0.76z"/>
<path class="cls-2" d="m5.44 19.6v0.53h-0.78l-1-0.81v0.28a3.69 3.69 0 0 0 2 1 0.25 0.25 0 0 1 0.34 -0.3 1.69 1.69 0 0 1 -0.29 -0.73z"/>
<path d="m25.4 19v0.28a1.9 1.9 0 0 1 1 0.53h0.28q0.45 0 0.45-0.53l-1.4-0.3z"/>
<path d="m23.6 10.7h0.16c0.33 0 0.49-0.18 0.49-0.53h-0.49v-0.2h0.73v-0.26h-0.89z"/>
</pattern>
</defs>
<title>intro-bg_1</title>
<g data-name="Layer 2">
<g id="HOME">
<path class="cls-3" d="m14.2 122c-1-9.46 3.23-18.6 11.2-27a152 152 0 0 1 24.2 -20.2c10.9-7.43 24.8-12.7 40.2-15.8 11.2-1.8 23.2-2.4 35.2-3.1a249 249 0 0 0 29.9 -5c15.2-4.42 29.1-10.4 44.5-14.5 12.9-3.46 25-6.23 39.2-6.5 15.5-0.29 31.9 3.35 42.5 10.4 16 10.7 18.1 26.6 5.6 38.9-5.36 5.29-12.6 9.14-20.8 12.2a110 110 0 0 0 -11.3 7.63c-9.13 7.4-18 15-24.5 23.4-3.68 5.66-7.23 11.4-12.2 16.7a99.6 99.6 0 0 1 -13 11.5 71.8 71.8 0 0 1 -20.7 15.5 162 162 0 0 1 -47.6 16.1 131 131 0 0 1 -64.2 -5.77c-0.75-0.27-1.49-0.56-2.23-0.84a47.2 47.2 0 0 1 -15.2 -5.85q-4.89-3-9.49-6.25a77.8 77.8 0 0 1 -16.4 -12 43.7 43.7 0 0 1 -3.44 -3.79 51.2 51.2 0 0 1 -8.75 -11.5 22.7 22.7 0 0 1 -2.3 -14z"/>
<path class="cls-4" d="m240 15.9h-2a140 140 0 0 0 -23.4 2.47l2.58 13.8 2.11-0.38h1 0.19 1.23l0.56-0.09h0.16c3.59-0.52 7.27-0.9 11.1-1.1l1.2-0.06h0.87 0.61 1.49 1.72v-14zm-37 5c-2.31 0.57-4.74 1.2-7.64 2-4.7 1.27-9.64 2.79-15.6 4.78l4.48 13.3 0.18-0.06h0.07 0.06 0.07 0.08 0.08c3.79-1.27 7.63-2.5 11.6-3.61l0.34-0.1h0.11l0.23-0.06h0.1l0.22-0.06h0.1l0.22-0.06h0.09 0.09 0.11 0.09 0.08 0.11 0.1 0.08 0.11 0.09 0.09 0.12l2.76-0.73h0.06 0.09 0.09 0.09 0.08 0.11l3.66-0.93-1-14.4zm-34 10.4c-6.47 2.27-12.3 4.3-18.3 6l-2 0.44 3 13.7 2.34-0.52h0.09 0.09 0.08 0.06 0.06 0.06 0.06 0.07l0.17-0.05h0.07 0.06 0.06 0.07 0.08l0.18-0.05h0.08 0.07 0.07 0.08l0.35-0.11h0.08 0.08l0.44-0.13h0.09q3.88-1.18 7.67-2.47h0.09 0.08 0.08l0.26-0.09h0.07 0.06 0.06 0.06 0.06 0.07 0.06 0.08 0.05l5-1q3.57-1.22 7.11-2.47l-4.64-13.2zm-30 8.5c-5 0.87-10.2 1.58-15.4 2.13l-4.42 0.28-1.53 0.1 0.88 14h0.65 0.62 0.25l2-0.3h0.4l1.74-0.11h2l0.46-0.05h0.73l0.71-0.08h0.48l1.06-0.13h0.25l1.18-0.15h0.24l1.06-0.14h0.11l1.18-0.16h0.11 0.11q3.85-0.54 7.64-1.19l-1-14.1zm-33 3.3a166 166 0 0 0 -19.5 2.65c-1.79 0.37-3.57 0.76-5.31 1.18l3.26 13.6q2.23-0.53 4.51-1h0.09 0.08 0.07 0.09 1.9l0.89-0.16h1.31l1-0.17h1.91 0.14 1.79c2.31-0.3 4.64-0.55 7-0.77h0.42 0.38 0.38l0.71-0.06v-15.2zm-36 7.1a116 116 0 0 0 -23.9 10.7l7.21 12a102 102 0 0 1 21 -9.36l-4.3-13.3zm-34 17.6a161 161 0 0 0 -19.2 16.4l10 9.83a141 141 0 0 1 13.5 -11.9l0.14-0.11 0.1-0.08 0.09-0.07 0.09-0.07 0.15-0.11q1.41-1.09 2.86-2.15l-7.7-11.6zm-27.9 26.9c-6 9-8.65 18.3-8 27.8 0 0.4 0 0.79-0.06 1.19h0.17v0.25h1.8l12 0.47q0-0.63 0.08-1.25 0-0.22 0-0.44v-2.04-0.27a32 32 0 0 1 5.68 -15.5l-11.7-11.3zm8 40.2-12.6 6c0.36 0.76 0.76 1.53 1.18 2.27a65.8 65.8 0 0 0 10.6 14.1 57.7 57.7 0 0 0 4 4.37q0.78 0.77 1.59 1.51l9.49-10.3q-0.64-0.59-1.25-1.19a43.7 43.7 0 0 1 -3.44 -3.79 51.2 51.2 0 0 1 -8.75 -11.5l-0.36-0.66-0.27-0.55zm22.9 25l-7.81 11.6c2.13 1.43 4.42 2.85 6.8 4.21 3.27 2.27 6.41 4.33 9.58 6.3a54.4 54.4 0 0 0 4.8 2.64l6.13-12.6q-1.8-0.88-3.48-1.91h-0.05q-4.89-3-9.49-6.25l-0.1-0.05-0.1-0.06h-0.05l-0.1-0.06-0.1-0.06-0.26-0.15-0.1-0.06q-2.64-1.54-5.1-3.19zm29.9 15.8-2 8.75-1.77 4.58l0.64 0.25v-1l0.39 0.09 1.49 0.55a136 136 0 0 0 20.8 5.67l2.6-14q-1.61-0.31-3.2-0.65h-0.08l-0.42-0.09h-0.08-0.07-0.07-0.07l-0.33-0.07h-0.07-0.26-0.07-0.16-0.07-0.51-0.08-0.59-0.07-0.54-0.19-0.47l-0.27-0.07h-0.06-0.09-0.06-0.06l-0.36-0.09h-0.07-0.06-0.06-0.07l-0.43-0.12h-0.07-0.07-0.07l-0.43-0.12h-0.07-0.07l-0.58-0.16h-0.07-0.07l-0.51-0.14h-0.07l-0.57-0.17h-0.07l-0.57-0.17h-0.07l-0.57-0.17h-0.07-0.07l-0.57-0.18-0.56-0.18h-0.06-0.07l-0.42-0.14h-0.06-0.06-0.06-0.06l-0.35-0.11h-0.06-0.06-0.06-0.06l-0.33-0.11h-0.05-0.05-0.05-0.05-0.05l-0.2-0.07h-0.05l-0.18-0.06h-0.2-0.07-0.25-0.05-0.07c-0.75-0.27-1.49-0.56-2.23-0.84h-0.3-0.11-0.29-0.07-0.1-0.19-0.07-0.1-0.14zm33 7.8-1.47 13.9a148 148 0 0 0 15.5 0.81c3.31 0 6.66-0.11 9.94-0.34l-1-14q-3.54 0.24-7.08 0.29h-6.88q-4.53-0.17-9-0.64zm56.2-6.14q-1.42 0.46-2.86 0.89h-0.07-0.05-0.07-0.05-0.19-0.06-0.06-0.06-0.07-0.07-0.15-0.08l-0.24 0.07a149 149 0 0 1 -14.5 3.41h-0.26-0.26-0.08-0.17-0.08-0.26-0.36-0.16-1.12l-0.45 0.07h-3-0.2l2.17 13.8 0.86-0.14a164 164 0 0 0 23.6 -5.71l-4.28-13.3zm31.1-13.6q-2 1.23-4.22 2.37l-0.19 0.1h-0.1-0.05-0.05-0.05-3.38-0.05-1.6-0.05-0.05l-0.1 0.05h-0.05-0.05l-0.11 0.05h-0.06-0.06-0.06l-0.11 0.05h-0.05-0.05l-0.11 0.05h-0.06-0.06-0.06-0.05l-0.11 0.05-0.12 0.05h-0.05l-0.12 0.05-0.12 0.05-0.18 0.08-0.12 0.06-0.12 0.06q-4.16 1.91-8.53 3.65l5.16 13c5.6-2.22 11.3-4.8 16.9-7.67 2-1 4-2.12 5.87-3.26l-7.22-12zm26-22a102 102 0 0 1 -8.53 7.45l-0.39 0.3-0.17 0.13h-0.05l-0.16 0.13h-0.05l-0.11 0.08h-0.05l-0.11 0.08-0.11 0.08-0.11 0.08h-0.05-0.05l-0.06 0.06-0.06 0.07-0.07 0.07a65.4 65.4 0 0 1 -6.16 5.79l8.92 10.8a79.8 79.8 0 0 0 7.24 -6.78 118 118 0 0 0 10.8 -9.32l-9.81-10zm21-26.6a85.8 85.8 0 0 0 -6.16 7.09l-0.11 0.15-0.05 0.08v0.07l-0.05 0.08-0.17 0.26v0.05 0.06l-0.4 0.63-0.6 0.93c-1.43 2.2-2.87 4.4-4.41 6.58l-0.14 0.19v0.07l-0.11 0.15-0.84 1.14 11.2 8.4c2.64-3.52 4.88-7 7-10.3l0.64-1a73 73 0 0 1 5 -5.71l-10.1-9.71zm26.1-21.7-0.39 0.25h-0.06-0.06-0.05-0.06-0.05-0.05-0.06l-0.08 0.05-0.13 0.08q-2.47 1.64-4.8 3.36l-0.12 0.09-0.12 0.09-0.11 0.08-0.11 0.08h-0.06-0.05-0.05l-0.07 0.06-0.07 0.06-0.07 0.06-0.07 0.06-0.07 0.06-0.15 0.12-0.16 0.13-0.32 0.26-0.08 0.06-0.08 0.06-0.16 0.13-0.08 0.06-0.4 0.33-0.4 0.33-0.16 0.13-0.16 0.13-0.16 0.13-0.16 0.13-0.32 0.26-0.16 0.13-0.16 0.13-0.15 0.13-0.15 0.13-0.15 0.13-0.15 0.13-0.08 0.06-0.07 0.06-0.08 0.06-0.07 0.06-0.07 0.06-0.07 0.06-0.07 0.06-0.07 0.06-0.07 0.06-0.07 0.06-0.07 0.06-0.07 0.06-0.07 0.06-0.07 0.06-0.07 0.06h-0.06l-0.07 0.06-0.06 0.05-0.07 0.06-0.06 0.05-0.07 0.06-0.07 0.06-0.07 0.06-0.07 0.06-0.07 0.06-0.07 0.06-0.07 0.06-0.07 0.06-0.06 0.05-0.07 0.06-0.06 0.05-0.07 0.06-0.06 0.05-0.07 0.06-0.06 0.05-0.07 0.06-0.06 0.05-0.07 0.06-0.06 0.05-0.07 0.06-0.06 0.05-0.07 0.06-0.06 0.05-0.07 0.06-0.06 0.05-0.07 0.06-0.06 0.05-0.07 0.06-0.06 0.06-0.07 0.06-0.07 0.06-0.07 0.06-0.07 0.06-0.07 0.06-0.07 0.06-0.07 0.06-0.14 0.13-0.14 0.13-0.15 0.13-0.15 0.13-0.15 0.13-0.15 0.13-0.15 0.13-0.15 0.13-0.15 0.13-0.15 0.14 9.29 10.5c2.62-2.32 5.56-4.8 9.51-8 2.38-1.81 4.62-3.39 6.86-4.81l-7.54-11.8zm28-18.5q-0.54 0.77-1.14 1.52l-0.09 0.11a33.4 33.4 0 0 1 -2.35 2.58l-0.06 0.06-0.06 0.06-0.06 0.06-0.1 0.09a44.4 44.4 0 0 1 -7.4 5.6l-0.12 0.07h-0.08-0.08-0.08-0.41-0.08-0.09l-0.21 0.12q-2.1 1.18-4.37 2.23l5.92 12.7a63.6 63.6 0 0 0 18.2 -12.2 46.1 46.1 0 0 0 5.4 -6.36l-11.5-8zm5.23-40.8l-9 10.3c6.56 6.1 9.41 13.3 8.42 20.4l13.9 1.93c1.65-11.9-2.88-23.4-12.8-32.6zm-38.1-16.8l-2 13.9a71.6 71.6 0 0 1 22 6.9l6.56-12.4a85.7 85.7 0 0 0 -26.2 -8.38zm-17.3-1.38v14h0.07q1.63 0 3.27 0.06h0.77l0.61-14c-1.57-0.07-3.15-0.1-4.71-0.1z"/>
<polyline points="79.1 48.1 136 15.3 194 133 137 166" class="cls-5"/>
<polygon points="157 150 72.7 98.7 128 66.8 212 118" class="cls-6"/>
<path class="cls-7" d="m85.2 51.2s6.12 79 72 94.7l53.7-31.3c-65.9-15.6-72-94.7-72-94.7z"/>
<path class="cls-8" d="m200 120c-65.9-15.6-72-94.7-72-94.7"/>
<path class="cls-7" d="m212 122l-51.3 29.6-3.32-5.76s53.1-31.2 54.4-31.2a3.59 3.59 0 0 1 3.59 3.59c0 1-3 3-3 3z"/>
<path class="cls-8" d="m189 127c-65.9-15.6-72-94.7-72-94.7"/>
<path class="cls-8" d="m178 133c-65.9-15.6-72-94.7-72-94.7"/>
<path class="cls-9" d="m167 139c-65.9-15.6-72-94.7-72-94.7"/>
<line y1="166" x2="79.1" x1="137" y2="48.1" class="cls-10"/>
<line y1="104" x2="101" x1="83.5" y2="93.7" class="cls-5"/>
<path class="cls-7" d="m136 21.6-50.8 29.6l-3.32-5.76s53.1-31.2 54.4-31.2a3.59 3.59 0 0 1 3.59 3.59c0 2-4 3.8-4 3.8z"/>
<circle cy="149" cx="157" r="3.59" class="cls-7"/>
<circle cy="49.4" cx="81.8" r="3.59" class="cls-7"/>
<path class="cls-11" d="m157 132s-39.7-21.8-30.2-40.9c6.76-13.6 23.6-14.3 23.6-14.3s16 22.2 30 31.2"/>
<path class="cls-2" d="m137 59.2a4.48 4.48 0 0 1 -4.05 -2.89 4.42 4.42 0 0 1 1 -4.95 7.12 7.12 0 0 1 1.25 -1c2.78-1.72 4.43-4.79 4.89-9.13 1.17-11-9.71-15.8-9.82-15.8a4.58 4.58 0 1 1 3.51 -8.46 28.6 28.6 0 0 1 8.35 5.74 23.2 23.2 0 0 1 7.07 19.5c-1 9.51-5.91 14.1-9.84 16.4l-0.39 0.21a4.52 4.52 0 0 1 -2 0.3z"/>
<path d="m132 17.5a3.69 3.69 0 0 1 1.42 0.29 27.6 27.6 0 0 1 8.08 5.56 22.3 22.3 0 0 1 6.82 18.8c-1 9.14-5.65 13.6-9.4 15.7l-0.12 0.07-0.22 0.11a3.43 3.43 0 0 1 -4.84 -2 3.54 3.54 0 0 1 0.82 -4 6.29 6.29 0 0 1 1.09 -0.9c3-1.87 4.8-5.16 5.29-9.78 2-11.7-10-16.7-10-16.7a3.71 3.71 0 0 1 1.43 -7.14m0-1.74a5.45 5.45 0 0 0 -2.09 10.5c0.1 0 10.4 4.45 9.3 14.9-0.43 4.06-1.94 6.91-4.48 8.48a8 8 0 0 0 -1.41 1.16 5.47 5.47 0 0 0 3.67 9.32 5.38 5.38 0 0 0 2.35 -0.56l0.3-0.16 0.13-0.07c4.11-2.31 9.23-7.14 10.3-17a24 24 0 0 0 -7.33 -20.2 29.5 29.5 0 0 0 -8.63 -5.93 5.43 5.43 0 0 0 -2.09 -0.42z"/>
<path class="cls-12" d="m124 94.6s17 10.7 35.4-8.88l-20-33.1c-3.71-3.72-10-4.71-15.6-2.3l-0.39 0.17c-4.12 1.9-6.49 6-5.78 9.79z"/>
<path class="cls-2" d="m107 38.2c0-0.25-4.86-2.07-6.47-1a1.74 1.74 0 0 0 -0.66 0.8c-0.56 1.44 1 3.56 3.56 4.18 2.29 0.56 4.74-0.71 4.64-1.2-1-2.8-1-1.2-1-2.8z"/>
<path class="cls-2" d="m111 70.9a23.6 23.6 0 0 1 -10.2 -2.5 23.2 23.2 0 0 1 -13 -16.3 28.6 28.6 0 0 1 -0.5 -10.1 4.58 4.58 0 0 1 9 1.44c0 0.12-1.75 11.8 8.32 16.7a14.5 14.5 0 0 0 6.19 1.59 9.15 9.15 0 0 0 4.15 -1 7.14 7.14 0 0 1 1.53 -0.52 5 5 0 0 1 1.15 -0.14 4.57 4.57 0 0 1 4.33 3.39 4.16 4.16 0 0 1 -1.85 4.88l-0.25 0.15-0.12 0.07a18.2 18.2 0 0 1 -8.93 2.31z"/>
<path d="m92 39a3.77 3.77 0 0 1 0.59 0 3.71 3.71 0 0 1 3.08 4.25c0 0.12-1.84 12.5 8.8 17.6a15.4 15.4 0 0 0 6.57 1.67 10 10 0 0 0 4.54 -1.05 6.29 6.29 0 0 1 2 -0.4 4.13 4.13 0 0 1 1 -0.12 3.7 3.7 0 0 1 3.49 2.77 3.36 3.36 0 0 1 -1.48 3.9l-0.21 0.13-0.12 0.07a17.4 17.4 0 0 1 -8.51 2.2 22.7 22.7 0 0 1 -9.77 -2.42 22.3 22.3 0 0 1 -13.1 -15.7 27.6 27.6 0 0 1 -0.5 -9.79 3.69 3.69 0 0 1 3.6 -3.1m0-1.74a5.45 5.45 0 0 0 -5.38 4.6 29.5 29.5 0 0 0 0.52 10.5 24 24 0 0 0 13.4 16.8 24.3 24.3 0 0 0 10.5 2.59 19.2 19.2 0 0 0 9.36 -2.42l0.13-0.07 0.29-0.17c4.66-3 2.06-9.88-3-9.88a5.85 5.85 0 0 0 -1.35 0.16 8 8 0 0 0 -1.72 0.59 8.26 8.26 0 0 1 -3.76 0.87 13.6 13.6 0 0 1 -5.81 -1.5c-9.5-4.54-7.85-15.6-7.83-15.7a5.46 5.46 0 0 0 -4.2 -6.5z"/>
<path class="cls-13" d="m90.9 19.1c6.91-14.6 30.2-21.9 38.4-15 6.61 5.58 8.51 14.6 5.85 36-0.45 3.61-3-0.87-7.42 5.85a20.2 20.2 0 0 1 -30.1 4.24q-0.6-0.53-1.14-1.09c-9.1-9-8.5-12.5-8.3-17.3s0.4-8.4 2.4-12.6z"/>
<path class="cls-14" d="m132 48.9c2.89-4.67 4.5-11.3 9.22-12.3 0.74-0.16 2.37-0.36 2.94-1.51 0.8-1.62-1-4-1.94-5.22-9.37-12.1-14-18.2-20-19a16 16 0 0 0 -10 1.65c-9.42 5.35-12.9 22.7-4.77 32.9 5 6.5 16 10.5 21 7.2a11 11 0 0 0 3.49 -3.75"/>
<path class="cls-15" d="m130 26.8s-3.16 4.44-7.75 2.62"/>
<path class="cls-16" d="m103 40s19.8-12 25.6-28.8c1-4.63-18.7-0.67-18.7-0.67l-12.4 17.5z"/>
<path class="cls-15" d="m132 47.4a10.7 10.7 0 0 1 -5 -1.4c-0.27-0.14-0.53-0.29-0.77-0.45"/>
<path class="cls-17" d="m120 21.9c-1.82 2.75-3 2.7-5.45 5.14s-3.37 4.6-3.57 4.34 0.58-2.12 1.39-3.57c1.21-2.16 2.22-2.59 4.81-5 2.78-2.55 4.07-4.24 4.25-3.93s-2 1.9-2 3z"/>
<path class="cls-16" d="m99.8 4.8c-1.57-4-13.7-6.31-18.2-0.18-2.89 3.91-2.29 10.7 1.07 12.9 4.1 2.8 11.3-2.1 14.7-6.4 1.3-1.82 3.6-4.29 2.4-6.3z"/>
<path class="cls-18" d="m91 17.2c0.42 0.61 5.63-2.07 7.55-6.21 0.1-0.22 0.9-3.11 0.56-2.63-2.6 3.64-8.7 8.04-8.1 8.84z"/>
<path class="cls-19" d="m162 131l17.5-12.2a8.67 8.67 0 0 0 3.22 -9.46c-0.64-2.16-2.5-3.07-5.43-1l-20 12.6a6.76 6.76 0 0 0 -2.8 8v0.09c1 3 4 3 7 1z"/>
<path class="cls-20" d="m189 138s0.52-8.29-7.54-9.93-19.8-4-19.8-4"/>
<path class="cls-20" d="m192 154c2.08-0.3 2.73-2.05 2.87-4.29 0.27-4.29 2.37-22.8-12.5-25-4.68-0.68-10.5-2.12-14.6-3a5.23 5.23 0 0 0 -6.15 4.28l-0.2 1.09a2.83 2.83 0 0 0 2.18 3.3c3.94 0.79 11.4 2.28 17.1 3.44 7 1.43 4.5 21 4.46 21.7-0.16 2.57 3.37-1.72 5.88-1.53z"/>
<path class="cls-20" d="m200 129s0.52-8.29-7.54-9.93-19.8-4-19.8-4"/>
<path class="cls-20" d="m203 145c2.08-0.3 4.73 0.95 4.87-1.29 0.27-4.29 2.19-25.8-14.5-28-4.68-0.62-10.5-2.12-14.6-3a5.23 5.23 0 0 0 -6.15 4.28l-0.2 1.09a2.83 2.83 0 0 0 2.18 3.3c3.94 0.79 11.5 2 17.1 3.44 9.68 2.52 6.5 21 6.46 21.7-0.16 2.57 1.37-1.72 3.88-1.53a4.43 4.43 0 0 0 1 0z"/>
<path class="cls-21" d="m197 143v12c0 1.16 0 2.32-0.12 3.47-0.12 1.75 0 5.38 2.55 6.55 3.45 1.56 13.4 5.26 16.9 3.94s4.06-4.2 2.53-5.36c-1.23-0.94-6.69-3.26-8.77-4.14a1.31 1.31 0 0 1 -0.8 -1.21l0.09-15.1"/>
<path d="m203 145c-3.47 0-5.55-0.76-6.13-1.19 0.59-0.44 2.66-1.12 6-1.12h0.14c3.47 0 5.55 0.76 6.13 1.19-0.59 0.44-2.67 1.12-6 1.12z"/>
<path d="m203 143h0.13a20.7 20.7 0 0 1 2.31 0.14 20.9 20.9 0 0 1 -2.18 0.11h-0.13a20.7 20.7 0 0 1 -2.31 -0.14 20.9 20.9 0 0 1 2.18 -0.11m0-2.06c-4 0-7.14 0.95-7.15 2.14s3.25 2.2 7.27 2.22h0.14c4 0 7.14-0.95 7.15-2.14s-3.25-2.2-7.27-2.22z"/>
<path class="cls-21" d="m184 152l-0.19 11.9c0 1.16-0.06 2.32-0.15 3.47-0.14 1.74-0.08 5.38 2.49 6.58 3.43 1.59 13.4 5.4 16.8 4.11s4.1-4.16 2.58-5.34c-1.22-0.95-6.66-3.33-8.73-4.22a1.31 1.31 0 0 1 -0.79 -1.22l0.24-15.1"/>
<path d="m190 153c-3.47-0.05-5.54-0.82-6.12-1.25 0.58-0.42 2.58-1.06 5.78-1.06 3.47 0.05 5.54 0.82 6.12 1.25-0.58 0.42-2.58 1.06-5.78 1.06z"/>
<path d="m190 152a20.7 20.7 0 0 1 2.31 0.16c-0.58 0.06-1.23 0.09-2 0.09a20.7 20.7 0 0 1 -2.31 -0.16c0.58-0.05 1.23-0.09 2-0.09m0-2.06c-3.84 0-6.9 0.9-6.92 2.07s3.22 2.23 7.24 2.3h0.39c3.84 0 6.9-0.9 6.92-2.07s-3.22-2.23-7.24-2.3z"/>
<path class="cls-2" d="m63.3 134l0.49-0.59q0.34-0.4-0.19-1.72l-0.83-0.13a1.88 1.88 0 0 0 0.5 3z"/>
<path class="cls-2" d="m76.5 141l-0.29-0.62-1.18-1 0.54-1.1-0.44-0.37a5.2 5.2 0 0 0 -0.9 4.3 7.14 7.14 0 0 0 2.3 -1z"/>
<path class="cls-2" d="m218 107q0 0.57 1.15 1.25v-1a3.69 3.69 0 0 1 -1.15 -0.29z"/>
<path class="cls-2" d="m227 111v-0.19h-0.48a1.53 1.53 0 0 1 -0.24 0.67h0.24t0-1z"/>
<path class="cls-1" d="m204 78.4a3.27 3.27 0 0 1 -1.2 0.38 0.68 0.68 0 0 0 0.77 0.77c0.54-0.06 0.81-0.32 0.81-0.77a0.34 0.34 0 0 1 -1 -0.4z"/>
<path class="cls-2" d="m209 54.6a2.44 2.44 0 0 1 -1.1 0.43q0 0.86 3.45 1.53v-0.43a2.55 2.55 0 0 0 -2 -1.5z"/>
<path class="cls-1" d="m228 81.1v-0.72h-0.72q0 1.15-0.81 1.15v0.4h1.15z"/>
<path class="cls-2" d="m98.8 53.7a0.72 0.72 0 0 0 -0.81 0.81v0.43l1.91 0.38a10.9 10.9 0 0 1 1.63 -0.38v-0.43c-0.1-0.54-0.37-0.81-0.81-0.81z"/>
<path class="cls-2" d="m222 78.8c-0.1-0.51-0.37-0.77-0.81-0.77l-1.91 0.38a2.94 2.94 0 0 0 -1.15 -0.38v0.38l0.38 0.81a17.5 17.5 0 0 1 4 -0.4z"/>
<path class="cls-2" d="m118 166c0.12 0.51 0.4 0.75 0.85 0.73l1.9-0.47a2.94 2.94 0 0 0 1.16 0.33v-0.38l-0.42-0.8a17.5 17.5 0 0 1 -4 0z"/>
<path class="cls-2" d="m209 59.5q0.72-0.14 0.72-0.77v-0.77l-2.3-0.38-0.33 0.81 1.53 1.1z"/>
<path class="cls-2" d="m224 72.5l0.81 0.43h0.33c0.54-0.13 0.81-0.4 0.81-0.81v-0.3a2.66 2.66 0 0 1 -1.15 -0.38z"/>
<rect y="82.6" x="211" height=".96" class="cls-2" width=".53"/>
<path class="cls-2" d="m203 78.7h0.29c0.45 0 0.67-0.24 0.67-0.62v-0.57c-0.41 0-0.62 0.19-0.62 0.57a0.25 0.25 0 0 1 0.29 0.29v0.3z"/>
<path class="cls-2" d="m73.4 79.7h0.29c0.45 0 0.67-0.24 0.67-0.62v-0.57h-0.4c-0.41 0-0.62 0.19-0.62 0.57a0.25 0.25 0 0 1 0.29 0.29c-0.2-0.1-0.3 0-0.3 0.3z"/>
<path class="cls-2" d="m115 114l0.62-0.86v-0.33l-0.29-0.57a1.65 1.65 0 0 0 -1.29 1.2z"/>
<path class="cls-2" d="m210 112l-0.24 0.62v0.29h0.86v-0.29l-1-1z"/>
<path class="cls-2" d="m229 114v-0.33a2.24 2.24 0 0 1 -1.2 -0.62h-0.33q-0.53 0-0.53 0.62l1.48 0.33z"/>
<path class="cls-2" d="m221 114h0.67q0-0.43-1-1l-0.34 0.62z"/>
</g>
</g>
</svg>
