<svg xmlns="http://www.w3.org/2000/svg" xmlns:xlink="http://www.w3.org/1999/xlink" viewBox="0 0 468.93 280.6"><defs><style>.cls-1,.cls-10,.cls-11,.cls-7{fill:none;}.cls-2,.cls-5,.cls-6{fill:#fff;}.cls-3{fill:#88aeea;}.cls-4{fill:url(#New_Pattern_2);}.cls-5,.cls-6,.cls-7,.cls-9{stroke:#000;}.cls-10,.cls-11,.cls-5,.cls-6,.cls-7,.cls-9{stroke-linecap:round;stroke-linejoin:round;}.cls-10,.cls-5,.cls-9{stroke-width:2px;}.cls-6,.cls-7{stroke-width:4.45px;}.cls-8{fill:#020202;stroke:#f9f9f9;stroke-miterlimit:10;}.cls-10{stroke:#fcfbfa;}.cls-11{stroke:#fff;stroke-width:3px;}</style><pattern id="New_Pattern_2" data-name="New Pattern 2" width="105" height="70" patternUnits="userSpaceOnUse" viewBox="0 0 105 70"><rect class="cls-1" width="105" height="70"/><path class="cls-2" d="M81.45,68.86V69h.41a1.3,1.3,0,0,1,.2-.57h-.2Q81.45,68.54,81.45,68.86Z"/><path class="cls-2" d="M99,68.94h1.3v-.38l-.46-.31H99Z"/><path d="M102,62.87c0-.46-.22-.69-.65-.69l-.37.69v.37h1Z"/><path class="cls-2" d="M100.31,68.25h-.46l.46.31Z"/><path d="M95.8,68.64l.2-.53v-.24h-.73v.24C95.3,68.46,95.48,68.64,95.8,68.64Z"/><path d="M2.53,56.77h1q-.28-1.3-2-1.3H1.23Q1.23,56,2.53,56.77Z"/><polygon points="5.52 68.25 4.87 67.93 4.22 68.94 4.87 69.31 5.52 68.25"/><path d="M8.16,67.93q-.29,0-.29.33a4.17,4.17,0,0,0-2-.61q0,.81,2.6,1.3h.69Q9.18,68.46,8.16,67.93Z"/><path d="M27.26,68.44a2.77,2.77,0,0,1,1.06-.32v-.7l-.86.3Z"/><rect class="cls-2" x="15.03" y="64.49" width="0.45" height="0.81"/><path class="cls-2" d="M7.79,68.39c0,.33.19.49.49.49h.24V68.6a1.89,1.89,0,0,1-.24-.73A.47.47,0,0,0,7.79,68.39Z"/><path class="cls-2" d="M16.82,60.91v-.29h-.53v.73C16.64,61.36,16.82,61.21,16.82,60.91Z"/><path class="cls-2" d="M12.18,58.07h.49v-.29q0-.36-.77-.81h-.53Q11.82,58.07,12.18,58.07Z"/><path class="cls-2" d="M12.18,61.36h-.53l-.28,1.1Q11.82,62.46,12.18,61.36Z"/><path class="cls-2" d="M19.13,62.17v-.24H18.4q-.41,0-.81.77l.53.24Q19.13,62.54,19.13,62.17Z"/><path class="cls-2" d="M7,57.78v.53q.37,0,.81-.77v-.28H7.51C7.16,57.34,7,57.51,7,57.78Z"/><path class="cls-2" d="M2.59,61.93H1.82v.77Q2.22,62.7,2.59,61.93Z"/><path class="cls-2" d="M8,61.93H6.49v.24q.16,0,1.54.29Z"/><path class="cls-2" d="M4.66,61.65q0,.37.77.81h.24a.47.47,0,0,0,.53-.53l-.53-.28Z"/><path d="M21,62.7h.73l1.3-.24v-.53q0-.24-1.79-1.58c0,.19-.08.28-.24.28l.24.53v1Z"/><path d="M27.67,62.95h.24a1.87,1.87,0,0,1,.77-.24v-.53h-.24Q28.08,62.17,27.67,62.95Z"/><path class="cls-2" d="M88.49,2.6q0-.49-1-1.06V2.6a3.14,3.14,0,0,1,1,.24Z"/><path class="cls-2" d="M90.42,16.32l.37-.69v-.33h-1v.33Q89.89,16.32,90.42,16.32Z"/><path class="cls-2" d="M103.28,3.21c0-.33-.43-.65-1.3-1q-2,.77-2,1.3a2.11,2.11,0,0,1,1,.37A19.92,19.92,0,0,1,103.28,3.21Z"/><path class="cls-1" d="M104.62,3.54l.6-.12-.46-.59h-.15Z"/><path class="cls-1" d="M103.61,6.83a2.78,2.78,0,0,1,1-.33.58.58,0,0,0-.65-.65c-.46.05-.69.27-.69.65A.29.29,0,0,1,103.61,6.83Z"/><path class="cls-2" d="M89.5,12.11a2.07,2.07,0,0,1,.94-.37q0-.73-2.93-1.3v.37A2.16,2.16,0,0,0,89.5,12.11Z"/><path class="cls-1" d="M83.44,4.53v.61h.61q0-1,.69-1V3.84h-1Z"/><path class="cls-2" d="M88.18,15.63v-.33H87.12v1h.37A.61.61,0,0,0,88.18,15.63Z"/><path class="cls-2" d="M88.81,6.5c.08.43.31.65.69.65l1.63-.33a2.5,2.5,0,0,0,1,.33V6.83l-.33-.69A14.86,14.86,0,0,1,88.81,6.5Z"/><path d="M99.48,10h.65q.45,0,1-1.06l-.37-.61A1.6,1.6,0,0,0,99.48,10Z"/><path d="M89.95,8q-.61.12-.61.65v.65l2,.33.28-.69L90.27,8Z"/><path d="M106.29,3.21,106,2.6a3.77,3.77,0,0,1-1.2.23l.46.59Z"/><path class="cls-2" d="M104.26,6.65H104c-.38,0-.57.2-.57.53v.49h.28c.35,0,.53-.16.53-.49a.22.22,0,0,1-.24-.24C104.18,6.93,104.26,6.84,104.26,6.65Z"/><path class="cls-2" d="M102.71,2.78l-.28.49h.77A.43.43,0,0,0,102.71,2.78Z"/><path class="cls-2" d="M102.18,12.58l.24-.53v-1.3l1-.24V10a4.42,4.42,0,0,0-3.29,1.75A6.07,6.07,0,0,0,102.18,12.58Z"/><path class="cls-2" d="M36,37.6q0-.49-1-1.06V37.6a3.14,3.14,0,0,1,1,.24Z"/><path class="cls-2" d="M29,33.86V34h.41a1.3,1.3,0,0,1,.2-.57h-.2Q29,33.54,29,33.86Z"/><path class="cls-2" d="M67,53.35q0,.28.57.61l.2-.41-.41-.2Z"/><path class="cls-2" d="M63.22,54l.41-.61-1.75-.16A1.3,1.3,0,0,0,63.22,54Z"/><path class="cls-2" d="M37.92,51.32l.37-.69v-.33h-1v.33Q37.39,51.32,37.92,51.32Z"/><path class="cls-2" d="M46.51,33.94h1.3v-.38l-.46-.31h-.84Z"/><path class="cls-2" d="M50.78,38.21c0-.33-.43-.65-1.3-1q-2,.77-2,1.3a2.11,2.11,0,0,1,1,.37A19.92,19.92,0,0,1,50.78,38.21Z"/><path class="cls-1" d="M52.12,38.54l.6-.12-.46-.59h-.15Z"/><path class="cls-1" d="M51.11,41.83a2.78,2.78,0,0,1,1-.33.58.58,0,0,0-.65-.65c-.46.05-.69.27-.69.65A.29.29,0,0,1,51.11,41.83Z"/><path class="cls-2" d="M37,47.11a2.07,2.07,0,0,1,.94-.37q0-.73-2.93-1.3v.37A2.16,2.16,0,0,0,37,47.11Z"/><path class="cls-1" d="M30.94,39.53v.61h.61q0-1,.69-1v-.33h-1Z"/><path class="cls-2" d="M66.47,51v.33a.66.66,0,0,0,.69.61h.93q.69,0,.69-.61l-1.38-.69A2.07,2.07,0,0,1,66.47,51Z"/><path class="cls-2" d="M35.68,50.63v-.33H34.62v1H35A.61.61,0,0,0,35.68,50.63Z"/><path class="cls-2" d="M36.31,41.5c.08.43.31.65.69.65l1.63-.33a2.5,2.5,0,0,0,1,.33v-.33l-.33-.69A14.86,14.86,0,0,1,36.31,41.5Z"/><rect x="56.53" y="47.73" width="1.3" height="0.61"/><path d="M47,45h.65q.45,0,1-1.06l-.37-.61A1.6,1.6,0,0,0,47,45Z"/><path d="M37.45,43q-.61.12-.61.65v.65l2,.33.28-.69L37.77,43Z"/><path d="M67.31,44.88l-.69-.37h-.28c-.46.11-.69.34-.69.69v.28a2.26,2.26,0,0,1,1,.33Z"/><path d="M55,21.77h1q-.28-1.3-2-1.3h-.33Q53.73,21,55,21.77Z"/><polygon points="58.02 33.25 57.37 32.93 56.72 33.94 57.37 34.31 58.02 33.25"/><path d="M49.54,27.87c0-.46-.22-.69-.65-.69l-.37.69v.37h1Z"/><path d="M60.66,32.93q-.29,0-.29.33a4.17,4.17,0,0,0-2-.61q0,.81,2.6,1.3h.69Q61.68,33.46,60.66,32.93Z"/><path d="M79.76,33.44a2.77,2.77,0,0,1,1.06-.32v-.7l-.86.3Z"/><path d="M63.67,36.91l-.37.69h1Q64.28,36.91,63.67,36.91Z"/><path class="cls-2" d="M47.81,33.25h-.46l.46.31Z"/><path d="M53.79,38.21l-.33-.61a3.77,3.77,0,0,1-1.2.23l.46.59Z"/><rect class="cls-2" x="67.53" y="29.49" width="0.45" height="0.81"/><path class="cls-2" d="M60.29,33.39c0,.33.19.49.49.49H61V33.6a1.89,1.89,0,0,1-.24-.73A.47.47,0,0,0,60.29,33.39Z"/><path class="cls-2" d="M69.32,25.91v-.29h-.53v.73C69.14,26.36,69.32,26.21,69.32,25.91Z"/><path class="cls-2" d="M52.53,54.29v.28c.05.35.23.53.53.53v-.29A.47.47,0,0,0,52.53,54.29Z"/><path class="cls-2" d="M64.68,23.07h.49v-.29q0-.36-.77-.81h-.53Q64.32,23.07,64.68,23.07Z"/><path class="cls-2" d="M64.68,26.36h-.53l-.28,1.1Q64.32,27.46,64.68,26.36Z"/><path class="cls-2" d="M51.76,41.65h-.24c-.38,0-.57.2-.57.53v.49h.28c.35,0,.53-.16.53-.49a.22.22,0,0,1-.24-.24C51.68,41.93,51.76,41.84,51.76,41.65Z"/><path class="cls-2" d="M71.63,27.17v-.24H70.9q-.41,0-.81.77l.53.24Q71.63,27.54,71.63,27.17Z"/><path class="cls-2" d="M50.21,37.78l-.28.49h.77A.43.43,0,0,0,50.21,37.78Z"/><path class="cls-2" d="M49.68,47.58l.24-.53v-1.3l1-.24V45a4.42,4.42,0,0,0-3.29,1.75A6.07,6.07,0,0,0,49.68,47.58Z"/><path class="cls-2" d="M59.48,22.78v.53q.37,0,.81-.77v-.28H60C59.66,22.34,59.48,22.51,59.48,22.78Z"/><path class="cls-2" d="M67.24,43.68l-.29.53v.53h.29a.53.53,0,0,0,0-1.06Z"/><path class="cls-2" d="M64.4,47.87q-.16,0-1.26-1.3c-.38.05-.57.22-.57.49v.53q.61,0,1.58,1h.24l-.24-.53C64.32,48.07,64.4,48,64.4,47.87Z"/><path class="cls-2" d="M72.16,45q0,.37.77.73h.77L74,44.49h-.24A2.18,2.18,0,0,1,72.16,45Z"/><path class="cls-2" d="M59.77,48.07v.29q.08.53.53.53h.49v-1a1.69,1.69,0,0,1-.77-.29Z"/><path class="cls-2" d="M76,44.74l-.24.49a.54.54,0,0,0,.37.5v-1Z"/><path class="cls-2" d="M55.62,49.41l-.53.73v.28l.24.49a1.4,1.4,0,0,0,1.1-1Z"/><path class="cls-2" d="M55.09,26.93h-.77v.77Q54.72,27.7,55.09,26.93Z"/><path class="cls-2" d="M55.09,35.71H54.6q-.57,0-.81,1.26h.81l.73-.53A1.88,1.88,0,0,1,55.09,35.71Z"/><path class="cls-2" d="M57.94,54.57v.53h-.77l-1-.81v.28a3.69,3.69,0,0,0,2,1,.25.25,0,0,1,.29-.28,1.69,1.69,0,0,1-.29-.73Z"/><path class="cls-2" d="M60.54,26.93H59v.24q.16,0,1.54.29Z"/><path class="cls-2" d="M57.16,26.65q0,.37.77.81h.24a.47.47,0,0,0,.53-.53l-.53-.28Z"/><path d="M43.3,33.64l.2-.53v-.24h-.73v.24C42.8,33.46,43,33.64,43.3,33.64Z"/><path d="M77.85,54v.28a1.9,1.9,0,0,1,1,.53h.28q.45,0,.45-.53L78.34,54Z"/><path d="M76.15,45.73l.16,0c.33,0,.49-.18.49-.53h-.49V45H77v-.28h-.89Z"/><path d="M73.46,27.7h.73l1.3-.24v-.53q0-.24-1.79-1.58c0,.19-.08.28-.24.28l.24.53v1Z"/><path d="M80.17,27.95h.24a1.87,1.87,0,0,1,.77-.24v-.53h-.24Q80.58,27.17,80.17,27.95Z"/><path class="cls-2" d="M14.46,18.35q0,.28.57.61l.2-.41-.41-.2Z"/><path class="cls-2" d="M10.72,19l.41-.61-1.75-.16A1.3,1.3,0,0,0,10.72,19Z"/><path class="cls-1" d="M-.38,3.54l.6-.12-.46-.59H-.38Z"/><path class="cls-2" d="M14,16v.33a.66.66,0,0,0,.69.61h.93q.69,0,.69-.61l-1.38-.69A2.07,2.07,0,0,1,14,16Z"/><rect x="4.03" y="12.73" width="1.3" height="0.61"/><path d="M14.81,9.88l-.69-.37h-.28c-.46.11-.69.34-.69.69v.28a2.26,2.26,0,0,1,1,.33Z"/><path d="M11.17,1.91l-.37.69h1Q11.78,1.91,11.17,1.91Z"/><path d="M1.29,3.21,1,2.6a3.77,3.77,0,0,1-1.2.23l.46.59Z"/><path class="cls-2" d="M0,19.29v.28c.05.35.23.53.53.53v-.29A.47.47,0,0,0,0,19.29Z"/><path class="cls-2" d="M14.74,8.68l-.29.53v.53h.29a.47.47,0,0,0,.53-.53A.47.47,0,0,0,14.74,8.68Z"/><path class="cls-2" d="M11.9,12.87q-.16,0-1.26-1.3c-.38.05-.57.22-.57.49v.53q.61,0,1.58,1h.24l-.24-.53C11.82,13.07,11.9,13,11.9,12.87Z"/><path class="cls-2" d="M19.66,10q0,.37.77.73h.77l.24-1.26h-.24A2.18,2.18,0,0,1,19.66,10Z"/><path class="cls-2" d="M7.27,13.07v.29q.08.53.53.53h.49v-1a1.69,1.69,0,0,1-.77-.29Z"/><path class="cls-2" d="M23.53,9.74l-.24.49a.54.54,0,0,0,.37.5v-1Z"/><path class="cls-2" d="M3.12,14.41l-.53.73v.28l.24.49a1.4,1.4,0,0,0,1.1-1Z"/><path class="cls-2" d="M2.59.71H2.1Q1.53.71,1.29,2H2.1l.73-.53A1.88,1.88,0,0,1,2.59.71Z"/><path class="cls-2" d="M5.44,19.57v.53H4.66l-1-.81v.28a3.69,3.69,0,0,0,2,1A.25.25,0,0,1,6,20.31a1.69,1.69,0,0,1-.29-.73Z"/><path d="M25.35,19v.28a1.9,1.9,0,0,1,1,.53h.28q.45,0,.45-.53L25.84,19Z"/><path d="M23.65,10.73l.16,0c.33,0,.49-.18.49-.53h-.49V10h.73V9.74h-.89Z"/></pattern></defs><title>koffie-vast</title><g id="Layer_2" data-name="Layer 2"><g id="PROGRAMMA"><g id="coffee-bg"><path class="cls-3" d="M34.79,156.38c3.19-7.22,20.91-23.22,21.78-31,1.78-16-9.44-23.67,2.74-39A119.06,119.06,0,0,1,96.92,54.89c18.51-9.83,39.3-15.74,61.13-20.44l1.45-.31c2.16-.46,4.31-1,6.44-1.61,78.41-22.46,167-21.91,234.09.92a77.08,77.08,0,0,1,8.37,3c1.12.42,2.26.83,3.36,1.27a26.31,26.31,0,0,1,8.63,5.44c1.22.89,2.39,1.81,3.48,2.78,14.88,13.16,24.06,29,28,45.83,4.18,18-2.6,41-35.31,52.46-14.49,5.08-46.14,29.39-92.2,59.63C258,247.37,171.87,250.17,104,211h0a89.39,89.39,0,0,0-36.1-11.57c-9-.86-17.09-3.77-22.3-8.15-.57-.35-1.15-.68-1.7-1.06C30.7,181.13,29.35,168.68,34.79,156.38Z"/><path class="cls-4" d="M285.27,0c-8.22,0-16.59.23-24.86.68l.88,16q10.86-.6,21.65-.65h2.33V0ZM238.72,2.39c-8.23.84-16.52,1.92-24.66,3.2l2.49,15.81,3.15-.48h0l.37-.05h0l.18,0h0l.17,0h0l.17,0h0l.34,0h0l.16,0h0l.14,0h0l.15,0h0l.11,0h.05l.14,0h.17l.11,0h.26l.12,0h.06l.14,0H223l.18,0h.17l.19,0h0l.34,0h0q8.22-1.15,16.47-2L238.72,2.39Zm-46.08,7.1c-8.16,1.69-16.32,3.63-24.24,5.75l4.14,15.45q5.69-1.52,11.44-2.89h0l.35-.08h0l.33-.08h0l.16,0h0l.13,0h0l.15,0h.05l.12,0,.07,0,.11,0,.07,0,.13,0h.06l.09,0,.07,0,.13,0,.08,0,.07,0,.13,0,.07,0,.09,0h.06l.16,0h0l.32-.07h0l.33-.08h0l.22,0h0l.34-.08h0q3.57-.81,7.16-1.56h0l.34-.07h0l.27-.06L192.65,9.49Zm-44,10.66c-9,2.06-17,4.16-24.35,6.44L129,41.88h0l.11,0h0l.12,0h0l.1,0h0l.1,0h0l.11,0h0l.09,0h0l.1,0h0l.1,0h0l.07,0h0l.1,0h0l.07,0h0l.07,0h0l.1,0h0l.06,0h0l.06,0,.07,0,.07,0,.05,0,.05,0,.06,0,.06,0,.08,0,.05,0,.06,0h0l.06,0,.06,0,.09,0h0l.06,0,.05,0,.09,0,.05,0,.07,0h0l.07,0h0l.12,0h0l.06,0h0l.07,0h0l.13,0h0l.06,0h0l.22-.06h0l.07,0h0l.12,0h0l.06,0h0l.06,0h0l.11,0h0l.06,0h0l.06,0h0l.13,0h0l.06,0h0l.11,0h0l.06,0,.05,0,.05,0,.06,0,.08,0,.06,0h0l.06,0h0l.09,0,.06,0,.06,0H135l.06,0h0l.1,0h0l.07,0h0l.08,0h0l.1,0h0l.07,0h0l.09,0h0l.08,0h0l.07,0h0l.11,0h0l.08,0h0l.09,0h0l.11,0h0l.09,0h0l.22-.06h0l.09,0h0l.23-.06h0l.11,0h0l.24-.06h0l.24-.06h0l.11,0h0l.24-.07h0q5.06-1.37,10.23-2.59h0l.25-.06h0l.1,0h0l.11,0h0l.1,0h0l.08,0h0l.09,0,.08,0h0l.07,0h0l2.57-.6-3.56-15.6ZM103,34.31c-4.71,2-9.27,4.17-13.56,6.45-3.46,1.84-6.88,3.85-10.14,6L88,60.14q1.08-.7,2.19-1.39h0l0,0h0l.06,0,0,0,0,0,0,0,0,0,0,0h0l.05,0h0l0,0h0l.06,0h0l.13-.08h0l.13-.08h0Q93.75,56.58,96.7,55h0l.14-.07h0l.07,0h0l.1-.05,0,0,.07,0,0,0,.06,0,0,0,.06,0,0,0,.06,0,0,0,.07,0,0,0,.1-.05,0,0,.06,0,.05,0,.05,0,.05,0,.05,0,0,0,.05,0,.05,0,0,0,.05,0,.06,0,.09,0,.05,0,.05,0,0,0,.06,0,0,0,.06,0,0,0,.06,0,0,0,.06,0,0,0,.13-.07h0l.06,0,0,0,.06,0,0,0,.06,0,0,0,.06,0,0,0,.06,0,0,0,.22-.11,0,0,.06,0,0,0,.06,0,0,0,.06,0,0,0,.06,0,0,0,.06,0h0l.15-.08h0l.07,0,0,0,.06,0,0,0,.06,0,0,0,.06,0,0,0,.06,0,0,0,.23-.11,0,0,.06,0,0,0,.06,0,0,0,.06,0,0,0,.06,0,0,0,.07,0h0l.16-.08h0l.06,0,0,0,.06,0,0,0,.06,0,0,0,.06,0,0,0,.06,0,0,0,.12-.06,0,0,.06,0,0,0,.06,0,0,0,.05,0,0,0,.05,0,.05,0,.05,0,0,0,.05,0,.07,0,.08,0,.06,0,.05,0,.05,0,.05,0,.05,0,.05,0,.05,0,0,0,.06,0,0,0,.06,0,.07,0,.07,0,0,0,.06,0,0,0,.06,0,0,0,.06,0,0,0,.07,0,0,0,.08,0h0l.11,0h0l.08,0,0,0,.07,0,0,0,.07,0,0,0,.07,0,0,0,.08,0h0l.22-.1h0l.08,0h0l.08,0h0l.08,0h0l.09,0h0l.22-.1h0l.11,0h0l.09,0h0l.09,0h0l.09,0h0l.44-.2h0l.1,0h0l.1,0h0l.56-.25h0l1.33-.57L103,34.31ZM60.54,61.47a143.1,143.1,0,0,0-13.76,15,48.78,48.78,0,0,0-4.87,7.33L56,91.34q.53-1,1.19-2h0l.11-.17h0v0h0v0h0v0h0l0-.07h.09l0,0h.11l0,0h.1l0-.05h.11l0,0v0H58v0h0l0-.05h0v0h0v0h0v0h0l.08-.11h.08l0,0h0v0h.08l0,0h0l0-.05h.06v0h0v0h0l.07-.1h0v0h0v0h0v0h0v0h0v0h0v0h0l.05-.07h0v0h0v0h0v0H59L59,86.8h0v0h.09l0,0h.15l0,0h0l0,0h0l0,0h0l0,0h0l0,0h0l.08-.1h0l0,0h0l0-.05h0q1.69-2.1,3.5-4.18h0l.09-.1h0l.09-.1h0l0,0h0l0,0h0l0,0h0l0,0h0l0,0,0,0,0,0h0l0,0h0l0,0h0l0,0h0l0,0h0l0,0h0l0,0h0l0,0,0,0,0,0v0l0,0,0,0,0,0,0,0,0,0,0,0,0,0,0,0,0,0,0,0,0,0,0,0,0,0,0,0,0,0,0,0,0,0,0,0,0,0,0,0v0l.08-.09h0l.08-.09h0l.05-.06h0l0,0h0l0-.05h0l0,0h0l0,0h0l.42-.46h0q1.94-2.11,4-4.17h0l.16-.16h0l0,0h0L69.6,75h0l.09-.09h0l.09-.09h0l.05-.05h0l0,0,0,0,0,0,0,0,0,0,0,0,0,0,0,0,0,0,0,0,0,0,0,0h0l0,0,0,0,0,0h0l0,0h0l0,0h0l0,0h0l0,0h0l.05,0h0l.05,0h0l.05,0h0l.85-.81-11-11.64Zm-5.15,50.27-15.59,3.61a27,27,0,0,1,.95,7c-.3.51-.83,1.33-1.73,2.55l12.89,9.48c.83-1.12,1.58-2.22,2.23-3.26h0l0,0h0l0,0h0v0h0v0h0v0h0v0h0v0h0v0h0v0h0v0h0l0,0h0l0,0h0c.38-.64.72-1.26,1-1.86h0l0,0h0v0h0v0h0v0h0v0h0v0h0v0h0v0h0v0h0v0h0v0h0a13,13,0,0,0,.61-1.57h0l0-.06h0v0h0l0-.06h0l0-.06h0v0h0v0h0v0h0v0h0v0h0v0h0v0h0v0h0v0h0v0h0v0h.06v0h0v0h0v0h0v0h0v0h0v0h0v0h0v0h0v0h0v0h0v0h0v0h0v0h0v0h0v0h0v0h0v0h0v0h0v0h0v0h0v0h0v0h0v0h0v0h0a39,39,0,0,0-1.19-13.51ZM26,140.75a43.71,43.71,0,0,0-5.85,9.16c-3.87,8.74-5.18,17.33-3.9,25.55L32.07,173q-.1-.66-.17-1.32h0l0-.28h0v0h0v0h0v0h0v0h0l0-.22h0v0h0v0h0v0h0v0h0v0h0v-.18h0v0h0v0h0v0h0v0h0v0h0v0h0v-.16h0v0h0v0h0v0h0v0h0v0h0v0h0v0h0V170h0v0h0v0h0v0h0v0h0v0h0v0h0v0h0s0-.08,0-.12h0v0h0v0h0v0h0v0h0v0h0v0h0v0h0v0h0v-.12h0v0h0v0h0v0h0v0h0v0h0v0h0v0h0v-.12h0v0h0v0h0v0h0v0h0v0h0v0h0v0h0v0h0v-.12h0v0h0v0h0v0h0v0h0v0h0v0h0v0h0v0h0v-.12h0v0h0v0h0v0h0v0h0v0h0v0h0v0h0v-.15h0v0h0v0h0v0h0v0h0v0h0v0h0v-.16h0v0h0v0h0v0h0v0h0v0h0v0h0v0h0l0-.19h0v0h0v0h0v0h0v0h0v0h0l0-.23h0v0h0v0h0v0h0l0-.36h0A34.13,34.13,0,0,1,34.52,157h0v0h0v0h0v0h0v0h0v0h0l.05-.12h0v0h0v0h0v0h0v0h0v0h0v-.11h0l0,0h0v0h0v0h0v0h0v0h0v0h0v0h0v0h0v0h0v0h0v0h0v0h0v0h0v0h0v0h0l0,0h0v0h0v0h0l0,0h0v0h0v0h0l0,0h0v0h0l0,0h0v0h0v0h0l0-.06h0v0h0l0,0h0v0h0l0-.06h0v0h0v0h0l0,0h0v0h0l0-.06h0v0h0l0-.06h0v0h0l0-.06h0l0-.06h0v0h0l0-.06h0v0h0l0-.06h0v0h0l0,0h0v0h0l0-.06h0v0h0l0-.06h0v0h0l0,0h0v0h0v0h0l0,0h0v0h0v0h0l0,0h0v0h0v0h0v0h0v0h0v0h0v0h0v0h0v0h0v0h0v0h0v0h0v0h0v0h0v0h0v0h0v0h0v0h0v0h0v0h0v0h0v0h0v0h0v0h0v0h0v0h0v0h0v0h0v0h0v0h0v0h0v0h0v0h0v0h0v0h0l0,0h0l0,0h0v0h0v0h0l0,0h0l0,0h0l0-.07h0l0,0h0c.61-.89,1.32-1.84,2.1-2.84L26,140.75ZM43.46,190l-9.27,13,.58.41c.58.4,1.13.75,1.6,1,6.9,5.41,16.09,9,26.68,10.55l2.25-15.84a53,53,0,0,1-5.53-1.08h-.05l-.34-.09h-.15l-.28-.08h-.19l-.23-.07h-.29l-.14,0h-.24l-.18-.05h-.33l-.09,0h-.33l-.09,0h-1.2l-.06,0h-.34l-.1,0h-.3l-.14-.05h-.29l-.11,0H54l-.15-.06h-.24l-.15-.06h-.23l-.18-.08h-.2l-.19-.08h0l0,0h0l0,0h0l0,0h0l0,0h0l0,0h0l-.26-.12h0l0,0h-.08l0,0h0l-.22-.1h0l0,0h-.08l0,0h0l-.22-.11h0l0,0h0l0,0h0l0,0h0l0,0h0l-.25-.12h0l0,0h0l0,0h0l0,0h0l-.28-.15h0l0,0h0l0,0h0l-.28-.15h0l0,0h0l0,0h0l-.35-.19h0l-.27-.15h0l0,0h0l0,0h0l0,0h0l0,0h0l-.23-.13h0l0,0h0l0,0h0l0,0h0l-.23-.14h0l0,0h0l0,0h0l0,0h0l-.26-.16h0l0,0h0l0,0h0l0,0h0l0,0h0l-.19-.12h0l0,0h0l0,0h0l0,0h0l0,0h0l-.19-.12h0l0,0h0l0,0h0l0,0h0l0,0h0l-.18-.12h0l0,0h0l0,0h0l0,0h0l0,0h0l0,0h0l0,0h0l-.12-.08h0l0,0h0l0,0h0l0,0h0l0,0h0l0,0h0l0,0h0l-.11-.08h0l0,0h0l0,0h-.07l0,0h0l0,0h0l-.11-.08h0l0,0h0l0,0h0l0,0h0l0,0h0l0,0h0l0,0h0l0,0h-.25l0,0h-.27l0,0h-.2l0,0h0l0,0h0l0,0h0l0,0h0l0,0h0l0,0h0l0,0h0l0,0h0l0,0h0l0,0h0c-.43-.26-.86-.52-1.27-.8h0l0,0h0l0,0h0l0,0h0L43.5,190h0l0,0ZM85.88,203.1l-4.78,15.27A74.15,74.15,0,0,1,96,224.89c1.31.75,2.64,1.5,4,2.23l7.7-14-1.72-1,0,0-.07,0-.05,0,0,0-.06,0h0L104,211h0l-.07,0h0l0,0,0,0,0,0,0,0,0,0,0,0,0,0,0,0,0,0,0,0,0,0,0,0,0,0,0,0,0,0,0,0,0,0,0,0,0,0,0,0,0,0,0,0h0l0,0h0l0,0h0l0,0h0l0,0h0l0,0h0l0,0h0l0,0h0l0,0h0l-.05,0h0l-.06,0h0l-.45-.25h0l-.06,0h0l-.05,0h0l-.05,0h0l0,0h0l0,0h0l0,0h0l0,0h0l0,0h0l0,0h0l0,0h0l0,0h0l0,0h0l0,0h0l0,0h0l-.05,0h0l0,0h0l-.05,0h0l-.06,0h0l-.52-.27h0l-.05,0h0l0,0h0l0,0h0l0,0h0l0,0h0l0,0h0l0,0h0l0,0h0l0,0h0l0,0h0l0,0h0l0,0h0l0,0h0l0,0h0l0,0h0l0,0h0l0,0h0l0,0,0,0,0,0,0,0,0,0h0l0,0h0l-.07,0,0,0,0,0,0,0,0,0,0,0h0l0,0h0l0,0h0l0,0h0l0,0h0l0,0h0l0,0h0l0,0h0l0,0h0l0,0h0l0,0h0l0,0h0l0,0h0l0,0h0l0,0h0l0,0h0l-.05,0h0l-.06,0h0l-.06,0h0l-.7-.33h0l-.07,0h0l-.07,0h0l-.07,0h0l-.07,0h0l-.07,0h0a89.85,89.85,0,0,0-10.47-4Zm40.65,19.14L120.32,237a222.73,222.73,0,0,0,24.36,8.64l4.46-15.37a206.08,206.08,0,0,1-20-6.92h0l-.09,0h0l-.08,0h0l-.09,0h0l-.09,0h0l-.06,0,0,0,0,0-.05,0h0l-.06,0h0l-.06,0h0l-.07,0h0l-1.73-.72Zm43,12.84-2.89,15.74A227.89,227.89,0,0,0,192.29,254l1.09-16q-2.24-.15-4.47-.35h-.57l-.2,0h-.53q-8.56-.82-17-2.33h0l-.09,0H170l-.1,0h0l-.08,0h-.27Zm68.69,1.3q-6.15.89-12.34,1.41h-.13l-.23,0h-1.49l-.24,0h-.21l-.27,0h-.1q-4.44.32-8.89.46l.49,16a230.51,230.51,0,0,0,25.69-2.24l-2.28-15.84Zm43.54-11q-4.19,1.55-8.43,2.92h0l-.34.11h0l-.08,0h0l-.24.08h0l-.07,0h0l-.07,0h0l-.14,0h0l-.06,0h0l-.06,0h0l-.06,0h0l-.1,0-.05,0-.05,0,0,0-.05,0-.06,0h0l-.1,0h0l-.07,0h0l-.07,0h0l-.11,0h0l-.1,0h0l-.08,0h0l-.1,0h0l-.11,0h0l-.1,0h0l-.1,0h0l-.22.07h0l-.1,0h0l-.34.1h0q-5.41,1.64-10.88,3l3.82,15.54a229.46,229.46,0,0,0,24.66-7.57l-5.55-15Zm40.23-20-2.31,1.46h0l-.24.15h0l-.07,0h0l-.3.19h0l-.07,0h0l-.21.13,0,0-.06,0,0,0-.2.12,0,0-.06,0,0,0-.06,0,0,0-.1.06,0,0-.05,0,0,0-.05,0,0,0-.09.05,0,0-.05,0,0,0-.05,0,0,0,0,0-.09.05,0,0-.06,0,0,0-.06,0,0,0-.08.05h0l-.08,0,0,0-.06,0,0,0-.08,0h0l-.09.06,0,0-.07,0,0,0-.08,0h0l-.1.06h0l-.08,0,0,0-.07,0h0l-.1.06h0l-.09.05,0,0-.07,0h0l-.2.12h0l-.08,0h0l-.09.05h0l-.1.06h0l-.09.05h0l-.08,0h0l-.2.12h0l-.09.05h0l-.2.12h0l-.09.05h0l-.21.12h0l-.1.06h0l-.1.06h0l-.21.12h0l-.1.06h0l-.21.12h0l-.1.06h0l-.31.18h0l-.31.18h0l-.31.18h0l-.42.24h0q-5.41,3-11,5.75l7,14.38a227,227,0,0,0,22.52-12.62L322,205.35Zm37.37-25.08q-7.6,5.2-16,10.89l0,0,0,0h0l0,0,0,0-.07,0,0,0,0,0-.3.2h0l-3.25,2.19L348.46,207c7.67-5.16,14.71-10,20-13.57l-9-13.2Zm37.28-25.2c-5.82,3.72-12.48,8.22-20,13.33l9,13.21c6.23-4.25,13.42-9.13,19.56-13.06l-8.62-13.48Zm39.55-21.17a57.36,57.36,0,0,1-5.11,3.53h0l0,0h0l0,0h0l0,0h0l0,0h0l0,0h0l0,0h0l0,0h0l0,0h0l0,0h0l0,0h-.53l0,0h0l0,0h0l0,0h0l0,0h0l0,0h0l0,0h0a76.5,76.5,0,0,1-13.39,6.12h0l-.1,0h-.13q-.68.24-1.42.54l6,14.82.8-.31A85.47,85.47,0,0,0,446,146.54l-9.8-12.64Zm31.89-42.24-15.78,2.67a39.85,39.85,0,0,1-3,23.45l14.53,6.7a55.8,55.8,0,0,0,4.22-32.82ZM444.47,44l-12,10.57a87.8,87.8,0,0,1,13.26,19.91l14.42-6.94A104,104,0,0,0,444.47,44ZM399.54,16.45,394.69,31.7l1.67.54h0l.49.16h0l.16.05h0l.16.05h0l.15.05h0l.15.05h0l.15,0h0l.15,0h0l.15,0h0l.14,0h0l.14,0h0l.14,0h0l.13,0h0l.14,0h0l.14,0h0l.13,0h0l.14,0h0l.14,0h0l.13,0h0l.14,0h0l.15,0h0a77.1,77.1,0,0,1,8.37,3h0l.08,0h0l.3.11h0l0,0,2.06.77h0l.05,0h0l.05,0h0l.06,0h.15l0,0h.22l.06,0h.14l.06,0h0l0,0h.32l.17.07h0l0,0h.14l0,0h0l.17.08h0l0,0h0l0,0h.09l0,0h0l0,0h0l.17.08h0l0,0h.18l0,0h0l.13.06h0l0,0h.26l0,0h0l0,0h0l0,0h.34l0,0h.3l.1.05h0l0,0h0l0,0h.12l0,0h0l0,0h0l.18.1h0l0,0h0l0,0h0l0,0h0l0,0h0l0,0h0l0,0h0l.21.12h0l0,0h0l0,0h0l0,0h0l.28.16h0l0,0h0l0,0h0l0,0h0l.27.17h0l0,0h0l0,0h0l.27.17h0l0,0h0l0,0h0l0,0h0l0,0h0l.17.11,8.87-13.32a44.09,44.09,0,0,0-8.19-4.27c-.81-.32-1.63-.63-2.46-.93l-.84-.31a93.54,93.54,0,0,0-9.46-3.4c-1.76-.6-3.56-1.19-5.35-1.76ZM353.59,5.5l-2.64,15.78q12,2,23.52,4.78l3.76-15.55c-8-1.92-16.25-3.61-24.63-5ZM307,.53l-.79,16q12.1.6,23.92,1.89l1.74-15.9c-8.14-.89-16.51-1.56-24.87-2Z"/></g><g id="coffee"><path class="cls-5" d="M87.9,279.6c23.42,0,43.7-6.13,53.58-15.06a16.6,16.6,0,0,0,5-15.91l0-.11a16.46,16.46,0,0,0-4.93-8.63c-9.87-9-30.17-15.1-53.63-15.1s-43.75,6.14-53.63,15.1a16.46,16.46,0,0,0-4.93,8.63l0,.11a16.6,16.6,0,0,0,5,15.91C44.2,273.47,64.48,279.6,87.9,279.6Z"/><path class="cls-6" d="M88.82,260.16c10.28,0,19.19-2.69,23.53-6.61a7.29,7.29,0,0,0,2.19-7v0a7.23,7.23,0,0,0-2.16-3.79c-4.33-3.93-13.25-6.63-23.55-6.63s-19.21,2.7-23.55,6.63a7.23,7.23,0,0,0-2.16,3.79v0a7.29,7.29,0,0,0,2.19,7C69.63,257.47,78.54,260.16,88.82,260.16Z"/><path class="cls-7" d="M46.69,228.64c-6.33-1-13.06-7.31-15-14.13s2.57-10.56,8.9-9.57"/><path class="cls-5" d="M88.79,228.35c18.51,0,34.54-4.84,42.35-11.9a13.12,13.12,0,0,0,3.95-12.57l0-.09a13,13,0,0,0-3.9-6.82C123.37,189.9,107.32,185,88.79,185S54.2,189.9,46.4,197a13,13,0,0,0-3.9,6.82l0,.09a13.12,13.12,0,0,0,3.95,12.57C54.25,223.51,70.28,228.35,88.79,228.35Z"/><path class="cls-8" d="M133.64,223.08c.16-1.32-1.48-2.21-2.47-3.11C123.37,212.9,107.32,208,88.79,208S54.2,212.9,46.4,220a12.72,12.72,0,0,0-3.27,4.78S131.82,238.55,133.64,223.08Z"/><path class="cls-9" d="M88.2,227.47c-23.95,0-43.65-8.45-46.17-19.31a49,49,0,0,0-.28,5.15c0,26.2,20.79,47.43,46.44,47.43s46.44-21.24,46.44-47.43c0-1.74.86-3.46.68-5.15C132.82,219,112.15,227.47,88.2,227.47Z"/><path class="cls-10" d="M42.14,207.58"/><path class="cls-10" d="M126.27,216.13c-8.74,5.31-22.69,8.75-38,8.75S59.48,221.44,51,216.13"/><path class="cls-2" d="M5.75,235.59c-7.66,0-7.67,11.91,0,11.91S13.42,235.59,5.75,235.59Z"/><path class="cls-11" d="M48.9,222.65a43.83,43.83,0,0,0,19.52,28.86"/></g><path class="cls-2" d="M275,65.43l-.08.23c-.09.27,0,.46.32.56.05-.15.14-.21.26-.17a1.83,1.83,0,0,1,0,.76l.23.08.08-.23A1.09,1.09,0,0,0,275,65.43Z"/><path class="cls-2" d="M322.36,92.71,322,93.8q1.56.17,2.18-1.69l.12-.36Q323.7,91.54,322.36,92.71Z"/><path class="cls-2" d="M300.75,34.29a3.26,3.26,0,0,1,0,1.3l.78.26c0-.35,0-.71,0-1.07Z"/><path class="cls-2" d="M323.68,33.37a6.73,6.73,0,0,1,1.92-.92q.12-.67-.33-.82l-.59-.2q-.23.68-1.73,1.39l-.09.27.68-.08C323.48,33.2,323.53,33.32,323.68,33.37Z"/><path class="cls-2" d="M362.16,74.35l-.06-.23c-.07-.28-.27-.37-.57-.29,0,.15,0,.25-.12.28a1.83,1.83,0,0,1-.42-.63l-.23.06.06.23A1.09,1.09,0,0,0,362.16,74.35Z"/><path class="cls-2" d="M307.63,107.78l-.3-1.11q-1.39.72-.88,2.62l.1.37Q307.15,109.5,307.63,107.78Z"/><path class="cls-2" d="M357.92,114.53a3.26,3.26,0,0,1-.69-1.1l-.79.21c.21.28.41.58.61.88Z"/><path class="cls-2" d="M286.68,174a6.73,6.73,0,0,1-1.09,1.83c.18.42.42.58.73.5l.6-.16a3.12,3.12,0,0,1,.67-2.11l-.07-.28-.53.44C286.94,174,286.84,174,286.68,174Z"/><path class="cls-2" d="M235.76,89q.57,0,1.25-1.15h-1.25a3.69,3.69,0,0,1-.29,1.15Z"/><path class="cls-1" d="M205.24,104.29a3.27,3.27,0,0,1,.38,1.2.68.68,0,0,0,.77-.77c-.06-.54-.32-.81-.77-.81A.34.34,0,0,1,205.24,104.29Z"/><path class="cls-1" d="M207.94,80.55h-.72v.72q1.15,0,1.15.81h.38V80.93Z"/><path class="cls-2" d="M89.63,99.93a.79.79,0,0,0-.48-1l-1.92-.33a2.94,2.94,0,0,0-.93-.77l-.14.36.07.9A17.5,17.5,0,0,1,89.63,99.93Z"/><path class="cls-2" d="M215.06,206.46l.62.24H216v-.86h-.29C215.26,205.87,215.06,206.07,215.06,206.46Z"/><path class="cls-2" d="M216.47,61.59h-.33a2.24,2.24,0,0,1-.62,1.2v.33q0,.53.62.53l.33-1.48Z"/><path class="cls-2" d="M94.78,150.39h-.33a2.24,2.24,0,0,1-.62,1.2v.33q0,.53.62.53l.33-1.48Z"/><path class="cls-2" d="M134.83,63.17q0,.57,1.15,1.25V63.17a3.69,3.69,0,0,1-1.15-.29Z"/><path class="cls-2" d="M231.78,175.26v-.19h-.48a1.53,1.53,0,0,1-.24.67h.24Q231.78,175.64,231.78,175.26Z"/><path class="cls-2" d="M184.88,187.53l-.24.62v.29h.86v-.29C185.47,187.73,185.26,187.53,184.88,187.53Z"/></g></g></svg>