<?xml version="1.0" encoding="UTF-8" standalone="no"?>
<svg xmlns="http://www.w3.org/2000/svg" xmlns:xlink="http://www.w3.org/1999/xlink" viewBox="0 0 468.93 280.6">
<defs>
<style>.cls-1,.cls-10,.cls-11,.cls-7{fill:none;}.cls-2,.cls-5,.cls-6{fill:#fff;}.cls-3{fill:#88aeea;}.cls-4{fill:url(#a);}.cls-5,.cls-6,.cls-7,.cls-9{stroke:#000;}.cls-10,.cls-11,.cls-5,.cls-6,.cls-7,.cls-9{stroke-linecap:round;stroke-linejoin:round;}.cls-10,.cls-5,.cls-9{stroke-width:2px;}.cls-6,.cls-7{stroke-width:4.45px;}.cls-8{fill:#020202;stroke:#f9f9f9;stroke-miterlimit:10;}.cls-10{stroke:#fcfbfa;}.cls-11{stroke:#fff;stroke-width:3px;}</style>
<pattern id="a" data-name="New Pattern 2" height="70" width="105" patternUnits="userSpaceOnUse" viewBox="0 0 105 70">
<rect width="105" class="cls-1" height="70"/>
<path class="cls-2" d="m81.4 68.9v0.1h0.41a1.3 1.3 0 0 1 0.2 -0.57h-0.2q-0.4 0.1-0.4 0.5z"/>
<path class="cls-2" d="m99 68.9h1.3v-0.38l-0.46-0.31h-0.5z"/>
<path d="m102 62.9c0-0.46-0.22-0.69-0.65-0.69l-0.37 0.69v0.37h1z"/>
<path class="cls-2" d="m100 68.2h-0.46l0.46 0.31z"/>
<path d="m95.8 68.6l0.2-0.53v-0.24h-0.73v0.24c0 0.4 0.2 0.5 0.5 0.5z"/>
<path d="m2.53 56.8h1q-0.28-1.3-2-1.3h-0.3q0 0.5 1.3 1.3z"/>
<polygon points="5.52 68.2 4.87 67.9 4.22 68.9 4.87 69.3"/>
<path d="m8.16 67.9q-0.29 0-0.29 0.33a4.17 4.17 0 0 0 -2 -0.61q0 0.81 2.6 1.3h0.69q0.02-0.4-1-1z"/>
<path d="m27.3 68.4a2.77 2.77 0 0 1 1.06 -0.32v-0.7l-0.86 0.3z"/>
<rect y="64.5" x="15" height=".81" class="cls-2" width=".45"/>
<path class="cls-2" d="m7.79 68.4c0 0.33 0.19 0.49 0.49 0.49h0.24v-0.3a1.89 1.89 0 0 1 -0.24 -0.73 0.47 0.47 0 0 0 -0.49 0.5z"/>
<path class="cls-2" d="m16.8 60.9v-0.29h-0.53v0.73c0.3 0.1 0.5-0.1 0.5-0.4z"/>
<path class="cls-2" d="m12.2 58.1h0.49v-0.29q0-0.36-0.77-0.81h-0.53q0.4 1.1 0.8 1.1z"/>
<path class="cls-2" d="m12.2 61.4h-0.53l-0.28 1.1q0.4 0 0.8-1.1z"/>
<path class="cls-2" d="m19.1 62.2v-0.24h-0.7q-0.41 0-0.81 0.77l0.53 0.24q1-0.5 1-0.8z"/>
<path class="cls-2" d="m7 57.8v0.53q0.37 0 0.81-0.77v-0.28h-0.3c-0.35 0.1-0.51 0.3-0.51 0.6z"/>
<path class="cls-2" d="m2.59 61.9h-0.77v0.77q0.4 0 0.77-0.8z"/>
<path class="cls-2" d="m8 61.9h-1.51v0.24q0.16 0 1.54 0.29z"/>
<path class="cls-2" d="m4.66 61.6q0 0.37 0.77 0.81h0.24a0.47 0.47 0 0 0 0.53 -0.53l-0.53-0.28z"/>
<path d="m21 62.7h0.73l1.3-0.24v-0.53q0-0.24-1.79-1.58c0 0.19-0.08 0.28-0.24 0.28l0.24 0.53v1z"/>
<path d="m27.7 63h0.24a1.87 1.87 0 0 1 0.77 -0.24v-0.53h-0.24q-0.4-0.1-0.8 0.7z"/>
<path class="cls-2" d="m88.5 2.6q0-0.49-1-1.06v1.06a3.14 3.14 0 0 1 1 0.24z"/>
<path class="cls-2" d="m90.4 16.3l0.37-0.69v-0.33h-1v0.33q0.1 0.7 0.6 0.7z"/>
<path class="cls-2" d="m103 3.21c0-0.33-0.43-0.65-1.3-1q-2 0.77-2 1.3a2.11 2.11 0 0 1 1 0.37 19.9 19.9 0 0 1 2 -0.67z"/>
<path class="cls-1" d="m105 3.54l0.6-0.12-0.46-0.59h-0.15z"/>
<path class="cls-1" d="m104 6.83a2.78 2.78 0 0 1 1 -0.33 0.58 0.58 0 0 0 -0.65 -0.65c-0.46 0.05-0.69 0.27-0.69 0.65a0.29 0.29 0 0 1 1 0.33z"/>
<path class="cls-2" d="m89.5 12.1a2.07 2.07 0 0 1 0.94 -0.37q0-0.73-2.93-1.3v0.37a2.16 2.16 0 0 0 2 1.3z"/>
<path class="cls-1" d="m83.4 4.53v0.61h0.61q0-1 0.69-1v-0.3h-1z"/>
<path class="cls-2" d="m88.2 15.6v-0.33h-1.1v1h0.37a0.61 0.61 0 0 0 0.7 -0.7z"/>
<path class="cls-2" d="m88.8 6.5c0.08 0.43 0.31 0.65 0.69 0.65l1.63-0.33a2.5 2.5 0 0 0 1 0.33v-0.32l-0.33-0.69a14.9 14.9 0 0 1 -3 0.36z"/>
<path d="m99.5 10h0.65q0.45 0 1-1.06l-0.37-0.61a1.6 1.6 0 0 0 -1.5 1.67z"/>
<path d="m90 8q-0.61 0.12-0.61 0.65v0.65l2 0.33 0.28-0.69-1.4-0.94z"/>
<path d="m106 3.21v-0.61a3.77 3.77 0 0 1 -1.2 0.23l0.46 0.59z"/>
<path class="cls-2" d="m104 6.65c-0.38 0-0.57 0.2-0.57 0.53v0.49h0.28c0.35 0 0.53-0.16 0.53-0.49a0.22 0.22 0 0 1 -0.24 -0.24v-0.29z"/>
<path class="cls-2" d="m103 2.78l-0.28 0.49h0.77a0.43 0.43 0 0 0 -1 -0.49z"/>
<path class="cls-2" d="m102 12.6l0.24-0.53v-1.3l1-0.24v-0.6a4.42 4.42 0 0 0 -3.29 1.75 6.07 6.07 0 0 0 2.3 0.8z"/>
<path class="cls-2" d="m36 37.6q0-0.49-1-1.06v1.1a3.14 3.14 0 0 1 1 0.24z"/>
<path class="cls-2" d="m29 33.9v0.1h0.41a1.3 1.3 0 0 1 0.2 -0.57h-0.2q-0.4 0.1-0.4 0.5z"/>
<path class="cls-2" d="m67 53.4q0 0.28 0.57 0.61l0.2-0.41-0.41-0.2z"/>
<path class="cls-2" d="m63.2 54l0.41-0.61-1.75-0.16a1.3 1.3 0 0 0 1.3 0.8z"/>
<path class="cls-2" d="m37.9 51.3l0.37-0.69v-0.33h-1v0.33q0.1 0.7 0.6 0.7z"/>
<path class="cls-2" d="m46.5 33.9h1.3v-0.38l-0.46-0.31h-0.84z"/>
<path class="cls-2" d="m50.8 38.2c0-0.33-0.43-0.65-1.3-1q-2 0.77-2 1.3a2.11 2.11 0 0 1 1 0.37 19.9 19.9 0 0 1 2.3 -0.7z"/>
<path class="cls-1" d="m52.1 38.5l0.6-0.12-0.46-0.59h-0.15z"/>
<path class="cls-1" d="m51.1 41.8a2.78 2.78 0 0 1 1 -0.33 0.58 0.58 0 0 0 -0.65 -0.65c-0.46 0.05-0.69 0.27-0.69 0.65a0.29 0.29 0 0 1 0.4 0.4z"/>
<path class="cls-2" d="m37 47.1a2.07 2.07 0 0 1 0.94 -0.37q0-0.73-2.93-1.3v0.37a2.16 2.16 0 0 0 2 1.3z"/>
<path class="cls-1" d="m30.9 39.5v0.61h0.61q0-1 0.69-1v-0.33h-1z"/>
<path class="cls-2" d="m66.5 51v0.33a0.66 0.66 0 0 0 0.69 0.61h0.93q0.69 0 0.69-0.61l-1.38-0.69a2.07 2.07 0 0 1 -0.9 0.4z"/>
<path class="cls-2" d="m35.7 50.6v-0.33h-1.1v1h0.4a0.61 0.61 0 0 0 0.7 -0.7z"/>
<path class="cls-2" d="m36.3 41.5c0.08 0.43 0.31 0.65 0.69 0.65l1.63-0.33a2.5 2.5 0 0 0 1 0.33v-0.33l-0.33-0.69a14.9 14.9 0 0 1 -3 0.3z"/>
<rect y="47.7" x="56.5" height=".61" width="1.3"/>
<path d="m47 45h0.65q0.45 0 1-1.06l-0.37-0.61a1.6 1.6 0 0 0 -1.2 1.7z"/>
<path d="m37.4 43q-0.61 0.12-0.61 0.65v0.65l2 0.33 0.28-0.69-1.3-0.8z"/>
<path d="m67.3 44.9l-0.69-0.37h-0.28c-0.46 0.11-0.69 0.34-0.69 0.69v0.28a2.26 2.26 0 0 1 1 0.33z"/>
<path d="m55 21.8h1q-0.28-1.3-2-1.3h-0.33q0 0.5 1.3 1.3z"/>
<polygon points="58 33.2 57.4 32.9 56.7 33.9 57.4 34.3"/>
<path d="m49.5 27.9c0-0.46-0.22-0.69-0.65-0.69l-0.37 0.69v0.37h1z"/>
<path d="m60.7 32.9q-0.29 0-0.29 0.33a4.17 4.17 0 0 0 -2 -0.61q0 0.81 2.6 1.3h0.69q0-0.4-1-1z"/>
<path d="m79.8 33.4a2.77 2.77 0 0 1 1.06 -0.32v-0.7l-0.86 0.3z"/>
<path d="m63.7 36.9l-0.37 0.69h1q0-0.7-0.6-0.7z"/>
<path class="cls-2" d="m47.8 33.2h-0.46l0.46 0.31z"/>
<path d="m53.8 38.2l-0.33-0.61a3.77 3.77 0 0 1 -1.2 0.23l0.46 0.59z"/>
<rect y="29.5" x="67.5" height=".81" class="cls-2" width=".45"/>
<path class="cls-2" d="m60.3 33.4c0 0.33 0.19 0.49 0.49 0.49h0.2v-0.3a1.89 1.89 0 0 1 -0.24 -0.73 0.47 0.47 0 0 0 -0.5 0.5z"/>
<path class="cls-2" d="m69.3 25.9v-0.29h-0.53v0.73c0.3 0.1 0.5-0.1 0.5-0.4z"/>
<path class="cls-2" d="m52.5 54.3v0.28c0.05 0.35 0.23 0.53 0.53 0.53v-0.29a0.47 0.47 0 0 0 -0.5 -0.5z"/>
<path class="cls-2" d="m64.7 23.1h0.49v-0.29q0-0.36-0.77-0.81h-0.53q0.4 1.1 0.8 1.1z"/>
<path class="cls-2" d="m64.7 26.4h-0.53l-0.28 1.1q0.4 0 0.8-1.1z"/>
<path class="cls-2" d="m51.8 41.6h-0.24c-0.38 0-0.57 0.2-0.57 0.53v0.49h0.28c0.35 0 0.53-0.16 0.53-0.49a0.22 0.22 0 0 1 -0.24 -0.24c0.1 0 0.2-0.1 0.2-0.3z"/>
<path class="cls-2" d="m71.6 27.2v-0.24h-0.7q-0.41 0-0.81 0.77l0.53 0.24q1-0.5 1-0.8z"/>
<path class="cls-2" d="m50.2 37.8l-0.28 0.49h0.77a0.43 0.43 0 0 0 -0.5 -0.5z"/>
<path class="cls-2" d="m49.7 47.6l0.24-0.53v-1.3l1-0.24v-0.6a4.42 4.42 0 0 0 -3.29 1.75 6.07 6.07 0 0 0 2.1 0.8z"/>
<path class="cls-2" d="m59.5 22.8v0.53q0.37 0 0.81-0.77v-0.28h-0.3c-0.3 0.1-0.5 0.3-0.5 0.6z"/>
<path class="cls-2" d="m67.2 43.7l-0.29 0.53v0.53h0.29a0.53 0.53 0 0 0 0 -1.06z"/>
<path class="cls-2" d="m64.4 47.9q-0.16 0-1.26-1.3c-0.38 0.05-0.57 0.22-0.57 0.49v0.53q0.61 0 1.58 1h0.24l-0.24-0.53c0.2 0 0.3-0.1 0.3-0.2z"/>
<path class="cls-2" d="m72.2 45q0 0.37 0.77 0.73h0.77l0.2-1.2h-0.24a2.18 2.18 0 0 1 -1.6 0.5z"/>
<path class="cls-2" d="m59.8 48.1v0.29q0.08 0.53 0.53 0.53h0.49v-1a1.69 1.69 0 0 1 -0.77 -0.29z"/>
<path class="cls-2" d="m76 44.7l-0.24 0.49a0.54 0.54 0 0 0 0.37 0.5v-1z"/>
<path class="cls-2" d="m55.6 49.4l-0.53 0.73v0.28l0.24 0.49a1.4 1.4 0 0 0 1.1 -1z"/>
<path class="cls-2" d="m55.1 26.9h-0.77v0.77q0.4 0 0.8-0.8z"/>
<path class="cls-2" d="m55.1 35.7h-0.5q-0.57 0-0.81 1.26h0.81l0.73-0.53a1.88 1.88 0 0 1 -0.2 -0.8z"/>
<path class="cls-2" d="m57.9 54.6v0.53h-0.77l-1-0.81v0.28a3.69 3.69 0 0 0 2 1 0.25 0.25 0 0 1 0.29 -0.28 1.69 1.69 0 0 1 -0.29 -0.73z"/>
<path class="cls-2" d="m60.5 26.9h-1.5v0.24q0.16 0 1.54 0.29z"/>
<path class="cls-2" d="m57.2 26.6q0 0.37 0.77 0.81h0.24a0.47 0.47 0 0 0 0.53 -0.53l-0.53-0.28z"/>
<path d="m43.3 33.6l0.2-0.53v-0.24h-0.73v0.24c0 0.4 0.2 0.5 0.5 0.5z"/>
<path d="m77.8 54v0.28a1.9 1.9 0 0 1 1 0.53h0.28q0.45 0 0.45-0.53l-1.3-0.3z"/>
<path d="m76.2 45.7h0.16c0.33 0 0.49-0.18 0.49-0.53h-0.49v-0.2h0.6v-0.28h-0.89z"/>
<path d="m73.5 27.7h0.73l1.3-0.24v-0.53q0-0.24-1.79-1.58c0 0.19-0.08 0.28-0.24 0.28l0.24 0.53v1z"/>
<path d="m80.2 28h0.24a1.87 1.87 0 0 1 0.77 -0.24v-0.53h-0.24q-0.4-0.1-0.8 0.7z"/>
<path class="cls-2" d="m14.5 18.4q0 0.28 0.57 0.61l0.2-0.41-0.41-0.2z"/>
<path class="cls-2" d="m10.7 19l0.41-0.61-1.75-0.16a1.3 1.3 0 0 0 1.34 0.8z"/>
<path class="cls-1" d="m-0.38 3.54l0.6-0.12-0.46-0.59h-0.14z"/>
<path class="cls-2" d="m14 16v0.33a0.66 0.66 0 0 0 0.69 0.61h0.93q0.69 0 0.69-0.61l-1.38-0.69a2.07 2.07 0 0 1 -0.9 0.4z"/>
<rect y="12.7" x="4.03" height=".61" width="1.3"/>
<path d="m14.8 9.88l-0.69-0.37h-0.28c-0.46 0.11-0.69 0.34-0.69 0.69v0.28a2.26 2.26 0 0 1 1 0.33z"/>
<path d="m11.2 1.91l-0.37 0.69h1q0-0.69-0.6-0.69z"/>
<path d="m1.29 3.21-0.29-0.61a3.77 3.77 0 0 1 -1.2 0.23l0.46 0.59z"/>
<path class="cls-2" d="m0 19.3v0.28c0.05 0.35 0.23 0.53 0.53 0.53v-0.29a0.47 0.47 0 0 0 -0.53 -0.5z"/>
<path class="cls-2" d="m14.7 8.68l-0.29 0.53v0.53h0.29a0.47 0.47 0 0 0 0.53 -0.53 0.47 0.47 0 0 0 -0.5 -0.53z"/>
<path class="cls-2" d="m11.9 12.9q-0.16 0-1.26-1.3c-0.38 0.05-0.57 0.22-0.57 0.49v0.53q0.61 0 1.58 1h0.24l-0.24-0.53c0.2 0 0.3-0.1 0.3-0.2z"/>
<path class="cls-2" d="m19.7 10q0 0.37 0.77 0.73h0.77l0.24-1.26h-0.24a2.18 2.18 0 0 1 -1.6 0.56z"/>
<path class="cls-2" d="m7.27 13.1v0.29q0.08 0.53 0.53 0.53h0.49v-1a1.69 1.69 0 0 1 -0.77 -0.29z"/>
<path class="cls-2" d="m23.5 9.74l-0.24 0.49a0.54 0.54 0 0 0 0.37 0.5v-1z"/>
<path class="cls-2" d="m3.12 14.4l-0.53 0.73v0.28l0.24 0.49a1.4 1.4 0 0 0 1.1 -1z"/>
<path class="cls-2" d="m2.59 0.71h-0.49q-0.57 0-0.81 1.29h0.81l0.73-0.53a1.88 1.88 0 0 1 -0.24 -0.76z"/>
<path class="cls-2" d="m5.44 19.6v0.53h-0.78l-1-0.81v0.28a3.69 3.69 0 0 0 2 1 0.25 0.25 0 0 1 0.34 -0.3 1.69 1.69 0 0 1 -0.29 -0.73z"/>
<path d="m25.4 19v0.28a1.9 1.9 0 0 1 1 0.53h0.28q0.45 0 0.45-0.53l-1.4-0.3z"/>
<path d="m23.6 10.7h0.16c0.33 0 0.49-0.18 0.49-0.53h-0.49v-0.2h0.73v-0.26h-0.89z"/>
</pattern>
</defs>
<title>koffie-vast</title>
<g data-name="Layer 2">
<g id="PROGRAMMA">
<g id="coffee-bg">
<path class="cls-3" d="m34.8 156c3.19-7.22 20.9-23.2 21.8-31 1.78-16-9.44-23.7 2.74-39a119 119 0 0 1 37.6 -31.1c18.5-9.83 39.3-15.7 61.1-20.4l1.45-0.31c2.16-0.46 4.31-1 6.44-1.61 78.4-22.5 167-21.9 234 0.92a77.1 77.1 0 0 1 8.37 3c1.12 0.42 2.26 0.83 3.36 1.27a26.3 26.3 0 0 1 8.63 5.44c1.22 0.89 2.39 1.81 3.48 2.78 14.9 13.2 24.1 29 28 45.8 4.18 18-2.6 41-35.3 52.5-14.5 5.08-46.1 29.4-92.2 59.6-65 43-151 46-219 7a89.4 89.4 0 0 0 -36.1 -11.6c-9-0.86-17.1-3.77-22.3-8.15-0.57-0.35-1.15-0.68-1.7-1.06-13.2-9-14.5-21-9.1-34z"/>
<path class="cls-4" d="m285 0c-8.22 0-16.6 0.23-24.9 0.68l0.88 16q10.9-0.6 21.6-0.65h2.33v-16zm-46 2.39c-8.23 0.84-16.5 1.92-24.7 3.2l2.49 15.8 3.15-0.48 0.37-0.05h0.18 0.17 0.17 0.34 0.16 0.14 0.15 0.11 0.05 0.14 0.17 0.11 0.26 0.12 0.06 0.14 3 0.18 0.17 0.19 0.34q8.22-1.15 16.5-2l-1-16.4zm-46.1 7.1c-8.16 1.69-16.3 3.63-24.2 5.75l4.14 15.4q5.69-1.52 11.4-2.89l0.35-0.08 0.33-0.08h0.16 0.13 0.15 0.05 0.12 0.07 0.11 0.07 0.13 0.06 0.09 0.07 0.13 0.08 0.07 0.13 0.07 0.09 0.06 0.16l0.32-0.07 0.33-0.08h0.22l0.34-0.08q3.57-0.81 7.16-1.56l0.34-0.07 0.27-0.06 1-15.9zm-44 10.7c-9 2.06-17 4.16-24.4 6.44l4 15.3h0.11 0.12 0.1 0.1 0.11 0.09 0.1 0.1 0.07 0.1 0.07 0.07 0.1 0.06 0.06 0.07 0.07 0.05 0.05 0.06 0.06 0.08 0.05 0.06 0.06 0.06 0.09 0.06 0.05 0.09 0.05 0.07 0.07 0.12 0.06 0.07 0.13 0.06l0.22-0.06h0.07 0.12 0.06 0.06 0.11 0.06 0.06 0.13 0.06 0.11 0.06 0.05 0.05 0.06 0.08 0.06 0.06 0.09 0.06 0.06 5 0.06 0.1 0.07 0.08 0.1 0.07 0.09 0.08 0.07 0.11 0.08 0.09 0.11 0.09l0.22-0.06h0.09l0.23-0.06h0.11l0.24-0.06 0.24-0.06h0.11l0.24-0.07q5.06-1.37 10.2-2.59l0.25-0.06h0.1 0.11 0.1 0.08 0.09 0.08 0.07l2.57-0.6-3.56-15.6zm-46 14.1c-4.71 2-9.27 4.17-13.6 6.45-3.46 1.84-6.88 3.85-10.1 6l8.7 13.4q1.08-0.7 2.19-1.39h0.06 0.05 0.06l0.13-0.08 0.13-0.08q3.1-1.9 6-3.5l0.14-0.07h0.07l0.1-0.05h0.07 0.06 0.06 0.06 0.07l0.1-0.05h0.06 0.05 0.05 0.05 0.05 0.05 0.05 0.05 0.06 0.09 0.05 0.05 0.06 0.06 0.06 0.06l0.13-0.07h0.06 0.06 0.06 0.06 0.06l0.22-0.11h0.06 0.06 0.06 0.06 0.06l0.15-0.08h0.07 0.06 0.06 0.06 0.06l0.23-0.11h0.06 0.06 0.06 0.06 0.07l0.16-0.08h0.06 0.06 0.06 0.06 0.06l0.12-0.06h0.06 0.06 0.05 0.05 0.05 0.05 0.05 0.07 0.08 0.06 0.05 0.05 0.05 0.05 0.05 0.05 0.06 0.06 0.07 0.07 0.06 0.06 0.06 0.07 0.08 0.11 0.08 0.07 0.07 0.07 0.08l0.22-0.1h0.08 0.08 0.08 0.09l0.22-0.1h0.11 0.09 0.09 0.09l0.44-0.2h0.1 0.1l0.56-0.25 1.33-0.57-1-18.7zm-42.5 27.2a143 143 0 0 0 -13.8 15 48.8 48.8 0 0 0 -4.87 7.33l14.2 7.5q0.53-1 1.19-2l0.11-0.17v-0.07h0.3v-0.05h0.41v-0.05l0.08-0.11h0.16v-0.05h0.06l0.07-0.1 0.05-0.07h0.4v-1.8h0.24l0.08-0.1v-0.05q1.69-2.1 3.5-4.18l0.09-0.1 0.09-0.1 0.08-0.09 0.08-0.09 0.05-0.06v-0.05l0.42-0.46q1.94-2.11 4-4.17l0.16-0.16 1.8-1.9 0.09-0.09 0.09-0.09 0.05-0.05h0.05 0.05 0.05l0.85-0.81-11-11.6zm-5.15 50.3-15.6 3.61a27 27 0 0 1 0.95 7c-0.3 0.51-0.83 1.33-1.73 2.55l12.9 9.48c0.83-1.12 1.58-2.22 2.23-3.26 0.38-0.64 0.72-1.26 1-1.86a13 13 0 0 0 0.61 -1.57v-0.06-0.06-0.06h0.06a39 39 0 0 0 -1.19 -13.5zm-29.4 29a43.7 43.7 0 0 0 -5.85 9.16c-3.87 8.74-5.18 17.3-3.9 25.6l15.8-3q-0.1-0.66-0.17-1.32v-0.28-0.22-2.34s0-0.08 0-0.12v-0.79-0.19-0.23-0.36a34.1 34.1 0 0 1 2.6 -13l0.05-0.12v-0.11-0.06-0.06-0.06-0.06-0.06-0.06-0.06-0.06-0.06-0.06-0.07c0.61-0.89 1.32-1.84 2.1-2.84l-10.7-13zm17.5 49l-9.27 13 0.58 0.41c0.58 0.4 1.13 0.75 1.6 1 6.9 5.41 16.1 9 26.7 10.6l2.25-15.8a53 53 0 0 1 -5.53 -1.08h-0.05l-0.34-0.09h-0.15l-0.28-0.08h-0.19l-0.23-0.07h-0.29-0.14-0.24l-0.18-0.05h-0.33-0.09-0.33-0.09-1.2-0.06-0.34-0.1-0.3l-0.14-0.05h-0.29-0.11-0.6l-0.15-0.06h-0.24l-0.15-0.06h-0.23l-0.18-0.08h-0.2l-0.19-0.08-0.26-0.12h-0.08l-0.22-0.1h-0.08l-0.22-0.11-0.25-0.12-0.28-0.15-0.28-0.15-0.35-0.19-0.27-0.15-0.23-0.13-0.23-0.14-0.26-0.16-0.19-0.12-0.19-0.12-0.18-0.12-0.12-0.08-0.11-0.08h-0.07l-0.11-0.08h-0.72c-0.43-0.26-0.86-0.52-1.27-0.8l-2.9-7zm42.4 13l-4.78 15.3a74.2 74.2 0 0 1 14.9 7c1.31 0.75 2.64 1.5 4 2.23l7.7-14-1.72-1h-0.07-0.05-0.06l-2-1h-0.07-0.05-0.06l-0.45-0.25h-0.06-0.05-0.05-0.05-0.05-0.06l-0.52-0.27h-0.05-0.07-0.05-0.06-0.06l-0.7-0.33h-0.07-0.07-0.07-0.07-0.07a89.8 89.8 0 0 0 -10.5 -4zm40.6 19.1l-6 15a223 223 0 0 0 24.4 8.64l4.46-15.4a206 206 0 0 1 -20 -6.92h-0.09-0.08-0.09-0.09-0.06-0.05-0.06-0.06-0.07l-1.73-0.72zm43 12.8-2.89 15.7a228 228 0 0 0 26 3l1.09-16q-2.24-0.15-4.47-0.35h-0.57-0.2-0.53q-8.56-0.82-17-2.33h-0.09-0.1-0.08-0.27zm68.7 1.3q-6.15 0.89-12.3 1.41h-0.13-0.23-1.49-0.24-0.21-0.27-0.1q-4.44 0.32-8.89 0.46l0.49 16a231 231 0 0 0 25.7 -2.24l-2.28-15.8zm43.5-11q-4.19 1.55-8.43 2.92l-0.34 0.11h-0.08l-0.24 0.08h-0.07-0.07-0.14-0.06-0.06-0.06-0.1-0.05-0.05-0.05-0.06-0.1-0.07-0.07-0.11-0.1-0.08-0.1-0.11-0.1-0.1l-0.22 0.07h-0.1l-0.34 0.1q-5.41 1.64-10.9 3l3.82 15.5a229 229 0 0 0 24.7 -7.57l-5.55-15zm40.2-20-2.31 1.46l-0.24 0.15h-0.07l-0.3 0.19h-0.07l-0.21 0.13h-0.06l-0.2 0.12h-0.06-0.06l-0.1 0.06h-0.05-0.05l-0.09 0.05h-0.05-0.05l-0.09 0.05h-0.06-0.06l-0.08 0.05h-0.08-0.06-0.08l-0.09 0.06h-0.07-0.08l-0.1 0.06h-0.08-0.07l-0.1 0.06-0.09 0.05h-0.07l-0.2 0.12h-0.08l-0.09 0.05-0.1 0.06-0.09 0.05h-0.08l-0.2 0.12-0.09 0.05-0.2 0.12-0.09 0.05-0.21 0.12-0.1 0.06-0.1 0.06-0.21 0.12-0.1 0.06-0.21 0.12-0.1 0.06-0.31 0.18-0.31 0.18-0.31 0.18-0.42 0.24q-5.41 3-11 5.75l7 14.4a227 227 0 0 0 22.5 -12.6l-16-8zm37.4-25.1q-7.6 5.2-16 10.9h-0.07l-0.3 0.2-3.25 2.19 8 14c7.67-5.16 14.7-10 20-13.6l-9-13.2zm37.3-25.2c-5.82 3.72-12.5 8.22-20 13.3l9 13.2c6.23-4.25 13.4-9.13 19.6-13.1l-8.62-13.5zm39.6-21.2a57.4 57.4 0 0 1 -5.11 3.53h-0.53a76.5 76.5 0 0 1 -13.4 6.12h-0.1-0.13q-0.68 0.24-1.42 0.54l6 14.8 0.8-0.31a85.5 85.5 0 0 0 23 -13l-9.8-12.6zm31.9-42.2-15.8 2.67a39.8 39.8 0 0 1 -3 23.4l14.5 6.7a55.8 55.8 0 0 0 4.22 -32.8zm-24-47.8l-12 10.6a87.8 87.8 0 0 1 13.3 19.9l14.4-6.94a104 104 0 0 0 -15 -23.6zm-44-27.6-5 15.3l1.67 0.54 0.49 0.16 0.16 0.05 0.16 0.05 0.15 0.05 0.15 0.05h0.15 0.15 0.15 0.14 0.14 0.14 0.13 0.14 0.14 0.13 0.14 0.14 0.13 0.14 0.15a77.1 77.1 0 0 1 8.37 3h0.08l0.3 0.11 2.06 0.77h0.05 0.05 0.06 0.37 0.06 0.14 0.06 0.32l0.17 0.07h0.14l0.17 0.08h0.09l0.17 0.08h0.18l0.13 0.06h0.9l0.1 0.05h0.12l0.18 0.1 0.21 0.12 0.28 0.16 0.27 0.17 0.27 0.17 0.17 0.11 8.87-13.3a44.1 44.1 0 0 0 -8.19 -4.27c-0.81-0.32-1.63-0.63-2.46-0.93l-0.84-0.31a93.5 93.5 0 0 0 -9.46 -3.4c-1.76-0.6-3.56-1.19-5.35-1.76zm-46-10.9l-2.64 15.8q12 2 23.5 4.78l3.76-15.6c-8-1.92-16.2-3.61-24.6-5zm-47-4.97l-0.79 16q12.1 0.6 23.9 1.89l1.74-15.9c-8.14-0.89-16.5-1.56-24.9-2z"/>
</g>
<g id="coffee">
<path class="cls-5" d="m87.9 280c23.4 0 43.7-6.13 53.6-15.1a16.6 16.6 0 0 0 5 -15.9v-0.11a16.5 16.5 0 0 0 -4.93 -8.63c-9.87-9-30.2-15.1-53.6-15.1s-43.8 6.14-53.6 15.1a16.5 16.5 0 0 0 -4.93 8.63v0.11a16.6 16.6 0 0 0 5 15.9c9.3 8 29.6 15 53 15z"/>
<path class="cls-6" d="m88.8 260c10.3 0 19.2-2.69 23.5-6.61a7.29 7.29 0 0 0 2.19 -7 7.23 7.23 0 0 0 -2.16 -3.79c-4.33-3.93-13.2-6.63-23.6-6.63s-19.2 2.7-23.6 6.63a7.23 7.23 0 0 0 -2.16 3.79 7.29 7.29 0 0 0 2.19 7c4.8 4 13.7 7 24 7z"/>
<path class="cls-7" d="m46.7 229c-6.33-1-13.1-7.31-15-14.1s2.57-10.6 8.9-9.57"/>
<path class="cls-5" d="m88.8 228c18.5 0 34.5-4.84 42.4-11.9a13.1 13.1 0 0 0 3.95 -12.6v-0.09a13 13 0 0 0 -3.9 -6.82c-8-6-24-11-42.2-11s-34.6 5-42.4 12a13 13 0 0 0 -3.9 6.82v0.09a13.1 13.1 0 0 0 3.95 12.6c7.8 7 23.9 11 42.4 11z"/>
<path class="cls-8" d="m134 223c0.16-1.32-1.48-2.21-2.47-3.11-9-7-25-12-43.2-12s-34.6 5-42.4 12a12.7 12.7 0 0 0 -3.27 4.78s88.9 14 90.9-2z"/>
<path class="cls-9" d="m88.2 227c-24 0-43.6-8.45-46.2-19.3a49 49 0 0 0 -0.28 5.15c0 26.2 20.8 47.4 46.4 47.4s46.4-21.2 46.4-47.4c0-1.74 0.86-3.46 0.68-5.15-2 11-23 19-46.8 19z"/>
<path class="cls-10" d="m42.1 208"/>
<path class="cls-10" d="m126 216c-8.74 5.31-22.7 8.75-38 8.75s-28.5-4-37-9"/>
<path class="cls-2" d="m5.75 236c-7.66 0-7.67 11.9 0 11.9s7.65-12 0-12z"/>
<path class="cls-11" d="m48.9 223a43.8 43.8 0 0 0 19.5 28.9"/>
</g>
<path class="cls-2" d="m275 65.4l-0.08 0.23c-0.09 0.27 0 0.46 0.32 0.56 0.05-0.15 0.14-0.21 0.26-0.17a1.83 1.83 0 0 1 0 0.76l0.23 0.08 0.08-0.23a1.09 1.09 0 0 0 -1 -1.2z"/>
<path class="cls-2" d="m322 92.7v1.1q1.56 0.17 2.18-1.69l0.12-0.36q0-0.2-2 1z"/>
<path class="cls-2" d="m301 34.3a3.26 3.26 0 0 1 0 1.3l0.78 0.26v-1.07z"/>
<path class="cls-2" d="m324 33.4a6.73 6.73 0 0 1 1.92 -0.92q0.12-0.67-0.33-0.82l-0.59-0.2q-0.23 0.68-1.73 1.39l-0.09 0.27 0.68-0.08c-1 0.1 0 0.2 0 0.3z"/>
<path class="cls-2" d="m362 74.4l-0.06-0.23c-0.07-0.28-0.27-0.37-0.57-0.29 0 0.15 0 0.25-0.12 0.28a1.83 1.83 0 0 1 -0.42 -0.63l-0.23 0.06 0.06 0.23a1.09 1.09 0 0 0 1 0.5z"/>
<path class="cls-2" d="m308 108l-0.3-1.11q-1.39 0.72-0.88 2.62l0.1 0.37t1-2z"/>
<path class="cls-2" d="m358 115a3.26 3.26 0 0 1 -0.69 -1.1l-0.79 0.21c0.21 0.28 0.41 0.58 0.61 0.88z"/>
<path class="cls-2" d="m287 174a6.73 6.73 0 0 1 -1.09 1.83c0.18 0.42 0.42 0.58 0.73 0.5l0.6-0.16a3.12 3.12 0 0 1 0.67 -2.11l-0.07-0.28-0.53 0.44h-1z"/>
<path class="cls-2" d="m236 89q0.57 0 1.25-1.15h-1.25a3.69 3.69 0 0 1 -0.29 1.15z"/>
<path class="cls-1" d="m205 104a3.27 3.27 0 0 1 0.38 1.2 0.68 0.68 0 0 0 0.77 -0.77c-0.06-0.54-0.32-0.81-0.77-0.81a0.34 0.34 0 0 1 0 1z"/>
<path class="cls-1" d="m208 80.6h-0.72v0.72q1.15 0 1.15 0.81h0.38v-1.2z"/>
<path class="cls-2" d="m89.6 99.9a0.79 0.79 0 0 0 -0.48 -1l-1.92-0.33a2.94 2.94 0 0 0 -0.93 -0.77l-0.14 0.36 0.07 0.9a17.5 17.5 0 0 1 3.4 0.8z"/>
<path class="cls-2" d="m215 206l0.62 0.24v-0.86h-0.29l-1 1z"/>
<path class="cls-2" d="m216 61.6h-0.33a2.24 2.24 0 0 1 -0.62 1.2v0.33q0 0.53 0.62 0.53l0.33-1.48z"/>
<path class="cls-2" d="m94.8 150h-0.33a2.24 2.24 0 0 1 -0.62 1.2v0.33q0 0.53 0.62 0.53l0.33-1.48z"/>
<path class="cls-2" d="m135 63.2q0 0.57 1.15 1.25v-1.2a3.69 3.69 0 0 1 -1.15 -0.29z"/>
<path class="cls-2" d="m232 175v-0.19h-0.48a1.53 1.53 0 0 1 -0.24 0.67h0.24t0-1z"/>
<path class="cls-2" d="m185 188l-0.24 0.62v0.29h0.86v-0.29l-1-1z"/>
</g>
</g>
</svg>
