<?xml version="1.0" encoding="UTF-8" standalone="no"?>
<svg xmlns="http://www.w3.org/2000/svg" xmlns:xlink="http://www.w3.org/1999/xlink" viewBox="0 0 404.25 322.1">
<defs>
<style>.cls-1{fill:none;}.cls-2{fill:#fff;}.cls-3{fill:#80d692;}.cls-4{fill:url(#a);}</style>
<pattern id="a" data-name="New Pattern 2" height="70" width="105" patternUnits="userSpaceOnUse" viewBox="0 0 105 70">
<rect width="105" class="cls-1" height="70"/>
<path class="cls-2" d="m81.4 68.9v0.1h0.41a1.3 1.3 0 0 1 0.2 -0.57h-0.2q-0.4 0.1-0.4 0.5z"/>
<path class="cls-2" d="m99 68.9h1.3v-0.38l-0.46-0.31h-0.5z"/>
<path d="m102 62.9c0-0.46-0.22-0.69-0.65-0.69l-0.37 0.69v0.37h1z"/>
<path class="cls-2" d="m100 68.2h-0.46l0.46 0.31z"/>
<path d="m95.8 68.6l0.2-0.53v-0.24h-0.73v0.24c0 0.4 0.2 0.5 0.5 0.5z"/>
<path d="m2.53 56.8h1q-0.28-1.3-2-1.3h-0.3q0 0.5 1.3 1.3z"/>
<polygon points="5.52 68.2 4.87 67.9 4.22 68.9 4.87 69.3"/>
<path d="m8.16 67.9q-0.29 0-0.29 0.33a4.17 4.17 0 0 0 -2 -0.61q0 0.81 2.6 1.3h0.69q0.02-0.4-1-1z"/>
<path d="m27.3 68.4a2.77 2.77 0 0 1 1.06 -0.32v-0.7l-0.86 0.3z"/>
<rect y="64.5" x="15" height=".81" class="cls-2" width=".45"/>
<path class="cls-2" d="m7.79 68.4c0 0.33 0.19 0.49 0.49 0.49h0.24v-0.3a1.89 1.89 0 0 1 -0.24 -0.73 0.47 0.47 0 0 0 -0.49 0.5z"/>
<path class="cls-2" d="m16.8 60.9v-0.29h-0.53v0.73c0.3 0.1 0.5-0.1 0.5-0.4z"/>
<path class="cls-2" d="m12.2 58.1h0.49v-0.29q0-0.36-0.77-0.81h-0.53q0.4 1.1 0.8 1.1z"/>
<path class="cls-2" d="m12.2 61.4h-0.53l-0.28 1.1q0.4 0 0.8-1.1z"/>
<path class="cls-2" d="m19.1 62.2v-0.24h-0.7q-0.41 0-0.81 0.77l0.53 0.24q1-0.5 1-0.8z"/>
<path class="cls-2" d="m7 57.8v0.53q0.37 0 0.81-0.77v-0.28h-0.3c-0.35 0.1-0.51 0.3-0.51 0.6z"/>
<path class="cls-2" d="m2.59 61.9h-0.77v0.77q0.4 0 0.77-0.8z"/>
<path class="cls-2" d="m8 61.9h-1.51v0.24q0.16 0 1.54 0.29z"/>
<path class="cls-2" d="m4.66 61.6q0 0.37 0.77 0.81h0.24a0.47 0.47 0 0 0 0.53 -0.53l-0.53-0.28z"/>
<path d="m21 62.7h0.73l1.3-0.24v-0.53q0-0.24-1.79-1.58c0 0.19-0.08 0.28-0.24 0.28l0.24 0.53v1z"/>
<path d="m27.7 63h0.24a1.87 1.87 0 0 1 0.77 -0.24v-0.53h-0.24q-0.4-0.1-0.8 0.7z"/>
<path class="cls-2" d="m88.5 2.6q0-0.49-1-1.06v1.06a3.14 3.14 0 0 1 1 0.24z"/>
<path class="cls-2" d="m90.4 16.3l0.37-0.69v-0.33h-1v0.33q0.1 0.7 0.6 0.7z"/>
<path class="cls-2" d="m103 3.21c0-0.33-0.43-0.65-1.3-1q-2 0.77-2 1.3a2.11 2.11 0 0 1 1 0.37 19.9 19.9 0 0 1 2 -0.67z"/>
<path class="cls-1" d="m105 3.54l0.6-0.12-0.46-0.59h-0.15z"/>
<path class="cls-1" d="m104 6.83a2.78 2.78 0 0 1 1 -0.33 0.58 0.58 0 0 0 -0.65 -0.65c-0.46 0.05-0.69 0.27-0.69 0.65a0.29 0.29 0 0 1 1 0.33z"/>
<path class="cls-2" d="m89.5 12.1a2.07 2.07 0 0 1 0.94 -0.37q0-0.73-2.93-1.3v0.37a2.16 2.16 0 0 0 2 1.3z"/>
<path class="cls-1" d="m83.4 4.53v0.61h0.61q0-1 0.69-1v-0.3h-1z"/>
<path class="cls-2" d="m88.2 15.6v-0.33h-1.1v1h0.37a0.61 0.61 0 0 0 0.7 -0.7z"/>
<path class="cls-2" d="m88.8 6.5c0.08 0.43 0.31 0.65 0.69 0.65l1.63-0.33a2.5 2.5 0 0 0 1 0.33v-0.32l-0.33-0.69a14.9 14.9 0 0 1 -3 0.36z"/>
<path d="m99.5 10h0.65q0.45 0 1-1.06l-0.37-0.61a1.6 1.6 0 0 0 -1.5 1.67z"/>
<path d="m90 8q-0.61 0.12-0.61 0.65v0.65l2 0.33 0.28-0.69-1.4-0.94z"/>
<path d="m106 3.21v-0.61a3.77 3.77 0 0 1 -1.2 0.23l0.46 0.59z"/>
<path class="cls-2" d="m104 6.65c-0.38 0-0.57 0.2-0.57 0.53v0.49h0.28c0.35 0 0.53-0.16 0.53-0.49a0.22 0.22 0 0 1 -0.24 -0.24v-0.29z"/>
<path class="cls-2" d="m103 2.78l-0.28 0.49h0.77a0.43 0.43 0 0 0 -1 -0.49z"/>
<path class="cls-2" d="m102 12.6l0.24-0.53v-1.3l1-0.24v-0.6a4.42 4.42 0 0 0 -3.29 1.75 6.07 6.07 0 0 0 2.3 0.8z"/>
<path class="cls-2" d="m36 37.6q0-0.49-1-1.06v1.1a3.14 3.14 0 0 1 1 0.24z"/>
<path class="cls-2" d="m29 33.9v0.1h0.41a1.3 1.3 0 0 1 0.2 -0.57h-0.2q-0.4 0.1-0.4 0.5z"/>
<path class="cls-2" d="m67 53.4q0 0.28 0.57 0.61l0.2-0.41-0.41-0.2z"/>
<path class="cls-2" d="m63.2 54l0.41-0.61-1.75-0.16a1.3 1.3 0 0 0 1.3 0.8z"/>
<path class="cls-2" d="m37.9 51.3l0.37-0.69v-0.33h-1v0.33q0.1 0.7 0.6 0.7z"/>
<path class="cls-2" d="m46.5 33.9h1.3v-0.38l-0.46-0.31h-0.84z"/>
<path class="cls-2" d="m50.8 38.2c0-0.33-0.43-0.65-1.3-1q-2 0.77-2 1.3a2.11 2.11 0 0 1 1 0.37 19.9 19.9 0 0 1 2.3 -0.7z"/>
<path class="cls-1" d="m52.1 38.5l0.6-0.12-0.46-0.59h-0.15z"/>
<path class="cls-1" d="m51.1 41.8a2.78 2.78 0 0 1 1 -0.33 0.58 0.58 0 0 0 -0.65 -0.65c-0.46 0.05-0.69 0.27-0.69 0.65a0.29 0.29 0 0 1 0.4 0.4z"/>
<path class="cls-2" d="m37 47.1a2.07 2.07 0 0 1 0.94 -0.37q0-0.73-2.93-1.3v0.37a2.16 2.16 0 0 0 2 1.3z"/>
<path class="cls-1" d="m30.9 39.5v0.61h0.61q0-1 0.69-1v-0.33h-1z"/>
<path class="cls-2" d="m66.5 51v0.33a0.66 0.66 0 0 0 0.69 0.61h0.93q0.69 0 0.69-0.61l-1.38-0.69a2.07 2.07 0 0 1 -0.9 0.4z"/>
<path class="cls-2" d="m35.7 50.6v-0.33h-1.1v1h0.4a0.61 0.61 0 0 0 0.7 -0.7z"/>
<path class="cls-2" d="m36.3 41.5c0.08 0.43 0.31 0.65 0.69 0.65l1.63-0.33a2.5 2.5 0 0 0 1 0.33v-0.33l-0.33-0.69a14.9 14.9 0 0 1 -3 0.3z"/>
<rect y="47.7" x="56.5" height=".61" width="1.3"/>
<path d="m47 45h0.65q0.45 0 1-1.06l-0.37-0.61a1.6 1.6 0 0 0 -1.2 1.7z"/>
<path d="m37.4 43q-0.61 0.12-0.61 0.65v0.65l2 0.33 0.28-0.69-1.3-0.8z"/>
<path d="m67.3 44.9l-0.69-0.37h-0.28c-0.46 0.11-0.69 0.34-0.69 0.69v0.28a2.26 2.26 0 0 1 1 0.33z"/>
<path d="m55 21.8h1q-0.28-1.3-2-1.3h-0.33q0 0.5 1.3 1.3z"/>
<polygon points="58 33.2 57.4 32.9 56.7 33.9 57.4 34.3"/>
<path d="m49.5 27.9c0-0.46-0.22-0.69-0.65-0.69l-0.37 0.69v0.37h1z"/>
<path d="m60.7 32.9q-0.29 0-0.29 0.33a4.17 4.17 0 0 0 -2 -0.61q0 0.81 2.6 1.3h0.69q0-0.4-1-1z"/>
<path d="m79.8 33.4a2.77 2.77 0 0 1 1.06 -0.32v-0.7l-0.86 0.3z"/>
<path d="m63.7 36.9l-0.37 0.69h1q0-0.7-0.6-0.7z"/>
<path class="cls-2" d="m47.8 33.2h-0.46l0.46 0.31z"/>
<path d="m53.8 38.2l-0.33-0.61a3.77 3.77 0 0 1 -1.2 0.23l0.46 0.59z"/>
<rect y="29.5" x="67.5" height=".81" class="cls-2" width=".45"/>
<path class="cls-2" d="m60.3 33.4c0 0.33 0.19 0.49 0.49 0.49h0.2v-0.3a1.89 1.89 0 0 1 -0.24 -0.73 0.47 0.47 0 0 0 -0.5 0.5z"/>
<path class="cls-2" d="m69.3 25.9v-0.29h-0.53v0.73c0.3 0.1 0.5-0.1 0.5-0.4z"/>
<path class="cls-2" d="m52.5 54.3v0.28c0.05 0.35 0.23 0.53 0.53 0.53v-0.29a0.47 0.47 0 0 0 -0.5 -0.5z"/>
<path class="cls-2" d="m64.7 23.1h0.49v-0.29q0-0.36-0.77-0.81h-0.53q0.4 1.1 0.8 1.1z"/>
<path class="cls-2" d="m64.7 26.4h-0.53l-0.28 1.1q0.4 0 0.8-1.1z"/>
<path class="cls-2" d="m51.8 41.6h-0.24c-0.38 0-0.57 0.2-0.57 0.53v0.49h0.28c0.35 0 0.53-0.16 0.53-0.49a0.22 0.22 0 0 1 -0.24 -0.24c0.1 0 0.2-0.1 0.2-0.3z"/>
<path class="cls-2" d="m71.6 27.2v-0.24h-0.7q-0.41 0-0.81 0.77l0.53 0.24q1-0.5 1-0.8z"/>
<path class="cls-2" d="m50.2 37.8l-0.28 0.49h0.77a0.43 0.43 0 0 0 -0.5 -0.5z"/>
<path class="cls-2" d="m49.7 47.6l0.24-0.53v-1.3l1-0.24v-0.6a4.42 4.42 0 0 0 -3.29 1.75 6.07 6.07 0 0 0 2.1 0.8z"/>
<path class="cls-2" d="m59.5 22.8v0.53q0.37 0 0.81-0.77v-0.28h-0.3c-0.3 0.1-0.5 0.3-0.5 0.6z"/>
<path class="cls-2" d="m67.2 43.7l-0.29 0.53v0.53h0.29a0.53 0.53 0 0 0 0 -1.06z"/>
<path class="cls-2" d="m64.4 47.9q-0.16 0-1.26-1.3c-0.38 0.05-0.57 0.22-0.57 0.49v0.53q0.61 0 1.58 1h0.24l-0.24-0.53c0.2 0 0.3-0.1 0.3-0.2z"/>
<path class="cls-2" d="m72.2 45q0 0.37 0.77 0.73h0.77l0.2-1.2h-0.24a2.18 2.18 0 0 1 -1.6 0.5z"/>
<path class="cls-2" d="m59.8 48.1v0.29q0.08 0.53 0.53 0.53h0.49v-1a1.69 1.69 0 0 1 -0.77 -0.29z"/>
<path class="cls-2" d="m76 44.7l-0.24 0.49a0.54 0.54 0 0 0 0.37 0.5v-1z"/>
<path class="cls-2" d="m55.6 49.4l-0.53 0.73v0.28l0.24 0.49a1.4 1.4 0 0 0 1.1 -1z"/>
<path class="cls-2" d="m55.1 26.9h-0.77v0.77q0.4 0 0.8-0.8z"/>
<path class="cls-2" d="m55.1 35.7h-0.5q-0.57 0-0.81 1.26h0.81l0.73-0.53a1.88 1.88 0 0 1 -0.2 -0.8z"/>
<path class="cls-2" d="m57.9 54.6v0.53h-0.77l-1-0.81v0.28a3.69 3.69 0 0 0 2 1 0.25 0.25 0 0 1 0.29 -0.28 1.69 1.69 0 0 1 -0.29 -0.73z"/>
<path class="cls-2" d="m60.5 26.9h-1.5v0.24q0.16 0 1.54 0.29z"/>
<path class="cls-2" d="m57.2 26.6q0 0.37 0.77 0.81h0.24a0.47 0.47 0 0 0 0.53 -0.53l-0.53-0.28z"/>
<path d="m43.3 33.6l0.2-0.53v-0.24h-0.73v0.24c0 0.4 0.2 0.5 0.5 0.5z"/>
<path d="m77.8 54v0.28a1.9 1.9 0 0 1 1 0.53h0.28q0.45 0 0.45-0.53l-1.3-0.3z"/>
<path d="m76.2 45.7h0.16c0.33 0 0.49-0.18 0.49-0.53h-0.49v-0.2h0.6v-0.28h-0.89z"/>
<path d="m73.5 27.7h0.73l1.3-0.24v-0.53q0-0.24-1.79-1.58c0 0.19-0.08 0.28-0.24 0.28l0.24 0.53v1z"/>
<path d="m80.2 28h0.24a1.87 1.87 0 0 1 0.77 -0.24v-0.53h-0.24q-0.4-0.1-0.8 0.7z"/>
<path class="cls-2" d="m14.5 18.4q0 0.28 0.57 0.61l0.2-0.41-0.41-0.2z"/>
<path class="cls-2" d="m10.7 19l0.41-0.61-1.75-0.16a1.3 1.3 0 0 0 1.34 0.8z"/>
<path class="cls-1" d="m-0.38 3.54l0.6-0.12-0.46-0.59h-0.14z"/>
<path class="cls-2" d="m14 16v0.33a0.66 0.66 0 0 0 0.69 0.61h0.93q0.69 0 0.69-0.61l-1.38-0.69a2.07 2.07 0 0 1 -0.9 0.4z"/>
<rect y="12.7" x="4.03" height=".61" width="1.3"/>
<path d="m14.8 9.88l-0.69-0.37h-0.28c-0.46 0.11-0.69 0.34-0.69 0.69v0.28a2.26 2.26 0 0 1 1 0.33z"/>
<path d="m11.2 1.91l-0.37 0.69h1q0-0.69-0.6-0.69z"/>
<path d="m1.29 3.21-0.29-0.61a3.77 3.77 0 0 1 -1.2 0.23l0.46 0.59z"/>
<path class="cls-2" d="m0 19.3v0.28c0.05 0.35 0.23 0.53 0.53 0.53v-0.29a0.47 0.47 0 0 0 -0.53 -0.5z"/>
<path class="cls-2" d="m14.7 8.68l-0.29 0.53v0.53h0.29a0.47 0.47 0 0 0 0.53 -0.53 0.47 0.47 0 0 0 -0.5 -0.53z"/>
<path class="cls-2" d="m11.9 12.9q-0.16 0-1.26-1.3c-0.38 0.05-0.57 0.22-0.57 0.49v0.53q0.61 0 1.58 1h0.24l-0.24-0.53c0.2 0 0.3-0.1 0.3-0.2z"/>
<path class="cls-2" d="m19.7 10q0 0.37 0.77 0.73h0.77l0.24-1.26h-0.24a2.18 2.18 0 0 1 -1.6 0.56z"/>
<path class="cls-2" d="m7.27 13.1v0.29q0.08 0.53 0.53 0.53h0.49v-1a1.69 1.69 0 0 1 -0.77 -0.29z"/>
<path class="cls-2" d="m23.5 9.74l-0.24 0.49a0.54 0.54 0 0 0 0.37 0.5v-1z"/>
<path class="cls-2" d="m3.12 14.4l-0.53 0.73v0.28l0.24 0.49a1.4 1.4 0 0 0 1.1 -1z"/>
<path class="cls-2" d="m2.59 0.71h-0.49q-0.57 0-0.81 1.29h0.81l0.73-0.53a1.88 1.88 0 0 1 -0.24 -0.76z"/>
<path class="cls-2" d="m5.44 19.6v0.53h-0.78l-1-0.81v0.28a3.69 3.69 0 0 0 2 1 0.25 0.25 0 0 1 0.34 -0.3 1.69 1.69 0 0 1 -0.29 -0.73z"/>
<path d="m25.4 19v0.28a1.9 1.9 0 0 1 1 0.53h0.28q0.45 0 0.45-0.53l-1.4-0.3z"/>
<path d="m23.6 10.7h0.16c0.33 0 0.49-0.18 0.49-0.53h-0.49v-0.2h0.73v-0.26h-0.89z"/>
</pattern>
</defs>
<title>markt-vast</title>
<g data-name="Layer 2">
<g id="PROGRAMMA">
<path class="cls-3" d="m388 257c-0.46-16.8-0.62-20.1-6.82-28.5-3.89-5.25-5.42-8.23-9.33-11.7a57.4 57.4 0 0 1 -9.72 -10.8q-1.71-2.55-3.26-5.32c-3.61-6.5-5.79-11.3-6.2-19.9a69.1 69.1 0 0 0 -0.9 -8.35c-0.27-5.88-0.62-11.7-1.44-17.4-0.41-2.79-0.92-5.54-1.5-8.26a21.2 21.2 0 0 0 -1.13 -5.07c-0.78-3.31-1.59-6.58-2.38-9.84a15.9 15.9 0 0 0 -4.64 -8.35 37.8 37.8 0 0 0 -10.9 -12c-11.9-8.31-26.1-12.9-39.1-17.8s-26.8-7.87-40.2-11.8c-26.4-7.73-51.3-20.4-76.3-32.9-12.8-6.41-25.7-12.8-38.8-18.5s-27-11.9-40.6-14.2c-18.8-3.1-40.7 2.5-57.1 20.2-8.7 6.3-16.8 15.7-19.4 29.4a25.7 25.7 0 0 0 -2 6.49c-5 29.4 5.4 53.8 18.8 71.2 6.43 8.29 13.6 15.5 19.5 24.7 5.42 8.49 8.12 19.4 11.5 29.9 4.06 12.8 9.72 22.8 18.2 29.8 8.25 6.89 18.3 10.3 27.9 13.1a110 110 0 0 0 32 4.23c11-0.1 21.9-2.28 33-3.92 21.2-3.17 38.9 8.62 56.1 21.6 17.7 13.3 30.6 12.6 49 24.2 17 10.7 19.8 9 39.3 9.23 18.7 0.26 31 11 47.3-7.88 11-12 20-16 19-32z"/>
<path class="cls-4" d="m85.5 0a79.2 79.2 0 0 0 -40.6 11.2l8.2 13.8a63.4 63.4 0 0 1 22.3 -8.17h0.05 0.19 0.19 0.14 0.05 0.14 0.06 0.14 0.06 0.14 0.05 0.18 0.14 0.1 0.18 0.14 8.1v-16.8zm-62.4 28.7a60.6 60.6 0 0 0 -19.6 32.9 40.7 40.7 0 0 0 -1.33 3.93l15.4 4.35v-0.07a23.7 23.7 0 0 1 1.15 -3.09v-0.68-0.12-0.06-0.12-0.06-0.12-0.12 0.1-0.13-0.06-0.12-0.06-0.13-0.06-0.13a44.7 44.7 0 0 1 13.5 -22.3l0.12-0.11 0.08-0.07 0.08-0.07 0.08-0.07 0.08-0.07-9.7-12.8zm-7.13 66l-16 1.4a104 104 0 0 0 10.9 38.4l14.3-7.17a92.3 92.3 0 0 1 -5.35 -13.1v-0.06-0.06l-0.12-0.37v-0.05-0.05-0.05-0.05-0.05-0.05l-0.07-0.24v-0.46-0.08-2-0.13-0.05-0.36-0.06l-0.06-0.21v-0.06-0.06-0.06-0.06-0.06l-0.1-0.35v-0.07-0.07-0.07a85.7 85.7 0 0 1 -2.71 -15.5zm23 53.3-12.3 10c1.37 1.66 2.75 3.28 4.08 4.85a134 134 0 0 1 11 14.2 36.2 36.2 0 0 1 2.49 4.7l14.6-6.55v-0.27-0.05q-0.87-1.64-1.86-3.19v-0.06-0.05-0.06-0.06-0.05l-0.08-0.13v-0.06-0.06l-0.09-0.13v-0.06l-0.09-0.13v-0.06-0.06l-0.09-0.13v-0.06l-0.13-0.2a138 138 0 0 0 -9.3 -12v-0.06l-0.09-0.11-3.5-4.14v-0.06q-3.6-7-4.6-8zm27.9 51.1-15.2 4.93c5 16 12.3 27 22.1 36l10.5-12.1a49.6 49.6 0 0 1 -9.81 -11.8l-0.07-0.12-0.07-0.12-0.56-0.94v-0.06-0.06-0.06-0.05-0.05-0.05-0.05-0.05-0.05-0.06-0.06-0.06l-0.27-0.48v-0.06-0.06-0.05-0.05-0.05-0.06l-0.16-0.31v-0.06-0.06-0.06l-0.11-0.23v-0.05-0.05-0.06l-0.25-0.57v-0.06-0.06-0.06-0.05-0.05-0.05-0.05-0.05-0.06-0.06-0.06-0.06-0.06q-1.51-3.6-2.78-7.56zm39.3 40.3-5.05 15.2c2.1 0.7 4.38 1.4 7.18 2.22a124 124 0 0 0 30.6 4.8l0.53-16a109 109 0 0 1 -22.6 -3.06l-0.41-0.1h-0.06l-0.25-0.06h-1-0.19-0.21-0.14-0.27-0.13-0.29-0.07-1.08-0.05-0.35-0.05-0.3-0.05c-2.19-0.64-4.4-1.31-6.61-2zm78.6 1.83a47.3 47.3 0 0 0 -7 0.52l-3 0.46h-0.29c-3.1 0.49-6.2 1-9.29 1.46h-1l-0.54 0.08 2.37 15.8c2.22-0.33 4.44-0.69 6.67-1s4.51-0.72 6.73-1a31.5 31.5 0 0 1 4.63 -0.35 33.4 33.4 0 0 1 9 1.27l4.26-15.4q-1.53-0.42-3.08-0.75h-11zm35.7 12.6-8.71 13.4c4.4 2.86 8.78 6.09 12.5 8.87a95.4 95.4 0 0 0 18 10.7l7-15h-0.09-0.09-0.09-0.09-2.44-0.05-0.08-0.05-0.08a78.8 78.8 0 0 1 -9.4 -5.73l-0.15-0.11-0.09-0.06h-0.06l-0.09-0.06h-0.05l-0.09-0.06c-1.83-1.38-3.66-2.74-5.5-4.07h-0.05l-0.1-0.07c-2.46-1.78-4.94-3.5-7.45-5.12zm51.6 27.9-6.7 14.5a77.3 77.3 0 0 1 8.94 4.84c9.19 5.79 16.7 9.65 26 11l2.29-15.8a34.6 34.6 0 0 1 -11.1 -3.69h-0.1-0.06-0.1-0.06-0.06-0.1-0.06-0.06-0.06-0.06-0.07-0.05-0.05-0.14-0.06-4.06-0.07-0.07-0.07-0.07-0.07-0.07-0.07-0.07-0.07-0.07-0.07-0.06-0.07l-0.11-0.07-0.12-0.07h-0.07l-0.11-0.06-0.11-0.07-0.12-0.07-0.12-0.07-0.11-0.06h-0.06-0.06-0.07l-0.1-0.06h-10.4l-0.1-0.05-0.1-0.05-0.15-0.08-0.1-0.05-0.2-0.11-0.2-0.11c-1.18-0.62-2.34-1.2-3.48-1.74l-0.14-0.07h-0.37l-0.11-0.05h-0.08zm88.6 14.9a22.8 22.8 0 0 1 -10.4 3.33h-4.19-0.54-0.18c-5.4-0.45-11-2-17.3-2.72h-0.21-0.15-0.17l-1.76 15.9c2.54 0.28 5.07 0.75 7.75 1.25a78.4 78.4 0 0 0 14.7 1.75 38.9 38.9 0 0 0 18 -6l-8.28-13.7zm43.1-49.3-16 0.82c0.13 2.52 0.21 5.46 0.31 9v0.45 0.18c-0.09 10-4 15.1-9.52 20.7l11.5 11.2c7-7.23 14.5-16.4 14-33.8-0.1-3.83-0.19-6.75-0.32-9.38zm-31.7-56-14.1 7.54v0.06c0.31 0.58 0.64 1.18 1 1.79q1.54 2.77 3.26 5.32a57.4 57.4 0 0 0 9 10h0.15l0.06 0.06a33.7 33.7 0 0 1 4.55 5.27c0.43 0.6 0.87 1.22 1.33 1.88l0.11 0.15 0.3 0.43 13.1-9.2-0.4-0.57a55.1 55.1 0 0 0 -8 -10 41.4 41.4 0 0 1 -7 -7.79c-0.92-1.38-1.78-2.78-2.56-4.17q-0.48-0.86-0.92-1.68zm-10-56l-9.68 3.49-5.52 1.3 0.14 0.6a21.2 21.2 0 0 1 1.13 5.07c0.57 2.73 1.09 5.48 1.5 8.26 0.82 5.64 1.17 11.5 1.44 17.4v0.52q0.11 0.71 0.22 1.43v0.17 0.14l15.8-2.15c-0.08-0.59-0.17-1.18-0.26-1.78-0.26-5.47-0.63-11.7-1.55-18-0.39-2.65-0.88-5.44-1.52-8.52a36.6 36.6 0 0 0 -1.89 -7.94l-9.68 3.49 9.68-3.49zm-48-50l-6.05 14.8a113 113 0 0 1 18.3 9.23h0.06 0.07 0.07 0.07l0.11 0.07h0.06 0.06 0.05 0.05 0.05 0.05 0.05 0.05 0.05 0.06 0.06 0.06 0.06 0.06 0.06 0.06 0.06 0.06l0.32 0.24a36.6 36.6 0 0 1 6.69 6.52l12.5-10a52.4 52.4 0 0 0 -11 -10.3 120 120 0 0 0 -20 -10.7zm-57.8-18.6-4.39 15.4q2.57 0.73 5.15 1.43h0.16 0.15 0.15 0.11 0.07 0.09 0.08 0.08l3.07 0.83h0.12l1.67 0.45 3 0.81h0.06 0.07 0.08c3.37 0.91 6.75 1.84 10.1 2.82h0.08 0.07 0.06 0.06 0.06 0.06 0.06 0.16 0.08 0.06 0.24 0.05 0.06 0.06 0.06 0.06q3.41 1 6.79 2.15l7-14.2c-7.62-2.56-15.2-4.6-22.6-6.58-3.55-1-7.23-1.94-10.8-2.95zm-52.2-20.8-6.94 14.4 1.38 0.66l0.14 0.07h0.06 0.08 0.07 0.1c9.62 4.6 19.3 9 29.2 12.8l5.83-14.9c-8.84-3.46-18.4-7.67-30-13.3zm-53-26l-6.72 14.5c9.75 4.51 19.4 9.31 29.1 14.1l0.22 0.11 1 0.49 1 0.2 7.15-14.3-1.5-0.75c-10.4-5.18-19.8-9.83-29.5-14.3zm-61-20.4l-1.13 16q2.74 0.19 5.4 0.63h4.85 0.07 0.08 0.08 0.08 0.08 0.09 0.07 0.09 0.07 0.08 0.08 1 0.07 0.09 0.08 0.09 0.07 0.09 0.08 0.08 0.08 0.08 0.08 1 0.08 0.08 0.09 0.08 0.08 0.07 0.09 0.14 0.14 0.14 0.14 0.14 0.14 0.14 0.14 0.14 0.14 0.14 0.14 0.14 0.14 0.14 0.14 0.09 0.07 0.14 0.08 0.08 0.08 0.08 0.14 0.08 0.08 0.07 0.09 0.06 0.09 0.06 0.1 0.05 0.27 0.05 0.11 0.05 0.11 0.05 0.27 0.05 0.42 0.05 0.27 0.05 0.26 0.06 0.1 0.06 0.1 0.06 0.06 0.1 0.06 0.1 0.05 0.1 0.06 0.05 0.07 0.06 0.07 0.05 0.06 0.05 0.06 0.06 0.07 0.06 0.06 0.06 0.07 0.06 0.07 0.06 0.07 0.06 0.07 0.07 0.07 0.07 0.07 0.07 0.07 0.14 0.14 0.15l0.15 0.05 0.15 0.05 0.15 0.05 0.15 0.05 0.15 0.05 0.15 0.05 0.15 0.05 0.15 0.05 0.15 0.05 0.16 0.05 0.16 0.06c2.85 1 5.69 2.12 8.51 3.27l6-14.8c3 1.6-7-2.4-19-4.4-2.3-0.36-4.7-0.64-7-0.81z"/>
<path d="m348 281l-65.9 40.4a3 3 0 0 1 -3.07 0.29l-52-30c-1.23-0.71-0.73-3 0.86-3.95l65-39.9a4.08 4.08 0 0 1 4.14 -0.4l52 30c1 1 1 3-1 4z"/>
<path class="cls-2" d="m273 316l-0.53-0.28-44-26-0.32-0.44c-6.36-9.9-0.54-15.4 0.14-16a2.13 2.13 0 0 1 1.39 -0.52h0.51l0.53 0.28 44.7 25.9a2.12 2.12 0 0 1 1.05 1.83v12.5a2.11 2.11 0 0 1 -2.11 2.11z"/>
<path d="m229 275h0.09l44.7 25.9a0.17 0.17 0 0 1 0.08 0.15v12.5a0.17 0.17 0 0 1 -0.17 0.17h-0.08l-44.5-25.1-0.06-0.05c-0.38-0.58-5.53-8.83-0.2-13.5a0.18 0.18 0 0 1 0.12 0m0-3.89a4.06 4.06 0 0 0 -2.67 1c-3.32 2.89-4.48 7.2-3.26 12.1a22.8 22.8 0 0 0 2.74 6.39 4.07 4.07 0 0 0 1.41 1.33l44.5 25.1a4.06 4.06 0 0 0 6.05 -3.53v-12.5a4.07 4.07 0 0 0 -2 -3.51l-45-26a4.06 4.06 0 0 0 -2 -0.55z"/>
<polygon points="274 314 338 275 338 260 274 301" class="cls-2"/>
<path class="cls-2" d="m274 303v11a0.17 0.17 0 0 1 -0.25 0.15l-44-25a2.9 2.9 0 0 1 -1.11 -1.11c-1.16-2.07-4-8.13-0.44-12.1a0.4 0.4 0 0 1 0.49 -0.07l45 26.1a5.47 5.47 0 0 1 0 1z"/>
<polygon points="230 287 231 290 231 284" class="cls-1"/>
<polygon points="235 279 235 275 234 273 233 277" class="cls-1"/>
<polygon points="241 282 235 275 235 279" class="cls-1"/>
<polygon points="231 284 233 277 232 277" class="cls-1"/>
<path class="cls-1" d="m229 275h-0.09l1.82 1z"/>
<polygon points="235 274 234 273 235 275" class="cls-2"/>
<path d="m348 264l-65.9 40.4a3 3 0 0 1 -3.07 0.29l-49.8-28.7a1.28 1.28 0 0 0 -1.69 0.35c-3.23 4.73 1.06 11.6 1.4 12.1h0.06l0.54 0.3-0.54 2.26a1.3 1.3 0 0 1 -1.9 0.83 4.16 4.16 0 0 1 -1.42 -1.33c-2.76-4.3-5.77-13 0.52-18.5 0.28-0.24 1.39-1.1 1.69-1.29l65-39.9a4.09 4.09 0 0 1 4.14 -0.4l53 31c1 0 1 3-1 3z"/>
<path class="cls-2" d="m33.9 87.2l-0.54 0.4q0.26 0.35 1.34 0.2l-0.1-0.7z"/>
<path class="cls-2" d="m71.1 67.1l-0.15 0.19c-0.18 0.22-0.14 0.44 0.11 0.63 0.1-0.13 0.2-0.15 0.3-0.07a1.83 1.83 0 0 1 -0.26 0.71l0.19 0.15 0.15-0.19a1.09 1.09 0 0 0 -0.3 -1.5z"/>
<path class="cls-2" d="m130 91l-0.71 0.9q1.41 0.69 2.63-0.85l0.24-0.3q0-0.3-2 0.3z"/>
<path class="cls-2" d="m106 46.6a3.26 3.26 0 0 1 -0.47 1.21l0.65 0.51c0.1-0.34 0.22-0.67 0.34-1z"/>
<path class="cls-2" d="m128 53.5a6.73 6.73 0 0 1 2.12 -0.21q0.34-0.59 0-0.88l-0.49-0.39a3.12 3.12 0 0 1 -2.1 0.72l-0.18 0.23 0.67 0.16v0.4z"/>
<path class="cls-2" d="m158 160q-0.34-0.46-1.66-0.32l0.74 1a3.69 3.69 0 0 1 1.09 -0.45z"/>
<path class="cls-1" d="m189 175a3.27 3.27 0 0 1 0.73 -1 0.68 0.68 0 0 0 -1.07 -0.16q-0.6 0.56-0.2 1.1z"/>
<path class="cls-1" d="m168 187l0.43 0.58 0.58-0.43q-0.68-0.92 0-1.41l-0.23-0.31-0.92 0.68z"/>
<path class="cls-2" d="m239 235a0.79 0.79 0 0 0 -0.52 1l0.88 1.74a2.94 2.94 0 0 0 -0.06 1.21l0.37-0.1 0.68-0.59a17.5 17.5 0 0 1 -1 -3z"/>
<rect transform="translate(-69.4 142) rotate(-36.5)" height=".96" width=".53" y="175" x="180" class="cls-2"/>
<path class="cls-2" d="m133 142l0.2 0.27a2.24 2.24 0 0 1 1.33 -0.21l0.27-0.2q0.42-0.31 0.05-0.81l-1.39 0.61z"/>
<path class="cls-2" d="m334 230l0.2 0.27a2.24 2.24 0 0 1 1.33 -0.21l0.27-0.2q0.42-0.31 0.05-0.81l-1.39 0.61z"/>
<path class="cls-2" d="m114 187l-0.54 0.4q0.26 0.35 1.34 0.2l-0.1-0.7z"/>
<path class="cls-2" d="m305 187l-0.54 0.4q0.26 0.35 1.34 0.2l-0.1-0.7z"/>
<path class="cls-2" d="m80.9 135q0.46-0.34 0.32-1.66l-1 0.74a3.69 3.69 0 0 1 0.45 1.09z"/>
<path class="cls-2" d="m230 112l-0.15 0.11 0.28 0.38a1.53 1.53 0 0 1 0.68 -0.21l-0.14-0.19q-1 0-1 0z"/>
<path class="cls-2" d="m268 142l0.64-0.18 0.23-0.17-0.51-0.69-0.23 0.17a0.58 0.58 0 0 0 0 1z"/>
</g>
</g>
</svg>
