<svg xmlns="http://www.w3.org/2000/svg" xmlns:xlink="http://www.w3.org/1999/xlink" viewBox="0 0 404.25 322.1"><defs><style>.cls-1{fill:none;}.cls-2{fill:#fff;}.cls-3{fill:#80d692;}.cls-4{fill:url(#New_Pattern_2);}</style><pattern id="New_Pattern_2" data-name="New Pattern 2" width="105" height="70" patternUnits="userSpaceOnUse" viewBox="0 0 105 70"><rect class="cls-1" width="105" height="70"/><path class="cls-2" d="M81.45,68.86V69h.41a1.3,1.3,0,0,1,.2-.57h-.2Q81.45,68.54,81.45,68.86Z"/><path class="cls-2" d="M99,68.94h1.3v-.38l-.46-.31H99Z"/><path d="M102,62.87c0-.46-.22-.69-.65-.69l-.37.69v.37h1Z"/><path class="cls-2" d="M100.31,68.25h-.46l.46.31Z"/><path d="M95.8,68.64l.2-.53v-.24h-.73v.24C95.3,68.46,95.48,68.64,95.8,68.64Z"/><path d="M2.53,56.77h1q-.28-1.3-2-1.3H1.23Q1.23,56,2.53,56.77Z"/><polygon points="5.52 68.25 4.87 67.93 4.22 68.94 4.87 69.31 5.52 68.25"/><path d="M8.16,67.93q-.29,0-.29.33a4.17,4.17,0,0,0-2-.61q0,.81,2.6,1.3h.69Q9.18,68.46,8.16,67.93Z"/><path d="M27.26,68.44a2.77,2.77,0,0,1,1.06-.32v-.7l-.86.3Z"/><rect class="cls-2" x="15.03" y="64.49" width="0.45" height="0.81"/><path class="cls-2" d="M7.79,68.39c0,.33.19.49.49.49h.24V68.6a1.89,1.89,0,0,1-.24-.73A.47.47,0,0,0,7.79,68.39Z"/><path class="cls-2" d="M16.82,60.91v-.29h-.53v.73C16.64,61.36,16.82,61.21,16.82,60.91Z"/><path class="cls-2" d="M12.18,58.07h.49v-.29q0-.36-.77-.81h-.53Q11.82,58.07,12.18,58.07Z"/><path class="cls-2" d="M12.18,61.36h-.53l-.28,1.1Q11.82,62.46,12.18,61.36Z"/><path class="cls-2" d="M19.13,62.17v-.24H18.4q-.41,0-.81.77l.53.24Q19.13,62.54,19.13,62.17Z"/><path class="cls-2" d="M7,57.78v.53q.37,0,.81-.77v-.28H7.51C7.16,57.34,7,57.51,7,57.78Z"/><path class="cls-2" d="M2.59,61.93H1.82v.77Q2.22,62.7,2.59,61.93Z"/><path class="cls-2" d="M8,61.93H6.49v.24q.16,0,1.54.29Z"/><path class="cls-2" d="M4.66,61.65q0,.37.77.81h.24a.47.47,0,0,0,.53-.53l-.53-.28Z"/><path d="M21,62.7h.73l1.3-.24v-.53q0-.24-1.79-1.58c0,.19-.08.28-.24.28l.24.53v1Z"/><path d="M27.67,62.95h.24a1.87,1.87,0,0,1,.77-.24v-.53h-.24Q28.08,62.17,27.67,62.95Z"/><path class="cls-2" d="M88.49,2.6q0-.49-1-1.06V2.6a3.14,3.14,0,0,1,1,.24Z"/><path class="cls-2" d="M90.42,16.32l.37-.69v-.33h-1v.33Q89.89,16.32,90.42,16.32Z"/><path class="cls-2" d="M103.28,3.21c0-.33-.43-.65-1.3-1q-2,.77-2,1.3a2.11,2.11,0,0,1,1,.37A19.92,19.92,0,0,1,103.28,3.21Z"/><path class="cls-1" d="M104.62,3.54l.6-.12-.46-.59h-.15Z"/><path class="cls-1" d="M103.61,6.83a2.78,2.78,0,0,1,1-.33.58.58,0,0,0-.65-.65c-.46.05-.69.27-.69.65A.29.29,0,0,1,103.61,6.83Z"/><path class="cls-2" d="M89.5,12.11a2.07,2.07,0,0,1,.94-.37q0-.73-2.93-1.3v.37A2.16,2.16,0,0,0,89.5,12.11Z"/><path class="cls-1" d="M83.44,4.53v.61h.61q0-1,.69-1V3.84h-1Z"/><path class="cls-2" d="M88.18,15.63v-.33H87.12v1h.37A.61.61,0,0,0,88.18,15.63Z"/><path class="cls-2" d="M88.81,6.5c.08.43.31.65.69.65l1.63-.33a2.5,2.5,0,0,0,1,.33V6.83l-.33-.69A14.86,14.86,0,0,1,88.81,6.5Z"/><path d="M99.48,10h.65q.45,0,1-1.06l-.37-.61A1.6,1.6,0,0,0,99.48,10Z"/><path d="M89.95,8q-.61.12-.61.65v.65l2,.33.28-.69L90.27,8Z"/><path d="M106.29,3.21,106,2.6a3.77,3.77,0,0,1-1.2.23l.46.59Z"/><path class="cls-2" d="M104.26,6.65H104c-.38,0-.57.2-.57.53v.49h.28c.35,0,.53-.16.53-.49a.22.22,0,0,1-.24-.24C104.18,6.93,104.26,6.84,104.26,6.65Z"/><path class="cls-2" d="M102.71,2.78l-.28.49h.77A.43.43,0,0,0,102.71,2.78Z"/><path class="cls-2" d="M102.18,12.58l.24-.53v-1.3l1-.24V10a4.42,4.42,0,0,0-3.29,1.75A6.07,6.07,0,0,0,102.18,12.58Z"/><path class="cls-2" d="M36,37.6q0-.49-1-1.06V37.6a3.14,3.14,0,0,1,1,.24Z"/><path class="cls-2" d="M29,33.86V34h.41a1.3,1.3,0,0,1,.2-.57h-.2Q29,33.54,29,33.86Z"/><path class="cls-2" d="M67,53.35q0,.28.57.61l.2-.41-.41-.2Z"/><path class="cls-2" d="M63.22,54l.41-.61-1.75-.16A1.3,1.3,0,0,0,63.22,54Z"/><path class="cls-2" d="M37.92,51.32l.37-.69v-.33h-1v.33Q37.39,51.32,37.92,51.32Z"/><path class="cls-2" d="M46.51,33.94h1.3v-.38l-.46-.31h-.84Z"/><path class="cls-2" d="M50.78,38.21c0-.33-.43-.65-1.3-1q-2,.77-2,1.3a2.11,2.11,0,0,1,1,.37A19.92,19.92,0,0,1,50.78,38.21Z"/><path class="cls-1" d="M52.12,38.54l.6-.12-.46-.59h-.15Z"/><path class="cls-1" d="M51.11,41.83a2.78,2.78,0,0,1,1-.33.58.58,0,0,0-.65-.65c-.46.05-.69.27-.69.65A.29.29,0,0,1,51.11,41.83Z"/><path class="cls-2" d="M37,47.11a2.07,2.07,0,0,1,.94-.37q0-.73-2.93-1.3v.37A2.16,2.16,0,0,0,37,47.11Z"/><path class="cls-1" d="M30.94,39.53v.61h.61q0-1,.69-1v-.33h-1Z"/><path class="cls-2" d="M66.47,51v.33a.66.66,0,0,0,.69.61h.93q.69,0,.69-.61l-1.38-.69A2.07,2.07,0,0,1,66.47,51Z"/><path class="cls-2" d="M35.68,50.63v-.33H34.62v1H35A.61.61,0,0,0,35.68,50.63Z"/><path class="cls-2" d="M36.31,41.5c.08.43.31.65.69.65l1.63-.33a2.5,2.5,0,0,0,1,.33v-.33l-.33-.69A14.86,14.86,0,0,1,36.31,41.5Z"/><rect x="56.53" y="47.73" width="1.3" height="0.61"/><path d="M47,45h.65q.45,0,1-1.06l-.37-.61A1.6,1.6,0,0,0,47,45Z"/><path d="M37.45,43q-.61.12-.61.65v.65l2,.33.28-.69L37.77,43Z"/><path d="M67.31,44.88l-.69-.37h-.28c-.46.11-.69.34-.69.69v.28a2.26,2.26,0,0,1,1,.33Z"/><path d="M55,21.77h1q-.28-1.3-2-1.3h-.33Q53.73,21,55,21.77Z"/><polygon points="58.02 33.25 57.37 32.93 56.72 33.94 57.37 34.31 58.02 33.25"/><path d="M49.54,27.87c0-.46-.22-.69-.65-.69l-.37.69v.37h1Z"/><path d="M60.66,32.93q-.29,0-.29.33a4.17,4.17,0,0,0-2-.61q0,.81,2.6,1.3h.69Q61.68,33.46,60.66,32.93Z"/><path d="M79.76,33.44a2.77,2.77,0,0,1,1.06-.32v-.7l-.86.3Z"/><path d="M63.67,36.91l-.37.69h1Q64.28,36.91,63.67,36.91Z"/><path class="cls-2" d="M47.81,33.25h-.46l.46.31Z"/><path d="M53.79,38.21l-.33-.61a3.77,3.77,0,0,1-1.2.23l.46.59Z"/><rect class="cls-2" x="67.53" y="29.49" width="0.45" height="0.81"/><path class="cls-2" d="M60.29,33.39c0,.33.19.49.49.49H61V33.6a1.89,1.89,0,0,1-.24-.73A.47.47,0,0,0,60.29,33.39Z"/><path class="cls-2" d="M69.32,25.91v-.29h-.53v.73C69.14,26.36,69.32,26.21,69.32,25.91Z"/><path class="cls-2" d="M52.53,54.29v.28c.05.35.23.53.53.53v-.29A.47.47,0,0,0,52.53,54.29Z"/><path class="cls-2" d="M64.68,23.07h.49v-.29q0-.36-.77-.81h-.53Q64.32,23.07,64.68,23.07Z"/><path class="cls-2" d="M64.68,26.36h-.53l-.28,1.1Q64.32,27.46,64.68,26.36Z"/><path class="cls-2" d="M51.76,41.65h-.24c-.38,0-.57.2-.57.53v.49h.28c.35,0,.53-.16.53-.49a.22.22,0,0,1-.24-.24C51.68,41.93,51.76,41.84,51.76,41.65Z"/><path class="cls-2" d="M71.63,27.17v-.24H70.9q-.41,0-.81.77l.53.24Q71.63,27.54,71.63,27.17Z"/><path class="cls-2" d="M50.21,37.78l-.28.49h.77A.43.43,0,0,0,50.21,37.78Z"/><path class="cls-2" d="M49.68,47.58l.24-.53v-1.3l1-.24V45a4.42,4.42,0,0,0-3.29,1.75A6.07,6.07,0,0,0,49.68,47.58Z"/><path class="cls-2" d="M59.48,22.78v.53q.37,0,.81-.77v-.28H60C59.66,22.34,59.48,22.51,59.48,22.78Z"/><path class="cls-2" d="M67.24,43.68l-.29.53v.53h.29a.53.53,0,0,0,0-1.06Z"/><path class="cls-2" d="M64.4,47.87q-.16,0-1.26-1.3c-.38.05-.57.22-.57.49v.53q.61,0,1.58,1h.24l-.24-.53C64.32,48.07,64.4,48,64.4,47.87Z"/><path class="cls-2" d="M72.16,45q0,.37.77.73h.77L74,44.49h-.24A2.18,2.18,0,0,1,72.16,45Z"/><path class="cls-2" d="M59.77,48.07v.29q.08.53.53.53h.49v-1a1.69,1.69,0,0,1-.77-.29Z"/><path class="cls-2" d="M76,44.74l-.24.49a.54.54,0,0,0,.37.5v-1Z"/><path class="cls-2" d="M55.62,49.41l-.53.73v.28l.24.49a1.4,1.4,0,0,0,1.1-1Z"/><path class="cls-2" d="M55.09,26.93h-.77v.77Q54.72,27.7,55.09,26.93Z"/><path class="cls-2" d="M55.09,35.71H54.6q-.57,0-.81,1.26h.81l.73-.53A1.88,1.88,0,0,1,55.09,35.71Z"/><path class="cls-2" d="M57.94,54.57v.53h-.77l-1-.81v.28a3.69,3.69,0,0,0,2,1,.25.25,0,0,1,.29-.28,1.69,1.69,0,0,1-.29-.73Z"/><path class="cls-2" d="M60.54,26.93H59v.24q.16,0,1.54.29Z"/><path class="cls-2" d="M57.16,26.65q0,.37.77.81h.24a.47.47,0,0,0,.53-.53l-.53-.28Z"/><path d="M43.3,33.64l.2-.53v-.24h-.73v.24C42.8,33.46,43,33.64,43.3,33.64Z"/><path d="M77.85,54v.28a1.9,1.9,0,0,1,1,.53h.28q.45,0,.45-.53L78.34,54Z"/><path d="M76.15,45.73l.16,0c.33,0,.49-.18.49-.53h-.49V45H77v-.28h-.89Z"/><path d="M73.46,27.7h.73l1.3-.24v-.53q0-.24-1.79-1.58c0,.19-.08.28-.24.28l.24.53v1Z"/><path d="M80.17,27.95h.24a1.87,1.87,0,0,1,.77-.24v-.53h-.24Q80.58,27.17,80.17,27.95Z"/><path class="cls-2" d="M14.46,18.35q0,.28.57.61l.2-.41-.41-.2Z"/><path class="cls-2" d="M10.72,19l.41-.61-1.75-.16A1.3,1.3,0,0,0,10.72,19Z"/><path class="cls-1" d="M-.38,3.54l.6-.12-.46-.59H-.38Z"/><path class="cls-2" d="M14,16v.33a.66.66,0,0,0,.69.61h.93q.69,0,.69-.61l-1.38-.69A2.07,2.07,0,0,1,14,16Z"/><rect x="4.03" y="12.73" width="1.3" height="0.61"/><path d="M14.81,9.88l-.69-.37h-.28c-.46.11-.69.34-.69.69v.28a2.26,2.26,0,0,1,1,.33Z"/><path d="M11.17,1.91l-.37.69h1Q11.78,1.91,11.17,1.91Z"/><path d="M1.29,3.21,1,2.6a3.77,3.77,0,0,1-1.2.23l.46.59Z"/><path class="cls-2" d="M0,19.29v.28c.05.35.23.53.53.53v-.29A.47.47,0,0,0,0,19.29Z"/><path class="cls-2" d="M14.74,8.68l-.29.53v.53h.29a.47.47,0,0,0,.53-.53A.47.47,0,0,0,14.74,8.68Z"/><path class="cls-2" d="M11.9,12.87q-.16,0-1.26-1.3c-.38.05-.57.22-.57.49v.53q.61,0,1.58,1h.24l-.24-.53C11.82,13.07,11.9,13,11.9,12.87Z"/><path class="cls-2" d="M19.66,10q0,.37.77.73h.77l.24-1.26h-.24A2.18,2.18,0,0,1,19.66,10Z"/><path class="cls-2" d="M7.27,13.07v.29q.08.53.53.53h.49v-1a1.69,1.69,0,0,1-.77-.29Z"/><path class="cls-2" d="M23.53,9.74l-.24.49a.54.54,0,0,0,.37.5v-1Z"/><path class="cls-2" d="M3.12,14.41l-.53.73v.28l.24.49a1.4,1.4,0,0,0,1.1-1Z"/><path class="cls-2" d="M2.59.71H2.1Q1.53.71,1.29,2H2.1l.73-.53A1.88,1.88,0,0,1,2.59.71Z"/><path class="cls-2" d="M5.44,19.57v.53H4.66l-1-.81v.28a3.69,3.69,0,0,0,2,1A.25.25,0,0,1,6,20.31a1.69,1.69,0,0,1-.29-.73Z"/><path d="M25.35,19v.28a1.9,1.9,0,0,1,1,.53h.28q.45,0,.45-.53L25.84,19Z"/><path d="M23.65,10.73l.16,0c.33,0,.49-.18.49-.53h-.49V10h.73V9.74h-.89Z"/></pattern></defs><title>markt-vast</title><g id="Layer_2" data-name="Layer 2"><g id="PROGRAMMA"><path class="cls-3" d="M388.24,257.19c-.46-16.84-.62-20.13-6.82-28.5-3.89-5.25-5.42-8.23-9.33-11.69a57.36,57.36,0,0,1-9.72-10.85q-1.71-2.55-3.26-5.32c-3.61-6.5-5.79-11.28-6.2-19.87a69.12,69.12,0,0,0-.9-8.35c-.27-5.88-.62-11.74-1.44-17.38-.41-2.79-.92-5.54-1.5-8.26a21.21,21.21,0,0,0-1.13-5.07c-.78-3.31-1.59-6.58-2.38-9.84a15.9,15.9,0,0,0-4.64-8.35,37.83,37.83,0,0,0-10.91-12c-11.89-8.31-26.1-12.94-39.11-17.77s-26.76-7.87-40.15-11.8c-26.35-7.73-51.33-20.43-76.32-32.9-12.85-6.41-25.71-12.79-38.78-18.5S109.31,19.12,95.41,16.81C76.64,13.7,54.71,19.33,38.33,37,29.58,43.31,21.46,52.67,18.89,66.4a25.67,25.67,0,0,0-2,6.49c-5,29.41,5.4,53.79,18.85,71.15,6.43,8.29,13.62,15.5,19.48,24.67,5.42,8.49,8.12,19.41,11.46,29.89,4.06,12.76,9.72,22.77,18.18,29.83,8.25,6.89,18.34,10.29,27.92,13.09a109.92,109.92,0,0,0,32,4.23c11-.1,21.91-2.28,33-3.92,21.25-3.17,38.87,8.62,56.08,21.58,17.67,13.3,30.61,12.61,49,24.2,17,10.69,19.79,9,39.33,9.23,18.7.26,31,10.95,47.33-7.88C379.67,277.29,388.68,273.36,388.24,257.19Z"/><path class="cls-4" d="M85.46,0A79.19,79.19,0,0,0,44.89,11.24L53.09,25a63.39,63.39,0,0,1,22.34-8.17h.05l.19,0h0l.19,0h0l.14,0h.05l.14,0h.06l.14,0h.06l.14,0h.05l.18,0h0l.14,0H77l.18,0h0l.14,0h8.1V0ZM23.08,28.73A60.64,60.64,0,0,0,3.53,61.64a40.72,40.72,0,0,0-1.33,3.93l15.4,4.35h0v0h0v0h0v0h0v0h0v0h0l0-.07h0v0h0v0h0v0h0a23.73,23.73,0,0,1,1.15-3.09h0v0h0v0h0v-.06h0v-.06h0V66.2h0v-.06h0v-.06h0V66h0v-.06h0v-.06h0v-.06h0v-.06h0l0-.12h0v-.06h0l0-.12h0v-.06h0l0-.12h0v-.06h0v-.06h0V65h0l0-.13h0v-.06h0l0-.12h0v-.06h0l0-.13h0v-.06h0l0-.13h0A44.71,44.71,0,0,1,32.29,42h0l.12-.11h0l.08-.07h0l0,0h0l.08-.07h0l0,0h0l.08-.07h0l0,0h0l.08-.07h0l0,0h0l0,0h0l0,0h0l0,0h0l0,0h0l0,0h0l0,0h0l0,0h0l0,0h0l0,0h0l0,0h0l0,0h0l0,0h0l0,0h0l0,0h0l0,0h0l0,0h0l0,0h0l0,0h0l0,0h0l0,0,0,0,0,0h0L23.08,28.73Zm-7.13,66L0,96.06a104.25,104.25,0,0,0,10.88,38.37l14.3-7.17a92.26,92.26,0,0,1-5.35-13.06h0l0-.06h0l0-.06h0l-.12-.37h0l0-.05h0l0-.05h0l0-.05h0l0-.05v0l0-.05h0l0-.05h0l-.07-.24h0v-.46l0-.08V112l0-.13v0l0-.05v-.36l0-.06h0l-.06-.21h0l0-.06h0l0-.06h0l0-.06h0l0-.06h0l0-.06h0l-.1-.35h0l0-.07h0l0-.07h0l0-.07h0a85.7,85.7,0,0,1-2.71-15.47ZM39,148,26.66,158.22c1.37,1.66,2.75,3.28,4.08,4.85a134,134,0,0,1,11,14.25,36.25,36.25,0,0,1,2.49,4.7l14.6-6.55v0l0,0v0l0,0v0l0,0V175l0,0v0l0,0v0l0,0v0l0,0v0l0,0v0l0,0v0l0,0h0l0,0h0l0,0h0l0,0h0l0,0h0l0,0h0l0,0h0l0,0h0l0,0h0l0,0h0l0,0h0l0,0h0l0,0h0l0,0h0l0,0h0l0,0h0l0,0h0l0,0h0l0,0h0l0,0h0l0,0h0l0,0h0l0,0h0l0,0h0l0,0h0l0,0h0l0,0v0l0,0v0l0,0v0l0,0v0l0,0v0l0,0v0l0,0v0l0,0v0l0,0v0l0,0v-.27l0,0v0l0,0v0l0,0v0l0,0v0l0,0v0l0,0h0l0,0h0l0,0h0l0,0h0l0,0h0l0-.05h0q-.87-1.64-1.86-3.19h0l0-.06v0l0,0v0l0-.05h0l0-.06h0l0-.06h0l0-.05h0l-.08-.13h0l0-.06h0l0-.06h0l-.09-.13h0l0-.06h0l-.09-.13h0l0-.06h0l0-.06h0l-.09-.13h0l0-.06h0l-.13-.2h0a138.15,138.15,0,0,0-9.3-12h0l0-.06h0l-.09-.11,0,0,0,0,0,0h0l-3.5-4.14,0,0,0-.06,0,0,0,0Q40,149.3,39,148Zm27.9,51.1-15.22,4.93C56.74,219.71,64,231.45,73.77,240l10.48-12.09a49.61,49.61,0,0,1-9.81-11.76h0l-.07-.12h0l-.07-.12h0l-.56-.94h0l0-.06h0l0-.06h0l0-.06h0l0-.05h0l0-.05h0l0-.05h0l0-.05h0l0-.05h0l0-.05h0l0-.06h0l0-.06h0l0-.06h0l-.27-.48h0l0-.06h0l0-.06h0l0-.05h0l0-.05h0l0,0h0l0,0h0l0,0v0l0,0v0l0,0v0l0,0v0l0,0v0l0,0v0l0,0h0l0,0h0l0,0h0l0,0v0l0-.05h0l0-.06h0l-.16-.31h0l0-.06h0l0,0h0l0,0v0l0,0v0l0,0v0l0,0v0l0,0v0l0,0v0l0,0v0l0,0v0l0,0v0l0,0v0l0,0v0l0,0v0l0,0v0l0,0v0l0,0v0l0,0v0l0,0v0l0,0v0l0,0h0l0-.06h0l0-.06v0l0,0v0l0,0v0l0,0v0l0,0v0l0,0v0l0,0v0l0,0v0l0,0,0,0,0,0v0l0,0,0,0v0l0,0v0l0,0v0l0,0v0l0,0v0l0,0v0l0,0v0l0,0v0l0,0v0l0,0v0l0,0v0l0,0h0l-.11-.23h0l0-.05h0l0,0v0l0,0v0l0,0v0l0,0v0l0,0v0l0,0v0l0,0v0l0,0v0l0,0v0l0,0v0l0,0v0l0,0v0l0,0v0l0,0v0l0,0v0l0,0h0l0-.05h0l0-.06h0l-.25-.57h0l0-.06h0l0-.06h0l0-.06h0l0-.05h0l0-.05h0l0-.05h0l0-.05h0l0-.05h0l0-.06h0l0-.06h0l0-.06h0l0-.06h0l0-.06h0q-1.51-3.6-2.78-7.56Zm39.32,40.34-5.05,15.18c2.1.7,4.38,1.4,7.18,2.22a124.1,124.1,0,0,0,30.64,4.8l.53-16a109.22,109.22,0,0,1-22.59-3.06h0l-.41-.1h-.06l-.25-.06H116l-.19,0h-.21l-.14,0h-.27l-.13,0h-.29l-.07,0h-1.08l-.05,0h-.35l-.05,0h-.3l-.05,0h0c-2.19-.64-4.4-1.31-6.61-2Zm78.59,1.83a47.32,47.32,0,0,0-7,.52h0l-3,.46h-.29c-3.1.49-6.2,1-9.29,1.46H165l-.54.08,2.37,15.82c2.22-.33,4.44-.69,6.67-1s4.51-.72,6.73-1a31.5,31.5,0,0,1,4.63-.35,33.38,33.38,0,0,1,9,1.27l4.26-15.42q-1.53-.42-3.08-.75H184.81Zm35.71,12.59-8.71,13.42c4.4,2.86,8.78,6.09,12.48,8.87a95.36,95.36,0,0,0,18,10.74L249,272.37l0,0h0l-.09,0h0l0,0h0l-.09,0h0l0,0h0l-.09,0h0l0,0h0l-.09,0h0l0,0h0l0,0h0l0,0h0l0,0h0l0,0h0l0,0h0l0,0h0l0,0h0l0,0h0l0,0h0l0,0h0l0,0h0l0,0h0l0,0h0l0,0h0l0,0h0l0,0h0l0,0h-.05l0,0h0l0,0h0l0,0h0l0,0h0l0,0h0l0,0h0l0,0h0l0,0h0l0,0h0l0,0H247l0,0h-.1l0,0h-.06l0,0h0l0,0h-.06l0,0h0l0,0h0l0,0h-.05l0,0h0l0,0h-.06l0,0h-.06l0,0h0l0,0h0l0,0h0l0,0h0l0,0h0l0,0h0l0,0h0l-.05,0h0l0,0h0l-.08,0h0l-.05,0h0l-.08,0h0a78.82,78.82,0,0,1-9.4-5.73h0l-.15-.11h0l-.09-.06h0l-.06,0h0l-.09-.06h0l-.05,0h0l-.09-.06h0l0,0h0l0,0h0l0,0h0l0,0h0l0,0h0l0,0h0l0,0,0,0,0,0h0l0,0h0l0,0,0,0,0,0,0,0,0,0,0,0,0,0,0,0h0l0,0,0,0,0,0h0l0,0h0l0,0h0l0,0h0l0,0h0l0,0h0l0,0h0l0,0h0l0,0h0l0,0h0l0,0h0l0,0h0l0,0h0l0,0h0c-1.83-1.38-3.66-2.74-5.5-4.07h0l0,0h0l-.05,0h0l-.1-.07h0l0,0,0,0,0,0,0,0,0,0,0,0h0l0,0h0c-2.46-1.78-4.94-3.5-7.45-5.12Zm51.62,27.88-6.7,14.53a77.33,77.33,0,0,1,8.94,4.84c9.19,5.79,16.74,9.65,26,11l2.29-15.83a34.61,34.61,0,0,1-11.1-3.69h0l-.1,0h0l-.06,0h0l-.1,0h0l-.06,0h0l-.06,0h0l-.1,0h0l-.06,0h0l-.06,0h0l0,0h0l-.06,0h0l-.06,0h0l0,0h0l0,0h-.07l0,0h0l0,0h0l0,0h0l-.05,0h0l-.05,0h-.07l0,0h-.07l0,0h0l0,0h0l0,0h0l0,0h0l0,0h0l0,0h0l-.06,0h0l0,0h0l0,0h0l0,0h-.08l0,0h0l0,0h-.32l0,0H289l0,0h-.14l0,0h0l0,0h-.21l0,0h0l0,0h-.08l0,0h0l0,0h0l0,0h0l0,0h0l0,0h0l0,0h0l0,0h0l0,0h0l0,0h-.15l0,0h0l0,0h0l0,0h-.08l0,0h0l0,0h0l0,0h0l0,0h0l0,0h0l0,0h0l0,0h0l0,0h0l0,0h0l0,0h0l0,0h0l0,0h0l0,0h0l0,0h0l0,0h0l0,0h0l0,0h0l0,0h0l0,0h0l0,0h0l0,0h0l0,0h0l0,0h0l-.07,0h0l-.07,0h0l0,0h0l0,0h0l0,0h0l0,0h0l0,0h0l-.07,0h0l0,0h0l-.07,0h0l-.07,0h0l0,0h0l0,0h0l0,0h0l0,0h0l0,0h0l-.07,0h0l0,0h0l0,0h0l0,0h0l0,0h0l0,0h0l-.07,0h0l0,0h0l0,0h0l0,0h0l0,0h0l0,0h0l0,0h0l0,0h0l0,0h0l0,0h0l-.07,0h0l0,0h0l0,0h0l0,0h0l0,0h0l0,0h0l0,0h0l0,0h0l0,0h0l0,0h0l0,0h0l0,0h0l0,0h0l0,0h0l0,0h0l0,0h0l0,0h0l0,0h0l0,0h0l0,0h0l0,0h0l0,0h0l-.07,0h0l0,0h0l0,0h0l0,0h0l0,0h0l0,0h0l0,0h0l0,0h0l0,0h0l0,0h0l0,0h0l0,0h0l0,0h0l0,0h0l0,0h0l0,0h0l0,0h0l0,0h0l-.07,0h0l-.07,0h0l0,0h0l0,0h0l0,0h0l0,0h0l0,0h0l0,0h0l0,0h0l0,0h0l0,0h0l0,0h0l0,0,0,0,0,0,0,0,0,0h0l0,0,0,0h0l0,0h0l0,0h0l0,0h0l-.06,0h0l0,0h0l0,0h0l0,0h0l0,0h0l-.07,0h0l0,0h0l0,0h0l0,0h0l-.11-.07h0l0,0h0l0,0h0l0,0h0l-.12-.07h0l0,0h0l0,0h0l0,0h0l-.07,0h0l0,0h0l0,0h0l0,0h0l-.11-.06h0l0,0h0l0,0h0l0,0h0l-.11-.07h0l0,0h0l0,0h0l-.12-.07h0l0,0h0l0,0h0l0,0h0l-.12-.07h0l0,0h0l0,0h0l0,0h0l-.11-.06h0l0,0h0l0,0h0l0,0h0l-.06,0h0l0,0h0l0,0h0l0,0h0l0,0h0l-.06,0h0l0,0h0l0,0h-.07l-.1-.06h0l0,0h0l0,0H279l0,0,0,0h-.17l0,0,0,0,0,0h-.16l0,0h0l0,0h0l0,0h0l0,0h0l0,0h0l0,0h0l0,0h0l0,0h0l0,0h0l-.1-.05h0l0,0h0l0,0h0l0,0h0l-.1-.05h0l0,0h0l0,0h0l-.15-.08h0l0,0h0l0,0h0l-.1-.05h0l0,0h0l0,0h0l-.2-.11h0l-.2-.11h0c-1.18-.62-2.34-1.2-3.48-1.74h0l0,0h0l0,0h0l-.14-.07h0l0,0h0l0,0h0l0,0h0l0,0h-.37l-.11-.05h0l0,0h0l0,0h0l-.08,0Zm88.63,14.91a22.78,22.78,0,0,1-10.4,3.33h-4.19l-.54,0h-.18c-5.4-.45-11-2-17.29-2.72h0l-.21,0h0l-.15,0h-.17l-1.76,15.9c2.54.28,5.07.75,7.75,1.25a78.45,78.45,0,0,0,14.71,1.75A38.93,38.93,0,0,0,369,310.37l-8.28-13.69Zm43.14-49.3-16,.82c.13,2.52.21,5.46.31,9v0h0v0h0v0h0v0h0v0h0v0h0v0h0v0h0v0h0v0h0v0h0v0h0v0h0v0h0v0h0v0h0V258h0v.09h0v.09h0v.09h0v.09h0v.09h0c0,.06,0,.12,0,.18h0c-.09,10-4,15.07-9.52,20.72l11.46,11.17c7-7.23,14.51-16.39,14-33.8-.1-3.83-.19-6.75-.32-9.38Zm-31.73-56-14.11,7.54,0,.06h0v0h0c.31.58.64,1.18,1,1.79h0q1.54,2.77,3.26,5.32A57.36,57.36,0,0,0,372.09,217l0,0h0l0,0h0l0,0h.15l0,0h0l0,0h0l0,0h0l0,0h0l.06.06h0a33.72,33.72,0,0,1,4.55,5.27h0l0,0h0l0,0h0l0,0h0c.43.6.87,1.22,1.33,1.88l.11.15.3.43,13.09-9.2-.4-.57A55.07,55.07,0,0,0,382.7,205a41.36,41.36,0,0,1-7-7.79c-.92-1.38-1.78-2.78-2.56-4.17q-.48-.86-.92-1.68ZM363,136.46l-9.68,3.49-5.52,1.3v0l.14.6h0a21.21,21.21,0,0,1,1.13,5.07h0c.57,2.73,1.09,5.48,1.5,8.26.82,5.64,1.17,11.51,1.44,17.38h0v.52q.11.71.22,1.43v.17h0l0,.14,15.85-2.15c-.08-.59-.17-1.18-.26-1.78-.26-5.47-.63-11.74-1.55-18-.39-2.65-.88-5.44-1.52-8.52a36.65,36.65,0,0,0-1.89-7.94l-9.68,3.49h0l9.68-3.49ZM315.31,86l-6.05,14.81a112.59,112.59,0,0,1,18.33,9.23h0l.06,0h0l.07,0h0l.07,0h0l.07,0h0l.11.07h0l.06,0h0l.06,0h0l.05,0,0,0,.05,0h0l0,0,0,0,0,0,0,0,0,0,0,0,0,0,0,0,0,0,0,0,0,0,0,0,0,0,0,0,0,0,0,0,0,0,0,0,0,0,0,0,0,0,0,0,0,0,0,0,0,0,0,0h0l.05,0h0l.05,0h0l.05,0h0l.05,0h0l.05,0h0l.06,0h0l.06,0h0l.06,0h0l.06,0h0l.06,0h0l.06,0h0l0,0h0l0,0h0l0,0h0l0,0h0l0,0h0l0,0h0l0,0h0l0,0h0l0,0h0l.06,0h0l0,0h0l.06,0h0l0,0h0l0,0h0l.06,0h0l.32.24h0a36.59,36.59,0,0,1,6.69,6.52l12.51-10a52.42,52.42,0,0,0-11-10.33A120.38,120.38,0,0,0,315.31,86Zm-57.79-18.6-4.39,15.39q2.57.73,5.15,1.43h0l.16,0h0l.15,0h0l.15,0h0l.11,0,.07,0,.09,0,.08,0,.08,0,3.07.83h0l.12,0,1.67.45,3,.81h0l.06,0h.07l.08,0h0c3.37.91,6.75,1.84,10.1,2.82h0l.08,0h0l.07,0h0l.06,0h0l.06,0h0l.06,0h0l.06,0h0l.06,0h0l.16,0h0l.08,0h0l.06,0h.24l.05,0h0l.06,0h0l.06,0h0l.06,0h0l.06,0h0q3.41,1,6.79,2.15L290.91,77c-7.62-2.56-15.25-4.6-22.63-6.58-3.55-1-7.23-1.94-10.77-2.95Zm-52.21-20.8-6.94,14.42,1.38.66h0l.14.07h0l.06,0,0,0,.08,0,.07,0,0,0,.1,0h0c9.62,4.6,19.32,9,29.16,12.82l5.83-14.9c-8.84-3.46-18.37-7.67-30-13.26ZM152.1,20.58l-6.72,14.52c9.75,4.51,19.41,9.31,29.07,14.13h0l.22.11,1,.49L176,50l7.15-14.31-1.5-.75c-10.37-5.18-19.75-9.83-29.5-14.33ZM90.95.19l-1.13,16q2.74.19,5.4.63h4.85l.07,0h.08l.08,0h.08l.08,0h.09l.07,0h.09l.07,0h.08l.08,0H101l.07,0h.09l.08,0h.09l.07,0h.09l.08,0h.08l.08,0h.08l.08,0H102l.08,0h.08l.09,0h.08l.08,0h.07l.09,0h0l.14,0h0l.14,0h0l.14,0h0l.14,0h0l.14,0h0l.14,0h0l.14,0h0l.14,0h0l.14,0h0l.14,0h0l.14,0h0l.14,0h0l.14,0h0l.14,0h0l.14,0h0l.14,0h0l.09,0h.07l.14,0h0l.08,0h.08l.08,0h.08l.14,0h0l.08,0h.08l.07,0h.09l.06,0h.09l.06,0h.1l.05,0h.27l.05,0h.11l.05,0h.11l.05,0h.27l.05,0h.27l0,0h.15l.05,0h.27l.05,0h.26l.06,0h.1l.06,0h.1l.06,0h0l0,0h0l.06,0h.1l.06,0h.1l.05,0h.1l.06,0h0l.05,0h0l.07,0h0l.06,0h0l.07,0h0l.05,0h0l.06,0h0l.05,0h0l.06,0h0l.06,0h0l.07,0h0l.06,0h0l.06,0h0l.06,0h0l.07,0h0l.06,0h0l.07,0h0l.06,0h0l.07,0h0l.06,0h0l.07,0h0l.07,0h0l.07,0h0l.07,0h0l.07,0h0l.07,0h0l.07,0h0l.14,0h0l.14,0h0l.15,0h0l.15.05h0l.15.05h0l.15.05h0l.15.05h0l.15.05h0l.15.05h0l.15.05h0l.15.05h0l.15.05h0l.16.05h0l.16.06h0c2.85,1,5.69,2.12,8.51,3.27l6-14.81C120.49,7,109.76,3,98,1,95.7.64,93.32.36,90.95.19Z"/><path d="M348.18,281.1l-65.86,40.41a3,3,0,0,1-3.07.29l-52-30c-1.23-.71-.73-3,.86-3.95l65-39.87a4.08,4.08,0,0,1,4.14-.4L349,277.46C350.1,278.11,349.64,280.2,348.18,281.1Z"/><path class="cls-2" d="M273.27,316l-.53-.28L227.89,290.4l-.32-.44c-6.36-9.9-.54-15.42.14-16a2.13,2.13,0,0,1,1.39-.52h.51l.53.28,44.69,25.86a2.12,2.12,0,0,1,1.05,1.83v12.5a2.11,2.11,0,0,1-2.11,2.11Z"/><path d="M229.11,275.37l.09,0,44.68,25.86a.17.17,0,0,1,.08.15v12.5a.17.17,0,0,1-.17.17l-.08,0-44.46-25.11-.06-.05c-.38-.58-5.53-8.83-.2-13.47a.18.18,0,0,1,.12,0m0-3.89a4.06,4.06,0,0,0-2.67,1c-3.32,2.89-4.48,7.2-3.26,12.12a22.85,22.85,0,0,0,2.74,6.39,4.07,4.07,0,0,0,1.41,1.33l44.46,25.11a4.06,4.06,0,0,0,6.05-3.53v-12.5a4.07,4.07,0,0,0-2-3.51L231.14,272a4.06,4.06,0,0,0-2-.55Z"/><polygon class="cls-2" points="273.95 314.18 337.55 274.54 338.34 260.35 273.95 301.3 273.95 314.18"/><path class="cls-2" d="M274,303V313.9a.17.17,0,0,1-.25.15L229.89,289.3a2.9,2.9,0,0,1-1.11-1.11c-1.16-2.07-4-8.13-.44-12.14a.4.4,0,0,1,.49-.07l45,26.06A5.47,5.47,0,0,1,274,303Z"/><polygon class="cls-1" points="230.32 287 230.6 289.7 231.05 283.95 230.32 287"/><polygon class="cls-1" points="235.3 278.93 235.3 275.43 233.56 273.43 232.62 277.37 235.3 278.93"/><polygon class="cls-1" points="241.41 282.46 235.3 275.43 235.3 278.93 241.41 282.46"/><polygon class="cls-1" points="231.05 283.95 232.62 277.37 231.61 276.79 231.05 283.95"/><path class="cls-1" d="M229.19,275.39l-.09,0,1.82,1Z"/><polygon class="cls-2" points="235.3 274.43 233.56 273.43 235.3 275.43 235.3 274.43"/><path d="M348.18,264.44l-65.87,40.41a3,3,0,0,1-3.07.29l-49.76-28.73a1.28,1.28,0,0,0-1.69.35c-3.23,4.73,1.06,11.59,1.4,12.13,0,0,0,0,.06,0l.54.3-.54,2.26a1.3,1.3,0,0,1-1.9.83h0a4.16,4.16,0,0,1-1.42-1.33c-2.76-4.3-5.77-13,.52-18.52.28-.24,1.39-1.1,1.69-1.29l65-39.87a4.09,4.09,0,0,1,4.14-.4L349,260.78C350.1,261.44,349.65,263.53,348.18,264.44Z"/><path class="cls-2" d="M33.94,87.16l-.54.4q.26.35,1.34.2l-.1-.7Z"/><path class="cls-2" d="M71.08,67.08l-.15.19c-.18.22-.14.44.11.63.1-.13.2-.15.3-.07a1.83,1.83,0,0,1-.26.71l.19.15.15-.19A1.09,1.09,0,0,0,71.08,67.08Z"/><path class="cls-2" d="M130.4,91l-.71.9q1.41.69,2.63-.85l.24-.3Q132.06,90.35,130.4,91Z"/><path class="cls-2" d="M105.88,46.56a3.26,3.26,0,0,1-.47,1.21l.65.51c.1-.34.22-.67.34-1Z"/><path class="cls-2" d="M127.74,53.5a6.73,6.73,0,0,1,2.12-.21q.34-.59,0-.88l-.49-.39a3.12,3.12,0,0,1-2.1.72l-.18.23.67.16C127.62,53.28,127.62,53.4,127.74,53.5Z"/><path class="cls-2" d="M158.11,159.9q-.34-.46-1.66-.32l.74,1a3.69,3.69,0,0,1,1.09-.45Z"/><path class="cls-1" d="M188.56,175.33a3.27,3.27,0,0,1,.73-1,.68.68,0,0,0-1.07-.16q-.6.56-.2,1.1A.34.34,0,0,1,188.56,175.33Z"/><path class="cls-1" d="M167.88,187.3l.43.58.58-.43q-.68-.92,0-1.41l-.23-.31-.92.68Z"/><path class="cls-2" d="M239.33,234.83a.79.79,0,0,0-.52,1l.88,1.74a2.94,2.94,0,0,0-.06,1.21l.37-.1.68-.59A17.5,17.5,0,0,1,239.33,234.83Z"/><rect class="cls-2" x="179.56" y="175.49" width="0.53" height="0.96" transform="translate(-69.42 141.65) rotate(-36.54)"/><path class="cls-2" d="M133.1,142.31l.2.27a2.24,2.24,0,0,1,1.33-.21l.27-.2q.42-.31.05-.81l-1.39.61Z"/><path class="cls-2" d="M334,230.26l.2.27a2.24,2.24,0,0,1,1.33-.21l.27-.2q.42-.31.05-.81l-1.39.61Z"/><path class="cls-2" d="M113.94,187.16l-.54.4q.26.35,1.34.2l-.1-.7Z"/><path class="cls-2" d="M304.94,187.16l-.54.4q.26.35,1.34.2l-.1-.7Z"/><path class="cls-2" d="M80.92,135.27q.46-.34.32-1.66l-1,.74a3.69,3.69,0,0,1,.45,1.09Z"/><path class="cls-2" d="M229.78,111.75l-.15.11.28.38a1.53,1.53,0,0,1,.68-.21l-.14-.19Q230.09,111.52,229.78,111.75Z"/><path class="cls-2" d="M267.55,142.13l.64-.18.23-.17-.51-.69-.23.17A.58.58,0,0,0,267.55,142.13Z"/></g></g></svg>