<?xml version="1.0" encoding="UTF-8" standalone="no"?>
<svg xmlns="http://www.w3.org/2000/svg" xmlns:xlink="http://www.w3.org/1999/xlink" viewBox="0 0 248.8 178.99">
<defs>
<style>.cls-1{fill:none;}.cls-2,.cls-5{fill:#fff;}.cls-3{fill:#80d692;}.cls-4{fill:url(#a);}.cls-5{stroke:#000;stroke-linecap:round;stroke-linejoin:round;stroke-width:2px;}.cls-6{fill:#ef8269;}</style>
<pattern id="a" data-name="New Pattern 2" height="70" width="105" patternUnits="userSpaceOnUse" viewBox="0 0 105 70">
<rect width="105" class="cls-1" height="70"/>
<path class="cls-2" d="m81.4 68.9v0.1h0.41a1.3 1.3 0 0 1 0.2 -0.57h-0.2q-0.4 0.1-0.4 0.5z"/>
<path class="cls-2" d="m99 68.9h1.3v-0.38l-0.46-0.31h-0.5z"/>
<path d="m102 62.9c0-0.46-0.22-0.69-0.65-0.69l-0.37 0.69v0.37h1z"/>
<path class="cls-2" d="m100 68.2h-0.46l0.46 0.31z"/>
<path d="m95.8 68.6l0.2-0.53v-0.24h-0.73v0.24c0 0.4 0.2 0.5 0.5 0.5z"/>
<path d="m2.53 56.8h1q-0.28-1.3-2-1.3h-0.3q0 0.5 1.3 1.3z"/>
<polygon points="5.52 68.2 4.87 67.9 4.22 68.9 4.87 69.3"/>
<path d="m8.16 67.9q-0.29 0-0.29 0.33a4.17 4.17 0 0 0 -2 -0.61q0 0.81 2.6 1.3h0.69q0.02-0.4-1-1z"/>
<path d="m27.3 68.4a2.77 2.77 0 0 1 1.06 -0.32v-0.7l-0.86 0.3z"/>
<rect y="64.5" x="15" height=".81" class="cls-2" width=".45"/>
<path class="cls-2" d="m7.79 68.4c0 0.33 0.19 0.49 0.49 0.49h0.24v-0.3a1.89 1.89 0 0 1 -0.24 -0.73 0.47 0.47 0 0 0 -0.49 0.5z"/>
<path class="cls-2" d="m16.8 60.9v-0.29h-0.53v0.73c0.3 0.1 0.5-0.1 0.5-0.4z"/>
<path class="cls-2" d="m12.2 58.1h0.49v-0.29q0-0.36-0.77-0.81h-0.53q0.4 1.1 0.8 1.1z"/>
<path class="cls-2" d="m12.2 61.4h-0.53l-0.28 1.1q0.4 0 0.8-1.1z"/>
<path class="cls-2" d="m19.1 62.2v-0.24h-0.7q-0.41 0-0.81 0.77l0.53 0.24q1-0.5 1-0.8z"/>
<path class="cls-2" d="m7 57.8v0.53q0.37 0 0.81-0.77v-0.28h-0.3c-0.35 0.1-0.51 0.3-0.51 0.6z"/>
<path class="cls-2" d="m2.59 61.9h-0.77v0.77q0.4 0 0.77-0.8z"/>
<path class="cls-2" d="m8 61.9h-1.51v0.24q0.16 0 1.54 0.29z"/>
<path class="cls-2" d="m4.66 61.6q0 0.37 0.77 0.81h0.24a0.47 0.47 0 0 0 0.53 -0.53l-0.53-0.28z"/>
<path d="m21 62.7h0.73l1.3-0.24v-0.53q0-0.24-1.79-1.58c0 0.19-0.08 0.28-0.24 0.28l0.24 0.53v1z"/>
<path d="m27.7 63h0.24a1.87 1.87 0 0 1 0.77 -0.24v-0.53h-0.24q-0.4-0.1-0.8 0.7z"/>
<path class="cls-2" d="m88.5 2.6q0-0.49-1-1.06v1.06a3.14 3.14 0 0 1 1 0.24z"/>
<path class="cls-2" d="m90.4 16.3l0.37-0.69v-0.33h-1v0.33q0.1 0.7 0.6 0.7z"/>
<path class="cls-2" d="m103 3.21c0-0.33-0.43-0.65-1.3-1q-2 0.77-2 1.3a2.11 2.11 0 0 1 1 0.37 19.9 19.9 0 0 1 2 -0.67z"/>
<path class="cls-1" d="m105 3.54l0.6-0.12-0.46-0.59h-0.15z"/>
<path class="cls-1" d="m104 6.83a2.78 2.78 0 0 1 1 -0.33 0.58 0.58 0 0 0 -0.65 -0.65c-0.46 0.05-0.69 0.27-0.69 0.65a0.29 0.29 0 0 1 1 0.33z"/>
<path class="cls-2" d="m89.5 12.1a2.07 2.07 0 0 1 0.94 -0.37q0-0.73-2.93-1.3v0.37a2.16 2.16 0 0 0 2 1.3z"/>
<path class="cls-1" d="m83.4 4.53v0.61h0.61q0-1 0.69-1v-0.3h-1z"/>
<path class="cls-2" d="m88.2 15.6v-0.33h-1.1v1h0.37a0.61 0.61 0 0 0 0.7 -0.7z"/>
<path class="cls-2" d="m88.8 6.5c0.08 0.43 0.31 0.65 0.69 0.65l1.63-0.33a2.5 2.5 0 0 0 1 0.33v-0.32l-0.33-0.69a14.9 14.9 0 0 1 -3 0.36z"/>
<path d="m99.5 10h0.65q0.45 0 1-1.06l-0.37-0.61a1.6 1.6 0 0 0 -1.5 1.67z"/>
<path d="m90 8q-0.61 0.12-0.61 0.65v0.65l2 0.33 0.28-0.69-1.4-0.94z"/>
<path d="m106 3.21v-0.61a3.77 3.77 0 0 1 -1.2 0.23l0.46 0.59z"/>
<path class="cls-2" d="m104 6.65c-0.38 0-0.57 0.2-0.57 0.53v0.49h0.28c0.35 0 0.53-0.16 0.53-0.49a0.22 0.22 0 0 1 -0.24 -0.24v-0.29z"/>
<path class="cls-2" d="m103 2.78l-0.28 0.49h0.77a0.43 0.43 0 0 0 -1 -0.49z"/>
<path class="cls-2" d="m102 12.6l0.24-0.53v-1.3l1-0.24v-0.6a4.42 4.42 0 0 0 -3.29 1.75 6.07 6.07 0 0 0 2.3 0.8z"/>
<path class="cls-2" d="m36 37.6q0-0.49-1-1.06v1.1a3.14 3.14 0 0 1 1 0.24z"/>
<path class="cls-2" d="m29 33.9v0.1h0.41a1.3 1.3 0 0 1 0.2 -0.57h-0.2q-0.4 0.1-0.4 0.5z"/>
<path class="cls-2" d="m67 53.4q0 0.28 0.57 0.61l0.2-0.41-0.41-0.2z"/>
<path class="cls-2" d="m63.2 54l0.41-0.61-1.75-0.16a1.3 1.3 0 0 0 1.3 0.8z"/>
<path class="cls-2" d="m37.9 51.3l0.37-0.69v-0.33h-1v0.33q0.1 0.7 0.6 0.7z"/>
<path class="cls-2" d="m46.5 33.9h1.3v-0.38l-0.46-0.31h-0.84z"/>
<path class="cls-2" d="m50.8 38.2c0-0.33-0.43-0.65-1.3-1q-2 0.77-2 1.3a2.11 2.11 0 0 1 1 0.37 19.9 19.9 0 0 1 2.3 -0.7z"/>
<path class="cls-1" d="m52.1 38.5l0.6-0.12-0.46-0.59h-0.15z"/>
<path class="cls-1" d="m51.1 41.8a2.78 2.78 0 0 1 1 -0.33 0.58 0.58 0 0 0 -0.65 -0.65c-0.46 0.05-0.69 0.27-0.69 0.65a0.29 0.29 0 0 1 0.4 0.4z"/>
<path class="cls-2" d="m37 47.1a2.07 2.07 0 0 1 0.94 -0.37q0-0.73-2.93-1.3v0.37a2.16 2.16 0 0 0 2 1.3z"/>
<path class="cls-1" d="m30.9 39.5v0.61h0.61q0-1 0.69-1v-0.33h-1z"/>
<path class="cls-2" d="m66.5 51v0.33a0.66 0.66 0 0 0 0.69 0.61h0.93q0.69 0 0.69-0.61l-1.38-0.69a2.07 2.07 0 0 1 -0.9 0.4z"/>
<path class="cls-2" d="m35.7 50.6v-0.33h-1.1v1h0.4a0.61 0.61 0 0 0 0.7 -0.7z"/>
<path class="cls-2" d="m36.3 41.5c0.08 0.43 0.31 0.65 0.69 0.65l1.63-0.33a2.5 2.5 0 0 0 1 0.33v-0.33l-0.33-0.69a14.9 14.9 0 0 1 -3 0.3z"/>
<rect y="47.7" x="56.5" height=".61" width="1.3"/>
<path d="m47 45h0.65q0.45 0 1-1.06l-0.37-0.61a1.6 1.6 0 0 0 -1.2 1.7z"/>
<path d="m37.4 43q-0.61 0.12-0.61 0.65v0.65l2 0.33 0.28-0.69-1.3-0.8z"/>
<path d="m67.3 44.9l-0.69-0.37h-0.28c-0.46 0.11-0.69 0.34-0.69 0.69v0.28a2.26 2.26 0 0 1 1 0.33z"/>
<path d="m55 21.8h1q-0.28-1.3-2-1.3h-0.33q0 0.5 1.3 1.3z"/>
<polygon points="58 33.2 57.4 32.9 56.7 33.9 57.4 34.3"/>
<path d="m49.5 27.9c0-0.46-0.22-0.69-0.65-0.69l-0.37 0.69v0.37h1z"/>
<path d="m60.7 32.9q-0.29 0-0.29 0.33a4.17 4.17 0 0 0 -2 -0.61q0 0.81 2.6 1.3h0.69q0-0.4-1-1z"/>
<path d="m79.8 33.4a2.77 2.77 0 0 1 1.06 -0.32v-0.7l-0.86 0.3z"/>
<path d="m63.7 36.9l-0.37 0.69h1q0-0.7-0.6-0.7z"/>
<path class="cls-2" d="m47.8 33.2h-0.46l0.46 0.31z"/>
<path d="m53.8 38.2l-0.33-0.61a3.77 3.77 0 0 1 -1.2 0.23l0.46 0.59z"/>
<rect y="29.5" x="67.5" height=".81" class="cls-2" width=".45"/>
<path class="cls-2" d="m60.3 33.4c0 0.33 0.19 0.49 0.49 0.49h0.2v-0.3a1.89 1.89 0 0 1 -0.24 -0.73 0.47 0.47 0 0 0 -0.5 0.5z"/>
<path class="cls-2" d="m69.3 25.9v-0.29h-0.53v0.73c0.3 0.1 0.5-0.1 0.5-0.4z"/>
<path class="cls-2" d="m52.5 54.3v0.28c0.05 0.35 0.23 0.53 0.53 0.53v-0.29a0.47 0.47 0 0 0 -0.5 -0.5z"/>
<path class="cls-2" d="m64.7 23.1h0.49v-0.29q0-0.36-0.77-0.81h-0.53q0.4 1.1 0.8 1.1z"/>
<path class="cls-2" d="m64.7 26.4h-0.53l-0.28 1.1q0.4 0 0.8-1.1z"/>
<path class="cls-2" d="m51.8 41.6h-0.24c-0.38 0-0.57 0.2-0.57 0.53v0.49h0.28c0.35 0 0.53-0.16 0.53-0.49a0.22 0.22 0 0 1 -0.24 -0.24c0.1 0 0.2-0.1 0.2-0.3z"/>
<path class="cls-2" d="m71.6 27.2v-0.24h-0.7q-0.41 0-0.81 0.77l0.53 0.24q1-0.5 1-0.8z"/>
<path class="cls-2" d="m50.2 37.8l-0.28 0.49h0.77a0.43 0.43 0 0 0 -0.5 -0.5z"/>
<path class="cls-2" d="m49.7 47.6l0.24-0.53v-1.3l1-0.24v-0.6a4.42 4.42 0 0 0 -3.29 1.75 6.07 6.07 0 0 0 2.1 0.8z"/>
<path class="cls-2" d="m59.5 22.8v0.53q0.37 0 0.81-0.77v-0.28h-0.3c-0.3 0.1-0.5 0.3-0.5 0.6z"/>
<path class="cls-2" d="m67.2 43.7l-0.29 0.53v0.53h0.29a0.53 0.53 0 0 0 0 -1.06z"/>
<path class="cls-2" d="m64.4 47.9q-0.16 0-1.26-1.3c-0.38 0.05-0.57 0.22-0.57 0.49v0.53q0.61 0 1.58 1h0.24l-0.24-0.53c0.2 0 0.3-0.1 0.3-0.2z"/>
<path class="cls-2" d="m72.2 45q0 0.37 0.77 0.73h0.77l0.2-1.2h-0.24a2.18 2.18 0 0 1 -1.6 0.5z"/>
<path class="cls-2" d="m59.8 48.1v0.29q0.08 0.53 0.53 0.53h0.49v-1a1.69 1.69 0 0 1 -0.77 -0.29z"/>
<path class="cls-2" d="m76 44.7l-0.24 0.49a0.54 0.54 0 0 0 0.37 0.5v-1z"/>
<path class="cls-2" d="m55.6 49.4l-0.53 0.73v0.28l0.24 0.49a1.4 1.4 0 0 0 1.1 -1z"/>
<path class="cls-2" d="m55.1 26.9h-0.77v0.77q0.4 0 0.8-0.8z"/>
<path class="cls-2" d="m55.1 35.7h-0.5q-0.57 0-0.81 1.26h0.81l0.73-0.53a1.88 1.88 0 0 1 -0.2 -0.8z"/>
<path class="cls-2" d="m57.9 54.6v0.53h-0.77l-1-0.81v0.28a3.69 3.69 0 0 0 2 1 0.25 0.25 0 0 1 0.29 -0.28 1.69 1.69 0 0 1 -0.29 -0.73z"/>
<path class="cls-2" d="m60.5 26.9h-1.5v0.24q0.16 0 1.54 0.29z"/>
<path class="cls-2" d="m57.2 26.6q0 0.37 0.77 0.81h0.24a0.47 0.47 0 0 0 0.53 -0.53l-0.53-0.28z"/>
<path d="m43.3 33.6l0.2-0.53v-0.24h-0.73v0.24c0 0.4 0.2 0.5 0.5 0.5z"/>
<path d="m77.8 54v0.28a1.9 1.9 0 0 1 1 0.53h0.28q0.45 0 0.45-0.53l-1.3-0.3z"/>
<path d="m76.2 45.7h0.16c0.33 0 0.49-0.18 0.49-0.53h-0.49v-0.2h0.6v-0.28h-0.89z"/>
<path d="m73.5 27.7h0.73l1.3-0.24v-0.53q0-0.24-1.79-1.58c0 0.19-0.08 0.28-0.24 0.28l0.24 0.53v1z"/>
<path d="m80.2 28h0.24a1.87 1.87 0 0 1 0.77 -0.24v-0.53h-0.24q-0.4-0.1-0.8 0.7z"/>
<path class="cls-2" d="m14.5 18.4q0 0.28 0.57 0.61l0.2-0.41-0.41-0.2z"/>
<path class="cls-2" d="m10.7 19l0.41-0.61-1.75-0.16a1.3 1.3 0 0 0 1.34 0.8z"/>
<path class="cls-1" d="m-0.38 3.54l0.6-0.12-0.46-0.59h-0.14z"/>
<path class="cls-2" d="m14 16v0.33a0.66 0.66 0 0 0 0.69 0.61h0.93q0.69 0 0.69-0.61l-1.38-0.69a2.07 2.07 0 0 1 -0.9 0.4z"/>
<rect y="12.7" x="4.03" height=".61" width="1.3"/>
<path d="m14.8 9.88l-0.69-0.37h-0.28c-0.46 0.11-0.69 0.34-0.69 0.69v0.28a2.26 2.26 0 0 1 1 0.33z"/>
<path d="m11.2 1.91l-0.37 0.69h1q0-0.69-0.6-0.69z"/>
<path d="m1.29 3.21-0.29-0.61a3.77 3.77 0 0 1 -1.2 0.23l0.46 0.59z"/>
<path class="cls-2" d="m0 19.3v0.28c0.05 0.35 0.23 0.53 0.53 0.53v-0.29a0.47 0.47 0 0 0 -0.53 -0.5z"/>
<path class="cls-2" d="m14.7 8.68l-0.29 0.53v0.53h0.29a0.47 0.47 0 0 0 0.53 -0.53 0.47 0.47 0 0 0 -0.5 -0.53z"/>
<path class="cls-2" d="m11.9 12.9q-0.16 0-1.26-1.3c-0.38 0.05-0.57 0.22-0.57 0.49v0.53q0.61 0 1.58 1h0.24l-0.24-0.53c0.2 0 0.3-0.1 0.3-0.2z"/>
<path class="cls-2" d="m19.7 10q0 0.37 0.77 0.73h0.77l0.24-1.26h-0.24a2.18 2.18 0 0 1 -1.6 0.56z"/>
<path class="cls-2" d="m7.27 13.1v0.29q0.08 0.53 0.53 0.53h0.49v-1a1.69 1.69 0 0 1 -0.77 -0.29z"/>
<path class="cls-2" d="m23.5 9.74l-0.24 0.49a0.54 0.54 0 0 0 0.37 0.5v-1z"/>
<path class="cls-2" d="m3.12 14.4l-0.53 0.73v0.28l0.24 0.49a1.4 1.4 0 0 0 1.1 -1z"/>
<path class="cls-2" d="m2.59 0.71h-0.49q-0.57 0-0.81 1.29h0.81l0.73-0.53a1.88 1.88 0 0 1 -0.24 -0.76z"/>
<path class="cls-2" d="m5.44 19.6v0.53h-0.78l-1-0.81v0.28a3.69 3.69 0 0 0 2 1 0.25 0.25 0 0 1 0.34 -0.3 1.69 1.69 0 0 1 -0.29 -0.73z"/>
<path d="m25.4 19v0.28a1.9 1.9 0 0 1 1 0.53h0.28q0.45 0 0.45-0.53l-1.4-0.3z"/>
<path d="m23.6 10.7h0.16c0.33 0 0.49-0.18 0.49-0.53h-0.49v-0.2h0.73v-0.26h-0.89z"/>
</pattern>
</defs>
<title>nieuwsbrief-bg2</title>
<g data-name="Layer 2">
<g id="HOME">
<path class="cls-3" d="m45.3 160c55.9 9.55 59.3 11.6 113 4.47 43.5-5.77 65.9-5.44 75.8-19.2 6.89-9.56 6.91-23.1 0.12-32.2-16.1-21.6-68.6-16.2-97.3-9-32 8-37.6 19-64 19-21 0-31.2-6.72-44.8-0.15-12.5 6.05-21.4 20.3-17.1 28.6 3.9 8 17.7 6 34.2 9z"/>
<path class="cls-4" d="m186 88.1a205 205 0 0 0 -24 1.5l1.19 9.93c5.38-0.64 10.9-1.11 16.5-1.32h6.48v-10zm-36.5 3.32c-5.43 0.94-10.7 2-15.6 3.25-2.72 0.68-5.41 1.41-8 2.18l2.87 9.58q1.73-0.52 3.57-1h0.08 0.29 0.08q1.67-0.45 3.45-0.9h0.25 0.07 1.33 0.12 1.06 0.08l0.91-0.21h0.25 0.08l0.25-0.06 1.1-0.24h0.08l0.69-0.15q1.74-0.37 3.55-0.73l0.36-0.07h0.09 0.14 0.09 0.13 0.09 0.09 0.09 0.09 2 0.25 3l1.47-0.26-1.7-9.85zm-36 9.6c-4.1 1.59-7.74 3.18-11 4.58-3.65 1.59-6.8 3-10 4.11l3.34 9.43q1.15-0.41 2.28-0.85h0.12 0.08 0.07 0.32c3.75-1.48 7.49-3.19 11.7-5l0.16-0.07h0.1 0.08c1.26-0.54 2.56-1.08 3.92-1.62h0.05 0.08 0.38 0.09l1.08-0.42-2-10zm-30.8 11.2a66.4 66.4 0 0 1 -10.2 1 93.4 93.4 0 0 1 -9.93 -0.54l-1.1 10 0.53 0.05h0.21a102 102 0 0 0 10.3 1h0.12a76.2 76.2 0 0 0 11.8 -0.87l-1.56-9.88zm-42.4-2.28a37.9 37.9 0 0 0 -17.1 3.88l-0.72 0.36 4.53 8.91h0.07l0.36-0.18h0.09a28.1 28.1 0 0 1 12.8 -2.88h4.33c1.56 0.14 3.16 0.35 4.81 0.59l1.41-9.9a74.8 74.8 0 0 0 -10.6 -0.9zm-29.9 13c-9.76 10.1-13.3 22.2-9.18 31.6l9.16-4a12.7 12.7 0 0 1 -0.13 -8.73l0.15-0.48v-0.06-0.06-0.06l0.08-0.23v-0.06-0.06-0.06-0.06-0.06-0.06-0.06-0.06l0.07-0.19v-0.11-0.06-0.06-0.06-0.06l0.18-0.42 0.11-0.26a32.5 32.5 0 0 1 6.26 -9l-7.19-7zm9.7 34l-2.13 9.77a118 118 0 0 0 12.5 2c3.48 0.36 7.07 0.73 10.8 1.31l1.6-10c-4-0.61-7.78-1-11.3-1.37l-3.79-0.4h-0.15-0.45-0.23c-2.49-0.29-4.78-0.62-6.82-1.06zm34.6 5-1.7 9.85 2.57 0.45c7.68 1.33 14.3 2.48 20.2 3.42l1.58-9.88c-6-1-12.7-2.11-20.6-3.48l-1.57-0.27h-0.5zm34.6 5.57-1.25 9.92a174 174 0 0 0 22.4 1h1.73l-0.1-10h-11-0.33-0.33c-3.74-0.24-7.52-0.62-11.6-1.13zm57.8-1.45-4.61 0.56h-0.5c-5.22 0.61-9.89 1.1-14.2 1.46h-0.36l-3.24 0.25 0.71 10c6.36-0.46 13.8-1.22 23.4-2.41l-1.23-9.92zm34.7-4.31h-0.4l-0.55 0.06c-4 0.47-8.3 1-12.8 1.52h-0.07-0.16-0.06-0.16q-4.15 0.51-8.59 1.09l1.3 9.92c7.63-1 14.7-1.83 21-2.56l1.69-0.2-1.16-9.93zm34.5-5.58q-1.75 0.51-3.66 1h-0.13-0.56-0.07-1-0.08-0.2c-5 1.11-10.8 2-17.5 2.84l1.27 9.92c11.2-1.44 18.2-2.73 24.1-4.45l-2.79-9.6zm22-24.1a28.4 28.4 0 0 1 -2.29 8.68l-0.06 0.12v0.09 0.09 0.06 0.06 0.06h-0.8l-0.07 0.07-0.07 0.07a24.2 24.2 0 0 1 -3.79 3.12l5.56 8.31a33.6 33.6 0 0 0 8.61 -8.27 37.8 37.8 0 0 0 6.88 -18.3l-9.95-1zm-12.6-37l-5 8a31.4 31.4 0 0 1 11 8.08l0.05 0.06h0.11l0.05 0.07 0.12 0.17a25.2 25.2 0 0 1 3 6.06l11-1a35 35 0 0 0 -5 -9.63 40.4 40.4 0 0 0 -15.7 -12.3zm-38.3-7-0.09 10c4.08 0 8.11 0.24 12 0.64h1.37c2.59 0.3 5.11 0.68 7.55 1.17h0.13 0.77 0.12 0.08l0.82 0.18 2.21-9.75a119 119 0 0 0 -25 -2.61z"/>
<rect rx="2.42" ry="2.42" height="107" width="4.84" y="30.3" x="130"/>
<path class="cls-5" d="m104 25.4 28-19.8l2.61-1.88a14 14 0 0 1 7 -2.72h0.07a14.7 14.7 0 0 1 6.91 1.72 14.9 14.9 0 0 1 7.75 10.8c0.07 0.42 0.12 0.85 0.15 1.28s0 0.73 0 1.09v13.5a0.07 0.07 0 0 1 0 0.05l-30 22.3"/>
<path class="cls-5" d="m127 38.2a14.9 14.9 0 0 0 -16.6 -14.8 15.2 15.2 0 0 0 -13 15.2v13a0.07 0.07 0 0 0 0.07 0.07h29.6a0.07 0.07 0 0 0 0.07 -0.07z"/>
<path d="m110 32.2a2.09 2.09 0 0 0 2.44 2.05 2.17 2.17 0 0 0 1.73 -2.18v-1.4a0.38 0.38 0 0 0 -0.38 -0.38h-3.4a0.38 0.38 0 0 0 -0.38 0.38z"/>
<path id="mail-clip" d="m134 18.7l2.27-1.74c0.77-0.59 1.41-0.39 1.42 0.44l0.08 4.71a3.74 3.74 0 0 1 -1.38 2.6l-1.31 1 0.11 11.5a2.56 2.56 0 0 1 -1 1.79c-0.53 0.41-1 0.27-1-0.31l-0.22-18.2a2.56 2.56 0 0 1 1 -1.8z" class="cls-6"/>
<path class="cls-2" d="m113 156h0.24c0.29 0 0.43-0.16 0.43-0.48-0.16 0-0.24-0.06-0.24-0.19a1.83 1.83 0 0 1 0.72 -0.24v-0.24h-0.24a1.09 1.09 0 0 0 -1 1z"/>
<path class="cls-2" d="m124 103h1q-0.33-1.53-2.3-1.53h-0.38q-1 1 1 2z"/>
<path class="cls-2" d="m75.3 142a3.26 3.26 0 0 1 1.25 -0.38v-0.82c-0.33 0.13-0.67 0.24-1 0.36z"/>
<path class="cls-2" d="m67.1 120q-0.19 0-1.48-1.53c-0.45 0.06-0.67 0.26-0.67 0.57v0.62q0.72 0 1.87 1.2h0.29l-0.29-0.62h0.3z"/>
<path class="cls-2" d="m147 127q0.57 0 1.25-1.15h-1.25a3.69 3.69 0 0 1 -0.29 1.15z"/>
<path class="cls-2" d="m138 120h-0.19v0.48a1.53 1.53 0 0 1 0.67 0.24v-0.24q-1 0-1 0z"/>
<path class="cls-1" d="m117 142a3.27 3.27 0 0 1 0.38 1.2 0.68 0.68 0 0 0 0.77 -0.77c-0.06-0.54-0.32-0.81-0.77-0.81a0.34 0.34 0 0 1 0 1z"/>
<path class="cls-1" d="m119 119h-0.72v0.72q1.15 0 1.15 0.81h0.38v-1.15z"/>
<path class="cls-2" d="m38.6 148a0.79 0.79 0 0 0 -0.48 -1l-1.92-0.33a2.94 2.94 0 0 0 -0.93 -0.77l-0.14 0.36 0.07 0.9a17.5 17.5 0 0 1 3.4 1z"/>
<rect y="135" x="121" height=".53" class="cls-2" width=".96"/>
<path class="cls-2" d="m150 137l0.62 0.24h0.29v-1h-0.29c-1 0-1 0-1 1z"/>
<path class="cls-2" d="m176 117h-0.33a2.24 2.24 0 0 1 -0.62 1.2v0.33q0 0.53 0.62 0.53l0.33-1.48z"/>
<path class="cls-2" d="m152 125v-0.67q-0.43 0-1 1l0.62 0.34z"/>
</g>
</g>
</svg>
