<svg xmlns="http://www.w3.org/2000/svg" xmlns:xlink="http://www.w3.org/1999/xlink" viewBox="0 0 248.8 178.99"><defs><style>.cls-1{fill:none;}.cls-2,.cls-5{fill:#fff;}.cls-3{fill:#80d692;}.cls-4{fill:url(#New_Pattern_2);}.cls-5{stroke:#000;stroke-linecap:round;stroke-linejoin:round;stroke-width:2px;}.cls-6{fill:#ef8269;}</style><pattern id="New_Pattern_2" data-name="New Pattern 2" width="105" height="70" patternUnits="userSpaceOnUse" viewBox="0 0 105 70"><rect class="cls-1" width="105" height="70"/><path class="cls-2" d="M81.45,68.86V69h.41a1.3,1.3,0,0,1,.2-.57h-.2Q81.45,68.54,81.45,68.86Z"/><path class="cls-2" d="M99,68.94h1.3v-.38l-.46-.31H99Z"/><path d="M102,62.87c0-.46-.22-.69-.65-.69l-.37.69v.37h1Z"/><path class="cls-2" d="M100.31,68.25h-.46l.46.31Z"/><path d="M95.8,68.64l.2-.53v-.24h-.73v.24C95.3,68.46,95.48,68.64,95.8,68.64Z"/><path d="M2.53,56.77h1q-.28-1.3-2-1.3H1.23Q1.23,56,2.53,56.77Z"/><polygon points="5.52 68.25 4.87 67.93 4.22 68.94 4.87 69.31 5.52 68.25"/><path d="M8.16,67.93q-.29,0-.29.33a4.17,4.17,0,0,0-2-.61q0,.81,2.6,1.3h.69Q9.18,68.46,8.16,67.93Z"/><path d="M27.26,68.44a2.77,2.77,0,0,1,1.06-.32v-.7l-.86.3Z"/><rect class="cls-2" x="15.03" y="64.49" width="0.45" height="0.81"/><path class="cls-2" d="M7.79,68.39c0,.33.19.49.49.49h.24V68.6a1.89,1.89,0,0,1-.24-.73A.47.47,0,0,0,7.79,68.39Z"/><path class="cls-2" d="M16.82,60.91v-.29h-.53v.73C16.64,61.36,16.82,61.21,16.82,60.91Z"/><path class="cls-2" d="M12.18,58.07h.49v-.29q0-.36-.77-.81h-.53Q11.82,58.07,12.18,58.07Z"/><path class="cls-2" d="M12.18,61.36h-.53l-.28,1.1Q11.82,62.46,12.18,61.36Z"/><path class="cls-2" d="M19.13,62.17v-.24H18.4q-.41,0-.81.77l.53.24Q19.13,62.54,19.13,62.17Z"/><path class="cls-2" d="M7,57.78v.53q.37,0,.81-.77v-.28H7.51C7.16,57.34,7,57.51,7,57.78Z"/><path class="cls-2" d="M2.59,61.93H1.82v.77Q2.22,62.7,2.59,61.93Z"/><path class="cls-2" d="M8,61.93H6.49v.24q.16,0,1.54.29Z"/><path class="cls-2" d="M4.66,61.65q0,.37.77.81h.24a.47.47,0,0,0,.53-.53l-.53-.28Z"/><path d="M21,62.7h.73l1.3-.24v-.53q0-.24-1.79-1.58c0,.19-.08.28-.24.28l.24.53v1Z"/><path d="M27.67,62.95h.24a1.87,1.87,0,0,1,.77-.24v-.53h-.24Q28.08,62.17,27.67,62.95Z"/><path class="cls-2" d="M88.49,2.6q0-.49-1-1.06V2.6a3.14,3.14,0,0,1,1,.24Z"/><path class="cls-2" d="M90.42,16.32l.37-.69v-.33h-1v.33Q89.89,16.32,90.42,16.32Z"/><path class="cls-2" d="M103.28,3.21c0-.33-.43-.65-1.3-1q-2,.77-2,1.3a2.11,2.11,0,0,1,1,.37A19.92,19.92,0,0,1,103.28,3.21Z"/><path class="cls-1" d="M104.62,3.54l.6-.12-.46-.59h-.15Z"/><path class="cls-1" d="M103.61,6.83a2.78,2.78,0,0,1,1-.33.58.58,0,0,0-.65-.65c-.46.05-.69.27-.69.65A.29.29,0,0,1,103.61,6.83Z"/><path class="cls-2" d="M89.5,12.11a2.07,2.07,0,0,1,.94-.37q0-.73-2.93-1.3v.37A2.16,2.16,0,0,0,89.5,12.11Z"/><path class="cls-1" d="M83.44,4.53v.61h.61q0-1,.69-1V3.84h-1Z"/><path class="cls-2" d="M88.18,15.63v-.33H87.12v1h.37A.61.61,0,0,0,88.18,15.63Z"/><path class="cls-2" d="M88.81,6.5c.08.43.31.65.69.65l1.63-.33a2.5,2.5,0,0,0,1,.33V6.83l-.33-.69A14.86,14.86,0,0,1,88.81,6.5Z"/><path d="M99.48,10h.65q.45,0,1-1.06l-.37-.61A1.6,1.6,0,0,0,99.48,10Z"/><path d="M89.95,8q-.61.12-.61.65v.65l2,.33.28-.69L90.27,8Z"/><path d="M106.29,3.21,106,2.6a3.77,3.77,0,0,1-1.2.23l.46.59Z"/><path class="cls-2" d="M104.26,6.65H104c-.38,0-.57.2-.57.53v.49h.28c.35,0,.53-.16.53-.49a.22.22,0,0,1-.24-.24C104.18,6.93,104.26,6.84,104.26,6.65Z"/><path class="cls-2" d="M102.71,2.78l-.28.49h.77A.43.43,0,0,0,102.71,2.78Z"/><path class="cls-2" d="M102.18,12.58l.24-.53v-1.3l1-.24V10a4.42,4.42,0,0,0-3.29,1.75A6.07,6.07,0,0,0,102.18,12.58Z"/><path class="cls-2" d="M36,37.6q0-.49-1-1.06V37.6a3.14,3.14,0,0,1,1,.24Z"/><path class="cls-2" d="M29,33.86V34h.41a1.3,1.3,0,0,1,.2-.57h-.2Q29,33.54,29,33.86Z"/><path class="cls-2" d="M67,53.35q0,.28.57.61l.2-.41-.41-.2Z"/><path class="cls-2" d="M63.22,54l.41-.61-1.75-.16A1.3,1.3,0,0,0,63.22,54Z"/><path class="cls-2" d="M37.92,51.32l.37-.69v-.33h-1v.33Q37.39,51.32,37.92,51.32Z"/><path class="cls-2" d="M46.51,33.94h1.3v-.38l-.46-.31h-.84Z"/><path class="cls-2" d="M50.78,38.21c0-.33-.43-.65-1.3-1q-2,.77-2,1.3a2.11,2.11,0,0,1,1,.37A19.92,19.92,0,0,1,50.78,38.21Z"/><path class="cls-1" d="M52.12,38.54l.6-.12-.46-.59h-.15Z"/><path class="cls-1" d="M51.11,41.83a2.78,2.78,0,0,1,1-.33.58.58,0,0,0-.65-.65c-.46.05-.69.27-.69.65A.29.29,0,0,1,51.11,41.83Z"/><path class="cls-2" d="M37,47.11a2.07,2.07,0,0,1,.94-.37q0-.73-2.93-1.3v.37A2.16,2.16,0,0,0,37,47.11Z"/><path class="cls-1" d="M30.94,39.53v.61h.61q0-1,.69-1v-.33h-1Z"/><path class="cls-2" d="M66.47,51v.33a.66.66,0,0,0,.69.61h.93q.69,0,.69-.61l-1.38-.69A2.07,2.07,0,0,1,66.47,51Z"/><path class="cls-2" d="M35.68,50.63v-.33H34.62v1H35A.61.61,0,0,0,35.68,50.63Z"/><path class="cls-2" d="M36.31,41.5c.08.43.31.65.69.65l1.63-.33a2.5,2.5,0,0,0,1,.33v-.33l-.33-.69A14.86,14.86,0,0,1,36.31,41.5Z"/><rect x="56.53" y="47.73" width="1.3" height="0.61"/><path d="M47,45h.65q.45,0,1-1.06l-.37-.61A1.6,1.6,0,0,0,47,45Z"/><path d="M37.45,43q-.61.12-.61.65v.65l2,.33.28-.69L37.77,43Z"/><path d="M67.31,44.88l-.69-.37h-.28c-.46.11-.69.34-.69.69v.28a2.26,2.26,0,0,1,1,.33Z"/><path d="M55,21.77h1q-.28-1.3-2-1.3h-.33Q53.73,21,55,21.77Z"/><polygon points="58.02 33.25 57.37 32.93 56.72 33.94 57.37 34.31 58.02 33.25"/><path d="M49.54,27.87c0-.46-.22-.69-.65-.69l-.37.69v.37h1Z"/><path d="M60.66,32.93q-.29,0-.29.33a4.17,4.17,0,0,0-2-.61q0,.81,2.6,1.3h.69Q61.68,33.46,60.66,32.93Z"/><path d="M79.76,33.44a2.77,2.77,0,0,1,1.06-.32v-.7l-.86.3Z"/><path d="M63.67,36.91l-.37.69h1Q64.28,36.91,63.67,36.91Z"/><path class="cls-2" d="M47.81,33.25h-.46l.46.31Z"/><path d="M53.79,38.21l-.33-.61a3.77,3.77,0,0,1-1.2.23l.46.59Z"/><rect class="cls-2" x="67.53" y="29.49" width="0.45" height="0.81"/><path class="cls-2" d="M60.29,33.39c0,.33.19.49.49.49H61V33.6a1.89,1.89,0,0,1-.24-.73A.47.47,0,0,0,60.29,33.39Z"/><path class="cls-2" d="M69.32,25.91v-.29h-.53v.73C69.14,26.36,69.32,26.21,69.32,25.91Z"/><path class="cls-2" d="M52.53,54.29v.28c.05.35.23.53.53.53v-.29A.47.47,0,0,0,52.53,54.29Z"/><path class="cls-2" d="M64.68,23.07h.49v-.29q0-.36-.77-.81h-.53Q64.32,23.07,64.68,23.07Z"/><path class="cls-2" d="M64.68,26.36h-.53l-.28,1.1Q64.32,27.46,64.68,26.36Z"/><path class="cls-2" d="M51.76,41.65h-.24c-.38,0-.57.2-.57.53v.49h.28c.35,0,.53-.16.53-.49a.22.22,0,0,1-.24-.24C51.68,41.93,51.76,41.84,51.76,41.65Z"/><path class="cls-2" d="M71.63,27.17v-.24H70.9q-.41,0-.81.77l.53.24Q71.63,27.54,71.63,27.17Z"/><path class="cls-2" d="M50.21,37.78l-.28.49h.77A.43.43,0,0,0,50.21,37.78Z"/><path class="cls-2" d="M49.68,47.58l.24-.53v-1.3l1-.24V45a4.42,4.42,0,0,0-3.29,1.75A6.07,6.07,0,0,0,49.68,47.58Z"/><path class="cls-2" d="M59.48,22.78v.53q.37,0,.81-.77v-.28H60C59.66,22.34,59.48,22.51,59.48,22.78Z"/><path class="cls-2" d="M67.24,43.68l-.29.53v.53h.29a.53.53,0,0,0,0-1.06Z"/><path class="cls-2" d="M64.4,47.87q-.16,0-1.26-1.3c-.38.05-.57.22-.57.49v.53q.61,0,1.58,1h.24l-.24-.53C64.32,48.07,64.4,48,64.4,47.87Z"/><path class="cls-2" d="M72.16,45q0,.37.77.73h.77L74,44.49h-.24A2.18,2.18,0,0,1,72.16,45Z"/><path class="cls-2" d="M59.77,48.07v.29q.08.53.53.53h.49v-1a1.69,1.69,0,0,1-.77-.29Z"/><path class="cls-2" d="M76,44.74l-.24.49a.54.54,0,0,0,.37.5v-1Z"/><path class="cls-2" d="M55.62,49.41l-.53.73v.28l.24.49a1.4,1.4,0,0,0,1.1-1Z"/><path class="cls-2" d="M55.09,26.93h-.77v.77Q54.72,27.7,55.09,26.93Z"/><path class="cls-2" d="M55.09,35.71H54.6q-.57,0-.81,1.26h.81l.73-.53A1.88,1.88,0,0,1,55.09,35.71Z"/><path class="cls-2" d="M57.94,54.57v.53h-.77l-1-.81v.28a3.69,3.69,0,0,0,2,1,.25.25,0,0,1,.29-.28,1.69,1.69,0,0,1-.29-.73Z"/><path class="cls-2" d="M60.54,26.93H59v.24q.16,0,1.54.29Z"/><path class="cls-2" d="M57.16,26.65q0,.37.77.81h.24a.47.47,0,0,0,.53-.53l-.53-.28Z"/><path d="M43.3,33.64l.2-.53v-.24h-.73v.24C42.8,33.46,43,33.64,43.3,33.64Z"/><path d="M77.85,54v.28a1.9,1.9,0,0,1,1,.53h.28q.45,0,.45-.53L78.34,54Z"/><path d="M76.15,45.73l.16,0c.33,0,.49-.18.49-.53h-.49V45H77v-.28h-.89Z"/><path d="M73.46,27.7h.73l1.3-.24v-.53q0-.24-1.79-1.58c0,.19-.08.28-.24.28l.24.53v1Z"/><path d="M80.17,27.95h.24a1.87,1.87,0,0,1,.77-.24v-.53h-.24Q80.58,27.17,80.17,27.95Z"/><path class="cls-2" d="M14.46,18.35q0,.28.57.61l.2-.41-.41-.2Z"/><path class="cls-2" d="M10.72,19l.41-.61-1.75-.16A1.3,1.3,0,0,0,10.72,19Z"/><path class="cls-1" d="M-.38,3.54l.6-.12-.46-.59H-.38Z"/><path class="cls-2" d="M14,16v.33a.66.66,0,0,0,.69.61h.93q.69,0,.69-.61l-1.38-.69A2.07,2.07,0,0,1,14,16Z"/><rect x="4.03" y="12.73" width="1.3" height="0.61"/><path d="M14.81,9.88l-.69-.37h-.28c-.46.11-.69.34-.69.69v.28a2.26,2.26,0,0,1,1,.33Z"/><path d="M11.17,1.91l-.37.69h1Q11.78,1.91,11.17,1.91Z"/><path d="M1.29,3.21,1,2.6a3.77,3.77,0,0,1-1.2.23l.46.59Z"/><path class="cls-2" d="M0,19.29v.28c.05.35.23.53.53.53v-.29A.47.47,0,0,0,0,19.29Z"/><path class="cls-2" d="M14.74,8.68l-.29.53v.53h.29a.47.47,0,0,0,.53-.53A.47.47,0,0,0,14.74,8.68Z"/><path class="cls-2" d="M11.9,12.87q-.16,0-1.26-1.3c-.38.05-.57.22-.57.49v.53q.61,0,1.58,1h.24l-.24-.53C11.82,13.07,11.9,13,11.9,12.87Z"/><path class="cls-2" d="M19.66,10q0,.37.77.73h.77l.24-1.26h-.24A2.18,2.18,0,0,1,19.66,10Z"/><path class="cls-2" d="M7.27,13.07v.29q.08.53.53.53h.49v-1a1.69,1.69,0,0,1-.77-.29Z"/><path class="cls-2" d="M23.53,9.74l-.24.49a.54.54,0,0,0,.37.5v-1Z"/><path class="cls-2" d="M3.12,14.41l-.53.73v.28l.24.49a1.4,1.4,0,0,0,1.1-1Z"/><path class="cls-2" d="M2.59.71H2.1Q1.53.71,1.29,2H2.1l.73-.53A1.88,1.88,0,0,1,2.59.71Z"/><path class="cls-2" d="M5.44,19.57v.53H4.66l-1-.81v.28a3.69,3.69,0,0,0,2,1A.25.25,0,0,1,6,20.31a1.69,1.69,0,0,1-.29-.73Z"/><path d="M25.35,19v.28a1.9,1.9,0,0,1,1,.53h.28q.45,0,.45-.53L25.84,19Z"/><path d="M23.65,10.73l.16,0c.33,0,.49-.18.49-.53h-.49V10h.73V9.74h-.89Z"/></pattern></defs><title>nieuwsbrief-bg_2</title><g id="Layer_2" data-name="Layer 2"><g id="HOME"><path class="cls-3" d="M45.31,160.28c55.93,9.55,59.29,11.55,112.71,4.47,43.54-5.77,65.89-5.44,75.78-19.16,6.89-9.56,6.91-23.1.12-32.2-16.06-21.55-68.64-16.15-97.29-9C105,112.22,99.43,123,73,123c-21,0-31.24-6.72-44.78-.15-12.48,6.05-21.39,20.32-17.07,28.58C15,158.83,28.82,157.47,45.31,160.28Z"/><path class="cls-4" d="M186.33,88.08A204.8,204.8,0,0,0,162.2,89.6l1.19,9.93c5.38-.64,10.93-1.11,16.47-1.32h6.48v-10Zm-36.52,3.32c-5.43.94-10.67,2-15.58,3.25-2.72.68-5.41,1.41-8,2.18l2.87,9.58q1.73-.52,3.57-1h0l.08,0h.29l.08,0h0q1.67-.45,3.45-.9h.25l.07,0h1.33l.12,0h1.06l.08,0h0l.91-.21h.25l.08,0h0l.25-.06h0l1.1-.24h0l.08,0h0l.69-.15h0q1.74-.37,3.55-.73h0l.36-.07h0l.09,0h0l.14,0h.09l.13,0h.09l.09,0h.09l.09,0h2l.25,0H150l1.47-.26-1.7-9.85ZM114.15,101c-4.1,1.59-7.74,3.18-11,4.58-3.65,1.59-6.8,3-10,4.11l3.34,9.43q1.15-.41,2.28-.85h0l.12,0h0l.08,0h0l.07,0h.32l0,0h0l0,0h0c3.75-1.48,7.49-3.19,11.69-5h0l.16-.07h0l0,0h.1l0,0h0l0,0h0l.08,0h0c1.26-.54,2.56-1.08,3.92-1.62h0l.05,0h0l.08,0h0l0,0h.38l0,0h0l0,0h0l0,0h0l0,0h0l.09,0h0l1.08-.42L114.15,101Zm-30.8,11.23A66.4,66.4,0,0,1,73,113a93.38,93.38,0,0,1-9.93-.54L62,122.37l.53.05h.21A102.49,102.49,0,0,0,73,123h.12a76.15,76.15,0,0,0,11.83-.87l-1.56-9.88Zm-42.41-2.28a37.87,37.87,0,0,0-17.13,3.88l-.72.36,4.53,8.91.07,0h0l.36-.18h.09a28.1,28.1,0,0,1,12.76-2.88h4.33c1.56.14,3.16.35,4.81.59l1.41-9.9a74.78,74.78,0,0,0-10.55-.9ZM10.86,123.27c-9.76,10.1-13.28,22.2-9.18,31.56l9.16-4a12.72,12.72,0,0,1-.13-8.73h0l.15-.48h0l0-.06h0l0-.06h0l0-.06h0l.08-.23h0l0-.06h0l0-.06h0l0-.06h0l0-.06h0l0-.06h0l0,0h0v0h0l0,0h0v0h0l0,0h0l0-.06h0l0-.06h0l0-.06h0l.07-.19h0l0-.11h0v0h0l0,0h0l0-.06h0l0-.06h0l0-.06h0l0-.06h0l.18-.42h0l.11-.26h0a32.52,32.52,0,0,1,6.26-9l-7.19-7ZM20.56,157l-2.13,9.77A118.07,118.07,0,0,0,31,168.54c3.48.36,7.07.73,10.8,1.31L43.37,160c-4-.61-7.78-1-11.3-1.37l-3.79-.4h0l-.15,0h-.45l-.23,0h0c-2.49-.29-4.78-.62-6.82-1.06Zm34.64,5-1.7,9.85,2.57.45c7.68,1.33,14.31,2.48,20.23,3.42l1.58-9.88c-6-1-12.67-2.11-20.56-3.48l-1.57-.27L55.2,162Zm34.55,5.57-1.25,9.92A174.34,174.34,0,0,0,111.06,179h1.73l-.1-10H102l-.33,0h0l-.33,0h0c-3.74-.24-7.52-.62-11.57-1.13Zm57.8-1.45-4.61.56h-.5c-5.22.61-9.89,1.1-14.17,1.46h-.36l-3.24.25.71,10c6.36-.46,13.8-1.22,23.39-2.41l-1.23-9.92Zm34.74-4.31-.4,0-.55.06c-4,.47-8.3,1-12.83,1.52h-.07l-.16,0h-.06l-.16,0h0q-4.15.51-8.59,1.09l1.3,9.92c7.63-1,14.73-1.83,21-2.56l1.69-.2-1.16-9.93Zm34.51-5.58q-1.75.51-3.66,1h0l-.13,0h-.56l-.07,0H212l-.08,0h0l-.2,0h0c-5,1.11-10.8,2-17.46,2.84l1.27,9.92c11.2-1.44,18.19-2.73,24.12-4.45l-2.79-9.6Zm22.05-24.1a28.37,28.37,0,0,1-2.29,8.68h0l-.06.12h0v0h0v0h0l0,.09h0v0h0v0h0l0,.09h0v0h0v0h0v0h0l0,.06h0v0h0v0h0v0h0l0,.06h0v0h0v0h0v0h0l0,.06h0v0h0v0h0v0h0v0h0v0h0v0h0v0h0v0h0v0h0v0h0v0h0v0h0v0h0v0h0v0h0v0h0v0h0v0h0v0h0v0h0v0h0v0h0v0h0v0h0v0h0v0h0v0h0v0h0v0h0v0h0v0h0v0h0v0h0v0h0v0h0v0h0v0h0v0h0v0h0v0h0v0h0v0h0v0h0v0h0v0h0v0h0v0h0v0h0v0h0v0h0v0h0v0h0v0h0v0h-.06l0,0h-.07v0h0v0h0v0h0v0h0l0,0h-.07l0,0h-.08l0,0h0v0h0l0,0h-.08l0,0h-.08l0,0h-.08l0,0h-.07v0h0l0,0h-.08l0,0h-.08l0,0h0v0h0v0h0v0h0l0,0h0v0h0v0h0v0h0v0h0l0,0h0v0h0v0h0v0h0v0h0l0,0h0l0,0h0v0h0l0,0h0l0,0h0v0h0l0,0h0l0,0h0v0h0l0,0h0l0,0h0v0h0l0,0h0l0,0h0v0h0l0,0h0l0,0h0v0h0l0,0h0l0,0h0l0,0h0l0,0h0l0,0h0l0,0h0l0,0h0l0,0h0l0,0h0l0,0h0l0,0h0l0,0h0l0,0h0l0,0h0l0,0h0l0,0h0l0,0h0l0,0h0l0,0h0l0,0h0l0,0h0l0,0h0l0,0h0l0,0h0l0,0h0l0,0h0l0,0h0l0,0h0l0,0h0v0h0l0,0h0l0,0h0v0h0l0,0h0l0,0h0v0h0l0,0h0v0h0v0h0l0,0h0v0h0l0,0h0l0,0h0l0,0h0l0,0h-.05v0h0l0,0h0l0,0h0l0,0h0l0,0h0l0,0h0l0,0h0l0,0h0v0h0l0,0h0l0,0h0l-.07.07h0l-.07.07h0a24.17,24.17,0,0,1-3.79,3.12l5.56,8.31a33.57,33.57,0,0,0,8.61-8.27,37.82,37.82,0,0,0,6.88-18.33l-9.95-1Zm-12.63-37L222,104.21a31.4,31.4,0,0,1,11,8.08h0l.05.06h0l0,0h0l0,0h0l0,0h0l0,0h0l0,0h0l0,0h0l0,0h0l0,0h0l0,0h0v0h0v0h0v0h0v0h0v0h0v0h0v0h0l0,0h0v0h0l0,0h0l0,0h0v0h.11v0h0v0h0v0h0l.05.07h0l0,0h0v0h0v0h0v0h0v0h0v0h0v0h0l0,0h0l.12.17h0l0,0h0l0,0h0l0,0h0l0,0h0a25.2,25.2,0,0,1,3,6.06L247,117a35,35,0,0,0-5-9.63,40.36,40.36,0,0,0-15.72-12.28Zm-38.32-7-.09,10c4.08,0,8.11.24,12,.64h1.37c2.59.3,5.11.68,7.55,1.17h0l.13,0h.77l.12,0h0l.08,0h0l.82.18,2.21-9.75a119.27,119.27,0,0,0-24.95-2.61Z"/><rect x="130" y="30.29" width="4.84" height="107.04" rx="2.42" ry="2.42"/><path class="cls-5" d="M104.32,25.4,131.76,5.63l2.61-1.88A14,14,0,0,1,142.44,1h.07a14.71,14.71,0,0,1,6.91,1.72,14.91,14.91,0,0,1,7.75,10.76c.07.42.12.85.15,1.28s0,.73,0,1.09V29.36a.07.07,0,0,1,0,.05L127.24,51.73"/><path class="cls-5" d="M126.75,38.18a14.89,14.89,0,0,0-16.61-14.75A15.16,15.16,0,0,0,97,38.63v13a.07.07,0,0,0,.07.07h29.57a.07.07,0,0,0,.07-.07Z"/><path d="M109.5,32.19a2.09,2.09,0,0,0,2.44,2.05,2.17,2.17,0,0,0,1.73-2.18V30.67a.38.38,0,0,0-.38-.38h-3.4a.38.38,0,0,0-.38.38Z"/><path id="mail-clip" class="cls-6" d="M148.32,25.41v3a3.76,3.76,0,0,1-1.18,2.72l-3.7,2.78c-.65.48-1.19.05-1.19-1V31.23l-9,6.64c-.45.34-.82,0-.82-.66a2.58,2.58,0,0,1,.82-1.87L147.5,24.76C148,24.42,148.32,24.71,148.32,25.41Z"/><path class="cls-2" d="M113,156.06h.24c.29,0,.43-.16.43-.48-.16,0-.24-.06-.24-.19a1.83,1.83,0,0,1,.72-.24v-.24h-.24A1.09,1.09,0,0,0,113,156.06Z"/><path class="cls-2" d="M123.85,102.52H125q-.33-1.53-2.3-1.53h-.38Q122.32,101.62,123.85,102.52Z"/><path class="cls-2" d="M75.28,141.52a3.26,3.26,0,0,1,1.25-.38v-.82c-.33.13-.67.24-1,.36Z"/><path class="cls-2" d="M67.14,120.07q-.19,0-1.48-1.53c-.45.06-.67.26-.67.57v.62q.72,0,1.87,1.2h.29l-.29-.62C67,120.31,67.14,120.23,67.14,120.07Z"/><path class="cls-2" d="M147.12,127q.57,0,1.25-1.15h-1.25a3.69,3.69,0,0,1-.29,1.15Z"/><path class="cls-2" d="M137.52,119.72h-.19v.48a1.53,1.53,0,0,1,.67.24v-.24Q137.91,119.72,137.52,119.72Z"/><path class="cls-1" d="M116.59,142.27a3.27,3.27,0,0,1,.38,1.2.68.68,0,0,0,.77-.77c-.06-.54-.32-.81-.77-.81A.34.34,0,0,1,116.59,142.27Z"/><path class="cls-1" d="M119.3,118.53h-.72v.72q1.15,0,1.15.81h.38v-1.15Z"/><path class="cls-2" d="M38.56,147.64a.79.79,0,0,0-.48-1l-1.92-.33a2.94,2.94,0,0,0-.93-.77l-.14.36.07.9A17.5,17.5,0,0,1,38.56,147.64Z"/><rect class="cls-2" x="120.81" y="134.62" width="0.96" height="0.53"/><path class="cls-2" d="M149.79,136.62l.62.24h.29V136h-.29C150,136,149.79,136.23,149.79,136.62Z"/><path class="cls-2" d="M151.8,125.27v-.67q-.43,0-1,1l.62.34Z"/></g></g></svg>