<?xml version="1.0" encoding="UTF-8" standalone="no"?>
<svg xmlns="http://www.w3.org/2000/svg" xmlns:xlink="http://www.w3.org/1999/xlink" viewBox="0 0 274.71 184.49">
<defs>
<style>.cls-1,.cls-11,.cls-3,.cls-8{fill:none;}.cls-10,.cls-12,.cls-14,.cls-15,.cls-2,.cls-6,.cls-9{fill:#fff;}.cls-10,.cls-11,.cls-12,.cls-13,.cls-14,.cls-15,.cls-3,.cls-6,.cls-7,.cls-8,.cls-9{stroke:#000;}.cls-10,.cls-11,.cls-12,.cls-14,.cls-15,.cls-3,.cls-6,.cls-7,.cls-9{stroke-miterlimit:10;}.cls-3{stroke-width:0.98px;}.cls-4{fill:#88aeea;}.cls-5{fill:url(#a);}.cls-6,.cls-7,.cls-8{stroke-width:2px;}.cls-11,.cls-12,.cls-13,.cls-8,.cls-9{stroke-linecap:round;}.cls-13,.cls-8{stroke-linejoin:round;}.cls-9{stroke-width:2.02px;}.cls-10,.cls-11,.cls-12{stroke-width:1.68px;}.cls-13{stroke-width:0.79px;}.cls-14{stroke-width:1.53px;}.cls-15{stroke-width:1.24px;}</style>
<pattern id="a" data-name="New Pattern 2" height="70" width="105" patternUnits="userSpaceOnUse" viewBox="0 0 105 70">
<rect width="105" class="cls-1" height="70"/>
<path class="cls-2" d="m81.4 68.9v0.1h0.41a1.3 1.3 0 0 1 0.2 -0.57h-0.2q-0.4 0.1-0.4 0.5z"/>
<path class="cls-2" d="m99 68.9h1.3v-0.38l-0.46-0.31h-0.5z"/>
<path d="m102 62.9c0-0.46-0.22-0.69-0.65-0.69l-0.37 0.69v0.37h1z"/>
<path class="cls-2" d="m100 68.2h-0.46l0.46 0.31z"/>
<path d="m95.8 68.6l0.2-0.53v-0.24h-0.73v0.24c0 0.4 0.2 0.5 0.5 0.5z"/>
<path d="m2.53 56.8h1q-0.28-1.3-2-1.3h-0.3q0 0.5 1.3 1.3z"/>
<polygon points="5.52 68.2 4.87 67.9 4.22 68.9 4.87 69.3"/>
<path d="m8.16 67.9q-0.29 0-0.29 0.33a4.17 4.17 0 0 0 -2 -0.61q0 0.81 2.6 1.3h0.69q0.02-0.4-1-1z"/>
<path d="m27.3 68.4a2.77 2.77 0 0 1 1.06 -0.32v-0.7l-0.86 0.3z"/>
<rect y="64.5" x="15" height=".81" class="cls-2" width=".45"/>
<path class="cls-2" d="m7.79 68.4c0 0.33 0.19 0.49 0.49 0.49h0.24v-0.3a1.89 1.89 0 0 1 -0.24 -0.73 0.47 0.47 0 0 0 -0.49 0.5z"/>
<path class="cls-2" d="m16.8 60.9v-0.29h-0.53v0.73c0.3 0.1 0.5-0.1 0.5-0.4z"/>
<path class="cls-2" d="m12.2 58.1h0.49v-0.29q0-0.36-0.77-0.81h-0.53q0.4 1.1 0.8 1.1z"/>
<path class="cls-2" d="m12.2 61.4h-0.53l-0.28 1.1q0.4 0 0.8-1.1z"/>
<path class="cls-2" d="m19.1 62.2v-0.24h-0.7q-0.41 0-0.81 0.77l0.53 0.24q1-0.5 1-0.8z"/>
<path class="cls-2" d="m7 57.8v0.53q0.37 0 0.81-0.77v-0.28h-0.3c-0.35 0.1-0.51 0.3-0.51 0.6z"/>
<path class="cls-2" d="m2.59 61.9h-0.77v0.77q0.4 0 0.77-0.8z"/>
<path class="cls-2" d="m8 61.9h-1.51v0.24q0.16 0 1.54 0.29z"/>
<path class="cls-2" d="m4.66 61.6q0 0.37 0.77 0.81h0.24a0.47 0.47 0 0 0 0.53 -0.53l-0.53-0.28z"/>
<path d="m21 62.7h0.73l1.3-0.24v-0.53q0-0.24-1.79-1.58c0 0.19-0.08 0.28-0.24 0.28l0.24 0.53v1z"/>
<path d="m27.7 63h0.24a1.87 1.87 0 0 1 0.77 -0.24v-0.53h-0.24q-0.4-0.1-0.8 0.7z"/>
<path class="cls-2" d="m88.5 2.6q0-0.49-1-1.06v1.06a3.14 3.14 0 0 1 1 0.24z"/>
<path class="cls-2" d="m90.4 16.3l0.37-0.69v-0.33h-1v0.33q0.1 0.7 0.6 0.7z"/>
<path class="cls-2" d="m103 3.21c0-0.33-0.43-0.65-1.3-1q-2 0.77-2 1.3a2.11 2.11 0 0 1 1 0.37 19.9 19.9 0 0 1 2 -0.67z"/>
<path class="cls-1" d="m105 3.54l0.6-0.12-0.46-0.59h-0.15z"/>
<path class="cls-1" d="m104 6.83a2.78 2.78 0 0 1 1 -0.33 0.58 0.58 0 0 0 -0.65 -0.65c-0.46 0.05-0.69 0.27-0.69 0.65a0.29 0.29 0 0 1 1 0.33z"/>
<path class="cls-2" d="m89.5 12.1a2.07 2.07 0 0 1 0.94 -0.37q0-0.73-2.93-1.3v0.37a2.16 2.16 0 0 0 2 1.3z"/>
<path class="cls-1" d="m83.4 4.53v0.61h0.61q0-1 0.69-1v-0.3h-1z"/>
<path class="cls-2" d="m88.2 15.6v-0.33h-1.1v1h0.37a0.61 0.61 0 0 0 0.7 -0.7z"/>
<path class="cls-2" d="m88.8 6.5c0.08 0.43 0.31 0.65 0.69 0.65l1.63-0.33a2.5 2.5 0 0 0 1 0.33v-0.32l-0.33-0.69a14.9 14.9 0 0 1 -3 0.36z"/>
<path d="m99.5 10h0.65q0.45 0 1-1.06l-0.37-0.61a1.6 1.6 0 0 0 -1.5 1.67z"/>
<path d="m90 8q-0.61 0.12-0.61 0.65v0.65l2 0.33 0.28-0.69-1.4-0.94z"/>
<path d="m106 3.21v-0.61a3.77 3.77 0 0 1 -1.2 0.23l0.46 0.59z"/>
<path class="cls-2" d="m104 6.65c-0.38 0-0.57 0.2-0.57 0.53v0.49h0.28c0.35 0 0.53-0.16 0.53-0.49a0.22 0.22 0 0 1 -0.24 -0.24v-0.29z"/>
<path class="cls-2" d="m103 2.78l-0.28 0.49h0.77a0.43 0.43 0 0 0 -1 -0.49z"/>
<path class="cls-2" d="m102 12.6l0.24-0.53v-1.3l1-0.24v-0.6a4.42 4.42 0 0 0 -3.29 1.75 6.07 6.07 0 0 0 2.3 0.8z"/>
<path class="cls-2" d="m36 37.6q0-0.49-1-1.06v1.1a3.14 3.14 0 0 1 1 0.24z"/>
<path class="cls-2" d="m29 33.9v0.1h0.41a1.3 1.3 0 0 1 0.2 -0.57h-0.2q-0.4 0.1-0.4 0.5z"/>
<path class="cls-2" d="m67 53.4q0 0.28 0.57 0.61l0.2-0.41-0.41-0.2z"/>
<path class="cls-2" d="m63.2 54l0.41-0.61-1.75-0.16a1.3 1.3 0 0 0 1.3 0.8z"/>
<path class="cls-2" d="m37.9 51.3l0.37-0.69v-0.33h-1v0.33q0.1 0.7 0.6 0.7z"/>
<path class="cls-2" d="m46.5 33.9h1.3v-0.38l-0.46-0.31h-0.84z"/>
<path class="cls-2" d="m50.8 38.2c0-0.33-0.43-0.65-1.3-1q-2 0.77-2 1.3a2.11 2.11 0 0 1 1 0.37 19.9 19.9 0 0 1 2.3 -0.7z"/>
<path class="cls-1" d="m52.1 38.5l0.6-0.12-0.46-0.59h-0.15z"/>
<path class="cls-1" d="m51.1 41.8a2.78 2.78 0 0 1 1 -0.33 0.58 0.58 0 0 0 -0.65 -0.65c-0.46 0.05-0.69 0.27-0.69 0.65a0.29 0.29 0 0 1 0.4 0.4z"/>
<path class="cls-2" d="m37 47.1a2.07 2.07 0 0 1 0.94 -0.37q0-0.73-2.93-1.3v0.37a2.16 2.16 0 0 0 2 1.3z"/>
<path class="cls-1" d="m30.9 39.5v0.61h0.61q0-1 0.69-1v-0.33h-1z"/>
<path class="cls-2" d="m66.5 51v0.33a0.66 0.66 0 0 0 0.69 0.61h0.93q0.69 0 0.69-0.61l-1.38-0.69a2.07 2.07 0 0 1 -0.9 0.4z"/>
<path class="cls-2" d="m35.7 50.6v-0.33h-1.1v1h0.4a0.61 0.61 0 0 0 0.7 -0.7z"/>
<path class="cls-2" d="m36.3 41.5c0.08 0.43 0.31 0.65 0.69 0.65l1.63-0.33a2.5 2.5 0 0 0 1 0.33v-0.33l-0.33-0.69a14.9 14.9 0 0 1 -3 0.3z"/>
<rect y="47.7" x="56.5" height=".61" width="1.3"/>
<path d="m47 45h0.65q0.45 0 1-1.06l-0.37-0.61a1.6 1.6 0 0 0 -1.2 1.7z"/>
<path d="m37.4 43q-0.61 0.12-0.61 0.65v0.65l2 0.33 0.28-0.69-1.3-0.8z"/>
<path d="m67.3 44.9l-0.69-0.37h-0.28c-0.46 0.11-0.69 0.34-0.69 0.69v0.28a2.26 2.26 0 0 1 1 0.33z"/>
<path d="m55 21.8h1q-0.28-1.3-2-1.3h-0.33q0 0.5 1.3 1.3z"/>
<polygon points="58 33.2 57.4 32.9 56.7 33.9 57.4 34.3"/>
<path d="m49.5 27.9c0-0.46-0.22-0.69-0.65-0.69l-0.37 0.69v0.37h1z"/>
<path d="m60.7 32.9q-0.29 0-0.29 0.33a4.17 4.17 0 0 0 -2 -0.61q0 0.81 2.6 1.3h0.69q0-0.4-1-1z"/>
<path d="m79.8 33.4a2.77 2.77 0 0 1 1.06 -0.32v-0.7l-0.86 0.3z"/>
<path d="m63.7 36.9l-0.37 0.69h1q0-0.7-0.6-0.7z"/>
<path class="cls-2" d="m47.8 33.2h-0.46l0.46 0.31z"/>
<path d="m53.8 38.2l-0.33-0.61a3.77 3.77 0 0 1 -1.2 0.23l0.46 0.59z"/>
<rect y="29.5" x="67.5" height=".81" class="cls-2" width=".45"/>
<path class="cls-2" d="m60.3 33.4c0 0.33 0.19 0.49 0.49 0.49h0.2v-0.3a1.89 1.89 0 0 1 -0.24 -0.73 0.47 0.47 0 0 0 -0.5 0.5z"/>
<path class="cls-2" d="m69.3 25.9v-0.29h-0.53v0.73c0.3 0.1 0.5-0.1 0.5-0.4z"/>
<path class="cls-2" d="m52.5 54.3v0.28c0.05 0.35 0.23 0.53 0.53 0.53v-0.29a0.47 0.47 0 0 0 -0.5 -0.5z"/>
<path class="cls-2" d="m64.7 23.1h0.49v-0.29q0-0.36-0.77-0.81h-0.53q0.4 1.1 0.8 1.1z"/>
<path class="cls-2" d="m64.7 26.4h-0.53l-0.28 1.1q0.4 0 0.8-1.1z"/>
<path class="cls-2" d="m51.8 41.6h-0.24c-0.38 0-0.57 0.2-0.57 0.53v0.49h0.28c0.35 0 0.53-0.16 0.53-0.49a0.22 0.22 0 0 1 -0.24 -0.24c0.1 0 0.2-0.1 0.2-0.3z"/>
<path class="cls-2" d="m71.6 27.2v-0.24h-0.7q-0.41 0-0.81 0.77l0.53 0.24q1-0.5 1-0.8z"/>
<path class="cls-2" d="m50.2 37.8l-0.28 0.49h0.77a0.43 0.43 0 0 0 -0.5 -0.5z"/>
<path class="cls-2" d="m49.7 47.6l0.24-0.53v-1.3l1-0.24v-0.6a4.42 4.42 0 0 0 -3.29 1.75 6.07 6.07 0 0 0 2.1 0.8z"/>
<path class="cls-2" d="m59.5 22.8v0.53q0.37 0 0.81-0.77v-0.28h-0.3c-0.3 0.1-0.5 0.3-0.5 0.6z"/>
<path class="cls-2" d="m67.2 43.7l-0.29 0.53v0.53h0.29a0.53 0.53 0 0 0 0 -1.06z"/>
<path class="cls-2" d="m64.4 47.9q-0.16 0-1.26-1.3c-0.38 0.05-0.57 0.22-0.57 0.49v0.53q0.61 0 1.58 1h0.24l-0.24-0.53c0.2 0 0.3-0.1 0.3-0.2z"/>
<path class="cls-2" d="m72.2 45q0 0.37 0.77 0.73h0.77l0.2-1.2h-0.24a2.18 2.18 0 0 1 -1.6 0.5z"/>
<path class="cls-2" d="m59.8 48.1v0.29q0.08 0.53 0.53 0.53h0.49v-1a1.69 1.69 0 0 1 -0.77 -0.29z"/>
<path class="cls-2" d="m76 44.7l-0.24 0.49a0.54 0.54 0 0 0 0.37 0.5v-1z"/>
<path class="cls-2" d="m55.6 49.4l-0.53 0.73v0.28l0.24 0.49a1.4 1.4 0 0 0 1.1 -1z"/>
<path class="cls-2" d="m55.1 26.9h-0.77v0.77q0.4 0 0.8-0.8z"/>
<path class="cls-2" d="m55.1 35.7h-0.5q-0.57 0-0.81 1.26h0.81l0.73-0.53a1.88 1.88 0 0 1 -0.2 -0.8z"/>
<path class="cls-2" d="m57.9 54.6v0.53h-0.77l-1-0.81v0.28a3.69 3.69 0 0 0 2 1 0.25 0.25 0 0 1 0.29 -0.28 1.69 1.69 0 0 1 -0.29 -0.73z"/>
<path class="cls-2" d="m60.5 26.9h-1.5v0.24q0.16 0 1.54 0.29z"/>
<path class="cls-2" d="m57.2 26.6q0 0.37 0.77 0.81h0.24a0.47 0.47 0 0 0 0.53 -0.53l-0.53-0.28z"/>
<path d="m43.3 33.6l0.2-0.53v-0.24h-0.73v0.24c0 0.4 0.2 0.5 0.5 0.5z"/>
<path d="m77.8 54v0.28a1.9 1.9 0 0 1 1 0.53h0.28q0.45 0 0.45-0.53l-1.3-0.3z"/>
<path d="m76.2 45.7h0.16c0.33 0 0.49-0.18 0.49-0.53h-0.49v-0.2h0.6v-0.28h-0.89z"/>
<path d="m73.5 27.7h0.73l1.3-0.24v-0.53q0-0.24-1.79-1.58c0 0.19-0.08 0.28-0.24 0.28l0.24 0.53v1z"/>
<path d="m80.2 28h0.24a1.87 1.87 0 0 1 0.77 -0.24v-0.53h-0.24q-0.4-0.1-0.8 0.7z"/>
<path class="cls-2" d="m14.5 18.4q0 0.28 0.57 0.61l0.2-0.41-0.41-0.2z"/>
<path class="cls-2" d="m10.7 19l0.41-0.61-1.75-0.16a1.3 1.3 0 0 0 1.34 0.8z"/>
<path class="cls-1" d="m-0.38 3.54l0.6-0.12-0.46-0.59h-0.14z"/>
<path class="cls-2" d="m14 16v0.33a0.66 0.66 0 0 0 0.69 0.61h0.93q0.69 0 0.69-0.61l-1.38-0.69a2.07 2.07 0 0 1 -0.9 0.4z"/>
<rect y="12.7" x="4.03" height=".61" width="1.3"/>
<path d="m14.8 9.88l-0.69-0.37h-0.28c-0.46 0.11-0.69 0.34-0.69 0.69v0.28a2.26 2.26 0 0 1 1 0.33z"/>
<path d="m11.2 1.91l-0.37 0.69h1q0-0.69-0.6-0.69z"/>
<path d="m1.29 3.21-0.29-0.61a3.77 3.77 0 0 1 -1.2 0.23l0.46 0.59z"/>
<path class="cls-2" d="m0 19.3v0.28c0.05 0.35 0.23 0.53 0.53 0.53v-0.29a0.47 0.47 0 0 0 -0.53 -0.5z"/>
<path class="cls-2" d="m14.7 8.68l-0.29 0.53v0.53h0.29a0.47 0.47 0 0 0 0.53 -0.53 0.47 0.47 0 0 0 -0.5 -0.53z"/>
<path class="cls-2" d="m11.9 12.9q-0.16 0-1.26-1.3c-0.38 0.05-0.57 0.22-0.57 0.49v0.53q0.61 0 1.58 1h0.24l-0.24-0.53c0.2 0 0.3-0.1 0.3-0.2z"/>
<path class="cls-2" d="m19.7 10q0 0.37 0.77 0.73h0.77l0.24-1.26h-0.24a2.18 2.18 0 0 1 -1.6 0.56z"/>
<path class="cls-2" d="m7.27 13.1v0.29q0.08 0.53 0.53 0.53h0.49v-1a1.69 1.69 0 0 1 -0.77 -0.29z"/>
<path class="cls-2" d="m23.5 9.74l-0.24 0.49a0.54 0.54 0 0 0 0.37 0.5v-1z"/>
<path class="cls-2" d="m3.12 14.4l-0.53 0.73v0.28l0.24 0.49a1.4 1.4 0 0 0 1.1 -1z"/>
<path class="cls-2" d="m2.59 0.71h-0.49q-0.57 0-0.81 1.29h0.81l0.73-0.53a1.88 1.88 0 0 1 -0.24 -0.76z"/>
<path class="cls-2" d="m5.44 19.6v0.53h-0.78l-1-0.81v0.28a3.69 3.69 0 0 0 2 1 0.25 0.25 0 0 1 0.34 -0.3 1.69 1.69 0 0 1 -0.29 -0.73z"/>
<path d="m25.4 19v0.28a1.9 1.9 0 0 1 1 0.53h0.28q0.45 0 0.45-0.53l-1.4-0.3z"/>
<path d="m23.6 10.7h0.16c0.33 0 0.49-0.18 0.49-0.53h-0.49v-0.2h0.73v-0.26h-0.89z"/>
</pattern>
</defs>
<title>programma-bg_1</title>
<g data-name="Layer 2">
<g id="HOME">
<path transform="translate(-371 -894)" class="cls-2" d="m0 0"/>
<path transform="translate(-371 -894)" class="cls-3" d="m0 0"/>
<path transform="translate(-371 -894)" class="cls-4" d="m389 993c1.81-4.34 12-13.9 12.4-18.6 1-9.64-5.55-14.3 1.41-23.5a68.1 68.1 0 0 1 21.6 -18.9c10.6-5.85 22.6-9.32 35.2-12.1l0.84-0.18c1.25-0.27 2.48-0.58 3.71-0.94 45.2-13.2 96.3-12.5 135 1.6a43.9 43.9 0 0 1 4.84 1.85c0.65 0.26 1.31 0.51 1.95 0.78a15.4 15.4 0 0 1 5 3.32c0.71 0.54 1.39 1.1 2 1.69a54.2 54.2 0 0 1 16.3 27.8c2.49 10.9-1.32 24.7-20.1 31.5-8.34 3-26.5 17.5-52.9 35.6a117 117 0 0 1 -127 3.34 50.7 50.7 0 0 0 -20.9 -7.15c-5.19-0.56-9.88-2.35-12.9-5-0.33-0.21-0.67-0.42-1-0.65-9 10-9 0-6-7z"/>
<path transform="translate(-371 -894)" class="cls-5" d="m531 894c-8.46 0-17 0.43-25.5 1.27l1.58 15.9c7-0.69 14-1.08 21-1.17h3v-16zm-37.2 2.68a253 253 0 0 0 -25.1 4.94l3.88 15.5h0.14 0.08 0.18 0.18 0.06c7.52-1.86 15.2-3.34 22.9-4.46l-2.29-15.8zm-35.7 7.81-1.1 0.25-0.89 0.19a187 187 0 0 0 -22.6 6.22l5.31 15.1a168 168 0 0 1 19.1 -5.32h0.07 0.08l0.35-0.08h0.39 0.17 0.47 0.08l0.84-0.18 1.62-0.38-3.87-15.5zm-36.4 11.5c-1.75 0.83-3.47 1.72-5.12 2.62a82.4 82.4 0 0 0 -18.9 14.3l11.4 11.2 0.07-0.07q1.7-1.71 3.57-3.35l0.08-0.07 0.08-0.07 0.13-0.12 0.08-0.07v-1h0.05 0.05l0.08-0.07 0.08-0.06 0.07-0.06 0.09-0.07 0.09-0.07 0.32-0.24 0.09-0.07 0.33-0.24a65.5 65.5 0 0 1 6.77 -4.44l0.27-0.15 0.1-0.06 0.1-0.06h0.05 0.05 0.06l0.49-0.26h0.06 0.06 0.06 0.06l1.14-0.58 0.55-0.27h0.05 0.06 0.06l0.61-0.3-6.9-14.4zm-33 27.6c-7.39 11-5.13 20.6-3.92 25.8a13.5 13.5 0 0 1 0.61 4l11.3 1.12 4 1a4.77 4.77 0 0 0 0.15 -0.74s0 0 0 0v-0.07c-0.11-1-0.28-2-0.47-2.89-1.08-5-2.76-9.12 1.21-15l-13.3-8.93zm-6 31.3-0.94 1.16c-3.23 4-6 7.42-7.66 11.4-3.56 8.54-3.86 17.1-0.87 24.9l14.9-5.77c-1.53-4-1.15-8.29 0.57-12.6v-0.06h0.11l0.07-0.13a18.5 18.5 0 0 1 1.09 -1.73v-0.07-0.05-0.07h0.21v-0.05-0.05l0.07-0.09 0.07-0.09v-0.05-0.06h0.06v-0.05h0.11c1-1.26 2.1-2.62 3.2-4l-12.5-10zm12.5 39.8-10.6 12c5.48 4.83 13.2 8 21.8 8.93a33.6 33.6 0 0 1 6.57 1.39l4.85-15.2a49.6 49.6 0 0 0 -9.44 -2h-2c-5.19-0.56-9.88-2.35-12.9-5l-0.06 0.07v-0.08zm32.7 11.5-8 13.9 0.79 0.47a134 134 0 0 0 23.2 11.2l5.53-15h-0.07-0.06-0.07-0.07-0.06-0.07-0.06-0.06-0.07-0.06-0.07-0.06-0.06-0.07-0.06-0.07-0.06-0.06-0.07-0.05-0.07-0.06-0.06-0.07-0.05-0.07-0.06-0.06-0.07-0.05-0.07-0.06-0.05-0.07-0.05-0.07-0.06-0.06-0.07-0.05l-0.14-0.06h-0.06-0.07-0.06-0.07-0.07-0.06-0.07-0.07-0.07-0.07-0.06-0.07-0.07-0.07-0.07-0.07-0.08-0.07l-0.15-0.06h-0.07l-0.15-0.07-0.16-0.07h-0.08l-0.16-0.07a118 118 0 0 1 -14.7 -7.57l-1.13-0.67zm32 13.8-4.1 15.5a134 134 0 0 0 26.9 4.25l0.87-16q-1.76-0.1-3.52-0.25h-0.18-0.18-4q-2.56-0.27-5.1-0.66h-0.18-0.13-0.06-0.13-0.06-0.12-1.8-0.12-0.06-0.12-0.06q-4.86-0.86-9.65-2.13zm58.4 0.46a117 117 0 0 1 -18.2 3h-1.66q-1.95 0.14-3.89 0.22l0.62 16a134 134 0 0 0 27 -3.83l-3.85-15.5zm32.2-13.3a117 117 0 0 1 -14.9 7.57l-0.25 0.1-0.24 0.1-0.18 0.07h-0.05l-0.17 0.07-0.16 0.07h-0.05-0.1-0.08-0.06-0.06-0.07-0.05-0.07-0.05-0.06-0.08-0.06l-0.16 0.06h-0.07l-0.16 0.06h-0.07l-0.16 0.06h-0.08l-0.17 0.06-0.26 0.1q-1.31 0.49-2.62 1l5.29 15.1a133 133 0 0 0 24.6 -11.6l-8.25-13.7zm28-10c-4.36 3.11-9.1 6.49-14.2 10.1l-0.4 0.28h-0.05-0.07-0.07-0.07l-4.63 3.21 9.08 13.2c7.19-5 13.7-9.62 19.8-14l-9.3-13zm29.2-19.1a66.4 66.4 0 0 0 -10.8 6.21l-0.13 0.08-0.08 0.06-0.08 0.06c-2.58 1.73-5.42 3.72-8.54 5.92l9.24 13.1c3.71-2.62 13.6-9.6 17-10.9l-5.91-14.9zm22-28c-0.23 6.79-3.18 13.9-10.6 19.4l-0.09 0.07h-0.49-0.05l-0.13 0.09 9 13.2c11.5-7.84 18-19.4 18.5-32.7l-16-0.54zm-2-42.2l-12 11a55.3 55.3 0 0 1 7.81 10.8v0.08 0.08 0.07 0.07 2.02 0.07 0.07 4.57 0.08 0.08 0.08 0.08 0.08 0.08 0.08q0.51 1.36 0.94 2.74l15.3-4.78a69.7 69.7 0 0 0 -15.5 -26.6zm-39-20l-4.12 15.5q4.62 1.23 9.07 2.69h0.12l0.18 0.06h0.11 0.1l0.17 0.06h0.08 0.07 0.06 0.07 0.06 0.07 0.07 0.06 0.07 0.08 0.08 0.07 0.07 0.08 0.08 0.07 0.08 0.09 0.09 0.08 0.09 0.09 0.09 0.09 0.09 0.09 0.09 0.09 0.09 0.09 0.09 0.09 0.09 0.09 0.09 0.1a43.9 43.9 0 0 1 4.84 1.85l0.57 0.23 0.19 0.08 0.65 0.26h0.06 0.07l0.27 0.11h0.1a16.6 16.6 0 0 1 1.95 1l8.18-13.8a32.7 32.7 0 0 0 -4 -2l-1.56-0.63-0.35-0.14a60.1 60.1 0 0 0 -5.91 -2.26c-4.74-1.71-9.72-3.26-14.8-4.62zm-37.2-6.38-1.37 15.9a209 209 0 0 1 23.8 3.39l3.19-15.7a226 226 0 0 0 -25.6 -3.66zm-21.3-0.91v16q4 0 7.95 0.13h0.51 0.49l0.61-16c-3.16-0.12-6.37-0.18-9.55-0.18z"/>
<path transform="translate(-371 -894)" class="cls-6" d="m416 1.04e3l-11.8-12.4a5.34 5.34 0 0 1 2.75 -7.58s94.9-44 99.8-43.8c6.93 0.29-7.78 16.1-7.06 17.7l1.67 4.34c0.7 1.6 0.61 3.28-0.21 3.74l-77.5 40.5a5.62 5.62 0 0 1 -8 0z"/>
<path transform="translate(-371 -894)" class="cls-6" d="m430 1.07e3l-12.8-10.9a6.16 6.16 0 0 1 1.42 -8.52l87.3-53.6c0.79-0.54 8.07-8.89 9.19-7.5 0 0 5.46 9.53 13.6 13.3s-90.5 68.2-90.5 68.2a5.28 5.28 0 0 1 -8 0z"/>
<rect transform="translate(-867 -508) rotate(-32.8)" rx="6" ry="6" height="12" width="30" y="1.03e3" x="392" class="cls-7"/>
<rect transform="translate(-961 -366) rotate(-40.4)" rx="6" ry="6" height="12" width="30" y="1.06e3" x="406" class="cls-7"/>
<path d="m418 1.03e3c4 5.11 7.46 9.5 5 11.6-3.55 3-13.8-2-16.9-8.69s-3.16-13.2-0.2-14.6 8 10 12 10z" transform="translate(-371 -894)"/>
<path d="m431 1.06e3c4.76 5.92 7.81 11.6 5.32 13.6s-8.38-1.16-13.1-7.08-8.59-10.9-4.11-14.4c3 0 7 0 12 10z" transform="translate(-371 -894)"/>
<path transform="translate(-371 -894)" class="cls-2" d="m640 937l-37.9 30a18.1 18.1 0 0 0 -1.13 -1.79c-2.94-4.24-12-14.8-30.8-18.2l37.9-27.4s25-2 32 17z"/>
<path transform="translate(-371 -894)" class="cls-2" d="m601 966-3 2a10.7 10.7 0 0 0 -0.81 -1.73c-5.44-9.46-26.6-18.3-27.3-18.6 19 4 28 14 31 19z"/>
<path transform="translate(-371 -894)" class="cls-2" d="m608 920l-37.9 27.4c-7-12.6-21.3-14-27.9-13.9a31.3 31.3 0 0 0 -3.52 0.23l37.1-28c25-4 33 15 33 15z"/>
<path transform="translate(-371 -894)" class="cls-2" d="m597 966-2 2c-6.74-11.9-24.4-20.4-25-20.7 1 1 22 9 27 19z"/>
<path transform="translate(-371 -894)" class="cls-2" d="m570 947a47.8 47.8 0 0 0 -31.5 -8.44l2.55-2.6c6 0 19 0 29 11z"/>
<path transform="translate(-371 -894)" class="cls-2" d="m570 947c-9.73-11-23-11.5-29-11a27.3 27.3 0 0 0 -3.07 0.38l4.13-3.2c7 0 21 2 28 14z"/>
<path transform="translate(-371 -894)" class="cls-8" d="m608 920s25.2-2.33 31.9 17.4l-37.9 30a18.1 18.1 0 0 0 -1.13 -1.79c-2.94-4.24-12-14.8-30.8-18.2"/>
<path transform="translate(-371 -894)" class="cls-8" d="m608 920s-7.33-18.4-32.2-14.2l-37.1 28a31.3 31.3 0 0 1 3.52 -0.23c6.63-0.11 20.9 1.22 27.9 13.9z"/>
<path transform="translate(-371 -894)" class="cls-8" d="m570 947c0.7 0.29 21.9 9.12 27.3 18.6a10.7 10.7 0 0 1 0.81 1.73l2.63-2.08"/>
<path transform="translate(-371 -894)" class="cls-8" d="m542 933l-4.13 3.2a27.3 27.3 0 0 1 3.07 -0.38c5.93-0.43 19.2 0 29 11"/>
<path transform="translate(-371 -894)" class="cls-8" d="m541 936l-2.55 2.6a47.8 47.8 0 0 1 31.5 8.44c0.55 0.26 18.2 8.73 25 20.7l2.36-2.08"/>
<path transform="translate(-371 -894)" class="cls-8" d="m608 925s16.8-0.17 21.4 11.4"/>
<path transform="translate(-371 -894)" class="cls-8" d="m605 929s16.4 0.5 20.2 11.3"/>
<path transform="translate(-371 -894)" class="cls-8" d="m598 933s7.77-0.12 10.9 3.16"/>
<path transform="translate(-371 -894)" class="cls-8" d="m593 936s6.31 0 9.38 2.85"/>
<path transform="translate(-371 -894)" class="cls-8" d="m595 951 15-11s4.45-0.51 7.3 6.87l-14 11s-2-4-8-7z"/>
<path transform="translate(-371 -894)" class="cls-9" d="m531 1e3l-35.4-21.9a6 6 0 0 1 -1.77 -8.28l43.6-31.1a16.6 16.6 0 0 1 22.9 -4.89 16.6 16.6 0 0 1 4 26l-27.1 41.8a5.18 5.18 0 0 1 -7 0z"/>
<path transform="translate(-371 -894)" class="cls-10" d="m594 927c-6.3-14.4-9.46-21.7-15.2-23.9a16.4 16.4 0 0 0 -10.4 -0.86c-10.7 3-18.6 19.4-13 31.6 3.58 7.84 12.9 14.4 19.2 12.5 6.5-2 10.1-13 16.7-12.8 0.78 0 2.46 0.23 3.31-0.77 1 0-1-3-1-5z"/>
<path transform="translate(-371 -894)" class="cls-11" d="m586 923s-4.27 3.64-8.39 0.67"/>
<path transform="translate(-371 -894)" class="cls-11" d="m581 941a11 11 0 0 1 -5.13 -2.83c-0.24-0.21-0.46-0.43-0.66-0.64"/>
<path transform="translate(-371 -894)" class="cls-2" d="m581 974a19.7 19.7 0 0 1 -14.9 -6.09 20.2 20.2 0 0 1 -4.33 -7.19l9.31-2.35a10 10 0 0 0 9.94 6.09 19.2 19.2 0 0 0 2.59 -0.19c11-2 13-14 13-14a4.8 4.8 0 0 1 4.71 -4 4.72 4.72 0 0 1 0.73 0.06 4.77 4.77 0 0 1 4 5.43 29.5 29.5 0 0 1 -3.68 9.78 23.9 23.9 0 0 1 -18 12 29 29 0 0 1 -4 0z"/>
<path d="m601 948a4 4 0 0 1 0.6 0 3.93 3.93 0 0 1 3.29 4.47 28.5 28.5 0 0 1 -3.58 9.48 23.1 23.1 0 0 1 -17.2 11.5 28.3 28.3 0 0 1 -3.83 0.27 18.9 18.9 0 0 1 -14.2 -5.83 19.6 19.6 0 0 1 -3.83 -6l7.73-1.95a10.8 10.8 0 0 0 10.4 5.95 20 20 0 0 0 2.71 -0.19c11.9-1.64 14-14.2 14-14.4a4 4 0 0 1 3.87 -3.33m0-1.68a5.61 5.61 0 0 0 -5.54 4.76c0 0.11-1.88 11.5-12.6 13a18.3 18.3 0 0 1 -2.48 0.18 9.19 9.19 0 0 1 -9.45 -6.33v0.08l-10.9 2.74a20.4 20.4 0 0 0 20.2 14.7 29.8 29.8 0 0 0 4.05 -0.29 24.7 24.7 0 0 0 18.4 -12.3 30.4 30.4 0 0 0 5 -12 5.61 5.61 0 0 0 -5.55 -6.46z" transform="translate(-371 -894)"/>
<path transform="translate(-371 -894)" class="cls-12" d="m571 956s-2.67-9.86-11.3-6.35c-6.44 2.62-3.23 9.12-1.17 12.3a3.72 3.72 0 0 0 3.75 1.64c2-1 6-3 8-8z"/>
<path transform="translate(-371 -894)" class="cls-13" d="m540 920c-0.25-7.76 0.41-19.6 12-24.3 14.2-5.64 39.9 4.72 34.1 9.81-1.33 1.16-2.49 2.46-2.45 4.33 0.45 20.8-15.6 17.7-16 28.5 0.28 12-2.64 15.8-5.44 17.5-3.14 1.88-4.73 5-3.91 8 2.68 9.84 4.63 12.2 0.07 18.8-7 10.1-24.2 1.15-46.7 15.4-12.7 8.06-14.4 18.7-22.4 18.2-6.76-0.43-14-8.66-12.6-15.4 2.39-11 26-9.65 31.4-21.7 5.09-11.5-12.8-20.4-8.07-33.6a20.2 20.2 0 0 1 6.74 -8.74 36.4 36.4 0 0 1 18.2 -7.12c6-1 15-5 15-10z"/>
<path transform="translate(-371 -894)" class="cls-2" d="m574 931c0.17-0.19-1.61-5.19-3.56-5.71a1.79 1.79 0 0 0 -1.07 0c-1.5 0.52-2.09 3.19-0.9 5.57 1.09 2.17 3.71 3.24 4 2.84l2-2z"/>
<path transform="translate(-371 -894)" class="cls-12" d="m570 928a8.25 8.25 0 0 1 1.27 2.32"/>
<path transform="translate(-371 -894)" class="cls-14" d="m543 970c-0.3 0.06-0.46-14.8 3.9-20.9 1.05-1.46 2.93-1.93 3.81-4.62 1.38-4.25 2.23-8.08 2.54-8s2.2 10.1-3.11 13.6c-2.43 1.58-2.47 2.47-4 5.26-3 6-2 15-3 15z"/>
<path transform="translate(-371 -894)" class="cls-15" d="m504 997c-1.27-0.27-8.63 11.3-13.8 11.9-6.28 0.79-6.36-3.34-7.16-3s1 6.26 4.95 6.79c4.35 0.58 11-6.75 11.7-7.49 3-10 4-12 4-13z"/>
<path transform="translate(-371 -894)" class="cls-2" d="m479 982h0.24c0.29 0 0.43-0.16 0.43-0.48-0.16 0-0.24-0.06-0.24-0.19a1.83 1.83 0 0 1 0.72 -0.24v-0.24h-0.24a1.09 1.09 0 0 0 -1 1z"/>
<path transform="translate(-371 -894)" class="cls-2" d="m490 928h1.15q-0.33-1.53-2.3-1.53h-0.38q0 1 1 2z"/>
<path transform="translate(-371 -894)" class="cls-2" d="m442 967a3.26 3.26 0 0 1 1.25 -0.38v-0.82c-0.33 0.13-0.67 0.24-1 0.36z"/>
<path transform="translate(-371 -894)" class="cls-2" d="m434 946q-0.19 0-1.48-1.53c-0.45 0.06-0.67 0.26-0.67 0.57v0.62q0.72 0 1.87 1.2h0.29l-0.29-0.62c-1 0 0 0 0 0z"/>
<path transform="translate(-371 -894)" class="cls-2" d="m582 993l0.49-0.59q0.34-0.4-0.19-1.72l-0.83-0.13a1.88 1.88 0 0 0 1 3z"/>
<path transform="translate(-371 -894)" class="cls-2" d="m511 1.03e3l-0.29-0.62-1.18-1 0.54-1.1-0.44-0.37a5.2 5.2 0 0 0 -0.9 4.3 7.14 7.14 0 0 0 2 0z"/>
</g>
</g>
</svg>
