<svg xmlns="http://www.w3.org/2000/svg" xmlns:xlink="http://www.w3.org/1999/xlink" viewBox="0 0 274.71 184.49"><defs><style>.cls-1,.cls-11,.cls-3,.cls-8{fill:none;}.cls-10,.cls-12,.cls-14,.cls-15,.cls-2,.cls-6,.cls-9{fill:#fff;}.cls-10,.cls-11,.cls-12,.cls-13,.cls-14,.cls-15,.cls-3,.cls-6,.cls-7,.cls-8,.cls-9{stroke:#000;}.cls-10,.cls-11,.cls-12,.cls-14,.cls-15,.cls-3,.cls-6,.cls-7,.cls-9{stroke-miterlimit:10;}.cls-3{stroke-width:0.98px;}.cls-4{fill:#88aeea;}.cls-5{fill:url(#New_Pattern_2);}.cls-6,.cls-7,.cls-8{stroke-width:2px;}.cls-11,.cls-12,.cls-13,.cls-8,.cls-9{stroke-linecap:round;}.cls-13,.cls-8{stroke-linejoin:round;}.cls-9{stroke-width:2.02px;}.cls-10,.cls-11,.cls-12{stroke-width:1.68px;}.cls-13{stroke-width:0.79px;}.cls-14{stroke-width:1.53px;}.cls-15{stroke-width:1.24px;}</style><pattern id="New_Pattern_2" data-name="New Pattern 2" width="105" height="70" patternUnits="userSpaceOnUse" viewBox="0 0 105 70"><rect class="cls-1" width="105" height="70"/><path class="cls-2" d="M81.45,68.86V69h.41a1.3,1.3,0,0,1,.2-.57h-.2Q81.45,68.54,81.45,68.86Z"/><path class="cls-2" d="M99,68.94h1.3v-.38l-.46-.31H99Z"/><path d="M102,62.87c0-.46-.22-.69-.65-.69l-.37.69v.37h1Z"/><path class="cls-2" d="M100.31,68.25h-.46l.46.31Z"/><path d="M95.8,68.64l.2-.53v-.24h-.73v.24C95.3,68.46,95.48,68.64,95.8,68.64Z"/><path d="M2.53,56.77h1q-.28-1.3-2-1.3H1.23Q1.23,56,2.53,56.77Z"/><polygon points="5.52 68.25 4.87 67.93 4.22 68.94 4.87 69.31 5.52 68.25"/><path d="M8.16,67.93q-.29,0-.29.33a4.17,4.17,0,0,0-2-.61q0,.81,2.6,1.3h.69Q9.18,68.46,8.16,67.93Z"/><path d="M27.26,68.44a2.77,2.77,0,0,1,1.06-.32v-.7l-.86.3Z"/><rect class="cls-2" x="15.03" y="64.49" width="0.45" height="0.81"/><path class="cls-2" d="M7.79,68.39c0,.33.19.49.49.49h.24V68.6a1.89,1.89,0,0,1-.24-.73A.47.47,0,0,0,7.79,68.39Z"/><path class="cls-2" d="M16.82,60.91v-.29h-.53v.73C16.64,61.36,16.82,61.21,16.82,60.91Z"/><path class="cls-2" d="M12.18,58.07h.49v-.29q0-.36-.77-.81h-.53Q11.82,58.07,12.18,58.07Z"/><path class="cls-2" d="M12.18,61.36h-.53l-.28,1.1Q11.82,62.46,12.18,61.36Z"/><path class="cls-2" d="M19.13,62.17v-.24H18.4q-.41,0-.81.77l.53.24Q19.13,62.54,19.13,62.17Z"/><path class="cls-2" d="M7,57.78v.53q.37,0,.81-.77v-.28H7.51C7.16,57.34,7,57.51,7,57.78Z"/><path class="cls-2" d="M2.59,61.93H1.82v.77Q2.22,62.7,2.59,61.93Z"/><path class="cls-2" d="M8,61.93H6.49v.24q.16,0,1.54.29Z"/><path class="cls-2" d="M4.66,61.65q0,.37.77.81h.24a.47.47,0,0,0,.53-.53l-.53-.28Z"/><path d="M21,62.7h.73l1.3-.24v-.53q0-.24-1.79-1.58c0,.19-.08.28-.24.28l.24.53v1Z"/><path d="M27.67,62.95h.24a1.87,1.87,0,0,1,.77-.24v-.53h-.24Q28.08,62.17,27.67,62.95Z"/><path class="cls-2" d="M88.49,2.6q0-.49-1-1.06V2.6a3.14,3.14,0,0,1,1,.24Z"/><path class="cls-2" d="M90.42,16.32l.37-.69v-.33h-1v.33Q89.89,16.32,90.42,16.32Z"/><path class="cls-2" d="M103.28,3.21c0-.33-.43-.65-1.3-1q-2,.77-2,1.3a2.11,2.11,0,0,1,1,.37A19.92,19.92,0,0,1,103.28,3.21Z"/><path class="cls-1" d="M104.62,3.54l.6-.12-.46-.59h-.15Z"/><path class="cls-1" d="M103.61,6.83a2.78,2.78,0,0,1,1-.33.58.58,0,0,0-.65-.65c-.46.05-.69.27-.69.65A.29.29,0,0,1,103.61,6.83Z"/><path class="cls-2" d="M89.5,12.11a2.07,2.07,0,0,1,.94-.37q0-.73-2.93-1.3v.37A2.16,2.16,0,0,0,89.5,12.11Z"/><path class="cls-1" d="M83.44,4.53v.61h.61q0-1,.69-1V3.84h-1Z"/><path class="cls-2" d="M88.18,15.63v-.33H87.12v1h.37A.61.61,0,0,0,88.18,15.63Z"/><path class="cls-2" d="M88.81,6.5c.08.43.31.65.69.65l1.63-.33a2.5,2.5,0,0,0,1,.33V6.83l-.33-.69A14.86,14.86,0,0,1,88.81,6.5Z"/><path d="M99.48,10h.65q.45,0,1-1.06l-.37-.61A1.6,1.6,0,0,0,99.48,10Z"/><path d="M89.95,8q-.61.12-.61.65v.65l2,.33.28-.69L90.27,8Z"/><path d="M106.29,3.21,106,2.6a3.77,3.77,0,0,1-1.2.23l.46.59Z"/><path class="cls-2" d="M104.26,6.65H104c-.38,0-.57.2-.57.53v.49h.28c.35,0,.53-.16.53-.49a.22.22,0,0,1-.24-.24C104.18,6.93,104.26,6.84,104.26,6.65Z"/><path class="cls-2" d="M102.71,2.78l-.28.49h.77A.43.43,0,0,0,102.71,2.78Z"/><path class="cls-2" d="M102.18,12.58l.24-.53v-1.3l1-.24V10a4.42,4.42,0,0,0-3.29,1.75A6.07,6.07,0,0,0,102.18,12.58Z"/><path class="cls-2" d="M36,37.6q0-.49-1-1.06V37.6a3.14,3.14,0,0,1,1,.24Z"/><path class="cls-2" d="M29,33.86V34h.41a1.3,1.3,0,0,1,.2-.57h-.2Q29,33.54,29,33.86Z"/><path class="cls-2" d="M67,53.35q0,.28.57.61l.2-.41-.41-.2Z"/><path class="cls-2" d="M63.22,54l.41-.61-1.75-.16A1.3,1.3,0,0,0,63.22,54Z"/><path class="cls-2" d="M37.92,51.32l.37-.69v-.33h-1v.33Q37.39,51.32,37.92,51.32Z"/><path class="cls-2" d="M46.51,33.94h1.3v-.38l-.46-.31h-.84Z"/><path class="cls-2" d="M50.78,38.21c0-.33-.43-.65-1.3-1q-2,.77-2,1.3a2.11,2.11,0,0,1,1,.37A19.92,19.92,0,0,1,50.78,38.21Z"/><path class="cls-1" d="M52.12,38.54l.6-.12-.46-.59h-.15Z"/><path class="cls-1" d="M51.11,41.83a2.78,2.78,0,0,1,1-.33.58.58,0,0,0-.65-.65c-.46.05-.69.27-.69.65A.29.29,0,0,1,51.11,41.83Z"/><path class="cls-2" d="M37,47.11a2.07,2.07,0,0,1,.94-.37q0-.73-2.93-1.3v.37A2.16,2.16,0,0,0,37,47.11Z"/><path class="cls-1" d="M30.94,39.53v.61h.61q0-1,.69-1v-.33h-1Z"/><path class="cls-2" d="M66.47,51v.33a.66.66,0,0,0,.69.61h.93q.69,0,.69-.61l-1.38-.69A2.07,2.07,0,0,1,66.47,51Z"/><path class="cls-2" d="M35.68,50.63v-.33H34.62v1H35A.61.61,0,0,0,35.68,50.63Z"/><path class="cls-2" d="M36.31,41.5c.08.43.31.65.69.65l1.63-.33a2.5,2.5,0,0,0,1,.33v-.33l-.33-.69A14.86,14.86,0,0,1,36.31,41.5Z"/><rect x="56.53" y="47.73" width="1.3" height="0.61"/><path d="M47,45h.65q.45,0,1-1.06l-.37-.61A1.6,1.6,0,0,0,47,45Z"/><path d="M37.45,43q-.61.12-.61.65v.65l2,.33.28-.69L37.77,43Z"/><path d="M67.31,44.88l-.69-.37h-.28c-.46.11-.69.34-.69.69v.28a2.26,2.26,0,0,1,1,.33Z"/><path d="M55,21.77h1q-.28-1.3-2-1.3h-.33Q53.73,21,55,21.77Z"/><polygon points="58.02 33.25 57.37 32.93 56.72 33.94 57.37 34.31 58.02 33.25"/><path d="M49.54,27.87c0-.46-.22-.69-.65-.69l-.37.69v.37h1Z"/><path d="M60.66,32.93q-.29,0-.29.33a4.17,4.17,0,0,0-2-.61q0,.81,2.6,1.3h.69Q61.68,33.46,60.66,32.93Z"/><path d="M79.76,33.44a2.77,2.77,0,0,1,1.06-.32v-.7l-.86.3Z"/><path d="M63.67,36.91l-.37.69h1Q64.28,36.91,63.67,36.91Z"/><path class="cls-2" d="M47.81,33.25h-.46l.46.31Z"/><path d="M53.79,38.21l-.33-.61a3.77,3.77,0,0,1-1.2.23l.46.59Z"/><rect class="cls-2" x="67.53" y="29.49" width="0.45" height="0.81"/><path class="cls-2" d="M60.29,33.39c0,.33.19.49.49.49H61V33.6a1.89,1.89,0,0,1-.24-.73A.47.47,0,0,0,60.29,33.39Z"/><path class="cls-2" d="M69.32,25.91v-.29h-.53v.73C69.14,26.36,69.32,26.21,69.32,25.91Z"/><path class="cls-2" d="M52.53,54.29v.28c.05.35.23.53.53.53v-.29A.47.47,0,0,0,52.53,54.29Z"/><path class="cls-2" d="M64.68,23.07h.49v-.29q0-.36-.77-.81h-.53Q64.32,23.07,64.68,23.07Z"/><path class="cls-2" d="M64.68,26.36h-.53l-.28,1.1Q64.32,27.46,64.68,26.36Z"/><path class="cls-2" d="M51.76,41.65h-.24c-.38,0-.57.2-.57.53v.49h.28c.35,0,.53-.16.53-.49a.22.22,0,0,1-.24-.24C51.68,41.93,51.76,41.84,51.76,41.65Z"/><path class="cls-2" d="M71.63,27.17v-.24H70.9q-.41,0-.81.77l.53.24Q71.63,27.54,71.63,27.17Z"/><path class="cls-2" d="M50.21,37.78l-.28.49h.77A.43.43,0,0,0,50.21,37.78Z"/><path class="cls-2" d="M49.68,47.58l.24-.53v-1.3l1-.24V45a4.42,4.42,0,0,0-3.29,1.75A6.07,6.07,0,0,0,49.68,47.58Z"/><path class="cls-2" d="M59.48,22.78v.53q.37,0,.81-.77v-.28H60C59.66,22.34,59.48,22.51,59.48,22.78Z"/><path class="cls-2" d="M67.24,43.68l-.29.53v.53h.29a.53.53,0,0,0,0-1.06Z"/><path class="cls-2" d="M64.4,47.87q-.16,0-1.26-1.3c-.38.05-.57.22-.57.49v.53q.61,0,1.58,1h.24l-.24-.53C64.32,48.07,64.4,48,64.4,47.87Z"/><path class="cls-2" d="M72.16,45q0,.37.77.73h.77L74,44.49h-.24A2.18,2.18,0,0,1,72.16,45Z"/><path class="cls-2" d="M59.77,48.07v.29q.08.53.53.53h.49v-1a1.69,1.69,0,0,1-.77-.29Z"/><path class="cls-2" d="M76,44.74l-.24.49a.54.54,0,0,0,.37.5v-1Z"/><path class="cls-2" d="M55.62,49.41l-.53.73v.28l.24.49a1.4,1.4,0,0,0,1.1-1Z"/><path class="cls-2" d="M55.09,26.93h-.77v.77Q54.72,27.7,55.09,26.93Z"/><path class="cls-2" d="M55.09,35.71H54.6q-.57,0-.81,1.26h.81l.73-.53A1.88,1.88,0,0,1,55.09,35.71Z"/><path class="cls-2" d="M57.94,54.57v.53h-.77l-1-.81v.28a3.69,3.69,0,0,0,2,1,.25.25,0,0,1,.29-.28,1.69,1.69,0,0,1-.29-.73Z"/><path class="cls-2" d="M60.54,26.93H59v.24q.16,0,1.54.29Z"/><path class="cls-2" d="M57.16,26.65q0,.37.77.81h.24a.47.47,0,0,0,.53-.53l-.53-.28Z"/><path d="M43.3,33.64l.2-.53v-.24h-.73v.24C42.8,33.46,43,33.64,43.3,33.64Z"/><path d="M77.85,54v.28a1.9,1.9,0,0,1,1,.53h.28q.45,0,.45-.53L78.34,54Z"/><path d="M76.15,45.73l.16,0c.33,0,.49-.18.49-.53h-.49V45H77v-.28h-.89Z"/><path d="M73.46,27.7h.73l1.3-.24v-.53q0-.24-1.79-1.58c0,.19-.08.28-.24.28l.24.53v1Z"/><path d="M80.17,27.95h.24a1.87,1.87,0,0,1,.77-.24v-.53h-.24Q80.58,27.17,80.17,27.95Z"/><path class="cls-2" d="M14.46,18.35q0,.28.57.61l.2-.41-.41-.2Z"/><path class="cls-2" d="M10.72,19l.41-.61-1.75-.16A1.3,1.3,0,0,0,10.72,19Z"/><path class="cls-1" d="M-.38,3.54l.6-.12-.46-.59H-.38Z"/><path class="cls-2" d="M14,16v.33a.66.66,0,0,0,.69.61h.93q.69,0,.69-.61l-1.38-.69A2.07,2.07,0,0,1,14,16Z"/><rect x="4.03" y="12.73" width="1.3" height="0.61"/><path d="M14.81,9.88l-.69-.37h-.28c-.46.11-.69.34-.69.69v.28a2.26,2.26,0,0,1,1,.33Z"/><path d="M11.17,1.91l-.37.69h1Q11.78,1.91,11.17,1.91Z"/><path d="M1.29,3.21,1,2.6a3.77,3.77,0,0,1-1.2.23l.46.59Z"/><path class="cls-2" d="M0,19.29v.28c.05.35.23.53.53.53v-.29A.47.47,0,0,0,0,19.29Z"/><path class="cls-2" d="M14.74,8.68l-.29.53v.53h.29a.47.47,0,0,0,.53-.53A.47.47,0,0,0,14.74,8.68Z"/><path class="cls-2" d="M11.9,12.87q-.16,0-1.26-1.3c-.38.05-.57.22-.57.49v.53q.61,0,1.58,1h.24l-.24-.53C11.82,13.07,11.9,13,11.9,12.87Z"/><path class="cls-2" d="M19.66,10q0,.37.77.73h.77l.24-1.26h-.24A2.18,2.18,0,0,1,19.66,10Z"/><path class="cls-2" d="M7.27,13.07v.29q.08.53.53.53h.49v-1a1.69,1.69,0,0,1-.77-.29Z"/><path class="cls-2" d="M23.53,9.74l-.24.49a.54.54,0,0,0,.37.5v-1Z"/><path class="cls-2" d="M3.12,14.41l-.53.73v.28l.24.49a1.4,1.4,0,0,0,1.1-1Z"/><path class="cls-2" d="M2.59.71H2.1Q1.53.71,1.29,2H2.1l.73-.53A1.88,1.88,0,0,1,2.59.71Z"/><path class="cls-2" d="M5.44,19.57v.53H4.66l-1-.81v.28a3.69,3.69,0,0,0,2,1A.25.25,0,0,1,6,20.31a1.69,1.69,0,0,1-.29-.73Z"/><path d="M25.35,19v.28a1.9,1.9,0,0,1,1,.53h.28q.45,0,.45-.53L25.84,19Z"/><path d="M23.65,10.73l.16,0c.33,0,.49-.18.49-.53h-.49V10h.73V9.74h-.89Z"/></pattern></defs><title>programma-bg_2</title><g id="Layer_2" data-name="Layer 2"><g id="HOME"><path class="cls-2" d="M0,0" transform="translate(-371.03 -893.67)"/><path class="cls-3" d="M0,0" transform="translate(-371.03 -893.67)"/><path class="cls-4" d="M388.71,993.29c1.81-4.34,12-13.92,12.43-18.6,1-9.64-5.55-14.33,1.41-23.51a68.06,68.06,0,0,1,21.57-18.87c10.64-5.85,22.61-9.32,35.18-12.06l.84-.18c1.25-.27,2.48-.58,3.71-.94,45.15-13.21,96.29-12.48,135.09,1.6a43.88,43.88,0,0,1,4.84,1.85c.65.26,1.31.51,1.95.78a15.43,15.43,0,0,1,5,3.32c.71.54,1.39,1.1,2,1.69a54.17,54.17,0,0,1,16.34,27.78c2.49,10.89-1.32,24.74-20.14,31.51-8.34,3-26.49,17.53-52.94,35.58a117.37,117.37,0,0,1-127.13,3.34h0a50.7,50.7,0,0,0-20.88-7.15c-5.19-.56-9.88-2.35-12.9-5-.33-.21-.67-.42-1-.65C386.46,1008.21,385.62,1000.69,388.71,993.29Z" transform="translate(-371.03 -893.67)"/><path class="cls-5" d="M530.78,893.67c-8.46,0-17.05.43-25.54,1.27l1.58,15.92c7-.69,14-1.08,21-1.17h3v-16Zm-37.17,2.68a253.42,253.42,0,0,0-25.13,4.94l3.88,15.52.14,0h.08l.18,0h0l.18,0h0l.06,0h0c7.52-1.86,15.17-3.34,22.87-4.46l-2.29-15.84Zm-35.74,7.81-1.1.25-.89.19a187.09,187.09,0,0,0-22.61,6.22l5.31,15.09a168.24,168.24,0,0,1,19.09-5.32h0l.07,0h.08l.35-.08h.39l.17,0h.47l.08,0h0l.84-.18,1.62-.38-3.87-15.52Zm-36.36,11.5c-1.75.83-3.47,1.72-5.12,2.62a82.39,82.39,0,0,0-18.89,14.3l11.38,11.25,0,0h0l.07-.07h0q1.7-1.71,3.57-3.35h0l.08-.07h0l.08-.07h0l.13-.12h0l.08-.07h0L413,940h0l.05,0h0l0,0h0l.05,0h0l.08-.07h0l.08-.06h0l.07-.06h0l0,0h0l0,0h0l0,0h0l0,0h0l0,0h0l0,0h0l0,0h0l0,0,0,0,0,0h0l0,0,0,0,0,0h0l0,0,0,0h0l0,0,0,0,0,0,0,0,0,0h0l0,0h0l0,0h0l0,0,0,0,0,0h0l0,0,0,0,0,0h0l0,0,0,0,0,0h0l0,0h0l0,0h0l0,0h0l0,0h0l0,0h0l0,0h0l0,0h0l0,0h0l0,0h0l0,0h0l0,0h0l0,0h0l0,0h0l0,0h0l0,0h0l0,0h0l0,0h0l0,0h0l0,0h0l0,0h0l0,0h0l0,0h0l0,0h0l.09-.07h0l.09-.07h0l.32-.24h0l.09-.07h0l.33-.24h0a65.46,65.46,0,0,1,6.77-4.44h0l.27-.15h0l.1-.06h0l.1-.06h0l.05,0h0l0,0h0l.05,0h0l0,0h0l0,0h0l0,0h0l0,0h0l0,0h0l.06,0h0l0,0,0,0,0,0,0,0,0,0,0,0,0,0,0,0,0,0,0,0,0,0,0,0,0,0,0,0,0,0,0,0h0l0,0h0l0,0h0l0,0h0l0,0h0l.49-.26h0l.06,0h0l.06,0h0l.06,0h0l.06,0h0l1.14-.58h0l.55-.27h0l0,0,0,0h0l0,0h0l.05,0h0l.06,0h0l.06,0h0l.61-.3-6.9-14.44Zm-33,27.63c-7.39,11-5.13,20.65-3.92,25.84a13.47,13.47,0,0,1,.61,4h0l11.29,1.12L401,975.5a4.77,4.77,0,0,0,.15-.74h0v0h0v0h0v0h0v0h0v0h0v0h0v0h0v0h0v0h0v0h0v0h0v0h0v0h0v0h0v0h0v0h0v0h0v0h0v0h0v0h0v0h0v0h0v0h0v0h0v0h0v0h0v0h0v0h0v0h0v0h0v0h0v0h0v0h0v0h0v0h0v0h0v0h0s0,0,0,0h0v0h0v0h0v0h0v0h0v0h0v0h0v0h0v0h0v0h0v0h0v0h0v0h0v0h0v0h0v0h0v0h0v0h0v0h0v0h0v0h0v0h0v0h0v0h0v0h0v0h0v0h0v0h0v0h0v0h0v0h0v0h0v0h0v0h0v0h0v0h0v0h0v0h0v0h0v0h0v0h0v0h0v0h0v0h0v0h0v0h0v0h0v0h0v-.07h0v0h0v0h0v0h0v0h0v0h0c-.11-1-.28-2-.47-2.89h0v0h0v0h0v0h0v0h0c-1.08-5-2.76-9.12,1.21-15l-13.28-8.93Zm-6,31.32-.94,1.16c-3.23,4-6,7.42-7.66,11.36-3.56,8.54-3.86,17.14-.87,24.87l14.92-5.77c-1.53-4-1.15-8.29.57-12.6h0v0h0v0h0l0-.06h0v0h0v0h0v0h0v0h0v0h.11v0h0v0h0l0,0h0l0,0h0l0,0h0l.07-.13h0a18.51,18.51,0,0,1,1.09-1.73h0l0-.07h0l0-.05h0l0-.07h0l0,0h0l0,0h0v0h.06v0h.05v0h.05v0h0l0,0h.05v0h0l0-.05h0v0h0v0h0l0-.05h0v0h0v0h0l0,0h0v0h0v0h0l.07-.09h0l.07-.09h0v0h0l0-.05h0v0h0v0h0l0-.06h0v0h0v0h0l0,0h.06v0h0v0h0v0h0l0-.05h0v0h0l0,0h.05v0h.06l0,0h0l0,0h0c1-1.26,2.1-2.62,3.2-4l-12.46-10Zm12.54,39.8-10.57,12h0c5.48,4.83,13.21,8,21.77,8.93a33.62,33.62,0,0,1,6.57,1.39l4.85-15.25a49.56,49.56,0,0,0-9.44-2H408c-5.19-.56-9.88-2.35-12.9-5h0l-.06.07,0-.08h0Zm32.66,11.5-8,13.88.79.47a133.77,133.77,0,0,0,23.18,11.19l5.53-15h0l-.07,0h0l-.06,0h0l-.07,0h0l-.07,0h0l-.06,0h0l-.07,0h0l-.06,0h0l-.06,0h0l-.07,0h0l-.06,0h0l-.07,0h0l-.06,0h0l-.06,0h0l-.07,0h0l-.06,0h0l-.07,0h0l-.06,0h0l-.06,0h0l-.07,0h0l-.05,0h0l-.07,0h0l-.06,0h0l-.06,0h0l-.07,0h0l-.05,0h0l-.07,0h0l-.06,0h0l-.06,0h0l-.07,0h0l-.05,0h0l-.07,0h0l-.06,0h0l-.05,0h0l-.07,0h0l-.05,0h0l-.07,0h0l-.06,0h0l-.06,0h0l-.07,0h0l-.05,0h0l-.14-.06h0l-.06,0h0l-.07,0h0l-.06,0h0l-.07,0h0l-.07,0h0l-.06,0h0l-.07,0h0l-.07,0h0l-.07,0h0l-.07,0h0l-.06,0h0l-.07,0h0l-.07,0h0l-.07,0h0l-.07,0h0l-.07,0h0l-.08,0h0l-.07,0h0l-.15-.06h0l-.07,0h0l-.15-.07h0l-.16-.07h0l-.08,0h0l-.16-.07h0a117.56,117.56,0,0,1-14.68-7.57h0l-1.13-.67Zm32,13.83-4.1,15.47a133.6,133.6,0,0,0,26.89,4.25l.87-16q-1.76-.1-3.52-.25h0l-.18,0h0l-.18,0H477.4q-2.56-.27-5.1-.66h0l-.18,0h0l-.13,0h-.06l-.13,0h-.06l-.12,0h-1.8l-.12,0h-.06l-.12,0h-.06q-4.86-.86-9.65-2.13Zm58.38.46a117.41,117.41,0,0,1-18.16,3h-1.66q-1.95.14-3.89.22l.62,16a133.74,133.74,0,0,0,27-3.83l-3.85-15.53Zm32.22-13.34a117.25,117.25,0,0,1-14.87,7.57h0l-.25.1h0l-.24.1h0l-.18.07h0l-.05,0h0l-.17.07h0l0,0h0l-.16.07h0l-.05,0h0l-.1,0h0l0,0h0l0,0h0l-.08,0h0l0,0h0l0,0,0,0-.06,0,0,0,0,0,0,0h0l-.06,0,0,0,0,0h0l0,0h0l-.07,0h0l0,0h0l-.05,0h0l-.07,0h0l-.05,0h0l-.06,0h0l-.08,0h0l-.06,0h0l-.16.06h0l-.07,0h0l-.16.06h0l-.07,0h0l-.16.06h0l-.08,0h0l-.17.06h0l-.26.1h0q-1.31.49-2.62,1l5.29,15.1a133.49,133.49,0,0,0,24.64-11.59l-8.25-13.71ZM579.16,1007c-4.36,3.11-9.1,6.49-14.21,10.06h0l-.4.28,0,0,0,0-.05,0h0l-.07,0h0l-.07,0h0l-.07,0h0l-4.63,3.21,9.08,13.17c7.19-5,13.74-9.62,19.84-14l-9.3-13Zm29.25-19.13a66.38,66.38,0,0,0-10.81,6.21h0l-.13.08h0l0,0h0l-.08.06h0l0,0h0l0,0h0l0,0h0l0,0h0l0,0h0l0,0h0l0,0h0l0,0h0l0,0h0l0,0h0l0,0h0l0,0h0l-.08.06h0l0,0h0c-2.58,1.73-5.42,3.72-8.54,5.92l9.24,13.06c3.71-2.62,13.57-9.6,17-10.94l-5.91-14.87ZM629.75,963c-.23,6.79-3.18,13.9-10.58,19.36h0l-.09.07h0l0,0h0l0,0h-.43l0,0h-.06l-.05,0h0l-.13.09,9,13.2c11.46-7.84,18-19.45,18.46-32.68l-16-.54Zm-2-42.22L616,931.64a55.34,55.34,0,0,1,7.81,10.77h0l0,.08h0l0,.08h0l0,0h0l0,0h0l0,0h0l0,0h0l0,0h0l0,0h0l0,0h0l0,0h0l0,0h0l0,0h0l0,0h0l0,0h0l0,0h0l0,.07h0l0,.07h0l0,0h0l0,0h0l0,0h0l0,0h0v0h0l0,0h0v0h0l0,0h0v0h0l0,0h0v0h0l0,0h0v0h0l0,0h0v0h0V944h0v.29l0,0v.22l0,0h0v.14l0,0v.37h0v0l0,0h0v0l0,0h0v0h0l0,0h0v0h0l0,0h0v0h0l0,0h0v0h0l0,0h0v0h0l0,0h0v0h0l0,0h0v0h0l0,0h0v0h0v0l0,0h0v0h0l0,0h0v0h0l0,0h0v0h0l0,0h0v0h0l0,0h0v0h0l0,0h0v0h0l0,0h0v0h0l0,.07h0l0,.07h0v0h0l0,0h0v0h0l0,0h0v0h0l0,0h0v0h0l0,0h0v0h0l0,0h0v0h0v0h0v.43h0v.07h0V948h0V948h0v.07h0v0h0v0h0v0h0v0h0v0h0v0h0v0h0v0h0l0,0h0l0,0h0l0,.08h0l0,.08h0v0h0l0,0h0v0h0l0,0h0v0h0l0,0h0l0,0h0l0,.08h0l0,.08h0l0,.08h0l0,.08h0l0,.08h0q.51,1.36.94,2.74l15.27-4.78a69.67,69.67,0,0,0-15.52-26.64ZM589.29,901l-4.12,15.46q4.62,1.23,9.07,2.69h0l.12,0h0l.18.06h0l.11,0h0l.1,0h0l.17.06h0l.08,0h0l.07,0h0l0,0,.06,0,0,0h0l.07,0h0l.06,0,0,0h0l.07,0h0l.07,0h0l.06,0,0,0,.07,0h0l.08,0h0l.08,0h0l.07,0h0l.07,0h0l.08,0h0l.08,0h0l.07,0h0l.08,0h0l.09,0h0l.09,0h0l.08,0h0l.09,0h0l.09,0h0l.09,0h0l.09,0h0l.09,0h0l.09,0h0l.09,0h0l.09,0h0l.09,0h0l.09,0h0l.09,0h0l.09,0h0l.09,0h0l.09,0h0l.09,0h0l.1,0h0a43.87,43.87,0,0,1,4.84,1.85h0l.57.23h0l.19.08.65.26h.06l.07,0h0l.27.11h0l0,0h.1a16.57,16.57,0,0,1,1.95,1l8.18-13.75a32.72,32.72,0,0,0-4-2l-1.56-.63-.35-.14a60.12,60.12,0,0,0-5.91-2.26c-4.74-1.71-9.72-3.26-14.8-4.62Zm-37.2-6.38-1.37,15.94a209.28,209.28,0,0,1,23.75,3.39l3.19-15.68a225.91,225.91,0,0,0-25.56-3.66Zm-21.3-.91h0v16h0q4,0,7.95.13h.51l.49,0,.61-16c-3.16-.12-6.37-.18-9.55-.18Z" transform="translate(-371.03 -893.67)"/><path class="cls-6" d="M415.5,1040.91l-11.78-12.37a5.34,5.34,0,0,1,2.75-7.58s94.9-44,99.84-43.81c6.93.29-7.78,16.06-7.06,17.68l1.67,4.34c.7,1.6.61,3.28-.21,3.74l-77.47,40.49A5.62,5.62,0,0,1,415.5,1040.91Z" transform="translate(-371.03 -893.67)"/><path class="cls-6" d="M430.47,1069.81l-12.85-10.87a6.16,6.16,0,0,1,1.42-8.52l87.29-53.59c.79-.54,8.07-8.89,9.19-7.5,0,0,5.46,9.53,13.64,13.27s-90.52,68.24-90.52,68.24A5.28,5.28,0,0,1,430.47,1069.81Z" transform="translate(-371.03 -893.67)"/><rect class="cls-7" x="391.75" y="1029.83" width="30" height="12" rx="6" ry="6" transform="translate(-867.24 -508.26) rotate(-32.8)"/><rect class="cls-7" x="406.48" y="1059.33" width="30" height="12" rx="6" ry="6" transform="translate(-961.27 -365.92) rotate(-40.43)"/><path d="M418.09,1032.34c4,5.11,7.46,9.5,5,11.61-3.55,3-13.85-2-16.92-8.69s-3.16-13.25-.2-14.6S413.51,1026.55,418.09,1032.34Z" transform="translate(-371.03 -893.67)"/><path d="M430.92,1058.66c4.76,5.92,7.81,11.63,5.32,13.64s-8.38-1.16-13.14-7.08-8.59-10.88-4.11-14.35C421.52,1048.91,426.16,1052.74,430.92,1058.66Z" transform="translate(-371.03 -893.67)"/><path class="cls-2" d="M639.6,937.34l-37.88,30a18.08,18.08,0,0,0-1.13-1.79c-2.94-4.24-12-14.81-30.77-18.24l37.86-27.43S632.91,917.57,639.6,937.34Z" transform="translate(-371.03 -893.67)"/><path class="cls-2" d="M600.6,965.56,598,967.64a10.72,10.72,0,0,0-.81-1.73c-5.44-9.46-26.61-18.29-27.32-18.58h0C588.62,950.75,597.65,961.32,600.6,965.56Z" transform="translate(-371.03 -893.67)"/><path class="cls-2" d="M607.69,919.9l-37.86,27.43c-7-12.65-21.28-14-27.91-13.87a31.3,31.3,0,0,0-3.52.23l37.09-28C600.36,901.49,607.69,919.9,607.69,919.9Z" transform="translate(-371.03 -893.67)"/><path class="cls-2" d="M597.16,965.91,594.79,968c-6.74-11.93-24.4-20.4-25-20.66C570.54,947.62,591.71,956.45,597.16,965.91Z" transform="translate(-371.03 -893.67)"/><path class="cls-2" d="M569.83,947.32a47.76,47.76,0,0,0-31.52-8.44l2.55-2.6C546.79,935.85,560.1,936.31,569.83,947.32Z" transform="translate(-371.03 -893.67)"/><path class="cls-2" d="M569.83,947.32c-9.73-11-23-11.47-29-11a27.3,27.3,0,0,0-3.07.38l4.13-3.2C548.55,933.34,562.84,934.67,569.83,947.32Z" transform="translate(-371.03 -893.67)"/><path class="cls-8" d="M607.69,919.9s25.22-2.33,31.91,17.44l-37.88,30a18.08,18.08,0,0,0-1.13-1.79c-2.94-4.24-12-14.81-30.77-18.24" transform="translate(-371.03 -893.67)"/><path class="cls-8" d="M607.69,919.9s-7.33-18.41-32.2-14.19l-37.09,28a31.3,31.3,0,0,1,3.52-.23c6.63-.11,20.92,1.22,27.91,13.87Z" transform="translate(-371.03 -893.67)"/><path class="cls-8" d="M569.84,947.33c.7.29,21.87,9.12,27.32,18.58a10.72,10.72,0,0,1,.81,1.73l2.63-2.08" transform="translate(-371.03 -893.67)"/><path class="cls-8" d="M541.92,933.45l-4.13,3.2a27.3,27.3,0,0,1,3.07-.38c5.93-.43,19.23,0,29,11" transform="translate(-371.03 -893.67)"/><path class="cls-8" d="M540.86,936.28l-2.55,2.6a47.76,47.76,0,0,1,31.52,8.44h0c.55.26,18.21,8.73,25,20.66l2.36-2.08" transform="translate(-371.03 -893.67)"/><path class="cls-8" d="M608.32,924.63s16.81-.17,21.45,11.36" transform="translate(-371.03 -893.67)"/><path class="cls-8" d="M604.71,928.81s16.4.5,20.25,11.3" transform="translate(-371.03 -893.67)"/><path class="cls-8" d="M598.33,932.61s7.77-.12,10.89,3.16" transform="translate(-371.03 -893.67)"/><path class="cls-8" d="M593.23,936.3s6.31,0,9.38,2.85" transform="translate(-371.03 -893.67)"/><path class="cls-8" d="M595.31,950.52,610.05,940s4.45-.51,7.3,6.87L603,958.13S601.14,953.79,595.31,950.52Z" transform="translate(-371.03 -893.67)"/><path class="cls-9" d="M530.75,1003.85l-35.41-21.93a6,6,0,0,1-1.77-8.28l43.65-31.13a16.59,16.59,0,0,1,22.88-4.89h0A16.59,16.59,0,0,1,565,960.5l-27.1,41.83A5.18,5.18,0,0,1,530.75,1003.85Z" transform="translate(-371.03 -893.67)"/><path class="cls-10" d="M593.72,927.32c-6.3-14.44-9.46-21.66-15.25-23.93a16.41,16.41,0,0,0-10.37-.86c-10.74,3-18.56,19.41-13,31.6,3.58,7.84,12.91,14.4,19.23,12.47,6.5-2,10.07-13,16.7-12.82.78,0,2.46.23,3.31-.77C595.55,931.59,594.33,928.71,593.72,927.32Z" transform="translate(-371.03 -893.67)"/><path class="cls-11" d="M585.9,922.56s-4.27,3.64-8.39.67" transform="translate(-371.03 -893.67)"/><path class="cls-11" d="M581.06,941.15a11,11,0,0,1-5.13-2.83c-.24-.21-.46-.43-.66-.64" transform="translate(-371.03 -893.67)"/><path class="cls-2" d="M580.75,974.31a19.71,19.71,0,0,1-14.86-6.09,20.19,20.19,0,0,1-4.33-7.19l9.31-2.35a10,10,0,0,0,9.94,6.09,19.24,19.24,0,0,0,2.59-.19C594.74,963,596.7,951,596.72,950.92a4.8,4.8,0,0,1,4.71-4,4.72,4.72,0,0,1,.73.06,4.77,4.77,0,0,1,4,5.43,29.49,29.49,0,0,1-3.68,9.78A23.87,23.87,0,0,1,584.69,974,29,29,0,0,1,580.75,974.31Z" transform="translate(-371.03 -893.67)"/><path d="M601.42,947.71h0a4,4,0,0,1,.6,0,3.93,3.93,0,0,1,3.29,4.47,28.53,28.53,0,0,1-3.58,9.48,23.06,23.06,0,0,1-17.16,11.49,28.29,28.29,0,0,1-3.83.27,18.88,18.88,0,0,1-14.25-5.83,19.59,19.59,0,0,1-3.83-6l7.73-1.95a10.8,10.8,0,0,0,10.4,5.95,20,20,0,0,0,2.71-.19c11.94-1.64,14-14.24,14-14.37a4,4,0,0,1,3.87-3.33m0-1.68a5.61,5.61,0,0,0-5.54,4.76c0,.11-1.88,11.49-12.61,13a18.26,18.26,0,0,1-2.48.18,9.19,9.19,0,0,1-9.45-6.33l0,.08-10.88,2.74a20.36,20.36,0,0,0,20.25,14.73,29.83,29.83,0,0,0,4.05-.29,24.69,24.69,0,0,0,18.38-12.3A30.37,30.37,0,0,0,607,952.48a5.61,5.61,0,0,0-5.55-6.46Z" transform="translate(-371.03 -893.67)"/><path class="cls-12" d="M571.1,956s-2.67-9.86-11.3-6.35c-6.44,2.62-3.23,9.12-1.17,12.26a3.72,3.72,0,0,0,3.75,1.64C564.91,963.08,568.8,961.47,571.1,956Z" transform="translate(-371.03 -893.67)"/><path class="cls-13" d="M539.81,920.06c-.25-7.76.41-19.64,12-24.27,14.17-5.64,39.91,4.72,34.07,9.81-1.33,1.16-2.49,2.46-2.45,4.33.45,20.85-15.57,17.74-16,28.53.28,12.05-2.64,15.79-5.44,17.47-3.14,1.88-4.73,5-3.91,8,2.68,9.84,4.63,12.23.07,18.79-7,10.12-24.21,1.15-46.71,15.42-12.71,8.06-14.45,18.73-22.41,18.22-6.76-.43-14-8.66-12.55-15.42,2.39-11,26-9.65,31.38-21.73,5.09-11.48-12.82-20.44-8.07-33.64a20.18,20.18,0,0,1,6.74-8.74,36.45,36.45,0,0,1,18.21-7.12C531.11,928.93,540,924.77,539.81,920.06Z" transform="translate(-371.03 -893.67)"/><path class="cls-2" d="M573.83,930.86c.17-.19-1.61-5.19-3.56-5.71a1.79,1.79,0,0,0-1.07,0c-1.5.52-2.09,3.19-.9,5.57,1.09,2.17,3.71,3.24,4,2.84C574.16,931.28,572.71,932.14,573.83,930.86Z" transform="translate(-371.03 -893.67)"/><path class="cls-12" d="M569.79,928.21a8.25,8.25,0,0,1,1.27,2.32" transform="translate(-371.03 -893.67)"/><path class="cls-14" d="M543.41,969.61c-.3.06-.46-14.84,3.9-20.86,1.05-1.46,2.93-1.93,3.81-4.62,1.38-4.25,2.23-8.08,2.54-8s2.2,10.11-3.11,13.56c-2.43,1.58-2.47,2.47-4,5.26C543.2,961,543.63,969.57,543.41,969.61Z" transform="translate(-371.03 -893.67)"/><path class="cls-15" d="M503.63,997.44c-1.27-.27-8.63,11.26-13.81,11.91-6.28.79-6.36-3.34-7.16-3s1,6.26,4.95,6.79c4.35.58,11-6.75,11.68-7.49C502.81,1001.73,504.36,997.59,503.63,997.44Z" transform="translate(-371.03 -893.67)"/><path class="cls-2" d="M479.36,981.65h.24c.29,0,.43-.16.43-.48-.16,0-.24-.06-.24-.19a1.83,1.83,0,0,1,.72-.24v-.24h-.24A1.09,1.09,0,0,0,479.36,981.65Z" transform="translate(-371.03 -893.67)"/><path class="cls-2" d="M490.24,928.11h1.15q-.33-1.53-2.3-1.53h-.38Q488.71,927.2,490.24,928.11Z" transform="translate(-371.03 -893.67)"/><path class="cls-2" d="M441.68,967.11a3.26,3.26,0,0,1,1.25-.38v-.82c-.33.13-.67.24-1,.36Z" transform="translate(-371.03 -893.67)"/><path class="cls-2" d="M433.54,945.66q-.19,0-1.48-1.53c-.45.06-.67.26-.67.57v.62q.72,0,1.87,1.2h.29l-.29-.62C433.44,945.9,433.54,945.82,433.54,945.66Z" transform="translate(-371.03 -893.67)"/><path class="cls-2" d="M581.77,993.07l.49-.59q.34-.4-.19-1.72l-.83-.13A1.88,1.88,0,0,0,581.77,993.07Z" transform="translate(-371.03 -893.67)"/><path class="cls-2" d="M510.77,1033.59l-.29-.62-1.18-1,.54-1.1-.44-.37a5.2,5.2,0,0,0-.9,4.3A7.14,7.14,0,0,0,510.77,1033.59Z" transform="translate(-371.03 -893.67)"/></g></g></svg>